<svg xmlns="http://www.w3.org/2000/svg" viewBox="0 0 960 712">
    <path d="m0 0h960v712h-960z" style="fill:#819385" />
    <g style="stroke-linejoin:round;stroke-width:.7">
        <path d="m959 712h1v-1.5-1.5-2-2-2.5-2.5-2-2-2.5-2.5-2-2-2-2h-.5-.5l-10-7-10-7 3-6.5 3-6.5 7.5-11 7.5-11v-23.5-23.5-24.5-24.5-24-24h-.5-.5v.5.5l-.5 25.5-.5 25.5v-25.5-25.5l-1.5-18-1.5-18 1-11 1-11-.5-1-.5-1-6 10.5-6 10.5 2.5 14.5 2.5 14.5 1 11 1 11 .5 9.5.5 9.5-1 14.5-1 14.5-6 9-6 9 2.5 8.5 2.5 8.5-3.5 7.5-3.5 7.5-1.5 13.5-1.5 13.5-8.5 6.5-8.5 6.5 1.5 13.5 1.5 13.5 9 6 9 6-1 3-1 3-4.5 13-4.5 13h2 2 2.5 2.5 2 2 2 2 2.5 2.5 2 2 2.5 2.5 1 1" style="fill:#363529;stroke:#363529" />
        <g style="fill:#404740;stroke:#404740">
            <path d="m959 683h1v-23.5-23.5-1-1l-7.5 11-7.5 11-3 6.5-3 6.5 10 7 10 7" />
            <path d="m959 490h1v-23.5-23.5-4.5-4.5h-.5-.5v-.5-.5h-1-1l-1 11-1 11 1.5 18 1.5 18h.5.5v-.5-.5" />
        </g>
        <path d="m959 434h1v-23.5-23.5-24.5-24.5-2-2h-.5-.5v24 24 25.5 25.5.5.5" style="fill:#1c1f14;stroke:#1c1f14" />
        <path d="m959 334h1v-1.5-1.5-2-2-2.5-2.5-2-2-2.5-2.5-1-1h-.5-.5-3-3l-9.5 2-9.5 2v2 2l.5 1.5.5 1.5-1 1.5-1 1.5-.5 1.5-.5 1.5v1.5 1.5l1 1 1 1v1 1l-1.5 1.5-1.5 1.5 10.5-5.5 10.5-5.5 3 14.5 3 14.5-.5 37-.5 37-.5.5-.5.5.5 1 .5 1h1 1v-25.5-25.5-24-24" style="fill:#24333d;stroke:#24333d" />
        <path d="m959 311h1v-1.5-1.5-2-2-2.5-2.5-2-2-2.5-2.5-2-2-2.5-2.5-.5-.5h-.5-.5v-1.5-1.5l-.5 1-.5 1v1 1 1.5 1.5 2 2 1 1l-.5 1.5-.5 1.5v1.5 1.5 1 1 1.5 1.5l-.5-.5-.5-.5v-1-1h-1-1l.5 1 .5 1v1 1l.5.5.5.5.5.5.5.5v1 1l-.5.5-.5.5h-1-1l-1-.5-1-.5-1.5-.5-1.5-.5h-1.5-1.5-2-2l-1.5 1-1.5 1-1 1-1 1-1 1-1 1-.5 1-.5 1v1 1l9.5-2 9.5-2h3 3" style="fill:#363529;stroke:#363529" />
        <path d="m959 280h1v-1.5-1.5-2-2-2.5-2.5-2-2-2.5-2.5-2-2-2.5-2.5-2-2-.5-.5h-.5-.5l-.5-19-.5-19-8-6-8-6-5.5 4-5.5 4-5.5-5.5-5.5-5.5-10 2.5-10 2.5-7 .5-7 .5-10-3.5-10-3.5-9.5-1.5-9.5-1.5-7.5 3-7.5 3-12-3-12-3-7 5.5-7 5.5-8.5 2.5-8.5 2.5-8-.5-8-.5-5 4.5-5 4.5-8.5-1-8.5-1-3 1-3 1-4.5-4-4.5-4-3.5 11.5-3.5 11.5-8 3.5-8 3.5-8.5 3.5-8.5 3.5h-12.5-12.5l-2.5 9-2.5 9-8-4-8-4-5.5 2-5.5 2-3-8.5-3-8.5-6.5 3.5-6.5 3.5-8.5-2-8.5-2-10.5.5-10.5.5 1.5-6 1.5-6 .5-4 .5-4-7.5-6.5-7.5-6.5 8.5 1 8.5 1-6.5-6-6.5-6-7.5-2.5-7.5-2.5-4.5 11-4.5 11-7-9.5-7-9.5-6 7-6 7-7 6-7 6-7.5-1.5-7.5-1.5 5.5-5 5.5-5 4-10 4-10-8 8-8 8-9-6-9-6-6 2.5-6 2.5-2-5-2-5-3.5-12-3.5-12-.5-11-.5-11-3 11.5-3 11.5-5 10.5-5 10.5 2.5 5 2.5 5-5 1-5 1-2.5-6.5-2.5-6.5-1.5-4.5-1.5-4.5-5 7.5-5 7.5-5.5 3.5-5.5 3.5-1-6.5-1-6.5-1-12.5-1-12.5-13.5-2-13.5-2-13.5-3-13.5-3 3-4.5 3-4.5 2-4 2-4-7.5-6-7.5-6 1-4.5 1-4.5-9.5 1-9.5 1-2-9.5-2-9.5h5.5 5.5l-1-6.5-1-6.5-8.5-4.5-8.5-4.5.5-13 .5-13 1.5-8 1.5-8-2.5-16-2.5-16h-2-2-2.5-2.5-.5-.5l-.5 16-.5 16 2 15.5 2 15.5-1 18.5-1 18.5-1 11.5-1 11.5v9.5 9.5l2 12.5 2 12.5-.5 10-.5 10-.5 10.5-.5 10.5 4 8.5 4 8.5-.5 7-.5 7 9.5-3 9.5-3-2 9.5-2 9.5 5.5 7 5.5 7 1.5 12.5 1.5 12.5 8.5 5 8.5 5 8.5 2 8.5 2 6.5 3 6.5 3 7.5 8 7.5 8-4.5 3-4.5 3 5 5 5 5 4-1 4-1 9.5 10.5 9.5 10.5 3-5.5 3-5.5 8-1 8-1v9 9l14.5-.5 14.5-.5-.5-4.5-.5-4.5.5-4.5.5-4.5 12.5.5 12.5.5-7 6.5-7 6.5 9.5 1.5 9.5 1.5 3.5.5 3.5.5 7-7 7-7 14.5 3.5 14.5 3.5 11.5 1 11.5 1 11.5 1.5 11.5 1.5-3 6.5-3 6.5 13 1.5 13 1.5-3 4.5-3 4.5 9 .5 9 .5 10-2.5 10-2.5 5-4 5-4 10-4 10-4v-.5-.5.5.5l9.5-7 9.5-7v-8-8l9-3.5 9-3.5 2-15.5 2-15.5 3 8.5 3 8.5 5 1 5 1 7-14.5 7-14.5 5.5-25 5.5-25 12-14.5 12-14.5 1.5-1 1.5-1 19-4 19-4 18.5 5 18.5 5 10.5 9 10.5 9 11.5 2 11.5 2 8.5 11.5 8.5 11.5 8.5 10.5 8.5 10.5 11 7.5 11 7.5.5-1.5.5-1.5v-1-1-2-2-1.5-1.5-1-1l.5-1 .5-1v1.5 1.5" style="fill:#71806d;stroke:#71806d" />
        <path d="m959 245h1v-23.5-23.5-24.5-24.5-24.5-24.5-24.5-24.5-24.5-24.5-1-1h-23.5-23.5-24-24-24.5-24.5-24.5-24.5-24.5-24.5-24.5-24.5-24.5-24.5-24-24-24.5-24.5-24.5-24.5-24.5-24.5-24.5-24.5-24.5-24.5-15-15l2.5 16 2.5 16-1.5 8-1.5 8-.5 13-.5 13 8.5 4.5 8.5 4.5 1 6.5 1 6.5h-5.5-5.5l2 9.5 2 9.5 9.5-1 9.5-1-1 4.5-1 4.5 7.5 6 7.5 6-2 4-2 4-3 4.5-3 4.5 13.5 3 13.5 3 13.5 2 13.5 2 1 12.5 1 12.5 1 6.5 1 6.5 5.5-3.5 5.5-3.5 5-7.5 5-7.5 1.5 4.5 1.5 4.5 2.5 6.5 2.5 6.5 5-1 5-1-2.5-5-2.5-5 5-10.5 5-10.5 3-11.5 3-11.5.5 11 .5 11 3.5 12 3.5 12 2 5 2 5 6-2.5 6-2.5 9 6 9 6 8-8 8-8-4 10-4 10-5.5 5-5.5 5 7.5 1.5 7.5 1.5 7-6 7-6 6-7 6-7-.5-1-.5-1-.5-.5-.5-.5h-1-1l-.5.5-.5.5-.5-.5-.5-.5-.5-1-.5-1-.5-.5-.5-.5h1 1 1 1l1-.5 1-.5h1 1l.5-.5.5-.5.5-.5.5-.5.5-.5.5-.5 1-.5 1-.5.5.5.5.5.5.5.5.5v1 1l-.5 1-.5 1-.5 1.5-.5 1.5-2.5 1-2.5 1 7 9.5 7 9.5 4.5-11 4.5-11 7.5 2.5 7.5 2.5 6.5 6 6.5 6-8.5-1-8.5-1 7.5 6.5 7.5 6.5-.5 4-.5 4-1.5 6-1.5 6 10.5-.5 10.5-.5 8.5 2 8.5 2 6.5-3.5 6.5-3.5 3 8.5 3 8.5 5.5-2 5.5-2 8 4 8 4 2.5-9 2.5-9h12.5 12.5l8.5-3.5 8.5-3.5 8-3.5 8-3.5 3.5-11.5 3.5-11.5 4.5 4 4.5 4 3-1 3-1 8.5 1 8.5 1 5-4.5 5-4.5 8 .5 8 .5 8.5-2.5 8.5-2.5 7-5.5 7-5.5 12 3 12 3 7.5-3 7.5-3 9.5 1.5 9.5 1.5 10 3.5 10 3.5 7-.5 7-.5 10-2.5 10-2.5 5.5 5.5 5.5 5.5 5.5-4 5.5-4 8 6 8 6 .5 19 .5 19" style="fill:#819385;stroke:#819385" />
        <path d="m958 542l1-51h-.5-.5v25.5 25.5" style="fill:#24333d;stroke:#24333d" />
        <path d="m957 430l1-74-3-14.5-3-14.5-10.5 5.5-10.5 5.5-2.5 17-2.5 17-2.5 20-2.5 20-2 10-2 10-4.5 9-4.5 9-2.5 9-2.5 9-12.5 3-12.5 3 2.5-2 2.5-2-7-14.5-7-14.5 4.5-10.5 4.5-10.5-4.5-2-4.5-2-5.5 3-5.5 3-7.5-8-7.5-8v-2.5-2.5l9-13.5 9-13.5 15.5 3.5 15.5 3.5 6.5 12 6.5 12 3.5-3 3.5-3-5-13.5-5-13.5-5-15.5-5-15.5-4-13.5-4-13.5-5.5-25-5.5-25-2-.5-2-.5-1-1-1-1-1-1.5-1-1.5-.5-1.5-.5-1.5 2-.5 2-.5.5-1.5.5-1.5-1.5-.5-1.5-.5-1.5-1-1.5-1-1.5-1-1.5-1-1.5.5-1.5.5-.5.5-.5.5v2 2l1 .5 1 .5.5.5.5.5v1 1l-.5 1-.5 1 .5.5.5.5.5.5.5.5.5.5.5.5v1 1l-1 .5-1 .5-1 .5-1 .5-.5-1.5-.5-1.5-.5-.5-.5-.5-1.5.5-1.5.5-1.5 1-1.5 1v-1-1l1-1.5 1-1.5-.5-1.5-.5-1.5-1.5.5-1.5.5-1 .5-1 .5-1.5-.5-1.5-.5-2 .5-2 .5h-1-1l1.5.5 1.5.5-.5 1.5-.5 1.5-2 .5-2 .5-.5 2-.5 2-1 1-1 1-3 .5-3 .5-1.5 7-1.5 7-2 13-2 13-4 7.5-4 7.5-8.5 5.5-8.5 5.5-3.5 12-3.5 12-8.5 8-8.5 8-12-3-12-3v-.5-.5l11.5-2 11.5-2-6.5-12-6.5-12-10 5-10 5-2 10-2 10-4.5 14.5-4.5 14.5 2 .5 2 .5h1.5 1.5l1.5-.5 1.5-.5h1.5 1.5l1.5.5 1.5.5 2 .5 2 .5h2 2l1 1 1 1 .5 2 .5 2-.5 1.5-.5 1.5-6 15-6 15-1.5-.5-1.5-.5h-2-2l-1.5-.5-1.5-.5h-1.5-1.5l-.5.5-.5.5-7-1.5-7-1.5-1-.5-1-.5h-1-1l-1.5-.5-1.5-.5-.5.5-.5.5-5.5 16.5-5.5 16.5.5 17.5.5 17.5-4 15.5-4 15.5.5-1 .5-1v-1-1-1-1l-.5-.5-.5-.5v-2-2h-.5-.5l-8 18-8 18 1 .5 1 .5h1 1l1 .5 1 .5 19.5-6 19.5-6h1.5 1.5l2 .5 2 .5-3.5-11.5-3.5-11.5-.5-1.5-.5-1.5-1.5-6-1.5-6-3-13-3-13 12.5-4.5 12.5-4.5 6-3.5 6-3.5 8-7 8-7 4.5-8.5 4.5-8.5 3.5 10.5 3.5 10.5 12 1 12 1 1 2 1 2-5.5 11.5-5.5 11.5h2 2 2.5 2.5l.5 1 .5 1 1 .5 1 .5h1 1l1-1 1-1h2.5 2.5 2.5 2.5l1.5 1 1.5 1 15 9 15 9 13.5 7 13.5 7-8 5.5-8 5.5-15-6-15-6-9-10.5-9-10.5-2-.5-2-.5-1-.5-1-.5-.5.5-.5.5h-1-1l-.5-.5-.5-.5-1-.5-1-.5-.5.5-.5.5v1 1l.5.5.5.5v1.5 1.5h-1-1-1-1l-.5-.5-.5-.5v-1.5-1.5l-.5-.5-.5-.5-.5-.5-.5-.5h-2-2l9.5 5 9.5 5 10 8 10 8 16 7.5 16 7.5 11 5.5 11 5.5-2 15-2 15 10-6 10-6h9 9l3 10 3 10-4.5-.5-4.5-.5 3 14 3 14-2.5 7-2.5 7-1 5-1 5v10.5 10.5l8.5 9 8.5 9-7 15.5-7 15.5h2.5 2.5 2.5 2.5 2 2 1.5 1.5l4.5-13 4.5-13 1-3 1-3-9-6-9-6-1.5-13.5-1.5-13.5 8.5-6.5 8.5-6.5 1.5-13.5 1.5-13.5 3.5-7.5 3.5-7.5-2.5-8.5-2.5-8.5 6-9 6-9 1-14.5 1-14.5-.5-9.5-.5-9.5-1-11-1-11-2.5-14.5-2.5-14.5 6-10.5 6-10.5.5-.5.5-.5" style="fill:#242a21;stroke:#242a21" />
        <path d="m957 306v-2l-.5-.5-.5-.5-.5-.5-.5-.5v-1-1l-.5-1-.5-1h1 1v1 1l.5.5.5.5v-1.5-1.5-1-1-1.5-1.5l-11-7.5-11-7.5-8.5-10.5-8.5-10.5-8.5-11.5-8.5-11.5-11.5-2-11.5-2-10.5-9-10.5-9-18.5-5-18.5-5-19 4-19 4 19-3.5 19-3.5 16 5 16 5 11 13 11 13 11.5 10.5 11.5 10.5 6 14 6 14 5.5 11.5 5.5 11.5 18.5-2.5 18.5-2.5" style="fill:#626e60;stroke:#626e60" />
        <path d="m956 427l1-29-4-5.5-4-5.5-2 5.5-2 5.5-6 11.5-6 11.5 9 2.5 9 2.5 2.5.5 2.5.5" style="fill:#1c1f14;stroke:#1c1f14" />
        <path d="m956 307l1-1-18.5 2.5-18.5 2.5-5.5-11.5-5.5-11.5-6-14-6-14-11.5-10.5-11.5-10.5-11-13-11-13-16-5-16-5-19 3.5-19 3.5-1.5 1-1.5 1-.5.5-.5.5-1 .5-1 .5-1 1.5-1 1.5 18-6 18-6 18.5 4 18.5 4 11 13.5 11 13.5 10 13.5 10 13.5 7 11 7 11 4 9.5 4 9.5 5 16.5 5 16.5 7-15 7-15 1-1 1-1 1-1 1-1 1.5-1 1.5-1h2 2 1.5 1.5l1.5.5 1.5.5 1 .5 1 .5h1 1" style="fill:#525a4e;stroke:#525a4e" />
        <path d="m938 511l1-27-1.5-18-1.5-18-2.5-3-2.5-3-2.5 14-2.5 14 .5 17 .5 17 .5 14 .5 14 5-10.5 5-10.5" style="fill:#1c1f14;stroke:#1c1f14" />
        <path d="m934 335v-2l-1-1-1-1v-1.5-1.5l.5-1.5.5-1.5 1-1.5 1-1.5-.5-1.5-.5-1.5v-2-2l-3.5 20-3.5 20-2.5 19-2.5 19-5-13-5-13-5-14.5-5-14.5-6-13-6-13-8.5-24-8.5-24 5.5 25 5.5 25 4 13.5 4 13.5 5 15.5 5 15.5 5 13.5 5 13.5-3.5 3-3.5 3-6.5-12-6.5-12-15.5-3.5-15.5-3.5-9 13.5-9 13.5v2.5 2.5l7.5 8 7.5 8 5.5-3 5.5-3 4.5 2 4.5 2-4.5 10.5-4.5 10.5 7 14.5 7 14.5-2.5 2-2.5 2 12.5-3 12.5-3 2.5-9 2.5-9 4.5-9 4.5-9 2-10 2-10 2.5-20 2.5-20 2.5-17 2.5-17 1.5-1.5 1.5-1.5" style="fill:#363529;stroke:#363529" />
        <path d="m934 313l1-2-7 15-7 15-5-16.5-5-16.5-4-9.5-4-9.5-7-11-7-11-10-13.5-10-13.5-11-13.5-11-13.5-18.5-4-18.5-4-18 6-18 6-1 1.5-1 1.5-1.5 1-1.5 1-1 1-1 1-1.5 1-1.5 1-.5 1.5-.5 1.5-1 1-1 1-.5 2-.5 2-1 1-1 1-1 2-1 2v1.5 1.5l-.5 1-.5 1v1 1 1 1l.5.5.5.5h1 1l1-.5 1-.5h1 1 1 1 1 1l.5-.5.5-.5 1 .5 1 .5.5.5.5.5.5.5.5.5h1 1l1 .5 1 .5 1.5-.5 1.5-.5h1.5 1.5l-1 1-1 1 1 2 1 2h13.5 13.5l-9.5-4-9.5-4-12.5-6-12.5-6 .5-1 .5-1-.5-.5-.5-.5-1-.5-1-.5.5-.5.5-.5.5-.5.5-.5.5-.5.5-.5.5-1 .5-1 .5-1.5.5-1.5h1 1l.5.5.5.5 1.5-.5 1.5-.5 9.5-1.5 9.5-1.5 14-5.5 14-5.5 12.5 2.5 12.5 2.5 12 13.5 12 13.5 1 2 1 2-.5 1.5-.5 1.5.5 1.5.5 1.5.5 1 .5 1v1 1l.5 1 .5 1v1 1 1 1l8.5 24 8.5 24 6 13 6 13 5 14.5 5 14.5 5 13 5 13 2.5-19 2.5-19 3.5-20 3.5-20v-1-1" style="fill:#404740;stroke:#404740" />
        <path d="m923 681l-17-18v-10.5-10.5l1-5 1-5 2.5-7 2.5-7-3-14-3-14 4.5.5 4.5.5-3-10-3-10h-9-9l-10 6-10 6 2-15 2-15-11-5.5-11-5.5-16-7.5-16-7.5-10-8-10-8-9.5-5-9.5-5-1-.5-1-.5-.5-1.5-.5-1.5.5-.5.5-.5v-1.5-1.5l1.5-1.5 1.5-1.5 5.5-11.5 5.5-11.5-1-2-1-2-12-1-12-1-3.5-10.5-3.5-10.5-4.5 8.5-4.5 8.5-8 7-8 7-6 3.5-6 3.5-12.5 4.5-12.5 4.5 3 13 3 13 1.5 6 1.5 6 .5 1.5.5 1.5 3.5 11.5 3.5 11.5 1 .5 1 .5 1.5.5 1.5.5.5.5.5.5 1-.5 1-.5h1 1l2 .5 2 .5 1 1 1 1 1 .5 1 .5 1 1 1 1 .5 17 .5 17 6 13 6 13h1.5 1.5 2 2 1 1 1.5 1.5l1.5.5 1.5.5.5.5.5.5.5.5.5.5 1 1 1 1 2-.5 2-.5-.5 1.5-.5 1.5-1 2-1 2-1.5.5-1.5.5-1 1.5-1 1.5-1 1-1 1-2 1-2 1-10 8.5-10 8.5-1 10-1 10 14.5.5 14.5.5 13 3 13 3 26.5-3 26.5-3-.5-1-.5-1v-2-2h-1.5-1.5l-1.5-.5-1.5-.5-1.5-.5-1.5-.5v-2.5-2.5l7-7.5 7-7.5 11 7 11 7 10 13 10 13-12.5 1-12.5 1v1.5 1.5l-1.5-.5-1.5-.5v1 1l.5 1 .5 1-.5 1.5-.5 1.5-1.5 1-1.5 1v2 2l1.5-1 1.5-1 1-1 1-1 .5.5.5.5-14.5-1.5-14.5-1.5-24 6.5-24 6.5h24.5 24.5 24.5 24.5 11 11l7-15.5 7-15.5" style="fill:#1c1f14;stroke:#1c1f14" />
        <path d="m891 688l-20-26-11-7-11-7-7 7.5-7 7.5 14 4 14 4-14-4-14-4v2.5 2.5l1.5.5 1.5.5 1.5.5 1.5.5h1.5 1.5v2 2l.5 1 .5 1 2.5.5 2.5.5 1.5.5 1.5.5 1 1 1 1 1 1.5 1 1.5-1 1-1 1-1.5.5-1.5.5 1.5 1 1.5 1 1.5.5 1.5.5 1.5-1 1.5-1 1.5.5 1.5.5 1 1 1 1 12.5-1 12.5-1" style="fill:#242a21;stroke:#242a21" />
        <path d="m886 383l-23 1 8 4.5 8 4.5 3.5-5 3.5-5" style="fill:#404740;stroke:#404740" />
        <g style="fill:#363529;stroke:#363529">
            <path d="m873 262v-2l-.5-1-.5-1v-1-1l-.5-1-.5-1-.5-1.5-.5-1.5.5-1.5.5-1.5-1-2-1-2-.5 1.5-.5 1.5v-1.5-1.5h-1-1l-1-1-1-1-1-.5-1-.5-1 1-1 1v1.5 1.5l1.5 1 1.5 1 1.5 1 1.5 1 1.5.5 1.5.5-.5 1.5-.5 1.5-2 .5-2 .5.5 1.5.5 1.5 1 1.5 1 1.5 1 1 1 1 2 .5 2 .5v-1-1" />
            <path d="m870 525l-27-14-15-9-15-9 .5 1 .5 1-.5 2-.5 2-.5 1.5-.5 1.5-1.5.5-1.5.5h-1.5-1.5l9 10.5 9 10.5 15 6 15 6 8-5.5 8-5.5" />
        </g>
        <path d="m868 247l1-3-12-13.5-12-13.5-12.5-2.5-12.5-2.5 4.5 8.5 4.5 8.5 5-.5 5-.5 12 4.5 12 4.5-1 1-1 1h-1.5-1.5l-1 1-1 1 .5 2 .5 2v1 1l1.5-.5 1.5-.5v-1.5-1.5l1-1 1-1 1 .5 1 .5 1 1 1 1h1 1v1.5 1.5" style="fill:#24333d;stroke:#24333d" />
        <path d="m866 702l-1-1-1 1-1 1-1.5 1-1.5 1v-2-2l1.5-1 1.5-1 .5-1.5.5-1.5-.5-1-.5-1v-1-1l1.5.5 1.5.5v-1.5-1.5l-1-1-1-1-1.5-.5-1.5-.5-1.5 1-1.5 1-1.5-.5-1.5-.5-1.5-1-1.5-1-.5 1-.5 1-16.5 1.5-16.5 1.5-10-1.5-10-1.5 27-1 27-1 1.5-.5 1.5-.5 1-1 1-1-1-1.5-1-1.5-1-1-1-1-1.5-.5-1.5-.5-2.5-.5-2.5-.5-26.5 3-26.5 3-13-3-13-3-14.5-.5-14.5-.5 1-10 1-10 10-8.5 10-8.5 5-7 5-7-1-1-1-1-.5-.5-.5-.5-.5-.5-.5-.5-1.5-.5-1.5-.5h-1.5-1.5-1-1v1 1l-3.5-1-3.5-1-6-13-6-13-.5-17-.5-17-.5 2-.5 2-.5 1.5-.5 1.5-.5.5-.5.5-1-.5-1-.5-1.5.5-1.5.5-.5.5-.5.5-1-.5-1-.5h-1-1-1-1l-1-.5-1-.5-1 1-1 1h-1-1l-.5-.5-.5-.5h-1-1-1.5-1.5l-.5.5-.5.5h-1-1l-1-.5-1-.5-17.5 1.5-17.5 1.5-18 1.5-18 1.5-13.5.5-13.5.5-24 1-24 1-.5.5-.5.5-15 1-15 1-13 2.5-13 2.5-13-.5-13-.5-5.5 14.5-5.5 14.5-2 20.5-2 20.5-3 29.5-3 29.5h24 24 24 24 24.5 24.5 24.5 24.5 24.5 24.5 24.5 24.5 1.5 1.5l18-2 18-2-1 2-1 2h1.5 1.5 1 1l24-6.5 24-6.5 14.5 1.5 14.5 1.5" style="fill:#2e2411;stroke:#2e2411" />
        <path d="m866 517l-16-22-.5-5-.5-5-8.5 8-8.5 8 15.5 8 15.5 8h1.5 1.5" style="fill:#1c1f14;stroke:#1c1f14" />
        <g style="fill:#363529;stroke:#363529">
            <path d="m863 237l-24-9-5 .5-5 .5-4.5-8.5-4.5-8.5-14 5.5-14 5.5-9.5 1.5-9.5 1.5 1-.5 1-.5 1 .5 1 .5v1 1l-.5-.5-.5-.5.5 1 .5 1v1.5 1.5l-6.5 3-6.5 3 12.5 6 12.5 6 9.5 4 9.5 4-.5.5-.5.5-.5 1-.5 1v1.5 1.5l1 .5 1 .5-.5 1-.5 1 1 1 1 1 .5 1 .5 1-19 4-19 4-.5 1-.5 1v1.5 1.5l-.5.5-.5.5-.5.5-.5.5 1 1 1 1 .5-1 .5-1 .5-.5.5-.5 1 .5 1 .5v1 1 1 1h1 1 1.5 1.5l.5-.5.5-.5.5-.5.5-.5h1 1l.5 1 .5 1 1.5 1 1.5 1 1.5 1 1.5 1h2 2l1.5 1 1.5 1h2 2v1 1l-1 1.5-1 1.5-1 1-1 1-1.5 1-1.5 1h-2-2l-1 .5-1 .5-.5.5-.5.5h-1.5-1.5l-1.5.5-1.5.5-1.5.5-1.5.5-1-1.5-1-1.5-.5-1.5-.5-1.5v-1.5-1.5l-1-1-1-1v-2.5-2.5l-1-1-1-1-1 .5-1 .5-.5 1.5-.5 1.5-.5.5-.5.5-.5 1-.5 1-1 1-1 1h-1.5-1.5v16 16l-9-10.5-9-10.5-12 19.5-12 19.5 1 25 1 25 4.5-14.5 4.5-14.5 2-10 2-10 10-5 10-5 6.5 12 6.5 12-11.5 2-11.5 2 1-1.5 1-1.5 1.5-.5 1.5-.5 1.5.5 1.5.5.5.5.5.5 1 .5 1 .5-.5 2-.5 2h-2-2-2-2l-1-1-1-1 12 3 12 3 8.5-8 8.5-8 3.5-12 3.5-12 8.5-5.5 8.5-5.5 4-7.5 4-7.5 2-13 2-13 1.5-7 1.5-7 5.5-6 5.5-6-2-.5-2-.5-1 1-1 1v-1.5-1.5l1-1 1-1-1.5-1-1.5-1 .5-1.5.5-1.5 2-.5 2-.5.5-1 .5-1v-1.5-1.5l-1-.5-1-.5 1-1 1-1 1.5-.5 1.5-.5h2 2 1.5 1.5l1.5.5 1.5.5 1.5-1 1.5-1 .5 1.5.5 1.5 1 1.5 1 1.5 1.5 1.5 1.5 1.5v-1-1l-.5-2-.5-2 1-1 1-1h1.5 1.5l1-1 1-1" />
            <path d="m861 263v-2l-.5-.5-.5-.5-.5-.5-.5-.5-.5-.5-.5-.5.5-1 .5-1v-1-1l-.5-.5-.5-.5-1-.5-1-.5v1.5 1.5l-1.5 1-1.5 1-.5 1.5-.5 1.5v1 1l1.5-.5 1.5-.5.5.5.5.5.5 1.5.5 1.5 1-.5 1-.5 1-.5 1-.5" />
            <path d="m858 587v-2l-.5-1.5-.5-1.5v-1-1-1.5-1.5l-1.5-.5-1.5-.5.5-.5.5-.5 1-.5 1-.5-.5-1.5-.5-1.5v-1-1l.5-1 .5-1-.5-1.5-.5-1.5h-1-1l-.5-.5-.5-.5h-1.5-1.5l-16 1-16 1-10.5-7-10.5-7 6.5 9 6.5 9 9.5 5 9.5 5 14.5 4 14.5 4" />
        </g>
        <g style="fill:#242a21;stroke:#242a21">
            <path d="m858 583l1-3v-2-2-2.5-2.5-2-2l-.5-2-.5-2-1-1-1-1-2 .5-2 .5-1 .5-1 .5h1.5 1.5l.5.5.5.5h1 1l.5 1.5.5 1.5-.5 1-.5 1v1 1l.5 1.5.5 1.5-1 .5-1 .5-.5.5-.5.5 1.5.5 1.5.5v1.5 1.5 1 1l.5 1.5.5 1.5v-1-1" />
            <path d="m857 589l1-2-14.5-4-14.5-4-9.5-5-9.5-5-6.5-9-6.5-9 10.5 7 10.5 7 16-1 16-1-19-2.5-19-2.5-9.5-5-9.5-5-6 2.5-6 2.5 7.5 12 7.5 12 18.5 2 18.5 2 8.5 11.5 8.5 11.5 3.5-7.5 3.5-7.5" />
        </g>
        <path d="m856 248l1-1-1.5-1.5-1.5-1.5-1-1.5-1-1.5-.5-1.5-.5-1.5-1.5 1-1.5 1-1.5-.5-1.5-.5h-1.5-1.5-2-2l-1.5.5-1.5.5-1 1-1 1 1 .5 1 .5 2-1 2-1 1 .5 1 .5 1.5.5 1.5.5 1 1.5 1 1.5.5 1.5.5 1.5v1 1l-1 1-1 1h-1-1v-1-1l.5-1 .5-1-1.5-.5-1.5-.5.5-.5.5-.5v-1.5-1.5l-1.5.5-1.5.5-.5.5-.5.5-.5 1-.5 1h-1.5-1.5l-2 .5-2 .5-.5 1.5-.5 1.5 1.5 1 1.5 1-1 1-1 1v1.5 1.5l1-1 1-1 2 .5 2 .5h1 1l2-.5 2-.5 1.5.5 1.5.5 1-.5 1-.5 1.5-.5 1.5-.5.5 1.5.5 1.5-1 1.5-1 1.5v1 1l1.5-1 1.5-1v-1-1l.5-1.5.5-1.5 1.5-1 1.5-1v-1.5-1.5-2-2" style="fill:#24333d;stroke:#24333d" />
        <g style="fill:#242a21;stroke:#242a21">
            <path d="m851 688l1-2-27 1-27 1 10 1.5 10 1.5 16.5-1.5 16.5-1.5" />
            <path d="m847 251v-2l-.5-1.5-.5-1.5-1-1.5-1-1.5-1.5-.5-1.5-.5-1-.5-1-.5-2 1-2 1v1.5 1.5l-.5 1-.5 1h1.5 1.5l.5-1 .5-1 .5-.5.5-.5 1.5-.5 1.5-.5v1.5 1.5l-.5.5-.5.5 1.5.5 1.5.5-.5 1-.5 1v1 1h1 1l1-1 1-1" />
        </g>
        <path d="m838 262l1-3-1.5-.5-1.5-.5-5.5 6-5.5 6 3-.5 3-.5 1-1 1-1 .5-2 .5-2 2-.5 2-.5" style="fill:#24333d;stroke:#24333d" />
        <g style="fill:#1c1f14;stroke:#1c1f14">
            <path d="m834 356l-8 12 2-5.5 2-5.5 2-.5 2-.5" />
            <path d="m814 384v-2-2-2-2.5-2.5l-1-1-1-1h-2.5-2.5l1 1 1 1 .5 2 .5 2v2 2l.5 1.5.5 1.5h1.5 1.5" />
        </g>
        <g style="fill:#404740;stroke:#404740">
            <path d="m813 499l1-4-.5-1-.5-1-1.5-1-1.5-1h-2.5-2.5l-.5.5-.5.5-1.5 1.5-1.5 1.5-.5 1.5-.5 1.5 1 2 1 2 2 .5 2 .5h1.5 1.5l1.5-.5 1.5-.5.5-1.5.5-1.5" />
            <path d="m810 271l-1-2-1-1-1-1 .5-1 .5-1-1-.5-1-.5-1 1-1 1-1 1-1 1h-1.5-1.5l-1 1-1 1h-1.5-1.5l-1.5-.5-1.5-.5-1-.5-1-.5-2.5-.5-2.5-.5-1 .5-1 .5-2 .5-2 .5-1-1-1-1-2 .5-2 .5v2 2l-.5 1.5-.5 1.5-.5 1-.5 1v1.5 1.5l1-.5 1-.5 19-4 19-4" />
        </g>
        <path d="m807 259l1-1h-13.5-13.5 1 1l.5.5.5.5h1.5 1.5v1 1l.5.5.5.5-.5 1.5-.5 1.5-1.5 1-1.5 1 2.5.5 2.5.5 1 .5 1 .5 1.5.5 1.5.5h1.5 1.5l1-1 1-1h1.5 1.5l1-1 1-1 1-1 1-1v-1.5-1.5l.5-1 .5-1" style="fill:#503f29;stroke:#503f29" />
        <path d="m804 492l1-1h-2.5-2.5l-1 1-1 1h-1-1l-1-.5-1-.5-.5 2-.5 2-1.5 1.5-1.5 1.5-1.5.5-1.5.5-2 .5-2 .5h2 2l.5.5.5.5.5.5.5.5v1.5 1.5l.5.5.5.5h1 1 1 1v-1.5-1.5l-.5-.5-.5-.5v-1-1l.5-.5.5-.5 1 .5 1 .5.5.5.5.5h1 1l.5-.5.5-.5 1 .5 1 .5-1-2-1-2 .5-1.5.5-1.5 1.5-1.5 1.5-1.5" style="fill:#363529;stroke:#363529" />
        <path d="m802 298v-2h-2-2l-1.5-1-1.5-1h-2-2l-1.5-1-1.5-1-1.5-1-1.5-1-1 1-1 1 .5 1 .5 1h1.5 1.5l1 1.5 1 1.5-.5 1.5-.5 1.5-1.5 1-1.5 1-1 1-1 1-1.5-1-1.5-1-.5-1.5-.5-1.5v-1.5-1.5l-1 1-1 1 .5 1.5.5 1.5.5 2 .5 2 1.5.5 1.5.5 2-.5 2-.5 1.5.5 1.5.5 1-.5 1-.5h2 2l1.5-1 1.5-1 1-1 1-1 1-1.5 1-1.5" style="fill:#503f29;stroke:#503f29" />
        <path d="m793 496l1-4-.5-1-.5-1h-2.5-2.5-2-2l-1.5 1.5-1.5 1.5v1.5 1.5l-.5.5-.5.5.5 1.5.5 1.5 1 .5 1 .5 2-.5 2-.5 1.5-.5 1.5-.5 1.5-1.5 1.5-1.5" style="fill:#525a4e;stroke:#525a4e" />
        <path d="m788 307l1-1-1.5-.5-1.5-.5-2 .5-2 .5-1.5-.5-1.5-.5-.5-2-.5-2-.5-1.5-.5-1.5 1-1 1-1 .5-1 .5-1h2 2l-.5-1-.5-1 1-1 1-1-.5-1-.5-1h-1-1l-.5.5-.5.5-.5.5-.5.5h-1.5-1.5-1-1v-1-1-1-1l-1-.5-1-.5-.5.5-.5.5-.5 1-.5 1-.5 2-.5 2 1-.5 1-.5 1 1 1 1v2.5 2.5l1 1 1 1v1.5 1.5l.5 1.5.5 1.5 1 1.5 1 1.5 1.5-.5 1.5-.5 1.5-.5 1.5-.5h1.5 1.5" style="fill:#404740;stroke:#404740" />
        <g style="fill:#5c4b30;stroke:#5c4b30">
            <path d="m788 300l1-3-1-1.5-1-1.5h-1.5-1.5-2-2l-.5 1-.5 1v1.5 1.5l.5 1.5.5 1.5 1.5 1 1.5 1 1-1 1-1 1.5-1 1.5-1" />
            <path d="m787 265l1-3-.5-.5-.5-.5v-1-1h-1.5-1.5l-.5-.5-.5-.5h-1-1l-1-2-1-2 1-1 1-1h-1.5-1.5l-1.5.5-1.5.5h1.5 1.5l-.5 1-.5 1-11.5 2-11.5 2v2 2l.5 1.5.5 1.5 1.5 1 1.5 1 .5-2 .5-2 1-1 1-1 1 1 1 1 1 1.5 1 1.5 1 2 1 2h1.5 1.5l.5 2 .5 2 .5-1.5.5-1.5v-2-2l2-.5 2-.5 1 1 1 1 2-.5 2-.5 1-.5 1-.5 1.5-1 1.5-1" />
        </g>
        <path d="m786 708l-36 4h1.5 1.5 2 2 2 2 2.5 2.5 2 2 2.5 2.5 2 2 2.5 2.5l1-2 1-2" style="fill:#1c1f14;stroke:#1c1f14" />
        <path d="m786 550v-2l-.5-1.5-.5-1.5-2-.5-2-.5-1.5-.5-1.5-.5-1.5 1-1.5 1-.5 1.5-.5 1.5 1.5 1 1.5 1 1.5.5 1.5.5h2 2l1-.5 1-.5" style="fill:#363529;stroke:#363529" />
        <path d="m778 213l1-1-12 14.5-12 14.5h.5.5l1-2 1-2 1-1 1-1 .5-2 .5-2 1-1 1-1 .5-1.5.5-1.5 1.5-1 1.5-1 1-1 1-1 1.5-1 1.5-1 1-1.5 1-1.5 1-1.5 1-1.5 1-.5 1-.5" style="fill:#626e60;stroke:#626e60" />
        <path d="m777 255l1-2h-1.5-1.5l-1-.5-1-.5h-1-1l-.5-.5-.5-.5-.5-.5-.5-.5-1-.5-1-.5-.5.5-.5.5h-1-1-1-1-1-1l-1 .5-1 .5h-1-1l-.5-.5-.5-.5v-1-1-1-1l.5-1 .5-1v-1.5-1.5h-.5-.5l-.5 1.5-.5 1.5v1.5 1.5 1 1l-.5.5-.5.5.5 1 .5 1v1 1l-.5.5-.5.5v1 1l.5 1 .5 1 11.5-2 11.5-2" style="fill:#525a4e;stroke:#525a4e" />
        <path d="m777 232v-3l-.5-1-.5-1 .5.5.5.5v-1-1l-1-.5-1-.5-1 .5-1 .5-1.5.5-1.5.5-.5-.5-.5-.5h-1-1l-.5 1.5-.5 1.5-.5 1-.5 1-.5.5-.5.5-.5.5-.5.5-.5.5-.5.5 1 .5 1 .5.5.5.5.5-.5 1-.5 1 6.5-3 6.5-3" style="fill:#24333d;stroke:#24333d" />
        <path d="m772 626l1-3-2 .5-2 .5-5 7-5 7 2-1 2-1 1-1 1-1 1-1.5 1-1.5 1.5-.5 1.5-.5 1-2 1-2" style="fill:#242a21;stroke:#242a21" />
        <path d="m771 281l1-2-1 .5-1 .5-1.5.5-1.5.5-1.5 1-1.5 1-.5 1.5-.5 1.5-.5 1-.5 1-.5 1.5-.5 1.5-.5 1.5-.5 1.5-1 .5-1 .5.5 1.5.5 1.5h1.5 1.5l.5.5.5.5-.5.5-.5.5h1.5 1.5l1-1 1-1 .5-1 .5-1 .5-.5.5-.5.5-1.5.5-1.5.5-2 .5-2-1-1-1-1 .5-.5.5-.5.5-.5.5-.5v-1.5-1.5" style="fill:#503f29;stroke:#503f29" />
        <path d="m770 277l1-2-.5-2-.5-2h-1.5-1.5l-.5 1-.5 1v1.5 1.5l-.5.5-.5.5-.5 1-.5 1-1 1-1 1-.5 1-.5 1h1.5 1.5l1.5-1 1.5-1 1.5-.5 1.5-.5v-1.5-1.5" style="fill:#525a4e;stroke:#525a4e" />
        <g style="fill:#404740;stroke:#404740">
            <path d="m766 273l1-2-1-2-1-2-1-1.5-1-1.5-1-1-1-1-1 1-1 1-.5 2-.5 2-1.5-1-1.5-1-.5 1-.5 1 .5.5.5.5v1 1l-.5 1-.5 1-.5.5-.5.5v1 1l.5.5.5.5v1.5 1.5l-1 1-1 1 2.5.5 2.5.5h2 2l.5-1 .5-1 1-1 1-1 .5-1 .5-1 .5-.5.5-.5v-1.5-1.5" />
            <path d="m763 299l-1-1h-1.5-1.5l-.5.5-.5.5-9.5 8-9.5 8-9.5 17.5-9.5 17.5 12-19.5 12-19.5 9 10.5 9 10.5v-16-16l.5-.5.5-.5" />
        </g>
        <path d="m763 286l1-3h-1.5-1.5-2-2l-2.5-.5-2.5-.5v.5.5l-1 1-1 1 .5.5.5.5-.5 1-.5 1 1 1 1 1 .5-.5.5-.5.5.5.5.5.5.5.5.5v1.5 1.5l1.5.5 1.5.5 1-.5 1-.5.5-1.5.5-1.5.5-1.5.5-1.5.5-1 .5-1" style="fill:#6c5c39;stroke:#6c5c39" />
        <path d="m758 299l1-1-.5-1.5-.5-1.5-1.5-.5-1.5-.5v-1.5-1.5l-.5-.5-.5-.5-.5-.5-.5-.5-.5.5-.5.5-1-1-1-1 .5-1 .5-1-.5-.5-.5-.5 1-1 1-1v-.5-.5l1-1 1-1v-1.5-1.5l-.5-.5-.5-.5v-1-1l.5-.5.5-.5.5-1 .5-1v-1-1l-.5-.5-.5-.5.5-1 .5-1-.5-1.5-.5-1.5-3.5 16-3.5 16-7 16-7 16-10.5 14-10.5 14-14.5 8-14.5 8-3.5 19-3.5 19-1.5 20-1.5 20-3 14.5-3 14.5-1 4.5-1 4.5-8-9-8-9-9-10.5-9-10.5-12-12.5-12-12.5-9 3.5-9 3.5 6 16 6 16v-2.5-2.5l-1-1-1-1 .5-.5.5-.5.5-1 .5-1 1-.5 1-.5-6-15-6-15 12.5 7 12.5 7 11.5 12.5 11.5 12.5 11.5 12.5 11.5 12.5 8 14 8 14 2-5 2-5-2-21.5-2-21.5v-22-22l1.5-17.5 1.5-17.5 9.5-2.5 9.5-2.5 10-13 10-13 9.5-17.5 9.5-17.5 9.5-8 9.5-8" style="fill:#525a4e;stroke:#525a4e" />
        <path d="m757 621v-2h-2-2-1.5-1.5l3.5 1 3.5 1" style="fill:#363529;stroke:#363529" />
        <path d="m755 372l1-4-1-.5-1-.5-.5-.5-.5-.5-1.5-.5-1.5-.5-1.5.5-1.5.5-1 1.5-1 1.5v.5.5l1 1 1 1h2 2 2 2" style="fill:#404740;stroke:#404740" />
        <path d="m754 244l1-3-5.5 25-5.5 25-7 14.5-7 14.5-5-1-5-1-3-8.5-3-8.5-2 15.5-2 15.5-9 3.5-9 3.5v8 8l-9.5 7-9.5 7-10 4-10 4-5 4-5 4-10 2.5-10 2.5-9-.5-9-.5 3-4.5 3-4.5-13-1.5-13-1.5 3-6.5 3-6.5-11.5-1.5-11.5-1.5-11.5-1-11.5-1 1.5 1.5 1.5 1.5-1 1-1 1v1.5 1.5l1 1 1 1-.5 1.5-.5 1.5h-2-2l-.5-2-.5-2 .5-1.5.5-1.5.5-1.5.5-1.5.5-1.5.5-1.5-14.5-3.5-14.5-3.5-7 7-7 7-3.5-.5-3.5-.5-9.5-1.5-9.5-1.5 7-6.5 7-6.5-12.5-.5-12.5-.5-.5 4.5-.5 4.5.5 4.5.5 4.5-14.5.5-14.5.5v-9-9l-8 1-8 1-3 5.5-3 5.5-9.5-10.5-9.5-10.5-4 1-4 1-5-5-5-5 4.5-3 4.5-3-7.5-8-7.5-8-6.5-3-6.5-3-8.5-2-8.5-2-8.5-5-8.5-5-1.5-12.5-1.5-12.5-5.5-7-5.5-7 2-9.5 2-9.5-9.5 3-9.5 3 .5-7 .5-7-4-8.5-4-8.5.5-10.5.5-10.5.5-10 .5-10-2-12.5-2-12.5v-9.5-9.5l1-11.5 1-11.5 1-18.5 1-18.5-2-15.5-2-15.5.5-16 .5-16h-1.5-1.5l-.5 1-.5 1-.5 1.5-.5 1.5-.5 1.5-.5 1.5-.5 2-.5 2-1.5.5-1.5.5-.5 2-.5 2 1.5-.5 1.5-.5 1.5-.5 1.5-.5h.5.5l-3 18.5-3 18.5-1.5 13.5-1.5 13.5-2.5-14-2.5-14-5-9-5-9-7-8.5-7-8.5 1 14 1 14-7-7-7-7v9 9l-6.5 3.5-6.5 3.5-.5-12.5-.5-12.5-5 5.5-5 5.5-1.5-6.5-1.5-6.5-2.5 4.5-2.5 4.5-5 8-5 8-7.5-2-7.5-2-3.5 11.5-3.5 11.5-1 4-1 4-7.5-6.5-7.5-6.5-6 8.5-6 8.5-1-8-1-8-12-2.5-12-2.5-3-9.5-3-9.5h-2.5-2.5l-8.5-2-8.5-2-1.5-7-1.5-7-5 7.5-5 7.5-4 7-4 7-3-12.5-3-12.5-8.5 7-8.5 7-7-6.5-7-6.5-8 3.5-8 3.5-6-5-6-5v24.5 24.5 24 24 24.5 24.5 24.5 24.5 12.5 12.5l7.5-1 7.5-1 6.5-3.5 6.5-3.5 3.5 5 3.5 5 2 4 2 4 1-6.5 1-6.5 7 3.5 7 3.5 12.5 1.5 12.5 1.5 5.5-2 5.5-2 6.5-5.5 6.5-5.5 2 7.5 2 7.5 4 2 4 2 1-1.5 1-1.5 7 5.5 7 5.5 5 6.5 5 6.5 7.5 11 7.5 11 .5-20.5.5-20.5 4.5-12.5 4.5-12.5 18.5-2 18.5-2 16.5 5.5 16.5 5.5-26 3.5-26 3.5.5 2 .5 2 19-3.5 19-3.5 11-4 11-4 6-5.5 6-5.5 4-11 4-11-1.5 14.5-1.5 14.5 7-1 7-1 .5 15.5.5 15.5v17 17l6 13.5 6 13.5 8 15 8 15-10 7-10 7 12.5 4.5 12.5 4.5 9 9 9 9 .5 16.5.5 16.5 6.5 7.5 6.5 7.5 7.5 10.5 7.5 10.5h6.5 6.5l10 6 10 6 10 6.5 10 6.5h8 8l4 6 4 6 7 4 7 4 7.5 10.5 7.5 10.5-11 3-11 3 12.5 9.5 12.5 9.5 4.5-13 4.5-13-6.5-2.5-6.5-2.5 10.5-2 10.5-2 6-1 6-1 10.5-2.5 10.5-2.5 7.5.5 7.5.5 9.5 2.5 9.5 2.5 4-5 4-5 17.5-14.5 17.5-14.5v-1.5-1.5l1-2 1-2-.5 1-.5 1-1 .5-1 .5h-1.5-1.5l-1-1-1-1 4.5-7 4.5-7v.5.5l1.5 1 1.5 1 1 1.5 1 1.5.5-1 .5-1-1-1-1-1-6-16-6-16 9-3.5 9-3.5 12 12.5 12 12.5 9 10.5 9 10.5 8 9 8 9 1-4.5 1-4.5 3-14.5 3-14.5 1.5-20 1.5-20 3.5-19 3.5-19 14.5-8 14.5-8 10.5-14 10.5-14 7-16 7-16 3.5-16 3.5-16v-2-2l-.5-1-.5-1v-1-1l.5-.5.5-.5v-1-1l-.5-1-.5-1 .5-.5.5-.5v-1-1-1.5-1.5" style="fill:#626e60;stroke:#626e60" />
        <path d="m751 642v-2l-1-1-1-1-1.5-1-1.5-1-1.5.5-1.5.5-2 .5-2 .5v2 2h1.5 1.5l.5-.5.5-.5h1 1l2 .5 2 .5h1 1" style="fill:#242a21;stroke:#242a21" />
        <path d="m750 220v-2l-1.5.5-1.5.5-1 1.5-1 1.5-1-1-1-1-.5 1-.5 1-.5 1.5-.5 1.5-1.5.5-1.5.5 3 .5 3 .5 3-3.5 3-3.5" style="fill:#819385;stroke:#819385" />
        <path d="m748 411l1-3-.5-2-.5-2-1-1-1-1h-2-2l-2-.5-2-.5-1.5-.5-1.5-.5h-1.5-1.5l-1.5.5-1.5.5h-1.5-1.5l2 .5 2 .5h2 2l2 .5 2 .5 1.5.5 1.5.5h2.5 2.5l.5 1.5.5 1.5-.5 1.5-.5 1.5-.5 1.5-.5 1.5v2 2l-.5.5-.5.5v1 1l-.5 1-.5 1v1 1l-.5.5-.5.5v1 1 1.5 1.5 1 1l-.5.5-.5.5v1 1l-1 1-1 1-.5 1-.5 1-1 1-1 1 6-15 6-15" style="fill:#363529;stroke:#363529" />
        <path d="m746 410l1-3-.5-1.5-.5-1.5h-2.5-2.5l-1.5-.5-1.5-.5-2-.5-2-.5h-2-2l-2-.5-2-.5-2-.5-2-.5-1-25-1-25-10 13-10 13-9.5 2.5-9.5 2.5-1.5 17.5-1.5 17.5v22 22l2 21.5 2 21.5-2 5-2 5-8-14-8-14-11.5-12.5-11.5-12.5-11.5-12.5-11.5-12.5-12.5-7-12.5-7 2-1 2-1 12 11.5 12 11.5 11 12.5 11 12.5 12 18 12 18-1.5-1-1.5-1-1.5-.5-1.5-.5h-.5-.5l-.5.5-.5.5-20-21.5-20-21.5-1 1.5-1 1.5h.5.5l11.5 11.5 11.5 11.5 12 10.5 12 10.5 6.5 16.5 6.5 16.5v1.5 1.5l-.5 1.5-.5 1.5-1 1-1 1-1 1.5-1 1.5h-2-2l-1.5.5-1.5.5-1.5 2-1.5 2 1-.5 1-.5 1-.5 1-.5 8.5-14 8.5-14v2 2l.5.5.5.5v1 1 1 1l-.5 1-.5 1 1.5-15 1.5-15-2-17-2-17 1.5-15 1.5-15 8.5-3 8.5-3 1.5.5 1.5.5h1 1l1 .5 1 .5h2 2 1 1l2 .5 2 .5 2.5.5 2.5.5h1.5 1.5l1.5.5 1.5.5h2 2l1.5.5 1.5.5 1-1 1-1 .5-1 .5-1-19.5-2-19.5-2 2-15.5 2-15.5 21 4 21 4" style="fill:#404740;stroke:#404740" />
        <path d="m745 413l1-3-21-4-21-4-2 15.5-2 15.5 19.5 2 19.5 2 1-1 1-1v-1-1l.5-.5.5-.5v-1-1-1.5-1.5-1-1l.5-.5.5-.5v-1-1l.5-1 .5-1v-1-1l.5-.5.5-.5v-2-2" style="fill:#525a4e;stroke:#525a4e" />
        <path d="m743 412l-34-10-3.5 15-3.5 15h18.5 18.5l2-10 2-10" style="fill:#626e60;stroke:#626e60" />
        <path d="m737 226h1l-.5-1-.5-1-.5-1.5-.5-1.5-1.5-1-1.5-1-.5 1.5-.5 1.5.5 2 .5 2-.5 1.5-.5 1.5.5 2 .5 2 1.5-.5 1.5-.5-.5-1.5-.5-1.5 1-1.5 1-1.5" style="fill:#819385;stroke:#819385" />
        <path d="m736 563l1-4-1-1-1-1-1.5.5-1.5.5h1 1l.5 1 .5 1v1 1l-.5 1.5-.5 1.5h-1-1-1.5-1.5l-.5.5-.5.5-.5-.5-.5-.5h-1-1-1-1-1.5-1.5-1-1-1-1-1-1l-1 .5-1 .5h-1-1-1-1l-1.5.5-1.5.5 1 .5 1 .5h1 1l.5-.5.5-.5h1.5 1.5 1 1l.5.5.5.5h1 1l1-1 1-1 1 .5 1 .5h1 1 1 1l1 .5 1 .5.5-.5.5-.5 1.5-.5 1.5-.5 1 .5 1 .5.5-.5.5-.5.5-1.5.5-1.5" style="fill:#363529;stroke:#363529" />
        <path d="m735 562v-2h-.5-.5l-1-.5-1-.5-1.5-.5-1.5-.5-1.5-.5-1.5-.5-2-.5-2-.5-1-1-1-1-2-.5-2-.5h-1-1l-2-1.5-2-1.5h-.5-.5l-2 8.5-2 8.5 1.5-.5 1.5-.5h1 1 1 1l1-.5 1-.5h1 1 1 1 1 1 1.5 1.5 1 1 1 1l.5.5.5.5.5-.5.5-.5h1.5 1.5 1 1l.5-1.5.5-1.5" style="fill:#503f29;stroke:#503f29" />
        <path d="m734 586l-16-16-7.5 1-7.5 1-7 2.5-7 2.5-7 2.5-7 2.5 9 3.5 9 3.5 2.5 3 2.5 3 3.5-3 3.5-3 4-5 4-5 7.5 4 7.5 4 1.5 14 1.5 14 1.5-14.5 1.5-14.5" style="fill:#242a21;stroke:#242a21" />
        <path d="m734 560h1l-.5-1-.5-1h-1-1l1.5-.5 1.5-.5-1-.5-1-.5-1-1-1-1-2-.5-2-.5h-1-1l-1 .5-1 .5-.5-.5-.5-.5-1.5-.5-1.5-.5-1-.5-1-.5-2-.5-2-.5h-1.5-1.5l2 1.5 2 1.5h1 1l2 .5 2 .5 1 1 1 1 2 .5 2 .5 1.5.5 1.5.5 1.5.5 1.5.5 1 .5 1 .5" style="fill:#2e2411;stroke:#2e2411" />
        <g style="fill:#363529;stroke:#363529">
            <path d="m722 440l1-1-2.5-.5-2.5-.5-2-.5-2-.5h-1-1-2-2l7 1.5 7 1.5" />
            <path d="m709 550h1l-19.5 6-19.5 6 1.5.5 1.5.5 1 1 1 1-.5 1.5-.5 1.5-20.5 1.5-20.5 1.5-37.5 2.5-37.5 2.5 24-1 24-1 13.5-.5 13.5-.5 18-1.5 18-1.5 17.5-1.5 17.5-1.5 2-8.5 2-8.5" />
            <path d="m700 436l1-1-8.5 3-8.5 3-1.5 15-1.5 15 2 17 2 17-1.5 15-1.5 15 4-15.5 4-15.5-.5-17.5-.5-17.5 5.5-16.5 5.5-16.5" />
        </g>
        <path d="m698 599l1-3-.5-.5-.5-.5-2.5-1-2.5-1-1-1-1-1-1.5 1-1.5 1 .5 1.5.5 1.5 1.5 1 1.5 1-.5 1.5-.5 1.5 1 1 1 1 .5-2 .5-2h2 2" style="fill:#242a21;stroke:#242a21" />
        <path d="m695 558v-2l-1 1-1 1-1.5-1-1.5-1-1.5-.5-1.5-.5-1.5 1-1.5 1-1.5.5-1.5.5.5 1 .5 1 1.5.5 1.5.5h2 2l2-.5 2-.5 1-1 1-1" style="fill:#1c1f14;stroke:#1c1f14" />
        <path d="m681 524h1l-8.5 14-8.5 14-1 1.5-1 1.5 1 2.5 1 2.5 8-18 8-18" style="fill:#363529;stroke:#363529" />
        <path d="m676 538l-13-33-12-10.5-12-10.5-11.5-11.5-11.5-11.5-.5 1-.5 1v1 1l10.5 15 10.5 15-9.5 2.5-9.5 2.5-5.5-8-5.5-8-1 .5-1 .5-.5.5-.5.5v-1-1l-.5.5-.5.5h-1-1-1.5-1.5l-.5-.5-.5-.5-.5-.5-.5-.5-.5.5-.5.5h-.5-.5l-.5-.5-.5-.5-.5-.5-.5-.5h1 1l1-.5 1-.5.5-.5.5-.5h-1-1l-17.5 14.5-17.5 14.5-4 5-4 5-9.5-2.5-9.5-2.5-7.5-.5-7.5-.5-10.5 2.5-10.5 2.5-6 1-6 1-10.5 2-10.5 2 6.5 2.5 6.5 2.5-4.5 13-4.5 13-12.5-9.5-12.5-9.5 11-3 11-3-7.5-10.5-7.5-10.5-7-4-7-4-4-6-4-6h-8-8l-10-6.5-10-6.5-10-6-10-6h-6.5-6.5l-7.5-10.5-7.5-10.5-6.5-7.5-6.5-7.5-.5-16.5-.5-16.5-9-9-9-9-12.5-4.5-12.5-4.5 10-7 10-7-8-15-8-15-6-13.5-6-13.5v-17-17l-.5-15.5-.5-15.5-7 1-7 1 1.5-14.5 1.5-14.5-4 11-4 11-6 5.5-6 5.5-11 4-11 4-19 3.5-19 3.5v1 1h1.5 1.5l.5.5.5.5v.5.5 1 1 1 1l.5 1 .5 1v2 2l-.5.5-.5.5v1.5 1.5 1.5 1.5 1.5 1.5l-.5 2-.5 2-.5 1.5-.5 1.5-.5 2-.5 2 .5 1.5.5 1.5-.5 2-.5 2-.5 1.5-.5 1.5 1.5.5 1.5.5-.5 1-.5 1-1 1-1 1v1.5 1.5l4.5-17 4.5-17 8.5-10 8.5-10 11.5-.5 11.5-.5v11.5 11.5l1.5 14 1.5 14 15.5 2 15.5 2 11 12.5 11 12.5 6.5 16.5 6.5 16.5-7.5-13-7.5-13-2 9.5-2 9.5-4.5 16.5-4.5 16.5h-1-1l-.5-.5-.5-.5-1-.5-1-.5-.5-.5-.5-.5-.5.5-.5.5-.5.5-.5.5-.5.5-.5.5v1.5 1.5l.5.5.5.5.5.5.5.5.5.5.5.5 1 .5 1 .5.5-.5.5-.5 1.5.5 1.5.5 11.5-6 11.5-6 13-3 13-3v17.5 17.5l2 16 2 16 10.5 9.5 10.5 9.5-11.5 1.5-11.5 1.5-6.5-7-6.5-7-9 10-9 10-18.5 1-18.5 1 3.5 2.5 3.5 2.5 16.5-2 16.5-2h17 17l17-1 17-1 16 3.5 16 3.5 5 15 5 15 21.5 18.5 21.5 18.5.5 1.5.5 1.5 1 .5 1 .5 1 1 1 1 10-8.5 10-8.5 17.5-3 17.5-3 23-2.5 23-2.5 2-.5 2-.5 1.5-.5 1.5-.5v-1-1l1-.5 1-.5.5-1.5.5-1.5.5.5.5.5v1 1l1-.5 1-.5.5-2.5.5-2.5 1.5-.5 1.5-.5 1.5 1 1.5 1 1 1 1 1-.5 1.5-.5 1.5h-1.5-1.5l-1.5.5-1.5.5.5.5.5.5h1 1l1-.5 1-.5h3 3l1-1 1-1h1 1l1 .5 1 .5h1 1 1 1l.5-.5.5-.5 1-.5 1-.5h1 1 1 1 1 1l.5-.5.5-.5h1.5 1.5 1 1 .5.5l1.5-.5 1.5-.5h1 1l.5.5.5.5.5.5.5.5.5 1 .5 1v1 1 1 1l-.5 1.5-.5 1.5v1.5 1.5l-.5 1.5-.5 1.5-.5 1.5-.5 1.5v1.5 1.5l-.5 1.5-.5 1.5-.5 2-.5 2 .5 1.5.5 1.5-.5 2-.5 2-1 1-1 1 .5.5.5.5 22-1 22-1 2.5-1 2.5-1 1.5-2 1.5-2 1.5-.5 1.5-.5h2 2l1-1.5 1-1.5 1-1 1-1 .5-1.5.5-1.5v-1.5-1.5" style="fill:#525a4e;stroke:#525a4e" />
        <path d="m675 568l1-3-1-1-1-1-1.5-.5-1.5-.5-1-.5-1-.5h-1-1l-1-.5-1-.5-1-2.5-1-2.5 1-1.5 1-1.5-1 .5-1 .5-1 .5-1 .5v2 2l.5.5.5.5.5 1 .5 1 1.5.5 1.5.5-.5 1.5-.5 1.5-20 2.5-20 2.5-28 1-28 1h-2.5-2.5-2-2-2-2l-2 .5-2 .5-1.5-.5-1.5-.5-1 1-1 1-.5.5-.5.5-21 1-21 1-21 1-21 1-15.5-7-15.5-7-15 3-15 3 2.5-6 2.5-6-1.5.5-1.5.5h-1-1l-1 .5-1 .5-12 6.5-12 6.5 14 3 14 3 13-1 13-1-6.5 11-6.5 11 3.5-1.5 3.5-1.5 10 5.5 10 5.5h1.5 1.5l1.5-.5 1.5-.5 1.5.5 1.5.5 1.5 2 1.5 2 5.5-15.5 5.5-15.5 21.5-1 21.5-1 25-1.5 25-1.5 37.5-2.5 37.5-2.5 20.5-1.5 20.5-1.5" style="fill:#503f29;stroke:#503f29" />
        <path d="m672 585l-27-1 6 7.5 6 7.5 5.5-4 5.5-4-5-2.5-5-2.5 7-.5 7-.5" style="fill:#242a21;stroke:#242a21" />
        <path d="m665 565l1-3-1.5-.5-1.5-.5-.5-1-.5-1-.5-.5-.5-.5v-2-2l-2.5 1-2.5 1 1 .5 1 .5 1 1 1 1v1 1l-19 3-19 3-26.5 2.5-26.5 2.5 28-1 28-1 20-2.5 20-2.5" style="fill:#5c4b30;stroke:#5c4b30" />
        <path d="m665 503l-24-36-11-12.5-11-12.5-12-11.5-12-11.5v.5.5l1 1 1 1 1 1 1 1 .5 1 .5 1v2 2l2 .5 2 .5 1 1 1 1v1 1h-2.5-2.5l.5 1 .5 1 1 .5 1 .5 8.5 4.5 8.5 4.5 21 24.5 21 24.5v1.5 1.5l-2 .5-2 .5 1.5.5 1.5.5 1.5 1 1.5 1" style="fill:#24333d;stroke:#24333d" />
        <g style="fill:#242a21;stroke:#242a21">
            <path d="m663 496l-42-49-8.5-4.5-8.5-4.5 1 1.5 1 1.5 1.5 1.5 1.5 1.5h1.5 1.5v1 1l.5 1.5.5 1.5.5 2 .5 2 1.5.5 1.5.5.5 1 .5 1 20 22 20 22h.5.5l2-.5 2-.5v-1.5-1.5" />
            <path d="m662 614l-12-12-8-2.5-8-2.5-7.5 3-7.5 3-8-3.5-8-3.5-3 .5-3 .5-3.5 2-3.5 2-7-1-7-1-4.5 3-4.5 3-5.5-7-5.5-7-.5 4-.5 4-10 2.5-10 2.5-4.5-3-4.5-3-2.5 8-2.5 8-4-2-4-2-4-3.5-4-3.5-1-.5-1-.5-3.5 6-3.5 6 6 4.5 6 4.5 5.5 7 5.5 7 7.5-3 7.5-3 4.5.5 4.5.5 10.5-3 10.5-3 8.5-1 8.5-1 5.5 2.5 5.5 2.5v-2-2l.5-1.5.5-1.5v-2.5-2.5l1.5.5 1.5.5 1.5 1 1.5 1-1 1-1 1-.5 1-.5 1 1.5.5 1.5.5v1 1l-1 1-1 1h-1-1-1.5-1.5l6-2 6-2 .5-11.5.5-11.5h-.5-.5.5.5l7 4.5 7 4.5 8.5-1 8.5-1 4.5-1 4.5-1 8.5 3.5 8.5 3.5" />
        </g>
        <path d="m660 561v-2l-1-1-1-1-1-.5-1-.5-22 1-22 1h-.5-.5l-17 1.5-17 1.5-28.5.5-28.5.5h-.5-.5l-20.5 2-20.5 2-19-2-19-2 8 5.5 8 5.5 18.5 1.5 18.5 1.5 27-1 27-1 1-1 1-1 1.5.5 1.5.5 2-.5 2-.5h2 2 2 2 2.5 2.5l26.5-2.5 26.5-2.5 19-3 19-3" style="fill:#6c5c39;stroke:#6c5c39" />
        <path d="m657 501l1-1-20-22-20-22h-.5-.5v1 1l20 21.5 20 21.5" style="fill:#363529;stroke:#363529" />
        <path d="m636 495l-21-30-1 .5-1 .5-2 .5-2 .5-.5 1.5-.5 1.5-2 .5-2 .5.5 1.5.5 1.5 1 1.5 1 1.5-.5 1.5-.5 1.5v2 2l5.5 8 5.5 8 9.5-2.5 9.5-2.5" style="fill:#626e60;stroke:#626e60" />
        <path d="m617 529l1-3v-1-1-1-1l-.5-1-.5-1-.5-.5-.5-.5-.5-.5-.5-.5h-1-1l-1.5.5-1.5.5-.5 1-.5 1-1.5.5-1.5.5-1-.5-1-.5-1 1-1 1h-1-1l-.5.5-.5.5h-1-1l-1-.5-1-.5h-1-1l-.5.5-.5.5h-1-1l-1-.5-1-.5h-2-2l-.5.5-.5.5-.5.5-.5.5h1.5 1.5 1 1 1.5 1.5 1 1 1 1l.5.5.5.5.5-.5.5-.5h1 1 1.5 1.5l.5-.5.5-.5.5.5.5.5h1 1l1-.5 1-.5.5-.5.5-.5h1 1l.5-.5.5-.5h1.5 1.5 1 1v1 1 1 1 1.5 1.5 1 1l-.5.5-.5.5-.5 1-.5 1-.5 1.5-.5 1.5v1 1l-.5 1-.5 1v2 2l-.5.5-.5.5v2 2 1 1l-1 1.5-1 1.5-2 .5-2 .5h-2-2-2-2l-1.5.5-1.5.5v.5.5h2 2 2 2 2.5 2.5l2-.5 2-.5 1-1 1-1 .5-2 .5-2-.5-1.5-.5-1.5.5-2 .5-2 .5-1.5.5-1.5v-1.5-1.5l.5-1.5.5-1.5.5-1.5.5-1.5v-1.5-1.5" style="fill:#404740;stroke:#404740" />
        <g style="fill:#24333d;stroke:#24333d">
            <path d="m617 456h1l-.5-1-.5-1-1.5-.5-1.5-.5-.5-2-.5-2-.5-1.5-.5-1.5v-1-1h-1.5-1.5l.5 1 .5 1v1 1l.5 1.5.5 1.5v1 1 1 1l.5.5.5.5-.5 1.5-.5 1.5-1 .5-1 .5-1 .5-1 .5-.5.5-.5.5.5.5.5.5h2 2l1-.5 1-.5 1-.5 1-.5 1-1.5 1-1.5v-1-1" />
            <path d="m616 526v-2-1-1h-1-1-1.5-1.5l-.5.5-.5.5h-1-1l-.5.5-.5.5-1 .5-1 .5h-1-1l-.5-.5-.5-.5-.5.5-.5.5h-1.5-1.5-1-1l-.5.5-.5.5-.5-.5-.5-.5h-1-1-1-1-1.5-1.5-1-1-1.5-1.5l-1 .5-1 .5-1 .5-1 .5-1-.5-1-.5h-.5-.5l-31.5 4.5-31.5 4.5 13 3.5 13 3.5 1.5 1 1.5 1 1.5 1 1.5 1 1.5-.5 1.5-.5 1.5-1 1.5-1 1.5-.5 1.5-.5v1.5 1.5l.5 1.5.5 1.5-.5 1.5-.5 1.5-.5 1-.5 1 .5 1 .5 1h.5.5l1-8.5 1-8.5h13.5 13.5l11.5 7 11.5 7 2 .5 2 .5.5-1.5.5-1.5v-2-2l.5-.5.5-.5v-2-2l.5-1 .5-1v-1-1l.5-1.5.5-1.5.5-1 .5-1 .5-.5.5-.5v-1-1-1.5-1.5" />
        </g>
        <path d="m615 463l1-2h-.5-.5l-1 .5-1 .5-1 .5-1 .5-1 .5-1 .5h-1-1-1-1l-1-.5-1-.5v-1-1-1-1-1-1l.5-1 .5-1 .5-.5.5-.5-.5-.5-.5-.5-.5-1-.5-1-1 .5-1 .5-.5 1-.5 1-.5.5-.5.5 1 1 1 1v2.5 2.5l1 1 1 1-.5 1-.5 1-.5 1-.5 1-.5 1-.5 1-1 1-1 1-1 .5-1 .5-1 2-1 2v1.5 1.5h1 1l-.5.5-.5.5-1 .5-1 .5h-1-1l.5.5.5.5.5.5.5.5h.5.5l.5-.5.5-.5.5.5.5.5.5.5.5.5h1.5 1.5 1 1l.5-.5.5-.5v1 1l.5-.5.5-.5 1-.5 1-.5v-2-2l.5-1.5.5-1.5-1-1.5-1-1.5-.5-1.5-.5-1.5 2-.5 2-.5.5-1.5.5-1.5 2-.5 2-.5 1-.5 1-.5v-1-1" style="fill:#404f5d;stroke:#404f5d" />
        <path d="m611 558h1l-.5-.5-.5-.5-2 .5-2 .5h-2.5-2.5-2-2-2-2-.5-.5l-36.5 2-36.5 2 28.5-.5 28.5-.5 17-1.5 17-1.5" style="fill:#5c4b30;stroke:#5c4b30" />
        <path d="m611 552v-2l-.5 1.5-.5 1.5-2-.5-2-.5h-.5-.5l-25.5 1.5-25.5 1.5h-.5-.5l-15-.5-15-.5 7.5-6 7.5-6-13-3.5-13-3.5-15 2.5-15 2.5-3.5 11.5-3.5 11.5 1.5-.5 1.5-.5h1 1 1.5 1.5 2 2 1.5 1.5l21-1.5 21-1.5 31-1 31-1 1.5-.5 1.5-.5h2 2 2 2l2-.5 2-.5 1-1.5 1-1.5" style="fill:#363529;stroke:#363529" />
        <path d="m611 459l1-3-.5-.5-.5-.5v-1-1-1-1l-.5-1.5-.5-1.5-1-.5-1-.5-1-1.5-1-1.5-1-1-1-1-1-1.5-1-1.5-1-1-1-1-1-1-1-1-1-1.5-1-1.5-1-1-1-1-1-1.5-1-1.5-1-1-1-1 .5-2 .5-2 6 15 6 15 .5 1 .5 1 .5.5.5.5-.5.5-.5.5-.5 1-.5 1v1 1 1 1 1 1l1 .5 1 .5h1 1 1 1l1-.5 1-.5h-2-2l-.5-.5-.5-.5.5-.5.5-.5 1-.5 1-.5 1-.5 1-.5" style="fill:#404740;stroke:#404740" />
        <path d="m610 448v-2l-.5-1-.5-1-1.5-1.5-1.5-1.5-1-1.5-1-1.5-1-.5-1-.5-.5-1-.5-1-1-1-1-1-.5-1-.5-1-.5-.5-.5-.5v-1-1h-1-1l-.5-.5-.5-.5.5-1 .5-1v-1-1l-.5.5-.5.5-.5-.5-.5-.5 1-1.5 1-1.5v-.5-.5l-2 1-2 1-.5 2-.5 2 1 1 1 1 1 1.5 1 1.5 1 1 1 1 1 1.5 1 1.5 1 1 1 1 1 1 1 1 1 1.5 1 1.5 1 1 1 1 1 1.5 1 1.5 1 .5 1 .5" style="fill:#363529;stroke:#363529" />
        <path d="m609 521l1-2h-.5-.5-1-1-1.5-1.5l-.5.5-.5.5h-1-1-1-1-1-1l-1 .5-1 .5-.5.5-.5.5h-1-1-1-1l-1-.5-1-.5h-1-1l-1 1-1 1h2 2l1 .5 1 .5h1 1l.5-.5.5-.5h1 1l1 .5 1 .5h1 1l.5-.5.5-.5h1 1l1-1 1-1 1 .5 1 .5 1.5-.5 1.5-.5" style="fill:#404f5d;stroke:#404f5d" />
        <g style="fill:#242a21;stroke:#242a21">
            <path d="m606 435v-2l-1-1-1-1-2-.5-2-.5v-2-2l-.5-1-.5-1-1-1-1-1-1-1-1-1-1 1.5-1 1.5.5.5.5.5.5-.5.5-.5v1 1l-.5 1-.5 1 .5.5.5.5h1 1v1 1l.5.5.5.5.5 1 .5 1 1 1 1 1h2.5 2.5" />
            <path d="m605 552h1l-11.5-7-11.5-7h-13.5-13.5l-1 8.5-1 8.5 25.5-1.5 25.5-1.5" />
        </g>
        <path d="m601 468l1-2-1-1.5-1-1.5-1.5-1-1.5-1-1 .5-1 .5v1.5 1.5l-.5 1.5-.5 1.5v1.5 1.5h-1-1l-2 .5-2 .5 1.5.5 1.5.5h1 1l-2.5.5-2.5.5 1 1 1 1h1.5 1.5l1-.5 1-.5.5-1 .5-1 1-.5 1-.5 1-1 1-1 .5-1 .5-1" style="fill:#5e7181;stroke:#5e7181" />
        <path d="m599 627v-2l-1.5-.5-1.5-.5.5-1 .5-1 1-1 1-1-1.5-1-1.5-1-1.5-.5-1.5-.5v2.5 2.5l-.5 1.5-.5 1.5v2 2h1.5 1.5 1 1l1-1 1-1" style="fill:#2e2411;stroke:#2e2411" />
        <path d="m598 503l1-3v-2-2l-1.5-1-1.5-1-1 1-1 1v2.5 2.5l-.5 1.5-.5 1.5-.5 2-.5 2h2 2l1-1 1-1v-1.5-1.5" style="fill:#626e60;stroke:#626e60" />
        <path d="m597 460l-9 14 2.5-.5 2.5-.5h-1-1l-1.5-.5-1.5-.5 2-.5 2-.5h1 1v-1.5-1.5l.5-1.5.5-1.5v-1.5-1.5l1-.5 1-.5v-.5-.5" style="fill:#71806d;stroke:#71806d" />
        <path d="m593 558h1v-.5-.5l-31 1-31 1-21 1.5-21 1.5 2.5.5 2.5.5h2 2 2.5 2.5 2 2l2-.5 2-.5h2 2 1.5 1.5.5.5l36.5-2 36.5-2" style="fill:#503f29;stroke:#503f29" />
        <path d="m583 524l1-1h-3-3l-1 .5-1 .5h-1-1l-.5-.5-.5-.5-1-1-1-1-1 .5-1 .5v-1-1l-.5-.5-.5-.5-.5 1.5-.5 1.5-1 .5-1 .5v1 1l-1.5.5-1.5.5-2 .5-2 .5 1 .5 1 .5 1.5-.5 1.5-.5h2 2l2-.5 2-.5 1.5-.5 1.5-.5 1 .5 1 .5 1 .5 1 .5 1-.5 1-.5 1-.5 1-.5.5-.5.5-.5" style="fill:#404f5d;stroke:#404f5d" />
        <path d="m580 641l-11-17 1.5 10 1.5 10 3.5-1 3.5-1 .5-.5.5-.5" style="fill:#242a21;stroke:#242a21" />
        <path d="m579 522l1-3-1-1-1-1-1.5-1-1.5-1-1.5.5-1.5.5-.5 2.5-.5 2.5 1 1 1 1 1.5-.5 1.5-.5h1.5 1.5" style="fill:#626e60;stroke:#626e60" />
        <path d="m575 526h1l-1-.5-1-.5-1.5.5-1.5.5-2 .5-2 .5h-2-2l-1.5.5-1.5.5-1-.5-1-.5-23 2.5-23 2.5-17.5 3-17.5 3-10 8.5-10 8.5 1 1 1 1 1 1.5 1 1.5v1 1l-.5 1-.5 1v.5.5l1-.5 1-.5h1 1 1 1l.5.5.5.5h1 1 1.5 1.5 1 1 1 1l.5-.5.5-.5-1-.5-1-.5 3.5-11.5 3.5-11.5 15-2.5 15-2.5 31.5-4.5 31.5-4.5" style="fill:#404740;stroke:#404740" />
        <path d="m560 374v-2l-.5-1.5-.5-1.5-2 .5-2 .5-.5-1.5-.5-1.5-1.5-1-1.5-1-1 1-1 1 .5 2 .5 2 1 1 1 1h2 2l1.5 1 1.5 1 .5-.5.5-.5" style="fill:#71806d;stroke:#71806d" />
        <path d="m558 577l1-1-25 1.5-25 1.5-21.5 1-21.5 1-.5 1-.5 1-2.5 19-2.5 19-10 1-10 1 1.5-7.5 1.5-7.5-10-5.5-10-5.5-3.5 1.5-3.5 1.5 6.5-11 6.5-11-13 1-13 1-14-3-14-3 12-6.5 12-6.5-15.5-.5-15.5-.5 7-14.5 7-14.5 10-11.5 10-11.5 11 12 11 12 14.5 10 14.5 10-.5-1.5-.5-1.5h-.5-.5l-14-10.5-14-10.5-12-11-12-11-5.5-13-5.5-13-13.5 1.5-13.5 1.5h-8-8l-16.5-.5-16.5-.5-24.5 3-24.5 3 .5 1.5.5 1.5-1.5.5-1.5.5.5 1 .5 1 1.5-.5 1.5-.5h1.5 1.5l1.5.5 1.5.5v1.5 1.5l14-.5 14-.5 24-1 24-1-13 5.5-13 5.5-15 2-15 2-18-3.5-18-3.5h-1-1v1 1l-.5-1-.5-1-.5 1-.5 1-.5 1-.5 1v2 2l-1 1.5-1 1.5-1 1-1 1-1 1.5-1 1.5-1.5-.5-1.5-.5-1.5-1-1.5-1-1-.5-1-.5 20.5 15.5 20.5 15.5-1 1-1 1-1-1-1-1v1 1l-1 .5-1 .5-.5 1.5-.5 1.5h-1-1l-.5 1-.5 1-1.5.5-1.5.5-18 4.5-18 4.5-27.5 3-27.5 3h-1.5-1.5-1.5-1.5-1-1-1-1l-.5.5-.5.5h-1.5-1.5-1-1l-.5.5-.5.5-.5.5-.5.5-1 .5-1 .5-.5 1.5-.5 1.5 1.5-1 1.5-1 1-1 1-1 .5-.5.5-.5h1 1 1 1 1.5 1.5l1.5-.5 1.5-.5h1 1l1 .5 1 .5 1.5 1 1.5 1 1.5-.5 1.5-.5h2 2 2.5 2.5l21.5-3.5 21.5-3.5 19-5 19-5 26.5-3.5 26.5-3.5.5-2 .5-2-.5-1.5-.5-1.5.5-1.5.5-1.5-.5-2-.5-2 .5-1.5.5-1.5-1-2.5-1-2.5h-.5-.5l-4 2-4 2-9 3.5-9 3.5-6.5-9-6.5-9 20 .5 20 .5 11 3.5 11 3.5 5 18 5 18-4-20-4-20 14-4.5 14-4.5-.5 1.5-.5 1.5-.5 1-.5 1v1 1l-.5.5-.5.5-.5 1-.5 1h-.5-.5l-.5 1-.5 1v1.5 1.5l.5.5.5.5.5-1.5.5-1.5 1.5-.5 1.5-.5v1 1l.5.5.5.5h1 1v1 1l-5.5 16.5-5.5 16.5-1.5 13.5-1.5 13.5-8 12.5-8 12.5-10.5 25-10.5 25 27.5 5 27.5 5 9 7 9 7v-11.5-11.5l.5-7.5.5-7.5 6-8.5 6-8.5 1 11.5 1 11.5.5-1.5.5-1.5 2 .5 2 .5 3.5-2.5 3.5-2.5 2.5-6 2.5-6-.5 7-.5 7 11 10.5 11 10.5-6.5 7-6.5 7 5.5 12 5.5 12h2.5 2.5 1.5 1.5l3-29.5 3-29.5 2-20.5 2-20.5 5.5-14.5 5.5-14.5 13 .5 13 .5 13-2.5 13-2.5 15-1 15-1" style="fill:#363529;stroke:#363529" />
        <path d="m553 551l1-3-.5-1.5-.5-1.5v-1.5-1.5l-1.5.5-1.5.5-1.5 1-1.5 1-1.5.5-1.5.5-1.5-1-1.5-1-1.5-1-1.5-1-7.5 6-7.5 6 15 .5 15 .5-.5-1-.5-1 .5-1 .5-1" style="fill:#242a21;stroke:#242a21" />
        <path d="m547 372l1-3-1-1-1-1v-1.5-1.5l1-1 1-1-1.5-1.5-1.5-1.5-.5 1.5-.5 1.5-.5 1.5-.5 1.5-.5 1.5-.5 1.5.5 2 .5 2h2 2" style="fill:#71806d;stroke:#71806d" />
        <path d="m546 575l1-1-27 1-27 1-18.5-1.5-18.5-1.5-8-5.5-8-5.5 19 2 19 2 20.5-2 20.5-2h-1.5-1.5-2-2l-2 .5-2 .5h-2-2-2.5-2.5-2-2l-2.5-.5-2.5-.5h-1.5-1.5-2-2-1.5-1.5-1-1l-1.5.5-1.5.5 1 .5 1 .5-.5.5-.5.5h-1-1-1-1-1.5-1.5-1-1l-.5-.5-.5-.5h-1-1-1-1l-1 .5-1 .5h-.5-.5l-22-4.5-22-4.5-1.5.5-1.5.5-1 .5-1 .5-.5.5-.5.5h-1.5-1.5l-2.5 6-2.5 6 15-3 15-3 15.5 7 15.5 7 21-1 21-1 21-1 21-1" style="fill:#5c4b30;stroke:#5c4b30" />
        <g style="fill:#71806d;stroke:#71806d">
            <path d="m527 190v-2l-.5-.5-.5-.5-.5-.5-.5-.5-1 .5-1 .5-.5.5-.5.5-.5.5-.5.5-.5.5-.5.5h-1-1l-1 .5-1 .5h-1-1-1-1l.5.5.5.5.5 1 .5 1 .5.5.5.5.5-.5.5-.5h1 1l.5.5.5.5.5 1 .5 1 2.5-1 2.5-1 .5-1.5.5-1.5.5-1 .5-1" />
            <path d="m520 185l-18 6 6.5-2 6.5-2 2.5-1 2.5-1" />
        </g>
        <path d="m465 583l1-2-5.5 15.5-5.5 15.5v2 2l-2 .5-2 .5-1.5 1-1.5 1-1-1-1-1-1-1-1-1-.5-2-.5-2 1.5.5 1.5.5 1.5-1 1.5-1v-1.5-1.5l-1.5.5-1.5.5h-1.5-1.5l-1.5 7.5-1.5 7.5 10-1 10-1 2.5-19 2.5-19" style="fill:#4c3916;stroke:#4c3916" />
        <path d="m461 562v-2l-1-1.5-1-1.5-1-1-1-1-1-1-1-1-1-.5-1-.5 1 1.5 1 1.5 1 1 1 1v1 1l-23.5-2.5-23.5-2.5-1.5 1-1.5 1h1 1l2-.5 2-.5 2-.5 2-.5 21.5 5 21.5 5 .5-1 .5-1" style="fill:#363529;stroke:#363529" />
        <path d="m459 565h1v-.5-.5l-21.5-5-21.5-5-1 1-1 1 22 4.5 22 4.5" style="fill:#503f29;stroke:#503f29" />
        <path d="m457 559v-2l-1-1-1-1-1-1.5-1-1.5-14.5-10-14.5-10-11-12-11-12-10 11.5-10 11.5-7 14.5-7 14.5 15.5.5 15.5.5 1-.5 1-.5h1 1l1.5-.5 1.5-.5h1.5 1.5l.5-.5.5-.5 1-.5 1-.5 1.5-.5 1.5-.5 1-1 1-1-2 .5-2 .5-2 .5-2 .5h-1-1l-17.5 3-17.5 3 7-17 7-17 4 1.5 4 1.5 16 9 16 9-2-.5-2-.5-.5-.5-.5-.5-.5-.5-.5-.5-.5-.5-.5-.5h-1-1l-1 .5-1 .5-.5.5-.5.5.5.5.5.5h1 1l.5.5.5.5-1 .5-1 .5h-1-1v1 1h-1-1l-1 1-1 1 23.5 2.5 23.5 2.5" style="fill:#242a21;stroke:#242a21" />
        <path d="m455 616v-4l-1.5-2-1.5-2-1.5-.5-1.5-.5v1.5 1.5l-1.5 1-1.5 1-1.5-.5-1.5-.5.5 2 .5 2 1 1 1 1 1 1 1 1 1.5-1 1.5-1 2-.5 2-.5" style="fill:#363529;stroke:#363529" />
        <path d="m451 549h1l-21.5-18.5-21.5-18.5-5-15-5-15-16-3.5-16-3.5-17 1-17 1h-17-17l-16.5 2-16.5 2-3.5-2.5-3.5-2.5 18.5-1 18.5-1 9-10 9-10 6.5 7 6.5 7 11.5-1.5 11.5-1.5-10.5-9.5-10.5-9.5-2-16-2-16v-17.5-17.5l-13 3-13 3-11.5 6-11.5 6-.5.5-.5.5v.5.5l-1.5.5-1.5.5-1.5-1-1.5-1 .5.5.5.5 1 1.5 1 1.5 16.5 5 16.5 5v1.5 1.5l-.5 1-.5 1 .5.5.5.5-.5.5-.5.5v1.5 1.5 1 1l3.5 22 3.5 22-1 1.5-1 1.5h-2-2l-21 1-21 1-18.5 7-18.5 7-.5 1.5-.5 1.5-.5.5-.5.5-.5.5-.5.5v1 1l-.5.5-.5.5v1.5 1.5 1 1h1 1v1 1l.5.5.5.5 1 .5 1 .5.5.5.5.5.5.5.5.5.5.5.5.5.5 1 .5 1 .5.5.5.5.5.5.5.5.5.5.5.5 1 1 1 1 1 .5 1 .5 1.5 1 1.5 1 1.5.5 1.5.5 1-1.5 1-1.5 1-1 1-1 1-1.5 1-1.5v-2-2l.5-1 .5-1 .5-1 .5-1-1-1.5-1-1.5.5-1.5.5-1.5 1-1.5 1-1.5 1-1 1-1 1-1.5 1-1.5 1-1 1-1 2 1 2 1 24.5-3 24.5-3 16.5.5 16.5.5h8 8l13.5-1.5 13.5-1.5 5.5 13 5.5 13 12 11 12 11 14 10.5 14 10.5" style="fill:#404740;stroke:#404740" />
        <path d="m451 308l1-3-1.5.5-1.5.5-1.5-1-1.5-1-1.5.5-1.5.5-1 1.5-1 1.5-1.5.5-1.5.5.5 1 .5 1h2 2l1.5-.5 1.5-.5 2-.5 2-.5.5-.5.5-.5" style="fill:#626e60;stroke:#626e60" />
        <path d="m449 674l-22-21 .5-7 .5-7-2.5 6-2.5 6-3.5 2.5-3.5 2.5v2 2l1 .5 1 .5.5 1 .5 1-1.5-.5-1.5-.5-1.5.5-1.5.5h-1.5-1.5l-1-1-1-1 1.5-1.5 1.5-1.5-1-11.5-1-11.5-6 8.5-6 8.5-.5 7.5-.5 7.5v11.5 11.5.5.5l-1 1-1 1-.5 1-.5 1-.5.5-.5.5h-1-1l-1-.5-1-.5-1 .5-1 .5-2 .5-2 .5-1 1-1 1 .5 2 .5 2-.5 1.5-.5 1.5-2 .5-2 .5-1.5.5-1.5.5-1.5-.5-1.5-.5-2 .5-2 .5h-2-2l-.5 2-.5 2h24.5 24.5 18.5 18.5l-5.5-12-5.5-12 6.5-7 6.5-7" style="fill:#4c3916;stroke:#4c3916" />
        <path d="m438 333l1-3v-2-2l-1-1.5-1-1.5-1.5-.5-1.5-.5-.5 2-.5 2 .5 1.5.5 1.5.5 2 .5 2 1 1 1 1 .5.5.5.5v-1.5-1.5" style="fill:#626e60;stroke:#626e60" />
        <path d="m433 674v-2l-.5-1.5-.5-1.5-2 .5-2 .5-1 1-1 1-2 .5-2 .5 1 1 1 1 1 1.5 1 1.5h1 1l1-1 1-1 1.5-1 1.5-1" style="fill:#363529;stroke:#363529" />
        <path d="m426 549l-32-18-4-1.5-4-1.5-7 17-7 17 17.5-3 17.5-3 1.5-1 1.5-1 1-1 1-1h1 1v-1-1h1 1l1-.5 1-.5-.5-.5-.5-.5h-1-1l-.5-.5-.5-.5.5-.5.5-.5 1-.5 1-.5h1 1l.5.5.5.5.5.5.5.5.5.5.5.5 2 .5 2 .5" style="fill:#1c1f14;stroke:#1c1f14" />
        <path d="m419 663l-1-2-1-.5-1-.5v-2-2l-2-.5-2-.5-.5 1.5-.5 1.5-1.5 1.5-1.5 1.5 1 1 1 1h1.5 1.5l1.5-.5 1.5-.5 1.5.5 1.5.5" style="fill:#503f29;stroke:#503f29" />
        <path d="m406 604v-2-2-2l-1-.5-1-.5-.5 1-.5 1v2 2l-1 .5-1 .5-1 2-1 2 .5 1 .5 1-.5 1.5-.5 1.5v.5.5h1 1 1.5 1.5l.5-1.5.5-1.5.5-2 .5-2v-1.5-1.5" style="fill:#2e2411;stroke:#2e2411" />
        <path d="m403 603v-4l-13-3.5-13-3.5-6.5-2-6.5-2 5.5 15.5 5.5 15.5 13-2.5 13-2.5h-1-1l-16.5.5-16.5.5 3.5-10 3.5-10 13 6.5 13 6.5 1-2 1-2 1-.5 1-.5" style="fill:#242a21;stroke:#242a21" />
        <path d="m401 624l-31-1 15.5 1 15.5 1v-.5-.5" style="fill:#404740;stroke:#404740" />
        <path d="m399 613l1-3-.5-1-.5-1-13-6.5-13-6.5-3.5 10-3.5 10 16.5-.5 16.5-.5v-.5-.5" style="fill:#1c1f14;stroke:#1c1f14" />
        <path d="m396 691v-1l-9-7-9-7 .5 1 .5 1-.5 1.5-.5 1.5v-1.5-1.5l-1.5.5-1.5.5-.5.5-.5.5h-.5-.5l.5-1.5.5-1.5.5-2 .5-2h-1.5-1.5-.5-.5l-1 1-1 1-.5 1.5-.5 1.5-.5.5-.5.5.5 1 .5 1v2 2l.5.5.5.5v1 1 1 1l-.5 1-.5 1 1 1 1 1 .5.5.5.5-1 .5-1 .5v2 2 2 2h2.5 2.5v-2.5-2.5l.5-1.5.5-1.5.5 1 .5 1 2-1 2-1 1.5-.5 1.5-.5 1.5-1 1.5-1 1-1 1-1v1 1 1 1l1 .5 1 .5h1 1l.5-.5.5-.5.5-1 .5-1 1-1 1-1" style="fill:#2e2411;stroke:#2e2411" />
        <path d="m393 638l1-3-.5-1.5-.5-1.5-1.5 1-1.5 1-1 1-1 1-1-.5-1-.5-.5.5-.5.5-1 1-1 1-.5 1-.5 1h-1-1l-.5-.5-.5-.5-.5-.5-.5-.5h-1.5-1.5l-.5 2.5-.5 2.5 8 3.5 8 3.5v-2-2l1-1 1-1 .5-2 .5-2v-1-1" style="fill:#1c1f14;stroke:#1c1f14" />
        <path d="m391 658v-2l-1-1-1-1 .5-2 .5-2-8-3.5-8-3.5v1.5 1.5l-1 1-1 1-.5 2.5-.5 2.5.5 1.5.5 1.5.5 2 .5 2 1 1 1 1 1 1 1 1 2 .5 2 .5h2 2l.5-2 .5-2 1-1 1-1h1.5 1.5v-.5-.5" style="fill:#2e2411;stroke:#2e2411" />
        <path d="m388 693v-2l-1 1-1 1-1.5 1-1.5 1-1.5.5-1.5.5-2 1-2 1v1.5 1.5l-.5 1-.5 1-1.5 1.5-1.5 1.5h-1-1-2.5-2.5l-1.5.5-1.5.5-1.5 1-1.5 1-1.5.5-1.5.5-1.5.5-1.5.5-1.5-1-1.5-1-1-1-1-1v2.5 2.5h2 2 2.5 2.5 2 2l.5-2 .5-2h2 2l2-.5 2-.5 1.5.5 1.5.5 1.5-.5 1.5-.5 2-.5 2-.5.5-1.5.5-1.5-.5-2-.5-2 1-1 1-1 2-.5 2-.5 1-.5 1-.5v-1-1" style="fill:#363529;stroke:#363529" />
        <g style="fill:#242a21;stroke:#242a21">
            <path d="m385 636l1-1-2.5-.5-2.5-.5-2-.5-2-.5-1.5.5-1.5.5-1 1.5-1 1.5-.5 1.5-.5 1.5.5 2 .5 2v2 2l1-1 1-1v-1.5-1.5l.5-2.5.5-2.5h1.5 1.5l.5.5.5.5.5.5.5.5h1 1l.5-1 .5-1 1-1 1-1" />
            <path d="m378 681l1-3-.5-1-.5-1-27.5-5-27.5-5-16 4.5-16 4.5-21 1-21 1-17 2-17 2-15.5.5-15.5.5-23 11-23 11 1.5.5 1.5.5 1.5-.5 1.5-.5 1-1.5 1-1.5 1.5-.5 1.5-.5v1.5 1.5l1 1 1 1 .5-1 .5-1 11-9.5 11-9.5 22.5 6 22.5 6-16.5 3-16.5 3v.5.5l16-.5 16-.5 2 .5 2 .5 1.5-.5 1.5-.5 1-1 1-1 10-10 10-10 20-1 20-1h18.5 18.5l11 1.5 11 1.5 13-4 13-4h1.5 1.5l-.5 2-.5 2-.5 1.5-.5 1.5h.5.5l.5-.5.5-.5 1.5-.5 1.5-.5v1.5 1.5" />
            <path d="m375 703l1-2v-1.5-1.5l-.5-1-.5-1-.5 1.5-.5 1.5v2.5 2.5h-2.5-2.5l-12-1-12-1 1 .5 1 .5.5 2 .5 2 1 1 1 1 1.5 1 1.5 1 1.5-.5 1.5-.5 1.5-.5 1.5-.5 1.5-1 1.5-1 1.5-.5 1.5-.5h2.5 2.5 1 1l1.5-1.5 1.5-1.5" />
        </g>
        <path d="m374 531v-2h-1-1l-.5-.5-.5-.5v-1-1l-1.5.5-1.5.5-.5 1.5-.5 1.5v2 2l-1 1-1 1-.5.5-.5.5v1.5 1.5l-.5 1.5-.5 1.5-.5.5-.5.5-.5.5-.5.5-.5.5-.5.5v1.5 1.5l-.5.5-.5.5v1 1l-.5.5-.5.5-.5 1-.5 1-.5.5-.5.5v1 1l-.5.5-.5.5-.5 1-.5 1-1 1-1 1-5-18-5-18-11-3.5-11-3.5v1.5 1.5 1.5 1.5l1 2.5 1 2.5-.5 1.5-.5 1.5.5 2 .5 2-.5 1.5-.5 1.5.5 1.5.5 1.5-.5 2-.5 2 .5 1 .5 1 2 1 2 1-2-15.5-2-15.5 4 8.5 4 8.5 5 13 5 13 6 14.5 6 14.5-6.5 10.5-6.5 10.5-1.5 11.5-1.5 11.5-8.5-1.5-8.5-1.5-25.5.5-25.5.5 4 2.5 4 2.5-13.5 11-13.5 11 6.5 6 6.5 6 20.5-1.5 20.5-1.5 1.5-8.5 1.5-8.5 9-7.5 9-7.5.5 2.5.5 2.5-.5 1.5-.5 1.5-.5 1.5-.5 1.5v2 2l.5 2.5.5 2.5-.5 1.5-.5 1.5v1.5 1.5.5.5l10.5-25 10.5-25 8-12.5 8-12.5 1.5-13.5 1.5-13.5 5.5-16.5 5.5-16.5" style="fill:#404740;stroke:#404740" />
        <path d="m372 514l-28 9 4 20 4 20 1-1 1-1 .5-1 .5-1 .5-.5.5-.5v-1-1l.5-.5.5-.5.5-1 .5-1 .5-.5.5-.5v-1-1l.5-.5.5-.5v-1.5-1.5l.5-.5.5-.5.5-.5.5-.5.5-.5.5-.5.5-1.5.5-1.5v-1.5-1.5l.5-.5.5-.5 1-1 1-1v-2-2l-.5-.5-.5-.5-9 7.5-9 7.5-.5-11.5-.5-11.5 10.5 1.5 10.5 1.5.5-1 .5-1 .5-.5.5-.5v-1-1l.5-1 .5-1 .5-1.5.5-1.5" style="fill:#242a21;stroke:#242a21" />
        <path d="m371 673h1l-13 4-13 4-11-1.5-11-1.5h-18.5-18.5l-20 1-20 1-10 10-10 10 13.5-1 13.5-1 31.5-.5 31.5-.5h.5.5l1-.5 1-.5h1 1 1 1 1.5 1.5l1 .5 1 .5 2.5-.5 2.5-.5-.5 1.5-.5 1.5 1.5 1 1.5 1 1.5-.5 1.5-.5 2 .5 2 .5 1 .5 1 .5 12 1 12 1v-2-2-2-2l1-.5 1-.5-.5-.5-.5-.5-1-1-1-1 .5-1 .5-1v-1-1-1-1l-.5-.5-.5-.5v-2-2l-.5-1-.5-1 .5-.5.5-.5.5-1.5.5-1.5 1-1 1-1" style="fill:#1c1f14;stroke:#1c1f14" />
        <path d="m370 635l-11-29-4.5 16-4.5 16 10-1.5 10-1.5" style="fill:#404740;stroke:#404740" />
        <path d="m367 524h1l-10.5-1.5-10.5-1.5.5 11.5.5 11.5 9-7.5 9-7.5v-1.5-1.5l.5-1 .5-1" style="fill:#1c1f14;stroke:#1c1f14" />
        <g style="fill:#525a4e;stroke:#525a4e">
            <path d="m365 628l1-3v-2-2h-1.5-1.5-2-2l-2 .5-2 .5-1 1-1 1 1.5 1 1.5 1 1.5.5 1.5.5h2 2l1 .5 1 .5" />
            <path d="m352 593l-12-29-5-13-5-13-4-8.5-4-8.5 2 15.5 2 15.5v2.5 2.5l1 .5 1 .5-.5 1-.5 1v1 1l.5.5.5.5.5.5.5.5-.5 1.5-.5 1.5v19 19l-10.5 12.5-10.5 12.5-20-4-20-4 18 11 18 11-19-7-19-7-.5 1.5-.5 1.5 2 1 2 1 25.5-.5 25.5-.5 8.5 1.5 8.5 1.5 1.5-11.5 1.5-11.5 6.5-10.5 6.5-10.5" />
        </g>
        <path d="m347 712h1v-2.5-2.5l-.5-2-.5-2-1-.5-1-.5-1-.5-1-.5-2-.5-2-.5-1.5.5-1.5.5-1.5-1-1.5-1 .5-1.5.5-1.5-2.5.5-2.5.5 1 .5 1 .5.5 1 .5 1 1 1 1 1v1 1l-.5 1-.5 1h1 1v1 1 1 1l.5.5.5.5 1 .5 1 .5h2 2 2 2 .5.5" style="fill:#5c4b30;stroke:#5c4b30" />
        <path d="m347 494l-48 2-14 .5-14 .5h-.5-.5l-.5-1-.5-1-.5-.5-.5-.5-.5 1-.5 1-.5.5-.5.5-.5.5-.5.5-.5.5-.5.5h-1-1l-1 .5-1 .5h-1-1l-.5.5-.5.5-1 .5-1 .5 18 3.5 18 3.5 15-2 15-2 13-5.5 13-5.5" style="fill:#242a21;stroke:#242a21" />
        <path d="m345 468v-2l-1-1-1-1-2-.5-2-.5-1-1-1-1-1.5 1-1.5 1-.5 1.5-.5 1.5 1.5 1 1.5 1 1.5.5 1.5.5 1.5-.5 1.5-.5h1.5 1.5" style="fill:#363529;stroke:#363529" />
        <path d="m337 712h1l-1-.5-1-.5-.5-.5-.5-.5v-1-1-1-1h-1-1l-1 .5-1 .5-2-.5-2-.5 1-1 1-1 1-1.5 1-1.5-1.5-.5-1.5-.5-1.5.5-1.5.5-1.5-1-1.5-1-2-1-2-1h-.5-.5l-.5 1-.5 1-12 4-12 4-36.5-1.5-36.5-1.5-.5.5-.5.5-37.5 3.5-37.5 3.5h23.5 23.5 24.5 24.5 24.5 24.5 24.5 24.5" style="fill:#4c3916;stroke:#4c3916" />
        <path d="m334 704v-2l-1-1-1-1-.5-1-.5-1-1-.5-1-.5-1-.5-1-.5h-1.5-1.5-1-1-1-1l-1 .5-1 .5 2 1 2 1 1.5 1 1.5 1 1.5-.5 1.5-.5 1.5.5 1.5.5-1 1.5-1 1.5-1 1-1 1 2 .5 2 .5 1-.5 1-.5.5-1 .5-1" style="fill:#2e2411;stroke:#2e2411" />
        <path d="m328 567l1-3-.5-.5-.5-.5-.5-.5-.5-.5v-1-1l.5-1 .5-1-1-.5-1-.5-.5.5-.5.5-.5 1.5-.5 1.5v1.5 1.5 1 1 1 1l-.5.5-.5.5-1 .5-1 .5 2 21 2 21-13.5 9-13.5 9-16-6.5-16-6.5-1 .5-1 .5-.5 1-.5 1v2.5 2.5l-.5 1.5-.5 1.5v2 2 .5.5h1 1l.5-1.5.5-1.5.5-1 .5-1 .5-1.5.5-1.5v-1.5-1.5l20 4 20 4 10.5-12.5 10.5-12.5v-19-19" style="fill:#404740;stroke:#404740" />
        <path d="m325 612l-4-42-.5-1-.5-1-.5-1-.5-1-1 .5-1 .5v.5.5l-.5 1.5-.5 1.5.5.5.5.5-.5 1-.5 1-.5.5-.5.5-.5-.5-.5-.5v-1-1h-1-1l-.5.5-.5.5-1.5 1-1.5 1-24 1-24 1-.5 2-.5 2-24 5.5-24 5.5-5.5 4.5-5.5 4.5 1 .5 1 .5h1.5 1.5 2 2l1.5.5 1.5.5h1 1l1 .5 1 .5h2 2 1 1l1 .5 1 .5h2 2l.5.5.5.5h1.5 1.5l1.5.5 1.5.5v1 1 .5.5l-.5.5-.5.5v1.5 1.5l5.5-10 5.5-10h12 12 1.5 1.5 1 1l.5 1 .5 1h1 1l.5-.5.5-.5-.5-.5-.5-.5v-1.5-1.5h1 1l.5.5.5.5.5.5.5.5 1 .5 1 .5.5.5.5.5 1 1 1 1 1.5.5 1.5.5 1.5 1 1.5 1 15.5 7 15.5 7h-1-1-1-1l-.5.5-.5.5-1 .5-1 .5-1.5 1-1.5 1-1 1.5-1 1.5-.5.5-.5.5-22-2.5-22-2.5 16 6.5 16 6.5 13.5-9 13.5-9" style="fill:#363529;stroke:#363529" />
        <path d="m325 558l1-1v-2.5-2.5l-2-1-2-1-.5-1-.5-1-26.5 3.5-26.5 3.5-19 5-19 5-21.5 3.5-21.5 3.5 21-2.5 21-2.5 18-4.5 18-4.5 24.5-3 24.5-3-15 8.5-15 8.5-16.5-.5-16.5-.5-15 5.5-15 5.5-16 4.5-16 4.5-7-7.5-7-7.5-1.5-1-1.5-1-1-.5-1-.5h-1-1l-1.5.5-1.5.5h-1.5-1.5-1-1-1-1l-.5.5-.5.5-1 1-1 1-1.5 1-1.5 1 12 12.5 12 12.5 1-.5 1-.5h2 2 2 2l2 .5 2 .5h2 2l1 .5 1 .5h1 1l1-.5 1-.5 5.5-4.5 5.5-4.5 24.5-7.5 24.5-7.5 24-1 24-1-1-1-1-1v-1-1l1-1 1-1h2.5 2.5l2-1 2-1 1-.5 1-.5.5 1 .5 1 .5 1 .5 1 1-.5 1-.5.5-.5.5-.5v-1-1-1-1-1.5-1.5l.5-1.5.5-1.5" style="fill:#503f29;stroke:#503f29" />
        <path d="m324 647l1-3-.5-2.5-.5-2.5-1 .5-1 .5-1 .5-1 .5-1 1-1 1v1 1 1 1l.5.5.5.5 1-.5 1-.5h1 1v1 1l-.5.5-.5.5.5 2 .5 2v-2-2l.5-1.5.5-1.5" style="fill:#242a21;stroke:#242a21" />
        <path d="m323 665v-3l.5-1.5.5-1.5-.5-2.5-.5-2.5-.5-2-.5-2 .5-.5.5-.5v-1-1h-1-1l-1 .5-1 .5-.5-.5-.5-.5v-1-1-1-1l1-1 1-1 1-.5 1-.5 1-.5 1-.5-9 7.5-9 7.5-1.5 8.5-1.5 8.5-20.5 1.5-20.5 1.5-6.5-6-6.5-6 13.5-11 13.5-11-4-2.5-4-2.5-2-1-2-1h-1-1l1 1.5 1 1.5.5 1 .5 1-14.5 7.5-14.5 7.5.5-2 .5-2 1-.5 1-.5-1-5-1-5 1 1 1 1-.5 1.5-.5 1.5-1 1.5-1 1.5h-2-2l-1.5-.5-1.5-.5h-1-1l-.5-1-.5-1 .5-1.5.5-1.5 1-1.5 1-1.5-.5-2-.5-2v-1-1l1-.5 1-.5 1-1 1-1v-2.5-2.5-1-1l.5-1.5.5-1.5.5-.5.5-.5v-1.5-1.5h-.5-.5l-13 8-13 8-16 12.5-16 12.5 12-10 12-10 11.5 6 11.5 6-2.5 15-2.5 15-16.5 1-16.5 1-19 2-19 2-14-2.5-14-2.5-11-2.5-11-2.5-10.5-6-10.5-6-14.5-7-14.5-7-10-2.5-10-2.5v1.5 1.5l15.5 12 15.5 12 1 .5 1 .5 1 .5 1 .5 2.5 1 2.5 1h1.5 1.5l.5 1.5.5 1.5 1.5.5 1.5.5 2 .5 2 .5 1 1 1 1h1.5 1.5l2 .5 2 .5 26.5 12.5 26.5 12.5-.5-1-.5-1 23-11 23-11 15.5-.5 15.5-.5 17-2 17-2 21-1 21-1 16-4.5 16-4.5v-.5-.5" style="fill:#363529;stroke:#363529" />
        <g style="fill:#242a21;stroke:#242a21">
            <path d="m323 614l-31-14 1 .5 1 .5.5.5.5.5h1 1v1 1l-1 1.5-1 1.5 1 .5 1 .5 1 .5 1 .5h2 2l1 1 1 1v-1-1-1.5-1.5l1.5-.5 1.5-.5.5-.5.5-.5 1 .5 1 .5 1 1 1 1 .5.5.5.5.5 1 .5 1 1 1 1 1-.5 1.5-.5 1.5v.5.5l1-.5 1-.5.5-.5.5-.5h1 1 1 1" />
            <path d="m319 526h1v-1.5-1.5-1.5-1.5l-20-.5-20-.5 6.5 9 6.5 9 9-3.5 9-3.5 4-2 4-2" />
            <path d="m318 662v-2-2-2l-1-1.5-1-1.5-1.5-.5-1.5-.5-1.5 1-1.5 1v2 2l1.5 1 1.5 1 1.5.5 1.5.5 1 .5 1 .5" />
        </g>
        <path d="m317 568v-1l-2 1-2 1h-2.5-2.5l-1 1-1 1v1 1l1 1 1 1 1.5-1 1.5-1 .5-.5.5-.5h1 1v1 1l.5.5.5.5.5-.5.5-.5.5-1 .5-1-.5-.5-.5-.5.5-1.5.5-1.5" style="fill:#4c3916;stroke:#4c3916" />
        <path d="m317 439l1-3-.5-1.5-.5-1.5-1.5 1-1.5 1-1-1-1-1 .5-2 .5-2-1 1-1 1-1 1.5-1 1.5v2 2l1.5.5 1.5.5 1 .5 1 .5 1.5-.5 1.5-.5" style="fill:#525a4e;stroke:#525a4e" />
        <g style="fill:#2e2411;stroke:#2e2411">
            <path d="m316 699l1-2-31.5.5-31.5.5-13.5 1-13.5 1-1 1-1 1-1.5.5-1.5.5-2-.5-2-.5.5 1 .5 1 36.5 1.5 36.5 1.5 12-4 12-4" />
            <path d="m316 615l1-3-1-1-1-1-.5-1-.5-1-.5-.5-.5-.5-1-1-1-1-1-.5-1-.5-.5.5-.5.5-1.5.5-1.5.5v1.5 1.5 1 1l-1-1-1-1h-2-2l-1-.5-1-.5-1-.5-1-.5.5 1 .5 1 1.5 1 1.5 1 1.5.5 1.5.5v1 1l-.5 1.5-.5 1.5-1.5-.5-1.5-.5h-1-1l-.5-.5-.5-.5v-1-1-.5-.5h-1-1v1 1l.5 1 .5 1-1 1-1 1 1.5.5 1.5.5.5.5.5.5.5.5.5.5 1-.5 1-.5.5-.5.5-.5h1 1 1 1l.5.5.5.5.5 1 .5 1h1 1l1.5-.5 1.5-.5 1-1.5 1-1.5 1.5-1 1.5-1v-.5-.5" />
        </g>
        <path d="m314 552l-49 6-18 4.5-18 4.5-21 2.5-21 2.5h-2.5-2.5-2-2l-1.5.5-1.5.5 7 7.5 7 7.5 16-4.5 16-4.5 15-5.5 15-5.5 16.5.5 16.5.5 15-8.5 15-8.5" style="fill:#5c4b30;stroke:#5c4b30" />
        <path d="m313 665l-33-7-2.5-2.5-2.5-2.5-13 7-13 7 16 1.5 16 1.5 16-2.5 16-2.5" style="fill:#525a4e;stroke:#525a4e" />
        <path d="m311 468l-7-44-.5-.5-.5-.5 3 23 3 23h-1.5-1.5l-1 .5-1 .5.5.5.5.5h2 2l1-1.5 1-1.5" style="fill:#24333d;stroke:#24333d" />
        <g style="fill:#242a21;stroke:#242a21">
            <path d="m310 622l1-1-1.5.5-1.5.5h-1-1l-.5-1-.5-1-.5-.5-.5-.5h-1-1-1-1l-.5.5-.5.5-1 .5-1 .5-.5-.5-.5-.5-.5-.5-.5-.5-1.5-.5-1.5-.5h-2.5-2.5l-1.5-.5-1.5-.5-1.5-1-1.5-1-1.5.5-1.5.5-1.5.5-1.5.5-2-.5-2-.5-2.5.5-2.5.5 22 2.5 22 2.5" />
            <path d="m309 469l-6-46-8 12.5-8 12.5 8.5 11 8.5 11 1-.5 1-.5h1.5 1.5" />
        </g>
        <path d="m305 412l-33-10-12 4.5-12 4.5-14 4.5-14 4.5-5.5-19.5-5.5-19.5.5-2 .5-2 .5-1.5.5-1.5 1-1 1-1v-1-1l1-.5 1-.5 1-1 1-1 .5-1.5.5-1.5-1.5 1-1.5 1-1.5-.5-1.5-.5-.5.5-.5.5h-1-1l-.5.5-.5.5-.5 1-.5 1-.5 2-.5 2-1 1-1 1-.5.5-.5.5-.5 1-.5 1-.5 1.5-.5 1.5-1 1.5-1 1.5 1 1 1 1-1 1.5-1 1.5v1 1 1.5 1.5l1 1.5 1 1.5v2 2 2 2 2.5 2.5 1 1l.5 2 .5 2v1.5 1.5l5.5 17.5 5.5 17.5 6.5 16.5 6.5 16.5 18.5-7 18.5-7 21-1 21-1-.5-.5-.5-.5-8.5-11-8.5-11 8-12.5 8-12.5.5.5.5.5v-1-1-1.5-1.5l.5-.5.5-.5-.5-.5-.5-.5.5-1 .5-1v-1.5-1.5" style="fill:#363529;stroke:#363529" />
        <path d="m304 364l-13-33-11-12.5-11-12.5-15.5-2-15.5-2-1.5-14-1.5-14v-11.5-11.5l-11.5.5-11.5.5-8.5 10-8.5 10-4.5 17-4.5 17-.5 1.5-.5 1.5-1.5 1-1.5 1-1.5.5-1.5.5.5 1.5.5 1.5v2.5 2.5l-.5 1.5-.5 1.5-.5 2-.5 2v1.5 1.5l1.5.5 1.5.5-.5 1.5-.5 1.5-5.5 16-5.5 16-6.5 17-6.5 17-10.5 8.5-10.5 8.5 1 2.5 1 2.5-9.5 9-9.5 9-7.5-2-7.5-2-7 11.5-7 11.5-10.5 3.5-10.5 3.5-1-4.5-1-4.5-4 9.5-4 9.5 1 .5 1 .5h1 1v1 1l-.5 1-.5 1 .5.5.5.5v1 1 1 1 1.5 1.5h-1.5-1.5l-.5-1.5-.5-1.5h-1-1l-1-.5-1-.5-1.5-.5-1.5-.5.5-1.5.5-1.5h1 1 1.5 1.5l1-1 1-1-.5-1.5-.5-1.5-1 .5-1 .5-1 1-1 1h-1-1l-2 .5-2 .5.5 1.5.5 1.5v1 1l-1.5 1-1.5 1-1-1-1-1-1.5-1-1.5-1v2 2l.5 1.5.5 1.5 1.5 1 1.5 1 .5 1.5.5 1.5-.5 1.5-.5 1.5-8-2.5-8-2.5-14.5-4.5-14.5-4.5v24.5 24.5 24.5 24.5 24 24 5.5 5.5l1 .5 1 .5 1.5-.5 1.5-.5.5-.5.5-.5.5-1 .5-1h2 2v1.5 1.5h2 2l.5.5.5.5.5-.5.5-.5h1 1 1 1l1 .5 1 .5.5-.5.5-.5.5-.5.5-.5.5 1 .5 1 10 2.5 10 2.5 14.5 7 14.5 7 10.5 6 10.5 6 11 2.5 11 2.5 14 2.5 14 2.5 19-2 19-2 16.5-1 16.5-1 2.5-15 2.5-15-11.5-6-11.5-6-12 10-12 10 9.5-4.5 9.5-4.5 15-4 15-4-4 16.5-4 16.5-20 3-20 3-21 2.5-21 2.5-15.5-7-15.5-7-16.5-8-16.5-8-23.5-18.5-23.5-18.5 17.5-5 17.5-5 25.5 5.5 25.5 5.5-1 .5-1 .5-1.5 1-1.5 1-1 1-1 1h-2.5-2.5l-1.5-.5-1.5-.5-2 1-2 1 3.5-10 3.5-10h-1.5-1.5-2-2-2-2-2.5-2.5l-1.5.5-1.5.5h-2-2l-8-9-8-9 3.5-12.5 3.5-12.5 4-15.5 4-15.5 6-18.5 6-18.5 10-14.5 10-14.5 13-10.5 13-10.5 15-17.5 15-17.5 6-14.5 6-14.5 5-17 5-17v-12-12l18.5-5 18.5-5 17 9 17 9-1 .5-1 .5h-1.5-1.5-1-1l-1-.5-1-.5h-2-2l-.5.5-.5.5-1 .5-1 .5-1.5.5-1.5.5h-1-1l-1.5 1-1.5 1-6 15.5-6 15.5-.5 1.5-.5 1.5-1 1-1 1-1 .5-1 .5v1 1l-1 1-1 1-.5 1.5-.5 1.5-.5 2-.5 2 .5-1.5.5-1.5 1-1 1-1 1-1 1-1h2.5 2.5l1.5.5 1.5.5 1-1.5 1-1.5.5 1.5.5 1.5v1.5 1.5l1.5-.5 1.5-.5 2 .5 2 .5 17-1.5 17-1.5-1-.5-1-.5-1.5 1-1.5 1v2 2l-1 1.5-1 1.5 1.5-.5 1.5-.5v2 2 1.5 1.5l1-.5 1-.5-.5 1.5-.5 1.5.5.5.5.5h.5.5v-2-2-1-1l.5-1 .5-1 1.5.5 1.5.5h1 1 .5.5l1 1 1 1 .5.5.5.5.5 1 .5 1 4.5-16.5 4.5-16.5 2-9.5 2-9.5 7.5 13 7.5 13" style="fill:#404740;stroke:#404740" />
        <path d="m303 644l-36-22v1.5 1.5l-.5 1.5-.5 1.5-.5 1-.5 1 19 7 19 7" style="fill:#626e60;stroke:#626e60" />
        <path d="m302 614v-2l-1.5-.5-1.5-.5-1.5-1-1.5-1-.5-1-.5-1-25.5-3-25.5-3 4 5.5 4 5.5 5 10 5 10v-2-2l.5-1.5.5-1.5v-2.5-2.5l.5-1 .5-1 1-.5 1-.5 2.5-.5 2.5-.5 2 .5 2 .5 1.5-.5 1.5-.5 1.5-.5 1.5-.5 1.5 1 1.5 1 1.5.5 1.5.5h2.5 2.5l1-1 1-1-.5-1-.5-1v-1-1h1 1v.5.5 1 1l.5.5.5.5h1 1l1.5.5 1.5.5.5-1.5.5-1.5" style="fill:#1c1f14;stroke:#1c1f14" />
        <path d="m301 552l-23 3 10.5 1 10.5 1 1-2.5 1-2.5" style="fill:#6c5c39;stroke:#6c5c39" />
        <path d="m297 604v-2h-1-1l-.5-.5-.5-.5-1-.5-1-.5-1.5-1-1.5-1-1.5-.5-1.5-.5-.5.5-.5.5-2-1.5-2-1.5-1 1-1 1-1.5.5-1.5.5-1.5 1-1.5 1-1-1-1-1-1-2-1-2h-12-12l1-.5 1-.5.5 1 .5 1-1.5 1-1.5 1-.5 2-.5 2 25.5 3 25.5 3 1-1.5 1-1.5" style="fill:#2e2411;stroke:#2e2411" />
        <path d="m290 667l-17-9 3.5 5 3.5 5 5-.5 5-.5" style="fill:#626e60;stroke:#626e60" />
        <path d="m289 651h-16l1 1 1 1 2-.5 2-.5 1.5-1 1.5-1 1.5.5 1.5.5h2 2" style="fill:#525a4e;stroke:#525a4e" />
        <path d="m285 598l1-1-1-1-1-1-.5-.5-.5-.5-1-.5-1-.5-.5-.5-.5-.5-.5-.5-.5-.5h-1-1v1.5 1.5l.5.5.5.5-.5.5-.5.5h-1-1l-.5-1-.5-1h-1-1-1.5-1.5l1 2 1 2 1 1 1 1 1.5-1 1.5-1 1.5-.5 1.5-.5 1-1 1-1 2 1.5 2 1.5" style="fill:#242a21;stroke:#242a21" />
        <path d="m283 15h-1l-1.5.5-1.5.5-1.5.5-1.5.5.5-2 .5-2 1.5-.5 1.5-.5.5-2 .5-2 .5-1.5.5-1.5.5-1.5.5-1.5.5-1 .5-1h-25-25-24.5-24.5-24.5-24.5-24.5-24.5-24.5-24.5-19-19v5 5 9 9l6 5 6 5 8-3.5 8-3.5 7 6.5 7 6.5 8.5-7 8.5-7 3 12.5 3 12.5 4-7 4-7 5-7.5 5-7.5 1.5 7 1.5 7 8.5 2 8.5 2h2.5 2.5l3 9.5 3 9.5 12 2.5 12 2.5 1 8 1 8 6-8.5 6-8.5 7.5 6.5 7.5 6.5 1-4 1-4 3.5-11.5 3.5-11.5 7.5 2 7.5 2 5-8 5-8 2.5-4.5 2.5-4.5 1.5 6.5 1.5 6.5 5-5.5 5-5.5.5 12.5.5 12.5 6.5-3.5 6.5-3.5v-9-9l7 7 7 7-1-14-1-14 7 8.5 7 8.5 5 9 5 9 2.5 14 2.5 14 1.5-13.5 1.5-13.5 3-18.5 3-18.5" style="fill:#71806d;stroke:#71806d" />
        <path d="m278 194l-7-5 2.5 5 2.5 5 1-2.5 1-2.5" style="fill:#525a4e;stroke:#525a4e" />
        <path d="m277 545l-41-31-1-1-1-1-.5-.5-.5-.5-.5-.5-.5-.5-.5-.5-.5-.5-.5-1-.5-1-.5-.5-.5-.5-.5-.5-.5-.5-.5-.5-.5-.5-1-.5-1-.5-.5-.5-.5-.5v-1-1h-1-1v-1-1-1.5-1.5l.5-.5.5-.5v-1-1l.5-.5.5-.5.5-.5.5-.5.5-1.5.5-1.5-6.5-16.5-6.5-16.5-5.5-17.5-5.5-17.5h-.5-.5l-.5-2.5-.5-2.5-1-1.5-1-1.5.5-1.5.5-1.5v-1.5-1.5-2-2l-1-1.5-1-1.5v-1-1l1-1 1-1v-1.5-1.5h-.5-.5l-1-1-1-1-.5.5-.5.5-1 .5-1 .5h-1-1v-1-1l-.5-.5-.5-.5.5-.5.5-.5 1-.5 1-.5-.5-1.5-.5-1.5v-1-1l1-.5 1-.5.5 1.5.5 1.5.5.5.5.5 1 .5 1 .5.5 2 .5 2 1-1.5 1-1.5-1-1-1-1 1-1.5 1-1.5.5-1.5.5-1.5.5-1 .5-1 .5-.5.5-.5 1-1 1-1 .5-2 .5-2-12 8-12 8-2 3.5-2 3.5-8.5 12-8.5 12-10 12.5-10 12.5-12 5-12 5-11.5 11.5-11.5 11.5-7 16.5-7 16.5-4.5 18.5-4.5 18.5-2.5 23-2.5 23 2-16.5 2-16.5 4.5-16.5 4.5-16.5 6.5-12 6.5-12 4.5-3.5 4.5-3.5 4.5-8 4.5-8 14-3 14-3 8-2.5 8-2.5 7-3.5 7-3.5 11.5 4 11.5 4v-13-13l3.5 8 3.5 8 7.5 13.5 7.5 13.5 5.5 11 5.5 11 24 18 24 18-.5 1-.5 1-1 1.5-1 1.5-1.5.5-1.5.5-.5 1.5-.5 1.5-1 1.5-1 1.5 1.5-.5 1.5-.5.5-1 .5-1h1 1l.5-1.5.5-1.5 1-.5 1-.5v-1-1l1 1 1 1 1-1 1-1" style="fill:#242a21;stroke:#242a21" />
        <g style="fill:#503f29;stroke:#503f29">
            <path d="m275 398l1-1-1.5-.5-1.5-.5-.5.5-.5.5-1-.5-1-.5-.5-.5-.5-.5-.5-.5-.5-.5-.5-.5-.5-.5v-1.5-1.5l.5-.5.5-.5.5-.5.5-.5.5-.5.5-.5.5.5.5.5 1 .5 1 .5.5.5.5.5h1 1l-.5-1-.5-1-.5-.5-.5-.5-1-1-1-1h-.5-.5-1-1l-1.5-.5-1.5-.5-.5 1-.5 1v1 1 2 2h-.5-.5l-.5-.5-.5-.5.5-1.5.5-1.5-1 .5-1 .5v-1.5-1.5l-15-4-15-4-2-.5-2-.5-1.5.5-1.5.5v-1.5-1.5l-.5-1.5-.5-1.5-1 1.5-1 1.5-1.5-.5-1.5-.5h-2.5-2.5l-1 1-1 1-1 1-1 1-.5 1.5-.5 1.5 5.5 19.5 5.5 19.5 14-4.5 14-4.5 12-4.5 12-4.5-1-1.5-1-1.5-.5-.5-.5-.5 1.5 1 1.5 1 1.5-.5 1.5-.5v-.5-.5" />
            <path d="m274 363l1-3h-1-1-1.5-1.5l-1-1-1-1-2-.5-2-.5-1.5.5-1.5.5-1 .5-1 .5-.5-1.5-.5-1.5-1.5.5-1.5.5-.5.5-.5.5v1.5 1.5l-1 1-1 1-.5.5-.5.5h-1.5-1.5l-1 1-1 1h2.5 2.5 2 2l2-.5 2-.5 1.5-.5 1.5-.5h2 2 1.5 1.5l-.5-.5-.5-.5.5-1 .5-1 1.5.5 1.5.5 1 .5 1 .5" />
        </g>
        <path d="m273 542l-48-36-5.5-11-5.5-11-7.5-13.5-7.5-13.5-3.5-8-3.5-8v13 13l-11.5-4-11.5-4-7 3.5-7 3.5-8 2.5-8 2.5-14 3-14 3-4.5 8-4.5 8-4.5 3.5-4.5 3.5-6.5 12-6.5 12-4.5 16.5-4.5 16.5-2 16.5-2 16.5 1 1.5 1 1.5 17.5 2.5 17.5 2.5 14 11 14 11 17.5.5 17.5.5-3.5-9.5-3.5-9.5-14.5-2.5-14.5-2.5 21-14 21-14 27.5-3 27.5-3 18-4.5 18-4.5 1-1.5 1-1.5.5-1.5.5-1.5 1.5-.5 1.5-.5 1-1.5 1-1.5.5-1 .5-1" style="fill:#1c1f14;stroke:#1c1f14" />
        <path d="m273 19l-15 5 7 1.5 7 1.5.5-4 .5-4" style="fill:#626e60;stroke:#626e60" />
        <path d="m270 497h1v-1.5-1.5l-1.5-.5-1.5-.5h-1.5-1.5l-1.5.5-1.5.5-.5-1-.5-1 1.5-.5 1.5-.5-.5-1.5-.5-1.5-2-1-2-1-1 1-1 1-1 1.5-1 1.5-1 1-1 1-1 1.5-1 1.5-.5 1.5-.5 1.5 1 1.5 1 1.5.5 1 .5 1v-1-1h1 1l1-.5 1-.5.5-.5.5-.5h1 1l1-.5 1-.5h1 1l.5-.5.5-.5.5-.5.5-.5.5-.5.5-.5.5-1 .5-1 .5.5.5.5.5 1 .5 1" style="fill:#24333d;stroke:#24333d" />
        <path d="m268 341l1-3-1-1-1-1-1.5-1-1.5-1h-2-2-1.5-1.5-2-2-2.5-2.5l-1.5-.5-1.5-.5-1 .5-1 .5-1 1-1 1 1.5.5 1.5.5 1 .5 1 .5 1.5.5 1.5.5.5.5.5.5-1 .5-1 .5-.5-.5-.5-.5-1 .5-1 .5-.5 1.5-.5 1.5-1.5.5-1.5.5-.5.5-.5.5-1 .5-1 .5-1.5-.5-1.5-.5-.5-.5-.5-.5-1-.5-1-.5h-1.5-1.5l2.5 12.5 2.5 12.5 6-1.5 6-1.5 1-1 1-1h1.5 1.5l.5-.5.5-.5 1-1 1-1v-1.5-1.5l.5-.5.5-.5 1.5-.5 1.5-.5 1-.5 1-.5 1.5-.5 1.5-.5 2 .5 2 .5.5-1.5.5-1.5-1-1.5-1-1.5v-1-1l.5-2 .5-2 .5-1 .5-1" style="fill:#5c4b30;stroke:#5c4b30" />
        <path d="m266 375l-34 3 15 4 15 4v-2-2l-1.5.5-1.5.5 1-1.5 1-1.5v-2-2l1.5-1 1.5-1 1 .5 1 .5" style="fill:#363529;stroke:#363529" />
        <path d="m265 638l-1-2-1-1.5-1-1.5v-.5-.5l-5-10-5-10-4-5.5-4-5.5.5-2 .5-2 1.5-1 1.5-1-.5-1-.5-1-1 .5-1 .5-5.5 10-5.5 10v1.5 1.5l-.5.5-.5.5-.5 1.5-.5 1.5v1 1 2.5 2.5l-1 1-1 1-1 .5-1 .5v1 1l.5 2 .5 2 1.5.5 1.5.5h2.5 2.5l1 5 1 5h1.5 1.5v1 1l.5.5.5.5-.5 1.5-.5 1.5v1.5 1.5 1.5 1.5l-.5.5-.5.5-1 .5-1 .5-1 1-1 1-.5-.5-.5-.5-.5-.5-.5-.5-.5-.5-.5-.5.5-1 .5-1 .5-1.5.5-1.5v-1.5-1.5l14.5-7.5 14.5-7.5" style="fill:#242a21;stroke:#242a21" />
        <path d="m259 581l1-4-24.5 7.5-24.5 7.5 24-5.5 24-5.5" style="fill:#4c3916;stroke:#4c3916" />
        <path d="m254 328l-34-18 1 1 1 1 1.5.5 1.5.5.5 2 .5 2 .5 1.5.5 1.5-.5 2-.5 2 .5 1.5.5 1.5 1.5.5 1.5.5v1.5 1.5 1 1l1.5-1 1.5-1h1 1l1.5-.5 1.5-.5 1-.5 1-.5.5-.5.5-.5h2 2l1 .5 1 .5h1 1 1.5 1.5l1-.5 1-.5" style="fill:#363529;stroke:#363529" />
        <path d="m250 340l-1-1-1.5-.5-1.5-.5-1-.5-1-.5-1.5-.5-1.5-.5 1-1 1-1h-1.5-1.5l-2 .5-2 .5h-1-1l-.5 1.5-.5 1.5-1 1.5-1 1.5-1 1-1 1v.5.5h1.5 1.5l1 .5 1 .5.5.5.5.5 1.5.5 1.5.5 1-.5 1-.5.5-.5.5-.5 1.5-.5 1.5-.5.5-1.5.5-1.5 1-.5 1-.5.5.5.5.5 1-.5 1-.5" style="fill:#525a4e;stroke:#525a4e" />
        <path d="m245 400l-28-14 10.5 10 10.5 10 3.5-3 3.5-3" style="fill:#5c4b30;stroke:#5c4b30" />
        <path d="m243 471l-21-15-.5 5-.5 5 10 2.5 10 2.5h1 1" style="fill:#242a21;stroke:#242a21" />
        <path d="m242 654l1-3-.5-.5-.5-.5v-1-1h-1.5-1.5l-1 .5-1 .5-.5 2-.5 2v1.5 1.5l-.5 1.5-.5 1.5-.5 1-.5 1 .5.5.5.5.5.5.5.5.5.5.5.5 1-1 1-1 1-.5 1-.5.5-.5.5-.5v-1.5-1.5-1.5-1.5" style="fill:#1c1f14;stroke:#1c1f14" />
        <path d="m242 515l-3-33-3 12.5-3 12.5 4.5 4 4.5 4" style="fill:#525a4e;stroke:#525a4e" />
        <path d="m238 643l1-3-1-1-1-1h-2.5-2.5l-1.5-.5-1.5-.5-1 1.5-1 1.5-.5 1.5-.5 1.5.5 1 .5 1h1 1l1.5.5 1.5.5h2 2l1-1.5 1-1.5" style="fill:#24333d;stroke:#24333d" />
        <path d="m237 242l-33-11-18.5 2-18.5 2 1 1 1 1 30 2 30 2-22.5 3-22.5 3 .5 1 .5 1 26-3.5 26-3.5" style="fill:#71806d;stroke:#71806d" />
        <path d="m237 231l-19-17-10.5-3-10.5-3-3 10.5-3 10.5 19.5 1 19.5 1h3.5 3.5" style="fill:#525a4e;stroke:#525a4e" />
        <path d="m235 609v-2l-1.5-.5-1.5-.5h-1.5-1.5l-.5-.5-.5-.5h-2-2l-1-.5-1-.5h-1-1-2-2l-1-.5-1-.5h-1-1l-1.5-.5-1.5-.5h-2-2-1.5-1.5l-1-.5-1-.5-1 .5-1 .5 1 .5 1 .5h1 1 1.5 1.5l1.5.5 1.5.5h1 1 1 1 1 1l1 .5 1 .5h1 1l.5.5.5.5h1 1 1.5 1.5l1.5.5 1.5.5h1 1l1 .5 1 .5 2 1 2 1v-.5-.5" style="fill:#404740;stroke:#404740" />
        <path d="m234 611l1-1-2-1-2-1-1-.5-1-.5h-1-1l-1.5-.5-1.5-.5h-1.5-1.5-1-1l-.5-.5-.5-.5h-1-1l-1-.5-1-.5h-1-1-1-1-1-1l-1.5-.5-1.5-.5h-1.5-1.5-1-1l-1-.5-1-.5h-1-1l2 2.5 2 2.5-4 6-4 6-7 5.5-7 5.5 25.5-6 25.5-6 1.5-2.5 1.5-2.5 1-1 1-1" style="fill:#525a4e;stroke:#525a4e" />
        <path d="m233 614h1v-1.5-1.5l-1 1-1 1-.5.5-.5.5-.5 1-.5 1-.5 1-.5 1-25.5 6-25.5 6 7-5.5 7-5.5 4-6 4-6-2-2.5-2-2.5-1-.5-1-.5h-2-2l-2-.5-2-.5h-2-2-2-2l-1 .5-1 .5 13 7 13 7-18 5.5-18 5.5v1 1l-.5 1-.5 1-1 1-1 1h-2.5-2.5l-2.5.5-2.5.5v1.5 1.5l.5 1 .5 1v2 2l-.5 2-.5 2 1 1 1 1-.5 1.5-.5 1.5-2.5.5-2.5.5-1.5.5-1.5.5h-2.5-2.5-2-2-1.5-1.5l-1.5-.5-1.5-.5h-2.5-2.5l-1.5-.5-1.5-.5h-2.5-2.5l20-.5 20-.5 8.5 2.5 8.5 2.5 16-12.5 16-12.5 13-8 13-8" style="fill:#404740;stroke:#404740" />
        <path d="m231 614l1-1-1.5 2.5-1.5 2.5.5-1 .5-1 .5-1 .5-1" style="fill:#626e60;stroke:#626e60" />
        <path d="m230 331v-3l-1.5-.5-1.5-.5-.5-1.5-.5-1.5.5-2 .5-2-.5-1.5-.5-1.5-.5-2-.5-2-1.5-.5-1.5-.5-1-1-1-1-18.5 5-18.5 5v12 12l-5 17-5 17-6 14.5-6 14.5 1 .5 1 .5.5-.5.5-.5h1 1l.5.5.5.5v1 1l-.5 1-.5 1-1.5 1-1.5 1-.5 1-.5 1 8.5-12 8.5-12 2-3.5 2-3.5 12-8 12-8 .5-1 .5-1 .5-.5.5-.5h1 1l.5-.5.5-.5 1.5.5 1.5.5 1.5-1 1.5-1 6-15.5 6-15.5v-1-1" style="fill:#24333d;stroke:#24333d" />
        <path d="m229 241l-60-4 1.5.5 1.5.5h1.5 1.5l.5.5.5.5.5.5.5.5.5.5.5.5.5.5.5.5 1 .5 1 .5.5.5.5.5.5.5.5.5.5 1 .5 1 22.5-3 22.5-3" style="fill:#819385;stroke:#819385" />
        <path d="m224 638l-30 8-9.5 4.5-9.5 4.5-8.5-2.5-8.5-2.5-20 .5-20 .5h-.5-.5l-2-.5-2-.5h-1-1-1.5-1.5l-1.5-.5-1.5-.5 20 3 20 3 19.5 9 19.5 9-19 2.5-19 2.5-17.5-4.5-17.5-4.5-16-7.5-16-7.5-15.5-7.5-15.5-7.5-12.5-12-12.5-12 23.5 18.5 23.5 18.5 16.5 8 16.5 8 15.5 7 15.5 7 21-2.5 21-2.5 20-3 20-3 4-16.5 4-16.5" style="fill:#525a4e;stroke:#525a4e" />
        <path d="m219 696l-45-12-11 9.5-11 9.5 1.5.5 1.5.5h1 1 1 1 1.5 1.5l1.5-.5 1.5-.5.5.5.5.5h1 1l.5-.5.5-.5.5-1 .5-1 .5.5.5.5h1 1l.5.5.5.5 1 .5 1 .5.5-.5.5-.5h1 1l.5-.5.5-.5 1 .5 1 .5 2-.5 2-.5 16.5-3 16.5-3" style="fill:#1c1f14;stroke:#1c1f14" />
        <g style="fill:#363529;stroke:#363529">
            <path d="m218 705l1-1-.5-1-.5-1-16 .5-16 .5-.5.5-.5.5-23 1-23 1 .5 1.5.5 1.5v1 1 .5.5h1.5 1.5l37.5-3.5 37.5-3.5" />
            <path d="m202 615l-26-14-12-12.5-12-12.5 8.5 11 8.5 11 14 7 14 7-1 .5-1 .5h-1.5-1.5l-1.5-.5-1.5-.5h-2.5-2.5-2-2l-1.5.5-1.5.5-.5.5-.5.5h-1.5-1.5l-1 1-1 1v1 1 1.5 1.5l-1 1-1 1-1.5 1.5-1.5 1.5 18-5.5 18-5.5" />
        </g>
        <g style="fill:#24333d;stroke:#24333d">
            <path d="m201 419h1v-1.5-1.5l-.5-2-.5-2v-1-1-2.5-2.5-2-2-2-2l-1-1.5-1-1.5-1 1-1 1v1 1l1 1.5 1 1.5v2 2 1.5 1.5l-.5 1.5-.5 1.5 1 1.5 1 1.5.5 2.5.5 2.5" />
            <path d="m198 391h1v-1-1l-.5-2-.5-2-1-.5-1-.5-.5-.5-.5-.5-.5-1.5-.5-1.5-1 .5-1 .5v1 1l.5 1.5.5 1.5-1 .5-1 .5-.5.5-.5.5.5.5.5.5v1 1h1 1l1-.5 1-.5.5-.5.5-.5 1 1 1 1" />
        </g>
        <path d="m197 612l-28-14-8.5-11-8.5-11 .5-1.5.5-1.5 1-.5 1-.5.5-.5.5-.5.5-.5.5-.5h1 1 1.5 1.5l.5-.5.5-.5h1 1 1 1 1.5 1.5 1.5 1.5l-21 14-21 14 14.5 2.5 14.5 2.5 3.5 9.5 3.5 9.5-17.5-.5-17.5-.5 17 3 17 3 1.5-1.5 1.5-1.5 1-1 1-1v-1.5-1.5-1-1l1-1 1-1h1.5 1.5l.5-.5.5-.5 1.5-.5 1.5-.5h2 2 2.5 2.5l1.5.5 1.5.5h1.5 1.5l1-.5 1-.5" style="fill:#242a21;stroke:#242a21" />
        <path d="m190 274v-3-1.5-1.5l.5-.5.5-.5v-2-2l-.5-1-.5-1v-1-1-1-1-.5-.5l-.5-.5-.5-.5h-1.5-1.5l.5 1 .5 1-.5 1-.5 1v1.5 1.5l-1 18.5-1 18.5-13.5 1-13.5 1 10.5 14.5 10.5 14.5v-1.5-1.5l.5-2 .5-2 .5-1.5.5-1.5v-2.5-2.5l-.5-1.5-.5-1.5 1.5-.5 1.5-.5 1.5-1 1.5-1 .5-1.5.5-1.5v-1.5-1.5l1-1 1-1 .5-1 .5-1-1.5-.5-1.5-.5.5-1.5.5-1.5.5-2 .5-2-.5-1.5-.5-1.5.5-2 .5-2 .5-1.5.5-1.5.5-2 .5-2v-1.5-1.5" style="fill:#404f5d;stroke:#404f5d" />
        <path d="m186 262v-3l.5-1 .5-1-.5-1-.5-1v-1-1l-.5-2-.5-2-.5-1-.5-1-.5-1-.5-1-.5-.5-.5-.5-.5-.5-.5-.5-1-.5-1-.5-.5-.5-.5-.5-.5-.5-.5-.5-.5-.5-.5-.5-.5-.5-.5-.5h-1.5-1.5l-1.5-.5-1.5-.5-1-1-1-1-4.5 12.5-4.5 12.5-.5 20.5-.5 20.5 13.5-1 13.5-1 1-18.5 1-18.5" style="fill:#5e7181;stroke:#5e7181" />
        <path d="m185 704l1-1v-.5-.5l-2 .5-2 .5-1-.5-1-.5-.5.5-.5.5h-1-1l-.5.5-.5.5-1-.5-1-.5-.5-.5-.5-.5h-1-1l-.5-.5-.5-.5-.5 1-.5 1-.5.5-.5.5h-1-1l-.5-.5-.5-.5-1.5.5-1.5.5h-1.5-1.5-1-1-1-1l-1.5-.5-1.5-.5-.5 1-.5 1-1-1-1-1v-1.5-1.5l-1.5.5-1.5.5-1 1.5-1 1.5-1.5.5-1.5.5-1.5-.5-1.5-.5.5 1 .5 1 23-1 23-1" style="fill:#2e2411;stroke:#2e2411" />
        <path d="m184 673l-39-18-20-3-20-3h-.5-.5l-1-1-1-1-1.5-.5-1.5-.5-2-.5-2-.5-1.5-.5-1.5-.5-1.5-.5-1.5-.5-1.5-1-1.5-1-1-1-1-1-1-1.5-1-1.5v-2-2-2.5-2.5l10.5 11.5 10.5 11.5 19.5 3.5 19.5 3.5 10 8.5 10 8.5-19.5-.5-19.5-.5-16-8-16-8-15.5-7.5-15.5-7.5-16-8-16-8 10.5-7.5 10.5-7.5 19 5 19 5 4.5-4 4.5-4-17-2-17-2-19.5 3-19.5 3 12.5 12 12.5 12 15.5 7.5 15.5 7.5 16 7.5 16 7.5 17.5 4.5 17.5 4.5 19-2.5 19-2.5" style="fill:#626e60;stroke:#626e60" />
        <path d="m180 334l1-3-1.5-.5-1.5-.5-10.5-14.5-10.5-14.5-7.5-11-7.5-11-5-6.5-5-6.5-7-5.5-7-5.5-1 1.5-1 1.5-4-2-4-2-2-7.5-2-7.5-6.5 5.5-6.5 5.5-5.5 2-5.5 2-12.5-1.5-12.5-1.5-7-3.5-7-3.5-1 6.5-1 6.5-2-4-2-4-3.5-5-3.5-5-6.5 3.5-6.5 3.5-7.5 1-7.5 1v24.5 24.5 24.5 24.5 24.5 24.5 24.5 24.5 14.5 14.5l9-2.5 9-2.5-5.5-3.5-5.5-3.5 11 7.5 11 7.5.5-8.5.5-8.5 9 3 9 3-3.5 9-3.5 9 1.5 1 1.5 1 1 1 1 1 1.5-1 1.5-1v-1-1l-.5-1.5-.5-1.5 2-.5 2-.5h1 1l1-1 1-1 1-.5 1-.5 4-9.5 4-9.5 1 4.5 1 4.5 10.5-3.5 10.5-3.5 7-11.5 7-11.5 7.5 2 7.5 2 9.5-9 9.5-9-1-2.5-1-2.5 10.5-8.5 10.5-8.5 6.5-17 6.5-17 5.5-16 5.5-16" style="fill:#525a4e;stroke:#525a4e" />
        <g style="fill:#363529;stroke:#363529">
            <path d="m167 410v-2l-.5-.5-.5-.5h-1-1l-.5.5-.5.5-1-.5-1-.5-15 17.5-15 17.5-13 10.5-13 10.5-10 14.5-10 14.5-6 18.5-6 18.5-4 15.5-4 15.5-3.5 12.5-3.5 12.5 8 9 8 9-1-1-1-1-.5-1.5-.5-1.5-.5-.5-.5-.5v-1-1l-.5-1-.5-1-1-1.5-1-1.5 2.5-23 2.5-23 4.5-18.5 4.5-18.5 7-16.5 7-16.5 11.5-11.5 11.5-11.5 12-5 12-5 10-12.5 10-12.5.5-1 .5-1 1.5-1 1.5-1 .5-1 .5-1" />
            <path d="m166 628v-2l-17-3-17-3-.5.5-.5.5-17-9.5-17-9.5-3.5 10-3.5 10-1.5-.5-1.5-.5-1.5 1-1.5 1-1 2-1 2h.5.5l.5 1 .5 1v2 2l1 1.5 1 1.5 1 1 1 1 12-5.5 12-5.5 16-.5 16-.5 4.5 3.5 4.5 3.5 2.5-.5 2.5-.5h2.5 2.5l1-1 1-1 .5-1 .5-1" />
        </g>
        <path d="m162 674l-20-17-19.5-3.5-19.5-3.5-10.5-11.5-10.5-11.5 1-2 1-2 1.5-1 1.5-1-19-5-19-5-10.5 7.5-10.5 7.5 16 8 16 8 15.5 7.5 15.5 7.5 16 8 16 8 19.5.5 19.5.5" style="fill:#71806d;stroke:#71806d" />
        <path d="m154 651l1-3-1-1-1-1 .5-2 .5-2v-2-2l-.5-1-.5-1v-1.5-1.5l-4.5-3.5-4.5-3.5-16 .5-16 .5-12 5.5-12 5.5 1.5.5 1.5.5 1 1 1 1 1.5.5 1.5.5 2 .5 2 .5 1 1 1 1 1.5 1 1.5 1 1.5.5 1.5.5 2 .5 2 .5 1.5.5 1.5.5 1.5.5 1.5.5h2.5 2.5l1.5.5 1.5.5h2.5 2.5l1.5.5 1.5.5h1.5 1.5 2 2 2.5 2.5l1.5-.5 1.5-.5 2.5-.5 2.5-.5" style="fill:#242a21;stroke:#242a21" />
        <path d="m150 649l-19-15-11-.5-11-.5-8 1.5-8 1.5 11.5 6 11.5 6 17 .5 17 .5" style="fill:#1c1f14;stroke:#1c1f14" />
        <path d="m142 262v-2l-1.5-.5-1.5-.5-2 .5-2 .5v2 2l-.5 2-.5 2v1 1l2-.5 2-.5 1.5-.5 1.5-.5-.5-1.5-.5-1.5 1-1.5 1-1.5" style="fill:#525a4e;stroke:#525a4e" />
        <path d="m140 711v-2l-.5-1.5-.5-1.5-26.5-12.5-26.5-12.5-.5 1-.5 1h-2-2l-1.5-1-1.5-1-1-1-1-1-1.5.5-1.5.5h-1.5-1.5l-.5-1.5-.5-1.5-1.5-2-1.5-2-2.5-1-2.5-1-1-.5-1-.5-1-.5-1-.5h-.5-.5l-15-12-15-12v-1.5-1.5l-.5-1-.5-1-.5.5-.5.5-.5.5-.5.5-1-.5-1-.5h-1-1-1-1l-.5.5-.5.5-.5-.5-.5-.5h-2-2l-1.5 10-1.5 10 13 9.5 13 9.5 13 6.5 13 6.5 27.5 9.5 27.5 9.5h2 2 2 2 2.5 2.5 2 2 2 2 2 2v-.5-.5" style="fill:#503f29;stroke:#503f29" />
        <path d="m138 625v-2l-1-1-1-1-2 .5-2 .5h-2-2l-1.5 1-1.5 1v1 1l1.5 1 1.5 1 1.5.5 1.5.5h1 1l2-.5 2-.5.5-1.5.5-1.5" style="fill:#404740;stroke:#404740" />
        <path d="m131 621l1-1-14-11-14-11-17.5-2.5-17.5-2.5.5 1 .5 1v1 1l.5.5.5.5.5 1.5.5 1.5 1 1 1 1h2 2l1.5-.5 1.5-.5h2.5 2.5 2 2 2 2 1.5 1.5l17 9.5 17 9.5" style="fill:#242a21;stroke:#242a21" />
        <path d="m117 651h1l-1.5-.5-1.5-.5-1.5-.5-1.5-.5-2-.5-2-.5-1.5-.5-1.5-.5-1.5-1-1.5-1-1-1-1-1-2-.5-2-.5-1.5-.5-1.5-.5-1-1-1-1-1.5-.5-1.5-.5-1-1-1-1-1-1.5-1-1.5v-2-2l-.5-1-.5-1v1.5 1.5 1.5 1.5 1 1l.5 1 .5 1 1 1 1 1 1 1 1 1 .5.5.5.5 1-.5 1-.5 1.5.5 1.5.5.5.5.5.5 1 .5 1 .5 1.5.5 1.5.5.5.5.5.5 1 .5 1 .5 1 1 1 1 1.5.5 1.5.5h1.5 1.5 1 1l2 .5 2 .5" style="fill:#404740;stroke:#404740" />
        <path d="m116 483v-2l-1.5.5-1.5.5-2 .5-2 .5-1.5-.5-1.5-.5-1.5 1-1.5 1 1.5.5 1.5.5h1.5 1.5l1 1 1 1h1 1l1.5-1 1.5-1v-1-1" style="fill:#242a21;stroke:#242a21" />
        <path d="m114 712h1l-27.5-9.5-27.5-9.5-13-6.5-13-6.5-13-9.5-13-9.5 1.5-10 1.5-10v-1.5-1.5h-2-2l-.5 1-.5 1-.5.5-.5.5-1.5.5-1.5.5-1-.5-1-.5v24.5 24.5 11 11h13.5 13.5 6.5 6.5l7-4 7-4 15 3.5 15 3.5v.5.5h3 3 2.5 2.5 2 2 2 2 2.5 2.5 2 2 1 1" style="fill:#363529;stroke:#363529" />
        <path d="m109 616l-51-11-17.5 5-17.5 5 19.5-3 19.5-3 17 2 17 2-4.5 4-4.5 4 1.5.5 1.5.5 2-1 2-1 1.5.5 1.5.5h2.5 2.5l1-1 1-1 1.5-1 1.5-1 1-.5 1-.5" style="fill:#525a4e;stroke:#525a4e" />
        <path d="m105 301l-19-5 8.5 3 8.5 3 1-.5 1-.5" style="fill:#626e60;stroke:#626e60" />
        <path d="m104 649h1l-1-1-1-1-1-.5-1-.5-.5-.5-.5-.5-1.5-.5-1.5-.5-1-.5-1-.5-.5-.5-.5-.5-1.5-.5-1.5-.5-1 .5-1 .5-.5-.5-.5-.5-1-1-1-1-1-1-1-1-.5-1-.5-1v-1-1-1.5-1.5-1.5-1.5h-.5-.5v2.5 2.5 2 2l1 1.5 1 1.5 1 1 1 1 1.5 1 1.5 1 1.5.5 1.5.5 1.5.5 1.5.5 2 .5 2 .5 1.5.5 1.5.5 1 1 1 1" style="fill:#525a4e;stroke:#525a4e" />
        <path d="m104 64l-24-4 10 2.5 10 2.5 2-.5 2-.5" style="fill:#71806d;stroke:#71806d" />
        <path d="m101 276l-16-18-6.5 9-6.5 9-9.5-2-9.5-2-4.5 4-4.5 4 3.5 2 3.5 2 6.5 1.5 6.5 1.5 8.5-2 8.5-2 5.5-8 5.5-8 4.5 4.5 4.5 4.5" style="fill:#626e60;stroke:#626e60" />
        <path d="m88 700l-21-15-12.5-10-12.5-10-11-8.5-11-8.5-1.5 6-1.5 6 14 10.5 14 10.5 15 6 15 6 6.5 3.5 6.5 3.5" style="fill:#5c4b30;stroke:#5c4b30" />
        <path d="m85 683l1-2-2-.5-2-.5h-1.5-1.5l-1-1-1-1-2-.5-2-.5-1.5-.5-1.5-.5-.5-1.5-.5-1.5h-1.5-1.5l1.5 2 1.5 2 .5 1.5.5 1.5h1.5 1.5l1.5-.5 1.5-.5 1 1 1 1 1.5 1 1.5 1h2 2" style="fill:#4c3916;stroke:#4c3916" />
        <path d="m85 14v-2l-1.5.5-1.5.5-2 .5-2 .5v2 2l-1 1.5-1 1.5.5 1.5.5 1.5 2-.5 2-.5.5-1.5.5-1.5.5-1.5.5-1.5 1-1.5 1-1.5" style="fill:#626e60;stroke:#626e60" />
        <path d="m84 711l-30-7 1.5 1.5 1.5 1.5.5 1.5.5 1.5.5.5.5.5-.5.5-.5.5h1.5 1.5 2.5 2.5 2 2 2.5 2.5 2 2 2 2 .5.5v-.5-.5" style="fill:#2e2411;stroke:#2e2411" />
        <path d="m72 638l-20-10-6.5-5-6.5-5 4 8.5 4 8.5 12.5 1.5 12.5 1.5" style="fill:#819385;stroke:#819385" />
        <path d="m62 666l-25-15 11 6.5 11 6.5 1.5 1 1.5 1" style="fill:#242a21;stroke:#242a21" />
        <path d="m62 486v-2-1-1l-.5-.5-.5-.5.5-1 .5-1v-1-1h-1-1l-1-.5-1-.5.5 1.5.5 1.5-1 1-1 1h-1.5-1.5-1-1l-.5 1.5-.5 1.5 1.5.5 1.5.5 1 .5 1 .5h1 1l.5 1.5.5 1.5h1.5 1.5v-1.5-1.5" style="fill:#525a4e;stroke:#525a4e" />
        <path d="m59 711l-1-1-.5-1.5-.5-1.5-1.5-1.5-1.5-1.5-7 4-7 4h1 1l1-2 1-2 1.5-1 1.5-1 1.5.5 1.5.5 2 .5 2 .5v1 1l-.5 1-.5 1h2.5 2.5l.5-.5.5-.5" style="fill:#242a21;stroke:#242a21" />
        <path d="m56 669h1l-15.5-12-15.5-12 15 12 15 12" style="fill:#4c3916;stroke:#4c3916" />
        <path d="m54 710v-2l-2-.5-2-.5-1.5-.5-1.5-.5-1.5 1-1.5 1-1 2-1 2h3.5 3.5 2 2l.5-1 .5-1" style="fill:#1c1f14;stroke:#1c1f14" />
        <path d="m48 465l-18-6-.5 8.5-.5 8.5-11-7.5-11-7.5 5.5 3.5 5.5 3.5-9 2.5-9 2.5v2 2 2.5 2.5l9.5 2 9.5 2 11-1.5 11-1.5 3.5-9 3.5-9" style="fill:#404740;stroke:#404740" />
        <path d="m45 498l1-3-.5-1.5-.5-1.5-1.5-1-1.5-1-.5-1.5-.5-1.5v-2-2l-11 1.5-11 1.5-9.5-2-9.5-2v1 1l14.5 4.5 14.5 4.5 8 2.5 8 2.5" style="fill:#525a4e;stroke:#525a4e" />
        <path d="m40 7l-14 4 6.5-1 6.5-1 .5-1 .5-1" style="fill:#626e60;stroke:#626e60" />
    </g>
</svg>
