<svg xmlns="http://www.w3.org/2000/svg" viewBox="0 0 712 960"><path d="m0 0h712v960h-712z" style="fill:#fafff3"/><g style="stroke-linejoin:round;stroke-width:.7"><path d="m0 959v1h15 15 15.5 15.5 15.5 15.5 15.5 15.5 1 1v-.5-.5l13-2 13-2 12.5-2 12.5-2 13-1.5 13-1.5 12.5-1 12.5-1 12.5-1.5 12.5-1.5 13-1.5 13-1.5 11.5-2 11.5-2 12.5-2 12.5-2 12 .5 12 .5 11.5 2 11.5 2 10 4.5 10 4.5 5-11 5-11 .5-1 .5-1 .5-1 .5-1 1-1.5 1-1.5v-1-1l.5-2 .5-2 .5-1.5.5-1.5v-2.5-2.5h-2-2l-2 1-2 1v1.5 1.5l-1 1-1 1h-1.5-1.5l-1.5.5-1.5.5h-1-1v-1.5-1.5l.5-1.5.5-1.5 1-.5 1-.5.5-6 .5-6 1.5-7.5 1.5-7.5-6.5-.5-6.5-.5-3 6-3 6-4-4-4-4-1-5.5-1-5.5 6-2 6-2 4-9 4-9 7.5-1 7.5-1 7 1.5 7 1.5 4-3.5 4-3.5 5-6.5 5-6.5 6 2.5 6 2.5 2.5-20 2.5-20 .5-1 .5-1 .5-1.5.5-1.5v-.5-.5l-1.5-13-1.5-13 .5-11.5.5-11.5 3-11 3-11 4.5-9.5 4.5-9.5 4-10.5 4-10.5 4.5-10 4.5-10 4-6.5 4-6.5 4-8.5 4-8.5 2.5-9 2.5-9 3-11 3-11 1-13 1-13 .5-9.5.5-9.5-2.5-11-2.5-11-5-9.5-5-9.5-7-7.5-7-7.5-6-8-6-8-6-9-6-9-10-3-10-3-5-3-5-3-4 10-4 10-1.5 10-1.5 10-6.5 8-6.5 8-5.5 9-5.5 9-6 8-6 8-6 9-6 9-5.5 8.5-5.5 8.5-7.5-3-7.5-3-6.5 8-6.5 8-7.5 7-7.5 7-7.5 3.5-7.5 3.5 3-7 3-7v-10-10l-.5-14.5-.5-14.5-5.5-1.5-5.5-1.5-7 7.5-7 7.5-8.5 6-8.5 6-7.5-5-7.5-5-7 6-7 6-10 5-10 5-7 5-7 5-.5 10.5-.5 10.5 1.5 11.5 1.5 11.5 1 1 1 1 1 1 1 1 1.5 1 1.5 1h2 2l2 .5 2 .5 1.5.5 1.5.5 2 .5 2 .5 1.5.5 1.5.5h2 2l.5 1 .5 1-3.5 10-3.5 10-5 10.5-5 10.5-5.5 10-5.5 10-5 11-5 11-4.5 11-4.5 11-3.5 13-3.5 13 5-10.5 5-10.5 5-10.5 5-10.5 5.5-10 5.5-10 5.5-10 5.5-10 5-11 5-11 13-13.5 13-13.5 1.5 12 1.5 12 2 6.5 2 6.5-2.5 14.5-2.5 14.5-5.5 10-5.5 10-6 8-6 8-12.5 10-12.5 10-2 5-2 5-10 4.5-10 4.5-7.5 5-7.5 5-10 4.5-10 4.5-5.5 5-5.5 5h-9.5-9.5l-4 4.5-4 4.5-4 7-4 7-6.5 4.5-6.5 4.5-9 4.5-9 4.5-8 4.5-8 4.5-6.5 4-6.5 4-9 3-9 3-15.5 7.5-15.5 7.5v3.5 3.5 2 2 2.5 2.5 2 2 2.5 2.5 2 2 2 2 2.5 2.5 2 2 2.5 2.5l7.5-8 7.5-8 8-6 8-6 9-6 9-6 8.5-5.5 8.5-5.5 9.5-5 9.5-5 9-5 9-5 10.5-4.5 10.5-4.5 10.5-3.5 10.5-3.5 3.5 6.5 3.5 6.5-7 6-7 6-7.5 4-7.5 4-6 4-6 4-8 1-8 1-8 3-8 3-7 6-7 6-8 6-8 6-9 6-9 6-5.5 3.5-5.5 3.5-10 11.5-10 11.5v.5.5" style="fill:#171b12;stroke:#171b12"/><path d="m125 959v1h1.5 1.5 2 2 1.5 1.5v-.5-.5l14-2 14-2 14-1.5 14-1.5 13-.5 13-.5 12-1.5 12-1.5 13.5-2 13.5-2 12.5-1 12.5-1 11-.5 11-.5 11.5 1 11.5 1h13.5 13.5l12 3.5 12 3.5 5.5 5 5.5 5h1.5 1.5 2.5 2.5 2 2 1.5 1.5v-.5-.5l-4-16.5-4-16.5-1 .5-1 .5-1-.5-1-.5v-1-1l-5 11-5 11-10-4.5-10-4.5-11.5-2-11.5-2-12-.5-12-.5-12.5 2-12.5 2-11.5 2-11.5 2-13 1.5-13 1.5-12.5 1.5-12.5 1.5-12.5 1-12.5 1-13 1.5-13 1.5-12.5 2-12.5 2-13 2-13 2" style="fill:#383527;stroke:#383527"/><path d="m135 959v1h1.5 1.5 2 2 2.5 2.5 2 2 2.5 2.5 2 2 2.5 2.5 2 2 2 2 1.5 1.5v-.5-.5l11-2 11-2h11.5 11.5l10.5-2 10.5-2 12-.5 12-.5 13.5-1 13.5-1 14.5-1 14.5-1 14-.5 14-.5 11.5 2 11.5 2 12 3 12 3 1 2.5 1 2.5h.5.5l-5.5-5-5.5-5-12-3.5-12-3.5h-13.5-13.5l-11.5-1-11.5-1-11 .5-11 .5-12.5 1-12.5 1-13.5 2-13.5 2-12 1.5-12 1.5-13 .5-13 .5-14 1.5-14 1.5-14 2-14 2" style="fill:#553c28;stroke:#553c28"/><path d="m176 959v1h15 15 15.5 15.5 15.5 15.5 15.5 15.5 15.5 15.5 15.5 15.5 15.5 15.5 3.5 3.5l-1-2.5-1-2.5-12-3-12-3-11.5-2-11.5-2-14 .5-14 .5-14.5 1-14.5 1-13.5 1-13.5 1-12 .5-12 .5-10.5 2-10.5 2h-11.5-11.5l-11 2-11 2" style="fill:#57543b;stroke:#57543b"/><path d="m415 959v1h1.5 1.5 2 2 2.5 2.5 2 2 2 2v-.5-.5l1-1 1-1 .5-2 .5-2 1-1 1-1 1-1 1-1 2 .5 2 .5 1 1 1 1-2 .5-2 .5-.5 1.5-.5 1.5-1 2-1 2h1.5 1.5 2.5 2.5 2 2 2 2 2.5 2.5 2 2 2.5 2.5 2 2v-.5-.5l.5-1.5.5-1.5-7-6.5-7-6.5 1.5-18 1.5-18 2.5-4.5 2.5-4.5 14 7.5 14 7.5-3 10-3 10 2.5 13.5 2.5 13.5h1 1v-.5-.5l10.5-4 10.5-4 11-4 11-4-3.5 8.5-3.5 8.5h15 15 15.5 15.5 15.5 15.5 7.5 7.5v-.5-.5l3.5-11 3.5-11-4.5-10.5-4.5-10.5h-9.5-9.5l-.5 1-.5 1-.5.5-.5.5-1 1.5-1 1.5-6 5.5-6 5.5-4.5 4-4.5 4-7-14.5-7-14.5-1-1-1-1-.5-1-.5-1-1-1-1-1h-1-1l-1 .5-1 .5-.5-1.5-.5-1.5v-1-1l.5-.5.5-.5h1 1l1-.5 1-.5.5-.5.5-.5.5-.5.5-.5v-1-1l-.5-1-.5-1-9.5 3.5-9.5 3.5 1.5-3 1.5-3 .5-7 .5-7 16.5-5.5 16.5-5.5v-.5-.5l-1.5-1-1.5-1-.5-.5-.5-.5-1-.5-1-.5-1.5-.5-1.5-.5-1-1-1-1h-1-1l-1-.5-1-.5-1.5-.5-1.5-.5-.5-.5-.5-.5h-1.5-1.5l-1.5-.5-1.5-.5h-1-1l-1-.5-1-.5-1.5 1.5-1.5 1.5-.5 1.5-.5 1.5v1 1l-.5.5-.5.5v1 1h-1-1-1.5-1.5l-.5-.5-.5-.5-1-.5-1-.5-1.5-.5-1.5-.5v-1-1l.5-1 .5-1-1.5-.5-1.5-.5h-1.5-1.5l-8-3.5-8-3.5-1.5-5.5-1.5-5.5-21.5-1.5-21.5-1.5v3 3h1.5 1.5v1 1l-1 .5-1 .5h-1-1-1-1l-1.5-1-1.5-1-1.5-.5-1.5-.5h-1.5-1.5l-.5-1.5-.5-1.5v-2.5-2.5-.5-.5l-1 .5-1 .5-.5 1-.5 1-1 1-1 1-.5 1.5-.5 1.5-.5 2-.5 2-.5 2-.5 2v1.5 1.5 2.5 2.5 2 2 2.5 2.5l-.5 1.5-.5 1.5-1.5 1-1.5 1-1.5.5-1.5.5h-1.5-1.5l-4.5 8-4.5 8-.5 4-.5 4-5.5-5.5-5.5-5.5-6.5 8.5-6.5 8.5-6 10.5-6 10.5 4 16.5 4 16.5" style="fill:#171b12;stroke:#171b12"/><g style="fill:#383527;stroke:#383527"><path d="m435 959v1h1.5 1.5 1.5 1.5l1-2 1-2 .5-1.5.5-1.5 2-.5 2-.5-1-1-1-1-2-.5-2-.5-1 1-1 1-1 1-1 1-.5 2-.5 2-1 1-1 1"/><path d="m475 959v1h1.5 1.5 2 2 2.5 2.5 2 2 2.5 2.5.5.5l-2.5-13.5-2.5-13.5-1 1.5-1 1.5-1 1-1 1-.5.5-.5.5-.5.5-.5.5v1 1l-1 .5-1 .5v1 1l-.5.5-.5.5-.5.5-.5.5v1.5 1.5l-.5.5-.5.5v1 1l-.5.5-.5.5 1 .5 1 .5-.5.5-.5.5h-1-1-1.5-1.5l-.5 1.5-.5 1.5"/><path d="m499 959v1h1.5 1.5 2 2 2.5 2.5 2 2 .5.5v-.5-.5h1.5 1.5v-1-1h1.5 1.5l1.5-.5 1.5-.5 1.5-.5 1.5-.5 1.5-1 1.5-1v2 2l-2 .5-2 .5 1 1 1 1h2.5 2.5.5.5l3.5-8.5 3.5-8.5-11 4-11 4-10.5 4-10.5 4"/></g><path d="m516 959v1h1.5 1.5 2 2 2.5 2.5.5.5l-1-1-1-1 2-.5 2-.5v-2-2l-1.5 1-1.5 1-1.5.5-1.5.5-1.5.5-1.5.5h-1.5-1.5v1 1h-1.5-1.5" style="fill:#57543b;stroke:#57543b"/><path d="m642 959v1h1.5 1.5 1 1v-.5-.5l2-14 2-14-6.5-14.5-6.5-14.5v-1.5-1.5l-.5-1.5-.5-1.5-1.5-1-1.5-1-.5-1.5-.5-1.5-1.5-1-1.5-1-1-1-1-1-1.5-.5-1.5-.5-.5-2-.5-2-1-1-1-1-1-1.5-1-1.5-1.5-.5-1.5-.5v1 1l-.5 1.5-.5 1.5h-1-1-1.5-1.5l.5 2 .5 2v1 1l-1.5 1-1.5 1-1 1-1 1-2 .5-2 .5h-1-1l-2 .5-2 .5-1.5.5-1.5.5h-1-1l-1.5-1-1.5-1-1-1.5-1-1.5v-2-2l1.5-1 1.5-1 1.5-.5 1.5-.5 1-1.5 1-1.5h2 2l1-1 1-1 2 .5 2 .5v-1-1h1 1v-.5-.5h-2-2l-.5-.5-.5-.5-1-.5-1-.5-1.5.5-1.5.5v-1-1l-.5-1-.5-1-16.5 5.5-16.5 5.5-.5 7-.5 7-1.5 3-1.5 3 9.5-3.5 9.5-3.5-3.5-2-3.5-2 2.5-4.5 2.5-4.5 5.5 7.5 5.5 7.5 4.5 10 4.5 10-1-1-1-1-.5-.5-.5-.5-1-.5-1-.5-.5-.5-.5-.5-.5.5-.5.5h-1-1-2.5-2.5l7 14.5 7 14.5 4.5-4 4.5-4 6-5.5 6-5.5-1 1-1 1-.5.5-.5.5-.5.5-.5.5h-1-1l-4.5-9-4.5-9 9.5 4 9.5 4h9.5 9.5l4.5 10.5 4.5 10.5-3.5 11-3.5 11" style="fill:#383527;stroke:#383527"/><path d="m647 959v1h1.5 1.5v-.5-.5l1-13 1-13-7-15.5-7-15.5 6.5 14.5 6.5 14.5-2 14-2 14" style="fill:#553c28;stroke:#553c28"/><path d="m650 959v1h1.5 1.5 2 2 2.5 2.5v-.5-.5l-.5-11-.5-11-3-10-3-10-4-10-4-10-6-6.5-6-6.5-6-9.5-6-9.5-6-5.5-6-5.5-5-9-5-9-5.5-8.5-5.5-8.5-5.5-11.5-5.5-11.5h-2-2l-3.5-8-3.5-8 2-11 2-11-1-1-1-1v-1-1l1-1.5 1-1.5-.5-1-.5-1v-.5-.5-1.5-1.5l-.5-.5-.5-.5-.5-1-.5-1 .5-1.5.5-1.5.5-.5.5-.5-.5-1-.5-1 .5-1.5.5-1.5.5-.5.5-.5.5-1 .5-1 2-5.5 2-5.5 3.5-3.5 3.5-3.5 3-5.5 3-5.5-3.5-7-3.5-7-2-10.5-2-10.5v-9.5-9.5l-4.5-7-4.5-7-1.5-7-1.5-7-1.5-10-1.5-10-2.5-9.5-2.5-9.5-2.5-10-2.5-10-3.5-11-3.5-11-.5-10-.5-10-3-10.5-3-10.5-2-10.5-2-10.5-1.5-7-1.5-7-2-10-2-10-2.5-10-2.5-10-1.5-9-1.5-9-2-4.5-2-4.5-3.5-9-3.5-9-4.5-10-4.5-10-1.5-.5-1.5-.5-17.5-5.5-17.5-5.5-1-1-1-1-1-.5-1-.5v-1-1l-.5-.5-.5-.5-.5-.5-.5-.5-.5-1-.5-1-.5-.5-.5-.5-.5-.5-.5-.5-.5-.5-.5-.5-.5-1-.5-1-.5-.5-.5-.5v-1-1l-1-.5-1-.5 5 9.5 5 9.5 5.5 7.5 5.5 7.5 6 8 6 8 1.5 10 1.5 10-2.5 8.5-2.5 8.5-10.5 3-10.5 3 10 1.5 10 1.5-6.5 11-6.5 11-1-.5-1-.5-.5-.5-.5-.5-.5-.5-.5-.5-.5-.5-.5-.5h-1.5-1.5-1-1l-.5-.5-.5-.5h-1-1l-.5-.5-.5-.5h-1-1l-1-.5-1-.5-.5-.5-.5-.5.5-.5.5-.5v-1-1l1-.5 1-.5v-1-1l.5-.5.5-.5.5-.5.5-.5 1-.5 1-.5v-1-1l-2 7.5-2 7.5 10 4 10 4 7 6 7 6 6.5 2 6.5 2 2.5 8 2.5 8 5 7 5 7 5 9 5 9 3 10 3 10v11.5 11.5l-.5 10-.5 10v9.5 9.5l-.5 8.5-.5 8.5v8 8l-1.5 5.5-1.5 5.5.5 7.5.5 7.5-1 7-1 7-6.5 11.5-6.5 11.5-1.5 6.5-1.5 6.5-5 6-5 6-5.5-1-5.5-1-.5 1.5-.5 1.5-1.5.5-1.5.5h-1.5-1.5l.5-1.5.5-1.5-1.5.5-1.5.5-1-1.5-1-1.5v-1-1l-1-1.5-1-1.5-.5-1.5-.5-1.5.5-2 .5-2-1.5-.5-1.5-.5-.5 1.5-.5 1.5-1.5 2-1.5 2 3.5 11 3.5 11 3 10.5 3 10.5 3.5 8 3.5 8 2.5 10 2.5 10 1 9 1 9-1.5 9-1.5 9-12.5-2-12.5-2-4-15-4-15h-.5-.5l-.5 1.5-.5 1.5-.5 1-.5 1 2 12.5 2 12.5 11 3 11 3 12 3 12 3 10.5 3.5 10.5 3.5 11.5 4.5 11.5 4.5 1 .5 1 .5 1 .5 1 .5.5.5.5.5h1 1 1.5 1.5l1.5.5 1.5.5 1.5.5 1.5.5 1 .5 1 .5 17.5 8 17.5 8 2 1 2 1 1.5 1 1.5 1 1.5.5 1.5.5 1.5 1 1.5 1 2 .5 2 .5 1.5.5 1.5.5 1 1.5 1 1.5 1 1 1 1 .5 2 .5 2 1.5.5 1.5.5 1 1 1 1 1.5 1 1.5 1 .5 1.5.5 1.5 1.5 1 1.5 1 .5 1.5.5 1.5v1.5 1.5l7 15.5 7 15.5-1 13-1 13" style="fill:#57543b;stroke:#57543b"/><path d="m662 959v1h15 15 10 10v-2.5-2.5l-1.5-.5-1.5-.5-4.5-7.5-4.5-7.5-6-8.5-6-8.5-3.5-9-3.5-9-5-7-5-7-8-7-8-7-8.5-7-8.5-7-6.5-9-6.5-9-6.5-9-6.5-9-4.5-8.5-4.5-8.5-.5-12.5-.5-12.5v-9.5-9.5l6-5.5 6-5.5 6-7.5 6-7.5 3-8 3-8-.5-9.5-.5-9.5.5-11 .5-11 1-5.5 1-5.5-1.5-7-1.5-7v-7.5-7.5l-6-5-6-5-5-7-5-7-4-10.5-4-10.5-5.5-10-5.5-10-4-10.5-4-10.5-3-10-3-10 4-6 4-6 9-.5 9-.5 7-4.5 7-4.5 4-8.5 4-8.5 5-8 5-8-4-1-4-1-5-5.5-5-5.5-2-7.5-2-7.5-5-9.5-5-9.5-7.5-6-7.5-6-6.5-6.5-6.5-6.5-4-8-4-8-3.5-8-3.5-8-5-9.5-5-9.5-6-7.5-6-7.5-8-6-8-6-20.5 2.5-20.5 2.5-1 1-1 1-.5.5-.5.5-.5.5-.5.5h-1-1l-.5 1-.5 1-.5.5-.5.5-.5.5-.5.5-.5.5-.5.5-1.5-.5-1.5-.5h-1-1l9.5-.5 9.5-.5 8.5 7 8.5 7 4.5 10 4.5 10 3.5 9 3.5 9 2 4.5 2 4.5 1.5 9 1.5 9 2.5 10 2.5 10 2 10 2 10 1.5 7 1.5 7 2 10.5 2 10.5 3 10.5 3 10.5.5 10 .5 10 3.5 11 3.5 11 2.5 10 2.5 10 2.5 9.5 2.5 9.5 1.5 10 1.5 10 1.5 7 1.5 7 4.5 7 4.5 7v9.5 9.5l2 10.5 2 10.5 3.5 7 3.5 7-3 5.5-3 5.5-3.5 3.5-3.5 3.5-2 5.5-2 5.5.5 1 .5 1-.5.5-.5.5-.5.5-.5.5v1.5 1.5 1 1 1 1 1 1l.5-1 .5-1 1.5.5 1.5.5v1 1l-.5 1-.5 1-1.5.5-1.5.5-.5 1-.5 1 .5 1 .5 1-1 1.5-1 1.5v1 1l1 1 1 1 3.5 19 3.5 19 5.5 11.5 5.5 11.5 5.5 8.5 5.5 8.5 5 9 5 9 6 5.5 6 5.5 6 9.5 6 9.5 6 6.5 6 6.5 4 10 4 10 3 10 3 10 .5 11 .5 11" style="fill:#7a7252;stroke:#7a7252"/><path d="m0 957v1l10-11.5 10-11.5 5.5-3.5 5.5-3.5 9-6 9-6 8-6 8-6 7-6 7-6 8-3 8-3 8-1 8-1 6-4 6-4 7.5-4 7.5-4 7-6 7-6-3.5-6.5-3.5-6.5-10.5 3.5-10.5 3.5-10.5 4.5-10.5 4.5-9 5-9 5-9.5 5-9.5 5-8.5 5.5-8.5 5.5-9 6-9 6-8 6-8 6-7.5 8-7.5 8v1.5 1.5 2.5 2.5 2 2 2.5 2.5 2 2 2.5 2.5.5.5" style="fill:#383527;stroke:#383527"/><path d="m479 956h2l.5-.5.5-.5-1-.5-1-.5.5-.5.5-.5v-1-1l.5-.5.5-.5v-1.5-1.5l.5-.5.5-.5.5-.5.5-.5v-1-1l1-.5 1-.5v-1-1l.5-.5.5-.5.5-.5.5-.5 1-1 1-1 1-1.5 1-1.5 3-10 3-10v-.5-.5l1-1.5 1-1.5-.5-1.5-.5-1.5-1.5-1-1.5-1-1.5-.5-1.5-.5-1.5-1-1.5-1h-1-1l.5 1 .5 1 .5 1.5.5 1.5 1 1 1 1v2 2l-1 1-1 1h-1.5-1.5l-1.5.5-1.5.5-1.5-.5-1.5-.5-2.5-.5-2.5-.5-1-1-1-1-1-1-1-1-.5-1-.5-1-.5-1-.5-1-.5-.5-.5-.5v-1-1h-1-1l.5.5.5.5-1 .5-1 .5-.5 1.5-.5 1.5-1.5 18-1.5 18 7 6.5 7 6.5h1.5 1.5" style="fill:#1e4445;stroke:#1e4445"/><path d="m709 954l3 1v-3.5-3.5-2-2-2.5-2.5-2-2-2.5-2.5-2-2l-.5-.5-.5-.5-6.5-7-6.5-7-7.5-8-7.5-8-7.5-8-7.5-8-8.5-7-8.5-7-7-7.5-7-7.5-5-9.5-5-9.5-4-9.5-4-9.5-2-11.5-2-11.5 1.5-11 1.5-11 7.5-4.5 7.5-4.5 9-1.5 9-1.5 5.5-8 5.5-8 2-10.5 2-10.5-1-10.5-1-10.5 1-11.5 1-11.5-3-6.5-3-6.5-3-8.5-3-8.5-7-8.5-7-8.5-5-10.5-5-10.5-2.5-8-2.5-8v-8.5-8.5-8.5-8.5l5-8 5-8 7.5-6 7.5-6 9 .5 9 .5h4.5 4.5l5-1.5 5-1.5 3-7.5 3-7.5-3-6.5-3-6.5-6-6.5-6-6.5-8.5-7-8.5-7-8-7.5-8-7.5-8.5-7-8.5-7-9-6.5-9-6.5-7.5-8-7.5-8-6-7-6-7-4.5-9.5-4.5-9.5-4.5-10-4.5-10-7.5-8-7.5-8-8.5-7-8.5-7-9-5-9-5-11.5 1.5-11.5 1.5-9 7.5-9 7.5h.5.5l1.5-.5 1.5-.5 1.5-1 1.5-1 1 .5 1 .5 20.5-2.5 20.5-2.5 8 6 8 6 6 7.5 6 7.5 5 9.5 5 9.5 3.5 8 3.5 8 4 8 4 8 6.5 6.5 6.5 6.5 7.5 6 7.5 6 5 9.5 5 9.5 2 7.5 2 7.5 5 5.5 5 5.5 4 1 4 1-5 8-5 8-4 8.5-4 8.5-7 4.5-7 4.5-9 .5-9 .5-4 6-4 6 3 10 3 10 4 10.5 4 10.5 5.5 10 5.5 10 4 10.5 4 10.5 5 7 5 7 6 5 6 5v7.5 7.5l1.5 7 1.5 7-1 5.5-1 5.5-.5 11-.5 11 .5 9.5.5 9.5-3 8-3 8-6 7.5-6 7.5-6 5.5-6 5.5v9.5 9.5l.5 12.5.5 12.5 4.5 8.5 4.5 8.5 6.5 9 6.5 9 6.5 9 6.5 9 8.5 7 8.5 7 8 7 8 7 5 7 5 7 3.5 9 3.5 9 6 8.5 6 8.5 4.5 7.5 4.5 7.5" style="fill:#958f6f;stroke:#958f6f"/><g style="fill:#383527;stroke:#383527"><path d="m432 949l2-17-3.5 3-3.5 3 2.5 5.5 2.5 5.5"/><path d="m442 941h2l1-1 1-1 .5-2 .5-2v-2-2h-.5-.5l-.5 1.5-.5 1.5v1 1h-1-1v-1.5-1.5l-.5-1-.5-1 1-1.5 1-1.5-1.5 1-1.5 1 .5 1.5.5 1.5-.5 2-.5 2 .5 1.5.5 1.5v.5.5"/></g><g style="fill:#1e4445;stroke:#1e4445"><path d="m599 940l3 1 .5-1.5.5-1.5.5-2 .5-2-.5-1.5-.5-1.5-.5-1-.5-1-.5 1.5-.5 1.5-1 1.5-1 1.5v1 1l.5.5.5.5-.5 1-.5 1"/><path d="m443 936h2v-1-1l.5-1.5.5-1.5v-10.5-10.5l-3 9-3 9 .5 1 .5 1 1.5-1 1.5-1-1 1.5-1 1.5.5 1 .5 1v1.5 1.5"/></g><path d="m1 935l16-13 8.5-7 8.5-7 10-5.5 10-5.5 10-5.5 10-5.5 9.5-6 9.5-6 10-5.5 10-5.5 10.5-5 10.5-5 2.5-3 2.5-3-11.5 4-11.5 4-9.5 5-9.5 5-10 5.5-10 5.5-10 5.5-10 5.5-9 6.5-9 6.5-9.5 6.5-9.5 6.5-7.5 8-7.5 8-2 3-2 3" style="fill:#57543b;stroke:#57543b"/><path d="m574 934v-23l-3 7.5-3 7.5 3 4 3 4" style="fill:#383527;stroke:#383527"/><path d="m403 926l2 1 1-.5 1-.5 6-10.5 6-10.5 6.5-8.5 6.5-8.5 5.5 5.5 5.5 5.5.5-4 .5-4 4.5-8 4.5-8v-.5-.5h.5.5l1-.5 1-.5-.5-.5-.5-.5h1 1l.5-.5.5-.5h.5.5 1 1l.5-.5.5-.5v-1-1-1.5-1.5-1-1-1-1-1-1-1.5-1.5l.5-2 .5-2 .5-2 .5-2 .5-2 .5-2 .5-1.5.5-1.5 1-1 1-1 .5-1 .5-1-1.5-2-1.5-2-1.5.5-1.5.5-1 1-1 1-2-.5-2-.5h-1-1l-1-.5-1-.5 1-1 1-1-1.5-.5-1.5-.5-1 1.5-1 1.5-1-.5-1-.5-6-2.5-6-2.5-5 6.5-5 6.5-4 3.5-4 3.5-7-1.5-7-1.5-7.5 1-7.5 1-4 9-4 9-6 2-6 2 1 5.5 1 5.5 4 4 4 4 3-6 3-6 6.5.5 6.5.5-1.5 7.5-1.5 7.5-.5 6-.5 6 2 .5 2 .5h1.5 1.5l2-1 2-1h2 2v2.5 2.5l-.5 1.5-.5 1.5-.5 2-.5 2v1 1l-1 1.5-1 1.5-.5 1-.5 1-.5 1-.5 1v1 1" style="fill:#1e4445;stroke:#1e4445"/><path d="m611 926h2l.5-.5.5-.5.5-.5.5-.5 1-1 1-1 1-1.5 1-1.5.5-.5.5-.5.5-1 .5-1-9.5-4-9.5-4 4.5 9 4.5 9" style="fill:#553c28;stroke:#553c28"/><path d="m711 925l1 1v-3-3-2.5-2.5-2-2-1-1l-.5-.5-.5-.5-6-5.5-6-5.5-7.5-7-7.5-7-6.5-7.5-6.5-7.5-7-8-7-8-5-8-5-8-4.5-8.5-4.5-8.5-2-9-2-9 2.5-6.5 2.5-6.5 10-1 10-1 9-.5 9-.5 5.5-6.5 5.5-6.5 5.5-8.5 5.5-8.5v-5-5l6.5-3.5 6.5-3.5v-15-15-15.5-15.5-6.5-6.5l-.5-.5-.5-.5-3.5-5-3.5-5-3-4.5-3-4.5-4-4.5-4-4.5-3.5-2-3.5-2-8.5-5-8.5-5-2.5-9-2.5-9 1.5-7.5 1.5-7.5.5-4.5.5-4.5 5-2.5 5-2.5 5 1.5 5 1.5 3.5-2 3.5-2 7.5.5 7.5.5 2.5-.5 2.5-.5v-16-16-15.5-15.5-15-15l-.5-.5-.5-.5-7.5-4.5-7.5-4.5-8-6-8-6-7.5-4.5-7.5-4.5-9.5-6-9.5-6-8.5-6-8.5-6-7-6-7-6-4-6-4-6-4.5-7-4.5-7-6.5-8-6.5-8-7-8.5-7-8.5-7.5-5.5-7.5-5.5-8-7-8-7-10-5.5-10-5.5-12.5-1-12.5-1-9 6.5-9 6.5-14-5-14-5-.5-.5-.5-.5-1-1-1-1-.5-1-.5-1-1.5-1-1.5-1 .5 1 .5 1 .5.5.5.5.5.5.5.5.5 1 .5 1 .5.5.5.5.5.5.5.5v1 1l.5.5.5.5.5.5.5.5.5 1 .5 1 .5.5.5.5.5.5.5.5.5.5.5.5.5 1 .5 1 .5.5.5.5.5 1 .5 1 1 1 1 1 1 1 1 1 1 1.5 1 1.5 1.5-.5 1.5-.5 1.5-.5 1.5-.5 1-.5 1-.5 9-7.5 9-7.5 11.5-1.5 11.5-1.5 9 5 9 5 8.5 7 8.5 7 7.5 8 7.5 8 4.5 10 4.5 10 4.5 9.5 4.5 9.5 6 7 6 7 7.5 8 7.5 8 9 6.5 9 6.5 8.5 7 8.5 7 8 7.5 8 7.5 8.5 7 8.5 7 6 6.5 6 6.5 3 6.5 3 6.5-3 7.5-3 7.5-5 1.5-5 1.5h-4.5-4.5l-9-.5-9-.5-7.5 6-7.5 6-5 8-5 8v8.5 8.5 8.5 8.5l2.5 8 2.5 8 5 10.5 5 10.5 7 8.5 7 8.5 3 8.5 3 8.5 3 6.5 3 6.5-1 11.5-1 11.5 1 10.5 1 10.5-2 10.5-2 10.5-5.5 8-5.5 8-9 1.5-9 1.5-7.5 4.5-7.5 4.5-1.5 11-1.5 11 2 11.5 2 11.5 4 9.5 4 9.5 5 9.5 5 9.5 7 7.5 7 7.5 8.5 7 8.5 7 7.5 8 7.5 8 7.5 8 7.5 8 6.5 7 6.5 7" style="fill:#a8a589;stroke:#a8a589"/><path d="m513 922l20-9 2.5-9 2.5-9 3.5-10 3.5-10-9-3.5-9-3.5-7.5-7-7.5-7-6-4.5-6-4.5-2 4.5-2 4.5 6 7.5 6 7.5.5-1 .5-1 5 1.5 5 1.5 9.5 2 9.5 2v4.5 4.5l-6-3.5-6-3.5 1.5 2.5 1.5 2.5-5 2.5-5 2.5 7 .5 7 .5-1.5 6.5-1.5 6.5 1 .5 1 .5.5-.5.5-.5 1 .5 1 .5v1 1h-1-1v1.5 1.5l-.5.5-.5.5v1 1h-1-1l-1 .5-1 .5-1 1-1 1-.5.5-.5.5-1 .5-1 .5-1 1-1 1h-1-1l-1.5-.5-1.5-.5-1 .5-1 .5-.5 1.5-.5 1.5-1 1.5-1 1.5h1 1" style="fill:#383527;stroke:#383527"/><path d="m519 916h2l1-1 1-1 1-.5 1-.5.5-.5.5-.5 1-1 1-1 1-.5 1-.5h1 1v-1-1l.5-.5.5-.5v-1.5-1.5l-1.5.5-1.5.5-1.5.5-1.5.5-1.5 1-1.5 1-.5 1.5-.5 1.5-1.5 1-1.5 1-.5 2-.5 2" style="fill:#57543b;stroke:#57543b"/><g style="fill:#1e4445;stroke:#1e4445"><path d="m596 916l-9-20-5.5-7.5-5.5-7.5-2.5 4.5-2.5 4.5 3.5 2 3.5 2 .5 1 .5 1v1 1l-.5.5-.5.5-.5.5-.5.5-1 .5-1 .5h-1-1l-.5.5-.5.5v1 1l.5 1.5.5 1.5 1-.5 1-.5h1 1l1 1 1 1 .5 1 .5 1 1 1 1 1h2.5 2.5 1 1l.5-.5.5-.5.5.5.5.5 1 .5 1 .5.5.5.5.5 1 1 1 1"/><path d="m516 915l3 1 .5-2 .5-2 1.5-1 1.5-1 .5-1.5.5-1.5 1.5-1 1.5-1 1.5-.5 1.5-.5 1.5-.5 1.5-.5h1 1v-1-1l-1-.5-1-.5-.5.5-.5.5-1-.5-1-.5-2 1-2 1-1 1-1 1-1 1.5-1 1.5-1 1-1 1-1 1.5-1 1.5-1 1-1 1v.5.5"/></g><path d="m481 914l3 1 1.5-.5 1.5-.5h1.5 1.5l1-1 1-1v-2-2l-2-.5-2-.5-1-1-1-1-1.5-1-1.5-1-1.5-.5-1.5-.5-2-.5-2-.5-1.5.5-1.5.5-1 1.5-1 1.5.5 2 .5 2 1 1 1 1 1 1 1 1 2.5.5 2.5.5" style="fill:#171b12;stroke:#171b12"/><g style="fill:#383527;stroke:#383527"><path d="m498 912v1l-14-7.5-14-7.5-2.5 4.5-2.5 4.5.5-1.5.5-1.5 1-.5 1-.5-.5-.5-.5-.5h1 1v1 1l.5.5.5.5.5 1 .5 1 .5 1 .5 1-.5-2-.5-2 1-1.5 1-1.5 1.5-.5 1.5-.5 2 .5 2 .5 1.5.5 1.5.5 1.5 1 1.5 1 1 1 1 1 2 .5 2 .5-1-1-1-1-.5-1.5-.5-1.5-.5-1-.5-1h1 1l1.5 1 1.5 1 1.5.5 1.5.5 1.5 1 1.5 1 .5 1.5.5 1.5-1 1.5-1 1.5"/><path d="m391 911h2l1.5-.5 1.5-.5h1.5 1.5l1-1 1-1v-1.5-1.5h-1.5-1.5l-2-.5-2-.5-1 .5-1 .5-.5 1.5-.5 1.5v1.5 1.5"/></g><path d="m711 908l1 1v-14.5-14.5-15.5-15.5-15.5-15.5-15.5-15.5-15.5-15.5-9-9l-6.5 3.5-6.5 3.5v5 5l-5.5 8.5-5.5 8.5-5.5 6.5-5.5 6.5-9 .5-9 .5-10 1-10 1-2.5 6.5-2.5 6.5 2 9 2 9 4.5 8.5 4.5 8.5 5 8 5 8 7 8 7 8 6.5 7.5 6.5 7.5 7.5 7 7.5 7 6 5.5 6 5.5" style="fill:#bfbfac;stroke:#bfbfac"/><path d="m624 903l2-11-12 3.5-12 3.5 11 2 11 2" style="fill:#171b12;stroke:#171b12"/><path d="m507 902l3 1 1-1 1-1 .5-2 .5-2 1-1 1-1 2-.5 2-.5h1 1l1.5-1 1.5-1-.5-1.5-.5-1.5-1-1-1-1-1-.5-1-.5 5-2.5 5-2.5-1.5-2.5-1.5-2.5 6 3.5 6 3.5v-4.5-4.5l-9.5-2-9.5-2-5-1.5-5-1.5-.5 1-.5 1-7.5 2-7.5 2-7.5 6-7.5 6 10.5 4 10.5 4 4 4.5 4 4.5" style="fill:#1e4445;stroke:#1e4445"/><path d="m415 901l14-15 9-6.5 9-6.5-9 3.5-9 3.5-3.5-3-3.5-3 5-4.5 5-4.5-11-1.5-11-1.5-7.5-8-7.5-8-4 9.5-4 9.5 8 3.5 8 3.5.5 8 .5 8 5.5 6.5 5.5 6.5" style="fill:#306e6e;stroke:#306e6e"/><path d="m592 894h2l1.5-.5 1.5-.5 2-.5 2-.5h1 1l2-.5 2-.5 1-1 1-1 1.5-1 1.5-1v-1-1l-.5-2-.5-2h-2-2v-1-1l-1-.5-1-.5-2-.5-2-.5-1 1-1 1h-2-2l-1 1.5-1 1.5-1.5.5-1.5.5-1.5 1-1.5 1v2 2l1 1.5 1 1.5 1.5 1 1.5 1" style="fill:#171b12;stroke:#171b12"/><path d="m329 893h2v-2-2h-1.5-1.5l-1-1-1-1h-2.5-2.5l-1 1-1 1 1 1.5 1 1.5 1.5.5 1.5.5h2 2 .5.5" style="fill:#383527;stroke:#383527"/><path d="m705 884l5-24-1-13.5-1-13.5-4 2.5-4 2.5-1 10.5-1 10.5 1 9.5 1 9.5 2.5 3 2.5 3" style="fill:#ccd4cb;stroke:#ccd4cb"/><path d="m0 882v1l15.5-7.5 15.5-7.5 9-3 9-3 6.5-4 6.5-4 8-4.5 8-4.5 9-4.5 9-4.5 6.5-4.5 6.5-4.5 4-7 4-7 4-4.5 4-4.5h9.5 9.5l5.5-5 5.5-5 10-4.5 10-4.5 7.5-5 7.5-5 10-4.5 10-4.5 2-5 2-5-2 1-2 1-1 1-1 1-1.5 1-1.5 1-1 1-1 1-1.5 1-1.5 1-1.5.5-1.5.5-1.5 1-1.5 1-1.5.5-1.5.5-1.5.5-1.5.5h-1.5-1.5l-1-1-1-1-.5-2-.5-2 3.5-13 3.5-13 4.5-11 4.5-11 5-11 5-11 5.5-10 5.5-10 5-10.5 5-10.5 3.5-10 3.5-10-4.5 10-4.5 10-5 10-5 10-5.5 10-5.5 10-5 10.5-5 10.5-4 12-4 12-4 11.5-4 11.5-5.5 10-5.5 10-11.5 4-11.5 4-11.5 4-11.5 4-9 6.5-9 6.5-10.5 5-10.5 5-10 5.5-10 5.5-10 5.5-10 5.5-9.5 6-9.5 6-12.5 7-12.5 7v3 3 2 2 1.5 1.5" style="fill:#383527;stroke:#383527"/><path d="m614 881h2l.5-1.5.5-1.5v-1-1l-2-.5-2-.5-1.5-1-1.5-1-1.5-.5-1.5-.5-1.5-1-1.5-1-2-1-2-1-1 .5-1 .5-1 .5-1 .5.5 1 .5 1v1 1l1.5-.5 1.5-.5 1 .5 1 .5.5.5.5.5h2 2v.5.5h-1-1v1 1l1 .5 1 .5v1 1h2 2 1.5 1.5" style="fill:#1e4445;stroke:#1e4445"/><path d="m453 874v1h1.5 1.5l1.5-.5 1.5-.5 1.5-1 1.5-1 .5-1.5.5-1.5v-2.5-2.5-2-2-2.5-2.5-1.5-1.5l-.5 2-.5 2v1.5 1.5 1 1 1 1 1 1 1.5 1.5 1 1l-.5.5-.5.5h-1-1-.5-.5l-.5.5-.5.5h-1-1l.5.5.5.5-1 .5-1 .5h-.5-.5" style="fill:#383527;stroke:#383527"/><path d="m451 869l7-20-1.5-4-1.5-4-3.5 5-3.5 5 3 4.5 3 4.5-1.5 4.5-1.5 4.5" style="fill:#306e6e;stroke:#306e6e"/><path d="m596 869v1l1-.5 1-.5 1-.5 1-.5-17.5-8-17.5-8 .5 1 .5 1-1 1.5-1 1.5v1.5 1.5l1.5-1.5 1.5-1.5 1 .5 1 .5h1 1l1.5.5 1.5.5h1.5 1.5l.5.5.5.5 1.5.5 1.5.5 1 .5 1 .5h1 1l1 1 1 1 1.5.5 1.5.5 1 .5 1 .5.5.5.5.5 1.5 1 1.5 1" style="fill:#383527;stroke:#383527"/><path d="m0 868v1l12.5-7 12.5-7 9.5-6 9.5-6 10-5.5 10-5.5 10-5.5 10-5.5 10.5-5 10.5-5 9-6.5 9-6.5 11.5-4 11.5-4 11.5-4 11.5-4 5.5-10 5.5-10 4-11.5 4-11.5 4-12 4-12 5-10.5 5-10.5 5.5-10 5.5-10 5-10 5-10 4.5-10 4.5-10-.5-1-.5-1h-2-2l-1.5-.5-1.5-.5-2-.5-2-.5-1.5-.5-1.5-.5-2-.5-2-.5h-2-2l-1.5-1-1.5-1-1-1-1-1-1-1-1-1-4.5-10.5-4.5-10.5 1-11 1-11-1.5-10.5-1.5-10.5 2-6 2-6 7-7.5 7-7.5-2 12.5-2 12.5 9-.5 9-.5 3-6.5 3-6.5 3-9.5 3-9.5 3.5-7 3.5-7 4-12.5 4-12.5-1-1-1-1-1 .5-1 .5-1.5.5-1.5.5h-1-1-1.5-1.5l1 1 1 1-2 10.5-2 10.5-4.5 10-4.5 10-9 14-9 14-1-.5-1-.5-.5-2-.5-2 .5-1.5.5-1.5v2 2l.5.5.5.5h1.5 1.5l1-1 1-1v-1-1l.5-1 .5-1 .5-1.5.5-1.5.5-.5.5-.5.5-1 .5-1 .5-1.5.5-1.5.5-1.5.5-1.5h-.5-.5l-1 1-1 1v1 1l-.5.5-.5.5-.5.5-.5.5-.5 1-.5 1v1 1l-.5.5-.5.5-.5.5-.5.5h-1-1v-1.5-1.5l.5-2 .5-2 1-1 1-1 .5 1 .5 1 .5-1.5.5-1.5 1-1 1-1 .5-2 .5-2 1-1 1-1 1-1.5 1-1.5.5-1 .5-1v-.5-.5-1-1l-.5 1-.5 1-1 1-1 1-11 4-11 4-5 9-5 9-1.5 10.5-1.5 10.5 1 14.5 1 14.5 4 11 4 11 15 9.5 15 9.5-5 9.5-5 9.5-5 9.5-5 9.5-7 14.5-7 14.5-1 2.5-1 2.5-4 10.5-4 10.5-7.5 19.5-7.5 19.5-.5 2-.5 2-1 1-1 1h-2-2l-1.5 1-1.5 1-1.5.5-1.5.5-1.5 1-1.5 1-1.5.5-1.5.5-2 .5-2 .5-1.5.5-1.5.5-1.5-.5-1.5-.5h-1.5-1.5l-9.5 5-9.5 5-10 5-10 5-9.5 4.5-9.5 4.5-14.5 6-14.5 6h-2-2-1-1-1-1l1-.5 1-.5v-.5-.5h3 3l1.5-.5 1.5-.5 1.5-1.5 1.5-1.5-1.5.5-1.5.5-.5.5-.5.5-1 .5-1 .5h-1-1-2-2-1.5-1.5-1-1l-.5.5-.5.5h-1.5-1.5l-1.5.5-1.5.5h-1-1l-1 .5-1 .5-2 .5-2 .5-1 .5-1 .5h-1-1-1-1-1.5-1.5-1-1-1-1-1-1-1.5-1.5l-.5-.5-.5-.5h-1-1l-.5.5-.5.5h-1.5-1.5v1 1l1 .5 1 .5h1.5 1.5 1 1 1.5 1.5 2 2 1 1l1 .5 1 .5 10.5 1.5 10.5 1.5 1.5 1.5 1.5 1.5-9 6-9 6-12 7-12 7v1.5 1.5" style="fill:#57543b;stroke:#57543b"/><path d="m560 868h2v-1-1l.5-.5.5-.5v-1-1l.5-1.5.5-1.5v-1.5-1.5l1-1.5 1-1.5-.5-1-.5-1-1-.5-1-.5-1.5-.5-1.5-.5-1.5-.5-1.5-.5h-1.5-1.5-1-1l-.5-.5-.5-.5-1-.5-1-.5-1-.5-1-.5-7-.5-7-.5 8 7.5 8 7.5 1.5.5 1.5.5-.5 1-.5 1v1 1l1.5.5 1.5.5 1 .5 1 .5.5.5.5.5h1.5 1.5" style="fill:#1e4445;stroke:#1e4445"/><path d="m0 864v1l12-7 12-7 9-6 9-6-1.5-1.5-1.5-1.5-5.5 5-5.5 5-14 9-14 9" style="fill:#5d6664;stroke:#5d6664"/><path d="m0 863v1l14-9 14-9 5.5-5 5.5-5h-1.5-1.5-1-1l-1 .5-1 .5h-1.5-1.5-2-2l-1-.5-1-.5-1.5-.5-1.5-.5h-1-1l-1-1-1-1h-1.5-1.5l-2 .5-2 .5 1.5.5 1.5.5h2.5 2.5l1 1 1 1 2 .5 2 .5.5.5.5.5-1.5-.5-1.5-.5-2-.5-2-.5-1.5-.5-1.5-.5h-2-2l-.5-.5-.5-.5h-1.5-1.5l-1.5-.5-1.5-.5h-1.5-1.5v1.5 1.5.5.5l8.5 3.5 8.5 3.5-8.5 7.5-8.5 7.5v1.5 1.5" style="fill:#7b8688;stroke:#7b8688"/><path d="m546 860h3l-8-7.5-8-7.5 7 .5 7 .5-11.5-4.5-11.5-4.5-10.5-3.5-10.5-3.5-12-3-12-3-11-3-11-3-2-12.5-2-12.5-2.5 20-2.5 20 1 .5 1 .5 1-1.5 1-1.5 1.5.5 1.5.5-1 1-1 1 1 .5 1 .5 1-2 1-2 1-1 1-1 1-1.5 1-1.5 1.5-.5 1.5-.5h2 2l1.5 1 1.5 1v1 1l-1.5 1-1.5 1-1 1-1 1 1.5 2 1.5 2 1-.5 1-.5.5-1.5.5-1.5.5-.5.5-.5.5.5.5.5.5-1 .5-1 .5.5.5.5.5-.5.5-.5h1 1 1.5 1.5l1.5.5 1.5.5v1 1 .5.5l-1.5.5-1.5.5.5.5.5.5-.5.5-.5.5 1 .5 1 .5 21.5 1.5 21.5 1.5 1.5 5.5 1.5 5.5 8 3.5 8 3.5" style="fill:#383527;stroke:#383527"/><path d="m0 859v1l8.5-7.5 8.5-7.5-8.5-3.5-8.5-3.5v3 3 2 2 2.5 2.5 2 2 1 1" style="fill:#ccd4cb;stroke:#ccd4cb"/><path d="m481 848h2 1 1l1-.5 1-.5v-1-1h-1.5-1.5v-3-3l-1-.5-1-.5.5-.5.5-.5-.5-.5-.5-.5 1.5-.5 1.5-.5v-.5-.5-1-1l-1.5-.5-1.5-.5h-1.5-1.5-1-1l-.5.5-.5.5-.5-.5-.5-.5-.5 1-.5 1-.5-.5-.5-.5-.5.5-.5.5-.5 1.5-.5 1.5v.5.5 2.5 2.5l.5 1.5.5 1.5h1.5 1.5l1.5.5 1.5.5 1.5 1 1.5 1" style="fill:#1e4445;stroke:#1e4445"/><path d="m21 838l3 1-.5-.5-.5-.5-2-.5-2-.5-1-1-1-1h-2.5-2.5l-1.5-.5-1.5-.5 2-.5 2-.5h1.5 1.5 1 1l-1-.5-1-.5h-1-1-2-2-1.5-1.5-1-1-1.5-1.5l-1-.5-1-.5v1.5 1.5h1.5 1.5l1.5.5 1.5.5h1.5 1.5l.5.5.5.5h2 2l1.5.5 1.5.5 2 .5 2 .5" style="fill:#7a7252;stroke:#7a7252"/><path d="m29 837h3l1-.5 1-.5h1 1 1.5 1.5l-10.5-1.5-10.5-1.5h-1-1l1 1 1 1h1 1l1.5.5 1.5.5 1 .5 1 .5h2 2" style="fill:#553c28;stroke:#553c28"/><path d="m457 835l4 1 1-1 1-1 1.5-.5 1.5-.5 1-1 1-1 1.5-1 1.5-1v-1-1l-1.5-1-1.5-1h-2-2l-1.5.5-1.5.5-1 1.5-1 1.5-1 1-1 1-1 2-1 2h1 1" style="fill:#171b12;stroke:#171b12"/><path d="m0 828v1h1.5 1.5l.5-.5.5-.5h1 1l.5.5.5.5h1.5 1.5 1 1 1 1 1 1 1.5 1.5 1 1 1 1l1-.5 1-.5-1-.5-1-.5-4-3-4-3 11-.5 11-.5-4.5-3-4.5-3 9-3.5 9-3.5 10.5-1 10.5-1 9-2 9-2-2.5 2.5-2.5 2.5-17.5 9-17.5 9h2 2 1 1l1-.5 1-.5.5-.5.5-.5 1.5-.5 1.5-.5 10-4.5 10-4.5 10.5-5 10.5-5 10.5-5 10.5-5 12.5-6 12.5-6-3.5-2-3.5-2-11.5 1.5-11.5 1.5-13 2-13 2-11 4.5-11 4.5-10 4-10 4-10.5 4.5-10.5 4.5-12.5 4.5-12.5 4.5v3.5 3.5 1.5 1.5" style="fill:#dee8e2;stroke:#dee8e2"/><path d="m23 827l2 1 2-.5 2-.5 1-.5 1-.5h1 1l1.5-.5 1.5-.5h1.5 1.5l.5-.5.5-.5h1 1 1.5 1.5l17.5-9 17.5-9 2.5-2.5 2.5-2.5-9 2-9 2-10.5 1-10.5 1-9 3.5-9 3.5 4.5 3 4.5 3-11 .5-11 .5 4 3 4 3" style="fill:#fafff3;stroke:#fafff3"/><path d="m51 827l29-12 9.5-4.5 9.5-4.5 10-5 10-5 9.5-5 9.5-5-10.5 4-10.5 4-9.5 5.5-9.5 5.5-9.5 4.5-9.5 4.5-17 6-17 6-1 .5-1 .5h1 1 1 1 2 2" style="fill:#a8a589;stroke:#a8a589"/><path d="m45 825v1l17-6 17-6 9.5-4.5 9.5-4.5 9.5-5.5 9.5-5.5 10.5-4 10.5-4 15.5-4.5 15.5-4.5.5-2 .5-2-1 1-1 1-.5.5-.5.5-.5-.5-.5-.5-1-.5-1-.5-.5-.5-.5-.5h-1-1l-.5-.5-.5-.5h-1.5-1.5-1-1l-.5.5-.5.5v1 1l-.5.5-.5.5-1 .5-1 .5-.5.5-.5.5-.5.5-.5.5-.5.5-.5.5h-2-2l-12.5 6-12.5 6-10.5 5-10.5 5-10.5 5-10.5 5-10 4.5-10 4.5-1.5 1.5-1.5 1.5-1.5.5-1.5.5h-3-3" style="fill:#bfbfac;stroke:#bfbfac"/><path d="m489 822l3-18-1-9-1-9-2.5-10-2.5-10-3.5-8-3.5-8-3-10.5-3-10.5-3.5-11-3.5-11-.5 1-.5 1-.5 1.5-.5 1.5-.5.5-.5.5v1.5 1.5 3 3l3.5 10.5 3.5 10.5-1.5 12-1.5 12-2 12-2 12v11.5 11.5l-3-11-3-11 1-10 1-10-2-15.5-2-15.5-.5 2-.5 2v1 1 2 2l.5 1 .5 1v1.5 1.5 1 1 1 1l.5.5.5.5v1 1 1.5 1.5 1 1l.5.5.5.5v1 1l.5 1 .5 1v1 1 1 1l.5.5.5.5v1 1 1.5 1.5l-.5.5-.5.5v1 1l-.5 1-.5 1 4 15 4 15 12.5 2 12.5 2" style="fill:#5d6664;stroke:#5d6664"/><path d="m0 817v1l12.5-4.5 12.5-4.5 10.5-4.5 10.5-4.5 10-4 10-4 11-4.5 11-4.5 13-2 13-2 11.5-1.5 11.5-1.5 3.5 2 3.5 2h2 2l.5-.5.5-.5.5-.5.5-.5.5-.5.5-.5 1-.5 1-.5.5-.5.5-.5v-1-1l.5-.5.5-.5h1 1 1.5 1.5l.5.5.5.5h1 1l.5.5.5.5 1 .5 1 .5.5.5.5.5.5-.5.5-.5 1-1 1-1 7.5-19.5 7.5-19.5 4-10.5 4-10.5h-2-2l-9.5-5.5-9.5-5.5-10.5-5-10.5-5-9.5-6-9.5-6-8.5-7-8.5-7-6.5-6-6.5-6-1-8.5-1-8.5-3-7-3-7-2-9-2-9-2-9.5-2-9.5-4.5-11-4.5-11-3-9-3-9-4.5-9.5-4.5-9.5-4-9.5-4-9.5-4-9.5-4-9.5-5-9.5-5-9.5-4.5-8.5-4.5-8.5-3.5-11.5-3.5-11.5-4-9.5-4-9.5-5-9-5-9v2.5 2.5 2.5 2.5 2 2 2.5 2.5 2 2 1.5 1.5l6 9.5 6 9.5 3.5 10 3.5 10 3.5 9 3.5 9 3 9.5 3 9.5 3.5 8 3.5 8 4.5 10 4.5 10 4 10.5 4 10.5 4 10.5 4 10.5 3 10.5 3 10.5 2.5 11 2.5 11 .5 10 .5 10 5.5 9.5 5.5 9.5-1 5.5-1 5.5 8.5 1 8.5 1 1.5 3 1.5 3-14.5 1-14.5 1-8 3.5-8 3.5-8 4.5-8 4.5-6.5 1-6.5 1-5.5 4-5.5 4-1-.5-1-.5h-1-1l.5-.5.5-.5.5-.5.5-.5h-1.5-1.5-1-1l-.5.5-.5.5-.5.5-.5.5-.5-1-.5-1-1 1-1 1-.5.5-.5.5-1-.5-1-.5-1-1-1-1-.5-.5-.5-.5-1-1-1-1v15.5 15.5 15.5 15.5 15.5 15.5 14 14" style="fill:#ccd4cb;stroke:#ccd4cb"/><path d="m462 814v-23l2-12 2-12 1.5-12 1.5-12-3.5-10.5-3.5-10.5-.5 1-.5 1-.5.5-.5.5-.5.5-.5.5-.5 1-.5 1-.5 1.5-.5 1.5v1 1l-.5 1-.5 1-.5 1.5-.5 1.5-.5 1.5-.5 1.5 2 15.5 2 15.5-1 10-1 10 3 11 3 11" style="fill:#7b8688;stroke:#7b8688"/><g style="fill:#fafff3;stroke:#fafff3"><path d="m63 801l20-5 3-5.5 3-5.5-10.5 5-10.5 5-2.5 3-2.5 3"/><path d="m96 797l22-7 10.5-5 10.5-5h-7.5-7.5l-14 1.5-14 1.5v2.5 2.5l2 3.5 2 3.5-2 1-2 1"/></g><path d="m575 796h4l-3.5-19-3.5-19-2 11-2 11 3.5 8 3.5 8" style="fill:#5d6664;stroke:#5d6664"/><path d="m455 787v1h.5.5v-.5-.5-2.5-2.5l.5-.5.5-.5-.5-1-.5-1v-2-2l-.5-2-.5-2-.5-1.5-.5-1.5v-2.5-2.5l-.5-1.5-.5-1.5v-2-2-1-1-1.5-1.5-2-2-1-1l.5-2 .5-2 .5-1.5.5-1.5.5-1.5.5-1.5.5-1 .5-1v-1-1l.5-1.5.5-1.5.5-1 .5-1 .5-.5.5-.5.5-.5.5-.5.5-1 .5-1v-3-3-1.5-1.5l.5-.5.5-.5.5-1.5.5-1.5.5-1 .5-1 1.5-2 1.5-2 .5-1.5.5-1.5 8 7 8 7 5.5 1 5.5 1 5-6 5-6 1.5-6.5 1.5-6.5v-.5-.5l3.5-9 3.5-9v-4-4l1.5-10.5 1.5-10.5.5-7.5.5-7.5 1.5-11.5 1.5-11.5v-9-9l.5-12.5.5-12.5-.5-12-.5-12-2-10-2-10-5-9.5-5-9.5-4.5-7.5-4.5-7.5-8-11.5-8-11.5-7-6-7-6-10-4-10-4 2-7.5 2-7.5.5-1 .5-1 1-1 1-1 1-1 1-1 10.5-3 10.5-3 2.5-8.5 2.5-8.5-1.5-10-1.5-10-6-8-6-8-5.5-7.5-5.5-7.5-5-9.5-5-9.5-1.5-1.5-1.5-1.5-1-2-1-2-.5-.5-.5-.5-9-7-9-7-12.5-1-12.5-1-19 4.5-19 4.5-.5 1-.5 1-1.5.5-1.5.5-1 1-1 1-1.5 1-1.5 1-1.5 1-1.5 1-8.5 6.5-8.5 6.5-6.5 8-6.5 8-3 13.5-3 13.5-1 1-1 1-2 .5-2 .5-1.5.5-1.5.5-1.5 1-1.5 1 3 6 3 6-11.5 6.5-11.5 6.5-.5-1-.5-1 .5-1 .5-1 1-1.5 1-1.5-.5-1.5-.5-1.5-2.5-.5-2.5-.5-10.5 4-10.5 4-1 3.5-1 3.5-2-.5-2-.5h-1-1l-.5-.5-.5-.5h-1-1l-1-.5-1-.5-.5-.5-.5-.5h-1-1-1-1l-1-.5-1-.5h-1-1l-.5-.5-.5-.5h-1-1-1.5-1.5l-1.5-.5-1.5-.5h-1-1-1.5-1.5-2.5-2.5l-4 9-4 9-3.5 10-3.5 10 4.5 8 4.5 8 1 10 1 10 14 2.5 14 2.5h1.5 1.5 1 1l1.5-.5 1.5-.5 1-.5 1-.5 1 1 1 1 1.5 1 1.5 1-.5 1.5-.5 1.5.5.5.5.5 1-.5 1-.5h1.5 1.5l1-1.5 1-1.5 1-1.5 1-1.5.5-1.5.5-1.5v-1.5-1.5l1-1 1-1 .5-1.5.5-1.5.5-.5.5-.5 1-.5 1-.5 1-1 1-1h-5-5l-18 7.5-18 7.5-4.5-5.5-4.5-5.5-4.5-8-4.5-8 .5-7.5.5-7.5 3.5-7.5 3.5-7.5 5-5 5-5 5-2.5 5-2.5 6.5 3 6.5 3 5.5 8 5.5 8 4 3 4 3 4.5-5.5 4.5-5.5-4.5-7.5-4.5-7.5 7 7 7 7 5.5 1.5 5.5 1.5 4.5-3 4.5-3-1-7.5-1-7.5-4.5-5-4.5-5 11-2 11-2 3.5 2.5 3.5 2.5.5 9.5.5 9.5-7 8-7 8-3.5 10.5-3.5 10.5-11.5 5-11.5 5h1.5 1.5l1.5-.5 1.5-.5 1.5.5 1.5.5 2 .5 2 .5 1.5.5 1.5.5 1.5.5 1.5.5 1 .5 1 .5 5-10 5-10 3-12.5 3-12.5 1-.5 1-.5 2.5-.5 2.5-.5 1-1 1-1 .5-2 .5-2 1-12.5 1-12.5 7.5 3 7.5 3 .5 14 .5 14-3.5 19.5-3.5 19.5 2.5-.5 2.5-.5 1-6 1-6 .5-8 .5-8 1.5-11 1.5-11-.5-11-.5-11-9-2.5-9-2.5 1.5-4 1.5-4 8.5 3.5 8.5 3.5 6 7 6 7 2.5 10.5 2.5 10.5v13.5 13.5l-5.5 8-5.5 8-1-.5-1-.5h-2-2l-2 .5-2 .5h2 2l1.5.5 1.5.5.5 1.5.5 1.5 1 1.5 1 1.5-.5 1.5-.5 1.5-2-.5-2-.5-1.5.5-1.5.5-2 .5-2 .5-1 1-1 1-1.5 1-1.5 1-.5 1-.5 1-.5 14-.5 14 3 12 3 12 2 11 2 11-9 10-9 10-.5 1-.5 1v1 1l-.5.5-.5.5-.5.5-.5.5-.5 1-.5 1h-1-1l-.5.5-.5.5-.5.5-.5.5-1 .5-1 .5h-1-1l-.5.5-.5.5-1.5-.5-1.5-.5-1-11.5-1-11.5-1-13-1-13-6-6-6-6-6.5 7.5-6.5 7.5-8.5 6.5-8.5 6.5-8.5-12.5-8.5-12.5-3.5 8-3.5 8-14.5 10-14.5 10-1.5-1-1.5-1-.5-.5-.5-.5-.5-1-.5-1v-1.5-1.5l2-12.5 2-12.5-7 7.5-7 7.5-2 6-2 6 1.5 10.5 1.5 10.5-1 11-1 11 4.5 10.5 4.5 10.5-1.5-11.5-1.5-11.5.5-10.5.5-10.5 7-5 7-5 10-5 10-5 7-6 7-6 7.5 5 7.5 5 8.5-6 8.5-6 7-7.5 7-7.5 5.5 1.5 5.5 1.5.5 14.5.5 14.5v10 10l-3 7-3 7 7.5-3.5 7.5-3.5 7.5-7 7.5-7 6.5-8 6.5-8 7.5 3 7.5 3 5.5-8.5 5.5-8.5 6-9 6-9 6-8 6-8 5.5-9 5.5-9 6.5-8 6.5-8 1.5-10 1.5-10 4-10 4-10 5 3 5 3 10 3 10 3 6 9 6 9 6 8 6 8 7 7.5 7 7.5 5 9.5 5 9.5 2.5 11 2.5 11-.5 9.5-.5 9.5-1 13-1 13-3 11-3 11-2.5 9-2.5 9-4 8.5-4 8.5-4 6.5-4 6.5-4.5 10-4.5 10-4 10.5-4 10.5-4.5 9.5-4.5 9.5-3 11-3 11-.5 11.5-.5 11.5 1.5 13 1.5 13" style="fill:#383527;stroke:#383527"/><path d="m456 787v1l.5-1 .5-1v-1-1l.5-.5.5-.5v-1.5-1.5-1-1l-.5-.5-.5-.5v-1-1-1-1l-.5-1-.5-1v-1-1l-.5-.5-.5-.5v-1-1-1.5-1.5-1-1l-.5-.5-.5-.5v-1-1-1-1-1.5-1.5l-.5-1-.5-1v1.5 1.5 1 1 2 2l.5 1.5.5 1.5v2.5 2.5l.5 1.5.5 1.5.5 2 .5 2v2 2l.5 1 .5 1-.5.5-.5.5v2.5 2.5" style="fill:#57543b;stroke:#57543b"/><path d="m141 786l3 1 1.5-.5 1.5-.5 2-.5 2-.5 1.5-.5 1.5-.5 1.5-1 1.5-1 1.5-.5 1.5-.5 1.5-1 1.5-1h2 2l1-1 1-1-15.5 4.5-15.5 4.5h1.5 1.5" style="fill:#a8a589;stroke:#a8a589"/><path d="m185 771h3l1.5-.5 1.5-.5 1.5-.5 1.5-.5 1.5-1 1.5-1 1.5-.5 1.5-.5 1.5-1 1.5-1 1-1 1-1 1.5-1 1.5-1 1-1 1-1 2-1 2-1 12.5-10 12.5-10 6-8 6-8 5.5-10 5.5-10v-.5-.5l-.5-13-.5-13-.5-19.5-.5-19.5-13 13.5-13 13.5-5 11-5 11-5.5 10-5.5 10-5.5 10-5.5 10-5 10.5-5 10.5-5 10.5-5 10.5.5 2 .5 2 1 1 1 1" style="fill:#dee8e2;stroke:#dee8e2"/><path d="m188 766l20-9 8-7.5 8-7.5-.5-4-.5-4-7-4.5-7-4.5-4.5 6-4.5 6-5 10.5-5 10.5-1 4-1 4" style="fill:#ccd4cb;stroke:#ccd4cb"/><path d="m238 753l3 1 1.5-.5 1.5-.5 1-1.5 1-1.5-.5-.5-.5-.5-1-1.5-1-1.5-1.5.5-1.5.5-.5 2-.5 2-.5 1-.5 1" style="fill:#383527;stroke:#383527"/><path d="m571 748v1l.5-1 .5-1 1.5-.5 1.5-.5.5-1 .5-1v-1-1l-1.5-.5-1.5-.5-.5 1-.5 1v-1-1-1-1-1-1-1.5-1.5l.5-.5.5-.5.5-.5.5-.5-.5-1-.5-1-.5 1-.5 1-.5.5-.5.5-.5 1.5-.5 1.5.5 1 .5 1-.5.5-.5.5-.5 1.5-.5 1.5.5 1 .5 1 .5.5.5.5v1.5 1.5" style="fill:#5d6664;stroke:#5d6664"/><g style="fill:#dee8e2;stroke:#dee8e2"><path d="m166 744l11-6 1-4.5 1-4.5-6.5 1-6.5 1 .5 5 .5 5-.5 1.5-.5 1.5"/><path d="m214 741l-4-9-1 3.5-1 3.5 3 1 3 1"/></g><path d="m231 733l15-14 5.5-10 5.5-10-1-13.5-1-13.5v-14.5-14.5l-6 5.5-6 5.5-5 10.5-5 10.5-5 10.5-5 10.5-5.5 10-5.5 10 6.5 7 6.5 7 3 1.5 3 1.5" style="fill:#fafff3;stroke:#fafff3"/><path d="m705 720l3 1 1-1 1-1v-2.5-2.5-2-2l-1.5 1-1.5 1h-1-1l-.5 2-.5 2 1.5-.5 1.5-.5-.5 1.5-.5 1.5-.5 1-.5 1" style="fill:#bfbfac;stroke:#bfbfac"/><path d="m478 718h3l1.5-.5 1.5-.5.5-1.5.5-1.5-8-7-8-7 1.5.5 1.5.5-.5 2-.5 2 .5 1.5.5 1.5 1 1.5 1 1.5v1 1l1 1.5 1 1.5 1.5-.5 1.5-.5-.5 1.5-.5 1.5" style="fill:#1e4445;stroke:#1e4445"/><path d="m189 713h4l1-2.5 1-2.5-.5 1-.5 1h-1-1l-9-6.5-9-6.5-5-9.5-5-9.5-4-5.5-4-5.5-5-2.5-5-2.5-2-8.5-2-8.5-4.5-8-4.5-8-2.5-9-2.5-9-6-7.5-6-7.5-3-11-3-11-5-9.5-5-9.5-5-8.5-5-8.5-5-9.5-5-9.5-3.5-11-3.5-11-5.5-8-5.5-8-5.5-9-5.5-9-3-10.5-3-10.5-2.5-9-2.5-9-3-10.5-3-10.5-4.5-10-4.5-10-7-9-7-9-5.5-14-5.5-14v16 16 12 12l5 9 5 9 4 9.5 4 9.5 3.5 11.5 3.5 11.5 4.5 8.5 4.5 8.5 5 9.5 5 9.5 4 9.5 4 9.5 4 9.5 4 9.5 4.5 9.5 4.5 9.5 3 9 3 9 4.5 11 4.5 11 2 9.5 2 9.5 2 9 2 9 3 7 3 7 1 8.5 1 8.5 6.5 6 6.5 6 8.5 7 8.5 7 9.5 6 9.5 6 10.5 5 10.5 5 9.5 5.5 9.5 5.5" style="fill:#dee8e2;stroke:#dee8e2"/><path d="m192 710h2l.5-1 .5-1 7-14.5 7-14.5 5-9.5 5-9.5 5-9.5 5-9.5v-.5-.5l-11.5-4-11.5-4-7.5-16-7.5-16-1-14.5-1-14.5 1.5-10.5 1.5-10.5 5-9 5-9 11-4 11-4v-.5-.5l4-10.5 4-10.5-5.5-6-5.5-6-5.5-9.5-5.5-9.5v-.5-.5l-.5-1.5-.5-1.5-.5-1.5-.5-1.5-1.5-1-1.5-1-1-1-1-1-1-1-1-1-.5-2-.5-2-1-1-1-1v-2.5-2.5l-.5-1.5-.5-1.5.5-2.5.5-2.5 5-10.5 5-10.5 5-8.5 5-8.5 17.5-4.5 17.5-4.5h12.5 12.5l9.5-6 9.5-6 3.5-6 3.5-6-1.5-7-1.5-7-.5-4-.5-4-5.5.5-5.5.5-2.5-9-2.5-9 5.5-9 5.5-9h2.5 2.5l6.5 4 6.5 4 6.5 3 6.5 3 4-2.5 4-2.5 6-4.5 6-4.5 1.5-5 1.5-5 5.5-7 5.5-7 2.5-6 2.5-6 2-5.5 2-5.5 3.5-9 3.5-9-4-6.5-4-6.5 1-4.5 1-4.5-2 1-2 1-2.5 1.5-2.5 1.5-4.5 4-4.5 4-4 3.5-4 3.5-5-5.5-5-5.5-7-3-7-3 .5-7.5.5-7.5-2.5-3-2.5-3-4.5-5-4.5-5-5.5-4-5.5-4-8-2-8-2-1.5-2.5-1.5-2.5-4.5-4-4.5-4-5-6.5-5-6.5-8-1.5-8-1.5-6-4-6-4-6-3-6-3-8.5-5-8.5-5-9.5-2-9.5-2-8-6-8-6-7-7-7-7-7.5-1-7.5-1-5.5-5-5.5-5-8-3.5-8-3.5 1-7 1-7-7.5-2-7.5-2-6 3-6 3-3-2-3-2-5.5-.5-5.5-.5-6.5-.5-6.5-.5-7-1-7-1-8.5-1-8.5-1-12-.5-12-.5v16.5 16.5 15.5 15.5 15.5 15.5 15.5 15.5 15.5 15.5 15.5 15.5 15.5 15.5 15.5 15.5 14 14l5.5 14 5.5 14 7 9 7 9 4.5 10 4.5 10 3 10.5 3 10.5 2.5 9 2.5 9 3 10.5 3 10.5 5.5 9 5.5 9 5.5 8 5.5 8 3.5 11 3.5 11 5 9.5 5 9.5 5 8.5 5 8.5 5 9.5 5 9.5 3 11 3 11 6 7.5 6 7.5 2.5 9 2.5 9 4.5 8 4.5 8 2 8.5 2 8.5 5 2.5 5 2.5 4 5.5 4 5.5 5 9.5 5 9.5 9 6.5 9 6.5" style="fill:#fafff3;stroke:#fafff3"/><path d="m20 702l11-8 6.5-1 6.5-1 8-4.5 8-4.5 8-3.5 8-3.5 14.5-1 14.5-1-1.5-3-1.5-3-8.5-1-8.5-1 1-5.5 1-5.5-5.5-9.5-5.5-9.5-.5-10-.5-10-2.5-11-2.5-11-3-10.5-3-10.5-4-10.5-4-10.5-4-10.5-4-10.5-4.5-10-4.5-10-3.5-8-3.5-8-3-9.5-3-9.5-3.5-9-3.5-9-3.5-10-3.5-10-6-9.5-6-9.5v1.5 1.5 2 2 2.5 2.5 2 2 2.5 2.5 2 2 2 2 2.5 2.5 1.5 1.5l5 11 5 11 4 11.5 4 11.5 3 9.5 3 9.5 3.5 9 3.5 9 2.5 11 2.5 11 4 11.5 4 11.5 2.5 10 2.5 10-2.5 7.5-2.5 7.5 4 7 4 7-1.5 4-1.5 4-8 .5-8 .5-15.5 1.5-15.5 1.5.5-1 .5-1-1.5-.5-1.5-.5v15 15 12.5 12.5l1 1 1 1 .5.5.5.5 1 1 1 1 1 .5 1 .5.5-.5.5-.5 1-1 1-1 .5 1 .5 1 .5-.5.5-.5.5-.5.5-.5h1 1 1.5 1.5l-.5.5-.5.5-.5.5-.5.5h1 1l1 .5 1 .5" style="fill:#a4b7c1;stroke:#a4b7c1"/><path d="m262 699v1l2.5-14.5 2.5-14.5-2-6.5-2-6.5-1.5-12-1.5-12 .5 19.5.5 19.5.5 13 .5 13" style="fill:#383527;stroke:#383527"/><path d="m509 690v1l6.5-11.5 6.5-11.5 1-7 1-7-.5-7.5-.5-7.5 1.5-5.5 1.5-5.5v-8-8l.5-8.5.5-8.5v-9.5-9.5l.5-10 .5-10v-11.5-11.5l-3-10-3-10-5-9-5-9-5-7-5-7-2.5-8-2.5-8-6.5-2-6.5-2 8 11.5 8 11.5 4.5 7.5 4.5 7.5 5 9.5 5 9.5 2 10 2 10 .5 12 .5 12-.5 12.5-.5 12.5v9 9l-1.5 11.5-1.5 11.5-.5 7.5-.5 7.5-1.5 10.5-1.5 10.5v4 4l-3.5 9-3.5 9" style="fill:#553c28;stroke:#553c28"/><path d="m711 663l1 1v-14.5-14.5-15.5-15.5-15.5-15.5l-2.5.5-2.5.5-7.5-.5-7.5-.5-3.5 2-3.5 2-5-1.5-5-1.5-5 2.5-5 2.5-.5 4.5-.5 4.5-1.5 7.5-1.5 7.5 2.5 9 2.5 9 8.5 5 8.5 5 3.5 2 3.5 2 4 4.5 4 4.5 3 4.5 3 4.5 3.5 5 3.5 5" style="fill:#bfbfac;stroke:#bfbfac"/><path d="m2 644l31-3 8-.5 8-.5 1.5-4 1.5-4-4-7-4-7 2.5-7.5 2.5-7.5-2.5-10-2.5-10-4-11.5-4-11.5-2.5-11-2.5-11-3.5-9-3.5-9-3-9.5-3-9.5-4-11.5-4-11.5-5-11-5-11v2 2 2 2 2.5 2.5 2 2 2.5 2.5 2 2 2.5 2.5 2 2 2 2 .5.5l4 11.5 4 11.5 3.5 10 3.5 10 1.5 10.5 1.5 10.5 3 8.5 3 8.5-1 8-1 8-1 11-1 11-8 3-8 3-2-.5-2-.5v1.5 1.5 2.5 2.5 2 2 2 2 2.5 2.5l1.5.5 1.5.5-.5 1-.5 1" style="fill:#8a9aa7;stroke:#8a9aa7"/><path d="m229 640v1l-15-9.5-15-9.5-4-11-4-11 7.5 16 7.5 16 11.5 4 11.5 4" style="fill:#dee8e2;stroke:#dee8e2"/><path d="m309 624h2l1-1 1-1v-1.5-1.5l-1-1-1-1-.5-2-.5-2-1.5-.5-1.5-.5-1.5 1-1.5 1-.5 1.5-.5 1.5.5 1.5.5 1.5 1 1.5 1 1.5 1.5.5 1.5.5" style="fill:#383527;stroke:#383527"/><path d="m4 621l16-6 1-11 1-11 1-8 1-8-3-8.5-3-8.5-1.5-10.5-1.5-10.5-3.5-10-3.5-10-4-11.5-4-11.5v15 15 15.5 15.5 9 9l4 9 4 9-4 12-4 12v1.5 1.5l2 .5 2 .5" style="fill:#7b8688;stroke:#7b8688"/><path d="m0 616v1l4-12 4-12-4-9-4-9v3 3 2 2 2.5 2.5 2 2 2.5 2.5 2 2 2 2 2.5 2.5 2 2" style="fill:#5d6664;stroke:#5d6664"/><path d="m298 616h2l1-1 1-1 .5-2 .5-2-1-1-1-1-.5-2-.5-2-1.5-.5-1.5-.5-1 1.5-1 1.5-.5 1.5-.5 1.5 1 1 1 1 .5 2 .5 2 .5.5.5.5" style="fill:#383527;stroke:#383527"/><path d="m314 586l3 1 .5-.5.5-.5h1 1l1-.5 1-.5.5-.5.5-.5.5-.5.5-.5h1 1l.5-1 .5-1 .5-.5.5-.5.5-.5.5-.5v-1-1l.5-1 .5-1v-.5-.5l5.5-10 5.5-10v-7.5-7.5l-2.5-10-2.5-10-2-10-2-10v-9-9h3.5 3.5l.5-1 .5-1 1.5-1 1.5-1 1-1 1-1 2-.5 2-.5 1.5-.5 1.5-.5 2 .5 2 .5.5-1.5.5-1.5-1-1.5-1-1.5-.5-1.5-.5-1.5-1.5-.5-1.5-.5h-2-2-1.5-1.5l-2.5.5-2.5.5-1 1-1 1-.5.5-.5.5-1 .5-1 .5-.5 1-.5 1-1.5-7.5-1.5-7.5-4.5 3.5-4.5 3.5-9.5 3.5-9.5 3.5-1-.5-1-.5-1.5-.5-1.5-.5-1.5-.5-1.5-.5-2-.5-2-.5-1.5-.5-1.5-.5-1.5.5-1.5.5h-1.5-1.5l-2.5 1-2.5 1-1 1-1 1-1 .5-1 .5-.5.5-.5.5-.5 1.5-.5 1.5-1 1-1 1v1.5 1.5l-.5 1.5-.5 1.5-1 1.5-1 1.5-1 1.5-1 1.5-2.5 7.5-2.5 7.5-3.5 12-3.5 12 8.5 12.5 8.5 12.5 8.5-6.5 8.5-6.5 6.5-7.5 6.5-7.5 6 6 6 6 1 13 1 13 1 11.5 1 11.5" style="fill:#57543b;stroke:#57543b"/><path d="m315 584l14-15-.5-11-.5-11 .5-10 .5-10-6-4.5-6-4.5-3.5-12-3.5-12-3.5-9-3.5-9 2.5 13 2.5 13 1.5 10 1.5 10 .5 14 .5 14 1 13.5 1 13.5.5 3.5.5 3.5" style="fill:#7a7252;stroke:#7a7252"/><path d="m316 582l6-17-2.5-12-2.5-12-.5 8-.5 8v12.5 12.5" style="fill:#958f6f;stroke:#958f6f"/><path d="m330 574v1l9-10 9-10-2-11-2-11-3-12-3-12 .5-14 .5-14h-3.5-3.5v9 9l2 10 2 10 2.5 10 2.5 10v7.5 7.5l-5.5 10-5.5 10" style="fill:#553c28;stroke:#553c28"/><path d="m206 566l3-22-3.5 9-3.5 9 2 2 2 2" style="fill:#171b12;stroke:#171b12"/><g style="fill:#553c28;stroke:#553c28"><path d="m215 564l29-20 3.5-8 3.5-8 3.5-12 3.5-12 2.5-7.5 2.5-7.5h-1.5-1.5l-1 .5-1 .5-.5-.5-.5-.5.5-1.5.5-1.5-1.5-1-1.5-1-4 12.5-4 12.5-3.5 7-3.5 7-3 9.5-3 9.5-3 6.5-3 6.5-9 .5-9 .5v1.5 1.5l.5 1 .5 1 .5.5.5.5 1.5 1 1.5 1"/><path d="m358 562l3 1 1-1 1-1 .5-1.5.5-1.5-1 1-1 1h-1-1v-13-13l3.5-11 3.5-11 3.5 6.5 3.5 6.5 1.5-1 1.5-1 .5-.5.5-.5v-1-1l.5-1 .5-1 6.5-.5 6.5-.5v-9-9l-6-3.5-6-3.5-4-4.5-4-4.5.5 1 .5 1v1 1l.5.5.5.5.5 1 .5 1 .5.5.5.5v1 1l.5.5.5.5v1.5 1.5l-.5.5-.5.5-.5.5-.5.5h-1-1l-1 .5-1 .5-.5.5-.5.5-.5.5-.5.5-.5.5-.5.5h-1-1l-1-1-1-1-1.5 12.5-1.5 12.5-2.5 12-2.5 12 1 6 1 6"/></g><path d="m360 560h2l1-1 1-1 6.5-9 6.5-9 6.5-9.5 6.5-9.5 1-2 1-2-6.5.5-6.5.5 4-2 4-2-4 9.5-4 9.5-8.5 11.5-8.5 11.5 6-15.5 6-15.5-3.5-6.5-3.5-6.5-3.5 11-3.5 11v13 13" style="fill:#57543b;stroke:#57543b"/><g style="fill:#7a7252;stroke:#7a7252"><path d="m362 556l17-23 4-9.5 4-9.5-4 2-4 2-.5 1-.5 1v1 1l-.5.5-.5.5-1.5 1-1.5 1-6 15.5-6 15.5"/><path d="m214 555l18-28 4.5-10 4.5-10 2-10.5 2-10.5-1 .5-1 .5.5 1.5.5 1.5v1 1l-.5.5-.5.5v1.5 1.5l-.5.5-.5.5-.5.5-.5.5v1 1l-.5 1-.5 1v1 1l-.5.5-.5.5-.5.5-.5.5v1.5 1.5l-.5.5-.5.5v1 1l-1 .5-1 .5-.5 1-.5 1-.5 2-.5 2-1 1-1 1-.5 2-.5 2-1 1-1 1-1 1.5-1 1.5-1 2-1 2-.5 1.5-.5 1.5-.5 1.5-.5 1.5-.5 1-.5 1-.5.5-.5.5-.5 1.5-.5 1.5-.5 1-.5 1v1 1l-1 1-1 1h-1.5-1.5l-.5-.5-.5-.5v-2-2l-.5 1.5-.5 1.5.5 2 .5 2 1 .5 1 .5"/></g><path d="m261 551l3 1 1-1 1-1 1.5-1 1.5-1 1-1 1-1 .5-.5.5-.5-1 .5-1 .5-1.5.5-1.5.5-1 1.5-1 1.5-1.5-.5-1.5-.5-1.5-13-1.5-13 5-17 5-17-4.5 11.5-4.5 11.5-1 12.5-1 12.5 1.5 7 1.5 7" style="fill:#dee8e2;stroke:#dee8e2"/><path d="m262 549l3 1 1-1.5 1-1.5 1.5-.5 1.5-.5 1-.5 1-.5 1.5-1.5 1.5-1.5 1-1 1-1 1.5-1 1.5-1h.5.5v-.5-.5l3.5-7 3.5-7 3-7.5 3-7.5 3-2 3-2-1.5-8.5-1.5-8.5-12.5-1.5-12.5-1.5-.5 1-.5 1-.5 1.5-.5 1.5h-.5-.5l-5 17-5 17 1.5 13 1.5 13" style="fill:#fafff3;stroke:#fafff3"/><path d="m214 546h2l.5-.5.5-.5.5-.5.5-.5v-1-1l.5-1 .5-1 .5-.5.5-.5.5-.5.5-.5v-1-1l1-1 1-1v-.5-.5l.5-1.5.5-1.5.5-1 .5-1 .5-1.5.5-1.5-1 1.5-1 1.5-1 1-1 1-.5 2-.5 2-1 1-1 1-.5 1.5-.5 1.5-.5-1-.5-1-1 1-1 1-.5 2-.5 2v1.5 1.5" style="fill:#bfbfac;stroke:#bfbfac"/><path d="m350 541l10-19 .5-12 .5-12-6.5 8-6.5 8v11.5 11.5l1 2 1 2" style="fill:#171b12;stroke:#171b12"/><path d="m281 537v1l7-8 7-8 4.5-6 4.5-6v-.5-.5l-2-12.5-2-12.5-7.5-7-7.5-7-1.5.5-1.5.5-1.5.5-1.5.5-1.5 1-1.5 1-.5 1.5-.5 1.5-1 1.5-1 1.5-.5 1.5-.5 1.5v.5.5l12.5 1.5 12.5 1.5 1.5 8.5 1.5 8.5-3 2-3 2-3 7.5-3 7.5-3.5 7-3.5 7" style="fill:#dee8e2;stroke:#dee8e2"/><path d="m223 533v1h.5.5l1-2 1-2 1-1.5 1-1.5 1-1 1-1 .5-2 .5-2 1-1 1-1 .5-2 .5-2 .5-1 .5-1v-.5-.5l.5-1.5.5-1.5.5-1.5.5-1.5.5-2 .5-2 .5-1.5.5-1.5 1-1.5 1-1.5.5-1.5.5-1.5v-2.5-2.5h-1.5-1.5l-6 17.5-6 17.5-.5 1-.5 1-.5 1.5-.5 1.5-.5 1-.5 1-.5 1.5-.5 1.5" style="fill:#a8a589;stroke:#a8a589"/><path d="m224 523v1l1-1 1-1 .5-1 .5-1 .5-1 .5-1 .5-.5.5-.5.5-1 .5-1 .5-1.5.5-1.5.5-.5.5-.5v-1.5-1.5l1-1 1-1v-1-1l.5-.5.5-.5v-1-1l.5-2 .5-2v-.5-.5l-13-12.5-13-12.5 5.5 9.5 5.5 9.5 5.5 6 5.5 6-4 10.5-4 10.5" style="fill:#dee8e2;stroke:#dee8e2"/><path d="m227 522v1l6-17.5 6-17.5-1 .5-1 .5.5 1.5.5 1.5-.5 1.5-.5 1.5-.5 1-.5 1-.5 2-.5 2v1 1l-.5.5-.5.5v1 1l-1 1-1 1v1.5 1.5l-.5.5-.5.5-.5 1.5-.5 1.5-.5 1-.5 1-.5.5-.5.5-.5 1-.5 1v1 1" style="fill:#bfbfac;stroke:#bfbfac"/><path d="m235 512v1l1-.5 1-.5v-1-1l.5-.5.5-.5v-1.5-1.5l.5-.5.5-.5.5-.5.5-.5v-1-1l.5-1 .5-1v-1-1l.5-.5.5-.5.5-.5.5-.5v-1.5-1.5l.5-.5.5-.5v-1-1l-.5-1.5-.5-1.5-.5.5-.5.5v2.5 2.5l-.5 1.5-.5 1.5-1 1.5-1 1.5-.5 1.5-.5 1.5-.5 2-.5 2-.5 1.5-.5 1.5-.5 1.5-.5 1.5" style="fill:#958f6f;stroke:#958f6f"/><path d="m343 510l14-13-3-9.5-3-9.5-5 7.5-5 7.5 1 8.5 1 8.5" style="fill:#171b12;stroke:#171b12"/><path d="m304 509v1h.5.5v-.5-.5-2.5-2.5l-.5-1.5-.5-1.5v-2.5-2.5-2-2-2.5-2.5l-1-1-1-1-.5-2-.5-2-1-2-1-2-1-.5-1-.5-1.5-.5-1.5-.5-1-1.5-1-1.5-1-1-1-1-2-.5-2-.5-.5.5-.5.5 7.5 7 7.5 7 2 12.5 2 12.5" style="fill:#ccd4cb;stroke:#ccd4cb"/><path d="m305 509v1l.5-1 .5-1v-2-2l-.5-2-.5-2v-2-2-2.5-2.5-2-2l-.5-2-.5-2-1-1-1-1-.5-1.5-.5-1.5-1-.5-1-.5 1 2 1 2 .5 2 .5 2 1 1 1 1v2.5 2.5 2 2 2.5 2.5l.5 1.5.5 1.5v2.5 2.5" style="fill:#bfbfac;stroke:#bfbfac"/><path d="m366 503h2l.5-.5.5-.5.5-.5.5-.5.5-.5.5-.5 1-.5 1-.5h1 1l.5-.5.5-.5.5-.5.5-.5v-1.5-1.5l-.5-.5-.5-.5v-1-1l-.5-.5-.5-.5-.5-1-.5-1-.5-.5-.5-.5v-1-1l-.5-1-.5-1-1-2-1-2-1.5-.5-1.5-.5h-1.5-1.5l-1 1-1 1-.5 2-.5 2v2 2 2.5 2.5l.5 1.5.5 1.5.5 1.5.5 1.5.5 1 .5 1 1 1 1 1" style="fill:#57543b;stroke:#57543b"/><path d="m236 496v1l.5-1 .5-1 .5-1.5.5-1.5-.5-1.5-.5-1.5 1-.5 1-.5h1.5 1.5l.5-.5.5-.5 1-.5 1-.5-1-1-1-1-14-2.5-14-2.5-1-10-1-10-4.5-8-4.5-8 3.5-10 3.5-10 4-9 4-9 1.5-.5 1.5-.5h2 2 1 1 1 1 1 1l2 .5 2 .5 1.5-.5 1.5-.5h1.5 1.5 2 2l.5-.5.5-.5 1-.5 1-.5 1-1 1-1 .5-.5.5-.5.5-1 .5-1h2 2 1 1 1 1l.5.5.5.5h2.5 2.5 2 2 1.5 1.5l.5-.5.5-.5h1 1 2 2l10.5-7 10.5-7 1.5-1 1.5-1 1.5-.5 1.5-.5 2-.5 2-.5 1-1 1-1v-.5-.5l1.5-11 1.5-11 6-9.5 6-9.5 10.5-7 10.5-7 1.5-1 1.5-1 1.5-1 1.5-1 1-1 1-1 1.5-.5 1.5-.5.5-1 .5-1 10.5-4 10.5-4 13.5-2 13.5-2 17 10 17 10 1 2 1 2 1.5 1.5 1.5 1.5 1 .5 1 .5v1 1l.5.5.5.5.5 1 .5 1 .5.5.5.5.5.5.5.5.5.5.5.5.5 1 .5 1 .5.5.5.5.5.5.5.5v1 1l1 .5 1 .5 1 1 1 1 .5-.5.5-.5-1-1-1-1-.5-.5-.5-.5-.5-1-.5-1-1-1-1-1-.5-.5-.5-.5v-1-1l-.5-1-.5-1-.5-.5-.5-.5-.5-1-.5-1-.5-.5-.5-.5-.5-.5-.5-.5-.5-.5-.5-.5-.5-1-.5-1-.5-.5-.5-.5-.5-.5-.5-.5v-1-1l-.5-.5-.5-.5-.5-.5-.5-.5-.5-1-.5-1-.5-.5-.5-.5-.5-.5-.5-.5-.5-1-.5-1-8-7-8-7h-12.5-12.5l-12.5 2-12.5 2 12-2.5 12-2.5 13-.5 13-.5 11.5 11.5 11.5 11.5 8 5.5 8 5.5 8-6.5 8-6.5 10.5-4 10.5-4 12 1.5 12 1.5 10 4 10 4 8.5 5.5 8.5 5.5 9.5 3.5 9.5 3.5 7 5 7 5 8.5 1.5 8.5 1.5 3.5 3 3.5 3 3.5 3 3.5 3 7.5 5 7.5 5 9 4 9 4 5 7 5 7 8.5 4.5 8.5 4.5 6 5 6 5 4.5.5 4.5.5 2 1 2 1v-16.5-16.5-15.5-15.5-15.5-15.5-15.5-15.5-15.5-15.5-15.5-15.5-8-8l-.5 3-.5 3v2 2 2 2 2.5 2.5 2 2 2.5 2.5 2 2 2.5 2.5 2 2l-.5.5-.5.5v-16-16-14.5-14.5l-.5-12.5-.5-12.5-2.5-7-2.5-7-6-1-6-1-1.5-6.5-1.5-6.5-.5-1.5-.5-1.5-4.5.5-4.5.5-5.5-6.5-5.5-6.5-1.5-4.5-1.5-4.5-6.5-3-6.5-3-3-3.5-3-3.5-3.5-7-3.5-7-6.5-2.5-6.5-2.5-.5 1-.5 1-.5 1.5-.5 1.5 1 1 1 1 .5 1 .5 1-.5 1.5-.5 1.5h-1-1l-1-1-1-1-.5-.5-.5-.5v-1-1-1-1l-.5-1-.5-1v-1-1l-.5-.5-.5-.5.5-.5.5-.5.5-.5.5-.5.5 1 .5 1h2 2l-5.5-7-5.5-7-1-6.5-1-6.5-.5-8-.5-8-6.5 3-6.5 3-1-5.5-1-5.5.5-3 .5-3-8-3.5-8-3.5-6-6.5-6-6.5-1.5-5-1.5-5h-16-16-15.5-15.5-16-16-15.5-15.5-15.5-15.5-15.5-15.5-15.5-15.5-15.5-15.5-15.5-15.5-15.5-15.5-12-12l5.5 3 5.5 3-7 2-7 2v1.5 1.5l5 .5 5 .5-2 6.5-2 6.5h4.5 4.5l3.5-2 3.5-2 2.5 7 2.5 7 2.5 1 2.5 1-8 5.5-8 5.5 2 4.5 2 4.5-2.5 4-2.5 4 6.5-.5 6.5-.5 1.5-1 1.5-1 1.5 5 1.5 5-2 4.5-2 4.5 6 .5 6 .5.5 8 .5 8 5 .5 5 .5 6 3.5 6 3.5 4 .5 4 .5 5.5 7 5.5 7 6 3.5 6 3.5 4.5-1 4.5-1 5.5 3 5.5 3 5-1.5 5-1.5 7 1.5 7 1.5h3.5 3.5l6 2 6 2 6.5 2.5 6.5 2.5 4 4.5 4 4.5 6 2.5 6 2.5 4.5 2 4.5 2 3 1 3 1 3 5 3 5 5-.5 5-.5 4-1.5 4-1.5 6 4.5 6 4.5 7 3 7 3-.5 5.5-.5 5.5 6 2.5 6 2.5 5 1.5 5 1.5 3.5 5.5 3.5 5.5-6 7-6 7 7.5 5 7.5 5 6 6.5 6 6.5 4 2.5 4 2.5 5.5.5 5.5.5 4 7 4 7 3-3.5 3-3.5-1.5 8-1.5 8-5.5 2-5.5 2-.5 2.5-.5 2.5h-9-9l-9.5 4-9.5 4-10.5 3-10.5 3-9.5 3-9.5 3-9 4-9 4-7-8-7-8-11.5-4-11.5-4-12.5 3-12.5 3-12.5 3-12.5 3-8.5 5.5-8.5 5.5-8.5 6.5-8.5 6.5-8 7.5-8 7.5-2 12.5-2 12.5-6.5 7-6.5 7-15.5 5.5-15.5 5.5-2-1-2-1h-2-2-2.5-2.5l-17.5 4.5-17.5 4.5-5 8.5-5 8.5-5 10.5-5 10.5v1.5 1.5 1 1l.5 1 .5 1v2 2l.5.5.5.5v1 1l.5.5.5.5.5 1 .5 1 1 1 1 1 .5.5.5.5.5 1 .5 1 1 1 1 1 .5.5.5.5.5 1 .5 1 .5 1.5.5 1.5-.5 1-.5 1 13 12.5 13 12.5" style="fill:#ccd4cb;stroke:#ccd4cb"/><path d="m230 483l36-15h5 5l2.5-1 2.5-1 11.5-5 11.5-5 3.5-10.5 3.5-10.5 7-8 7-8-.5-9.5-.5-9.5-3.5-2.5-3.5-2.5-11 2-11 2 4.5 5 4.5 5 1 7.5 1 7.5-4.5 3-4.5 3-5.5-1.5-5.5-1.5-7-7-7-7 4.5 7.5 4.5 7.5-4.5 5.5-4.5 5.5-4-3-4-3-5.5-8-5.5-8-6.5-3-6.5-3-5 2.5-5 2.5-5 5-5 5-3.5 7.5-3.5 7.5-.5 7.5-.5 7.5 4.5 8 4.5 8 4.5 5.5 4.5 5.5" style="fill:#171b12;stroke:#171b12"/><path d="m711 479l1 1v-14.5-14.5-15.5-15.5-1.5-1.5l-2-1-2-1-4.5-.5-4.5-.5-6-5-6-5-8.5-4.5-8.5-4.5-5-7-5-7-9-4-9-4-7.5-5-7.5-5-3.5-3-3.5-3-3.5-3-3.5-3-8.5-1.5-8.5-1.5-7-5-7-5-9.5-3.5-9.5-3.5-8.5-5.5-8.5-5.5-10-4-10-4-12-1.5-12-1.5-10.5 4-10.5 4-8 6.5-8 6.5-8-5.5-8-5.5 14 5 14 5 9-6.5 9-6.5 12.5 1 12.5 1 10 5.5 10 5.5 8 7 8 7 7.5 5.5 7.5 5.5 7 8.5 7 8.5 6.5 8 6.5 8 4.5 7 4.5 7 4 6 4 6 7 6 7 6 8.5 6 8.5 6 9.5 6 9.5 6 7.5 4.5 7.5 4.5 8 6 8 6 7.5 4.5 7.5 4.5" style="fill:#bfbfac;stroke:#bfbfac"/><path d="m333 471l1-2 1-.5 1-.5.5-.5.5-.5 1-1 1-1 3.5-19.5 3.5-19.5-.5-14-.5-14-5 8.5-5 8.5-3.5 9-3.5 9-1-1-1-1 .5-.5.5-.5 1-.5 1-.5v-1-1l-.5-.5-.5-.5.5-.5.5-.5v-1.5-1.5-1-1l-.5-1.5-.5-1.5-.5 2-.5 2-1 1-1 1-2.5.5-2.5.5 1 .5 1 .5.5 1 .5 1-.5 1.5-.5 1.5-.5.5-.5.5v1.5 1.5l-1 1-1 1h-1-1v-1.5-1.5-1-1l.5-1.5.5-1.5v-1.5-1.5l-3 12.5-3 12.5-5 10-5 10 9.5-3.5 9.5-3.5 4.5-3.5 4.5-3.5 1.5 7.5 1.5 7.5" style="fill:#553c28;stroke:#553c28"/><path d="m210 470v1l.5-1 .5-1-.5-1.5-.5-1.5-.5-1-.5-1-.5-.5-.5-.5-1-1-1-1-.5-1-.5-1-.5-.5-.5-.5-1-1-1-1-.5-1-.5-1-.5-.5-.5-.5v-1-1l-.5-.5-.5-.5v-2-2l-.5-1-.5-1v-1-1-1.5-1.5l-.5 2.5-.5 2.5.5 1.5.5 1.5v2.5 2.5l1 1 1 1 .5 2 .5 2 1 1 1 1 1 1 1 1 1.5 1 1.5 1 .5 1.5.5 1.5.5 1.5.5 1.5" style="fill:#dee8e2;stroke:#dee8e2"/><path d="m357 464l11-16v-13.5-13.5l-2.5-10.5-2.5-10.5-6-7-6-7-8.5-3.5-8.5-3.5-1.5 4-1.5 4 9 2.5 9 2.5.5 11 .5 11-1.5 11-1.5 11-.5 8-.5 8-1 6-1 6h1.5 1.5l2-.5 2-.5h2 2l1 .5 1 .5" style="fill:#171b12;stroke:#171b12"/><path d="m394 458l18-7 4.5-10 4.5-10-7.5-7-7.5-7h-9.5-9.5l1.5 9 1.5 9 1 8.5 1 8.5 1 3 1 3" style="fill:#553c28;stroke:#553c28"/><path d="m466 445l13-22-10-1.5-10-1.5-1 1-1 1 .5 1 .5 1 1-.5 1-.5 1-1 1-1 .5-.5.5-.5h1.5 1.5l1 1 1 1 .5.5.5.5.5.5.5.5.5.5.5.5.5 1 .5 1v1 1 1 1l.5.5.5.5-.5 1-.5 1v1 1l-.5.5-.5.5-.5.5-.5.5-.5 1-.5 1-1 1-1 1h-1-1l-1-.5-1-.5-1.5-.5-1.5-.5-1.5-.5-1.5-.5-1-.5-1-.5-1.5-.5-1.5-.5-.5-1-.5-1 .5-1.5.5-1.5 1-2 1-2-1 .5-1 .5-.5.5-.5.5-.5.5-.5.5v1 1l-1 .5-1 .5v1 1l-.5.5-.5.5.5.5.5.5 1 .5 1 .5h1 1l.5.5.5.5h1 1l.5.5.5.5h1 1 1.5 1.5l.5.5.5.5.5.5.5.5.5.5.5.5 1 .5 1 .5" style="fill:#5d6664;stroke:#5d6664"/><path d="m465 442h2l1-1 1-1 .5-1 .5-1 .5-.5.5-.5.5-.5.5-.5v-1-1l.5-1 .5-1-.5-.5-.5-.5v-1-1-1-1l-.5-1-.5-1-.5-.5-.5-.5-.5-.5-.5-.5-.5-.5-.5-.5-1-1-1-1h-1.5-1.5l-.5.5-.5.5-1 1-1 1 2 .5 2 .5 1 1 1 1 .5 2 .5 2v2 2l-.5 2-.5 2h-2-2l-2-.5-2-.5-1-.5-1-.5-1-1.5-1-1.5.5-1.5.5-1.5 1-1.5 1-1.5 1-1 1-1 .5-1 .5-1-1 .5-1 .5-.5-1-.5-1-1 1-1 1-.5 1-.5 1v1 1l-1 2-1 2-.5 1.5-.5 1.5.5 1 .5 1 1.5.5 1.5.5 1 .5 1 .5 1.5.5 1.5.5 1.5.5 1.5.5 1 .5 1 .5" style="fill:#7b8688;stroke:#7b8688"/><path d="m458 437l4 1h2 2l.5-2 .5-2v-2-2l-.5-2-.5-2-1-1-1-1-2-.5-2-.5-.5 1-.5 1-1 1-1 1-1 1.5-1 1.5-.5 1.5-.5 1.5 1 1.5 1 1.5 1 .5 1 .5" style="fill:#8a9aa7;stroke:#8a9aa7"/><g style="fill:#57543b;stroke:#57543b"><path d="m317 436h2l1-1 1-1v-1.5-1.5l.5-.5.5-.5.5-1.5.5-1.5-.5-1-.5-1-1-.5-1-.5-1 .5-1 .5v1.5 1.5l-.5 1.5-.5 1.5v1 1 1.5 1.5"/><path d="m328 433l7-18 5-8.5 5-8.5-7.5-3-7.5-3-1 12.5-1 12.5.5 1.5.5 1.5v1 1 1.5 1.5l-.5.5-.5.5.5.5.5.5v1 1l-1 .5-1 .5-.5.5-.5.5 1 1 1 1"/><path d="m440 433l8-15-4.5 6-4.5 6 .5 1.5.5 1.5"/></g><path d="m441 429h2l1.5-.5 1.5-.5 1-1.5 1-1.5v-2-2l-1-1.5-1-1.5-1.5.5-1.5.5-2 .5-2 .5-.5 1.5-.5 1.5v1 1l1 1.5 1 1.5.5.5.5.5" style="fill:#5d6664;stroke:#5d6664"/><path d="m452 416l12-17-.5-12-.5-12-2.5-12-2.5-12-7-8.5-7-8.5-5.5-6-5.5-6-8.5-5-8.5-5-10 1.5-10 1.5-7.5 2-7.5 2-9.5 4-9.5 4-6 5.5-6 5.5 3.5 2 3.5 2-5.5 9.5-5.5 9.5 3 9.5 3 9.5 6.5 6 6.5 6 7.5 8 7.5 8 4.5-1 4.5-1 11 .5 11 .5 4-5.5 4-5.5 6 4.5 6 4.5 10 4.5 10 4.5.5 1 .5 1" style="fill:#171b12;stroke:#171b12"/><path d="m331 414l8-17-4.5 3-4.5 3 .5 5.5.5 5.5" style="fill:#7a7252;stroke:#7a7252"/><g style="fill:#57543b;stroke:#57543b"><path d="m258 412l2-7 10.5-4 10.5-4h-2-2-1-1l-.5.5-.5.5h-1.5-1.5-2-2l-1.5.5-1.5.5-1.5-.5-1.5-.5-1.5 1-1.5 1-1.5.5-1.5.5-.5 2-.5 2-1 1-1 1-1.5-.5-1.5-.5h-2.5-2.5l-1.5-.5-1.5-.5h-2.5-2.5l-2-.5-2-.5h-1-1-1-1-1-1-2-2l-1.5.5-1.5.5h2.5 2.5 1.5 1.5 1 1l1.5.5 1.5.5h1.5 1.5 1 1l.5.5.5.5h1 1l1 .5 1 .5h1 1 1 1l.5.5.5.5 1 .5 1 .5h1 1l.5.5.5.5h1 1l2 .5 2 .5"/><path d="m285 408l23-13-3-6-3-6-10.5 7-10.5 7 2.5.5 2.5.5.5 1.5.5 1.5-1 1.5-1 1.5-.5 1-.5 1 .5 1 .5 1"/></g><path d="m249 406l3 1 1-1 1-1 .5-2 .5-2 1.5-.5 1.5-.5 1.5-1 1.5-1 1.5.5 1.5.5 1.5-.5 1.5-.5h-2.5-2.5l-.5-.5-.5-.5h-1-1-1-1-2-2l-.5 1-.5 1-.5.5-.5.5-1 1-1 1-1 .5-1 .5-.5.5-.5.5h-2-2-1.5-1.5l-1.5.5-1.5.5h2.5 2.5l1.5.5 1.5.5h2.5 2.5" style="fill:#7a7252;stroke:#7a7252"/><path d="m266 394l31-11 6.5-7 6.5-7 2-12.5 2-12.5 8-7.5 8-7.5 8.5-6.5 8.5-6.5 8.5-5.5 8.5-5.5 12.5-3 12.5-3 12.5-3 12.5-3 11.5 4 11.5 4 7 8 7 8 9-4 9-4 9.5-3 9.5-3 10.5-3 10.5-3 9.5-4 9.5-4h9 9l.5-2.5.5-2.5 5.5-2 5.5-2 1.5-8 1.5-8-3 3.5-3 3.5-4-7-4-7-5.5-.5-5.5-.5-4-2.5-4-2.5-6-6.5-6-6.5-7.5-5-7.5-5 6-7 6-7-3.5-5.5-3.5-5.5-5-1.5-5-1.5-6-2.5-6-2.5.5-5.5.5-5.5-7-3-7-3-6-4.5-6-4.5-4 1.5-4 1.5-5 .5-5 .5-3-5-3-5-3-1-3-1-4.5-2-4.5-2-6-2.5-6-2.5-4-4.5-4-4.5-6.5-2.5-6.5-2.5-6-2-6-2h-3.5-3.5l-7-1.5-7-1.5-5 1.5-5 1.5-5.5-3-5.5-3-4.5 1-4.5 1-6-3.5-6-3.5-5.5-7-5.5-7-4-.5-4-.5-6-3.5-6-3.5-5-.5-5-.5-.5-8-.5-8-6-.5-6-.5 2-4.5 2-4.5-1.5-5-1.5-5-1.5 1-1.5 1-6.5.5-6.5.5 2.5-4 2.5-4-2-4.5-2-4.5 8-5.5 8-5.5-2.5-1-2.5-1-2.5-7-2.5-7-3.5 2-3.5 2h-4.5-4.5l2-6.5 2-6.5-5-.5-5-.5v-1.5-1.5l7-2 7-2-5.5-3-5.5-3h-16-16-15.5-15.5-15.5-15.5-16-16-15.5-15.5-15.5-15.5-15.5-15.5-6-6v9.5 9.5 15.5 15.5 4.5 4.5l12 .5 12 .5 8.5 1 8.5 1 7 1 7 1 6.5.5 6.5.5 5.5.5 5.5.5 3 2 3 2 6-3 6-3 7.5 2 7.5 2-1 7-1 7 8 3.5 8 3.5 5.5 5 5.5 5 7.5 1 7.5 1 7 7 7 7 8 6 8 6 9.5 2 9.5 2 8.5 5 8.5 5 6 3 6 3 6 4 6 4 8 1.5 8 1.5 5 6.5 5 6.5 4.5 4 4.5 4 1.5 2.5 1.5 2.5 8 2 8 2 5.5 4 5.5 4 4.5 5 4.5 5 2.5 3 2.5 3-.5 7.5-.5 7.5 7 3 7 3 5 5.5 5 5.5 4-3.5 4-3.5 4.5-4 4.5-4 2.5-1.5 2.5-1.5 2-1 2-1-1 4.5-1 4.5 4 6.5 4 6.5-3.5 9-3.5 9-2 5.5-2 5.5-2.5 6-2.5 6-5.5 7-5.5 7-1.5 5-1.5 5-6 4.5-6 4.5-4 2.5-4 2.5-6.5-3-6.5-3-6.5-4-6.5-4h-2.5-2.5l-5.5 9-5.5 9 2.5 9 2.5 9 5.5-.5 5.5-.5.5 4 .5 4 1.5 7 1.5 7-3.5 6-3.5 6-9.5 6-9.5 6h-12.5-12.5 2.5 2.5 2 2l2 1 2 1" style="fill:#dee8e2;stroke:#dee8e2"/><path d="m314 376v1l3-13.5 3-13.5 6.5-8 6.5-8 8.5-6.5 8.5-6.5-10.5 7-10.5 7-6 9.5-6 9.5-1.5 11-1.5 11" style="fill:#57543b;stroke:#57543b"/><path d="m498 356l3 1-8.5-7-8.5-7-9.5.5-9.5.5h-.5-.5l-.5.5-.5.5 17.5 5.5 17.5 5.5" style="fill:#5d6664;stroke:#5d6664"/><path d="m467 344l3 1 .5-.5.5-.5.5-.5.5-.5.5-.5.5-.5.5-1 .5-1h1 1l.5-.5.5-.5.5-.5.5-.5 1-1 1-1-1-.5-1-.5-1.5 1-1.5 1-1.5.5-1.5.5h-.5-.5l-1 .5-1 .5-1.5.5-1.5.5-1.5.5-1.5.5-1-1.5-1-1.5-1-1-1-1-1-1-1-1v1 1l.5.5.5.5 1 1 1 1 .5 1 .5 1 .5.5.5.5 1 1 1 1h.5.5 1 1" style="fill:#7b8688;stroke:#7b8688"/><path d="m443 319l1 1-17-10-17-10-13.5 2-13.5 2-10.5 4-10.5 4 19-4.5 19-4.5 12.5 1 12.5 1 9 7 9 7" style="fill:#57543b;stroke:#57543b"/><path d="m448 318l1 1-11.5-11.5-11.5-11.5-13 .5-13 .5-12 2.5-12 2.5 12.5-2 12.5-2h12.5 12.5l8 7 8 7 1.5 1 1.5 1 .5 1 .5 1 1 1 1 1" style="fill:#bfbfac;stroke:#bfbfac"/><path d="m375 274l7-6-4 2.5-4 2.5.5.5.5.5" style="fill:#fafff3;stroke:#fafff3"/><g style="fill:#bfbfac;stroke:#bfbfac"><path d="m710 255l1-1v-2-2-2.5-2.5-2-2-2.5-2.5-2-2-2.5-2.5-2-2-2-2l.5-3 .5-3v-14.5-14.5-15.5-15.5-15.5-15.5-15.5-15.5-15.5-15.5-15.5-15.5-14.5-14.5h-1-1-15.5-15.5-15.5-15.5-16-16-15.5-15.5-9-9l1.5 5 1.5 5 6 6.5 6 6.5 8 3.5 8 3.5-.5 3-.5 3 1 5.5 1 5.5 6.5-3 6.5-3 .5 8 .5 8 1 6.5 1 6.5 5.5 7 5.5 7 6.5 2.5 6.5 2.5 3.5 7 3.5 7 3 3.5 3 3.5 6.5 3 6.5 3 1.5 4.5 1.5 4.5 5.5 6.5 5.5 6.5 4.5-.5 4.5-.5.5 1.5.5 1.5 1.5 6.5 1.5 6.5 6 1 6 1 2.5 7 2.5 7 .5 12.5.5 12.5v14.5 14.5 16 16"/><path d="m624 96h2l.5-1.5.5-1.5-.5-1-.5-1-1-1-1-1 .5-1.5.5-1.5.5-1 .5-1h-2-2l-.5-1-.5-1-.5.5-.5.5-.5.5-.5.5.5.5.5.5v1 1l.5 1 .5 1v1 1 1 1l.5.5.5.5 1 1 1 1"/></g><path d="m264 52h2v-2-2l-2-.5-2-.5.5-1.5.5-1.5-.5-1-.5-1-1 1-1 1-1 1.5-1 1.5-1.5.5-1.5.5h2 2l1.5 1 1.5 1 1 1 1 1" style="fill:#dee8e2;stroke:#dee8e2"/><path d="m586 45l3 1v-2-2l.5-1 .5-1-.5-1.5-.5-1.5-1.5-1-1.5-1-.5 1.5-.5 1.5-2 .5-2 .5.5 1.5.5 1.5 1 1 1 1 1 .5 1 .5" style="fill:#bfbfac;stroke:#bfbfac"/></g></svg>