<svg xmlns="http://www.w3.org/2000/svg" viewBox="0 0 960 712"><path d="m0 0h960v712h-960z" style="fill:#c1fff3"/><g style="stroke-linejoin:round;stroke-width:.7"><path d="m959 712h1v-19-19-17.5-17.5h-.5-.5l-18 2-18 2-17.5 2-17.5 2-16.5 1.5-16.5 1.5-16 1-16 1-17.5 2-17.5 2-16.5 1.5-16.5 1.5-30.5 3-30.5 3-16.5 2-16.5 2-16 2-16 2-21.5 2-21.5 2-.5.5-.5.5-14.5 4.5-14.5 4.5-9 7.5-9 7.5-8.5 2.5-8.5 2.5-10-3.5-10-3.5-8.5-1.5-8.5-1.5-11.5-2.5-11.5-2.5-16.5 1.5-16.5 1.5-21.5 2-21.5 2-.5.5-.5.5h-3-3-2.5-2.5l-1.5.5-1.5.5h-2.5-2.5-2-2l-2 .5-2 .5h-2-2l-1.5.5-1.5.5-2 .5-2 .5h-3-3l-17.5 1.5-17.5 1.5-19.5 2.5-19.5 2.5h20.5 20.5 20 20 20 20 19.5 19.5 18 18 18 18 19.5 19.5 18 18 18 18 19.5 19.5 18 18 18 18 19.5 19.5 18 18 18 18 19.5 19.5 18 18 18 18 8.5 8.5" style="fill:#c1823e;stroke:#c1823e"/><path d="m959 639h1v-.5-.5h-.5-.5l-17.5 2-17.5 2-20.5 1-20.5 1-2 1-2 1h-2-2l-2 .5-2 .5h-2-2l-.5.5-.5.5h-2.5-2.5l-.5.5-.5.5h-1-1-1-1-1.5-1.5-1-1-1-1-1-1-1.5-1.5-1-1l-.5.5-.5.5h-1-1-1.5-1.5-2-2l-16.5 2-16.5 2-17 1-17 1-22 2.5-22 2.5-2 .5-2 .5h-2-2l-.5.5-.5.5h-1.5-1.5-2-2l-2 .5-2 .5h-2-2l-1.5.5-1.5.5 30.5-3 30.5-3 16.5-1.5 16.5-1.5 17.5-2 17.5-2 16-1 16-1 16.5-1.5 16.5-1.5 17.5-2 17.5-2 18-2 18-2" style="fill:#9a662b;stroke:#9a662b"/><path d="m959 638h1v-19-19-12.5-12.5h-.5-.5l-15 3.5-15 3.5-4 1-4 1 8 4 8 4-1 7.5-1 7.5 4 10 4 10-7.5 4.5-7.5 4.5-7 .5-7 .5-15.5 3.5-15.5 3.5 20.5-1 20.5-1 17.5-2 17.5-2" style="fill:#954d03;stroke:#954d03"/><path d="m959 575h1v-1.5-1.5-1.5-1.5h-.5-.5l-17 2-17 2-16 2-16 2-16.5 2-16.5 2-31 4.5-31 4.5-.5.5-.5.5-16.5 2-16.5 2-16.5 2-16.5 2-27.5 3.5-27.5 3.5h-.5-.5l-17.5 2-17.5 2-25 3.5-25 3.5-13.5 5.5-13.5 5.5 7.5-6 7.5-6h-1.5-1.5l-1 1-1 1h-1.5-1.5l-1 1-1 1-2 .5-2 .5-1 1-1 1-2 .5-2 .5-1.5.5-1.5.5-2 1-2 1v1 1 .5.5l1 1 1 1 1 1.5 1 1.5h1.5 1.5l1.5.5 1.5.5.5-1.5.5-1.5 1.5-.5 1.5-.5.5-1 .5-1 1-1 1-1 1.5-1 1.5-1 1.5-.5 1.5-.5 1.5-1 1.5-1 1 .5 1 .5h1.5 1.5l.5 1 .5 1h1 1 1 1v1.5 1.5l-.5 2-.5 2v1.5 1.5l9.5-6.5 9.5-6.5 9.5-2.5 9.5-2.5 8.5 2.5 8.5 2.5 3 10 3 10 7 10.5 7 10.5 26-1 26-1h2 2l2-.5 2-.5 14-4 14-4 11 .5 11 .5 14.5-3.5 14.5-3.5 9.5-4.5 9.5-4.5-2-8.5-2-8.5 8-2 8-2 3 14 3 14-1 .5-1 .5-1 .5-1 .5-.5.5-.5.5v.5.5h2 2l1.5-.5 1.5-.5h2 2 1.5 1.5 2 2l2-.5 2-.5-7.5-11-7.5-11-6.5-11.5-6.5-11.5 7-4 7-4 6.5 12 6.5 12 6 14 6 14 1 .5 1 .5h2 2l2-.5 2-.5h2 2l2-1 2-1 15.5-3.5 15.5-3.5 7-.5 7-.5 7.5-4.5 7.5-4.5-4-10-4-10 1-7.5 1-7.5-8-4-8-4 4-1 4-1 15-3.5 15-3.5" style="fill:#603107;stroke:#603107"/><path d="m959 569h1v-.5-.5h-.5-.5l-17 2-17 2-16 2-16 2-16 2-16 2-17.5 2-17.5 2-21.5 3.5-21.5 3.5h2 2l2-.5 2-.5h2 2 1.5 1.5l31-4.5 31-4.5 16.5-2 16.5-2 16-2 16-2 17-2 17-2" style="fill:#9a662b;stroke:#9a662b"/><path d="m959 568h1v-19-19-7-7h-.5-.5l-17 2.5-17 2.5-22.5 3.5-22.5 3.5-.5.5-.5.5-16 2.5-16 2.5-16 2-16 2-16 2.5-16 2.5-18.5 3-18.5 3h-.5-.5l-17 3-17 3-15.5 2.5-15.5 2.5-33 4.5-33 4.5 1 1.5 1 1.5.5 1.5.5 1.5.5.5.5.5.5 1 .5 1 .5 1.5.5 1.5.5.5.5.5.5 1 .5 1 1 1 1 1 .5.5.5.5v1 1l.5.5.5.5-.5 1.5-.5 1.5-1 .5-1 .5-2 .5-2 .5-1 1-1 1-2 1-2 1-7 7.5-7 7.5 18-2 18-2 20.5-2.5 20.5-2.5 16-2.5 16-2.5 16-2 16-2 21.5-2.5 21.5-2.5 21.5-3.5 21.5-3.5 17.5-2 17.5-2 16-2 16-2 16-2 16-2 17-2 17-2" style="fill:#c1823e;stroke:#c1823e"/><path d="m959 516h1v-.5-.5h-.5-.5l-16.5 2.5-16.5 2.5-21 3-21 3-2 .5-2 .5v.5.5l22.5-3.5 22.5-3.5 17-2.5 17-2.5" style="fill:#9a662b;stroke:#9a662b"/><path d="m959 515h1v-1.5-1.5-2-2-2.5-2.5-2-2-2.5-2.5-1-1h-.5-.5l-11.5 5-11.5 5-12.5 5.5-12.5 5.5-13.5 6.5-13.5 6.5 21-3 21-3 16.5-2.5 16.5-2.5" style="fill:#954d03;stroke:#954d03"/><path d="m959 492h1v-1.5-1.5-2-2-2.5-2.5-2-2-2.5-2.5-2-2-2.5-2.5-.5-.5h-.5-.5l.5-1.5.5-1.5v-19.5-19.5-17.5-17.5h-.5-.5l-4-.5-4-.5 4.5-1.5 4.5-1.5v-1.5-1.5-2.5-2.5-2-2-1.5-1.5h-.5-.5l-14.5 3-14.5 3-23 4.5-23 4.5v1 1l9.5 7.5 9.5 7.5 19.5 9 19.5 9-8.5 9-8.5 9-1.5 10.5-1.5 10.5-10.5 1.5-10.5 1.5-6.5 5.5-6.5 5.5-9-6-9-6-7-13-7-13-10.5-25-10.5-25v-.5-.5l-6.5-12-6.5-12-13.5-12-13.5-12 .5 2 .5 2 .5 1.5.5 1.5.5.5.5.5v1 1l.5 1 .5 1 .5.5.5.5.5.5.5.5v1 1l.5 1 .5 1 .5.5.5.5.5.5.5.5v1 1l.5 1 .5 1v1 1l.5 1.5.5 1.5.5.5.5.5.5 1 .5 1v1 1l.5.5.5.5v1 1l.5 1 .5 1 .5.5.5.5.5.5.5.5v1 1l-.5 1-.5 1 .5.5.5.5.5.5.5.5h1 1v1.5 1.5l1 .5 1 .5 1 1 1 1 .5 1.5.5 1.5 1 1.5 1 1.5v1.5 1.5l1 .5 1 .5v1 1l.5.5.5.5v1 1l-.5 1.5-.5 1.5-13 6.5-13 6.5-11.5 6.5-11.5 6.5-17 5.5-17 5.5-1.5 1-1.5 1-1 1-1 1h-1-1l-.5 1-.5 1v1 1l-1 1-1 1 6.5 12.5 6.5 12.5 4.5 7 4.5 7 5.5 13.5 5.5 13.5 6.5 13 6.5 13 1 .5 1 .5 1-.5 1-.5h2 2 1 1 1.5 1.5l1.5-1 1.5-1-7-12.5-7-12.5-6-12-6-12-6.5-13-6.5-13 6.5-8.5 6.5-8.5 12-6 12-6 12.5-7 12.5-7 10.5-.5 10.5-.5 5.5 12.5 5.5 12.5 6 13.5 6 13.5 7.5 13.5 7.5 13.5-15 2.5-15 2.5-11.5 8-11.5 8-10 9-10 9 17-2.5 17-2.5 22-3 22-3 2-.5 2-.5 13.5-6.5 13.5-6.5 12.5-5.5 12.5-5.5 11.5-5 11.5-5" style="fill:#603107;stroke:#603107"/><g style="fill:#954d03;stroke:#954d03"><path d="m959 461h1v-1.5-1.5l-.5 1.5-.5 1.5"/><path d="m959 384h1v-1.5-1.5-.5-.5l-4.5 1.5-4.5 1.5 4 .5 4 .5"/></g><path d="m959 365h1v-1.5-1.5-2-2-2-2h-.5-.5l-1.5-.5-1.5-.5-2 .5-2 .5h-2-2l-2 .5-2 .5-16.5 3.5-16.5 3.5-16.5 3.5-16.5 3.5-16.5 3-16.5 3 .5-2.5.5-2.5 26-7.5 26-7.5v-12-12l-1-1.5-1-1.5h-.5-.5l-2 1-2 1-1-1.5-1-1.5-1 1-1 1-1-1.5-1-1.5-1-1-1-1-1.5-1-1.5-1-.5-.5-.5-.5-.5.5-.5.5-2-1-2-1-10-3.5-10-3.5h-6.5-6.5l-4.5-2.5-4.5-2.5-9-5-9-5-10.5-4-10.5-4-7.5-9.5-7.5-9.5-6-8-6-8-4.5-17.5-4.5-17.5v18.5 18.5l-1.5 1-1.5 1 10.5 5.5 10.5 5.5 6 12.5 6 12.5 9.5 15 9.5 15h-1.5-1.5l-2 .5-2 .5-1 1-1 1-1 1.5-1 1.5 13.5 12 13.5 12 6.5 12 6.5 12 24.5.5 24.5.5 23-4.5 23-4.5 14.5-3 14.5-3" style="fill:#715530;stroke:#715530"/><path d="m959 354h1v-19-19-9.5-9.5h-.5-.5v-33.5-33.5h-.5-.5l-.5 18-.5 18-.5 16-.5 16h-6-6l-4.5-1.5-4.5-1.5 5 5.5 5 5.5 6 7 6 7-2.5 10.5-2.5 10.5 2.5 2 2.5 2-2 1-2 1h1.5 1.5v1 1l-1 .5-1 .5 1 .5 1 .5-1.5 1-1.5 1-1.5-.5-1.5-.5-1.5.5-1.5.5-1.5 1-1.5 1 2-.5 2-.5h2 2l2-.5 2-.5 1.5.5 1.5.5" style="fill:#9a662b;stroke:#9a662b"/><path d="m959 297h1v-19-19-16-16h-.5-.5v1.5 1.5 33.5 33.5" style="fill:#8d724a;stroke:#8d724a"/><path d="m959 227h1v-1.5-1.5-2-2-2.5-2.5-2-2-2.5-2.5-2-2-2.5-2.5-2-2-2-2-2.5-2.5h-.5-.5v-19-19-18-18-18-18l-.5-15-.5-15v18 18l-.5 17.5-.5 17.5v17.5 17.5l-1 15-1 15-4.5 4.5-4.5 4.5-4 2.5-4 2.5-6 .5-6 .5h-.5-.5v1.5 1.5l-2 .5-2 .5-1.5.5-1.5.5h-1.5-1.5l-1.5-.5-1.5-.5-1 1.5-1 1.5 8.5-2 8.5-2 9.5 6.5 9.5 6.5-2.5-4.5-2.5-4.5 8-1.5 8-1.5-4 2-4 2 4.5 13.5 4.5 13.5h.5.5v-1.5-1.5" style="fill:#c1823e;stroke:#c1823e"/><path d="m959 184h1v-19-19-18-18-18-18-19.5-19.5-3.5-3.5h-.5-.5l-12.5 4-12.5 4-14 5.5-14 5.5-13.5 4.5-13.5 4.5-13 5-13 5-14.5 5-14.5 5-13.5 4.5-13.5 4.5-13 5-13 5-13.5 5-13.5 5-13.5 4.5-13.5 4.5-12 4-12 4-13 5.5-13 5.5-9 5-9 5-5.5 1.5-5.5 1.5-8 3.5-8 3.5-8 2-8 2-11 4-11 4-6 3.5-6 3.5-6.5.5-6.5.5-10.5 4.5-10.5 4.5-10.5 5-10.5 5-8 1-8 1-9 6-9 6-10 6.5-10 6.5-7 4-7 4-6 3-6 3-10 3.5-10 3.5-5.5 3.5-5.5 3.5-6.5 1.5-6.5 1.5h-7.5-7.5l-11.5 5.5-11.5 5.5-7 2-7 2-8 4-8 4-8.5 3-8.5 3-10.5 4.5-10.5 4.5-6.5 2.5-6.5 2.5-11 2.5-11 2.5-6 2-6 2-11.5 3.5-11.5 3.5-11-2-11-2 8 10.5 8 10.5 12.5 4.5 12.5 4.5 9 9 9 9 8 10 8 10 2 8 2 8 7-2.5 7-2.5 9.5-2.5 9.5-2.5 8.5-4.5 8.5-4.5 2-5.5 2-5.5 6-5 6-5 8-1 8-1h8.5 8.5l7 1 7 1 11-.5 11-.5 7.5 3.5 7.5 3.5 6-2 6-2 5 .5 5 .5 7-5 7-5 9-1 9-1-1.5-11-1.5-11-2-12-2-12-3.5-13.5-3.5-13.5 3.5-13 3.5-13 13.5-3.5 13.5-3.5 12 7 12 7 8 10.5 8 10.5 10.5-5.5 10.5-5.5 13-5 13-5 10-2.5 10-2.5-5-11-5-11 8.5-10.5 8.5-10.5 13.5-3 13.5-3 10.5 7.5 10.5 7.5 8.5 10.5 8.5 10.5 4.5 3 4.5 3 3.5-3.5 3.5-3.5 3-13 3-13 12-4.5 12-4.5 11.5 4.5 11.5 4.5 8.5 3.5 8.5 3.5 5.5-1 5.5-1 11 2 11 2 9-2 9-2 6.5 4 6.5 4 6-1 6-1 7.5.5 7.5.5 3.5-2 3.5-2 5-4 5-4 7.5-.5 7.5-.5h12 12l1-1.5 1-1.5.5-1 .5-1 1.5-1 1.5-1-.5-1.5-.5-1.5h1.5 1.5l1 1 1 1 1-1.5 1-1.5.5-1.5.5-1.5 1 .5 1 .5.5 1.5.5 1.5v1.5 1.5l6-.5 6-.5 4-2.5 4-2.5 4.5-4.5 4.5-4.5 1-15 1-15v-17.5-17.5l.5-17.5.5-17.5v-18-18l.5 15 .5 15v18 18 18 18 19 19" style="fill:#aa9472;stroke:#aa9472"/><path d="m959 28h1v-1.5-1.5-1-1h-.5-.5-.5-.5l-.5 1-.5 1-13.5 5.5-13.5 5.5-13.5 4.5-13.5 4.5-14 5-14 5-13.5 5-13.5 5-13.5 4.5-13.5 4.5-14 5-14 5-13.5 5-13.5 5-13.5 4.5-13.5 4.5-14 5-14 5-14 4.5-14 4.5-13 5-13 5-14.5 4.5-14.5 4.5-13.5 5-13.5 5-13 5-13 5-14.5 4.5-14.5 4.5-13.5 5-13.5 5-12.5 1.5-12.5 1.5-6.5-12.5-6.5-12.5-6.5-12-6.5-12v3 3l6 13 6 13 6 12.5 6 12.5-12 6-12 6-14 5-14 5-13.5 5-13.5 5-13 5-13 5-14 5-14 5-13.5 5-13.5 5-13 5-13 5-14 5-14 5-13.5 5-13.5 5-13 5-13 5-16.5 5-16.5 5 1.5 1 1.5 1 11 2 11 2 11.5-3.5 11.5-3.5 6-2 6-2 11-2.5 11-2.5 6.5-2.5 6.5-2.5 10.5-4.5 10.5-4.5 8.5-3 8.5-3 8-4 8-4 7-2 7-2 11.5-5.5 11.5-5.5h7.5 7.5l6.5-1.5 6.5-1.5 5.5-3.5 5.5-3.5 10-3.5 10-3.5 6-3 6-3 7-4 7-4 10-6.5 10-6.5 9-6 9-6 8-1 8-1 10.5-5 10.5-5 10.5-4.5 10.5-4.5 6.5-.5 6.5-.5 6-3.5 6-3.5 11-4 11-4 8-2 8-2 8-3.5 8-3.5 5.5-1.5 5.5-1.5 9-5 9-5 13-5.5 13-5.5 12-4 12-4 13.5-4.5 13.5-4.5 13.5-5 13.5-5 13-5 13-5 13.5-4.5 13.5-4.5 14.5-5 14.5-5 13-5 13-5 13.5-4.5 13.5-4.5 14-5.5 14-5.5 12.5-4 12.5-4" style="fill:#b0b1a8;stroke:#b0b1a8"/><path d="m959 23h1v-11.5-11.5h-7.5-7.5-18-18-20-20-20-20-20-20-18.5-18.5l18.5.5 18.5.5h18 18l23.5.5 23.5.5h-19.5-19.5-18-18-18-18-10.5-10.5l-5.5 7.5-5.5 7.5-5-4-5-4-7 5-7 5-9.5-8.5-9.5-8.5-24 .5-24 .5-.5.5-.5.5-13 5-13 5-12.5 5.5-12.5 5.5-13 5.5-13 5.5-12.5 5.5-12.5 5.5-25 9.5-25 9.5-.5.5-.5.5-7.5-11-7.5-11-6-12-6-12-6.5-9.5-6.5-9.5h-16.5-16.5l-2.5-.5-2.5-.5 21-.5 21-.5h-19.5-19.5-18-18-9-9l1.5.5 1.5.5h1 1 1 1 1 1 1.5 1.5 2 2 1 1 1.5 1.5 2 2 1 1 1.5 1.5 2 2 1 1l2 .5 2 .5 8.5 9 8.5 9 6 12 6 12 6.5 13 6.5 13 6.5 11.5 6.5 11.5 6 12 6 12 7 12.5 7 12.5 6 12 6 12 8.5 8.5 8.5 8.5 14.5-5 14.5-5 13-5 13-5 13.5-4.5 13.5-4.5 14.5-5 14.5-5 13-5 13-5 13.5-4.5 13.5-4.5 14.5-5 14.5-5 13.5-4.5 13.5-4.5 13-5 13-5 14.5-5 14.5-5 13.5-4.5 13.5-4.5 13.5-4.5 13.5-4.5 14-5.5 14-5.5 13.5-4.5 13.5-4.5 13-5 13-5 21.5-7.5 21.5-7.5h.5.5" style="fill:#c1fff3;stroke:#c1fff3"/><path d="m957 345l-5-4 2.5-10.5 2.5-10.5-6-7-6-7-5-5.5-5-5.5 4.5 1.5 4.5 1.5h6 6l.5-16 .5-16 .5-18 .5-18-4.5-13.5-4.5-13.5 4-2 4-2-8 1.5-8 1.5 2.5 4.5 2.5 4.5-9.5-6.5-9.5-6.5-8.5 2-8.5 2h-12-12l-7.5.5-7.5.5-5 4-5 4-3.5 2-3.5 2-7.5-.5-7.5-.5-6 1-6 1-6.5-4-6.5-4-9 2-9 2-11-2-11-2-5.5 1-5.5 1-8.5-3.5-8.5-3.5-11.5-4.5-11.5-4.5-12 4.5-12 4.5-3 13-3 13-3.5 3.5-3.5 3.5-4.5-3-4.5-3-8.5-10.5-8.5-10.5-10.5-7.5-10.5-7.5-13.5 3-13.5 3-8.5 10.5-8.5 10.5 5 11 5 11-10 2.5-10 2.5-13 5-13 5-10.5 5.5-10.5 5.5-8-10.5-8-10.5-12-7-12-7-13.5 3.5-13.5 3.5-3.5 13-3.5 13 3.5 13.5 3.5 13.5 2 12 2 12 1.5 11 1.5 11-9 1-9 1-7 5-7 5-5-.5-5-.5-6 2-6 2-7.5-3.5-7.5-3.5-11 .5-11 .5-7-1-7-1h-8.5-8.5l-8 1-8 1-6 5-6 5-2 5.5-2 5.5-8.5 4.5-8.5 4.5-9.5 2.5-9.5 2.5-7 2.5-7 2.5-2-8-2-8-8-10-8-10-9-9-9-9-12.5-4.5-12.5-4.5-8-10.5-8-10.5-1.5-1-1.5-1-18.5 7.5-18.5 7.5 3 16 3 16 .5 14.5.5 14.5 2.5 15 2.5 15-9.5-1-9.5-1-5.5 5.5-5.5 5.5-8.5-5-8.5-5-2.5 11.5-2.5 11.5 6 10.5 6 10.5h1 1l1-.5 1-.5 1.5-1 1.5-1 1-1 1-1 1.5-1.5 1.5-1.5-3.5-2-3.5-2 8-8 8-8 4 6 4 6 1-.5 1-.5-.5-1.5-.5-1.5-.5-1.5-.5-1.5.5-.5.5-.5h1.5 1.5l1.5-.5 1.5-.5.5-.5.5-.5 1-.5 1-.5 1.5-.5 1.5-.5h1.5 1.5l1.5.5 1.5.5.5.5.5.5 9.5 9 9.5 9 8 10 8 10 1.5-7.5 1.5-7.5-8.5-9.5-8.5-9.5-9.5-9-9.5-9-5-13-5-13-4.5-26.5-4.5-26.5 4-14 4-14 14 4.5 14 4.5 9 12 9 12-1 1.5-1 1.5-.5.5-.5.5 3.5 12 3.5 12-12.5 6-12.5 6 3 6 3 6 12.5-2.5 12.5-2.5 5.5-10 5.5-10 2.5-9.5 2.5-9.5 11 16.5 11 16.5 12 17.5 12 17.5 1 1 1 1 1.5 1 1.5 1 1.5.5 1.5.5 6-12.5 6-12.5 12-6.5 12-6.5 24-1 24-1 13 5 13 5 11 10.5 11 10.5-1 1-1 1-1 1-1 1-1.5 1-1.5 1-1 1-1 1-2 1-2 1-.5.5-.5.5-18 11.5-18 11.5-.5.5-.5.5-11.5 7.5-11.5 7.5-13 10-13 10 1 .5 1 .5.5 1 .5 1 1 1.5 1 1.5v1 1l-1.5 1-1.5 1-1.5.5-1.5.5-1.5.5-1.5.5-.5 1-.5 1 1 .5 1 .5h1 1 1 1l.5-.5.5-.5h1 1 1 1l1-.5 1-.5v-1-1h1 1l.5.5.5.5 1 .5 1 .5.5.5.5.5.5.5.5.5.5.5.5.5 1 .5 1 .5.5.5.5.5.5.5.5.5h1 1l.5 1 .5 1 .5 1 .5 1 1.5.5 1.5.5 2 1 2 1 2 .5 2 .5-1-1-1-1-1.5-.5-1.5-.5-1.5-1-1.5-1-1-1-1-1-1-1-1-1-1.5-1-1.5-1-1.5-1-1.5-1-5-9.5-5-9.5 10.5-7.5 10.5-7.5 12.5-7.5 12.5-7.5 12-8 12-8 12-8 12-8 14-8 14-8 5.5-5.5 5.5-5.5-1.5.5-1.5.5-1.5.5-1.5.5-.5 1.5-.5 1.5-1 1.5-1 1.5v2 2l-.5 2-.5 2-.5 1-.5 1-1 1-1 1h-1-1l-.5.5-.5.5-1 .5-1 .5v1 1l.5.5.5.5v1 1l2-.5 2-.5 1-.5 1-.5 1 1.5 1 1.5 1-1 1-1 1-1 1-1 1.5-1 1.5-1h2 2l2-.5 2-.5 1.5-.5 1.5-.5 2-.5 2-.5h2 2l1-.5 1-.5v-1-1l1-.5 1-.5 1-1 1-1 1-1.5 1-1.5 1-1 1-1 1.5-1 1.5-1v-2-2l1.5-.5 1.5-.5 1.5-1 1.5-1 1-1 1-1 2 .5 2 .5.5 1.5.5 1.5 1 .5 1 .5.5-1.5.5-1.5-1-.5-1-.5-1-.5-1-.5v-1-1l-1-.5-1-.5-1.5.5-1.5.5h-1-1l-1-.5-1-.5-.5-1.5-.5-1.5v-1.5-1.5l-1-1-1-1v-2-2l-6-13-6-13-5-25-5-25-1-.5-1-.5-.5-1.5-.5-1.5-.5-2-.5-2-1-1-1-1v-1.5-1.5-2-2l.5-2.5.5-2.5-.5-1-.5-1-.5-1.5-.5-1.5v-2-2l-.5-2-.5-2v-2-2l10.5-8.5 10.5-8.5 14.5 3.5 14.5 3.5 8.5 10.5 8.5 10.5 12 6.5 12 6.5 8.5 13 8.5 13 15-2 15-2 18 3 18 3-.5-22-.5-22-17-15-17-15-1.5-1-1.5-1 3.5-11.5 3.5-11.5 12.5-5.5 12.5-5.5 11 7 11 7 8.5 14.5 8.5 14.5-.5 1.5-.5 1.5v1.5 1.5h2 2l1.5.5 1.5.5 2 .5 2 .5 1 1 1 1 1.5 1 1.5 1 1 1 1 1 .5 1.5.5 1.5.5.5.5.5 1 .5 1 .5.5 1.5.5 1.5 12.5 11.5 12.5 11.5 1.5 1.5 1.5 1.5 1 1.5 1 1.5 1-10.5 1-10.5-12-4-12-4-2.5-21.5-2.5-21.5 8-10.5 8-10.5 22 12 22 12 4.5 17.5 4.5 17.5 6 8 6 8 7.5 9.5 7.5 9.5 10.5 4 10.5 4 9 5 9 5 4.5 2.5 4.5 2.5h6.5 6.5l10 3.5 10 3.5v-1.5-1.5h2 2 1.5 1.5l1.5-.5 1.5-.5 1 1.5 1 1.5h1 1l1.5 1 1.5 1 .5 1.5.5 1.5 1.5 1 1.5 1 .5 1 .5 1 1 1.5 1 1.5 6.5 1 6.5 1 10 3 10 3 6-.5 6-.5-10 2.5-10 2.5-12.5 6-12.5 6-26 7.5-26 7.5-.5 2.5-.5 2.5 16.5-3 16.5-3 16.5-3.5 16.5-3.5 16.5-3.5 16.5-3.5 1.5-1 1.5-1 1.5-.5 1.5-.5 1.5.5 1.5.5 1.5-1 1.5-1-1-.5-1-.5-15.5 3.5-15.5 3.5-15.5 3-15.5 3-.5-.5-.5-.5 14.5-3.5 14.5-3.5 16.5-4 16.5-4 2-1 2-1" style="fill:#8d724a;stroke:#8d724a"/><path d="m957 25l1-2-21.5 7.5-21.5 7.5-13 5-13 5-13.5 4.5-13.5 4.5-14 5.5-14 5.5-13.5 4.5-13.5 4.5-13.5 4.5-13.5 4.5-14.5 5-14.5 5-13 5-13 5-13.5 4.5-13.5 4.5-14.5 5-14.5 5-13.5 4.5-13.5 4.5-13 5-13 5-14.5 5-14.5 5-13.5 4.5-13.5 4.5-13 5-13 5-14.5 5-14.5 5-8.5-8.5-8.5-8.5-6-12-6-12-7-12.5-7-12.5-6-12-6-12-6.5-11.5-6.5-11.5-6.5-13-6.5-13-6-12-6-12-8.5-9-8.5-9v1 1l.5 1 .5 1 8.5 16.5 8.5 16.5 6.5 12 6.5 12 6.5 13 6.5 13 6 12 6 12 6 12 6 12 6.5 13 6.5 13 6.5 14.5 6.5 14.5-13 5.5-13 5.5-13.5 5-13.5 5-13.5 4.5-13.5 4.5-13.5 5.5-13.5 5.5-13.5 5-13.5 5-13.5 4.5-13.5 4.5-13.5 5.5-13.5 5.5-13.5 5-13.5 5-13.5 4.5-13.5 4.5-13.5 5.5-13.5 5.5-14.5 4-14.5 4-14.5 1.5-14.5 1.5-10 9-10 9-9-8.5-9-8.5-7-11-7-11-7.5-11.5-7.5-11.5-13.5-22-13.5-22h-.5-.5l-.5-.5-.5-.5 1 2 1 2 .5 1.5.5 1.5 1 1 1 1 1 1.5 1 1.5.5 1.5.5 1.5 1 1.5 1 1.5.5 1 .5 1 7.5 11 7.5 11 7.5 12 7.5 12 7 11 7 11 17 7.5 17 7.5 18.5-7.5 18.5-7.5 16.5-5 16.5-5 13-5 13-5 13.5-5 13.5-5 14-5 14-5 13-5 13-5 13.5-5 13.5-5 14-5 14-5 13-5 13-5 13.5-5 13.5-5 14-5 14-5 12-6 12-6-6-12.5-6-12.5-6-13-6-13v-3-3l6.5 12 6.5 12 6.5 12.5 6.5 12.5 12.5-1.5 12.5-1.5 13.5-5 13.5-5 14.5-4.5 14.5-4.5 13-5 13-5 13.5-5 13.5-5 14.5-4.5 14.5-4.5 13-5 13-5 14-4.5 14-4.5 14-5 14-5 13.5-4.5 13.5-4.5 13.5-5 13.5-5 14-5 14-5 13.5-4.5 13.5-4.5 13.5-5 13.5-5 14-5 14-5 13.5-4.5 13.5-4.5 13.5-5.5 13.5-5.5" style="fill:#b1cdcc;stroke:#b1cdcc"/><path d="m956 349v-2h-1.5-1.5l-16.5 4-16.5 4-14.5 3.5-14.5 3.5.5.5.5.5 15.5-3 15.5-3 15.5-3.5 15.5-3.5 1-.5 1-.5" style="fill:#aa9472;stroke:#aa9472"/><path d="m944 488v-2l-1-1-1-1-2 .5-2 .5-1.5.5-1.5.5-2 .5-2 .5-1 1-1 1 1 1.5 1 1.5h2 2l1.5-.5 1.5-.5 2-.5 2-.5 1-1 1-1" style="fill:#2a1d09;stroke:#2a1d09"/><path d="m943 338l-12 1-10-3-10-3-6.5-1-6.5-1v12 12l12.5-6 12.5-6 10-2.5 10-2.5" style="fill:#9a662b;stroke:#9a662b"/><path d="m942 415l-39-18-9.5-7.5-9.5-7.5h-.5-.5l-24-1-24-1 10.5 25 10.5 25 7 13 7 13 9 6 9 6 6.5-5.5 6.5-5.5 10.5-1.5 10.5-1.5 1.5-10.5 1.5-10.5 8.5-9 8.5-9" style="fill:#2a1d09;stroke:#2a1d09"/><path d="m930 325l1-3-.5-1.5-.5-1.5-.5-2-.5-2-1 1-1 1-1.5 1-1.5 1-.5.5-.5.5 1.5 1 1.5 1 .5 1.5.5 1.5 1.5.5 1.5.5v-.5-.5" style="fill:#9a662b;stroke:#9a662b"/><path d="m925 195h1v-1.5-1.5l-.5-1.5-.5-1.5-1-.5-1-.5-.5 1.5-.5 1.5-1 1.5-1 1.5-1-1-1-1h-1.5-1.5l.5 1.5.5 1.5-1.5 1-1.5 1-.5 1-.5 1 1.5.5 1.5.5h1.5 1.5l1.5-.5 1.5-.5 2-.5 2-.5v-1.5-1.5" style="fill:#8d724a;stroke:#8d724a"/><path d="m895 328h1l-.5-1-.5-1-1.5-1-1.5-1-.5-1.5-.5-1.5-1.5-1-1.5-1h-1-1l-1-1.5-1-1.5-1.5.5-1.5.5h-1.5-1.5-2-2v1.5 1.5l2 1 2 1 .5-.5.5-.5.5.5.5.5 1.5 1 1.5 1 1 1 1 1 1 1.5 1 1.5 1-1 1-1 1 1.5 1 1.5 2-1 2-1" style="fill:#9a662b;stroke:#9a662b"/><path d="m892 482v-2l-.5-1.5-.5-1.5-1-1.5-1-1.5h-1-1l-1.5 1-1.5 1-1 1-1 1v1.5 1.5l.5 1.5.5 1.5 1.5.5 1.5.5 2-.5 2-.5 1-1 1-1" style="fill:#2a1d09;stroke:#2a1d09"/><path d="m883 382h1v-1-1l-24.5-.5-24.5-.5v.5.5l24 1 24 1" style="fill:#483925;stroke:#483925"/><path d="m879 529l1-1v-.5-.5l-22 3-22 3-17 2.5-17 2.5h-2-2l-2.5.5-2.5.5-1.5 1-1.5 1h-1.5-1.5-1-1-2-2l-1 .5-1 .5-1-.5-1-.5-1 .5-1 .5h-1.5-1.5l-2 .5-2 .5h-2-2l-1 .5-1 .5v.5.5h-1.5-1.5l-1.5.5-1.5.5h-1-1-1.5-1.5l-1.5.5-1.5.5h-1-1-1.5-1.5l-1.5.5-1.5.5h-1-1-1.5-1.5l-1.5.5-1.5.5-1 .5-1 .5h1.5 1.5l1-.5 1-.5h2 2 1 1l1-.5 1-.5 1.5.5 1.5.5 18.5-3 18.5-3 16-2.5 16-2.5 16-2 16-2 16-2.5 16-2.5" style="fill:#715530;stroke:#715530"/><path d="m875 499l-15-27-6-13.5-6-13.5-5.5-12.5-5.5-12.5-10.5.5-10.5.5-12.5 7-12.5 7-12 6-12 6-6.5 8.5-6.5 8.5 6.5 13 6.5 13 6 12 6 12 7 12.5 7 12.5 2.5-.5 2.5-.5h2 2l10-9 10-9 11.5-8 11.5-8 15-2.5 15-2.5" style="fill:#2a1d09;stroke:#2a1d09"/><path d="m872 593l-23 6 6 1 6 1 5.5-4 5.5-4" style="fill:#954d03;stroke:#954d03"/><path d="m872 515l-25 8-3.5 4.5-3.5 4.5 13.5-6.5 13.5-6.5 2.5-2 2.5-2" style="fill:#2a1d09;stroke:#2a1d09"/><path d="m872 2l-47-1h-18-18l-18.5-.5-18.5-.5h-2-2-2.5-2.5-2-2-2.5-2.5-2-2-2-2-2.5-2.5-2-2-2.5-2.5-2-2-1.5-1.5l-.5.5-.5.5-30.5-.5-30.5-.5h-2-2-1-1v1 1l.5.5.5.5 24-.5 24-.5 9.5 8.5 9.5 8.5 7-5 7-5 5 4 5 4 5.5-7.5 5.5-7.5h10.5 10.5 18 18 18 18 19.5 19.5" style="fill:#d7fbd5;stroke:#d7fbd5"/><path d="m866 648l1-1-1-.5-1-.5h-1.5-1.5l-.5.5-.5.5h-1.5-1.5-2-2l-2 .5-2 .5h-2-2-1.5-1.5-2-2l-1.5.5-1.5.5h-2-2v.5.5h2 2 1.5 1.5 1 1l.5-.5.5-.5h1 1 1.5 1.5 1 1 1 1 1 1 1.5 1.5 1 1 1 1l.5-.5.5-.5h2.5 2.5" style="fill:#715530;stroke:#715530"/><path d="m865 646l-12-28-6.5-12-6.5-12-7 4-7 4 6.5 11.5 6.5 11.5 7.5 11 7.5 11h2 2 1.5 1.5l.5-.5.5-.5h1.5 1.5" style="fill:#2a1d09;stroke:#2a1d09"/><path d="m837 645l-6-28-8 2-8 2 2 8.5 2 8.5-9.5 4.5-9.5 4.5-14.5 3.5-14.5 3.5-11-.5-11-.5-14 4-14 4 22-2.5 22-2.5 17-1 17-1 16.5-2 16.5-2v-.5-.5-.5-.5l.5-.5.5-.5 1-.5 1-.5 1-.5 1-.5" style="fill:#954d03;stroke:#954d03"/><path d="m824 402l1-3v-1-1l-.5-.5-.5-.5v-1-1l-1-.5-1-.5h-.5-.5l-.5-3-.5-3-.5-1.5-.5-1.5-1-1-1-1-1-.5-1-.5h-.5-.5l-1.5-1-1.5-1-1-1-1-1-.5-2-.5-2-.5-1.5-.5-1.5-1-1.5-1-1.5-.5-1.5-.5-1.5-1-1.5-1-1.5-1-1-1-1 2.5-1 2.5-1v-1-1l-.5-1-.5-1v-1-1l-.5-.5-.5-.5-.5-.5-.5-.5-.5-1-.5-1v-1-1l-.5-.5-.5-.5-.5-.5-.5-.5-.5-1-.5-1v-1-1l-.5-.5-.5-.5-.5-1.5-.5-1.5-1-1-1-1-.5-2-.5-2 .5-1.5.5-1.5v-2.5-2.5l-.5-1.5-.5-1.5v-2.5-2.5l-.5-1.5-.5-1.5-.5-1.5-.5-1.5-.5-2-.5-2-1-1-1-1-10.5-15.5-10.5-15.5-.5.5-.5.5-2 .5-2 .5-1.5.5-1.5.5h-2-2l-.5.5-.5.5h-.5-.5l-1 1-1 1-.5.5-.5.5-1 .5-1 .5-1 15.5-1 15.5-2 12-2 12 1.5 10.5 1.5 10.5-6-13-6-13-.5 1-.5 1-3-.5-3-.5v13 13l-3.5 2-3.5 2v-12-12l-4.5-16.5-4.5-16.5-.5 1-.5 1v1.5 1.5 2.5 2.5 1 1 2.5 2.5l.5 1.5.5 1.5-.5 1.5-.5 1.5-7.5 11-7.5 11 3 5.5 3 5.5-5.5 12.5-5.5 12.5-.5 10.5-.5 10.5 2 8.5 2 8.5-21.5 6-21.5 6h-1.5-1.5l-1.5.5-1.5.5 1 .5 1 .5.5 1 .5 1v1.5 1.5l-10.5 8-10.5 8-10.5 7.5-10.5 7.5-11 8-11 8-14 10-14 10 9 10.5 9 10.5 2 9.5 2 9.5 2 9 2 9 13 1.5 13 1.5 2-.5 2-.5.5-.5.5-.5 1-.5 1-.5 2 .5 2 .5 17-2.5 17-2.5 16-2.5 16-2.5 15.5-2.5 15.5-2.5 4.5-8.5 4.5-8.5-1.5-11.5-1.5-11.5-8-8.5-8-8.5 7 2 7 2 6 11 6 11 16 12 16 12 1-.5 1-.5h2 2l2-.5 2-.5h1.5 1.5l1-.5 1-.5-6.5-13-6.5-13-5.5-13.5-5.5-13.5-4.5-7-4.5-7-6.5-12.5-6.5-12.5 1-7.5 1-7.5 14-6 14-6 11.5-5 11.5-5-21.5 13.5-21.5 13.5 17-5.5 17-5.5 11.5-6.5 11.5-6.5 13-6.5 13-6.5" style="fill:#2a1d09;stroke:#2a1d09"/><g style="fill:#483925;stroke:#483925"><path d="m821 393h1v-1.5-1.5l-1-1.5-1-1.5.5 3 .5 3"/><path d="m814 381h1v-1.5-1.5h-1-1l-.5-.5-.5-.5-.5-.5-.5-.5.5-1 .5-1v-1-1l-.5-.5-.5-.5-.5-.5-.5-.5-.5-1-.5-1v-1-1l-.5-.5-.5-.5v-1-1l-.5-1-.5-1-.5-.5-.5-.5-.5-1.5-.5-1.5-2.5 1-2.5 1 1 1 1 1 1 1.5 1 1.5.5 1.5.5 1.5 1 1.5 1 1.5.5 1.5.5 1.5.5 2 .5 2 1 1 1 1 1.5 1 1.5 1"/><path d="m806 325l-19-30 .5 1 .5 1 .5 1 .5 1-.5 1-.5 1 1 1 1 1 .5 2 .5 2 .5 1.5.5 1.5.5 1.5.5 1.5v2.5 2.5l.5 1.5.5 1.5v2.5 2.5l-.5 1.5-.5 1.5.5 2 .5 2 1 1 1 1-.5-2-.5-2 1-1.5 1-1.5 1-1 1-1 2-.5 2-.5h1.5 1.5"/></g><path d="m797 591l1-1h-1.5-1.5-2-2l-2 .5-2 .5h-2-2l-21.5 2.5-21.5 2.5-16 2-16 2-16 2.5-16 2.5v.5.5l27.5-3.5 27.5-3.5 16.5-2 16.5-2 16.5-2 16.5-2" style="fill:#715530;stroke:#715530"/><path d="m790 24l-11 2-4.5 3.5-4.5 3.5 9-1 9-1 1-3.5 1-3.5" style="fill:#d7fbd5;stroke:#d7fbd5"/><path d="m788 301l1-2-.5-1-.5-1-.5-1-.5-1-6-12.5-6-12.5-10.5-5.5-10.5-5.5h-1-1l-1 .5-1 .5-1 1-1 1-1 1.5-1 1.5-1.5.5-1.5.5-1 1.5-1 1.5v1.5 1.5 1 1l-.5 1.5-.5 1.5-1 1.5-1 1.5-.5 1.5-.5 1.5-.5 1.5-.5 1.5 1.5 1 1.5 1v1 1 1 1 1.5 1.5l.5 1.5.5 1.5-.5.5-.5.5v1 1l.5 1 .5 1 .5 1.5.5 1.5v1 1 1.5 1.5 2 2l-.5 1.5-.5 1.5-.5 2.5-.5 2.5-2-.5-2-.5-1-1-1-1-1.5-1-1.5-1-1 .5-1 .5v2 2l.5.5.5.5.5 1 .5 1 1.5 1 1.5 1 6 13 6 13-1.5-10.5-1.5-10.5 2-12 2-12 1-15.5 1-15.5 1-2 1-2-.5-.5-.5-.5h-1-1l1.5-1 1.5-1 1-1 1-1 2-.5 2-.5h2 2l1 .5 1 .5 2.5.5 2.5.5 10.5 15.5 10.5 15.5" style="fill:#603107;stroke:#603107"/><path d="m784 412l-23 10-14 6-14 6-1 7.5-1 7.5 1-1 1-1v-1-1l.5-1 .5-1h1 1l1-1 1-1 1.5-1 1.5-1 21.5-13.5 21.5-13.5" style="fill:#483925;stroke:#483925"/><path d="m766 271l1-1-2.5-.5-2.5-.5-1-.5-1-.5h-2-2l-2 .5-2 .5-1 1-1 1-1.5 1-1.5 1h1 1l.5.5.5.5-1 2-1 2 1-.5 1-.5.5-.5.5-.5 1-1 1-1h.5.5l.5-.5.5-.5h2 2l1.5-.5 1.5-.5 2-.5 2-.5" style="fill:#715530;stroke:#715530"/><g style="fill:#483925;stroke:#483925"><path d="m762 545v-1l-16-12-16-12-6-11-6-11-7-2-7-2 8 8.5 8 8.5 1.5 11.5 1.5 11.5-4.5 8.5-4.5 8.5-15.5 2.5-15.5 2.5-16 2.5-16 2.5-17 2.5-17 2.5 16.5-2 16.5-2 15.5-2.5 15.5-2.5 24.5-3.5 24.5-3.5 1-.5 1-.5 1.5-.5 1.5-.5h1.5 1.5 1 1l1.5-.5 1.5-.5h1.5 1.5 1 1l1.5-.5 1.5-.5h1.5 1.5 1 1l1.5-.5 1.5-.5h1.5 1.5"/><path d="m757 257v-37l-22-12-22-12-8 10.5-8 10.5.5 1 .5 1 1.5 1 1.5 1v2 2 1 1l.5 1 .5 1 1 1 1 1 1 1.5 1 1.5.5 1 .5 1 1 1 1 1v1 1 1 1 1 1l-.5 1-.5 1-.5.5-.5.5.5.5.5.5.5-.5.5-.5 1 .5 1 .5v1 1l.5.5.5.5-.5 1.5-.5 1.5-1 .5-1 .5-1 1-1 1-1 2-1 2 12.5 1 12.5 1 5.5 3 5.5 3 1-1.5 1-1.5 1.5-.5 1.5-.5 1-1.5 1-1.5 1-1 1-1 1-.5 1-.5h1 1l1.5-1 1.5-1"/></g><path d="m753 237l-9-28-12.5-2.5-12.5-2.5-1.5 5.5-1.5 5.5-4.5 3.5-4.5 3.5 7 8.5 7 8.5-2 10-2 10h11 11l7-10 7-10v-1-1" style="fill:#2a1d09;stroke:#2a1d09"/><path d="m745 549h1l-1.5-.5-1.5-.5-1 .5-1 .5h-1-1-2-2l-1 .5-1 .5h-1.5-1.5l-24.5 3.5-24.5 3.5-15.5 2.5-15.5 2.5-16.5 2-16.5 2-2-.5-2-.5-1 .5-1 .5-.5.5-.5.5-2 .5-2 .5-.5.5-.5.5-2 .5-2 .5h-1-1-1-1l-1.5.5-1.5.5-.5.5-.5.5-25.5 4-25.5 4-1 1-1 1-.5.5-.5.5-.5.5-.5.5-1 .5-1 .5-.5 1.5-.5 1.5-.5 1.5-.5 1.5-1 1-1 1v1.5 1.5l1 1 1 1 .5 2 .5 2 .5 1.5.5 1.5.5 1.5.5 1.5h.5.5l2.5-13 2.5-13 15.5-3 15.5-3 16-2 16-2 1.5-.5 1.5-.5.5-.5.5-.5 2-.5 2-.5 33-4.5 33-4.5 15.5-2.5 15.5-2.5 17-3 17-3" style="fill:#8d724a;stroke:#8d724a"/><g style="fill:#715530;stroke:#715530"><path d="m740 318l1-3v-2-2-1.5-1.5-1-1l-.5-1.5-.5-1.5-.5-1-.5-1v-1-1l.5-.5.5-.5-.5-1.5-.5-1.5h-.5-.5-1-1l.5.5.5.5v1 1l-.5.5-.5.5-1 .5-1 .5h-1-1l-.5.5-.5.5-.5.5-.5.5-.5 1-.5 1-.5-.5-.5-.5-.5-.5-.5-.5.5-.5.5-.5-1-1.5-1-1.5-7.5-2-7.5-2 9.5 12 9.5 12 1.5 1 1.5 1 1 1 1 1 2 .5 2 .5.5-2.5.5-2.5"/><path d="m740 277l1-3v-1-1-1.5-1.5l-5.5-3-5.5-3-12.5-1-12.5-1v-1.5-1.5l-.5-1.5-.5-1.5-1-1.5-1-1.5v-2-2l.5-1.5.5-1.5 1.5-1 1.5-1 1-1 1-1-.5-2.5-.5-2.5-.5-1-.5-1-1-1.5-1-1.5-1-1-1-1-.5-1-.5-1v-1-1-2-2l-1.5-1-1.5-1-.5-1-.5-1 2.5 21.5 2.5 21.5 12 4 12 4-1 10.5-1 10.5.5 1.5.5 1.5.5 1.5.5 1.5v1.5 1.5l1.5-.5 1.5-.5.5-1.5.5-1.5.5-2 .5-2 1-1 1-1 1.5-1 1.5-1 .5-1.5.5-1.5.5-1.5.5-1.5 1-1.5 1-1.5"/></g><g style="fill:#483925;stroke:#483925"><path d="m738 295h1v-1.5-1.5-1-1-1-1l-1.5-1-1.5-1-1.5 1-1.5 1-1 1-1 1-.5 2-.5 2-.5 1.5-.5 1.5-1.5.5-1.5.5 1 1.5 1 1.5-.5.5-.5.5.5.5.5.5.5.5.5.5.5-1 .5-1 .5-.5.5-.5.5-.5.5-.5h1 1l1-.5 1-.5.5-.5.5-.5v-1-1l-.5-.5-.5-.5h1 1"/><path d="m732 330l1-2-1.5-1-1.5-1-.5-1-.5-1-.5-.5-.5-.5v-2-2l1-.5 1-.5-9.5-12-9.5-12 7.5 2 7.5 2v-1.5-1.5l-.5-1.5-.5-1.5-.5-1.5-.5-1.5-1-1.5-1-1.5-1.5-1.5-1.5-1.5h-.5-.5l-2 .5-2 .5-1.5.5-1.5.5-.5.5-.5.5h-1-1l-1 .5-1 .5 1 .5 1 .5v1 1l-.5 2-.5 2v2 2l1 1 1 1 .5 1 .5 1 4.5 16.5 4.5 16.5v12 12l3.5-2 3.5-2v-13-13l3 .5 3 .5"/></g><path d="m728 364l1-3-.5-1.5-.5-1.5-2-.5-2-.5-1 1-1 1-.5 2-.5 2 1 1 1 1h1.5 1.5l1-.5 1-.5" style="fill:#aa9472;stroke:#aa9472"/><path d="m725 394v-2l-1-1-1-1-1.5 1-1.5 1-1.5.5-1.5.5-1.5 1-1.5 1-.5 1.5-.5 1.5h1.5 1.5l1.5-.5 1.5-.5 1.5-.5 1.5-.5 1.5-1 1.5-1" style="fill:#603107;stroke:#603107"/><g style="fill:#715530;stroke:#715530"><path d="m718 283h1l-12.5-11.5-12.5-11.5h-.5-.5v1.5 1.5l-.5 1.5-.5 1.5-.5 1.5-.5 1.5h-1-1l1 2 1 2v2 2l-.5 2-.5 2h1 1l-.5 2-.5 2-.5 1.5-.5 1.5v2.5 2.5l.5 1.5.5 1.5 1 .5 1 .5h1 1v-1.5-1.5l-.5-1.5-.5-1.5 1.5-.5 1.5-.5v-2.5-2.5l1-1 1-1 1.5 1 1.5 1 2 1 2 1 1-.5 1-.5h1 1l.5-.5.5-.5 1.5-.5 1.5-.5 2-.5 2-.5"/><path d="m712 663l1-1-26 1-26 1-.5.5-.5.5-1 .5-1 .5-2 .5-2 .5h-2-2l-2 .5-2 .5h-2-2l-1.5.5-1.5.5h-2.5-2.5l-2 .5-2 .5-.5.5-.5.5-17.5 1.5-17.5 1.5-18 1.5-18 1.5-17.5 2-17.5 2-16 2-16 2-25.5 2.5-25.5 2.5-.5.5-.5.5h-2-2-1-1-1-1l-1 .5-1 .5h-1-1-1-1-1-1-1.5-1.5-1-1l-.5.5-.5.5h-1-1-1-1-1-1l-1 .5-1 .5h-1-1-1-1-1-1-1.5-1.5-1-1l-1 .5-1 .5-.5.5-.5.5h-1.5-1.5l-1.5.5-1.5.5h-2.5-2.5-2-2-1.5-1.5l-2-.5-2-.5 1-1 1-1-.5-2-.5-2-1-1-1-1v1.5 1.5l-.5 2-.5 2v1.5 1.5l-2 .5-2 .5h1.5 1.5 2 2 1 1 1.5 1.5 3 3l17-2.5 17-2.5 16.5-1.5 16.5-1.5 16.5-1.5 16.5-1.5 13.5 1 13.5 1 12-4 12-4 25-2.5 25-2.5 21.5-2 21.5-2 16-2 16-2 16.5-2 16.5-2 1.5-.5 1.5-.5h2 2l2-.5 2-.5h2 2 1.5 1.5"/></g><path d="m712 488l-12-25-4.5 1.5-4.5 1.5 8 9 8 9 2.5 2 2.5 2" style="fill:#483925;stroke:#483925"/><g style="fill:#603107;stroke:#603107"><path d="m711 254l1-3-.5-.5-.5-.5v-1-1l-1-.5-1-.5-.5.5-.5.5-.5-.5-.5-.5.5-.5.5-.5.5-1 .5-1v-1-1-1-1-1-1l-1-1-1-1 .5 2.5.5 2.5-1 1-1 1-1.5 1-1.5 1-.5 1.5-.5 1.5v2 2l1 1.5 1 1.5.5 1.5.5 1.5v1.5 1.5l1-2 1-2 1-1 1-1 1-.5 1-.5"/><path d="m709 325l1-3-.5-1.5-.5-1.5v-2.5-2.5-1-1-2.5-2.5-1.5-1.5l.5-1 .5-1-.5-1-.5-1-1-1-1-1v-2-2l.5-2 .5-2v-1-1l-1-.5-1-.5-2-1-2-1-1.5-1-1.5-1-1 1-1 1v2.5 2.5l-1.5.5-1.5.5.5 1.5.5 1.5v1.5 1.5l.5 1 .5 1 .5 1 .5 1v1.5 1.5l-.5 2-.5 2 1.5.5 1.5.5.5 1.5.5 1.5-.5 2-.5 2v1 1l-1 .5-1 .5v3 3l.5 1.5.5 1.5-.5 2-.5 2-10 10-10 10-9.5 6.5-9.5 6.5-3-6-3-6 .5 11.5.5 11.5 11.5-7 11.5-7 4 5 4 5-14 4-14 4 3 2 3 2 3.5 3 3.5 3 1.5-.5 1.5-.5 1-.5 1-.5 1.5-.5 1.5-.5 1-.5 1-.5 1-.5 1-.5.5-1 .5-1 .5.5.5.5h1 1l.5-.5.5-.5 1 .5 1 .5v1 1l.5.5.5.5v1 1l-1.5 1-1.5 1h-1-1l-1 .5-1 .5-1 1-1 1h-1-1l-1 .5-1 .5-1 .5-1 .5-1 .5-1 .5-1 1-1 1-1.5 1-1.5 1v1 1l.5 1 .5 1 2 1 2 1 1.5.5 1.5.5 1.5 1 1.5 1-.5 1.5-.5 1.5-1.5 1-1.5 1-1.5.5-1.5.5-1.5 1-1.5 1-1 1-1 1-1 1-1 1h-1-1l-.5 1-.5 1-1 1-1 1-1.5 1-1.5 1-1 1-1 1-2.5 1-2.5 1v.5.5l21.5-6 21.5-6-2-8.5-2-8.5.5-10.5.5-10.5 5.5-12.5 5.5-12.5-3-5.5-3-5.5 7.5-11 7.5-11"/></g><path d="m704 1l1-1h-18.5-18.5-12.5-12.5l30.5.5 30.5.5" style="fill:#c1fff3;stroke:#c1fff3"/><path d="m699 318v-2l.5-2 .5-2-.5-1.5-.5-1.5-1.5-.5-1.5-.5-1 1-1 1v1.5 1.5 2 2l1.5 1 1.5 1 1-.5 1-.5" style="fill:#715530;stroke:#715530"/><path d="m697 332l1-4-.5-1.5-.5-1.5v-3-3l-1.5-1-1.5-1v-2-2-1.5-1.5l1-1 1-1 .5-2 .5-2v-1.5-1.5l-.5-1-.5-1-.5-1-.5-1h-1-1l-1-.5-1-.5-.5-1.5-.5-1.5v-2.5-2.5l.5-1.5.5-1.5.5-2 .5-2h-1-1l.5-2 .5-2v-2-2l-1-2-1-2-8.5 4-8.5 4v1.5 1.5 1.5 1.5 2 2l-.5.5-.5.5-.5 1-.5 1v2 2l.5.5.5.5v1.5 1.5l-1 1-1 1-.5.5-.5.5h-1-1l-.5.5-.5.5-1-.5-1-.5v3 3l.5 1.5.5 1.5 1-.5 1-.5 1 1 1 1v1.5 1.5l-1.5.5-1.5.5-1-1.5-1-1.5-.5 1.5-.5 1.5-2 .5-2 .5 4 15 4 15-5.5 1-5.5 1-6.5-19.5-6.5-19.5h-.5-.5l1 2 1 2 .5 1.5.5 1.5v2 2l1 1.5 1 1.5v2 2 2.5 2.5l1 .5 1 .5.5 1.5.5 1.5-.5 1.5-.5 1.5-10.5 11.5-10.5 11.5-1 1.5-1 1.5h1.5 1.5l1 .5 1 .5 2 .5 2 .5 1 1 1 1 1 1.5 1 1.5.5 1.5.5 1.5 2 .5 2 .5 1.5.5 1.5.5.5.5.5.5-1.5.5-1.5.5h-1-1-1-1-1-1-1.5-1.5-2-2l-.5-.5-.5-.5h-1.5-1.5-2-2l-.5.5-.5.5-.5 2-.5 2 13.5 5.5 13.5 5.5 1-.5 1-.5h2 2l1.5.5 1.5.5h1 1l1-.5 1-.5 1 1 1 1 1.5-1 1.5-1 1.5-.5 1.5-.5v-1-1l-3.5-3-3.5-3-3-2-3-2 14-4 14-4-4-5-4-5-11.5 7-11.5 7-.5-11.5-.5-11.5 3 6 3 6 9.5-6.5 9.5-6.5 10-10 10-10" style="fill:#954d03;stroke:#954d03"/><path d="m695 456l-11-26-3.5 4.5-3.5 4.5 9 8.5 9 8.5" style="fill:#483925;stroke:#483925"/><path d="m693 260h1l-.5-1.5-.5-1.5-1-.5-1-.5-.5-.5-.5-.5-.5-1.5-.5-1.5-1-1-1-1-1.5-1-1.5-1-1-1-1-1-2-.5-2-.5-1.5-.5-1.5-.5h-2-2v1 1l1 .5 1 .5h1.5 1.5 1 1l1 .5 1 .5.5.5.5.5.5.5.5.5.5.5.5.5v1 1l-1.5.5-1.5.5 1.5.5 1.5.5 1.5.5 1.5.5v1 1l-.5 1-.5 1-.5.5-.5.5h-1-1-1-1-.5-.5-1-1l-.5-.5-.5-.5v-1-1l1-.5 1-.5.5-.5.5-.5.5-1 .5-1-1 .5-1 .5-1 .5-1 .5-.5.5-.5.5-.5.5-.5.5v1 1l-.5.5-.5.5-.5 1-.5 1v1 1 1 1 1 1l-.5.5-.5.5.5 1 .5 1v1 1 1.5 1.5l8.5-4 8.5-4h1 1l.5-1.5.5-1.5.5-1.5.5-1.5v-1.5-1.5" style="fill:#9a662b;stroke:#9a662b"/><path d="m689 389v-2l-.5-.5-.5-.5v-1-1l-1-.5-1-.5-.5.5-.5.5h-1-1l-.5-.5-.5-.5-.5 1-.5 1-1 .5-1 .5 1 .5 1 .5 1-.5 1-.5v1 1l-1.5.5-1.5.5-1.5 1-1.5 1-1 1-1 1-.5 1.5-.5 1.5 1-.5 1-.5 1-.5 1-.5h1 1l1-1 1-1 1-.5 1-.5h1 1l1.5-1 1.5-1" style="fill:#954d03;stroke:#954d03"/><path d="m686 316l-9-28-2 11-2 11 6.5 3 6.5 3" style="fill:#603107;stroke:#603107"/><path d="m686 258v-2l-1.5-.5-1.5-.5-1.5-.5-1.5-.5-.5 1-.5 1-.5.5-.5.5-1 .5-1 .5v1 1l.5.5.5.5h1 1 .5.5 1 1 1 1l.5-.5.5-.5.5-1 .5-1" style="fill:#c1823e;stroke:#c1823e"/><path d="m683 615l1-3-1.5.5-1.5.5-1.5-1-1.5-1-1.5.5-1.5.5-1.5 1-1.5 1 .5 1.5.5 1.5 1.5 1 1.5 1 1.5-.5 1.5-.5 1-1 1-1 1-.5 1-.5" style="fill:#2a1d09;stroke:#2a1d09"/><path d="m683 388v-2l-1 .5-1 .5-1-.5-1-.5-1 .5-1 .5-1.5.5-1.5.5-1 .5-1 .5-1.5.5-1.5.5v1 1l-1.5.5-1.5.5-1.5 1-1.5 1h-.5-.5l-1 1-1 1v1 1l-1.5 1-1.5 1 1 .5 1 .5 1.5 1 1.5 1 1.5.5 1.5.5h1.5 1.5l-.5-1-.5-1v-1-1l1.5-1 1.5-1 1-1 1-1 1-.5 1-.5.5-1.5.5-1.5 1-1 1-1 1.5-1 1.5-1 1.5-.5 1.5-.5" style="fill:#715530;stroke:#715530"/><path d="m683 253v-2l-.5-.5-.5-.5-.5-.5-.5-.5-.5-.5-.5-.5-1-.5-1-.5h-1-1-1.5-1.5l-.5.5-.5.5-5.5 13-5.5 13-10.5-6-10.5-6 1 23.5 1 23.5 6.5 19.5 6.5 19.5 5.5-1 5.5-1-4-15-4-15h-2-2l-1-.5-1-.5-.5-.5-.5-.5-.5-.5-.5-.5v-1-1-1.5-1.5l.5-.5.5-.5v-1-1-1-1-1-1l1-.5 1-.5.5-.5.5-.5.5-.5.5-.5h1 1 1 1l1 .5 1 .5 1 1 1 1 1 .5 1 .5.5-.5.5-.5h1 1l.5-.5.5-.5 1-1 1-1v-1.5-1.5l-.5-.5-.5-.5v-2-2l.5-1 .5-1 .5-.5.5-.5v-2-2-1.5-1.5-1.5-1.5-1.5-1.5-1-1l-.5-1-.5-1 .5-.5.5-.5v-1-1-1-1-1-1l.5-1 .5-1 .5-.5.5-.5v-1-1l.5-.5.5-.5.5-.5.5-.5 1-.5 1-.5 1-.5 1-.5 1.5-.5 1.5-.5" style="fill:#b56500;stroke:#b56500"/><g style="fill:#9a662b;stroke:#9a662b"><path d="m677 413l1-3-1.5-1-1.5-1-1.5-.5-1.5-.5-2-1-2-1h-1.5-1.5l-1.5-.5-1.5-.5-1.5-1-1.5-1-1-.5-1-.5-2-.5-2-.5-1-.5-1-.5h-.5-.5l-2-.5-2-.5-1 1-1 1h1.5 1.5l.5.5.5.5h1.5 1.5l1.5.5 1.5.5 2 .5 2 .5 1.5.5 1.5.5 1.5.5 1.5.5.5.5.5.5 1 .5 1 .5 1.5.5 1.5.5h1 1l1 .5 1 .5.5 1 .5 1-11.5 8-11.5 8-5.5-9-5.5-9-.5 2-.5 2-1.5.5-1.5.5-1 1.5-1 1.5-1.5.5-1.5.5-1.5 1-1.5 1 .5 1.5.5 1.5-2 .5-2 .5-1.5.5-1.5.5-1.5.5-1.5.5-2 .5-2 .5 16.5 2.5 16.5 2.5 2.5-1 2.5-1 1-1 1-1 1.5-1 1.5-1 1-1 1-1 .5-1 .5-1h1 1l1-1 1-1 1-1 1-1 1.5-1 1.5-1 1.5-.5 1.5-.5 1.5-1 1.5-1"/><path d="m675 606h1v-.5-.5l-20.5 2.5-20.5 2.5-18 2-18 2 7-7.5 7-7.5h-.5-.5-.5-.5l-1.5 1.5-1.5 1.5-1 .5-1 .5-1 .5-1 .5-.5.5-.5.5-1 .5-1 .5-1 1-1 1-1.5.5-1.5.5-1.5.5-1.5.5-1 1.5-1 1.5-1.5.5-1.5.5-1.5 1-1.5 1 2.5.5 2.5.5 25-3.5 25-3.5 17.5-2 17.5-2"/></g><path d="m675 411l-1-2-1-.5-1-.5h-1-1l-1.5-.5-1.5-.5-1-.5-1-.5-.5-.5-.5-.5-1.5-.5-1.5-.5-1.5-.5-1.5-.5-2-.5-2-.5-1.5-.5-1.5-.5h-1.5-1.5l-.5-.5-.5-.5h-1.5-1.5l-1.5.5-1.5.5-1 1-1 1-1 1-1 1-.5 1-.5 1 1.5.5 1.5.5 1 .5 1 .5 5.5 9 5.5 9 11.5-8 11.5-8" style="fill:#c1823e;stroke:#c1823e"/><path d="m675 365l-1-1h-2-2l-2 .5-2 .5-1 1-1 1-.5 2-.5 2 1 1 1 1 1.5-1 1.5-1 1-1 1-1 1.5-.5 1.5-.5 1-1.5 1-1.5" style="fill:#b56500;stroke:#b56500"/><path d="m672 248l1-1-1-.5-1-.5h-1-1l-.5.5-.5.5-.5 1.5-.5 1.5-.5 1-.5 1-.5 1.5-.5 1.5-.5.5-.5.5-1 .5-1 .5-1 1-1 1-.5.5-.5.5h-1.5-1.5-2-2-1-1-1-1-1.5-1.5l-2-.5-2-.5-.5.5-.5.5v.5.5.5.5l10.5 6 10.5 6 5.5-13 5.5-13" style="fill:#954d03;stroke:#954d03"/><path d="m672 238l-17-29-11-7-11-7-12.5 5.5-12.5 5.5-3.5 11.5-3.5 11.5 6-7.5 6-7.5 8-8.5 8-8.5 11.5 6.5 11.5 6.5 9.5 13.5 9.5 13.5-.5 2-.5 2-.5 2-.5 2v.5.5h1 1v-1-1-1.5-1.5l.5-1.5.5-1.5" style="fill:#715530;stroke:#715530"/><path d="m671 237l-19-27-11.5-6.5-11.5-6.5-8 8.5-8 8.5-6 7.5-6 7.5 1.5 1 1.5 1 17.5 14 17.5 14 15-7 15-7 .5-2 .5-2 .5-2 .5-2" style="fill:#483925;stroke:#483925"/><path d="m668 314v-3l-1-1-1-1-1 .5-1 .5-.5-1.5-.5-1.5v-3-3l-1-1-1-1-1-.5-1-.5h-1-1-1-1l-.5.5-.5.5-.5.5-.5.5-1 .5-1 .5v1 1 1 1 1 1l-.5.5-.5.5v1.5 1.5 1 1l.5.5.5.5.5.5.5.5 1 .5 1 .5h2 2l2-.5 2-.5.5-1.5.5-1.5 1 1.5 1 1.5 1.5-.5 1.5-.5" style="fill:#c1823e;stroke:#c1823e"/><g style="fill:#603107;stroke:#603107"><path d="m668 247l1-1v-.5-.5l-15 7-15 7h1 1l2 .5 2 .5h1.5 1.5 1 1 1 1 2 2 1.5 1.5l.5-.5.5-.5 1-1 1-1 1-.5 1-.5.5-.5.5-.5.5-1.5.5-1.5.5-1 .5-1 .5-1.5.5-1.5"/><path d="m662 395h1l-1-1-1-1-1 .5-1 .5h-1-1l-1.5-.5-1.5-.5h-2-2l-1 .5-1 .5.5 2 .5 2 1 .5 1 .5 1 .5 1 .5 2 .5 2 .5 1.5-1 1.5-1v-1-1l1-1 1-1"/></g><path d="m660 665l1-1-7-10.5-7-10.5-3-10-3-10-8.5-2.5-8.5-2.5-9.5 2.5-9.5 2.5-9.5 6.5-9.5 6.5-1-1-1-1-.5-1.5-.5-1.5-1-1.5-1-1.5-1-2-1-2-1-.5-1-.5-1.5 1-1.5 1-1.5.5-1.5.5-1.5 1-1.5 1-1 1-1 1-.5 1-.5 1 .5 1 .5 1 .5 1 .5 1v1 1l.5.5.5.5.5.5.5.5.5 1 .5 1 .5.5.5.5.5.5.5.5v1 1 1 1l-1 .5-1 .5-.5.5-.5.5-.5.5-.5.5h-1-1l-.5 1-.5 1-1.5-.5-1.5-.5v-1-1l.5-1 .5-1v-2-2l-.5-.5-.5-.5-.5-1-.5-1-1-1-1-1-.5-.5-.5-.5-1-.5-1-.5-.5-1-.5-1-1-1.5-1-1.5-1-1-1-1h-2-2l-1.5-.5-1.5-.5h-1-1-1-1-1-1l-1 .5-1 .5h-1-1l-.5.5-.5.5v1 1l-1 .5-1 .5-1-1-1-1v-1-1l-.5-1-.5-1-.5-2.5-.5-2.5v-13.5-13.5l.5-2 .5-2v-2-2-1-1-1-1l-.5-.5-.5-.5-.5-.5-.5-.5-.5-.5-.5-.5-.5-1-.5-1v-1-1l-.5-.5-.5-.5h-1-1v-1.5-1.5l-.5-.5-.5-.5-.5-.5-.5-.5v-1-1l-.5-1-.5-1-.5-.5-.5-.5-1-1-1-1-9-9.5-9-9.5-10-8.5-10-8.5-10-7-10-7-19 6.5-19 6.5-.5.5-.5.5-1 17-1 17v14 14l-5.5-2.5-5.5-2.5-7.5-12-7.5-12-8-19-8-19-8.5-4.5-8.5-4.5 6.5 11.5 6.5 11.5 11 21 11 21 .5 1.5.5 1.5 1 1 1 1 .5 2 .5 2 1 1 1 1 1 1.5 1 1.5 1 1.5 1 1.5.5.5.5.5.5 1 .5 1-.5 2-.5 2v.5.5l5 13 5 13 5 13 5 13 8.5 17 8.5 17 25.5-2.5 25.5-2.5 16-2 16-2 17.5-2 17.5-2 16.5-2 16.5-2 19.5-1.5 19.5-1.5 2-.5 2-.5h2.5 2.5l1.5-.5 1.5-.5h2 2l2-.5 2-.5h2 2l2-.5 2-.5 1-.5 1-.5" style="fill:#2a1d09;stroke:#2a1d09"/><path d="m660 313l1-3v-2-2l-.5-2-.5-2-1.5-.5-1.5-.5-2 .5-2 .5-.5 1.5-.5 1.5v2.5 2.5l.5 1.5.5 1.5 1.5.5 1.5.5 2-.5 2-.5" style="fill:#aa9472;stroke:#aa9472"/><path d="m650 399h1l-1-.5-1-.5-.5-2-.5-2-13.5-5.5-13.5-5.5-1-.5-1-.5-1-.5-1-.5-2-.5-2-.5-.5-1.5-.5-1.5.5-2 .5-2 1-1 1-1 1.5-1 1.5-1 1.5-.5 1.5-.5 2-1.5 2-1.5 1-1.5 1-1.5 9.5-15 9.5-15v-2.5-2.5-2-2l-1-1.5-1-1.5v-2-2l-.5-1.5-.5-1.5-1-2-1-2-.5-1-.5-1-.5-1-.5-1-18-3-18-3-15 2-15 2 16-.5 16-.5 12 6 12 6 7 10.5 7 10.5v2 2l-.5 2-.5 2-.5 1.5-.5 1.5-.5 2-.5 2-.5 1.5-.5 1.5-1 1.5-1 1.5h-2-2l-1.5.5-1.5.5-1.5 1-1.5 1-1 .5-1 .5-11.5 7.5-11.5 7.5 8.5 8.5 8.5 8.5h-.5-.5-1.5-1.5-2-2l-2.5-.5-2.5-.5 1 .5 1 .5v2 2 2 2l-.5 1.5-.5 1.5-9 7.5-9 7.5 2.5 6.5 2.5 6.5-12-6.5-12-6.5 18-13.5 18-13.5-14 .5-14 .5 1.5 5 1.5 5-11-.5-11-.5h1.5 1.5l.5-.5.5-.5.5-.5.5-.5.5.5.5.5-.5 1-.5 1-.5.5-.5.5-.5 1-.5 1h1.5 1.5l2-.5 2-.5 1.5.5 1.5.5-.5 1.5-.5 1.5-.5 1-.5 1-.5-.5-.5-.5h-1-1l-1-.5-1-.5h-1-1l-.5-.5-.5-.5h-1.5-1.5l-2 .5-2 .5-2 .5-2 .5h-2-2l-.5-.5-.5-.5 1.5-1 1.5-1 1.5-.5 1.5-.5 2-.5 2-.5 1.5-1.5 1.5-1.5-1 .5-1 .5-2 .5-2 .5-1.5.5-1.5.5-1.5 1-1.5 1-1.5-.5-1.5-.5v-2-2l-1 1.5-1 1.5 3 8 3 8 14 1 14 1-7 4.5-7 4.5 15 2 15 2 22.5 2 22.5 2v.5.5l1-.5 1-.5 1.5-1 1.5-1 .5-1.5.5-1.5 1.5-.5 1.5-.5h1.5 1.5v-.5-.5l-16.5-2.5-16.5-2.5-5.5-3-5.5-3 16.5-4.5 16.5-4.5-.5 1-.5 1 1.5-.5 1.5-.5.5-2 .5-2-1-.5-1-.5-1.5-.5-1.5-.5.5-1 .5-1 1-1 1-1 1-1 1-1 1.5-.5 1.5-.5 1-1 1-1 2 .5 2 .5" style="fill:#715530;stroke:#715530"/><path d="m648 339l1-3-.5-1.5-.5-1.5-1-.5-1-.5-9.5 15-9.5 15 10.5-11.5 10.5-11.5" style="fill:#9a662b;stroke:#9a662b"/><path d="m647 378l-1-1-1.5-.5-1.5-.5-2-.5-2-.5-.5-1.5-.5-1.5-1-1.5-1-1.5-1-1-1-1-2-.5-2-.5-1-.5-1-.5h-1.5-1.5l-2 1.5-2 1.5-1.5.5-1.5.5-1.5 1-1.5 1-1 1-1 1-.5 2-.5 2 .5 1.5.5 1.5 2 .5 2 .5 1 .5 1 .5 1 .5 1 .5.5-2 .5-2 .5-.5.5-.5h2 2 1.5 1.5l.5.5.5.5h2 2 1.5 1.5 1 1 1 1 1 1l1.5-.5 1.5-.5" style="fill:#b56500;stroke:#b56500"/><path d="m646 440v-3l-.5-1-.5-1-1-.5-1-.5-.5 1.5-.5 1.5-1.5 1-1.5 1-1 .5-1 .5-11 7.5-11 7.5-15.5 11-15.5 11-.5.5-.5.5-11 8-11 8-11 8-11 8-11.5 7-11.5 7-14 3.5-14 3.5 10.5 6 10.5 6 8-9.5 8-9.5 14.5-8.5 14.5-8.5 14-10 14-10 11-8 11-8 10.5-7.5 10.5-7.5 10.5-8 10.5-8" style="fill:#603107;stroke:#603107"/><path d="m643 335l-14-21-12-6-12-6-16 .5-16 .5-8.5-13-8.5-13-12-6.5-12-6.5-8.5-10.5-8.5-10.5-14.5-3.5-14.5-3.5-10.5 8.5-10.5 8.5 2 .5 2 .5 1.5.5 1.5.5v1 1l.5 1 .5 1 .5 1.5.5 1.5v1 1h-1.5-1.5-1-1l-1 .5-1 .5.5 2.5.5 2.5 1 .5 1 .5 1.5 1 1.5 1 1-1 1-1 1.5-1 1.5-1 1.5-.5 1.5-.5-.5 1.5-.5 1.5-1 1.5-1 1.5-1 1.5-1 1.5-1 1-1 1-1.5 1-1.5 1v1 1l1.5-.5 1.5-.5v1.5 1.5l-1 1-1 1 .5 2.5.5 2.5 5 25 5 25 6 13 6 13 15.5 6.5 15.5 6.5 1-.5 1-.5 1.5-.5 1.5-.5-1.5-.5-1.5-.5 1.5-1 1.5-1 .5-1.5.5-1.5 2-.5 2-.5.5-1.5.5-1.5 1.5.5 1.5.5 1 .5 1 .5v1 1l-1 1.5-1 1.5h-1-1l-1 1-1 1-1.5 1-1.5 1-1.5.5-1.5.5-.5 1-.5 1 1 .5 1 .5 1.5-.5 1.5-.5.5-.5.5-.5.5-.5.5-.5.5-.5.5-.5 1 .5 1 .5.5.5.5.5 1.5.5 1.5.5 1.5-1 1.5-1 .5-.5.5-.5h1 1l.5-.5.5-.5.5-.5.5-.5.5-.5.5-.5 1-.5 1-.5h1 1 1 1 1.5 1.5l-7.5-2-7.5-2-1-6-1-6-10 7.5-10 7.5-11.5-1.5-11.5-1.5-5.5-10.5-5.5-10.5-1-11.5-1-11.5 5.5 1.5 5.5 1.5 17.5-3.5 17.5-3.5-.5 2-.5 2-1-4.5-1-4.5-2.5-10-2.5-10 4-4.5 4-4.5 10.5-2.5 10.5-2.5 7 8 7 8 11 3.5 11 3.5 11 2 11 2 14 11.5 14 11.5v2 2l-.5.5-.5.5-.5.5-.5.5v1.5 1.5 1 1 1 1l-.5.5-.5.5v1 1l-.5 1-.5 1-.5.5-.5.5-.5.5-.5.5-.5-.5-.5-.5-.5.5-.5.5-1 .5-1 .5h-1-1l-.5.5-.5.5-.5.5-.5.5-1 1-1 1 1-.5 1-.5 1.5-1 1.5-1 1.5-.5 1.5-.5h2 2l1-1.5 1-1.5.5-1.5.5-1.5.5-2 .5-2 .5-1.5.5-1.5.5-2 .5-2v-2-2" style="fill:#483925;stroke:#483925"/><path d="m642 396l-24 5 3 3 3 3 9-5.5 9-5.5" style="fill:#edcfbb;stroke:#edcfbb"/><path d="m641 335l-28-23-11-2-11-2-11-3.5-11-3.5-7-8-7-8-10.5 2.5-10.5 2.5-4 4.5-4 4.5 2.5 10 2.5 10 1 .5 1 .5v1 1l.5 1 .5 1-17.5 3.5-17.5 3.5-5.5-1.5-5.5-1.5 1 11.5 1 11.5 5.5 10.5 5.5 10.5 11.5 1.5 11.5 1.5 10-7.5 10-7.5 1 6 1 6 7.5 2 7.5 2h2 2l.5.5.5.5h1 1 1 1l1 .5 1 .5.5.5.5.5.5.5.5.5v1 1l-1.5 1-1.5 1 24 4 24 4-8.5-8.5-8.5-8.5 11.5-7.5 11.5-7.5 1-1 1-1 .5-.5.5-.5.5-.5.5-.5h1 1l1-.5 1-.5.5-.5.5-.5.5.5.5.5.5-.5.5-.5.5-.5.5-.5.5-1 .5-1v-1-1l.5-.5.5-.5v-1-1-1-1-1.5-1.5l.5-.5.5-.5.5-.5.5-.5v-2-2" style="fill:#2a1d09;stroke:#2a1d09"/><path d="m641 309h1l-1-23.5-1-23.5v-.5-.5h-1-1l.5 22 .5 22 .5 1 .5 1 .5 1 .5 1" style="fill:#9a662b;stroke:#9a662b"/><path d="m640 260l1-1h-1-1l-17.5-14-17.5-14 17 15 17 15h1 1v-.5-.5" style="fill:#715530;stroke:#715530"/><path d="m638 412l-33 9 5.5 3 5.5 3 2-.5 2-.5 1.5-.5 1.5-.5 1.5-.5 1.5-.5 2-.5 2-.5-.5-1.5-.5-1.5 1.5-1 1.5-1 1.5-.5 1.5-.5 1-1.5 1-1.5.5-1 .5-1" style="fill:#483925;stroke:#483925"/><path d="m637 439l-45-4-15-2-15-2 7-4.5 7-4.5-14-1-14-1-3-8-3-8-1.5.5-1.5.5-1.5.5-1.5.5h-.5-.5l-1 1-1 1v1.5 1.5l.5.5.5.5 1 .5 1 .5 1 1 1 1v1 1l-2 1.5-2 1.5h-2-2l-1.5.5-1.5.5-2 .5-2 .5-1.5-.5-1.5-.5-1.5-1-1.5-1-1-1.5-1-1.5h-2-2l.5 1.5.5 1.5-1.5.5-1.5.5 1 .5 1 .5v.5.5.5.5l15 .5 15 .5 12.5 4.5 12.5 4.5 5 9.5 5 9.5 15 3 15 3-1 1-1 1-.5.5-.5.5h-1-1l-.5 1-.5 1-.5.5-.5.5-.5.5-.5.5-.5.5-.5.5-1 .5-1 .5-.5.5-.5.5-.5.5-.5.5h-1-1l-.5.5-.5.5-.5.5-.5.5-1 .5-1 .5-.5.5-.5.5-.5.5-.5.5-.5.5-.5.5-1 1-1 1h1 1l15.5-11 15.5-11 11-7.5 11-7.5v-.5-.5" style="fill:#9a662b;stroke:#9a662b"/><path d="m637 4l1-1-.5-.5-.5-.5h-.5-.5l-14 5.5-14 5.5-13 5.5-13 5.5-13 5-13 5-13 6-13 6-23.5 8.5-23.5 8.5 1 1.5 1 1.5 25-9.5 25-9.5 12.5-5.5 12.5-5.5 13-5.5 13-5.5 12.5-5.5 12.5-5.5 13-5 13-5" style="fill:#f3f1e9;stroke:#f3f1e9"/><path d="m636 2h1v-1-1h-20.5-20.5-20-20-4-4l-.5.5-.5.5-7.5 3-7.5 3-12.5 6-12.5 6-7.5 3.5-7.5 3.5-11 1-11 1 13-5.5 13-5.5 17.5-8.5 17.5-8.5h-20-20-20-20l6 12 6 12 10 19.5 10 19.5 23.5-8.5 23.5-8.5 13-6 13-6 13-5 13-5 13-5.5 13-5.5 14-5.5 14-5.5" style="fill:#edcfbb;stroke:#edcfbb"/><path d="m635 412l-23 10 4.5.5 4.5.5 7-5.5 7-5.5" style="fill:#2a1d09;stroke:#2a1d09"/><path d="m629 671l1-1-19.5 1.5-19.5 1.5-16.5 2-16.5 2 18-1.5 18-1.5 17.5-1.5 17.5-1.5" style="fill:#483925;stroke:#483925"/><path d="m625 593l1-3-.5-.5-.5-.5v-1-1l-.5-.5-.5-.5-1-1-1-1-.5-1-.5-1-.5-.5-.5-.5-.5-1.5-.5-1.5-.5-1-.5-1-.5-.5-.5-.5-.5-1.5-.5-1.5-1-1.5-1-1.5-2 .5-2 .5-.5.5-.5.5-1.5.5-1.5.5-1.5 1-1.5 1 1 1 1 1 1 1.5 1 1.5.5 1.5.5 1.5 1 1.5 1 1.5v2 2l.5 1 .5 1v3 3l.5 1 .5 1h.5.5l2-1 2-1 1-1 1-1 2-.5 2-.5 1-.5 1-.5" style="fill:#b56500;stroke:#b56500"/><path d="m618 392h1l-24-4-24-4-1 .5-1 .5-1.5 1-1.5 1-1.5.5-1.5.5-1.5.5-1.5.5-1.5 1-1.5 1-1.5.5-1.5.5-1.5-1-1.5-1-1.5.5-1.5.5v2.5 2.5l-1 1-1 1-1 1.5-1 1.5v2 2l1.5.5 1.5.5 1.5-1 1.5-1 1.5-.5 1.5-.5 2-.5 2-.5 1-.5 1-.5 11 .5 11 .5-1.5-5-1.5-5 14-.5 14-.5 2.5.5 2.5.5h2 2 1.5 1.5" style="fill:#483925;stroke:#483925"/><path d="m611 599h1l-.5-1-.5-1v-3-3h-.5-.5l-1 1.5-1 1.5-.5.5-.5.5-12 6.5-12 6.5-20.5 2.5-20.5 2.5v1 1l1 1.5 1 1.5h12 12l20-9 20-9v1 1l1.5-1.5 1.5-1.5" style="fill:#aa9472;stroke:#aa9472"/><path d="m610 591h1l-.5-1-.5-1v-2-2l-1-1.5-1-1.5-.5-1.5-.5-1.5-1-1.5-1-1.5-1-1-1-1 1.5-1 1.5-1-16 2-16 2-15.5 3-15.5 3-2.5 13-2.5 13 1 1 1 1v1 1l1 1.5 1 1.5v-1-1l11-7.5 11-7.5 11.5-6.5 11.5-6.5 10.5 4.5 10.5 4.5 1-1.5 1-1.5" style="fill:#c1823e;stroke:#c1823e"/><path d="m608 600l-40 18h-12-12-2-2v1.5 1.5l1 1 1 1 1 .5 1 .5.5 1.5.5 1.5-1-.5-1-.5h-1-1-1-1l-1 .5-1 .5h1.5 1.5 2 2l2 .5 2 .5 1.5-.5 1.5-.5 2-1 2-1 1.5-.5 1.5-.5 2-.5 2-.5 1-1 1-1 2-.5 2-.5 1-1 1-1h1.5 1.5l1-1 1-1h1.5 1.5l.5-1 .5-1 1.5-.5 1.5-.5 1.5-.5 1.5-.5 1.5-1 1.5-1 1.5-.5 1.5-.5h1.5 1.5l1-1 1-1 2-.5 2-.5 2-1 2-1 1-.5 1-.5 1-.5 1-.5v-1-1" style="fill:#715530;stroke:#715530"/><path d="m607 595l1-1-10.5-4.5-10.5-4.5-11.5 6.5-11.5 6.5-11 7.5-11 7.5 20.5-2.5 20.5-2.5 12-6.5 12-6.5" style="fill:#d9b78d;stroke:#d9b78d"/><path d="m607 403l1-3v-2-2-2-2l-1-.5-1-.5-18 13.5-18 13.5 12 6.5 12 6.5-2.5-6.5-2.5-6.5 9-7.5 9-7.5" style="fill:#9a662b;stroke:#9a662b"/><path d="m606 458l-30-6-5-9.5-5-9.5-12.5-4.5-12.5-4.5-15-.5-15-.5-2 .5-2 .5-1 1.5-1 1.5-1 1-1 1h-1-1l-1.5-1-1.5-1h-1-1l-1.5-1-1.5-1-1-1-1-1h-2-2-1.5-1.5l-1 1.5-1 1.5-1.5.5-1.5.5-.5 1.5-.5 1.5-1.5 1-1.5 1h-1-1-1.5-1.5l-1 .5-1 .5-1 1.5-1 1.5-1 1-1 1h-2.5-2.5l-1.5.5-1.5.5-2 .5-2 .5-1-1-1-1-.5-2-.5-2v-2-2l.5-1.5.5-1.5 1-1.5 1-1.5v-2.5-2.5l1-1.5 1-1.5-1-2-1-2-2 .5-2 .5v-1-1l-.5-.5-.5-.5v-1-1l1-.5 1-.5.5-.5.5-.5h1 1l1-1 1-1v-1.5-1.5-2-2l-14 8-14 8-12 8-12 8-12 8-12 8-12.5 7.5-12.5 7.5-10.5 7.5-10.5 7.5 5 9.5 5 9.5 2-10 2-10 8-1 8-1 10-4 10-4 12.5 2 12.5 2 11.5-.5 11.5-.5 1.5 6.5 1.5 6.5 8.5-3 8.5-3 5-8 5-8 3 7 3 7 9.5-.5 9.5-.5 10-4.5 10-4.5 6.5 3.5 6.5 3.5-1 6-1 6 9.5-1 9.5-1 14.5 4 14.5 4-1.5 2-1.5 2 1-.5 1-.5 1.5-1 1.5-1 1-1 1-1 1.5-.5 1.5-.5 1-1.5 1-1.5 1.5-.5 1.5-.5 1.5-1 1.5-1 1.5-1 1.5-1 1-1 1-1 .5-.5.5-.5.5-.5.5-.5.5-.5.5-.5 1-.5 1-.5.5-.5.5-.5.5-.5.5-.5h1 1l.5-.5.5-.5.5-.5.5-.5 1-.5 1-.5.5-.5.5-.5.5-.5.5-.5.5-.5.5-.5.5-1 .5-1h1 1l.5-.5.5-.5 1-1 1-1" style="fill:#c1823e;stroke:#c1823e"/><path d="m605 594l-15-8-12 6-12 6-11 6-11 6 14 1 14 1 12.5-7 12.5-7 4-2 4-2" style="fill:#edcfbb;stroke:#edcfbb"/><path d="m605 569l1-1-13-1.5-13-1.5-2-9-2-9-2-9.5-2-9.5-9-10.5-9-10.5-14.5 8.5-14.5 8.5-8 9.5-8 9.5-10.5-6-10.5-6-1.5-.5-1.5-.5h-1-1l-.5-1-.5-1-1-1-1-1-.5-.5-.5-.5-1-.5-1-.5-1-1-1-1v-1-1l-.5-1-.5-1-1-1-1-1-.5-1-.5-1-1.5-1.5-1.5-1.5-.5-1.5-.5-1.5-2-.5-2-.5-1-1-1-1-1.5-1-1.5-1h-.5-.5l-20 9.5-20 9.5v1.5 1.5l-.5.5-.5.5 1.5.5 1.5.5 19-6.5 19-6.5 10 7 10 7 10 8.5 10 8.5 9 9.5 9 9.5h1.5 1.5 1 1l.5 1 .5 1-.5 1.5-.5 1.5 1 1.5 1 1.5 1 1 1 1 .5 1.5.5 1.5.5.5.5.5.5 1 .5 1 1 1 1 1v1 1l.5 1 .5 1v1.5 1.5l-1 1.5-1 1.5-.5 2-.5 2h1 1l.5-1 .5-1 .5-.5.5-.5.5-.5.5-.5v-1-1l1.5-1 1.5-1 .5-1.5.5-1.5 1-.5 1-.5.5-.5.5-.5.5-.5.5-.5 1-1 1-1 26-4.5 26-4.5 1.5-.5 1.5-.5h1 1 1 1l2-.5 2-.5" style="fill:#483925;stroke:#483925"/><path d="m605 411v-2l-1.5.5-1.5.5-1.5 1-1.5 1-1 1-1 1-1.5 1-1.5 1v1 1l1.5 1 1.5 1h2 2l.5-1.5.5-1.5 1-1.5 1-1.5.5-1.5.5-1.5" style="fill:#edcfbb;stroke:#edcfbb"/><path d="m603 605l1-1-2 1-2 1-2 .5-2 .5-1 1-1 1h-1.5-1.5l-1.5.5-1.5.5-1.5 1-1.5 1-1.5.5-1.5.5-1.5.5-1.5.5-.5 1-.5 1-7.5 6-7.5 6 13.5-5.5 13.5-5.5-2.5-.5-2.5-.5 1.5-1 1.5-1 1.5-.5 1.5-.5 1-1.5 1-1.5 1.5-.5 1.5-.5 1.5-.5 1.5-.5 1-1 1-1 1-.5 1-.5" style="fill:#954d03;stroke:#954d03"/><path d="m593 572l1-1-26 4.5-26 4.5 25.5-4 25.5-4" style="fill:#715530;stroke:#715530"/><path d="m586 633l1-4v-1.5-1.5h-1-1-1-1l-.5-1-.5-1h-1.5-1.5l1 2 1 2 1 1.5 1 1.5.5 1.5.5 1.5 1 1 1 1v-1.5-1.5" style="fill:#483925;stroke:#483925"/><path d="m585 678l1-1-25 2.5-25 2.5-12 4-12 4-13.5-1-13.5-1-16.5 1.5-16.5 1.5-16.5 1.5-16.5 1.5-17 2.5-17 2.5 21.5-2 21.5-2 16.5-1.5 16.5-1.5 11.5 2.5 11.5 2.5 8.5 1.5 8.5 1.5h12.5 12.5l6-1.5 6-1.5-1 1-1 1-1 .5-1 .5 2 1 2 1 9-7.5 9-7.5 14.5-4.5 14.5-4.5" style="fill:#9a662b;stroke:#9a662b"/><path d="m583 478l1-1h-1-1l-1.5 1-1.5 1-1.5 1-1.5 1-1.5.5-1.5.5-1 1.5-1 1.5-1.5.5-1.5.5-1 1-1 1-1.5 1-1.5 1-1 .5-1 .5-12 8-12 8-11 7-11 7-21.5-3.5-21.5-3.5h-.5-.5l.5 1 .5 1 1 1 1 1 .5 1 .5 1v1 1l1 1 1 1 1 .5 1 .5.5.5.5.5 1 1 1 1 .5 1 .5 1h1 1l1.5.5 1.5.5 14-3.5 14-3.5 11.5-7 11.5-7 11-8 11-8 11-8 11-8" style="fill:#715530;stroke:#715530"/><path d="m574 382v-2l-.5-.5-.5-.5-.5-.5-.5-.5-1-.5-1-.5h-1-1-1-1l-.5-.5-.5-.5h-2-2-1.5-1.5-1-1-1-1l-1 .5-1 .5-.5.5-.5.5-.5.5-.5.5-.5.5-.5.5h-1-1l-.5.5-.5.5-1.5 1-1.5 1-.5.5-.5.5-1.5.5-1.5.5h-1.5-1.5l-.5 1-.5 1-1 .5-1 .5-1 1-1 1-1 1-1 1h-1-1l-.5 1-.5 1-1.5.5-1.5.5-1.5 1-1.5 1-1.5.5-1.5.5-1.5-1-1.5-1-.5-1.5-.5-1.5-1-1.5-1-1.5h-1-1l-1.5-.5-1.5-.5-.5-1.5-.5-1.5-1.5.5-1.5.5 1 1.5 1 1.5.5 1.5.5 1.5-1.5 1-1.5 1h-1.5-1.5v1.5 1.5l1 .5 1 .5.5 1.5.5 1.5.5.5.5.5 1 .5 1 .5h1 1 1 1l-.5.5-.5.5v1.5 1.5l-1 1-1 1 .5.5.5.5-.5 1-.5 1 1 1 1 1 1.5.5 1.5.5h2 2v-.5-.5h-1-1-1-1v-1.5-1.5l.5-.5.5-.5.5-.5.5-.5.5-.5.5-.5 1-.5 1-.5v-1-1l-.5-.5-.5-.5.5-.5.5-.5.5-1 .5-1v-1-1l.5-.5.5-.5h1 1l.5-1 .5-1h1 1l-.5.5-.5.5-.5 1-.5 1 1.5-.5 1.5-.5.5-.5.5-.5 1-.5 1-.5 1-1 1-1 .5-.5.5-.5h1 1l.5-.5.5-.5 1-.5 1-.5.5-.5.5-.5.5-.5.5-.5.5-.5.5-.5 1-.5 1-.5.5-.5.5-.5h1 1l.5-.5.5-.5 1-.5 1-.5.5.5.5.5-.5 1.5-.5 1.5-12.5 5.5-12.5 5.5-1 .5-1 .5-.5 1-.5 1 .5.5.5.5.5.5.5.5.5.5.5.5.5.5.5.5h1.5 1.5 1 1 1 1l.5.5.5.5 1-.5 1-.5.5-.5.5-.5.5-.5.5-.5 1 .5 1 .5 1.5-.5 1.5-.5 1.5-.5 1.5-.5 1-1.5 1-1.5 1-1.5 1-1.5 1-1 1-1v-2.5-2.5l1.5-.5 1.5-.5 1.5 1 1.5 1 1.5-.5 1.5-.5 1.5-1 1.5-1 1.5-.5 1.5-.5 1.5-.5 1.5-.5 1.5-1 1.5-1 1-.5 1-.5 1.5-1 1.5-1" style="fill:#8d724a;stroke:#8d724a"/><path d="m572 648v-2-1-1l-.5-.5-.5-.5-.5-.5-.5-.5-.5-1-.5-1-.5-.5-.5-.5-.5-.5-.5-.5v-1-1l-.5-1-.5-1-.5-1-.5-1-1.5.5-1.5.5-.5 1.5-.5 1.5-1.5-.5-1.5-.5h-1.5-1.5l.5 1 .5 1 1 .5 1 .5.5.5.5.5 1 1 1 1 .5 1 .5 1 .5.5.5.5v2 2l-.5 1-.5 1v1 1l1.5.5 1.5.5.5-1 .5-1h1 1l.5-.5.5-.5.5-.5.5-.5 1-.5 1-.5" style="fill:#483925;stroke:#483925"/><path d="m571 408l1-3-1.5-.5-1.5-.5-2 .5-2 .5h-1.5-1.5l-1.5 1-1.5 1h1.5 1.5l.5.5.5.5h1 1l1 .5 1 .5h1 1l.5.5.5.5.5-1 .5-1" style="fill:#8d724a;stroke:#8d724a"/><path d="m565 400l-1-1-.5.5-.5.5-.5.5-.5.5h-1.5-1.5l-1.5 1.5-1.5 1.5-2 .5-2 .5-1.5.5-1.5.5-1.5 1-1.5 1 .5.5.5.5h2 2l2-.5 2-.5 2-.5 2-.5 1.5-1 1.5-1 .5-1 .5-1 .5-.5.5-.5.5-1 .5-1" style="fill:#9a662b;stroke:#9a662b"/><path d="m564 487l-29-8-9.5 1-9.5 1 1-6 1-6-6.5-3.5-6.5-3.5-10 4.5-10 4.5-9.5.5-9.5.5-3-7-3-7-5 8-5 8-8.5 3-8.5 3-1.5-6.5-1.5-6.5-11.5.5-11.5.5-12.5-2-12.5-2-10 4-10 4-8 1-8 1-2 10-2 10 1.5 1 1.5 1 1.5 1 1.5 1 1 1 1 1 1 1 1 1 1.5 1 1.5 1 1.5.5 1.5.5 1 1 1 1 1.5.5 1.5.5 1.5 1 1.5 1 1.5.5 1.5.5 2 .5 2 .5 1.5.5 1.5.5 1.5 1 1.5 1h2 2l1.5 1 1.5 1 1.5.5 1.5.5 1.5.5 1.5.5 1.5.5 1.5.5 11.5-5.5 11.5-5.5 11-6 11-6 16 8.5 16 8.5 21.5 3.5 21.5 3.5 11-7 11-7 12-8 12-8 1.5-2 1.5-2" style="fill:#aa9472;stroke:#aa9472"/><path d="m561 556l-11-20-3 7-3 7 8 5 8 5 .5-2 .5-2" style="fill:#2a1d09;stroke:#2a1d09"/><path d="m551 629v-2l-1.5.5-1.5.5-2-.5-2-.5h-2-2-1.5-1.5l-1 .5-1 .5-1 .5-1 .5-.5.5-.5.5-1-.5-1-.5-.5-1.5-.5-1.5v-2-2l-1 .5-1 .5.5 2.5.5 2.5.5 1 .5 1v1 1l1 1 1 1 1-.5 1-.5v-1-1l.5-.5.5-.5h1 1l1-.5 1-.5h1 1 1 1 1 1l1.5.5 1.5.5h2 2v-.5-.5" style="fill:#483925;stroke:#483925"/><path d="m547 1l1-1h-3-3-2.5-2.5-2-2-1-1l-17.5 8.5-17.5 8.5-13 5.5-13 5.5 11-1 11-1 7.5-3.5 7.5-3.5 12.5-6 12.5-6 7.5-3 7.5-3" style="fill:#f3f1e9;stroke:#f3f1e9"/><path d="m546 389l1-3-.5-.5-.5-.5-1 .5-1 .5-.5.5-.5.5h-1-1l-.5.5-.5.5-1 .5-1 .5-.5.5-.5.5-.5.5-.5.5-.5.5-.5.5-1 .5-1 .5-.5.5-.5.5h-1-1l-.5.5-.5.5-1 1-1 1-1 .5-1 .5-.5.5-.5.5-1.5.5-1.5.5 12.5-5.5 12.5-5.5" style="fill:#edcfbb;stroke:#edcfbb"/><path d="m545 627l-1-3h-.5-.5l-2-.5-2-.5h-2-2-2-2l.5 2.5.5 2.5 2.5-.5 2.5-.5 1-.5 1-.5h1 1 1 1l1 .5 1 .5" style="fill:#8d724a;stroke:#8d724a"/><path d="m543 624h1l-1-.5-1-.5-1-1-1-1v-1.5-1.5h2 2l-1-1.5-1-1.5-1-1.5-1-1.5v-1-1l-1-1-1-1h-.5-.5v1.5 1.5 1 1 1 1l-1-.5-1-.5v-1.5-1.5l-.5.5-.5.5-1 .5-1 .5v2 2 1 1l-.5 2-.5 2h2 2 2 2l2 .5 2 .5" style="fill:#9a662b;stroke:#9a662b"/><path d="m542 384l1-1-1.5-.5-1.5-.5-.5-.5-.5-.5-1-.5-1-.5-.5.5-.5.5-.5.5-.5.5-.5.5-.5.5-1.5.5-1.5.5-2-.5-2-.5-.5-1-.5-1-15.5-6.5-15.5-6.5v2 2l1 1 1 1v1.5 1.5l.5 1.5.5 1.5 1 .5 1 .5h1 1l1.5-.5 1.5-.5 1 .5 1 .5v1 1l1 .5 1 .5 1 .5 1 .5h3 3 2 2 2.5 2.5 2 2 3 3 1.5 1.5l1.5-.5 1.5-.5" style="fill:#715530;stroke:#715530"/><path d="m542 373v-2l-1-.5-1-.5-1.5-.5-1.5-.5-.5 1.5-.5 1.5-2 .5-2 .5-.5 1.5-.5 1.5-1.5 1-1.5 1 1.5.5 1.5.5-1.5.5-1.5.5-1 .5-1 .5.5 1 .5 1 2 .5 2 .5-1-.5-1-.5.5-1 .5-1 1.5-.5 1.5-.5 1.5-1 1.5-1 1-1 1-1h1 1l1-1.5 1-1.5" style="fill:#603107;stroke:#603107"/><path d="m538 697l-12 3h-12.5-12.5l10 3.5 10 3.5 8.5-2.5 8.5-2.5-2-1-2-1 1-.5 1-.5 1-1 1-1" style="fill:#b56500;stroke:#b56500"/><path d="m538 417v-2l-1-1-1-1-1-.5-1-.5-.5-.5-.5-.5v-1.5-1.5l-1 2-1 2-1.5-.5-1.5-.5-1 1.5-1 1.5-1-1-1-1-1-1-1-1-1 1.5-1 1.5-1.5.5-1.5.5-1 .5-1 .5v.5.5l1 1.5 1 1.5 1.5 1 1.5 1 1.5.5 1.5.5 2-.5 2-.5 1.5-.5 1.5-.5h2 2l2-1.5 2-1.5" style="fill:#c1823e;stroke:#c1823e"/><path d="m537 615v-2-1-1-1.5-1.5l-.5-1.5-.5-1.5-.5-1.5-.5-1.5-.5-2-.5-2-1-1-1-1v-1.5-1.5l1-1 1-1 .5-1.5.5-1.5-1.5 1-1.5 1v1 1l-.5.5-.5.5-.5.5-.5.5-.5 1-.5 1 .5 1.5.5 1.5.5.5.5.5 1 .5 1 .5-.5 1.5-.5 1.5.5.5.5.5.5 1 .5 1v1.5 1.5h-1.5-1.5l-.5.5-.5.5v1.5 1.5l-.5.5-.5.5.5.5.5.5v1 1l-.5 2-.5 2v2 2l.5 1.5.5 1.5 1 .5 1 .5.5-.5.5-.5 1-.5 1-.5 1-.5 1-.5-2.5.5-2.5.5-.5-2.5-.5-2.5.5-2 .5-2v-1-1-2-2l1-.5 1-.5.5-.5.5-.5v1.5 1.5l1 .5 1 .5" style="fill:#715530;stroke:#715530"/><path d="m535 406h1l-1-.5-1-.5-.5.5-.5.5-.5.5-.5.5-1 .5-1 .5-.5-.5-.5-.5h-1-1-1-1-1.5-1.5l-.5-.5-.5-.5-.5-.5-.5-.5-.5-.5-.5-.5-.5-.5-.5-.5.5-1 .5-1 1-.5 1-.5.5-1 .5-1 .5-.5.5-.5h-1-1l-.5 1-.5 1h-1-1l-.5.5-.5.5v1 1l-.5 1-.5 1-.5.5-.5.5.5.5.5.5v1 1l-1 .5-1 .5-.5.5-.5.5-.5.5-.5.5-.5.5-.5.5v1.5 1.5h1 1 1 1l1-.5 1-.5 1.5-.5 1.5-.5 1-1.5 1-1.5 1 1 1 1 1 1 1 1 1-1.5 1-1.5 1.5.5 1.5.5 1-2 1-2 1-1 1-1" style="fill:#aa9472;stroke:#aa9472"/><path d="m535 387l1-2h-3-3-2-2-2.5-2.5-2-2-3-3l-.5 1.5-.5 1.5h-.5-.5v1 1h1 1l1 1.5 1 1.5.5 1.5.5 1.5 1.5 1 1.5 1 1.5-.5 1.5-.5 1.5-1 1.5-1 1.5-.5 1.5-.5.5-1 .5-1h1 1l1-1 1-1 1-1 1-1 1-.5 1-.5" style="fill:#9a662b;stroke:#9a662b"/><path d="m534 610v-3l-.5-1-.5-1-.5-.5-.5-.5.5-1.5.5-1.5-1-.5-1-.5-.5-.5-.5-.5-.5-1.5-.5-1.5h-1-1v13.5 13.5l1-.5 1-.5.5-2 .5-2v-1-1l-.5-.5-.5-.5.5-.5.5-.5v-1.5-1.5l.5-.5.5-.5h1.5 1.5" style="fill:#603107;stroke:#603107"/><path d="m533 328l1-4-.5-1-.5-1v-1-1l-1-.5-1-.5 1 4.5 1 4.5" style="fill:#8d724a;stroke:#8d724a"/><path d="m530 589v-3l-.5-1-.5-1v-1-1l-1-1-1-1-.5-1-.5-1-.5-.5-.5-.5-.5-1.5-.5-1.5-1-1-1-1-1-1.5-1-1.5.5-1.5.5-1.5-.5-1-.5-1h-1-1-1.5-1.5l1 1 1 1 .5.5.5.5.5 1 .5 1v1 1l.5.5.5.5.5.5.5.5v1.5 1.5h1 1l.5.5.5.5v1 1l.5 1 .5 1 .5.5.5.5.5.5.5.5.5.5.5.5v1 1 1 1 2 2l1-1.5 1-1.5" style="fill:#603107;stroke:#603107"/><g style="fill:#2a1d09;stroke:#2a1d09"><path d="m530 271l-15-12-4 5-4 5-.5 7.5-.5 7.5 9.5-.5 9.5-.5 2.5-6 2.5-6"/><path d="m513 317l-14-13 .5 8.5.5 8.5 6.5-2 6.5-2"/></g><path d="m512 419l-1-3-1.5-.5-1.5-.5-1-1-1-1 .5-1 .5-1-.5-.5-.5-.5 1-1 1-1v-1.5-1.5l.5-.5.5-.5h-1-1-1-1l-1-.5-1-.5-.5-.5-.5-.5-.5-1.5-.5-1.5-1-.5-1-.5v-1.5-1.5l-2-1.5-2-1.5-1.5 1-1.5 1-1 1-1 1-1 1.5-1 1.5-1 1-1 1-1 .5-1 .5v1 1l-1 .5-1 .5-.5.5-.5.5-1.5.5-1.5.5-1 .5-1 .5-1.5.5-1.5.5h-1-1l-1 .5-1 .5-1.5.5-1.5.5-.5.5-.5.5-1 .5-1 .5-1.5.5-1.5.5h-1-1l-.5.5-.5.5-.5 1-.5 1 1.5.5 1.5.5h1 1l.5-.5.5-.5 1-.5 1-.5.5.5.5.5.5-.5.5-.5h1 1l1-.5 1-.5h1 1 1 1l.5-.5.5-.5h1.5 1.5 1 1 1 1l.5.5.5.5-.5 1.5-.5 1.5-.5 2-.5 2 2-1 2-1h3 3l1.5.5 1.5.5 1 1 1 1 .5.5.5.5h1 1l.5.5.5.5 1-.5 1-.5.5.5.5.5.5-.5.5-.5.5-.5.5-.5.5-1 .5-1 1.5-.5 1.5-.5 1.5-.5 1.5-.5" style="fill:#c1823e;stroke:#c1823e"/><path d="m511 422v-1l-1-.5-1-.5-1.5.5-1.5.5-.5 1-.5 1-.5.5-.5.5-.5.5-.5.5-.5-.5-.5-.5-1 .5-1 .5-.5-.5-.5-.5h-1-1l-.5-.5-.5-.5-1-1-1-1-1.5-.5-1.5-.5-.5.5-.5.5-1.5 1-1.5 1h2 2l1 1 1 1 1.5 1 1.5 1h1 1l1.5 1 1.5 1h1 1l1-1 1-1 1-1.5 1-1.5 2-.5 2-.5v-.5-.5" style="fill:#8d724a;stroke:#8d724a"/><path d="m511 289l-20 1h4 4l6-.5 6-.5" style="fill:#2a1d09;stroke:#2a1d09"/><g style="fill:#aa9472;stroke:#aa9472"><path d="m509 388h1l-1-.5-1-.5-.5-1.5-.5-1.5-2-.5-2-.5-1 1-1 1-1.5 1-1.5 1-1.5.5-1.5.5v2 2l2 1.5 2 1.5h1.5 1.5l1.5-1 1.5-1-.5-1.5-.5-1.5-1-1.5-1-1.5 1.5-.5 1.5-.5.5 1.5.5 1.5 1.5.5 1.5.5v-1-1"/><path d="m492 387v-2l-1-1-1-1-2 .5-2 .5-1.5.5-1.5.5h-2.5-2.5l-1.5.5-1.5.5h-1-1l-.5.5-.5.5-1 .5-1 .5-.5.5-.5.5-1 .5-1 .5-1 1-1 1-.5.5-.5.5-.5 1-.5 1-1 1-1 1-.5 1.5-.5 1.5 1-.5 1-.5 1-.5 1-.5 1.5-2 1.5-2 .5-1 .5-1 1-1 1-1 1.5-1 1.5-1 1.5-.5 1.5-.5h2.5 2.5l1.5-.5 1.5-.5 2-.5 2-.5 1.5-.5 1.5-.5v2 2l.5-.5.5-.5"/></g><path d="m490 421l1-1h-3-3l-2 1-2 1-.5 1-.5 1-.5-.5-.5-.5-.5 1-.5 1h-1-1-1-1l-1 .5-1 .5-.5.5-.5.5-.5.5-.5.5-1 .5-1 .5-1 1-1 1 1 1 1 1 1-.5 1-.5h1.5 1.5 1 1l1.5-1 1.5-1 .5-1.5.5-1.5 1.5-.5 1.5-.5 1-1.5 1-1.5h1.5 1.5l1.5-1 1.5-1" style="fill:#9a662b;stroke:#9a662b"/><path d="m490 388h1v-2-2l-1.5.5-1.5.5-2 .5-2 .5-1.5.5-1.5.5h-2.5-2.5l-1.5.5-1.5.5-1.5 1-1.5 1-1 1-1 1-.5 1-.5 1 1-.5 1-.5.5-.5.5-.5.5-.5.5-.5h1 1l1-.5 1-.5.5-.5.5-.5h1 1 1 1l1-.5 1-.5h1 1l.5-.5.5-.5h1 1l.5.5.5.5-.5 1-.5 1-1 1-1 1-1 1.5-1 1.5-.5 1.5-.5 1.5-1.5 1-1.5 1-1 1-1 1-2 .5-2 .5-1.5.5-1.5.5-2 .5-2 .5h-2-2l-1-.5-1-.5 10-1.5 10-1.5 5-6.5 5-6.5" style="fill:#d9b78d;stroke:#d9b78d"/><path d="m489 192l-13-29-6.5-13-6.5-13-6-12-6-12-6-12-6-12-6.5-13-6.5-13-6.5-12-6.5-12h-.5-.5l-6.5-12.5-6.5-12.5-1.5-4-1.5-4-.5-1-.5-1h-.5-.5l-24-.5-24-.5 6 12.5 6 12.5 6.5 11.5 6.5 11.5 6.5 13 6.5 13 8 17.5 8 17.5-12.5 6.5-12.5 6.5-12.5 5.5-12.5 5.5-13.5 5.5-13.5 5.5-12.5 6-12.5 6-13.5 5.5-13.5 5.5-12.5 5.5-12.5 5.5-13 5.5-13 5.5-13 6-13 6-13 5-13 5-12.5 6-12.5 6-13.5 5.5-13.5 5.5h-.5-.5l-9-10.5-9-10.5-7-11-7-11-6.5-11.5-6.5-11.5-10-15.5-10-15.5-10.5-6-10.5-6-3.5 6-3.5 6 7 11 7 11 7 12.5 7 12.5 1 1 1 1 .5.5.5.5.5 1 .5 1 .5 1.5.5 1.5 1 1 1 1v1 1l1 .5 1 .5.5 1.5.5 1.5.5.5.5.5.5 1 .5 1 1 1 1 1 .5.5.5.5.5 1 .5 1 .5 1.5.5 1.5.5 1 .5 1 13.5 22 13.5 22 7.5 11.5 7.5 11.5 7 11 7 11 9 8.5 9 8.5 10-9 10-9 14.5-1.5 14.5-1.5 14.5-4 14.5-4 13.5-5.5 13.5-5.5 13.5-4.5 13.5-4.5 13.5-5 13.5-5 13.5-5.5 13.5-5.5 13.5-4.5 13.5-4.5 13.5-5 13.5-5 13.5-5.5 13.5-5.5 13.5-4.5 13.5-4.5 13.5-5 13.5-5 13-5.5 13-5.5" style="fill:#c1fff3;stroke:#c1fff3"/><path d="m488 388l-1-1h-1-1l-.5.5-.5.5h-1-1l-1 .5-1 .5h-1-1-1-1l-.5.5-.5.5-1 .5-1 .5h-1-1l-.5.5-.5.5-.5.5-.5.5-1 .5-1 .5-1.5 2-1.5 2-.5 1.5-.5 1.5-1 1-1 1-.5.5-.5.5 1 .5 1 .5h2 2l2-.5 2-.5 1.5-.5 1.5-.5 2-.5 2-.5 1-1 1-1 1.5-1 1.5-1 .5-1.5.5-1.5 1-1.5 1-1.5 1-1 1-1 .5-1 .5-1" style="fill:#edcfbb;stroke:#edcfbb"/><path d="m484 67l1-1-1-1.5-1-1.5-10-19.5-10-19.5-6-12-6-12h-1.5-1.5l-21 .5-21 .5 2.5.5 2.5.5h16.5 16.5l6.5 9.5 6.5 9.5 6 12 6 12 7.5 11 7.5 11" style="fill:#d7fbd5;stroke:#d7fbd5"/><path d="m482 418l1-3-.5-.5-.5-.5h-1-1-1-1-1.5-1.5l-.5.5-.5.5h-1-1-1-1l-1 .5-1 .5h-1-1l-.5.5-.5.5-.5-.5-.5-.5-1 .5-1 .5-.5.5-.5.5h-1-1l-1.5-.5-1.5-.5-1 1.5-1 1.5h1.5 1.5l1 1 1 1h1 1l1-.5 1-.5 1-1 1-1h1 1l1-.5 1-.5 1.5-.5 1.5-.5h1 1l1-.5 1-.5h2 2l-.5 1.5-.5 1.5-1.5 1.5-1.5 1.5-.5.5-.5.5-.5 1-.5 1h1 1 1 1l.5-1 .5-1 .5.5.5.5.5-1 .5-1 .5-2 .5-2" style="fill:#8d724a;stroke:#8d724a"/><path d="m481 406l1-1h-2-2l-2 .5-2 .5-1.5.5-1.5.5-2 .5-2 .5h-2-2l-1.5 1-1.5 1-1 1-1 1-1 1-1 1-1-1.5-1-1.5-1 .5-1 .5 1 2 1 2-1 1.5-1 1.5v2.5 2.5l.5-1 .5-1 .5-1 .5-1 1-1.5 1-1.5.5-1 .5-1 .5-.5.5-.5h1 1l1.5-.5 1.5-.5 1-.5 1-.5.5-.5.5-.5 1.5-.5 1.5-.5 1-.5 1-.5h1 1l1.5-.5 1.5-.5 1-.5 1-.5 1.5-.5 1.5-.5" style="fill:#9a662b;stroke:#9a662b"/><path d="m480 271l1-3-1.5.5-1.5.5-1.5 1-1.5 1-1 1-1 1-1.5-1-1.5-1-1-.5-1-.5-.5 2.5-.5 2.5v2 2 1.5 1.5l1 1 1 1 .5 2 .5 2 .5 1.5.5 1.5 1 .5 1 .5-.5-2.5-.5-2.5 1-1 1-1v-1.5-1.5l-1.5.5-1.5.5v-1-1l1.5-1 1.5-1 1-1 1-1 1-1.5 1-1.5 1-1.5 1-1.5" style="fill:#715530;stroke:#715530"/><path d="m479 419l1-3h-2-2l-1 .5-1 .5h-1-1l-1.5.5-1.5.5-1 .5-1 .5h-1-1l-1 1-1 1-1 .5-1 .5h-1-1l-1-1-1-1h-1.5-1.5l11 1 11 1 1.5-1.5 1.5-1.5" style="fill:#483925;stroke:#483925"/><g style="fill:#715530;stroke:#715530"><path d="m475 423l1-1-11-1-11-1-.5 1-.5 1-.5 1-.5 1-1 1.5-1 1.5-.5 1.5-.5 1.5v2 2l.5 2 .5 2 1 1 1 1 2-.5 2-.5 1.5-.5 1.5-.5h2.5 2.5l1-1 1-1 1-1.5 1-1.5-1-1-1-1 1-1 1-1 1-.5 1-.5.5-.5.5-.5.5-.5.5-.5 1-.5 1-.5.5-1 .5-1"/><path d="m474 264v-2l-.5-1.5-.5-1.5-.5-1-.5-1v-1-1l-1.5-.5-1.5-.5-2-.5-2-.5v2 2l.5 2 .5 2v2 2l.5 1.5.5 1.5.5 1 .5 1-.5-2.5-.5-2.5 1-.5 1-.5h1 1 1.5 1.5"/></g><path d="m472 387l1-1-2.5.5-2.5.5-1.5 1-1.5 1-1.5.5-1.5.5-1 .5-1 .5-1 1-1 1v1.5 1.5l1.5.5 1.5.5 1-1 1-1 .5-1 .5-1 .5-.5.5-.5 1-1 1-1 1-.5 1-.5.5-.5.5-.5 1-.5 1-.5" style="fill:#c1823e;stroke:#c1823e"/><path d="m471 514h1l-16-8.5-16-8.5-11 6-11 6-11.5 5.5-11.5 5.5 11.5-3 11.5-3 20-5.5 20-5.5 1.5 1 1.5 1 1 1 1 1 2 .5 2 .5.5 1.5.5 1.5 1.5 1.5 1.5 1.5" style="fill:#8d724a;stroke:#8d724a"/><path d="m466 345v-2l-.5-1.5-.5-1.5-1.5 1-1.5 1-.5 1.5-.5 1.5v2.5 2.5l.5 1.5.5 1.5.5-1 .5-1 1-1 1-1 .5-1.5.5-1.5v-.5-.5" style="fill:#483925;stroke:#483925"/><g style="fill:#715530;stroke:#715530"><path d="m465 386l-11 11v2 2 1.5 1.5l.5-1 .5-1 .5-2 .5-2v-2-2l1-1.5 1-1.5.5-1.5.5-1.5 1.5-.5 1.5-.5 1.5-.5 1.5-.5"/><path d="m457 503h1l-20 5.5-20 5.5-11.5 3-11.5 3-1.5-.5-1.5-.5-1.5-.5-1.5-.5-1.5-.5-1.5-.5-1.5-1-1.5-1h-2-2l-1.5-1-1.5-1-1.5-.5-1.5-.5-2-.5-2-.5-1.5-.5-1.5-.5-1.5-1-1.5-1-1.5-.5-1.5-.5-2-.5-2-.5.5 1 .5 1 1.5.5 1.5.5 1.5 1 1.5 1 1.5.5 1.5.5 1.5 1 1.5 1 1.5.5 1.5.5 1 .5 1 .5 21.5 3 21.5 3 20-9.5 20-9.5"/></g><path d="m454 113l-11-26-6-10-6-10 6.5 13.5 6.5 13.5 5 9.5 5 9.5" style="fill:#b0b1a8;stroke:#b0b1a8"/><path d="m439 691l1-1-8.5-17-8.5-17-5-13-5-13-5-13-5-13-1-.5-1-.5-1-.5-1-.5-.5-.5-.5-.5-.5-.5-.5-.5v-1-1-1.5-1.5l-1-1-1-1v-1-1l-.5-.5-.5-.5h1 1l.5 1 .5 1 1.5.5 1.5.5-1-1.5-1-1.5-1-1-1-1-.5-2-.5-2-1-1-1-1-.5-1.5-.5-1.5h-.5-.5l-7-9.5-7-9.5-7.5-9.5-7.5-9.5v2 2l-1-1-1-1h-1-1l-.5 1-.5 1-1.5.5-1.5.5v1 1 1 1 1 1l-.5 1-.5 1 .5.5.5.5.5.5.5.5.5.5.5.5 1 .5 1 .5-.5 1.5-.5 1.5h-1-1l-1.5-.5-1.5-.5-.5.5-.5.5-11-2.5-11-2.5-6.5-11-6.5-11-9.5-14-9.5-14h-.5-.5l.5 1 .5 1v1 1l-1 .5-1 .5-.5.5-.5.5h-1-1-1.5-1.5v1.5 1.5l7 11.5 7 11.5 4.5 11.5 4.5 11.5-5.5 14-5.5 14h-1.5-1.5l-.5-.5-.5-.5-.5-.5-.5-.5v-1-1-1.5-1.5-1-1h1 1l.5.5.5.5.5-1 .5-1h1 1l.5-.5.5-.5-8.5-10.5-8.5-10.5-12-19.5-12-19.5-1.5.5-1.5.5-1 1-1 1-2 .5-2 .5-1.5.5-1.5.5h-1.5-1.5-.5-.5l-11-6.5-11-6.5-8-14.5-8-14.5-5.5-7.5-5.5-7.5-15.5 11.5-15.5 11.5-12.5 6-12.5 6-16.5 2.5-16.5 2.5-1-.5-1-.5-1.5-1.5-1.5-1.5h-.5-.5l-.5 1.5-.5 1.5v2 2l.5 1 .5 1-1.5-.5-1.5-.5-.5-1-.5-1-.5-.5-.5-.5-.5-.5-.5-.5-.5-.5-.5-.5-.5-.5-.5-.5-1.5-.5-1.5-.5-3.5 11.5-3.5 11.5 2 9 2 9 5 4 5 4 5 6.5 5 6.5-14.5 5-14.5 5-11-7-11-7-10-8.5-10-8.5-7.5-.5-7.5-.5-5-4-5-4 5-10 5-10 13.5-4.5 13.5-4.5 19-4.5 19-4.5 1-.5 1-.5.5-.5.5-.5 1-.5 1-.5h1 1l.5-.5.5-.5.5-.5.5-.5.5.5.5.5.5.5.5.5 1-.5 1-.5v-1-1l1-1.5 1-1.5 1.5-.5 1.5-.5 1.5-1 1.5-1 1-1 1-1 1.5-.5 1.5-.5 1.5-1 1.5-1 1.5-.5 1.5-.5 1-1.5 1-1.5 1-.5 1-.5 14-12 14-12-11 7.5-11 7.5-13 8-13 8-.5.5-.5.5-13.5 5.5-13.5 5.5-14.5 3.5-14.5 3.5-23 6-23 6v18.5 18.5 20 20 20 20 10 10l16-2.5 16-2.5 6.5 18.5 6.5 18.5-9.5-2.5-9.5-2.5-13 8.5-13 8.5v9 9h10.5 10.5 18.5 18.5l-4-11-4-11-5-12-5-12-2-15-2-15 1-17 1-17 11.5-8 11.5-8 15 1 15 1 9.5 10 9.5 10 15-1 15-1 2.5 6.5 2.5 6.5 8.5 4 8.5 4-17 7.5-17 7.5.5.5.5.5v1 1 .5.5 1 1l.5.5.5.5h1 1 1 1l1-.5 1-.5h1 1l.5.5.5.5v1 1l-1 .5-1 .5-1.5.5-1.5.5-1.5.5-1.5.5-2 .5-2 .5-.5-1.5-.5-1.5-1-1.5-1-1.5v-2-2l1.5-.5 1.5-.5.5-1 .5-1-8.5-3.5-8.5-3.5h1 1l.5-1 .5-1 1 1 1 1 2 .5 2 .5.5 1.5.5 1.5v1 1l-1.5-.5-1.5-.5-1.5-1-1.5-1-1 1.5-1 1.5-3 4.5-3 4.5 17 8 17 8v-.5-.5l-.5-1-.5-1-.5-.5-.5-.5-.5-.5-.5-.5v-1-1l.5-1 .5-1 .5-.5.5-.5.5-.5.5-.5.5-.5.5-.5 1-.5 1-.5.5-.5.5-.5.5-.5.5-.5.5-.5.5-.5 1-.5 1-.5 1-1 1-1 .5-.5.5-.5.5-.5.5-.5.5-.5.5-.5.5-1 .5-1 .5-.5.5-.5h1 1l.5-.5.5-.5.5-1 .5-1 .5-.5.5-.5.5-.5.5-.5.5-.5.5-.5 1-.5 1-.5h1 1l.5-.5.5-.5.5-.5.5-.5.5-.5.5-.5h1 1l24.5-5.5 24.5-5.5 1-.5 1-.5.5.5.5.5 1.5-.5 1.5-.5 16-10 16-10-1 2-1 2-1 .5-1 .5-1 1-1 1-1 1.5-1 1.5-1.5.5-1.5.5-1 1-1 1-1.5 1-1.5 1-1 1-1 1-1 1.5-1 1.5-2 1-2 1-.5 1-.5 1 2 .5 2 .5 1.5-.5 1.5-.5h2 2l2-.5 2-.5 1.5-.5 1.5-.5 2-.5 2-.5 1.5.5 1.5.5 2-.5 2-.5 1.5 1 1.5 1 12.5-4 12.5-4 6-1 6-1h17 17l2.5-.5 2.5-.5h2.5 2.5l1.5-.5 1.5-.5 2-.5 2-.5h2 2l1.5-.5 1.5-.5h2.5 2.5v1 1l-14.5 16-14.5 16-.5 1-.5 1-11 4-11 4 6.5-10 6.5-10h-.5-.5l-1 .5-1 .5-.5.5-.5.5-1 .5-1 .5-.5.5-.5.5-.5.5-.5.5-.5.5-.5.5-1 .5-1 .5-.5.5-.5.5-.5.5-.5.5-.5.5-.5.5-.5 1-.5 1-.5 1.5-.5 1.5-1.5 1-1.5 1-1.5 1-1.5 1v2 2l-1.5 1-1.5 1-1.5.5-1.5.5-3 .5-3 .5.5 1 .5 1 1-.5 1-.5 1.5.5 1.5.5.5.5.5.5.5 1 .5 1 1.5.5 1.5.5.5-1.5.5-1.5 2-.5 2-.5 1.5-.5 1.5-.5 2.5-.5 2.5-.5 15 3.5 15 3.5-1.5-1-1.5-1 4 2.5 4 2.5 10 9.5 10 9.5 1 1 1 1 .5 2 .5 2-1 1-1 1 2 .5 2 .5h1.5 1.5l-6-12-6-12-6.5-11.5-6.5-11.5.5-10.5.5-10.5 7 10.5 7 10.5 6.5 11.5 6.5 11.5 6.5 11 6.5 11 1-.5 1-.5h1 1 1.5 1.5 1 1 1 1 1 1l1-.5 1-.5h1 1 1 1 1 1l.5-.5.5-.5h1 1 1.5 1.5 1 1 1 1 1 1l1-.5 1-.5h1 1 1 1 2 2" style="fill:#603107;stroke:#603107"/><path d="m425 410l-22-21-13-5-13-5 9.5 10 9.5 10 8 10.5 8 10.5 2-1 2-1 1-1 1-1 1.5-1 1.5-1 1-1 1-1 1-1 1-1" style="fill:#715530;stroke:#715530"/><path d="m418 528l1-1-1.5-.5-1.5-.5.5-.5.5-.5v-1.5-1.5l-21.5-3-21.5-3v3.5 3.5l8 19 8 19 7.5 12 7.5 12 5.5 2.5 5.5 2.5v-14-14l1-17 1-17" style="fill:#603107;stroke:#603107"/><path d="m412 39h1l-8.5-16.5-8.5-16.5 1.5 4 1.5 4 6.5 12.5 6.5 12.5" style="fill:#d7fbd5;stroke:#d7fbd5"/><path d="m411 421l1-1-8-10.5-8-10.5-9.5-10-9.5-10-24 1-24 1-12 6.5-12 6.5-6 12.5-6 12.5v1.5 1.5l.5.5.5.5.5.5.5.5 1 .5 1 .5.5.5.5.5.5.5.5.5.5.5.5.5 1 1 1 1 1.5-12 1.5-12 7.5-3.5 7.5-3.5 2.5 1.5 2.5 1.5 3.5 6 3.5 6 10.5-6.5 10.5-6.5 6.5-.5 6.5-.5 1.5-7 1.5-7 9 6 9 6 10 11 10 11-11 8-11 8-11.5-.5-11.5-.5-13.5 5-13.5 5-8-7-8-7-4-.5-4-.5 2 8 2 8 1 1.5 1 1.5 1 1.5 1 1.5 1 1 1 1-.5 1.5-.5 1.5-8-.5-8-.5-8.5-20-8.5-20-1-1-1-1h-.5-.5l-7-.5-7-.5-12.5 5.5-12.5 5.5 1-7.5 1-7.5-10-3-10-3-7.5 4.5-7.5 4.5-11.5 7-11.5 7 10.5 7.5 10.5 7.5 5.5 7.5 5.5 7.5 10 14 10 14-8.5-10-8.5-10 11.5-6.5 11.5-6.5 9.5-7.5 9.5-7.5 8.5-9.5 8.5-9.5 7 12.5 7 12.5 5 13 5 13 6.5 14 6.5 14 .5-2 .5-2 1.5-.5 1.5-.5 1.5-.5 1.5-.5 1.5-1 1.5-1v-1-1l-1-1.5-1-1.5-.5-1-.5-1-1-.5-1-.5 8.5-8.5 8.5-8.5 16.5-9.5 16.5-9.5 18-11.5 18-11.5" style="fill:#483925;stroke:#483925"/><path d="m407 420l-20-22-9-6-9-6-1.5 7-1.5 7-6.5.5-6.5.5-10.5 6.5-10.5 6.5-3.5-6-3.5-6-2.5-1.5-2.5-1.5-7.5 3.5-7.5 3.5-1.5 12-1.5 12 .5 1 .5 1 1 1.5 1 1.5 1 1 1 1 1 1 1 1 1 1.5 1 1.5 1 1 1 1 1 1 1 1-2-8-2-8 4 .5 4 .5 8 7 8 7 13.5-5 13.5-5 11.5.5 11.5.5 11-8 11-8" style="fill:#2a1d09;stroke:#2a1d09"/><path d="m403 603l1-4-.5-1-.5-1-.5-.5-.5-.5-1-1.5-1-1.5-1.5-.5-1.5-.5-.5-1-.5-1h-1-1l.5.5.5.5v1 1l1 1 1 1v1.5 1.5 1 1l.5.5.5.5.5.5.5.5 1 .5 1 .5 1 .5 1 .5v-.5-.5" style="fill:#483925;stroke:#483925"/><path d="m400 112l-16-35-6.5-13-6.5-13-6.5-11.5-6.5-11.5-6-12.5-6-12.5-1-.5-1-.5 2-.5 2-.5h2 2l1-.5 1-.5h-3-3-2-2-1-1l6 13 6 13 6.5 11.5 6.5 11.5 7 13 7 13 8.5 19 8.5 19-14 6-14 6-12.5 5.5-12.5 5.5-14 6-14 6-14 6-14 6-14 6-14 6-14 6-14 6-14 6-14 6-13.5 6-13.5 6-12.5 5.5-12.5 5.5-18.5 8-18.5 8v1 1l13.5-5.5 13.5-5.5 12.5-6 12.5-6 13-5 13-5 13-6 13-6 13-5.5 13-5.5 12.5-5.5 12.5-5.5 13.5-5.5 13.5-5.5 12.5-6 12.5-6 13.5-5.5 13.5-5.5 12.5-5.5 12.5-5.5 12.5-6.5 12.5-6.5" style="fill:#f3f1e9;stroke:#f3f1e9"/><path d="m398 113l-17-38-7-13-7-13-6.5-11.5-6.5-11.5-6-13-6-13h-3-3-2-2-2.5-2.5l9.5 9.5 9.5 9.5-9.5 2.5-9.5 2.5-5-12-5-12h-19.5-19.5-13.5-13.5l-.5 1-.5 1 1 1.5 1 1.5 1 1 1 1 .5 2 .5 2 1 1 1 1-.5 1.5-.5 1.5-7.5 1-7.5 1-7-9-7-9h-20.5-20.5-20-20-18.5-18.5l4 7.5 4 7.5 9 3.5 9 3.5-11.5-1-11.5-1-5.5 6-5.5 6-6 9-6 9-11 7-11 7-12.5 7-12.5 7-8.5 1.5-8.5 1.5 12.5-7.5 12.5-7.5 13-7 13-7 3-9 3-9 1.5-10.5 1.5-10.5 7-6.5 7-6.5h-19.5-19.5-12-12l-.5.5-.5.5-17.5 10.5-17.5 10.5v2 2 2.5 2.5 2 2 2.5 2.5 2 2 2 2 2.5 2.5.5.5l7.5 12 7.5 12 6 10 6 10 6.5 9.5 6.5 9.5 6.5 11 6.5 11h.5.5l7.5-.5 7.5-.5 4-5 4-5 4 12.5 4 12.5-15.5-7-15.5-7 7 12.5 7 12.5 7 11 7 11 6.5 11.5 6.5 11.5 10.5 13 10.5 13 18.5-8 18.5-8 12.5-5.5 12.5-5.5 13.5-6 13.5-6 14-6 14-6 14-6 14-6 14-6 14-6 14-6 14-6 14-6 14-6 12.5-5.5 12.5-5.5 14-6 14-6" style="fill:#edcfbb;stroke:#edcfbb"/><path d="m395 696l1-1-6.5-11-6.5-11-6.5-11.5-6.5-11.5-7-10.5-7-10.5-.5 10.5-.5 10.5 6.5 11.5 6.5 11.5 6 12 6 12h2 2 2.5 2.5l1.5-.5 1.5-.5h1.5 1.5" style="fill:#2a1d09;stroke:#2a1d09"/><path d="m394 4h1v-1-1l-2-.5-2-.5h-1-1-2-2-1.5-1.5-1-1-2-2-1.5-1.5-1-1-2-2-1.5-1.5-1-1-1-1-1-1l-1.5-.5-1.5-.5h-.5-.5l-1 .5-1 .5h-2-2l-2 .5-2 .5 1 .5 1 .5 24 .5 24 .5" style="fill:#d7fbd5;stroke:#d7fbd5"/><path d="m391 579h1l-11-21-11-21-6.5-11.5-6.5-11.5 8.5 4.5 8.5 4.5v-3.5-3.5l-1-.5-1-.5-1.5-.5-1.5-.5-1.5-1-1.5-1-1.5-.5-1.5-.5-1.5-1-1.5-1-1.5-.5-1.5-.5-.5-1-.5-1-2-1-2-1-1.5-.5-1.5-.5-.5-1-.5-1h-.5-.5l-1-.5-1-.5h-1-1l-.5-.5-.5-.5-1-.5-1-.5.5.5.5.5v1 1l-1 1-1 1 11.5 19 11.5 19 7.5 9.5 7.5 9.5 7 9.5 7 9.5" style="fill:#483925;stroke:#483925"/><path d="m384 700l1-1h-3-3-1.5-1.5-1-1-2-2-1.5-1.5l-1-.5-1-.5h-.5-.5l-1 .5-1 .5h-2-2l-1.5-.5-1.5-.5-1.5.5-1.5.5-1 1.5-1 1.5h-2-2l-2 .5-2 .5-1 .5-1 .5h3 3l2-.5 2-.5 1.5-.5 1.5-.5h2 2l2-.5 2-.5h2 2 2.5 2.5l1.5-.5 1.5-.5h2.5 2.5 3 3" style="fill:#9a662b;stroke:#9a662b"/><path d="m379 86l-20 5-12.5 5.5-12.5 5.5-14 6-14 6-13.5 6.5-13.5 6.5-13.5 6.5-13.5 6.5-13 6-13 6-14 6-14 6-13.5 6.5-13.5 6.5-14 6-14 6-13 6.5-13 6.5-5 4-5 4 13.5-6.5 13.5-6.5 14-6 14-6 13-6 13-6 13.5-6.5 13.5-6.5 13-5 13-5 10-6 10-6h2 2l1-1 1-1 1.5-1 1.5-1 1.5-.5 1.5-.5 1.5-1 1.5-1 1.5-.5 1.5-.5 2-.5 2-.5 1.5-.5 1.5-.5 1.5-1 1.5-1 2.5-.5 2.5-.5 1.5-1 1.5-1 1-1 1-1 1 .5 1 .5 1.5-1.5 1.5-1.5 1.5-.5 1.5-.5 1-1 1-1 2-.5 2-.5 1.5-.5 1.5-.5 1.5-1 1.5-1 1.5-.5 1.5-.5 1.5-1 1.5-1h2 2l11.5-6 11.5-6 12.5-5.5 12.5-5.5h1 1" style="fill:#f3f1e9;stroke:#f3f1e9"/><path d="m374 445l1-1-16.5 9.5-16.5 9.5-8.5 8.5-8.5 8.5 13-10 13-10 11.5-7.5 11.5-7.5" style="fill:#715530;stroke:#715530"/><path d="m371 695l1-4v-1.5-1.5l-10-9.5-10-9.5-4-2.5-4-2.5-13.5-2.5-13.5-2.5 2 9.5 2 9.5 6 6.5 6 6.5 16 3.5 16 3.5 1 .5 1 .5 2-.5 2-.5v-1.5-1.5" style="fill:#954d03;stroke:#954d03"/><path d="m369 572l-14-3 .5 4.5.5 4.5 6.5-3 6.5-3" style="fill:#483925;stroke:#483925"/><path d="m366 610v-2h-2.5-2.5l-1.5.5-1.5.5h-2-2l-2 .5-2 .5-1.5.5-1.5.5h-2.5-2.5l-2.5.5-2.5.5-.5.5-.5.5h-2.5-2.5l-1.5.5-1.5.5-2.5.5-2.5.5 20-2 20-2-14.5 10-14.5 10 1.5 5.5 1.5 5.5 14.5-16 14.5-16" style="fill:#9a662b;stroke:#9a662b"/><path d="m364 698h1l-16-3.5-16-3.5-6-6.5-6-6.5-2-9.5-2-9.5-2.5.5-2.5.5-1.5.5-1.5.5-2 .5-2 .5-.5 1.5-.5 1.5 10 9 10 9 11 9 11 9-16.5 2-16.5 2-21 2.5-21 2.5h-2.5-2.5-2-2l-2 .5-2 .5-1 .5-1 .5h3 3 2 2l19.5-2.5 19.5-2.5 17.5-1.5 17.5-1.5 1-.5 1-.5 2-.5 2-.5h2 2l1-1.5 1-1.5 1.5-.5 1.5-.5 1.5.5 1.5.5h2 2l1-.5 1-.5" style="fill:#715530;stroke:#715530"/><path d="m363 611l-40 4 .5 1 .5 1-.5 1-.5 1-.5 1.5-.5 1.5v1.5 1.5h1.5 1.5l.5.5.5.5 1 .5 1 .5h1 1 1 1l.5.5.5.5.5 1.5.5 1.5 14.5-10 14.5-10" style="fill:#c1823e;stroke:#c1823e"/><path d="m362 545v-4h-.5-.5l-13.5-12.5-13.5-12.5 9 22 9 22 1.5.5 1.5.5h1 1l.5-1.5.5-1.5-1-.5-1-.5-.5-.5-.5-.5-.5-.5-.5-.5-.5-.5-.5-.5.5-1 .5-1v-1-1-1-1-1-1l1.5-.5 1.5-.5.5-1 .5-1h1 1l1 1 1 1" style="fill:#483925;stroke:#483925"/><path d="m361 541h1l-11.5-19-11.5-19h-1.5-1.5-1-1l-.5.5-.5.5h-2-2l.5 1 .5 1 .5 1 .5 1 .5.5.5.5v1 1l.5.5.5.5.5 2 .5 2 13.5 12.5 13.5 12.5" style="fill:#603107;stroke:#603107"/><path d="m351 561l1-1-9-22-9-22-.5-2-.5-2-.5-.5-.5-.5v-1-1l-.5-.5-.5-.5-.5-1-.5-1-.5-1-.5-1-1-.5-1-.5-.5-.5-.5-.5-.5-.5-.5-.5-.5-.5-.5-.5-.5-1-.5-1-.5-.5-.5-.5-1-.5-1-.5-6.5-14-6.5-14-5-13-5-13-7-12.5-7-12.5-8.5 9.5-8.5 9.5-9.5 7.5-9.5 7.5-11.5 6.5-11.5 6.5 8.5 10 8.5 10 10.5 17 10.5 17 12 19.5 12 19.5 8.5 10.5 8.5 10.5v1.5 1.5 1 1 1 1l-1 2-1 2 5.5-14 5.5-14-4.5-11.5-4.5-11.5-7-11.5-7-11.5h-.5-.5l-5.5-13-5.5-13 4.5-1 4.5-1 1 1.5 1 1.5 1 1 1 1 1 1.5 1 1.5.5 1.5.5 1.5 1 1.5 1 1.5.5 1.5.5 1.5.5 1 .5 1 9.5 14 9.5 14 6.5 11 6.5 11 11 2.5 11 2.5" style="fill:#2a1d09;stroke:#2a1d09"/><g style="fill:#715530;stroke:#715530"><path d="m347 666l-30-7 13.5 2.5 13.5 2.5 1.5 1 1.5 1"/><path d="m347 501h1l-.5-1-.5-1h-1-1l-.5-.5-.5-.5-.5-.5-.5-.5-1-.5-1-.5-.5-.5-.5-.5-.5-.5-.5-.5-.5-.5-.5-.5-1-.5-1-.5-.5-.5-.5-.5h-1-1v1 1l-1 .5-1 .5h-1-1-1-1l-.5.5-.5.5h-1-1-1-1l-1-.5-1-.5.5-1 .5-1-.5 2-.5 2 1 .5 1 .5.5.5.5.5.5 1 .5 1 .5.5.5.5.5.5.5.5.5.5.5.5 1 .5 1 .5h2 2l.5-.5.5-.5h1 1 1.5 1.5l1-1 1-1v-1-1l-.5-.5-.5-.5 1 .5 1 .5.5.5.5.5h1 1l1 .5 1 .5"/></g><path d="m346 701l-22-18-10-9-10-9-1.5-.5-1.5-.5-.5-1-.5-1-.5-.5-.5-.5-1.5-.5-1.5-.5-1 .5-1 .5-.5-1-.5-1-1 .5-1 .5-1-.5-1-.5-1.5 1-1.5 1-1 1-1 1-1.5 1.5-1.5 1.5-.5 1-.5 1-1 1-1 1-.5.5-.5.5-.5.5-.5.5-.5 1-.5 1 12-4.5 12-4.5 16 16 16 16v.5.5l-.5 1.5-.5 1.5h-1-1l-2 .5-2 .5h-2-2l-2 .5-2 .5h-2-2l-2-.5-2-.5-1-.5-1-.5-.5 1.5-.5 1.5-17.5-11-17.5-11 12.5 10.5 12.5 10.5-19.5-4-19.5-4 .5 1 .5 1 .5.5.5.5.5 1 .5 1 1 1 1 1 .5.5.5.5 1 .5 1 .5 1 1 1 1 .5.5.5.5 1 .5 1 .5 1 1 1 1 21-2.5 21-2.5 16.5-2 16.5-2" style="fill:#483925;stroke:#483925"/><path d="m346 19l-19-19h-1.5-1.5-2-2-1.5-1.5l5 12 5 12 9.5-2.5 9.5-2.5" style="fill:#f3f1e9;stroke:#f3f1e9"/><path d="m336 644l1-2-1.5-5.5-1.5-5.5-.5-1.5-.5-1.5-.5-.5-.5-.5h-1-1-1-1l-1-.5-1-.5-.5-.5-.5-.5h-1.5-1.5v-1.5-1.5l-9 9.5-9 9.5-6.5 6.5-6.5 6.5-22 4-22 4-1.5.5-1.5.5h-2.5-2.5-2-2l-2 .5-2 .5h-2-2l-2 .5-2 .5h-1.5-1.5-12.5-12.5l-13.5-1-13.5-1 1-1 1-1 .5-.5.5-.5h1 1l.5.5.5.5h1.5 1.5l.5-.5.5-.5h1 1l.5.5.5.5-.5.5-.5.5 1.5.5 1.5.5 1.5 1 1.5 1 1.5.5 1.5.5v1 1 1 1l25.5-1 25.5-1v1 1h1.5 1.5 2 2 2.5 2.5l1.5-.5 1.5-.5h2.5 2.5 2 2 2.5 2.5l1.5-.5 1.5-.5 1 .5 1 .5 1.5-.5 1.5-.5 1-.5 1-.5 1-.5 1-.5 1.5-1.5 1.5-1.5 1-1 1-1 1.5-1 1.5-1 1 .5 1 .5 1-.5 1-.5 3-.5 3-.5 1.5-.5 1.5-.5 1.5-1 1.5-1v-2-2l1.5-1 1.5-1 1.5-1 1.5-1v-1-1l-1-1-1-1-1-1-1-1 1.5-1 1.5-1 1-1 1-1 1-1.5 1-1.5 1-1 1-1 2-.5 2-.5h2 2l1.5.5 1.5.5-6.5 10-6.5 10 11-4 11-4" style="fill:#aa9472;stroke:#aa9472"/><path d="m336 613l1-1h-17-17l-6 1-6 1-12.5 4-12.5 4 28.5-3.5 28.5-3.5 2.5-.5 2.5-.5 1.5-.5 1.5-.5h2.5 2.5" style="fill:#715530;stroke:#715530"/><path d="m331 697l-32-32-12 4.5-12 4.5 15.5 13.5 15.5 13.5 1 .5 1 .5 2 .5 2 .5h2 2l2-.5 2-.5h2 2l2-.5 2-.5h1 1l.5-1.5.5-1.5v-.5-.5" style="fill:#2a1d09;stroke:#2a1d09"/><path d="m328 110l1-1h-2-2l-1.5 1-1.5 1-1.5.5-1.5.5-1.5 1-1.5 1-1.5.5-1.5.5-2 .5-2 .5-1 1-1 1-1.5.5-1.5.5-1.5 1.5-1.5 1.5 1-.5 1-.5 2-.5 2-.5 1-1 1-1 2-.5 2-.5 1.5-.5 1.5-.5 1.5-1 1.5-1 1.5-.5 1.5-.5 1-1 1-1 2-.5 2-.5" style="fill:#d7fbd5;stroke:#d7fbd5"/><path d="m327 84l-13-8-4.5-5.5-4.5-5.5-.5-3.5-.5-3.5 3.5 12.5 3.5 12.5 8 .5 8 .5" style="fill:#f3f1e9;stroke:#f3f1e9"/><path d="m326 632h1l-1.5-.5-1.5-.5h-2-2l-2 .5-2 .5-1 1-1 1-1 1.5-1 1.5-1 1-1 1-1.5 1-1.5 1 1 1 1 1 1 1 1 1v1 1l.5-1.5.5-1.5.5-1 .5-1 .5-.5.5-.5.5-.5.5-.5.5-.5.5-.5 1-.5 1-.5.5-.5.5-.5.5-.5.5-.5.5-.5.5-.5 1-.5 1-.5.5-.5.5-.5 1-.5 1-.5" style="fill:#715530;stroke:#715530"/><path d="m323 619l1-2h-.5-.5l-17 2.5-17 2.5-3.5 1.5-3.5 1.5-.5 1.5-.5 1.5-.5.5-.5.5-1 .5-1 .5-1 1-1 1-1.5 1.5-1.5 1.5-.5.5-.5.5-1 1.5-1 1.5-1 1.5-1 1.5-1 1-1 1-1.5 1-1.5 1-1 1-1 1-1 1.5-1 1.5-1.5 1-1.5 1-.5 1-.5 1-.5.5-.5.5-1 .5-1 .5-1 1-1 1-.5.5-.5.5-1 1-1 1 22-4 22-4 6.5-6.5 6.5-6.5 9-9.5 9-9.5.5-1.5.5-1.5" style="fill:#d9b78d;stroke:#d9b78d"/><path d="m323 617h1l-.5-1-.5-1-28.5 3.5-28.5 3.5-1.5-1-1.5-1-2 .5-2 .5-1.5-.5-1.5-.5-2 .5-2 .5-1.5.5-1.5.5-2 .5-2 .5h-2-2l-1.5.5-1.5.5-2-.5-2-.5.5-1 .5-1-1-.5-1-.5h-1-1-1-1l-1-.5-1-.5-1.5.5-1.5.5-.5-.5-.5-.5-1 .5-1 .5-.5.5-.5.5h-3-3-2.5-2.5l-1.5.5-1.5.5-2-.5-2-.5h-2-2-2-2l-2 .5-2 .5-2 .5-2 .5v.5.5l17-.5 17-.5 20 1.5 20 1.5 1.5-1.5 1.5-1.5 1 1 1 1 1.5-.5 1.5-.5h1 1 1.5 1.5l1.5-.5 1.5-.5h1 1l1-.5 1-.5 1 .5 1 .5v1 1l3.5-1.5 3.5-1.5 17-2.5 17-2.5" style="fill:#aa9472;stroke:#aa9472"/><path d="m322 35l-7-12-4-6-4-6-5 4-5 4 9 11 9 11 3.5-3 3.5-3" style="fill:#f3f1e9;stroke:#f3f1e9"/><path d="m320 457l1-3-1-1-1-1-1-1.5-1-1.5-1-1.5-1-1.5-1-1-1-1-1-1-1-1-1-1.5-1-1.5-1-1-1-1-1-1-1-1-1-1.5-1-1.5-.5-1-.5-1-1-1-1-1-.5-.5-.5-.5-.5-.5-.5-.5-.5-.5-.5-.5-1-.5-1-.5-.5-.5-.5-.5-.5-.5-.5-.5v-1.5-1.5l-1.5-.5-1.5-.5-1.5-1-1.5-1 8.5 20 8.5 20 8 .5 8 .5" style="fill:#715530;stroke:#715530"/><path d="m319 620l-30 5 14-1 14-1 1-1.5 1-1.5" style="fill:#edcfbb;stroke:#edcfbb"/><path d="m317 456l-15-22 .5 6.5.5 6.5 7 4.5 7 4.5" style="fill:#8d724a;stroke:#8d724a"/><path d="m305 704l1-3-15.5-13.5-15.5-13.5.5-1 .5-1 .5-.5.5-.5.5-.5.5-.5 1-1 1-1 .5-1 .5-1-1 .5-1 .5-1 .5-1 .5-1.5.5-1.5.5h-.5-.5l-6.5 2.5-6.5 2.5-10-1.5-10-1.5-11 .5-11 .5 7 4 7 4-6 .5-6 .5-2 .5-2 .5-1 1-1 1 .5 1.5.5 1.5 1.5 1 1.5 1 .5 1.5.5 1.5 2 .5 2 .5.5.5.5.5v2 2l-1-.5-1-.5-1-1-1-1h-1.5-1.5l-1 1.5-1 1.5 1 1 1 1 .5 1 .5 1 1 1 1 1 .5.5.5.5.5 1 .5 1 1 1 1 1v1.5 1.5h1.5 1.5 2 2 2.5 2.5 2 2 2.5 2.5 2 2 2.5 2.5 1 1l1-.5 1-.5 2-.5 2-.5h2 2 2.5 2.5l-1-1-1-1-1-.5-1-.5-.5-.5-.5-.5-1-1-1-1-1-.5-1-.5-.5-.5-.5-.5-1-1-1-1-.5-1-.5-1-.5-.5-.5-.5-.5-1-.5-1-1.5-.5-1.5-.5v-2-2l.5-.5.5-.5.5-1 .5-1 1-1 1-1 2-.5 2-.5 1.5-.5 1.5-.5 1.5 1 1.5 1 1.5-1.5 1.5-1.5 17.5 11 17.5 11" style="fill:#603107;stroke:#603107"/><path d="m305 94l-19-4 3-9 3-9-7 6-7 6 10.5 6.5 10.5 6.5 3-1.5 3-1.5" style="fill:#f3f1e9;stroke:#f3f1e9"/><path d="m303 585v-2-1-1-1.5-1.5l-.5.5-.5.5h-1-1l-.5 1-.5 1-.5-.5-.5-.5h-1-1v1 1 1.5 1.5 1 1l.5.5.5.5.5.5.5.5h1.5 1.5l1-2 1-2" style="fill:#483925;stroke:#483925"/><path d="m301 44l-12-25-7.5 3.5-7.5 3.5 2.5 10.5 2.5 10.5 2.5-4.5 2.5-4.5 7.5 3.5 7.5 3.5 1-.5 1-.5" style="fill:#f3f1e9;stroke:#f3f1e9"/><path d="m297 510v-2l-.5-1-.5-1-1-1-1-1v-1-1l-.5-1-.5-1-.5.5-.5.5-.5.5-.5.5-.5.5-.5.5h-1-1l-1 .5-1 .5-.5-.5-.5-.5-.5-1-.5-1v1.5 1.5l.5.5.5.5.5.5.5.5.5 1 .5 1v1 1l1 1 1 1h1.5 1.5 1 1l.5-.5.5-.5 1-.5 1-.5" style="fill:#715530;stroke:#715530"/><path d="m296 506h1l-.5-1-.5-1-.5-1.5-.5-1.5-1-1.5-1-1.5-.5-1.5-.5-1.5-1-1.5-1-1.5-1-1-1-1-1-1.5-1-1.5h-.5-.5l.5 1 .5 1 .5.5.5.5v1 1l1 .5 1 .5v1 1l.5.5.5.5v1 1l-1-.5-1-.5-1.5.5-1.5.5-.5 1.5-.5 1.5.5 1 .5 1 .5.5.5.5 1-.5 1-.5h1 1l.5-.5.5-.5.5-.5.5-.5.5-.5.5-.5.5 1 .5 1v1 1l1 1 1 1" style="fill:#8d724a;stroke:#8d724a"/><path d="m295 703l-25-21-1.5 1.5-1.5 1.5-1.5-1-1.5-1-1.5.5-1.5.5-2 .5-2 .5-1 1-1 1-.5 1-.5 1-.5.5-.5.5v2 2l1.5.5 1.5.5 19.5 4 19.5 4" style="fill:#2a1d09;stroke:#2a1d09"/><path d="m293 126l1-1-2.5.5-2.5.5-1.5 1-1.5 1-1.5.5-1.5.5-2 .5-2 .5-1.5.5-1.5.5-1.5 1-1.5 1-1.5.5-1.5.5-1.5 1-1.5 1-1 1-1 1 1.5-.5 1.5-.5 2-.5 2-.5 1-1 1-1 2-.5 2-.5 1.5-.5 1.5-.5 1.5-1 1.5-1 1.5-.5 1.5-.5 1-1 1-1 2-.5 2-.5" style="fill:#d7fbd5;stroke:#d7fbd5"/><path d="m290 498v-2l-.5-.5-.5-.5v-1-1l-1-.5-1-.5v-1-1l-.5-.5-.5-.5-.5-1-.5-1-.5 7-.5 7 .5-1.5.5-1.5 1.5-.5 1.5-.5 1 .5 1 .5" style="fill:#715530;stroke:#715530"/><path d="m288 515h1v-1.5-1.5l-1-1-1-1v-1-1l-.5-1-.5-1-.5-.5-.5-.5-.5-.5-.5-.5v-1.5-1.5l.5-7 .5-7h.5.5l-4.5 1-4.5 1 5.5 13 5.5 13" style="fill:#483925;stroke:#483925"/><path d="m284 414h1l-12-17.5-12-17.5-.5 1-.5 1 .5 1 .5 1v1 1l.5 1 .5 1v1 1l1 1 1 1 .5.5.5.5 1 .5 1 .5.5 1.5.5 1.5h1 1l.5 1 .5 1 1.5.5 1.5.5v1 1l.5 1 .5 1v1.5 1.5l-11-5.5-11-5.5-8.5-10-8.5-10 12.5 2 12.5 2-11-16.5-11-16.5-2.5 9.5-2.5 9.5-5.5 10-5.5 10-12.5 2.5-12.5 2.5-3-6-3-6 12.5-6 12.5-6-3.5-12-3.5-12-3.5 8.5-3.5 8.5-10 6.5-10 6.5-12-19.5-12-19.5 4.5 26.5 4.5 26.5 5 13 5 13 9.5 9 9.5 9 8.5 9.5 8.5 9.5-1.5 7.5-1.5 7.5-8-10-8-10-9.5-9-9.5-9-.5.5-.5.5-1 1-1 1-1 1-1 1-1 1.5-1 1.5-1 1-1 1-1.5 1-1.5 1-1 1-1 1-1.5 1-1.5 1-1.5-.5-1.5-.5v-2.5-2.5l-4-6-4-6-8 8-8 8 3.5 2 3.5 2 1-.5 1-.5 1-1 1-1 1.5-1 1.5-1 1-1 1-1 1.5-1 1.5-1 1 1 1 1v1 1l-11 9-11 9-10.5 7.5-10.5 7.5 9.5-10 9.5-10h-1-1l-1 .5-1 .5-1 .5-1 .5-.5.5-.5.5-1 .5-1 .5-1 1-1 1h-1-1l-.5 1-.5 1-1.5.5-1.5.5v1 1h-1-1l-.5.5-.5.5-.5 1-.5 1-1.5.5-1.5.5-.5.5-.5.5-1 .5-1 .5-.5 1-.5 1-.5.5-.5.5-1 1-1 1h-1.5-1.5l-1.5.5-1.5.5-.5.5-.5.5-1.5.5-1.5.5 1.5.5 1.5.5.5-.5.5-.5.5.5.5.5-.5 1-.5 1-1 1-1 1-1.5.5-1.5.5h-.5-.5l-2 1.5-2 1.5.5.5.5.5 1.5-.5 1.5-.5.5-.5.5-.5 1-.5 1-.5h1 1l.5-.5.5-.5.5-.5.5-.5h1.5 1.5l.5-.5.5-.5h1 1l.5-.5.5-.5 1 .5 1 .5.5.5.5.5 13-8 13-8 11-7.5 11-7.5 11-4.5 11-4.5 6 4 6 4 2 5.5 2 5.5-1 .5-1 .5-1.5.5-1.5.5-1-1.5-1-1.5-1-2-1-2-.5.5-.5.5-13 6-13 6 6.5 10 6.5 10 15.5-11.5 15.5-11.5 5.5 7.5 5.5 7.5 8 10 8 10 11.5 11 11.5 11h1.5 1.5l1.5-.5 1.5-.5 2-.5 2-.5 1-1 1-1 1.5-.5 1.5-.5-10.5-17-10.5-17-10-14-10-14-5.5-7.5-5.5-7.5-10.5-7.5-10.5-7.5 11.5-7 11.5-7 7.5-4.5 7.5-4.5 10 3 10 3-1 7.5-1 7.5 12.5-5.5 12.5-5.5 7 .5 7 .5" style="fill:#715530;stroke:#715530"/><path d="m282 623l-2-1-1 .5-1 .5h-1-1l-1.5.5-1.5.5h-1.5-1.5-1-1l-1.5.5-1.5.5-1-1-1-1-1.5 1.5-1.5 1.5h-.5-.5l-.5 1-.5 1-.5.5-.5.5-1 .5-1 .5-.5.5-.5.5-.5.5-.5.5-.5.5-.5.5-.5 1-.5 1-.5.5-.5.5-.5.5-.5.5-.5.5-.5.5-.5.5-.5.5-1 .5-1 .5-.5.5-.5.5-.5.5-.5.5-.5.5-.5.5-.5 1-.5 1-.5.5-.5.5-.5.5-.5.5.5.5.5.5 1 1 1 1 1-.5 1-.5 1.5-.5 1.5-.5.5-2 .5-2 .5-1.5.5-1.5 2-.5 2-.5 1 .5 1 .5h.5.5l.5.5.5.5 1 .5 1 .5h1 1l.5-.5.5-.5.5-.5.5-.5.5-1 .5-1 .5-.5.5-.5.5-.5.5-.5.5-.5.5-.5 1 .5 1 .5.5-.5.5-.5 1.5-.5 1.5-.5 1.5-1.5 1.5-1.5 1-1 1-1 1-.5 1-.5.5-.5.5-.5.5-1.5.5-1.5v-1-1" style="fill:#c1823e;stroke:#c1823e"/><path d="m279 107l-11-24 .5 7.5.5 7.5-9.5-3.5-9.5-3.5 8 10 8 10 .5-5.5.5-5.5 6 3.5 6 3.5" style="fill:#f3f1e9;stroke:#f3f1e9"/><path d="m275 406v-3l-.5-1-.5-1v-1-1l-1.5-.5-1.5-.5-.5-1-.5-1h-1-1l-.5-1.5-.5-1.5-1-.5-1-.5-.5-.5-.5-.5-1-1-1-1v-1-1l-.5-1-.5-1v-1-1l-.5-1-.5-1 .5-1 .5-1-12.5-2-12.5-2 8.5 10 8.5 10 11 5.5 11 5.5" style="fill:#483925;stroke:#483925"/><path d="m275 58l-15-22-2 9-2 9 8 1 8 1 1.5 1 1.5 1" style="fill:#f3f1e9;stroke:#f3f1e9"/><path d="m273 669h1l-1-.5-1-.5-1.5.5-1.5.5h-2.5-2.5-2-2-2.5-2.5l-1.5.5-1.5.5h-2.5-2.5-2-2-1.5-1.5v.5.5l10 1.5 10 1.5 6.5-2.5 6.5-2.5" style="fill:#954d03;stroke:#954d03"/><path d="m272 636l1-1-1.5.5-1.5.5-.5.5-.5.5-1-.5-1-.5-.5.5-.5.5-.5.5-.5.5-.5.5-.5.5-.5 1-.5 1-.5.5-.5.5-.5.5-.5.5h-1-1l-1-.5-1-.5-.5-.5-.5-.5h-.5-.5l-1 1.5-1 1.5h1 1 1.5 1.5l.5 1 .5 1-1 1.5-1 1.5v.5.5l-.5 1.5-.5 1.5 1.5-1 1.5-1 1-1.5 1-1.5 1-1 1-1 1.5-1 1.5-1 1-1 1-1 1-1.5 1-1.5 1-1.5 1-1.5" style="fill:#8d724a;stroke:#8d724a"/><path d="m259 646l-1-2h-1.5-1.5-1-1l1-1.5 1-1.5-1-.5-1-.5-2 .5-2 .5-.5 1.5-.5 1.5-.5 2-.5 2-1.5.5-1.5.5-1 .5-1 .5-2-.5-2-.5v2 2l.5 2 .5 2 1.5.5 1.5.5 1.5-1 1.5-1 1-1 1-1 1.5-1 1.5-1 1.5-.5 1.5-.5 2-1 2-1 1-1.5 1-1.5" style="fill:#9a662b;stroke:#9a662b"/><path d="m259 626h1l-20-1.5-20-1.5-17 .5-17 .5-.5.5-.5.5-.5 1-.5 1-1.5 1-1.5 1-1 1-1 1-1.5 1-1.5 1-2 1-2 1-.5.5-.5.5-10.5 10-10.5 10 9 3.5 9 3.5 13.5 1 13.5 1h12.5 12.5l.5-1 .5-1 1-1 1-1 1.5-1 1.5-1 1-1 1-1 1.5-1 1.5-1 1-1 1-1 1-1 1-1 1.5-1 1.5-1 2 .5 2 .5-1-1-1-1-.5-.5-.5-.5.5-.5.5-.5.5-.5.5-.5.5-1 .5-1 .5-.5.5-.5.5-.5.5-.5.5-.5.5-.5 1-.5 1-.5.5-.5.5-.5.5-.5.5-.5.5-.5.5-.5.5-.5.5-.5.5-1 .5-1 .5-.5.5-.5.5-.5.5-.5.5-.5.5-.5 1-.5 1-.5.5-.5.5-.5.5-1 .5-1" style="fill:#d9b78d;stroke:#d9b78d"/><path d="m259 599l-32 20 1 .5 1 .5h1 1 1 1l1 .5 1 .5 2-1 2-1 1-1.5 1-1.5 1-1 1-1 1.5-1 1.5-1 1-1 1-1 1.5-.5 1.5-.5 1-1.5 1-1.5 1-1 1-1 1-.5 1-.5 1-2 1-2" style="fill:#2a1d09;stroke:#2a1d09"/><path d="m257 650v-1l-2 1-2 1-1.5.5-1.5.5-1.5 1-1.5 1-1 1-1 1-1.5 1-1.5 1-1.5-.5-1.5-.5-.5-2-.5-2v-2-2l-1.5 1-1.5 1-1 1-1 1-1 1-1 1-1.5 1-1.5 1-1 1-1 1-1.5 1-1.5 1-1 1-1 1-.5 1-.5 1h1.5 1.5l2-.5 2-.5h2 2l2-.5 2-.5h2 2 2.5 2.5l1.5-.5 1.5-.5 1-1 1-1 .5-.5.5-.5 1-1 1-1 1-.5 1-.5.5-.5.5-.5.5-1 .5-1 .5-1.5.5-1.5" style="fill:#c1823e;stroke:#c1823e"/><path d="m256 509v-2h-1-1-2.5-2.5l-1.5.5-1.5.5-1.5 1-1.5 1-1 1-1 1h2.5 2.5l1.5-.5 1.5-.5h2 2l1.5-1 1.5-1" style="fill:#8d724a;stroke:#8d724a"/><g style="fill:#f3f1e9;stroke:#f3f1e9"><path d="m256 118l-9-10-5-6-5-6-2 3-2 3 9 10 9 10 2.5-2 2.5-2"/><path d="m256 16l1-3-1-1-1-1-.5-2-.5-2-1-1-1-1-1-1.5-1-1.5.5-1 .5-1h-3-3-2-2-2-2-2.5-2.5-2-2-.5-.5l7 9 7 9 7.5-1 7.5-1"/><path d="m251 70l-12-9-3.5 2.5-3.5 2.5 2.5-11.5 2.5-11.5-5.5 10.5-5.5 10.5 12.5 3.5 12.5 3.5v-.5-.5"/></g><path d="m246 523h1l-11.5-11-11.5-11-8-10-8-10 8 14.5 8 14.5 11 6.5 11 6.5" style="fill:#483925;stroke:#483925"/><path d="m240 668l-51 2h-2-2l-.5.5-.5.5h-1-1-1-1-1.5-1.5-1-1l-.5-.5-.5-.5h-1-1-1.5-1.5l-.5.5-.5.5-1.5-.5-1.5-.5-2-.5-2-.5-1-1-1-1v-2-2l-2-.5-2-.5-1.5.5-1.5.5-1 1-1 1 14 4 14 4 21 4 21 4 6-.5 6-.5-7-4-7-4 11-.5 11-.5v-.5-.5-1-1" style="fill:#715530;stroke:#715530"/><g style="fill:#f3f1e9;stroke:#f3f1e9"><path d="m236 126l-13-22-4.5 6.5-4.5 6.5 4 3 4 3 7 1.5 7 1.5"/><path d="m233 28l-16-21-2 7-2 7 7 3 7 3 3 .5 3 .5"/></g><path d="m224 694l-1-1-2-.5-2-.5-.5-1.5-.5-1.5-1.5-1-1.5-1-.5-1.5-.5-1.5 1-1 1-1 2-.5 2-.5-21-4-21-4-14-4-14-4-.5.5-.5.5-2 .5-2 .5-.5-.5-.5-.5-1.5-.5-1.5-.5v.5.5l14.5 7.5 14.5 7.5 8.5 4 8.5 4 8-3 8-3 1 1.5 1 1.5v1 1l-.5 1-.5 1 1.5-.5 1.5-.5h1 1l1 .5 1 .5.5 1.5.5 1.5.5 1.5.5 1.5 1 1 1 1 1-1.5 1-1.5h1.5 1.5l1 1 1 1 1 .5 1 .5v-2-2" style="fill:#483925;stroke:#483925"/><path d="m223 712h1v-1.5-1.5l-1-1-1-1-.5-1-.5-1-.5-.5-.5-.5-1-1-1-1-.5-1-.5-1-1-1-1-1-1-1-1-1-.5-1.5-.5-1.5-.5-1.5-.5-1.5-1-.5-1-.5h-1-1l-1.5.5-1.5.5.5-1 .5-1v-1-1l-1-1.5-1-1.5-.5 1-.5 1v1.5 1.5l-.5 1.5-.5 1.5-1 1.5-1 1.5-.5 1.5-.5 1.5v2.5 2.5l-.5 1.5-.5 1.5v2.5 2.5l.5 1 .5 1h3 3 2.5 2.5 2 2 2 2 2.5 2.5.5.5" style="fill:#2a1d09;stroke:#2a1d09"/><g style="fill:#edcfbb;stroke:#edcfbb"><path d="m223 633l-29-8 6.5 2.5 6.5 2.5 8 1.5 8 1.5"/><path d="m223 114l1-3-1-1-1-1-1.5-1-1.5-1-1.5.5-1.5.5v1.5 1.5l.5 1.5.5 1.5 1 1.5 1 1.5h1 1l1-1 1-1v-.5-.5"/></g><path d="m220 621l1-1-24.5 5.5-24.5 5.5 1 .5 1 .5.5-.5.5-.5.5-.5.5-.5 1-.5 1-.5 1-1 1-1 .5-.5.5-.5 1-.5 1-.5 1.5-1 1.5-1 2-.5 2-.5 2-.5 2-.5h2 2 2 2l2 .5 2 .5 1.5-.5 1.5-.5h2.5 2.5 3 3" style="fill:#715530;stroke:#715530"/><g style="fill:#f3f1e9;stroke:#f3f1e9"><path d="m216 137l-12-9-2-7-2-7-2.5 5.5-2.5 5.5 9.5 6.5 9.5 6.5 1-.5 1-.5"/><path d="m215 88l-12-25-1.5 5.5-1.5 5.5-4 3-4 3 3.5 1.5 3.5 1.5 8 2.5 8 2.5"/></g><path d="m213 338l-18-24-3 11.5-3 11.5h11.5 11.5l-.5 2-.5 2 1-1.5 1-1.5" style="fill:#715530;stroke:#715530"/><path d="m212 337h-23l3-11.5 3-11.5-14-4.5-14-4.5-4 14-4 14 12 19.5 12 19.5 10-6.5 10-6.5 3.5-8.5 3.5-8.5.5-.5.5-.5.5-2 .5-2" style="fill:#483925;stroke:#483925"/><path d="m211 42l-7-16-3-7-3-7-4 9-4 9 10.5 6.5 10.5 6.5v-.5-.5" style="fill:#f3f1e9;stroke:#f3f1e9"/><path d="m204 403l-19-12 .5 8.5.5 8.5 9-2.5 9-2.5" style="fill:#483925;stroke:#483925"/><path d="m202 685l1-2-8 3-8 3-8.5-4-8.5-4 1 .5 1 .5h1 1v1 1l-1 .5-1 .5-1.5-.5-1.5-.5-1 1-1 1-1 1.5-1 1.5-.5 1.5-.5 1.5-1 1.5-1 1.5-.5 1.5-.5 1.5-.5 2-.5 2-.5 1.5-.5 1.5-.5 2-.5 2-.5 1.5-.5 1.5h2 2 2.5 2.5 2 2 2.5 2.5 2 2 2.5 2.5 2 2 2 2 2.5 2.5.5.5l-.5-1-.5-1v-2.5-2.5l.5-1.5.5-1.5v-2.5-2.5l.5-1.5.5-1.5 1-1.5 1-1.5.5-1.5.5-1.5v-1.5-1.5" style="fill:#603107;stroke:#603107"/><path d="m191 100l-12-25 3.5 9.5 3.5 9.5 2.5 3 2.5 3" style="fill:#f3f1e9;stroke:#f3f1e9"/><path d="m189 668v-2l-1.5-.5-1.5-.5-1.5-1-1.5-1-1.5-.5-1.5-.5-1.5.5-1.5.5-1.5-.5-1.5-.5-1.5 1-1.5 1-.5 1.5-.5 1.5-2.5 1-2.5 1v.5.5l1.5.5 1.5.5.5-.5.5-.5h1.5 1.5 1 1l.5.5.5.5h1 1 1.5 1.5 1 1 1 1l.5-.5.5-.5h2 2v-1-1" style="fill:#9a662b;stroke:#9a662b"/><path d="m189 461l-4-11-6-4-6-4-.5 1-.5 1 1 .5 1 .5v1 1l.5 1 .5 1 1 1 1 1 .5.5.5.5v1 1l1 1 1 1 1 2 1 2 1 1.5 1 1.5 1.5-.5 1.5-.5 1-.5 1-.5" style="fill:#603107;stroke:#603107"/><path d="m189 134l-6-15-1.5 9.5-1.5 9.5 4-1 4-1 .5-1 .5-1" style="fill:#f3f1e9;stroke:#f3f1e9"/><path d="m185 625l1-1v-.5-.5l-1.5 1-1.5 1-1 .5-1 .5-.5.5-.5.5-1 1-1 1-1 .5-1 .5-.5.5-.5.5-.5.5-.5.5-1-.5-1-.5h-1-1l-.5.5-.5.5-.5.5-.5.5-.5.5-.5.5h-1-1l-1 .5-1 .5-.5.5-.5.5-.5.5-.5.5-.5.5-.5.5-.5 1-.5 1-.5.5-.5.5h-1-1l-.5.5-.5.5-.5 1-.5 1-.5.5-.5.5-.5.5-.5.5-.5.5-.5.5-1 1-1 1v1 1l-1 1-1 1-1.5 1-1.5 1-1 1-1 1-1 1.5-1 1.5.5 1.5.5 1.5 1.5 1 1.5 1h3 3l1-1 1-1 1.5-.5 1.5-.5 2 .5 2 .5v2 2l1 1 1 1 2 .5 2 .5v-.5-.5l-1-.5-1-.5-1-1-1-1 .5-2 .5-2-8-3.5-8-3.5 13-10 13-10 2-1 2-1 1.5-1 1.5-1 1-1 1-1 1.5-1 1.5-1 .5-1 .5-1" style="fill:#8d724a;stroke:#8d724a"/><path d="m185 38l-18-13 5 12 5 12 4-5.5 4-5.5" style="fill:#f3f1e9;stroke:#f3f1e9"/><path d="m181 661l-1-1h-1-1l-.5.5-.5.5h-1.5-1.5l-.5-.5-.5-.5h-1-1l-.5.5-.5.5-1 1-1 1-1.5 1-1.5 1-1-.5-1-.5-.5-1-.5-1-.5 2-.5 2 1 1 1 1 1 .5 1 .5 2.5-1 2.5-1 .5-1.5.5-1.5 1.5-1 1.5-1 1.5.5 1.5.5 1.5-.5 1.5-.5.5-.5.5-.5" style="fill:#c1823e;stroke:#c1823e"/><path d="m179 457l1-1-1-1-1-1v-1-1l-.5-.5-.5-.5-1-1-1-1-.5-1-.5-1v-1-1l-1-.5-1-.5.5-1 .5-1-11 4.5-11 4.5-14 12-14 12 1-.5 1-.5 1-.5 1-.5h1 1l.5 1 .5 1 1 1 1 1 .5.5.5.5.5 1 .5 1 .5 1.5.5 1.5 1 1.5 1 1.5.5 1.5.5 1.5v1 1l-15 7.5-15 7.5 16.5-2.5 16.5-2.5 12.5-6 12.5-6-6.5-10-6.5-10 13-6 13-6" style="fill:#483925;stroke:#483925"/><path d="m178 154l-13-24-1 5-1 5-2.5 4.5-2.5 4.5 1-2 1-2 9 4.5 9 4.5" style="fill:#f3f1e9;stroke:#f3f1e9"/><path d="m175 427l1-1-.5-.5-.5-.5-.5.5-.5.5-1.5 2-1.5 2-1.5.5-1.5.5-1 1.5-1 1.5-1.5.5-1.5.5-1.5-1-1.5-1-1.5-.5-1.5-.5.5 1.5.5 1.5-1 .5-1 .5v2.5 2.5l1.5.5 1.5.5 1.5-1 1.5-1 1-1 1-1 1.5-1 1.5-1 1-1 1-1 1-1.5 1-1.5 1-1 1-1 1-1 1-1" style="fill:#9a662b;stroke:#9a662b"/><path d="m174 684v-2h-1-1l-1-.5-1-.5-14.5-7.5-14.5-7.5-17-8-17-8 3-4.5 3-4.5-.5-1-.5-1-.5-.5-.5-.5v-1.5-1.5l8.5 3.5 8.5 3.5 17-7.5 17-7.5-8.5-4-8.5-4-2.5-6.5-2.5-6.5-15 1-15 1-9.5-10-9.5-10-15-1-15-1-11.5 8-11.5 8-1 17-1 17 2 15 2 15 5 12 5 12 4 11 4 11h20.5 20.5 20 20 9 9l.5-1.5.5-1.5.5-2 .5-2 .5-1.5.5-1.5.5-2 .5-2 .5-1.5.5-1.5 1-1.5 1-1.5.5-1.5.5-1.5 1-1.5 1-1.5 1-1 1-1 1.5.5 1.5.5 1-.5 1-.5" style="fill:#2a1d09;stroke:#2a1d09"/><path d="m174 426l1-1-1.5-.5-1.5-.5h-1.5-1.5l-1.5.5-1.5.5-1 .5-1 .5-.5.5-.5.5-1.5.5-1.5.5h-1.5-1.5l-.5.5-.5.5.5 1.5.5 1.5 1.5.5 1.5.5 1.5 1 1.5 1 1.5-.5 1.5-.5 1-1.5 1-1.5 1.5-.5 1.5-.5 1.5-2 1.5-2" style="fill:#c1823e;stroke:#c1823e"/><path d="m171 636l1-1-13 10-13 10 8 3.5 8 3.5.5 1 .5 1 1 .5 1 .5 1.5-1 1.5-1-9-3.5-9-3.5 10.5-10 10.5-10" style="fill:#aa9472;stroke:#aa9472"/><g style="fill:#f3f1e9;stroke:#f3f1e9"><path d="m170 110l-12-25-2 5-2 5-1.5 5.5-1.5 5.5 2-2 2-2 7.5 4 7.5 4"/><path d="m170 61l-11-26-7 8-7 8 11.5 6.5 11.5 6.5 1-1.5 1-1.5"/></g><path d="m167 409l-5-30-.5-14.5-.5-14.5-3-16-3-16-.5 1-.5 1-11.5 3-11.5 3-7.5-9.5-7.5-9.5-8-11-8-11h-.5-.5l-6.5-5-6.5-5-3.5-2.5-3.5-2.5-.5-4.5-.5-4.5-7.5 1.5-7.5 1.5-4 2.5-4 2.5-6.5 4.5-6.5 4.5-4-1-4-1-4.5-9.5-4.5-9.5-6-2-6-2-6.5-6.5-6.5-6.5v18.5 18.5 18 18 20 20 19.5 19.5l7-.5 7-.5 7 5 7 5 8.5 4.5 8.5 4.5 12.5-.5 12.5-.5 9-.5 9-.5 10.5 3 10.5 3-.5 1-.5 1v1 1 1.5 1.5l1-2 1-2 .5-1.5.5-1.5.5-1.5.5-1.5v-1.5-1.5l-1-1-1-1 .5-2 .5-2 1.5-.5 1.5-.5 2-.5 2-.5-.5 1.5-.5 1.5-4.5 15-4.5 15-5.5 13-5.5 13-7 8.5-7 8.5h1.5 1.5l1.5-.5 1.5-.5 1.5-.5 1.5-.5 2-.5 2-.5 1.5-.5 1.5-.5 1-.5 1-.5.5-1 .5-1 1-.5 1-.5.5-.5.5-.5 1.5-.5 1.5-.5.5-1 .5-1 .5-.5.5-.5h1 1v-1-1l1.5-.5 1.5-.5.5-1 .5-1h1 1l1-1 1-1 1-.5 1-.5.5-.5.5-.5 1-.5 1-.5 1-.5 1-.5-6-10.5-6-10.5 2.5-11.5 2.5-11.5 8.5 5 8.5 5 5.5-5.5 5.5-5.5 9.5 1 9.5 1" style="fill:#aa9472;stroke:#aa9472"/><path d="m165 57l-16-13 8 7 8 7v-.5-.5" style="fill:#edcfbb;stroke:#edcfbb"/><g style="fill:#f3f1e9;stroke:#f3f1e9"><path d="m157 8l-21-6 5.5 4.5 5.5 4.5 5-1.5 5-1.5"/><path d="m155 164l-14-23-3 10-3 10 10 1.5 10 1.5"/></g><path d="m154 320l1-2-17-7.5-17-7.5-7-11-7-11-7.5-12-7.5-12-7.5-11-7.5-11 4 10.5 4 10.5 7.5 14.5 7.5 14.5 8 11 8 11 7.5 9.5 7.5 9.5 11.5-3 11.5-3" style="fill:#b0b1a8;stroke:#b0b1a8"/><path d="m153 439v-2l-1-1-1-1-1.5 1-1.5 1-1 1-1 1-1.5 1-1.5 1-1 1-1 1-1 .5-1 .5-1.5 1.5-1.5 1.5-1 1-1 1-1.5 1-1.5 1-1 .5-1 .5-9.5 10-9.5 10 10.5-7.5 10.5-7.5 11-9 11-9" style="fill:#483925;stroke:#483925"/><path d="m151 162l-16-15 8 8 8 8v-.5-.5" style="fill:#edcfbb;stroke:#edcfbb"/><path d="m150 122l-9-16-4-6-4-6 1 12 1 12 7.5 2 7.5 2" style="fill:#f3f1e9;stroke:#f3f1e9"/><path d="m149 666l1-1h-3-3l-1.5-1-1.5-1-.5-1.5-.5-1.5 1-1.5 1-1.5 1-1 1-1 1.5-1 1.5-1 1-1 1-1v-1-1l-1 .5-1 .5-.5.5-.5.5-.5.5-.5.5-.5.5-.5.5-1 .5-1 .5-.5.5-.5.5-.5.5-.5.5-.5.5-.5.5-.5 1-.5 1v1 1l.5.5.5.5.5.5.5.5.5 1 .5 1 1.5.5 1.5.5.5.5.5.5 2-.5 2-.5" style="fill:#715530;stroke:#715530"/><path d="m148 72l-13-24-3 8-3 8 4.5 1.5 4.5 1.5 5 2.5 5 2.5" style="fill:#f3f1e9;stroke:#f3f1e9"/><path d="m142 454l-20 13v1 1l10-7.5 10-7.5" style="fill:#9a662b;stroke:#9a662b"/><g style="fill:#715530;stroke:#715530"><path d="m139 651v-2l-.5-.5-.5-.5h-1-1l-1 .5-1 .5h-1-1-1-1l-.5-.5-.5-.5v-1-1-.5-.5-1-1l-.5-.5-.5-.5-.5 1-.5 1-1.5.5-1.5.5v2 2l1 1.5 1 1.5.5 1.5.5 1.5 2-.5 2-.5 1.5-.5 1.5-.5 1.5-.5 1.5-.5 1-.5 1-.5"/><path d="m138 491v-2l-.5-1.5-.5-1.5-1-1.5-1-1.5-.5-1.5-.5-1.5-.5-1-.5-1-.5-.5-.5-.5-1-1-1-1-.5-1-.5-1h-1-1l-1 .5-1 .5-1 .5-1 .5-1 .5-1 .5-1 1.5-1 1.5-1.5.5-1.5.5-1.5 1-1.5 1-1.5.5-1.5.5-1 1-1 1-1.5 1-1.5 1-1.5.5-1.5.5-1 1.5-1 1.5v1 1l.5 1.5.5 1.5v1 1l.5.5.5.5.5 1.5.5 1.5 1.5 1.5 1.5 1.5 1 .5 1 .5 15-7.5 15-7.5"/></g><g style="fill:#f3f1e9;stroke:#f3f1e9"><path d="m135 22l-18-7-4-7.5-4-7.5h-3.5-3.5-1.5-1.5l-7 6.5-7 6.5-1.5 10.5-1.5 10.5-3 9-3 9-13 7-13 7-12.5 7.5-12.5 7.5 8.5-1.5 8.5-1.5 12.5-7 12.5-7 11-7 11-7 6-9 6-9 5.5-6 5.5-6 11.5 1 11.5 1"/><path d="m134 174l-19-10-1-6-1-6 5.5 12.5 5.5 12.5 5-1.5 5-1.5"/><path d="m132 128l-13-24-7 5-7 5 7 9 7 9 3-6 3-6 3.5 4 3.5 4"/></g><path d="m130 486l-17-2-.5 5.5-.5 5.5 6-3 6-3 3-1.5 3-1.5" style="fill:#8d724a;stroke:#8d724a"/><path d="m127 85l-9-28 3 10 3 10-9-5-9-5 3 8 3 8 7.5 1 7.5 1" style="fill:#f3f1e9;stroke:#f3f1e9"/><path d="m121 641v-2l-.5-1.5-.5-1.5-2-.5-2-.5-1-1-1-1-.5 1-.5 1h-1-1v1.5 1.5l.5.5.5.5.5 1 .5 1 1-1.5 1-1.5 1.5 1 1.5 1 1.5.5 1.5.5" style="fill:#715530;stroke:#715530"/><g style="fill:#d9b78d;stroke:#d9b78d"><path d="m120 441l-1-1-1.5.5-1.5.5-2 .5-2 .5-1 1-1 1-.5 2-.5 2 1 1 1 1 1.5-1 1.5-1 1-1 1-1 1-1 1-1 1-1.5 1-1.5"/><path d="m117 403l1-3-2 .5-2 .5-1.5.5-1.5.5-.5 2-.5 2 1 1 1 1v1.5 1.5l-.5 1.5-.5 1.5-.5 1.5-.5 1.5-1 2-1 2-.5 1-.5 1-6 14-6 14-9 9-9 9 3 3.5 3 3.5 7-8.5 7-8.5 5.5-13 5.5-13 4.5-15 4.5-15"/></g><path d="m115 237h1v-1-1l-10.5-13-10.5-13-6.5-11.5-6.5-11.5-7-11-7-11-7-12.5-7-12.5h-.5-.5-.5-.5l-1 .5-1 .5 10 15.5 10 15.5 6.5 11.5 6.5 11.5 7 11 7 11 9 10.5 9 10.5" style="fill:#d7fbd5;stroke:#d7fbd5"/><path d="m109 414l-21-6-9 .5-9 .5-12.5.5-12.5.5-8.5-4.5-8.5-4.5-7-5-7-5-7 .5-7 .5v19.5 19.5 20 20l1.5.5 1.5.5 1.5.5 1.5.5 1.5-1 1.5-1 2-.5 2-.5h2 2l2-.5 2-.5 1-1 1-1 1.5-.5 1.5-.5 2-.5 2-.5 1.5-1.5 1.5-1.5-.5-1-.5-1v-1-1l.5-.5.5-.5.5-.5.5-.5 1-.5 1-.5.5-.5.5-.5.5.5.5.5h1 1l.5.5.5.5-.5 1-.5 1v1 1l.5.5.5.5 1 1 1 1h1.5 1.5l.5-1 .5-1v-1-1l-.5-.5-.5-.5-.5-1-.5-1-1.5-1.5-1.5-1.5-2-4.5-2-4.5 16 12.5 16 12.5-1 1-1 1-1 1-1 1-1 1-1 1-2 1.5-2 1.5h-.5-.5l-1 .5-1 .5-.5 1-.5 1-.5.5-.5.5.5.5.5.5.5 1 .5 1 2.5-1 2.5-1 7-8 7-8 5.5-8 5.5-8 7-10 7-10-3.5 2.5-3.5 2.5 7-7.5 7-7.5v-1.5-1.5-1-1l.5-1 .5-1" style="fill:#8d724a;stroke:#8d724a"/><path d="m109 95l-7-14-4-7-4-7v11 11l7.5 3 7.5 3" style="fill:#f3f1e9;stroke:#f3f1e9"/><path d="m108 565l-10-13-5-4-5-4-2-9-2-9 3.5-11.5 3.5-11.5-2 .5-2 .5-1.5-.5-1.5-.5 1-1.5 1-1.5.5-1.5.5-1.5-19 4.5-19 4.5-13.5 4.5-13.5 4.5-5 10-5 10 5 4 5 4 7.5.5 7.5.5 10 8.5 10 8.5 11 7 11 7 14.5-5 14.5-5" style="fill:#2a1d09;stroke:#2a1d09"/><path d="m108 141l-13-24-2.5 10.5-2.5 10.5 9 1.5 9 1.5" style="fill:#f3f1e9;stroke:#f3f1e9"/><path d="m107 423l1-2-7 7.5-7 7.5 3.5-2.5 3.5-2.5-7 10-7 10-5.5 8-5.5 8-7 8-7 8 1.5-1 1.5-1h1 1l.5-.5.5-.5h1 1l1-.5 1-.5h1 1 1 1l.5-.5.5-.5h1 1l.5-.5.5-.5 1.5-.5 1.5-.5-3-3.5-3-3.5 9-9 9-9 6-14 6-14" style="fill:#aa9472;stroke:#aa9472"/><path d="m102 511l-1-2v-2-2l.5-1.5.5-1.5h.5.5l-.5-1.5-.5-1.5-.5-.5-.5-.5v-1-1l-.5-1.5-.5-1.5-1 .5-1 .5-.5-.5-.5-.5-.5-.5-.5-.5-.5.5-.5.5-.5.5-.5.5h-1-1l-1 .5-1 .5-.5.5-.5.5-1 .5-1 .5-.5 1.5-.5 1.5-1 1.5-1 1.5 1.5.5 1.5.5 2-.5 2-.5 1.5.5 1.5.5.5.5.5.5.5.5.5.5.5.5.5.5.5.5.5.5.5 1 .5 1 1.5.5 1.5.5" style="fill:#483925;stroke:#483925"/><path d="m102 483l1-1-.5-.5-.5-.5h-.5-.5l-9 3-9 3-.5-.5-.5-.5h-1.5-1.5l-1.5.5-1.5.5-2 .5-2 .5-2.5.5-2.5.5v.5.5l1 .5 1 .5 1.5-.5 1.5-.5v1 1l-1 .5-1 .5-1 .5-1 .5-2 .5-2 .5-1.5.5-1.5.5-1.5.5-1.5.5-2 .5-2 .5h-2-2l-2 .5-2 .5-1-.5-1-.5-22 5-22 5v2.5 2.5l23-6 23-6 14.5-3.5 14.5-3.5 13.5-5.5 13.5-5.5" style="fill:#954d03;stroke:#954d03"/><path d="m101 481h1l-1-.5-1-.5-.5.5-.5.5h-1-1l-.5.5-.5.5h-1.5-1.5l-.5.5-.5.5-.5.5-.5.5h-1-1l-1 .5-1 .5-.5.5-.5.5-1.5.5-1.5.5 9-3 9-3" style="fill:#9a662b;stroke:#9a662b"/><path d="m100 472l1-1-1 .5-1 .5-1.5.5-1.5.5-2 .5-2 .5-1.5.5-1.5.5-1.5.5-1.5.5h-1.5-1.5l-1.5.5-1.5.5-.5.5-.5.5h-1-1l-.5.5-.5.5h-1-1-1-1l-1 .5-1 .5h-1-1l-.5.5-.5.5h-1-1l-1.5 1-1.5 1h1.5 1.5l2.5-.5 2.5-.5 1.5.5 1.5.5 2-.5 2-.5 1.5-.5 1.5-.5 1.5-.5 1.5-.5 1.5-1 1.5-1 1-.5 1-.5 1.5-.5 1.5-.5.5-.5.5-.5 1.5-.5 1.5-.5h1.5 1.5l1-1 1-1" style="fill:#8d724a;stroke:#8d724a"/><path d="m99 285h1l-7.5-14.5-7.5-14.5-4-10.5-4-10.5h-.5-.5l-9.5-16-9.5-16-1-2-1-2-1-1-1-1-1-1.5-1-1.5-1-1-1-1-1-1.5-1-1.5-.5-1.5-.5-1.5-1-1-1-1-.5-2-.5-2-7.5-12-7.5-12-14-21.5-14-21.5v20 20 20 20 20 20 3.5 3.5l6.5 6.5 6.5 6.5 6 2 6 2 4.5 9.5 4.5 9.5 4 1 4 1 6.5-4.5 6.5-4.5 4-2.5 4-2.5 7.5-1.5 7.5-1.5.5 4.5.5 4.5 3.5 2.5 3.5 2.5 6.5 5 6.5 5" style="fill:#d9b78d;stroke:#d9b78d"/><path d="m93 478l-1-1-.5.5-.5.5-1.5-.5-1.5-.5-1 .5-1 .5-1.5 1-1.5 1-1.5.5-1.5.5-1.5.5-1.5.5-2 .5-2 .5-1.5-.5-1.5-.5-2.5.5-2.5.5-.5.5-.5.5 1.5 1 1.5 1 .5.5.5.5 1-.5 1-.5 1.5-.5 1.5-.5h1 1l1-.5 1-.5h2 2l.5-.5.5-.5 1-.5 1-.5 1.5.5 1.5.5 1.5-.5 1.5-.5 1-1 1-1 .5-1 .5-1" style="fill:#483925;stroke:#483925"/><path d="m86 483h1l-1.5-.5-1.5-.5-1 .5-1 .5-.5.5-.5.5h-2-2l-1 .5-1 .5h-1-1l-1.5.5-1.5.5-1 .5-1 .5-.5-.5-.5-.5-1.5-1-1.5-1-1 .5-1 .5-1 .5-1 .5.5 1 .5 1 1.5.5 1.5.5h1.5 1.5l2.5-.5 2.5-.5 2-.5 2-.5 1.5-.5 1.5-.5h1.5 1.5l2-1.5 2-1.5" style="fill:#603107;stroke:#603107"/><path d="m85 153l-8-25-4 5-4 5-7.5.5-7.5.5 15.5 7 15.5 7" style="fill:#f3f1e9;stroke:#f3f1e9"/><path d="m76 235h1l-.5-1-.5-1-1-1.5-1-1.5-.5-1.5-.5-1.5-1-1.5-1-1.5-1-1-1-1-.5-1.5-.5-1.5-1-2-1-2-1-.5-1-.5v-1-1l-.5-.5-.5-.5-.5-.5-.5-.5-.5-1-.5-1-.5-.5-.5-.5-.5-.5-.5-.5-.5-.5-.5-.5-.5-1-.5-1 9.5 16 9.5 16" style="fill:#b0b1a8;stroke:#b0b1a8"/><path d="m72 492v-2l-1.5.5-1.5.5-1-.5-1-.5h-.5-.5l-1 .5-1 .5-1-.5-1-.5h-1-1-1-1l-.5.5-.5.5-1 .5-1 .5h-1-1l-1 1-1 1-1 .5-1 .5-1 1-1 1-1.5.5-1.5.5 1 .5 1 .5 2-.5 2-.5h2 2l2-.5 2-.5 1.5-.5 1.5-.5 1.5-.5 1.5-.5 2-.5 2-.5 1-.5 1-.5 1-.5 1-.5" style="fill:#9a662b;stroke:#9a662b"/><path d="m70 469l-32-25 2 4.5 2 4.5 1.5.5 1.5.5 1 .5 1 .5 1 1 1 1 1.5 1 1.5 1 1.5.5 1.5.5 1 1.5 1 1.5 1 1 1 1-.5 1.5-.5 1.5-1-.5-1-.5-1 .5-1 .5h-1-1-1.5-1.5l.5 1.5.5 1.5-.5.5-.5.5h-1-1-1-1l-1-.5-1-.5-1-1-1-1-.5-.5-.5-.5.5-1 .5-1h2 2l-.5-.5-.5-.5-.5-1-.5-1-1-1-1-1-.5-.5-.5-.5v-1-1l.5-1 .5-1-.5-.5-.5-.5h-1-1l-.5-.5-.5-.5-.5.5-.5.5-1 .5-1 .5-.5.5-.5.5-.5.5-.5.5v1 1l.5 1 .5 1 1 .5 1 .5 1 1.5 1 1.5.5 1.5.5 1.5v1 1l-1.5.5-1.5.5h-1-1-1-1-1-1l-1 .5-1 .5h-1-1-1-1l-.5.5-.5.5h-1.5-1.5l-.5 1-.5 1 21 1 21 1 2-1.5 2-1.5 1-1 1-1 1-1 1-1 1-1 1-1" style="fill:#715530;stroke:#715530"/><path d="m67 216h1l-.5-1-.5-1-.5-1.5-.5-1.5-.5-1-.5-1-.5-.5-.5-.5-1-1-1-1-.5-1-.5-1-.5-.5-.5-.5-.5-1.5-.5-1.5-1-.5-1-.5v-1-1l-1-1-1-1-.5-1.5-.5-1.5-.5-1-.5-1-.5-.5-.5-.5-1-1-1-1-1-1.5-1-1.5-1-1-1-1-1-1.5-1-1.5-.5.5-.5.5.5 2 .5 2 1 1 1 1 .5 1.5.5 1.5 1 1.5 1 1.5 1 1 1 1 1 1.5 1 1.5 1 1 1 1 1 2 1 2 .5 1 .5 1 .5.5.5.5.5.5.5.5.5.5.5.5.5 1 .5 1 .5.5.5.5.5.5.5.5v1 1l1 .5 1 .5.5.5.5.5" style="fill:#d7fbd5;stroke:#d7fbd5"/><path d="m66 490h1v-.5-.5h-1.5-1.5l-1.5-.5-1.5-.5-.5-1-.5-1 1-.5 1-.5 1-.5 1-.5.5-.5.5-.5h-1.5-1.5l-2.5 1-2.5 1-.5 1-.5 1-1 1-1 1-1.5.5-1.5.5-1 1.5-1 1.5 1 .5 1 .5 1-1 1-1h1 1l1-.5 1-.5.5-.5.5-.5h1 1 1 1l1 .5 1 .5 1-.5 1-.5" style="fill:#715530;stroke:#715530"/><path d="m59 478h1l-21-1-21-1-1 3-1 3-.5.5-.5.5-1.5.5-1.5.5-1.5.5-1.5.5-.5 1-.5 1 22-4.5 22-4.5-.5 1.5-.5 1.5-1 1-1 1-1 1-1 1-1.5 1-1.5 1-1 1-1 1-1 1-1 1 2-.5 2-.5 1.5-.5 1.5-.5.5-.5.5-.5.5-1 .5-1 1.5-.5 1.5-.5.5.5.5.5-1 1.5-1 1.5v.5.5l1.5-.5 1.5-.5 1-1 1-1 .5-1 .5-1-.5-1-.5-1-.5-.5-.5-.5.5-.5.5-.5.5-1 .5-1 1-.5 1-.5" style="fill:#483925;stroke:#483925"/><path d="m58 468l1-3-1-1-1-1-1-1.5-1-1.5-1.5-.5-1.5-.5-1.5-1-1.5-1-1-1-1-1-1-.5-1-.5-1.5-.5-1.5-.5 1.5 1.5 1.5 1.5.5 1 .5 1 .5.5.5.5v1 1l-.5 1-.5 1h-1.5-1.5l.5 1 .5 1 .5.5.5.5h-2-2l-.5 1-.5 1 .5.5.5.5 1 1 1 1 1 .5 1 .5h1 1 1 1l.5-.5.5-.5-.5-1.5-.5-1.5h1.5 1.5 1 1l1-.5 1-.5 1 .5 1 .5" style="fill:#9a662b;stroke:#9a662b"/><path d="m53 486l-1-1-1.5.5-1.5.5-.5 1-.5 1-.5.5-.5.5-1.5.5-1.5.5-2 .5-2 .5-16-2-16-2 .5-1 .5-1-1.5.5-1.5.5-1.5-.5-1.5-.5.5-2 .5-2 .5-1.5.5-1.5-.5-1.5-.5-1.5-.5-.5-.5-.5-1.5-.5-1.5-.5v1.5 1.5 2.5 2.5 2 2 2.5 2.5 2 2 2.5 2.5 2 2 2 2 .5.5l22-5 22-5 1.5-.5 1.5-.5 1-1 1-1 1-.5 1-.5-1-.5-1-.5 1-1.5 1-1.5v-.5-.5l1-1.5 1-1.5" style="fill:#603107;stroke:#603107"/><path d="m52 478l-44 9 16 2 16 2 1-1 1-1 1-1 1-1 1.5-1 1.5-1 1-1 1-1 1-1 1-1 .5-1.5.5-1.5" style="fill:#2a1d09;stroke:#2a1d09"/><path d="m52 139h1l-6.5-11-6.5-11-6.5-9.5-6.5-9.5-6-10-6-10-7.5-12-7.5-12v20 20 7.5 7.5l7 11.5 7 11.5 7.5 11 7.5 11 7.5 12.5 7.5 12.5 1 1.5 1 1.5 1 1 1 1 1 1.5 1 1.5-7-12.5-7-12.5-7-11-7-11 3.5-6 3.5-6 10.5 6 10.5 6 1-.5 1-.5" style="fill:#f3f1e9;stroke:#f3f1e9"/><path d="m45 682l-13-37-16 2.5-16 2.5v3.5 3.5 2 2 2 2l16.5 1 16.5 1-16.5 12.5-16.5 12.5v1 1l13-8.5 13-8.5 9.5 2.5 9.5 2.5" style="fill:#954d03;stroke:#954d03"/><path d="m43 180l1-1-7.5-12.5-7.5-12.5-7.5-11-7.5-11-7-11.5-7-11.5v1.5 1.5.5.5l14 21.5 14 21.5 7.5 12 7.5 12" style="fill:#edcfbb;stroke:#edcfbb"/><path d="m38 471v-2l-.5-1.5-.5-1.5-1-1.5-1-1.5-1-.5-1-.5-1.5 1.5-1.5 1.5-2 .5-2 .5-1.5.5-1.5.5-1 1-1 1-2 .5-2 .5h-2-2l-2 .5-2 .5-1.5 1-1.5 1v1.5 1.5l.5 2 .5 2-.5 1.5-.5 1.5h2.5 2.5l2.5-.5 2.5-.5 1-3 1-3 .5-1 .5-1h1.5 1.5l.5-.5.5-.5h1 1 1 1l1-.5 1-.5h1 1 1 1 1 1l1.5-.5 1.5-.5" style="fill:#9a662b;stroke:#9a662b"/><path d="m35 1l1-1h-18-18v.5.5 10.5 10.5l17.5-10.5 17.5-10.5" style="fill:#f3f1e9;stroke:#f3f1e9"/><path d="m33 667l-33-2v2 2 2.5 2.5 2 2 2.5 2.5 2 2 2 2 .5.5l16.5-12.5 16.5-12.5" style="fill:#b56500;stroke:#b56500"/><path d="m15 483l1-1-2.5.5-2.5.5h-2.5-2.5l.5-1.5.5-1.5-.5-2-.5-2v-1.5-1.5l-1.5-.5-1.5-.5-1.5-.5-1.5-.5v1 1l1.5.5 1.5.5.5.5.5.5.5 1.5.5 1.5-.5 1.5-.5 1.5-.5 2-.5 2 1.5.5 1.5.5 1.5-.5 1.5-.5 1.5-.5 1.5-.5 1.5-.5 1.5-.5" style="fill:#715530;stroke:#715530"/></g></svg>