<svg xmlns="http://www.w3.org/2000/svg" viewBox="0 0 712 960">
    <path d="m0 0h712v960h-712z" style="fill:#fdffef" />
    <g style="stroke-linejoin:round;stroke-width:.7">
        <path d="m0 959v1h21.5 21.5 20 20 20 20 20 20 20 20 20 20 .5.5v-.5-.5l3-16.5 3-16.5 4-16 4-16 3.5-16.5 3.5-16.5 4-15.5 4-15.5 6.5-13.5 6.5-13.5-6.5-9.5-6.5-9.5-11.5-7.5-11.5-7.5-11-9-11-9-12-8-12-8-18-13.5-18-13.5-10.5-4-10.5-4-9 4-9 4-8.5 9.5-8.5 9.5-6.5 2.5-6.5 2.5-8.5 6.5-8.5 6.5-2 9-2 9-9 2-9 2-4.5 6.5-4.5 6.5-7.5 1.5-7.5 1.5-6 9-6 9-3.5 7-3.5 7-4.5 2.5-4.5 2.5-3.5 5.5-3.5 5.5h-.5-.5v22 22 20 20 20 20 2 2" style="fill:#363327;stroke:#363327" />
        <path d="m244 959v1h.5.5v-.5-.5l4-16.5 4-16.5 3.5-16.5 3.5-16.5 3.5-16.5 3.5-16.5 5-15 5-15 6-14 6-14-4-12-4-12-11.5-4.5-11.5-4.5-8-12-8-12-9.5-8.5-9.5-8.5-12-8-12-8-13-3.5-13-3.5-20.5-14-20.5-14h-1-1l19 15.5 19 15.5 18 13.5 18 13.5 12 8 12 8 11 9 11 9 11.5 7.5 11.5 7.5 6.5 9.5 6.5 9.5-6.5 13.5-6.5 13.5-4 15.5-4 15.5-3.5 16.5-3.5 16.5-4 16-4 16-3 16.5-3 16.5" style="fill:#79512d;stroke:#79512d" />
        <path d="m245 959v1h1 1v-.5-.5l4-15 4-15 3.5-16.5 3.5-16.5 3-16 3-16 4-15 4-15 6-13 6-13 4-14 4-14 1.5-15.5 1.5-15.5 5-10 5-10 3-10 3-10 5-31.5 5-31.5-1 .5-1 .5-2.5.5-2.5.5-2 12.5-2 12.5-8 25.5-8 25.5-.5-9.5-.5-9.5 4-20.5 4-20.5-.5-.5-.5-.5-.5-2-.5-2v-1-1l-.5.5-.5.5h-1.5-1.5l-.5-1.5-.5-1.5-.5-.5-.5-.5-.5-1-.5-1h-1.5-1.5l-9 10.5-9 10.5-5 15-5 15-10.5-5.5-10.5-5.5-11.5-6.5-11.5-6.5-9.5-5.5-9.5-5.5-10.5-6.5-10.5-6.5 3.5-3.5 3.5-3.5 14 2 14 2 8-5 8-5 13.5-3 13.5-3 11.5-5.5 11.5-5.5 5.5-9.5 5.5-9.5 11.5 3.5 11.5 3.5.5-.5.5-.5 1 1.5 1 1.5 6.5-21 6.5-21-1 .5-1 .5-1-.5-1-.5v1.5 1.5l-.5 1.5-.5 1.5-1 1.5-1 1.5-1.5.5-1.5.5-.5-1.5-.5-1.5-1-1.5-1-1.5-.5.5-.5.5.5 1 .5 1h-1-1v1 1h-1-1v-1.5-1.5l-.5.5-.5.5-.5.5-.5.5-1 .5-1 .5-.5 1.5-.5 1.5-1 1-1 1-1 1-1 1-1.5 1-1.5 1-1 1-1 1-2 .5-2 .5h-2-2l-1 .5-1 .5-11-6-11-6 1.5-10.5 1.5-10.5-13 2-13 2-9-2.5-9-2.5 12-2.5 12-2.5 12-7 12-7-4.5-9.5-4.5-9.5 2.5-6.5 2.5-6.5 11-2 11-2-4.5-19-4.5-19v-.5-.5l-5.5-25-5.5-25-1-.5-1-.5-.5-1.5-.5-1.5-1-.5-1-.5-1.5-3-1.5-3-4-9-4-9-12-5-12-5-.5 1.5-.5 1.5-.5 1.5-.5 1.5.5.5.5.5-1 .5-1 .5 6.5 12.5 6.5 12.5.5 1 .5 1 1.5.5 1.5.5-.5 1-.5 1h-1-1l.5 2 .5 2-.5 1.5-.5 1.5.5 2 .5 2 .5-1.5.5-1.5 1-.5 1-.5-.5.5-.5.5v1 1 1 1l-.5.5-.5.5v1 1 1.5 1.5l-.5-.5-.5-.5-.5.5-.5.5-.5-.5-.5-.5-1 .5-1 .5.5.5.5.5h-1-1l-.5.5-.5.5v1.5 1.5l.5.5.5.5v1 1h-1-1l-.5-.5-.5-.5-13 8.5-13 8.5-.5-1-.5-1-1.5-.5-1.5-.5-1 1-1 1h-1-1-1-1l-1 .5-1 .5.5.5.5.5h-1-1l-1.5-.5-1.5-.5v-.5-.5l-1-.5-1-.5-1.5.5-1.5.5h-1-1v-1.5-1.5-.5-.5l-2-.5-2-.5h-1.5-1.5l-1.5-.5-1.5-.5-.5.5-.5.5-1-.5-1-.5-1-1-1-1v-1.5-1.5l-1-.5-1-.5h-1-1l-1-.5-1-.5-.5-.5-.5-.5-.5-1-.5-1-1-1-1-1v-1-1l-1-.5-1-.5v-1-1-1-1-.5-.5l1-1 1-1 .5.5.5.5 1 .5 1 .5 1-1 1-1 .5-.5.5-.5.5-1 .5-1v-1.5-1.5l1.5-.5 1.5-.5 1-1.5 1-1.5 2-.5 2-.5 1-1 1-1 1.5-1.5 1.5-1.5 1-6 1-6-3.5-.5-3.5-.5 25.5-7 25.5-7-14-.5-14-.5-24 8-24 8h-2-2l-1 1-1 1-1.5-1-1.5-1-.5 1.5-.5 1.5-1 1.5-1 1.5-1 1-1 1-1.5-.5-1.5-.5-3-15.5-3-15.5-6.5-13.5-6.5-13.5-1 14-1 14 1.5 9.5 1.5 9.5 1.5 18.5 1.5 18.5-9.5 25-9.5 25-.5 15-.5 15-1 10-1 10-5 1-5 1 2 7 2 7 5.5 13.5 5.5 13.5 4.5 17 4.5 17 7 13.5 7 13.5-1 16.5-1 16.5 1 1 1 1 1 1 1 1 .5 1 .5 1 20.5 14 20.5 14 13 3.5 13 3.5 12 8 12 8 9.5 8.5 9.5 8.5 8 12 8 12 11.5 4.5 11.5 4.5 4 12 4 12-6 14-6 14-5 15-5 15-3.5 16.5-3.5 16.5-3.5 16.5-3.5 16.5-4 16.5-4 16.5" style="fill:#aa773d;stroke:#aa773d" />
        <path d="m247 959v1h21.5 21.5 20 20 20 20 1.5 1.5v-.5-.5l1.5-16.5 1.5-16.5 1.5-15.5 1.5-15.5v-11-11l-3.5-10.5-3.5-10.5 6-12 6-12-8-8-8-8-12 4-12 4-2.5-8.5-2.5-8.5-4-8-4-8 9-9 9-9 6-11 6-11 2.5-11.5 2.5-11.5 5-13 5-13 10.5-5.5 10.5-5.5-.5 11.5-.5 11.5 7.5 1.5 7.5 1.5 11-6 11-6 6.5-9.5 6.5-9.5 9-10.5 9-10.5v-5.5-5.5l-8.5.5-8.5.5-10.5 8-10.5 8-5-2-5-2 8.5-8.5 8.5-8.5 6.5-6.5 6.5-6.5v-10-10l-11 3-11 3v1.5 1.5l-.5.5-.5.5-.5.5-.5.5-.5-.5-.5-.5-1-.5-1-.5-1.5.5-1.5.5-3.5 5.5-3.5 5.5-10.5 7.5-10.5 7.5-18 4.5-18 4.5 5.5-9.5 5.5-9.5 3-8 3-8 5-10 5-10 13-3 13-3 10.5-9.5 10.5-9.5 6-22 6-22h-1.5-1.5l-.5.5-.5.5-.5-.5-.5-.5h-1-1l-1.5.5-1.5.5-17 15.5-17 15.5-12 14-12 14-9 11-9 11-13.5 15-13.5 15-5 31.5-5 31.5-3 10-3 10-5 10-5 10-1.5 15.5-1.5 15.5-4 14-4 14-6 13-6 13-4 15-4 15-3 16-3 16-3.5 16.5-3.5 16.5-4 15-4 15" style="fill:#dc9a46;stroke:#dc9a46" />
        <path d="m373 959v1h1.5 1.5v-.5-.5l2.5-16.5 2.5-16.5 2-18 2-18 2.5-17.5 2.5-17.5 4-15 4-15 10-10 10-10 8.5-11.5 8.5-11.5 6.5-12.5 6.5-12.5 5.5-11 5.5-11 6-14 6-14 8-12 8-12 11-15 11-15 .5-.5.5-.5v-.5-.5l1-1.5 1-1.5v-1-1-1-1-1-1l.5-1 .5-1v-1-1h1 1l1.5-.5 1.5-.5-.5-1.5-.5-1.5v-2-2-.5-.5l-.5-1-.5-1 1-2 1-2-.5-1-.5-1v-1-1l-.5-1.5-.5-1.5 1.5-12.5 1.5-12.5-8-1-8-1 7.5-7.5 7.5-7.5 4.5-14 4.5-14-1.5-1-1.5-1-1-.5-1-.5-13.5 6-13.5 6-11 9-11 9-12.5 7.5-12.5 7.5-13 12.5-13 12.5.5 1.5.5 1.5.5 1.5.5 1.5 11-3 11-3v10 10l-6.5 6.5-6.5 6.5-8.5 8.5-8.5 8.5 5 2 5 2 10.5-8 10.5-8 8.5-.5 8.5-.5v5.5 5.5l-9 10.5-9 10.5-6.5 9.5-6.5 9.5-11 6-11 6-7.5-1.5-7.5-1.5.5-11.5.5-11.5-10.5 5.5-10.5 5.5-5 13-5 13-2.5 11.5-2.5 11.5-6 11-6 11-9 9-9 9 4 8 4 8 2.5 8.5 2.5 8.5 12-4 12-4 8 8 8 8-6 12-6 12 3.5 10.5 3.5 10.5v11 11l-1.5 15.5-1.5 15.5-1.5 16.5-1.5 16.5" style="fill:#aa773d;stroke:#aa773d" />
        <path d="m376 959v1h1.5 1.5v-.5-.5l2-18.5 2-18.5 2.5-17.5 2.5-17.5 3-17 3-17 5.5-14.5 5.5-14.5 10.5-9.5 10.5-9.5 7-13 7-13 7.5-12.5 7.5-12.5 6.5-13.5 6.5-13.5 6-14 6-14 17.5-18 17.5-18h.5.5l-.5-1-.5-1-.5-1-.5-1-.5-.5-.5-.5-.5-1-.5-1-1.5-1.5-1.5-1.5-11 15-11 15-8 12-8 12-6 14-6 14-5.5 11-5.5 11-6.5 12.5-6.5 12.5-8.5 11.5-8.5 11.5-10 10-10 10-4 15-4 15-2.5 17.5-2.5 17.5-2 18-2 18-2.5 16.5-2.5 16.5" style="fill:#79512d;stroke:#79512d" />
        <path d="m379 959v1h21.5 21.5 20 20 20 20 20 20 20 20 20 20 20 20 20 20 5 5v-15-15-20-20-20-20-20-20-19.5-19.5-20-20-20-20-4.5-4.5l-.5-.5-.5-.5-6-15-6-15-8.5-10.5-8.5-10.5.5-7 .5-7-.5-2-.5-2-1.5-1-1.5-1-19-.5-19-.5-4-8-4-8-1-2.5-1-2.5 3 13.5 3 13.5 4 12 4 12 1.5-.5 1.5-.5.5-.5.5-.5.5-1 .5-1 1 1 1 1h1 1 1.5 1.5l.5 1.5.5 1.5h1 1l.5 1 .5 1-1 1-1 1h-1-1-1.5-1.5-.5-.5-1-1l-1-.5-1-.5h-1-1l-1-1-1-1-.5 2-.5 2v1 1l.5.5.5.5v1 1l.5 1 .5 1 .5 1 .5 1 7 .5 7 .5 3.5 12.5 3.5 12.5-11 10-11 10-6.5-13.5-6.5-13.5-5-15-5-15-7-3-7-3-5.5-13.5-5.5-13.5 7.5 1.5 7.5 1.5 9.5 11.5 9.5 11.5-6-15-6-15-5.5-14-5.5-14 2.5-10.5 2.5-10.5-13-13-13-13 1 14.5 1 14.5-1-1-1-1-1-1-1-1-.5-2-.5-2-1-1-1-1-1-1.5-1-1.5v-2-2l-1-1.5-1-1.5v-2-2l-.5-1.5-.5-1.5-1-1.5-1-1.5-20-4.5-20-4.5 10 11 10 11-12-11-12-11-23.5-14.5-23.5-14.5-9.5-8.5-9.5-8.5-11.5-8.5-11.5-8.5-9-11-9-11-7.5 1.5-7.5 1.5-9.5 1.5-9.5 1.5-13 2-13 2-9.5.5-9.5.5-8.5 1.5-8.5 1.5-6 9-6 9 7 2 7 2-6.5 2.5-6.5 2.5 7.5 3.5 7.5 3.5 15-4 15-4 9 2 9 2-2 12-2 12 6 3 6 3 6.5 2.5 6.5 2.5h-8-8v10 10l5 5 5 5-2-4-2-4-1-4.5-1-4.5 14.5-1.5 14.5-1.5 8-1 8-1 9 15 9 15-7.5 12.5-7.5 12.5-10.5 15.5-10.5 15.5 1 .5 1 .5 1.5-1.5 1.5-1.5 1.5-.5 1.5-.5v-1-1h1 1l.5-.5.5-.5.5-1 .5-1 .5-.5.5-.5.5-.5.5-.5.5-.5.5-.5v-1-1l.5-.5.5-.5 1-.5 1-.5.5-.5.5-.5.5-.5.5-.5.5-.5.5-.5h.5.5l.5-1 .5-1v-.5-.5l17.5-12 17.5-12 1-.5 1-.5 2-.5 2-.5 1-2 1-2v-.5-.5l.5-1 .5-1 .5-1 .5-1 1-1 1-1 1.5-1 1.5-1 1-1 1-1 1-1.5 1-1.5 1.5-.5 1.5-.5h2.5 2.5l2.5-1 2.5-1 14.5 10.5 14.5 10.5-9 25.5-9 25.5 11 13.5 11 13.5h1.5 1.5l.5-.5.5-.5.5.5.5.5 1-.5 1-.5h1 1 1 1 1 1 2.5 2.5l12-6 12-6 6.5 13.5 6.5 13.5 9 27.5 9 27.5-2-.5-2-.5-1.5-1-1.5-1-1.5-1-1.5-1-1-.5-1-.5-1.5-1-1.5-1-1-.5-1-.5-2-.5-2-.5-1.5-.5-1.5-.5h-2-2-1-1l-1-.5-1-.5-.5-1.5-.5-1.5h-1-1l.5 1 .5 1v1 1 1 1l-1 .5-1 .5-1.5.5-1.5.5-1.5-.5-1.5-.5-5-10-5-10-11-7-11-7-12-2-12-2-17.5 18-17.5 18-6 14-6 14-6.5 13.5-6.5 13.5-7.5 12.5-7.5 12.5-7 13-7 13-10.5 9.5-10.5 9.5-5.5 14.5-5.5 14.5-3 17-3 17-2.5 17.5-2.5 17.5-2 18.5-2 18.5" style="fill:#363327;stroke:#363327" />
        <path d="m331 957l18-16-4-11-4-11-4 4-4 4-8.5 4.5-8.5 4.5-1 10-1 10 8.5.5 8.5.5" style="fill:#ffcd69;stroke:#ffcd69" />
        <g style="fill:#4d5144;stroke:#4d5144">
            <path d="m505 883l-14-22-9.5-10.5-9.5-10.5-1 1-1 1 8 11 8 11 9.5 9.5 9.5 9.5" />
            <path d="m1 831l7-11 4.5-2.5 4.5-2.5 3.5-7 3.5-7 6-9 6-9 7.5-1.5 7.5-1.5 4.5-6.5 4.5-6.5 9-2 9-2 2-9 2-9 8.5-6.5 8.5-6.5 6.5-2.5 6.5-2.5 8.5-9.5 8.5-9.5 9-4 9-4 10.5 4 10.5 4-19-15.5-19-15.5-9 7-9 7-11.5 8-11.5 8-9.5 9.5-9.5 9.5-15.5 11-15.5 11-19.5 12-19.5 12v20 20 9.5 9.5h.5.5" />
            <path d="m458 830l-16-20 3 5 3 5 5 5 5 5" />
        </g>
        <path d="m417 788l20-20-10 3-10 3-4 6-4 6 4 1 4 1" style="fill:#dc9a46;stroke:#dc9a46" />
        <path d="m0 771v1l19.5-12 19.5-12-19.5 10-19.5 10v1.5 1.5" style="fill:#777b68;stroke:#777b68" />
        <path d="m0 767v1l19.5-10 19.5-10v-.5-.5l11-9 11-9 11-9 11-9 11.5-8.5 11.5-8.5 10.5-11.5 10.5-11.5 1-16.5 1-16.5-7-13.5-7-13.5-1 .5-1 .5-.5 1.5-.5 1.5v2 2l-1 1.5-1 1.5-.5 1.5-.5 1.5v2 2l-.5 2-.5 2-1 1-1 1-1 1.5-1 1.5-.5 2-.5 2 4-9 4-9 5.5 5 5.5 5-1 17.5-1 17.5-8.5 12-8.5 12-11 9-11 9-11.5 8.5-11.5 8.5-10.5 9.5-10.5 9.5-18.5 9.5-18.5 9.5v.5.5" style="fill:#bdb189;stroke:#bdb189" />
        <path d="m0 765v1l18.5-9.5 18.5-9.5 10.5-9.5 10.5-9.5 11.5-8.5 11.5-8.5 11-9 11-9 8.5-12 8.5-12-4-11-4-11-20.5 4-20.5 4-1.5.5-1.5.5h-1-1l-.5-.5-.5-.5h-1-1l-.5-1-.5-1-1.5-.5-1.5-.5-.5.5-.5.5h-1-1l-.5.5-.5.5.5 1 .5 1 .5.5.5.5.5.5.5.5v1 1l1 .5 1 .5.5.5.5.5.5.5.5.5.5.5.5.5h-1-1l-9-12-9-12 2-11 2-11-1-1-1-1-1-1-1-1-1.5-1-1.5-1-1.5.5-1.5.5-1-1.5-1-1.5-.5-1.5-.5-1.5-1-1.5-1-1.5-1-1-1-1-1-1-1-1-1.5-1-1.5-1-.5-1.5-.5-1.5 7.5 5 7.5 5 1 .5 1 .5.5.5.5.5 1 1 1 1 1 .5 1 .5 1.5.5 1.5.5 1 1 1 1 1 1 1 1 2 .5 2 .5.5-1.5.5-1.5v-1.5-1.5l1.5-.5 1.5-.5 1-1.5 1-1.5.5-1.5.5-1.5-11-19.5-11-19.5-2 .5-2 .5v1 1 1 1 1 1 1.5 1.5 1 1 1 1 1 1 1.5 1.5l-.5.5-.5.5v1 1l-.5.5-.5.5h-1-1l-2.5-13-2.5-13-7 6.5-7 6.5-.5-2-.5-2v-1-1l-.5-.5-.5-.5v-1-1-1.5-1.5-1.5-1.5l-1.5-.5-1.5-.5-.5-1-.5-1 1-1.5 1-1.5 1-1 1-1v-2.5-2.5l-1-1-1-1 .5-2 .5-2v-2-2-1.5-1.5l-2.5.5-2.5.5h-2-2l-1.5.5-1.5.5v21 21 20 20 19.5 19.5 20 20 20 20 14.5 14.5" style="fill:#fdffef;stroke:#fdffef" />
        <path d="m39 747v1l15.5-11 15.5-11 9.5-9.5 9.5-9.5 11.5-8 11.5-8 9-7 9-7h1 1l-.5-1-.5-1-1-1-1-1-1-1-1-1-10.5 11.5-10.5 11.5-11.5 8.5-11.5 8.5-11 9-11 9-11 9-11 9" style="fill:#777b68;stroke:#777b68" />
        <path d="m267 742l18-12-1.5-3.5-1.5-3.5-7-7-7-7-6 5-6 5 2.5 8.5 2.5 8.5 3 3 3 3" style="fill:#79512d;stroke:#79512d" />
        <path d="m350 732l13-23 3-12 3-12-8.5-2.5-8.5-2.5-2.5 5.5-2.5 5.5-6.5 1.5-6.5 1.5 4.5 4.5 4.5 4.5 1 8 1 8 2.5 6.5 2.5 6.5" style="fill:#aa773d;stroke:#aa773d" />
        <path d="m298 724l16-51 2-12.5 2-12.5-1 .5-1 .5-1 .5-1 .5 1.5.5 1.5.5v1 1 1 1l-.5.5-.5.5-1 .5-1 .5-.5.5-.5.5.5.5.5.5-.5.5-.5.5-.5 1-.5 1h-1-1-1-1-1.5-1.5v1 1l-4 20.5-4 20.5.5 9.5.5 9.5" style="fill:#79512d;stroke:#79512d" />
        <path d="m455 716l12-20 3.5-10.5 3.5-10.5-11 9-11 9-7 10-7 10 8.5 1.5 8.5 1.5" style="fill:#dc9a46;stroke:#dc9a46" />
        <path d="m613 709l-18-55-6.5-13.5-6.5-13.5-12 6-12 6 13.5-5 13.5-5 5.5 14.5 5.5 14.5 6.5 24 6.5 24-1.5-.5-1.5-.5-1-.5-1-.5h-.5-.5l1.5 1 1.5 1 1.5 1 1.5 1 2 .5 2 .5" style="fill:#4d5144;stroke:#4d5144" />
        <path d="m609 706l-13-48-5.5-14.5-5.5-14.5-13.5 5-13.5 5 2.5 19 2.5 19-1-.5-1-.5h-1.5-1.5l4.5-8.5 4.5-8.5 11 18.5 11 18.5-11-24.5-11-24.5v-2-2l1.5-.5 1.5-.5h1.5 1.5l1.5-.5 1.5-.5 1.5-.5 1.5-.5 1.5-1 1.5-1 .5-1 .5-1 5.5 12.5 5.5 12.5 5 21.5 5 21.5 1 .5 1 .5 1.5.5 1.5.5" style="fill:#777b68;stroke:#777b68" />
        <path d="m265 703l10-30 9-10.5 9-10.5 11.5-19.5 11.5-19.5-11.5-3.5-11.5-3.5-5.5 9.5-5.5 9.5-11.5 5.5-11.5 5.5-13.5 3-13.5 3-8 5-8 5-14-2-14-2-3.5 3.5-3.5 3.5 10.5 6.5 10.5 6.5 9.5 5.5 9.5 5.5 11.5 6.5 11.5 6.5 10.5 5.5 10.5 5.5" style="fill:#79512d;stroke:#79512d" />
        <path d="m601 703l2 1h.5.5l-5-21.5-5-21.5-5.5-12.5-5.5-12.5 5.5 14.5 5.5 14.5 4.5 17.5 4.5 17.5-2-1-2-1v-.5-.5l-1.5-.5-1.5-.5-1.5-1-1.5-1h-1.5-1.5l-11.5-23.5-11.5-23.5 11 24.5 11 24.5 2 .5 2 .5.5.5.5.5 1 1 1 1 1 .5 1 .5 1.5 1 1.5 1" style="fill:#bdb189;stroke:#bdb189" />
        <path d="m571 701l3 1 1.5-.5 1.5-.5 1-.5 1-.5v-1-1-1-1l-.5-1-.5-1h1 1l.5 1.5.5 1.5 1 .5 1 .5h1 1 2 2l1.5.5 1.5.5 2 .5 2 .5-1-1-1-1-.5-.5-.5-.5-2-.5-2-.5-11-18.5-11-18.5-4.5 8.5-4.5 8.5-1-.5-1-.5-.5-1-.5-1h-1-1l-.5-.5-.5-.5-.5-.5-.5-.5-.5-.5-.5-.5-1-.5-1-.5-.5-.5-.5-.5-.5-.5-.5-.5h-1-1l-1-.5-1-.5-.5-.5-.5-.5h-1-1-1-1-1-1l-1 .5-1 .5-1.5.5-1.5.5h-1.5-1.5-1-1l-1-.5-1-.5-1-.5-1-.5-2.5-1-2.5-1h-.5-.5l12 2 12 2 11 7 11 7 5 10 5 10" style="fill:#4d5144;stroke:#4d5144" />
        <path d="m603 700l-9-35-5.5-14.5-5.5-14.5-.5 1-.5 1-1.5 1-1.5 1-1.5.5-1.5.5-1.5.5-1.5.5h-1.5-1.5l-1.5.5-1.5.5v2 2l11.5 23.5 11.5 23.5-7-24.5-7-24.5.5-1 .5-1h1 1l.5-.5.5-.5.5 1 .5 1v1 1l.5.5.5.5v1 1l.5 1 .5 1 .5.5.5.5v1 1 1 1l.5.5.5.5.5.5.5.5v1.5 1.5l.5.5.5.5v1 1 1 1l.5 1 .5 1v1 1l.5.5.5.5 1 1.5 1 1.5v1 1l.5.5.5.5v1 1l.5.5.5.5-.5 1-.5 1 .5.5.5.5.5.5.5.5.5 1.5.5 1.5 1 1.5 1 1.5 1 1.5 1 1.5.5 1 .5 1 1 1.5 1 1.5h-1.5-1.5l2 1 2 1" style="fill:#cdcea9;stroke:#cdcea9" />
        <path d="m646 700l22-20-3.5-12.5-3.5-12.5-7-.5-7-.5 1 15 1 15 1 1 1 1 .5.5.5.5h1 1l1-.5 1-.5.5.5.5.5v1 1h-1-1l-1 .5-1 .5-.5.5-.5.5v1 1 1 1l.5.5.5.5v1.5 1.5h-1-1-1-1l-1.5-.5-1.5-.5-6.5-15-6.5-15-.5-15.5-.5-15.5v-.5-.5l-9.5-11.5-9.5-11.5-7.5-1.5-7.5-1.5 5.5 13.5 5.5 13.5 7 3 7 3 5 15 5 15 6.5 13.5 6.5 13.5" style="fill:#4d5144;stroke:#4d5144" />
        <path d="m646 698l3 1h1 1 1 1v-1.5-1.5l-.5-.5-.5-.5v-1-1-1-1l.5-.5.5-.5 1-.5 1-.5h1 1v-1-1l-.5-.5-.5-.5-1 .5-1 .5h-1-1l-.5-.5-.5-.5-1-1-1-1-.5-.5-.5-.5-8-23-8-23 .5 15.5.5 15.5 6.5 15 6.5 15" style="fill:#777b68;stroke:#777b68" />
        <path d="m599 697v1h1.5 1.5l-1-1.5-1-1.5-2-.5-2-.5-1-.5-1-.5-1.5-.5-1.5-.5-1-1-1-1-.5-1.5-.5-1.5.5-.5.5-.5.5-1 .5-1 1.5.5 1.5.5 1 1 1 1-.5-1.5-.5-1.5-.5-.5-.5-.5-.5-.5-.5-.5.5-1 .5-1-.5-.5-.5-.5v-1-1l-.5-.5-.5-.5v-1-1l-1-1.5-1-1.5v1.5 1.5l-1.5.5-1.5.5h-1-1l.5-1.5.5-1.5-.5-1-.5-1-.5-1.5-.5-1.5-1-1.5-1-1.5-1-1-1-1v-1.5-1.5l-.5-1.5-.5-1.5-.5-1.5-.5-1.5v-1.5-1.5-1-1l-.5-1.5-.5-1.5 7 24.5 7 24.5h1.5 1.5l1.5 1 1.5 1 1.5.5 1.5.5" style="fill:#fad4aa;stroke:#fad4aa" />
        <path d="m596 694l4 1-.5-1-.5-1-1-1.5-1-1.5-1-1.5-1-1.5-1-1-1-1-1.5-.5-1.5-.5-.5 1-.5 1-.5.5-.5.5.5 1.5.5 1.5 1 1 1 1 1.5.5 1.5.5 1 .5 1 .5" style="fill:#fdffef;stroke:#fdffef" />
        <path d="m648 683l1 1-1-15-1-15-.5-1-.5-1-.5-1-.5-1v-1-1l-.5-.5-.5-.5v-1-1l.5-2 .5-2v-1-1l-4-12-4-12-3-13.5-3-13.5 7-8.5 7-8.5 17 19.5 17 19.5 1.5 1 1.5 1 .5 2 .5 2 8 12 8 12 6.5 12.5 6.5 12.5v-2.5-2.5-2-2-2.5-2.5-2-2-2.5-2.5-2-2-2-2-2.5-2.5-2-2-2.5-2.5-1-1l-1-.5-1-.5-5-11-5-11-5-8-5-8-6-7-6-7 3-6 3-6-10.5-3.5-10.5-3.5-7-8-7-8 8.5-4.5 8.5-4.5 1.5-5.5 1.5-5.5-8-1-8-1-11.5-1.5-11.5-1.5 7.5-8.5 7.5-8.5.5-9.5.5-9.5 4-10 4-10-7-6.5-7-6.5-10.5 3.5-10.5 3.5-12.5-4.5-12.5-4.5 12.5 6.5 12.5 6.5-6.5 8-6.5 8-1 .5-1 .5-1.5.5-1.5.5-.5 2-.5 2h-2-2l-2-.5-2-.5-1.5.5-1.5.5-2 .5-2 .5-17.5 3.5-17.5 3.5-.5 1-.5 1-1 1-1 1-2 .5-2 .5-1.5-.5-1.5-.5-1.5 1-1.5 1-1.5-.5-1.5-.5h-1-1l-1-.5-1-.5-.5-.5-.5-.5-.5-.5-.5-.5-.5-1-.5-1h-1.5-1.5l-.5-1-.5-1v-2.5-2.5l-.5-1.5-.5-1.5-1-1-1-1v-1.5-1.5-1-1l1.5 1 1.5 1h2 2l.5-1 .5-1-14.5-3.5-14.5-3.5-14 5-14 5 7 14.5 7 14.5 23.5 14.5 23.5 14.5h2 2l20 4.5 20 4.5 1.5-.5 1.5-.5 1.5.5 1.5.5h1.5 1.5l1.5.5 1.5.5 13 13 13 13-2.5 10.5-2.5 10.5 5.5 14 5.5 14 6 15 6 15v.5.5l8 23 8 23" style="fill:#79512d;stroke:#79512d" />
        <path d="m711 681l1 1v-3-3-2.5-2.5-2-2-1-1l-6.5-12.5-6.5-12.5-8-12-8-12-.5 7-.5 7 8.5 10.5 8.5 10.5 6 15 6 15" style="fill:#4d5144;stroke:#4d5144" />
        <path d="m563 677l-5-38h-2.5-2.5-1-1-1-1-1-1l-1 .5-1 .5-.5-.5-.5-.5-.5.5-.5.5h-1.5-1.5l-2.5.5-2.5.5-1 1-1 1v2.5 2.5 2 2l-2 .5-2 .5h-2-2l-2-.5-2-.5-2-.5-2-.5-.5-1-.5-1 .5-1 .5-1v-1.5-1.5l-1 .5-1 .5-.5 2-.5 2-1 1.5-1 1.5 1.5.5 1.5.5-.5.5-.5.5.5 1.5.5 1.5 1 1.5 1 1.5 1 1 1 1 1.5 1 1.5 1 1 1 1 1 3 .5 3 .5 1.5-.5 1.5-.5 1-.5 1-.5h1 1 1 1 1 1l.5.5.5.5 1 .5 1 .5h1 1l.5.5.5.5.5.5.5.5 1 .5 1 .5.5.5.5.5.5.5.5.5.5.5.5.5h1 1l.5 1 .5 1 1 .5 1 .5h1.5 1.5l1 .5 1 .5" style="fill:#bdb189;stroke:#bdb189" />
        <path d="m562 675l-3-31-2-1-2-1 .5 2 .5 2 .5 1.5.5 1.5.5 2 .5 2 .5 1.5.5 1.5.5 2 .5 2 .5 1.5.5 1.5.5 2 .5 2v2 2l-1.5-.5-1.5-.5h-1.5-1.5l-.5-.5-.5-.5-1-1.5-1-1.5-1-.5-1-.5-1-1.5-1-1.5-1-1.5-1-1.5-1.5-.5-1.5-.5-.5-2-.5-2v-2-2l-.5-2-.5-2 .5-1.5.5-1.5 2.5-.5 2.5-.5-15.5 6-15.5 6 12.5 4.5 12.5 4.5 10 6 10 6" style="fill:#cdcea9;stroke:#cdcea9" />
        <path d="m584 675h2l1.5-.5 1.5-.5v-1.5-1.5l-.5-.5-.5-.5v-1-1l-.5-1-.5-1v-1-1-1-1l-.5-.5-.5-.5v-1.5-1.5l-.5-.5-.5-.5-.5-.5-.5-.5v-1-1-1-1l-.5-.5-.5-.5-.5-1-.5-1v-1-1l-.5-.5-.5-.5v-1-1l-.5-1-.5-1-.5.5-.5.5h-1-1l-.5 1-.5 1 .5 1.5.5 1.5v1 1 1.5 1.5l.5 1.5.5 1.5.5 1.5.5 1.5v1.5 1.5l1 1 1 1 1 1.5 1 1.5.5 1.5.5 1.5.5 1 .5 1-.5 1.5-.5 1.5" style="fill:#fdffef;stroke:#fdffef" />
        <path d="m336 673l16-8-10.5 1.5-10.5 1.5 2.5 2.5 2.5 2.5" style="fill:#aa773d;stroke:#aa773d" />
        <path d="m559 670l3 1v-2-2l-.5-2-.5-2-.5-1.5-.5-1.5-.5-2-.5-2-.5-1.5-.5-1.5-.5-2-.5-2-.5-1.5-.5-1.5-.5-2-.5-2h-2-2-1.5-1.5l-2.5.5-2.5.5.5 1.5.5 1.5 1 1.5 1 1.5 1 1 1 1 .5 2 .5 2 .5 1.5.5 1.5.5 1.5.5 1.5.5.5.5.5.5 2 .5 2 1 1.5 1 1.5.5.5.5.5h1.5 1.5" style="fill:#fdffef;stroke:#fdffef" />
        <path d="m120 669l2-35-5.5-5-5.5-5-4 9-4 9-1.5.5-1.5.5h-1-1l-.5.5-.5.5h-1.5-1.5v1.5 1.5l-1 1-1 1-1.5 1-1.5 1-1-1-1-1-.5 1-.5 1-1 1-1 1-1.5-1-1.5-1-1.5.5-1.5.5h-1-1l-2-.5-2-.5 1.5-.5 1.5-.5h-2.5-2.5-2.5-2.5l-.5 1.5-.5 1.5 2 .5 2 .5 1.5.5 1.5.5 20.5-4 20.5-4 4 11 4 11" style="fill:#cdcea9;stroke:#cdcea9" />
        <path d="m525 667h2 1.5 1.5l-3-.5-3-.5-1-1-1-1-1.5-1-1.5-1-1-1-1-1-1-1.5-1-1.5-.5-1.5-.5-1.5.5-.5.5-.5-1.5-.5-1.5-.5h-1-1l-.5.5-.5.5 1.5 1.5 1.5 1.5.5 1 .5 1 .5.5.5.5.5 1 .5 1 .5 1 .5 1 2.5 1 2.5 1 1 .5 1 .5 1 .5 1 .5" style="fill:#777b68;stroke:#777b68" />
        <g style="fill:#fad4aa;stroke:#fad4aa">
            <path d="m551 665l2 1-.5-2-.5-2-.5-.5-.5-.5-.5-1.5-.5-1.5-.5-1.5-.5-1.5-.5-2-.5-2-1-1-1-1-1-1.5-1-1.5-.5-1.5-.5-1.5-.5 1.5-.5 1.5.5 2 .5 2v2 2l.5 2 .5 2 1.5.5 1.5.5 1 1.5 1 1.5 1 1.5 1 1.5" />
            <path d="m61 664h2l-.5-.5-.5-.5-.5-.5-.5-.5-.5-.5-.5-.5-1-.5-1-.5v-1-1l-.5-.5-.5-.5-.5-.5-.5-.5-.5-1-.5-1 .5-.5.5-.5h1 1l.5-.5.5-.5 1.5.5 1.5.5.5 1 .5 1h1 1l.5.5.5.5h1 1l1.5-.5 1.5-.5-1.5-.5-1.5-.5-2-.5-2-.5.5-1.5.5-1.5h2.5 2.5 2.5 2.5v-.5-.5l-2-.5-2-.5-1-1-1-1h2.5 2.5l1-1 1-1 1.5-1 1.5-1 1.5-.5 1.5-.5h1.5 1.5l-1-.5-1-.5-.5-1.5-.5-1.5-1 1-1 1-1.5 1-1.5 1-1.5.5-1.5.5-2 .5-2 .5-1.5.5-1.5.5h-1.5-1.5l-8.5-13-8.5-13-2 11-2 11 9 12 9 12" />
        </g>
        <path d="m304 663l1 1v-1-1-.5-.5-1.5-1.5-1.5-1.5l.5-1.5.5-1.5 2-.5 2-.5 2-.5 2-.5 1-.5 1-.5 1-.5 1-.5 2.5-.5 2.5-.5 1-.5 1-.5 13.5-15 13.5-15 9-11 9-11-1.5.5-1.5.5 13.5-14.5 13.5-14.5v-.5-.5-.5-.5l-2 .5-2 .5-9 1-9 1-2.5-10-2.5-10-.5-13-.5-13-3-13-3-13-9-3-9-3 2 16 2 16 2 15 2 15 2.5 15.5 2.5 15.5 1 8.5 1 8.5-9-26-9-26-1 1-1 1-.5 2-.5 2h-2-2v2.5 2.5l-.5 1.5-.5 1.5-.5 2-.5 2-.5 1.5-.5 1.5-.5 2.5-.5 2.5 1 .5 1 .5 1-.5 1-.5 1-1 1-1 .5-1.5.5-1.5.5-1.5.5-1.5.5-2 .5-2v-2-2l1-1.5 1-1.5h1 1l7 25 7 25-9 12-9 12-17.5 11-17.5 11 9-15 9-15-.5-.5-.5-.5v-2-2l-1-1.5-1-1.5-.5.5-.5.5-11.5 19.5-11.5 19.5h1.5 1.5l.5 1 .5 1 .5.5.5.5.5 1.5.5 1.5h1.5 1.5l.5-.5.5-.5v1 1l.5 2 .5 2" style="fill:#777b68;stroke:#777b68" />
        <path d="m305 661v1h1.5 1.5 1 1 1 1l.5-1 .5-1 .5-.5.5-.5-.5-.5-.5-.5.5-.5.5-.5 1-.5 1-.5.5-.5.5-.5v-1-1-1-1l-1.5-.5-1.5-.5-2 .5-2 .5-2 .5-2 .5-.5 1.5-.5 1.5v1.5 1.5 1.5 1.5" style="fill:#4d5144;stroke:#4d5144" />
        <path d="m352 658l36-9 10.5-7.5 10.5-7.5 3.5-5.5 3.5-5.5-1 1-1 1-1 .5-1 .5-1 1-1 1-.5.5-.5.5-1 .5-1 .5-.5 1.5-.5 1.5-1.5-.5-1.5-.5.5-.5.5-.5h-1.5-1.5l-1.5-.5-1.5-.5-1-.5-1-.5-.5-1-.5-1 1-1.5 1-1.5.5-1.5.5-1.5 1-1.5 1-1.5 1-1 1-1 1-1 1-1 1-.5 1-.5.5-.5.5-.5v-.5-.5l9-10.5 9-10.5 7.5-11.5 7.5-11.5 2.5-16.5 2.5-16.5-1-.5-1-.5-1.5-.5-1.5-.5-1 1-1 1-6 22-6 22-10.5 9.5-10.5 9.5-13 3-13 3-5 10-5 10-3 8-3 8-5.5 9.5-5.5 9.5" style="fill:#aa773d;stroke:#aa773d" />
        <path d="m76 652h2l1.5-.5 1.5-.5 1.5 1 1.5 1 1-1 1-1 .5-1 .5-1 1 1 1 1 1.5-1 1.5-1 1-1 1-1v-1.5-1.5-.5-.5l.5-10.5.5-10.5-6.5-12-6.5-12-9.5-6.5-9.5-6.5-7.5-12-7.5-12-4-10-4-10-5-5-5-5-5.5-5.5-5.5-5.5.5-14.5.5-14.5-3.5-12.5-3.5-12.5-2.5-15-2.5-15-1 .5-1 .5.5 1.5.5 1.5 1 1.5 1 1.5.5 1.5.5 1.5h-1-1l-1-1-1-1-.5-.5-.5-.5v-1-1l-.5-.5-.5-.5v-1.5-1.5l-.5-.5-.5-.5v-1-1-1-1-1-1l.5-.5.5-.5v-1.5-1.5h-2-2v3.5 3.5 2 2l1 1.5 1 1.5.5 1.5.5 1.5.5 1.5.5 1.5 1 1.5 1 1.5.5 1.5.5 1.5v1.5 1.5l-.5 1.5-.5 1.5 3 15 3 15-1 18.5-1 18.5-.5.5-.5.5 4 10 4 10 7-1 7-1 7.5 11.5 7.5 11.5 7.5 11.5 7.5 11.5 6 14 6 14 8 12.5 8 12.5-.5 1-.5 1h-1-1l-.5.5-.5.5-.5.5-.5.5-.5.5-.5.5h-1.5-1.5l-.5.5-.5.5-.5.5-.5.5h-1.5-1.5l-1.5.5-1.5.5 2 .5 2 .5" style="fill:#bdb189;stroke:#bdb189" />
        <path d="m521 652l4 1h2 2l2-.5 2-.5v-2-2-2.5-2.5l1-1 1-1 2.5-.5 2.5-.5-11-13.5-11-13.5 1 1 1 1-.5.5-.5.5-.5.5-.5.5-1-.5-1-.5.5 1.5.5 1.5v1 1l.5 1 .5 1 .5-1.5.5-1.5 1-1 1-1 1 1.5 1 1.5-.5 1.5-.5 1.5-.5 2-.5 2v2 2l1 .5 1 .5h2 2l-.5 1.5-.5 1.5-2 .5-2 .5 1.5.5 1.5.5 2 .5 2 .5-.5 1.5-.5 1.5h1.5 1.5v1 1 2 2 1 1l-.5 1-.5 1h-2-2-1-1-1.5-1.5" style="fill:#4d5144;stroke:#4d5144" />
        <path d="m510 651v1h1 1l1-1.5 1-1.5.5-2 .5-2 1-.5 1-.5 2.5-.5 2.5-.5h1.5 1.5v-.5-.5h-2.5-2.5l-1-1-1-1 .5-.5.5-.5.5-.5.5-.5-1-.5-1-.5-1.5.5-1.5.5h-1-1v1 1l-.5 1-.5 1v1 1 1 1 1 1l-1 1.5-1 1.5" style="fill:#79512d;stroke:#79512d" />
        <path d="m517 651l4 1h1.5 1.5 1 1 2 2l.5-1 .5-1v-1-1-2-2-1-1h-1.5-1.5l-1.5.5-1.5.5h-1.5-1.5l-2.5.5-2.5.5v1.5 1.5l-.5 1-.5 1 .5 1 .5 1" style="fill:#363327;stroke:#363327" />
        <g style="fill:#fdffef;stroke:#fdffef">
            <path d="m302 650l35-22 9-12 9-12-7.5-13-7.5-13-10 21-10 21-9 15-9 15" />
            <path d="m75 649v1h1.5 1.5l.5-.5.5-.5.5-.5.5-.5h1.5 1.5l.5-.5.5-.5.5-.5.5-.5.5-.5.5-.5h1 1l.5-1 .5-1 .5-1.5.5-1.5-2.5.5-2.5.5h-1.5-1.5l-1.5.5-1.5.5-1.5 1-1.5 1-1 1-1 1h-2.5-2.5l1 1 1 1 2 .5 2 .5" />
        </g>
        <path d="m64 644h3l1.5-.5 1.5-.5 2-.5 2-.5 1.5-.5 1.5-.5 1.5-1 1.5-1 1-1 1-1 .5 1.5.5 1.5 1 .5 1 .5 2.5-.5 2.5-.5-.5 1.5-.5 1.5-8-12.5-8-12.5-6-14-6-14-7.5-11.5-7.5-11.5-7.5-11.5-7.5-11.5-7 1-7 1-4-10-4-10h-.5-.5l-.5 1-.5 1-1.5.5-1.5.5-1.5 1-1.5 1-.5 1-.5 1v1 1l1.5-.5 1.5-.5h2 2l2.5-.5 2.5-.5.5 1 .5 1 .5 1 .5 1v2 2 1 1l.5 1 .5 1-.5 1.5-.5 1.5.5.5.5.5-.5 1-.5 1-.5 1.5-.5 1.5v1 1l-1 .5-1 .5 1 1 1 1v1.5 1.5 1.5 1.5 1 1l.5.5.5.5v1 1l.5 2 .5 2 13.5-5 13.5-5 11 19.5 11 19.5.5 1 .5 1v1 1l.5.5.5.5.5.5.5.5.5 1 .5 1 .5 1.5.5 1.5.5.5.5.5v1.5 1.5l1 1 1 1v1 1l.5.5.5.5h1 1l.5 1 .5 1-.5.5-.5.5-.5.5-.5.5-.5.5-.5.5h-1-1l-.5-1-.5-1-1 .5-1 .5h-1-1l-.5-.5-.5-.5-.5-.5-.5-.5-1-.5-1-.5-.5-.5-.5-.5v-1-1h-1-1l-.5-.5-.5-.5-.5-.5-.5-.5-1-.5-1-.5-.5-.5-.5-.5-.5-.5-.5-.5-.5-.5-.5-.5-1-.5-1-.5-.5-.5-.5-.5-.5-.5-.5-.5-.5-.5-.5-.5-1.5-1-1.5-1-1-1-1-1-.5-.5-.5-.5-1-.5-1-.5-.5-.5-.5-.5-1-.5-1-.5-.5-1-.5-1-2-.5-2-.5-1-1-1-1-1-1.5-1-1.5h-1.5-1.5l.5 1.5.5 1.5 1.5 1 1.5 1 1 1 1 1 1 1 1 1 1 1.5 1 1.5.5 1.5.5 1.5 1 1.5 1 1.5 1.5-.5 1.5-.5 1.5 1 1.5 1 1 1 1 1 1 1 1 1 8.5 13 8.5 13" style="fill:#cdcea9;stroke:#cdcea9" />
        <path d="m657 644h2l1-1 1-1-.5-1-.5-1h-1-1l-.5-1.5-.5-1.5h-1.5-1.5-1-1l-1-1-1-1-.5 1-.5 1-.5.5-.5.5-1.5.5-1.5.5v1 1l1 1 1 1h1 1l1 .5 1 .5h1 1 .5.5 1.5 1.5" style="fill:#4d5144;stroke:#4d5144" />
        <g style="fill:#777b68;stroke:#777b68">
            <path d="m94 643v1h1.5 1.5l.5-.5.5-.5h1 1l1.5-.5 1.5-.5.5-2 .5-2 1-1.5 1-1.5 1-1 1-1 .5-2 .5-2v-2-2l.5-1.5.5-1.5 1-1.5 1-1.5v-2-2l.5-1.5.5-1.5 1-.5 1-.5-4.5-17-4.5-17-5.5-13.5-5.5-13.5-2-7-2-7 5-1 5-1 1-10 1-10 .5-15 .5-15-1.5 2-1.5 2-3.5 14-3.5 14v-1-1-1-1l-1 1-1 1h-1.5-1.5l-1.5.5-1.5.5-1-1.5-1-1.5-.5-1.5-.5-1.5-1.5-1-1.5-1-.5-1.5-.5-1.5-.5-2.5-.5-2.5-8 5.5-8 5.5-.5-12.5-.5-12.5-1-13-1-13 2.5-14.5 2.5-14.5 2.5-12.5 2.5-12.5 8.5-5.5 8.5-5.5 8.5 11.5 8.5 11.5 10 8.5 10 8.5-1.5-18.5-1.5-18.5-1.5-9.5-1.5-9.5 1-14 1-14h9 9l14 5.5 14 5.5 15 2.5 15 2.5 10.5 2.5 10.5 2.5 9 3.5 9 3.5 12 5 12 5 4 9 4 9 1.5 3 1.5 3-.5-1.5-.5-1.5.5-1 .5-1 1-1 1-1 .5-.5.5-.5.5-1 .5-1h2 2l1-1 1-1 5.5 9.5 5.5 9.5 5 8 5 8 11-9 11-9-1.5-12.5-1.5-12.5-6.5-2.5-6.5-2.5-13.5-.5-13.5-.5-9-8-9-8-12-5-12-5-9.5-3.5-9.5-3.5 10.5-.5 10.5-.5 10-2 10-2 10 8 10 8 10.5 4.5 10.5 4.5 7.5 3.5 7.5 3.5 11-2 11-2 11-2.5 11-2.5 10 2 10 2 3.5 9.5 3.5 9.5 1 10 1 10 6 8 6 8 5.5-8.5 5.5-8.5.5-15.5.5-15.5 1-12 1-12 2.5 13.5 2.5 13.5 4 14 4 14 6 13 6 13 16 12 16 12 14-5 14-5 14.5 3.5 14.5 3.5-6-12-6-12-5-14-5-14-1.5-16.5-1.5-16.5 8-7 8-7 6.5-1.5 6.5-1.5 8-5.5 8-5.5 3.5 14 3.5 14 5.5 13.5 5.5 13.5 14 16 14 16 12.5 4.5 12.5 4.5 10.5-3.5 10.5-3.5 7 6.5 7 6.5 1.5-1 1.5-1 .5-.5.5-.5 1-.5 1-.5 1.5-.5 1.5-.5 1.5-1 1.5-1 1.5-.5 1.5-.5 2 .5 2 .5 1-1 1-1 1 .5 1 .5 1 .5 1 .5.5-1.5.5-1.5-11.5-9-11.5-9-7-13-7-13-3-14-3-14-.5-18.5-.5-18.5 9-9 9-9 7 9 7 9 4.5 15.5 4.5 15.5 11.5 18 11.5 18 1 .5 1 .5.5 1 .5 1 .5.5.5.5.5.5.5.5.5.5.5.5 1 .5 1 .5.5.5.5.5.5.5.5.5 1-.5 1-.5v-2-2-2-2-2-2-2.5-2.5-2-2-2.5-2.5-.5-.5l-9-5.5-9-5.5-6-14-6-14-3.5-28-3.5-28-.5-1-.5-1 .5-1.5.5-1.5.5-2 .5-2 1-1 1-1v-2-2l-2.5-.5-2.5-.5-13.5 8-13.5 8-6.5 13.5-6.5 13.5-3 16-3 16-.5 14.5-.5 14.5 3 13.5 3 13.5-8 4-8 4-12.5 2.5-12.5 2.5-4-7-4-7 16-1 16-1 1-10 1-10-5.5-12.5-5.5-12.5-1.5-12.5-1.5-12.5-9 1-9 1-3 15-3 15-1 15-1 15-7-15.5-7-15.5-.5-.5-.5-.5.5-26.5.5-26.5-15.5 3.5-15.5 3.5-15.5 20.5-15.5 20.5v2 2l-.5 1.5-.5 1.5-.5.5-.5.5v1.5 1.5l-.5 1.5-.5 1.5v1 1l-.5 1-.5 1v2 2 1 1 1 1l-.5.5-.5.5-1 .5-1 .5 1 12 1 12-11 13.5-11 13.5-11-9.5-11-9.5-11-18-11-18-.5-.5-.5-.5 11-18 11-18 1.5-1.5 1.5-1.5 1.5-.5 1.5-.5 1-1.5 1-1.5-.5-.5-.5-.5.5-1.5.5-1.5-1.5-1-1.5-1-1-1-1-1 .5-2 .5-2 .5-2.5.5-2.5-16.5-2-16.5-2-14.5 7-14.5 7-9-4-9-4-22.5-2.5-22.5-2.5-.5 1-.5 1-.5.5-.5.5-1 .5-1 .5-1.5.5-1.5.5-1-.5-1-.5-12.5-8-12.5-8-12.5-6.5-12.5-6.5-3.5 1.5-3.5 1.5-12 2-12 2-9.5.5-9.5.5-10 2-10 2-11.5-1.5-11.5-1.5-1 3-1 3-14-1-14-1-8.5 3.5-8.5 3.5-10.5 3.5-10.5 3.5-10 1.5-10 1.5-5-1-5-1-7 1-7 1-9 5-9 5-7 2-7 2-10 4-10 4-5 14-5 14-2 13-2 13h-.5-.5v2.5 2.5 2 2 2.5 2.5 2 2 2.5 2.5.5.5l.5 1 .5 1 .5 1.5.5 1.5 1 1.5 1 1.5.5 1.5.5 1.5.5 1.5.5 1.5.5 2 .5 2 .5 1.5.5 1.5 2.5 15 2.5 15 3.5 12.5 3.5 12.5-.5 14.5-.5 14.5 5.5 5.5 5.5 5.5 5 5 5 5 4 10 4 10 7.5 12 7.5 12 9.5 6.5 9.5 6.5 6.5 12 6.5 12-.5 10.5-.5 10.5" />
            <path d="m525 642v1l1.5-.5 1.5-.5.5-1.5.5-1.5-2-.5-2-.5-1.5-.5-1.5-.5 2-.5 2-.5.5-1.5.5-1.5h-2-2l-1-.5-1-.5-.5-.5-.5-.5-1.5-1-1.5-1v.5.5 2 2l.5 1.5.5 1.5 1 .5 1 .5-.5.5-.5.5-.5.5-.5.5 1 1 1 1h2.5 2.5" />
        </g>
        <path d="m403 632l3 1 .5-1.5.5-1.5 1-.5 1-.5.5-.5.5-.5 1-1 1-1 1-.5 1-.5 1-1 1-1 1.5-.5 1.5-.5 1 .5 1 .5.5.5.5.5.5-.5.5-.5.5-.5.5-.5v-1.5-1.5l-.5-1.5-.5-1.5-.5-1.5-.5-1.5-.5-.5-.5-.5v-1.5-1.5l.5-1 .5-1-1.5 1.5-1.5 1.5-1-.5-1-.5-2 1-2 1-1.5.5-1.5.5h-1.5-1.5l-.5.5-.5.5 1 .5 1 .5-1.5 1-1.5 1-1 1-1 1-.5 1.5-.5 1.5-.5 2-.5 2-.5 1.5-.5 1.5 2 .5 2 .5 1.5-.5 1.5-.5-1.5 1.5-1.5 1.5-.5.5-.5.5" style="fill:#cdcea9;stroke:#cdcea9" />
        <path d="m609 632l-5-25 2 11 2 11 .5 1.5.5 1.5" style="fill:#777b68;stroke:#777b68" />
        <path d="m520 631l1 1v-2-2l.5-2 .5-2 .5-1.5.5-1.5-1-1.5-1-1.5-1 1-1 1-.5 1.5-.5 1.5-1 2-1 2 .5 1 .5 1 1.5 1 1.5 1" style="fill:#79512d;stroke:#79512d" />
        <path d="m562 631l2 1v-.5-.5h2.5 2.5l-5-8.5-5-8.5 1.5 8.5 1.5 8.5" style="fill:#4d5144;stroke:#4d5144" />
        <path d="m564 631v1h1.5 1.5l1-.5 1-.5h-2.5-2.5" style="fill:#777b68;stroke:#777b68" />
        <path d="m398 630l3 1h1.5 1.5l1.5-1.5 1.5-1.5-1.5.5-1.5.5-2-.5-2-.5.5-1.5.5-1.5.5-2 .5-2 .5-1.5.5-1.5 1-1 1-1 1.5-1 1.5-1-1-.5-1-.5-1 .5-1 .5-1 1-1 1-1 1-1 1-1 1.5-1 1.5-.5 1.5-.5 1.5-1 1.5-1 1.5.5 1 .5 1 1 .5 1 .5" style="fill:#bdb189;stroke:#bdb189" />
        <path d="m71 628h2l.5-.5.5-.5.5-.5.5-.5.5-.5.5-.5-.5-1-.5-1h-1-1l-.5-.5-.5-.5v-1-1l-1-1-1-1v-1.5-1.5l-.5-.5-.5-.5-.5-1.5-.5-1.5-.5-1-.5-1-.5-.5-.5-.5-.5-.5-.5-.5v-1-1l-.5-1-.5-1-.5 1.5-.5 1.5-1 1.5-1 1.5-1.5.5-1.5.5v1.5 1.5l-.5 1.5-.5 1.5-2-.5-2-.5-1-1-1-1-1-1-1-1-1.5-.5-1.5-.5-1-.5-1-.5 1.5 1 1.5 1 .5.5.5.5.5.5.5.5.5.5.5.5 1 .5 1 .5.5.5.5.5.5.5.5.5.5.5.5.5 1 .5 1 .5.5.5.5.5.5.5.5.5h1 1v1 1l.5.5.5.5 1 .5 1 .5.5.5.5.5.5.5.5.5h1 1l1-.5 1-.5.5 1 .5 1" style="fill:#fad4aa;stroke:#fad4aa" />
        <path d="m567 628h2l1.5-.5 1.5-.5-.5-2-.5-2-1-1-1-1-1.5-1-1.5-1h-1-1l-.5 2-.5 2 .5 1.5.5 1.5 1 1 1 1h.5.5" style="fill:#cdcea9;stroke:#cdcea9" />
        <path d="m406 623h2l1.5-.5 1.5-.5 1-1.5 1-1.5 1.5-.5 1.5-.5v-1.5-1.5h-2-2l-2 .5-2 .5-.5 1.5-.5 1.5-.5 1.5-.5 1.5v.5.5" style="fill:#fdffef;stroke:#fdffef" />
        <path d="m319 619l1 1v-.5-.5l5.5-15 5.5-15 5-17.5 5-17.5h-1-1l-1 1.5-1 1.5v2 2l-.5 2-.5 2-.5 1.5-.5 1.5-.5 1.5-.5 1.5-1 1-1 1-6.5 21-6.5 21v2 2" style="fill:#bdb189;stroke:#bdb189" />
        <path d="m320 619v1l10-21 10-21 7.5 13 7.5 13-7-25-7-25-5 17.5-5 17.5-5.5 15-5.5 15" style="fill:#cdcea9;stroke:#cdcea9" />
        <path d="m518 617l1-1 .5-.5.5-.5-1-1-1-1 9-25.5 9-25.5v-.5-.5l.5-1 .5-1 .5-1.5.5-1.5.5-1.5.5-1.5-1-1.5-1-1.5-.5-1.5-.5-1.5-1.5-1-1.5-1-1.5-.5-1.5-.5-1.5-.5-1.5-.5v1.5 1.5l-4.5 14-4.5 14-7.5 7.5-7.5 7.5 8 1 8 1-1.5 12.5-1.5 12.5 1 .5 1 .5" style="fill:#79512d;stroke:#79512d" />
        <path d="m710 617l2 1v-20.5-20.5-11-11l-1-1-1-1-.5.5-.5.5-5.5-11.5-5.5-11.5-6-13-6-13-11.5-8.5-11.5-8.5v-9-9l3.5-8.5 3.5-8.5 21-6 21-6v-2-2l-.5 1-.5 1h-2-2l-.5.5-.5.5h-1-1-1-1l-1 .5-1 .5h-1-1-1-1l-.5.5-.5.5h-1.5-1.5l-.5.5-.5.5h-1-1-1-1l-1-.5-1-.5-1.5.5-1.5.5-1.5-.5-1.5-.5-1-.5-1-.5-1-.5-1-.5-1 1-1 1-2-.5-2-.5-1.5.5-1.5.5-1.5 1-1.5 1-1.5.5-1.5.5-1 .5-1 .5-.5.5-.5.5-1.5 1-1.5 1-4 10-4 10-.5 9.5-.5 9.5-7.5 8.5-7.5 8.5 11.5 1.5 11.5 1.5 8 1 8 1-1.5 5.5-1.5 5.5-8.5 4.5-8.5 4.5 7 8 7 8 10.5 3.5 10.5 3.5-3 6-3 6 6 7 6 7 5 8 5 8 5 11 5 11" style="fill:#aa773d;stroke:#aa773d" />
        <g style="fill:#79512d;stroke:#79512d">
            <path d="m421 612l1 1 13-12.5 13-12.5 12.5-7.5 12.5-7.5 11-9 11-9 13.5-6 13.5-6-.5-1-.5-1h-1.5-1.5-1-1-1.5-1.5-1-1-2-2l-2.5 1-2.5 1-1 1-1 1v1 1l-1.5 1-1.5 1-1.5.5-1.5.5-.5 2-.5 2h-2-2l-1 1-1 1-1 .5-1 .5-1 .5-1 .5-1 2-1 2-2 .5-2 .5-1 .5-1 .5-17.5 12.5-17.5 12.5-.5 1-.5 1h-.5-.5l-.5.5-.5.5-.5.5-.5.5-.5.5-.5.5-1 .5-1 .5-.5.5-.5.5v1 1l-.5.5-.5.5-.5.5-.5.5-.5.5-.5.5-.5 1-.5 1-.5.5-.5.5h-1-1v1 1l-1.5.5-1.5.5-.5 1-.5 1v1.5 1.5" />
            <path d="m407 611v1h1.5 1.5l1.5-.5 1.5-.5 2-1 2-1 10.5-15.5 10.5-15.5 7.5-12.5 7.5-12.5v-1.5-1.5l-.5-1.5-.5-1.5v-2-2-2.5-2.5l-1-1-1-1-1-1.5-1-1.5-2-.5-2-.5.5 1 .5 1-2.5 16.5-2.5 16.5-7.5 11.5-7.5 11.5-9 10.5-9 10.5" />
        </g>
        <path d="m641 609l38 1-17-19.5-17-19.5-7 8.5-7 8.5 1 2.5 1 2.5 4 8 4 8" style="fill:#4d5144;stroke:#4d5144" />
        <path d="m38 604l1 1-7.5-5-7.5-5h1.5 1.5l1 1.5 1 1.5 1 1 1 1 2 .5 2 .5.5 1 .5 1 1 .5 1 .5" style="fill:#fad4aa;stroke:#fad4aa" />
        <path d="m464 603l18-16-8-2-8-2-11.5 8.5-11.5 8.5 10.5 1.5 10.5 1.5" style="fill:#dc9a46;stroke:#dc9a46" />
        <path d="m357 599l-2-17-2.5-15.5-2.5-15.5-2-15-2-15-2-16-2-16 9 3 9 3 3 13 3 13 .5 13 .5 13 2.5 10 2.5 10 9-1 9-1v-.5-.5l1-1 1-1 1-1 1-1 1-1.5 1-1.5.5-1.5.5-1.5 1-1 1-1 1.5-.5 1.5-.5 21-9.5 21-9.5 2 .5 2 .5 1 1.5 1 1.5 1 1 1 1v2.5 2.5 2 2l.5 1.5.5 1.5v1.5 1.5l-9-15-9-15-8 1-8 1-14.5 1.5-14.5 1.5 1 4.5 1 4.5 2 4 2 4-5-5-5-5v-10-10h8 8l-6.5-2.5-6.5-2.5-6-3-6-3 2-12 2-12-9-2-9-2-15 4-15 4-7.5-3.5-7.5-3.5 6.5-2.5 6.5-2.5-7-2-7-2 6-9 6-9 8.5-1.5 8.5-1.5 9.5-.5 9.5-.5 13-2 13-2 9.5-1.5 9.5-1.5 7.5-1.5 7.5-1.5 9 11 9 11 11.5 8.5 11.5 8.5 9.5 8.5 9.5 8.5-7-14.5-7-14.5-16-12-16-12-6-13-6-13-4-14-4-14-2.5-13.5-2.5-13.5-1 12-1 12-.5 15.5-.5 15.5-5.5 8.5-5.5 8.5-6-8-6-8-1-10-1-10-3.5-9.5-3.5-9.5-10-2-10-2-11 2.5-11 2.5-11 2-11 2-7.5-3.5-7.5-3.5-10.5-4.5-10.5-4.5-10-8-10-8-10 2-10 2-10.5.5-10.5.5 9.5 3.5 9.5 3.5 12 5 12 5 9 8 9 8 13.5.5 13.5.5 6.5 2.5 6.5 2.5 1.5 12.5 1.5 12.5-11 9-11 9-5-8-5-8-5.5-9.5-5.5-9.5-1 2-1 2 5.5 28 5.5 28 .5 1.5.5 1.5.5.5.5.5v1 1l-.5.5-.5.5.5 1 .5 1 .5.5.5.5v1 1l.5.5.5.5 1 .5 1 .5v1 1l-.5.5-.5.5.5.5.5.5 1.5.5 1.5.5 1-.5 1-.5v1 1h1 1 1 1l.5.5.5.5 1 .5 1 .5.5.5.5.5h1 1l1.5.5 1.5.5 4 7 4 7-2.5 9.5-2.5 9.5 12 15 12 15 9 26 9 26" style="fill:#4d5144;stroke:#4d5144" />
        <path d="m356 596h2l.5-1.5.5-1.5 2-.5 2-.5.5-1.5.5-1.5v-1.5-1.5l-1.5.5-1.5.5-2 .5-2 .5-1 1-1 1-.5 1.5-.5 1.5 1 1.5 1 1.5" style="fill:#363327;stroke:#363327" />
        <path d="m291 595l2-1h2 2l2-.5 2-.5 1-1 1-1 1.5-1 1.5-1 1-1 1-1 1-1 1-1 .5-1.5.5-1.5v-.5-.5l-4.5-12-4.5-12 8.5 10 8.5 10 1 1.5 1 1.5.5 1.5.5 1.5 1.5-.5 1.5-.5 1-1.5 1-1.5.5-1.5.5-1.5v-1.5-1.5l.5-2.5.5-2.5.5-1.5.5-1.5.5-2 .5-2 .5-1.5.5-1.5v-2.5-2.5h2 2l.5-2 .5-2 1-1 1-1-12-15-12-15 2.5-9.5 2.5-9.5-4-7-4-7v1.5 1.5l-.5.5-.5.5.5.5.5.5v1 1 1.5 1.5 1 1h-1-1l-1-.5-1-.5-.5-1.5-.5-1.5-1-1-1-1-1-1.5-1-1.5-1-1-1-1-1-1.5-1-1.5-1.5-.5-1.5-.5.5-1 .5-1-1.5-.5-1.5-.5-.5-.5-.5-.5.5-.5.5-.5v-1-1l-1-.5-1-.5-.5-.5-.5-.5v-1-1l-.5-.5-.5-.5-.5-1-.5-1 .5-.5.5-.5v-1-1l-.5-.5-.5-.5-.5-1.5-.5-1.5-1.5 1-1.5 1 1 1 1 1v1.5 1.5l-1 .5-1 .5 4.5 19 4.5 19-11 2-11 2-2.5 6.5-2.5 6.5 4.5 9.5 4.5 9.5-12 7-12 7-12 2.5-12 2.5 9 2.5 9 2.5 13-2 13-2-1.5 10.5-1.5 10.5 11 6 11 6" style="fill:#79512d;stroke:#79512d" />
        <path d="m367 595l3-1 12-14 12-14-13.5 14.5-13.5 14.5" style="fill:#aa773d;stroke:#aa773d" />
        <path d="m91 594l1-25-7.5-10.5-7.5-10.5-9.5-2.5-9.5-2.5 4 16 4 16 11 8 11 8 1.5 1.5 1.5 1.5" style="fill:#bdb189;stroke:#bdb189" />
        <path d="m93 589l-7-25-7.5-8.5-7.5-8.5-2 1-2 1 3 16 3 16 10 4 10 4" style="fill:#cdcea9;stroke:#cdcea9" />
        <path d="m398 588l18-20 2-12 2-12-10 10-10 10-6 6-6 6 5 6 5 6" style="fill:#ffcd69;stroke:#ffcd69" />
        <path d="m440 588v1l17.5-12.5 17.5-12.5-17.5 12-17.5 12" style="fill:#4d5144;stroke:#4d5144" />
        <g style="fill:#fad4aa;stroke:#fad4aa">
            <path d="m34 587h2l.5-.5.5-.5v-1-1l.5-.5.5-.5v-1.5-1.5-1-1-1-1-1-1-1.5-1.5-1-1-1-1-1-1l2-.5 2-.5-13.5 5-13.5 5 7-6.5 7-6.5 2.5 13 2.5 13" />
            <path d="m85 583l3 1 1-1 1-1 .5-2 .5-2-.5-1.5-.5-1.5-1.5 1-1.5 1-1.5.5-1.5.5-.5 2-.5 2 1 .5 1 .5" />
        </g>
        <path d="m151 581l12-6 3-2 3-2 1-6 1-6 2-7 2-7-1-6-1-6 6-3 6-3 8.5-5.5 8.5-5.5 10.5-9.5 10.5-9.5 11.5-5.5 11.5-5.5 8-6 8-6-6-3-6-3-4.5 2.5-4.5 2.5-6-2-6-2-12 1-12 1-10.5-4.5-10.5-4.5-9.5-4.5-9.5-4.5-9-4.5-9-4.5-6 7-6 7-2 11-2 11 2.5 9.5 2.5 9.5 4.5 7.5 4.5 7.5-5.5 8.5-5.5 8.5 3 13 3 13v6 6l5.5 6 5.5 6" style="fill:#dc9a46;stroke:#dc9a46" />
        <path d="m311 581v1l1-.5 1-.5.5-.5.5-.5.5-.5.5-.5v1.5 1.5h1 1v-1-1h1 1l-.5-1-.5-1 .5-.5.5-.5-8.5-10-8.5-10 4.5 12 4.5 12" style="fill:#777b68;stroke:#777b68" />
        <path d="m190 576l11-5-4-8-4-8-2 6-2 6 .5 4.5.5 4.5" style="fill:#dc9a46;stroke:#dc9a46" />
        <path d="m394 565v1l17-15.5 17-15.5h-1.5-1.5l-1.5.5-1.5.5-1 1-1 1-1.5 1-1.5 1-1 1-1 1-1.5 1-1.5 1-1 1-1 1-1.5 1-1.5 1-1 1-1 1-1 1.5-1 1.5-.5 1-.5 1-1 1.5-1 1.5-1.5 1-1.5 1-1 1-1 1-.5 1-.5 1v.5.5" style="fill:#aa773d;stroke:#aa773d" />
        <path d="m390 564v1l2-.5 2-.5.5-1 .5-1 1-1 1-1 1.5-1 1.5-1 1-1.5 1-1.5v-.5-.5-1.5-1.5l-1.5.5-1.5.5-1 1-1 1-.5 1.5-.5 1.5-1 1.5-1 1.5-1 1-1 1-1 1-1 1" style="fill:#79512d;stroke:#79512d" />
        <g style="fill:#4d5144;stroke:#4d5144">
            <path d="m536 561v1l-14.5-10.5-14.5-10.5h2 2 1 1 1.5 1.5 1 1 1.5 1.5l.5 1 .5 1 1 .5 1 .5 1.5 1 1.5 1v-1.5-1.5l1.5.5 1.5.5 1.5.5 1.5.5 1.5 1 1.5 1 .5 1.5.5 1.5 1 1.5 1 1.5-.5 1.5-.5 1.5-.5 1.5-.5 1.5-.5 1-.5 1" />
            <path d="m590 560l-2-29-1.5-.5-1.5-.5h-1.5-1.5l-1.5-.5-1.5-.5-1.5.5-1.5.5 1 1.5 1 1.5.5 1.5.5 1.5v2 2l1 1.5 1 1.5v2 2l1 1.5 1 1.5 1 1 1 1 .5 2 .5 2 1 1 1 1 1 1 1 1" />
        </g>
        <path d="m10 558l3 1-1-1-1-1 1-.5 1-.5v-1-1l.5-1.5.5-1.5.5-1 .5-1-.5-.5-.5-.5.5-1.5.5-1.5-.5-1-.5-1v-1-1-2-2l-.5-1-.5-1-.5-1-.5-1v1.5 1.5 2 2l-.5 2-.5 2 1 1 1 1v2.5 2.5l-1 1-1 1-1 1.5-1 1.5.5 1 .5 1" style="fill:#fad4aa;stroke:#fad4aa" />
        <g style="fill:#4d5144;stroke:#4d5144">
            <path d="m317 557h2v-1-1l1-1.5 1-1.5.5-1.5.5-1.5-.5-1.5-.5-1.5-1 .5-1 .5v1 1l-.5 1-.5 1 .5.5.5.5-.5.5-.5.5h-1-1l-1.5-.5-1.5-.5-1-.5-1-.5-.5-1.5-.5-1.5-1 .5-1 .5-1.5.5-1.5.5 1 .5 1 .5.5.5.5.5 2 .5 2 .5 1 1 1 1 1 1 1 1h.5.5" />
            <path d="m483 557v1l1-.5 1-.5 1-.5 1-.5 1-1 1-1h2 2l.5-2 .5-2 1.5-.5 1.5-.5 1.5-1 1.5-1v-1-1l1-1 1-1h-2.5-2.5l-1.5.5-1.5.5-1 1.5-1 1.5-1 1-1 1-1.5 1-1.5 1-1 1-1 1-.5 1-.5 1-.5 1-.5 1" />
        </g>
        <path d="m402 554v1l.5-1 .5-1 1-1.5 1-1.5 1-1 1-1 1.5-1 1.5-1 1-1 1-1 1.5-1 1.5-1 1-1 1-1 1.5-1 1.5-1 1-1 1-1 1.5-.5 1.5-.5h1.5 1.5l1.5-.5 1.5-.5h1 1l.5.5.5.5.5-.5.5-.5h1.5 1.5l1-1 1-1 1.5.5 1.5.5 1 .5 1 .5-.5-1-.5-1-21 9.5-21 9.5v1.5 1.5" style="fill:#777b68;stroke:#777b68" />
        <path d="m709 554l1-1 1 1 1 1v-2.5-2.5-2-2-2.5-2.5-2-2-2.5-2.5-.5-.5l-.5-.5-.5-.5-7-13.5-7-13.5-6.5-9.5-6.5-9.5-2.5-11.5-2.5-11.5 16.5-9.5 16.5-9.5v-.5-.5l-21 6-21 6-3.5 8.5-3.5 8.5v9 9l11.5 8.5 11.5 8.5 6 13 6 13 5.5 11.5 5.5 11.5" style="fill:#dc9a46;stroke:#dc9a46" />
        <path d="m316 553h2l.5-.5.5-.5-.5-.5-.5-.5.5-1 .5-1v-1-1l1-.5 1-.5v-2-2l-1.5.5-1.5.5-1.5 1-1.5 1-1 1-1 1-1.5.5-1.5.5.5 1.5.5 1.5 1 .5 1 .5 1.5.5 1.5.5" style="fill:#363327;stroke:#363327" />
        <path d="m556 543l-20-22h-2-2l12 11 12 11" style="fill:#4d5144;stroke:#4d5144" />
        <path d="m0 532v1l.5-1 .5-1 1.5-1 1.5-1 1.5-.5 1.5-.5.5-1 .5-1v-.5-.5-1.5-1.5l-1.5-.5-1.5-.5v-1.5-1.5-2-2l.5-1.5.5-1.5.5-2 .5-2v-3-3l-3.5-14-3.5-14v21.5 21.5 8 8" style="fill:#fdffef;stroke:#fdffef" />
        <path d="m711 530l1 1v-21-21-3.5-3.5h-.5-.5-2-2-1-1-2.5-2.5l-1.5-1-1.5-1-.5-1.5-.5-1.5-1-1.5-1-1.5-1-1-1-1 .5-1.5.5-1.5-.5-1.5-.5-1.5-1-1-1-1 .5-1 .5-1 1.5-.5 1.5-.5 2-.5 2-.5h2 2l1.5-.5 1.5-.5 2-.5 2-.5h1.5 1.5v-2-2-2-2-2.5-2.5-1.5-1.5l-16.5 9.5-16.5 9.5 2.5 11.5 2.5 11.5 6.5 9.5 6.5 9.5 7 13.5 7 13.5" style="fill:#ffcd69;stroke:#ffcd69" />
        <path d="m8 525v1h.5.5l.5-.5.5-.5v-.5-.5l.5-1 .5-1 .5-1 .5-1h-1-1l-.5-.5-.5-.5v-1-1l1-.5 1-.5v-1-1l.5-.5.5-.5.5-.5.5-.5.5-1 .5-1-.5-.5-.5-.5-.5-.5-.5-.5v-1-1h-1-1l-.5.5-.5.5-.5-1-.5-1v-1-1l-.5-1-.5-1v3 3l-.5 2-.5 2-.5 1.5-.5 1.5v2 2 1.5 1.5l1.5.5 1.5.5v1.5 1.5" style="fill:#fad4aa;stroke:#fad4aa" />
        <path d="m10 524v1l1-18.5 1-18.5-3-15-3-15-.5 1-.5 1v1.5 1.5l-.5.5-.5.5v1 1l-.5.5-.5.5-.5-1-.5-1-1-.5-1-.5v2.5 2.5 2 2l3.5 14 3.5 14 .5 1 .5 1v1 1l.5 1 .5 1 .5-.5.5-.5h1 1v1 1l.5.5.5.5.5.5.5.5-.5 1-.5 1-.5.5-.5.5-.5.5-.5.5v1 1l-1 .5-1 .5v1 1l.5.5.5.5h1 1l-.5 1-.5 1-.5 1-.5 1" style="fill:#cdcea9;stroke:#cdcea9" />
        <path d="m94 516l7-28 1.5-2 1.5-2 9.5-25 9.5-25-10-8.5-10-8.5v1 1l.5 1.5.5 1.5-.5 1.5-.5 1.5 1 1 1 1-1 .5-1 .5h-2-2l-1-.5-1-.5v1.5 1.5l-.5 1-.5 1-.5.5-.5.5v.5.5l-1 1-1 1 .5.5.5.5-.5 1-.5 1v1 1l-.5.5-.5.5-.5.5-.5.5v1 1 1.5 1.5l5-8 5-8 2.5 8.5 2.5 8.5-7 11.5-7 11.5-1-1-1-1-2-.5-2-.5-1 1-1 1 .5.5.5.5 1 1 1 1v1.5 1.5l1-1 1-1 1.5.5 1.5.5 2 .5 2 .5v1 1l-1.5 1-1.5 1-.5 1.5-.5 1.5-.5 2.5-.5 2.5.5 1 .5 1-.5 1.5-.5 1.5-1 1.5-1 1.5v2 2h-1.5-1.5-2-2l-1-1-1-1h-1-1l.5 2.5.5 2.5.5 1.5.5 1.5 1.5 1 1.5 1 .5 1.5.5 1.5 1 1.5 1 1.5 1.5-.5 1.5-.5h1.5 1.5l1-1 1-1v1 1 1 1" style="fill:#79512d;stroke:#79512d" />
        <path d="m62 510l16-11h1 1l1 1 1 1h2 2 1.5 1.5v-2-2l1-1.5 1-1.5.5-1.5.5-1.5-.5-1-.5-1-1-.5-1-.5h-1-1v-1.5-1.5l.5-2 .5-2-1.5-.5-1.5-.5 1-1.5 1-1.5v-1.5-1.5l-1-1-1-1-.5-.5-.5-.5 1-1 1-1 1-2 1-2-1-.5-1-.5.5-1 .5-1-1-1-1-1 1-1.5 1-1.5-.5-1.5-.5-1.5v-2-2h1 1 1 1l.5-1 .5-1v-1.5-1.5-1-1l.5-.5.5-.5.5-.5.5-.5v-1-1l.5-1 .5-1-.5-.5-.5-.5 1-1 1-1v-.5-.5l.5-.5.5-.5.5-1 .5-1v-1.5-1.5l1.5-1.5 1.5-1.5.5-1.5.5-1.5-1-1-1-1 1-.5 1-.5 1 .5 1 .5v-1-1l-8.5-11.5-8.5-11.5-8.5 5.5-8.5 5.5-2.5 12.5-2.5 12.5-2.5 14.5-2.5 14.5 1 13 1 13 .5 12.5.5 12.5" style="fill:#4d5144;stroke:#4d5144" />
        <g style="fill:#777b68;stroke:#777b68">
            <path d="m310 496h2v-1-1-1.5-1.5-1-1l-.5-.5-.5-.5.5-.5.5-.5v-1.5-1.5l-1.5-.5-1.5-.5h-1-1l-.5-.5-.5-.5-1-.5-1-.5-.5-.5-.5-.5h-1-1-1-1v-1-1l-1 .5-1 .5-.5 1-.5 1 1.5.5 1.5.5 1 1.5 1 1.5 1 1 1 1 1 1.5 1 1.5 1 1 1 1 .5 1.5.5 1.5 1 .5 1 .5" />
            <path d="m87 488h2l1 .5 1 .5.5-2.5.5-2.5.5-1.5.5-1.5 1.5-1 1.5-1v-1-1l-2-.5-2-.5-1.5-.5-1.5-.5-1 1-1 1-1 1.5-1 1.5 1.5.5 1.5.5-.5 2-.5 2v1.5 1.5" />
        </g>
        <path d="m532 482h2l1.5.5 1.5.5 1.5-1 1.5-1 1.5.5 1.5.5 2-.5 2-.5 1-1 1-1 .5-1 .5-1h-11.5-11.5l.5 1 .5 1 .5.5.5.5.5.5.5.5 1 .5 1 .5" style="fill:#363327;stroke:#363327" />
        <path d="m705 482h2 2 2v-.5-.5h-2-2l-1.5-.5-1.5-.5-2-.5-2-.5-1-1-1-1-1-1.5-1-1.5.5-1.5.5-1.5 1.5-.5 1.5-.5-1.5-.5-1.5-.5h-2-2l-.5 1.5-.5 1.5 1 1 1 1 1 1.5 1 1.5.5 1.5.5 1.5 1.5 1 1.5 1h2.5 2.5" style="fill:#fad4aa;stroke:#fad4aa" />
        <path d="m711 481v1h.5.5v-3-3-2.5-2.5-1.5-1.5l-1 .5-1 .5h-.5-.5-2-2l-.5.5-.5.5h-2-2l-1.5.5-1.5.5-.5 1.5-.5 1.5 1 1.5 1 1.5 1 1 1 1 2 .5 2 .5 1.5.5 1.5.5h2 2" style="fill:#fdffef;stroke:#fdffef" />
        <path d="m498 480l5-19-5 6-5 6 2.5 3.5 2.5 3.5" style="fill:#aa773d;stroke:#aa773d" />
        <g style="fill:#4d5144;stroke:#4d5144">
            <path d="m47 478l3 1 .5-1.5.5-1.5v-1.5-1.5l.5-1.5.5-1.5.5-2 .5-2-1.5-.5-1.5-.5-1.5 1-1.5 1v1 1 2 2 1.5 1.5 1 1" />
            <path d="m524 477h3 11.5 11.5l17.5-3.5 17.5-3.5-.5-1-.5-1-2 .5-2 .5h-2-2-1.5-1.5l-1.5.5-1.5.5h-1.5-1.5l-1 1-1 1-2-.5-2-.5-12.5-8-12.5-8-4.5-8.5-4.5-8.5 4-3 4-3 9.5-2.5 9.5-2.5 1.5-1.5 1.5-1.5 3 2 3 2 10 4 10 4 11.5 13.5 11.5 13.5 6.5-8 6.5-8-12.5-6.5-12.5-6.5-14-16-14-16-5.5-13.5-5.5-13.5-3.5-14-3.5-14-8 5.5-8 5.5-6.5 1.5-6.5 1.5-8 7-8 7 1.5 16.5 1.5 16.5 5 14 5 14 6 12 6 12-.5 1-.5 1h-2-2l-1.5-1-1.5-1v1 1 1.5 1.5l1 1 1 1 .5 1.5.5 1.5v2.5 2.5l.5 1 .5 1" />
        </g>
        <path d="m92 472l14-23-2.5-8.5-2.5-8.5-5 8-5 8-.5 1-.5 1h-1-1l1 1.5 1 1.5.5 2 .5 2 .5 1.5.5 1.5.5 2 .5 2v2 2l-1.5-.5-1.5-.5-1-1-1-1-1 2-1 2 2 .5 2 .5 1 1 1 1" style="fill:#777b68;stroke:#777b68" />
        <path d="m561 471l4 1 1-1 1-1h1.5 1.5l1.5-.5 1.5-.5h1.5 1.5 2 2l2-.5 2-.5.5 1 .5 1 2-.5 2-.5 1.5-.5 1.5-.5 2 .5 2 .5h2 2l.5-2 .5-2 1.5-.5 1.5-.5 1-.5 1-.5-11.5-13.5-11.5-13.5-10-4-10-4-3-2-3-2-1.5 1.5-1.5 1.5-9.5 2.5-9.5 2.5-4 3-4 3 4.5 8.5 4.5 8.5 12.5 8 12.5 8" style="fill:#363327;stroke:#363327" />
        <path d="m697 469l3 1h2 2l.5-.5.5-.5h2 2 .5.5l1-.5 1-.5v-3-3-2-2h-1.5-1.5l-2 .5-2 .5-1.5.5-1.5.5h-2-2l-2 .5-2 .5-1.5.5-1.5.5-.5 1-.5 1 1 1 1 1 .5 1.5.5 1.5h2 2" style="fill:#dc9a46;stroke:#dc9a46" />
        <path d="m3 467l1-1v-1-1l.5-.5.5-.5v-1.5-1.5l.5-1 .5-1 .5-1.5.5-1.5v-1.5-1.5l-.5-1.5-.5-1.5-1-1.5-1-1.5-.5-1.5-.5-1.5-.5-1.5-.5-1.5-1-1.5-1-1.5v1.5 1.5.5.5l.5 1 .5 1 .5 1.5.5 1.5 1 1.5 1 1.5.5 1.5.5 1.5v2.5 2.5l-.5 1.5-.5 1.5h-1-1l-1-1-1-1v3 3l1 .5 1 .5.5 1 .5 1" style="fill:#fad4aa;stroke:#fad4aa" />
        <path d="m90 467l3 1v-2-2l-.5-2-.5-2-.5-1.5-.5-1.5-.5-2-.5-2-1-1.5-1-1.5h-1-1v2 2l.5 1.5.5 1.5-1 1.5-1 1.5 1 1 1 1-.5 1-.5 1 1 .5 1 .5 1 1 1 1" style="fill:#79512d;stroke:#79512d" />
        <path d="m285 467v1l1-.5 1-.5v-1.5-1.5l-1-1-1-1 1.5-1 1.5-1-5.5-28-5.5-28h-1.5-1.5l-.5 1-.5 1-.5.5-.5.5v1 1 1 1l.5 1 .5 1 .5.5.5.5.5.5.5.5-.5 1-.5 1 5.5 25 5.5 25" style="fill:#777b68;stroke:#777b68" />
        <path d="m2 460h2l.5-1.5.5-1.5v-2.5-2.5l-.5-1.5-.5-1.5-1-1.5-1-1.5-.5-1.5-.5-1.5-.5-1-.5-1v3 3 2 2 2.5 2.5 1 1l1 1 1 1" style="fill:#fdffef;stroke:#fdffef" />
        <path d="m196 458l3 1h1 1l-.5-.5-.5-.5 1-.5 1-.5h1 1 1 1l1-1 1-1 3-13 3-13-10.5 6.5-10.5 6.5-1-1-1-1-.5-.5-.5-.5v-1.5-1.5l-1.5-.5-1.5-.5-.5.5-.5.5-1-.5-1-.5-1.5-1-1.5-1-.5 1-.5 1-2 .5-2 .5-1.5.5-1.5.5v1.5 1.5 1 1l2-.5 2-.5v1 1l-1.5 1.5-1.5 1.5v1.5 1.5l1 1 1 1 1 .5 1 .5.5-.5.5-.5 1.5.5 1.5.5h1.5 1.5l-1-1-1-1-.5-1.5-.5-1.5-.5-1.5-.5-1.5 1 .5 1 .5h2 2l1 .5 1 .5 1 1 1 1 1 1.5 1 1.5-1 1-1 1-1 .5-1 .5v1.5 1.5h1 1l1.5-.5 1.5-.5 1 .5 1 .5v.5.5" style="fill:#777b68;stroke:#777b68" />
        <g style="fill:#79512d;stroke:#79512d">
            <path d="m212 458l26-17-.5-1.5-.5-1.5v-1-1l.5-.5.5-.5.5-.5.5-.5.5-1 .5-1 1.5-.5 1.5-.5.5-.5.5-.5 1-1.5 1-1.5-.5-2-.5-2 .5-1.5.5-1.5-.5-2-.5-2h1 1l.5-1 .5-1-1.5-.5-1.5-.5-.5-1-.5-1-.5-1-.5-1v-2-2h-2.5-2.5-2-2l-2 .5-2 .5-.5-1.5-.5-1.5-1-1.5-1-1.5-.5-1-.5-1-2 .5-2 .5h-2-2l-1 1.5-1 1.5-1 1.5-1 1.5-1.5.5-1.5.5-2-.5-2-.5-1 1-1 1-1.5.5-1.5.5-2 .5-2 .5h-2-2l-1 1.5-1 1.5-.5.5-.5.5-2-.5-2-.5-1 .5-1 .5-1.5 1.5-1.5 1.5-1 1-1 1-2 .5-2 .5-1 1.5-1 1.5 11.5-4 11.5-4 5 5 5 5 1.5.5 1.5.5 1 1 1 1 2-.5 2-.5-1 1.5-1 1.5-3 13-3 13 1.5.5 1.5.5.5 1 .5 1" />
            <path d="m189 453v1l1-.5 1-.5 1-1 1-1-1-1.5-1-1.5-1-1-1-1-1-.5-1-.5h-2-2l-1-.5-1-.5.5 1.5.5 1.5.5 1.5.5 1.5 1 1 1 1 2 .5 2 .5" />
        </g>
        <path d="m8 446h2l-.5-1.5-.5-1.5-1-1.5-1-1.5-.5-1.5-.5-1.5 1-.5 1-.5-.5-1.5-.5-1.5-.5-2-.5-2-.5-1.5-.5-1.5-.5-1.5-.5-1.5-1-1.5-1-1.5-.5-1.5-.5-1.5-.5-1-.5-1v3 3 2.5 2.5h2 2v1.5 1.5l-.5.5-.5.5v1 1 1 1 1 1l.5.5.5.5v1.5 1.5l.5.5.5.5v1 1l.5.5.5.5 1 1 1 1" style="fill:#cdcea9;stroke:#cdcea9" />
        <path d="m170 445h2l1 .5 1 .5 1.5-1.5 1.5-1.5v-1-1l-2 .5-2 .5v-1-1-1.5-1.5l1.5-.5 1.5-.5 2-.5 2-.5.5-1 .5-1 .5-1 .5-1-2-.5-2-.5-.5 1.5-.5 1.5-1.5-.5-1.5-.5-1-1.5-1-1.5-.5-1.5-.5-1.5-.5 1-.5 1-.5.5-.5.5-1 1-1 1-1-.5-1-.5-.5-.5-.5-.5-1 1-1 1v.5.5 1 1 1 1l1 .5 1 .5v1 1l1 1 1 1 .5 1 .5 1 .5.5.5.5 1 .5 1 .5" style="fill:#79512d;stroke:#79512d" />
        <path d="m193 442l21-13 1-1.5 1-1.5-2 .5-2 .5-1-1-1-1-1.5-.5-1.5-.5h-1.5-1.5l-1.5.5-1.5.5-2 .5-2 .5-1 1-1 1-1-.5-1-.5h-2-2l-2 .5-2 .5-1 .5-1 .5-.5 1-.5 1-.5 1-.5 1 1.5 1 1.5 1 1 .5 1 .5.5-.5.5-.5 1.5.5 1.5.5v1.5 1.5l.5.5.5.5 1 1 1 1" style="fill:#4d5144;stroke:#4d5144" />
        <path d="m239 442h2v-1-1l-.5-.5-.5-.5v-1.5-1.5l.5-.5.5-.5h1 1l-.5-.5-.5-.5 1-.5 1-.5.5.5.5.5.5-.5.5-.5.5.5.5.5v-1.5-1.5-1-1l.5-.5.5-.5v-1-1-1-1l.5-.5.5-.5-1 .5-1 .5-.5 1.5-.5 1.5-1 1.5-1 1.5-.5.5-.5.5-1.5.5-1.5.5-.5 1-.5 1-.5.5-.5.5-.5.5-.5.5v1 1l.5 1.5.5 1.5.5.5.5.5" style="fill:#777b68;stroke:#777b68" />
        <g style="fill:#79512d;stroke:#79512d">
            <path d="m660 442l3 1 1-1 1-1 .5-2 .5-2h-2-2l-1-.5-1-.5h-1-1l-1.5 1-1.5 1v1 1l1.5.5 1.5.5 1 .5 1 .5" />
            <path d="m679 442l3 1 1.5-.5 1.5-.5 1 .5 1 .5h1 1 1 1l.5-.5.5-.5h1.5 1.5l.5-.5.5-.5h1 1 1 1l1-.5 1-.5h1 1 1 1l.5-.5.5-.5h2 2l.5-1 .5-1v-1-1l-1.5.5-1.5.5h-1.5-1.5l-1.5.5-1.5.5-2 .5-2 .5-1.5.5-1.5.5-1.5 1-1.5 1h-2-2l-2-.5-2-.5-1-.5-1-.5h-1.5-1.5l-.5 1.5-.5 1.5" />
        </g>
        <path d="m685 440l4 1h2 2l1.5-1 1.5-1 1.5-.5 1.5-.5 2-.5 2-.5 1.5-.5 1.5-.5h1.5 1.5l1.5-.5 1.5-.5v-1.5-1.5-1-1l-10.5 3.5-10.5 3.5-5-2-5-2-2.5-9.5-2.5-9.5 7.5-5.5 7.5-5.5 10.5 7 10.5 7v-1.5-1.5-1.5-1.5h-1-1l-2-1-2-1-1-1.5-1-1.5 1-1 1-1-2-.5-2-.5-1-1-1-1 .5-1 .5-1-.5-1-.5-1-11.5-18-11.5-18-4.5-15.5-4.5-15.5-7-9-7-9-9 9-9 9 .5 18.5.5 18.5 3 14 3 14 7 13 7 13 11.5 9 11.5 9h1.5 1.5l1 .5 1 .5" style="fill:#4d5144;stroke:#4d5144" />
        <path d="m691 437l21-7v-2.5-2.5-2.5-2.5-1.5-1.5l-10.5-7-10.5-7-7.5 5.5-7.5 5.5 2.5 9.5 2.5 9.5 5 2 5 2" style="fill:#363327;stroke:#363327" />
        <path d="m174 432l3 1 .5-1.5.5-1.5 2 .5 2 .5.5-1 .5-1v-.5-.5l.5-1 .5-1h1 1 1 1l.5-.5.5-.5.5-1 .5-1h1 1 1 1 1 1l.5.5.5.5 1 .5 1 .5.5-.5.5-.5.5-.5.5-.5 1.5.5 1.5.5h1.5 1.5l-5-5-5-5-11.5 4-11.5 4-1.5.5-1.5.5v1.5 1.5l.5 1.5.5 1.5 1 1.5 1 1.5" style="fill:#777b68;stroke:#777b68" />
        <g style="fill:#bdb189;stroke:#bdb189">
            <path d="m295 432l3 1h2 2l2-.5 2-.5 1.5-.5 1.5-.5 1.5-1 1.5-1 1-1 1-1 1-1.5 1-1.5v-.5-.5-1.5-1.5l-1-1-1-1-1.5.5-1.5.5v1.5 1.5l-1 1-1 1-2 .5-2 .5-1.5.5-1.5.5-1.5-.5-1.5-.5-.5-1-.5-1-2.5 1-2.5 1 .5 2 .5 2 .5 1.5.5 1.5" />
            <path d="m474 429l22-27-1-12-1-12v-.5-.5l.5-1 .5-1-.5-1-.5-1v-1-1-1.5-1.5l.5-1.5.5-1.5.5-.5.5-.5.5-.5.5-.5v-1-1l.5-1 .5-1-.5-.5-.5-.5.5-.5.5-.5v-1-1l.5-1 .5-1v-1-1l1-.5 1-.5 15.5-20.5 15.5-20.5 15.5-3.5 15.5-3.5 1 9.5 1 9.5-1 17.5-1 17.5 7 15.5 7 15.5 1-15 1-15 3-15 3-15 9-1 9-1 1.5 12.5 1.5 12.5 5.5 12.5 5.5 12.5-1 10-1 10-16 1-16 1 4 7 4 7 12.5-2.5 12.5-2.5 8-4 8-4-3-13.5-3-13.5.5-14.5.5-14.5 3-16 3-16 6.5-13.5 6.5-13.5 13.5-8 13.5-8 1.5-.5 1.5-.5.5-.5.5-.5h1 1l-.5 1-.5 1 .5.5.5.5v1 1 1 1 .5.5l-.5.5-.5.5v1 1h1 1l-.5.5-.5.5v1.5 1.5 1 1l-.5.5-.5.5h-1-1-.5-.5l3.5 28 3.5 28 6 14 6 14 9 5.5 9 5.5v-20.5-20.5-20-20-15.5-15.5l-3.5 13.5-3.5 13.5-3 21-3 21-6-12-6-12-1-14-1-14v-10-10l-15 5-15 5-11 9-11 9-7.5 12.5-7.5 12.5-15 1-15 1-7.5 1.5-7.5 1.5-6.5-12-6.5-12-12-8.5-12-8.5-10-9-10-9-2 4-2 4 7 18 7 18h-.5-.5l-2-.5-2-.5-13-5-13-5-12.5-7.5-12.5-7.5-6.5 2.5-6.5 2.5-1.5 9.5-1.5 9.5 1 .5 1 .5.5.5.5.5h1 1l.5 1 .5 1 .5-.5.5-.5.5-.5.5-.5.5.5.5.5.5 1 .5 1v1 1h-1-1l-.5.5-.5.5h-1-1-.5-.5l-1 .5-1 .5-.5 2.5-.5 2.5-.5 2-.5 2 1 1 1 1 1.5 1 1.5 1-.5 1.5-.5 1.5.5.5.5.5-1 1.5-1 1.5-1.5.5-1.5.5-1.5 1.5-1.5 1.5-.5 1-.5 1-.5 1-.5 1 14.5-6 14.5-6 11 5 11 5-7 13-7 13-13.5 7.5-13.5 7.5-8.5-16-8.5-16-1.5 1-1.5 1-1 1-1 1-.5 1.5-.5 1.5v1 1l-.5 1-.5 1 .5 1.5.5 1.5-1.5 1-1.5 1 .5 1.5.5 1.5-1 1.5-1 1.5-1 2-1 2 11 18 11 18 11 9.5 11 9.5" />
        </g>
        <path d="m103 428l2-1-1-1-1-1 .5-1.5.5-1.5-.5-1.5-.5-1.5-1-.5-1-.5-1 .5-1 .5 1 1 1 1-.5 1.5-.5 1.5-1.5 1.5-1.5 1.5 1 .5 1 .5h2 2" style="fill:#777b68;stroke:#777b68" />
        <path d="m183 428v1l1-.5 1-.5 2-.5 2-.5h2 2l1 .5 1 .5 1-1 1-1 2-.5 2-.5 1.5-.5 1.5-.5-1.5-.5-1.5-.5-.5.5-.5.5-.5.5-.5.5-1-.5-1-.5-.5-.5-.5-.5h-1-1-1-1-1-1l-.5 1-.5 1-.5.5-.5.5h-1-1-1-1l-.5 1-.5 1" style="fill:#79512d;stroke:#79512d" />
        <g style="fill:#92aaa6;stroke:#92aaa6">
            <path d="m399 427l3 1h2 2l1.5-1 1.5-1-1-1-1-1-1.5-1-1.5-1-1.5.5-1.5.5-2 .5-2 .5-1.5.5-1.5.5 1 1 1 1h1.5 1.5" />
            <path d="m299 425l3 1 1.5-.5 1.5-.5 2-.5 2-.5 1-1 1-1v-1.5-1.5l1.5-.5 1.5-.5 1 1 1 1v1.5 1.5l1-2 1-2-1.5-1-1.5-1h-1.5-1.5l-2.5.5-2.5.5v1 1l-1-.5-1-.5-.5.5-.5.5-1 .5-1 .5-1.5-.5-1.5-.5-1 1-1 1-1.5 1-1.5 1-.5.5-.5.5 2.5-1 2.5-1 .5 1 .5 1" />
        </g>
        <path d="m302 421l2-1 .5-.5.5-.5 1 .5 1 .5v-1-1l2.5-.5 2.5-.5.5-2 .5-2v-2-2l-1.5-.5-1.5-.5-2-.5-2-.5.5-.5.5-.5 2-.5 2-.5h1.5 1.5v-.5-.5l-.5-1-.5-1-1.5-1-1.5-1 1 1 1 1h-1-1l-.5.5-.5.5-.5.5-.5.5h-1-1l-1 .5-1 .5h-1-1-1-1l-1.5-.5-1.5-.5-.5-1-.5-1h-2-2l4.5 5.5 4.5 5.5-1 3.5-1 3.5 1.5.5 1.5.5" style="fill:#bdb189;stroke:#bdb189" />
        <path d="m272 416l2 1 .5-1 .5-1-.5-.5-.5-.5-.5-.5-.5-.5-.5-1-.5-1v-1-1-1-1l.5-.5.5-.5.5-1 .5-1h1.5 1.5l1-2 1-2-1 1-1 1h-2-2l-.5 1-.5 1-.5.5-.5.5-1 1-1 1-.5 1-.5 1 .5 1.5.5 1.5 1 .5 1 .5.5 1.5.5 1.5" style="fill:#79512d;stroke:#79512d" />
        <path d="m191 413l1-1 1-1.5 1-1.5h2 2l2-.5 2-.5 1.5-.5 1.5-.5 1-1 1-1 2 .5 2 .5 1.5-.5 1.5-.5 1-1.5 1-1.5 1-1.5 1-1.5v-.5-.5l4-3.5 4-3.5v3.5 3.5l.5 1 .5 1 1 1.5 1 1.5.5 1.5.5 1.5 2-.5 2-.5h2 2 2.5 2.5v2 2l.5 1 .5 1-6.5-12.5-6.5-12.5-25.5 7-25.5 7 3.5.5 3.5.5-1 6-1 6 1-.5 1-.5 2 .5 2 .5" style="fill:#777b68;stroke:#777b68" />
        <path d="m710 411h2v-2-2-1-1l-1 .5-1 .5-.5-.5-.5-.5-.5-.5-.5-.5-1-.5-1-.5-.5-.5-.5-.5-.5-.5-.5-.5-.5-.5-.5-.5-.5-1-.5-1-1-.5-1-.5.5 1 .5 1-.5 1-.5 1 1 1 1 1 2 .5 2 .5-1 1-1 1 1 1.5 1 1.5 2 1 2 1" style="fill:#79512d;stroke:#79512d" />
        <path d="m138 408l3 1 1-1 1-1 1-1.5 1-1.5.5-1.5.5-1.5 1.5 1 1.5 1 1-1 1-1h2 2v-.5-.5l3.5-8.5 3.5-8.5-2.5-5.5-2.5-5.5-12.5 2.5-12.5 2.5 3 15.5 3 15.5" style="fill:#dc9a46;stroke:#dc9a46" />
        <path d="m297 404l3 1h1 1 1 1l1-.5 1-.5h1 1l.5-.5.5-.5.5-.5.5-.5h1 1l-1-1-1-1-1 .5-1 .5h-2.5-2.5-2-2l-1.5.5-1.5.5.5 1 .5 1" style="fill:#cdcea9;stroke:#cdcea9" />
        <path d="m314 404v1h1.5 1.5l.5-1.5.5-1.5-1-1.5-1-1.5-1.5-.5-1.5-.5-2 .5-2 .5h-2-2l-2-.5-2-.5-.5-.5-.5-.5-1.5.5-1.5.5-1.5-.5-1.5-.5v-.5-.5-1-1h1 1l.5-.5.5-.5h1.5 1.5l.5-.5.5-.5h1 1 1 1v.5.5l.5 1 .5 1 2-1 2-1 .5-1.5.5-1.5-1.5-.5-1.5-.5-2 .5-2 .5-1.5.5-1.5.5-2 .5-2 .5-1.5.5-1.5.5-1.5 1-1.5 1 .5 1.5.5 1.5v1.5 1.5.5.5h2 2l1.5-.5 1.5-.5h2 2 2.5 2.5l1-.5 1-.5 1.5 1 1.5 1 .5 1 .5 1" style="fill:#92aaa6;stroke:#92aaa6" />
        <g style="fill:#bdb189;stroke:#bdb189">
            <path d="m155 400v1l24-8 24-8 14 .5 14 .5 1-.5 1-.5-.5-.5-.5-.5.5-1.5.5-1.5.5-1.5.5-1.5-1-.5-1-.5-12.5-1-12.5-1-13-2-13-2-8-5-8-5-14-5.5-14-5.5h-9-9l6.5 13.5 6.5 13.5 12.5-2.5 12.5-2.5 2.5 5.5 2.5 5.5-3.5 8.5-3.5 8.5" />
            <path d="m400 400h2 2 2l1.5-1 1.5-1-1-1-1-1-.5-1-.5-1 1-.5 1-.5-2.5-.5-2.5-.5h-2-2l-1.5.5-1.5.5-1 .5-1 .5 2.5.5 2.5.5-1 .5-1 .5-1.5.5-1.5.5-1 .5-1 .5 1 1 1 1h2.5 2.5.5.5" />
        </g>
        <path d="m218 398v1h2 2l2-.5 2-.5v-3.5-3.5l-4 3.5-4 3.5" style="fill:#4d5144;stroke:#4d5144" />
        <path d="m294 397l3 1 1.5-.5 1.5-.5 2-.5 2-.5 1-.5 1-.5-.5-1-.5-1v-.5-.5h-1-1-1-1l-.5.5-.5.5h-1.5-1.5l-.5.5-.5.5h-1-1v1 1 .5.5" style="fill:#bdb189;stroke:#bdb189" />
        <g style="fill:#92aaa6;stroke:#92aaa6">
            <path d="m393 393l1 1 1-.5 1-.5 1.5-.5 1.5-.5h2 2l2.5.5 2.5.5-3.5-7-3.5-7-4 6-4 6v1 1" />
            <path d="m1 391l4-26 5-14 5-14 10-4 10-4 7-2 7-2 9-5 9-5 7-1 7-1 5 1 5 1 10-1.5 10-1.5 10.5-3.5 10.5-3.5 8.5-3.5 8.5-3.5 14 1 14 1 1-3 1-3 11.5 1.5 11.5 1.5 10-2 10-2 9.5-.5 9.5-.5 12-2 12-2 3.5-1.5 3.5-1.5 12.5 6.5 12.5 6.5 12.5 8 12.5 8-10-11.5-10-11.5-9.5-10.5-9.5-10.5-12-7-12-7-14-6-14-6-15-3-15-3-14 3-14 3-12.5 1.5-12.5 1.5-14 4-14 4-10.5 6.5-10.5 6.5-6.5-.5-6.5-.5-10 1-10 1-10.5 3.5-10.5 3.5-10 7.5-10 7.5-12 19.5-12 19.5h-.5-.5v20 20 10.5 10.5h.5.5" />
        </g>
        <path d="m459 380l27-15 7-13 7-13-11-5-11-5-14.5 6-14.5 6-1 .5-1 .5-.5.5-.5.5-1 .5-1 .5-.5.5-.5.5-.5 1.5-.5 1.5 8.5 16 8.5 16" style="fill:#cdcea9;stroke:#cdcea9" />
        <path d="m232 377l2 1-9-3.5-9-3.5-10.5-2.5-10.5-2.5-15-2.5-15-2.5 8 5 8 5 13 2 13 2 12.5 1 12.5 1" style="fill:#aa773d;stroke:#aa773d" />
        <g style="fill:#92aaa6;stroke:#92aaa6">
            <path d="m494 377v1l1-.5 1-.5.5-.5.5-.5v-1-1-1-1-2-2l.5-1 .5-1v-1-1l.5-1.5.5-1.5v-1.5-1.5l.5-.5.5-.5.5-1.5.5-1.5v-2-2l-1 .5-1 .5v1 1l-.5 1-.5 1v1 1l-.5.5-.5.5.5.5.5.5-.5 1-.5 1v1 1l-.5.5-.5.5-.5.5-.5.5-.5 1.5-.5 1.5v1.5 1.5 1 1l.5 1 .5 1-.5 1-.5 1" />
            <path d="m390 376h2l1-1 1-1h2.5 2.5l1.5-.5 1.5-.5 2 .5 2 .5 1 1 1 1-.5-2-.5-2-1-1-1-1-1.5.5-1.5.5h-1-1l-1 .5-1 .5-2-.5-2-.5-1.5-.5-1.5-.5-.5-.5-.5-.5 2-.5 2-.5h2 2l2-.5 2-.5 1.5.5 1.5.5.5 1 .5 1-.5-1.5-.5-1.5-1.5-.5-1.5-.5h-2.5-2.5l-1.5.5-1.5.5-2-.5-2-.5h-2-2l-.5 2-.5 2 1 1 1 1-.5 1.5-.5 1.5 2 .5 2 .5" />
            <path d="m429 373l1 1 1-2 1-2 1-1.5 1-1.5-.5-1.5-.5-1.5 1.5-1 1.5-1-.5-1.5-.5-1.5.5-1 .5-1v-1-1l.5-1.5.5-1.5 1-1 1-1 1.5-1 1.5-1 .5-1.5.5-1.5.5-.5.5-.5 1-.5 1-.5.5-.5.5-.5 1-.5 1-.5.5-1 .5-1 .5-1 .5-1-11 18-11 18" />
        </g>
        <path d="m394 371l4 1 1-.5 1-.5h1 1l1.5-.5 1.5-.5h.5.5l-.5-1-.5-1-1.5-.5-1.5-.5-2 .5-2 .5h-2-2l-2 .5-2 .5.5.5.5.5 1.5.5 1.5.5" style="fill:#cdcea9;stroke:#cdcea9" />
        <g style="fill:#4d5144;stroke:#4d5144">
            <path d="m321 360l31-9 3-6 3-6-9.5 3.5-9.5 3.5-12.5 4.5-12.5 4.5 3.5 2.5 3.5 2.5" />
            <path d="m298 356l8-10-7.5-3.5-7.5-3.5v6 6l3.5 2.5 3.5 2.5" />
        </g>
        <path d="m562 355l1 1 1-17.5 1-17.5-1-9.5-1-9.5-.5 26.5-.5 26.5" style="fill:#92aaa6;stroke:#92aaa6" />
        <path d="m455 349l29-3-4.5-6.5-4.5-6.5-10 5-10 5v3 3" style="fill:#fad4aa;stroke:#fad4aa" />
        <g style="fill:#cdcea9;stroke:#cdcea9">
            <path d="m699 335l6-42 3.5-13.5 3.5-13.5v-3-3-.5-.5l-14.5 1-14.5 1-16.5 4.5-16.5 4.5-18.5 15-18.5 15-1-.5-1-.5h-1-1l-.5-.5-.5-.5-1 .5-1 .5-.5-.5-.5-.5.5-.5.5-.5-.5-.5-.5-.5h-1.5-1.5-1-1l-.5.5-.5.5h-1-1l-1 .5-1 .5-1.5.5-1.5.5h-1-1v-1-1l-.5-1.5-.5-1.5h-1.5-1.5l-1.5.5-1.5.5-3 .5-3 .5-1.5.5-1.5.5h-1-1-1.5-1.5l-.5.5-.5.5h-1-1l-.5-.5-.5-.5h-2.5-2.5l6.5 12 6.5 12 7.5-1.5 7.5-1.5 15-1 15-1 7.5-12.5 7.5-12.5 11-9 11-9 15-5 15-5v10 10l1 14 1 14 6 12 6 12" />
            <path d="m1 330l24-39 10-7.5 10-7.5 10.5-3.5 10.5-3.5 10-1 10-1 6.5.5 6.5.5 10.5-6.5 10.5-6.5 14-4 14-4 12.5-1.5 12.5-1.5 14-3 14-3 15 3 15 3 14 6 14 6 12 7 12 7 9.5 10.5 9.5 10.5 10 11.5 10 11.5 1 .5 1 .5 1.5-.5 1.5-.5 1-.5 1-.5.5-.5.5-.5.5-1 .5-1 15.5-6 15.5-6 17-1 17-1 29 4 29 4 1.5-9.5 1.5-9.5v1 1l1 8 1 8-17-3-17-3-18-2-18-2-16.5 2.5-16.5 2.5-17 6-17 6-9.5-10.5-9.5-10.5-8-11.5-8-11.5-12.5-7.5-12.5-7.5 9-4 9-4 16.5-3.5 16.5-3.5 16.5-3.5 16.5-3.5 16-4 16-4 17-3 17-3 16-3 16-3 16-4 16-4 16-3 16-3 16.5-3.5 16.5-3.5 16.5-3.5 16.5-3.5 14.5-2 14.5-2 14 2 14 2h14.5 14.5l10.5 2 10.5 2 8 12.5 8 12.5 7.5 18.5 7.5 18.5v-2-2-2-2-2.5-2.5l-.5-.5-.5-.5-4.5-10.5-4.5-10.5-5.5-11.5-5.5-11.5-5-14-5-14 4.5-11.5 4.5-11.5 11-10 11-10v-2.5-2.5-2-2-.5-.5l-9 6-9 6-10 7.5-10 7.5-12 7-12 7-14 5-14 5-13 5-13 5-15 3-15 3-14.5 3.5-14.5 3.5-14.5 3.5-14.5 3.5-15.5 3-15.5 3-13 4-13 4-14.5 1.5-14.5 1.5-13.5 2.5-13.5 2.5-14 3-14 3-16 4-16 4-14.5 3.5-14.5 3.5-16.5 3.5-16.5 3.5-12 1-12 1-16-3-16-3-17.5-2.5-17.5-2.5-16 1-16 1-11.5 4.5-11.5 4.5-15 3-15 3-15 4-15 4-13 6-13 6-9.5 10-9.5 10-11 18-11 18v2.5 2.5 1 1h.5.5" />
        </g>
        <path d="m394 323l29-14 16.5 2 16.5 2 1-.5 1-.5h.5.5 1 1l.5-.5.5-.5h1 1v-1-1l-.5-1-.5-1-.5-.5-.5-.5-.5.5-.5.5-.5.5-.5.5-.5-1-.5-1h-1-1l-.5-.5-.5-.5-1-.5-1-.5-29-4-29-4-17 1-17 1-15.5 6-15.5 6 22.5 2.5 22.5 2.5 9 4 9 4" style="fill:#92aaa6;stroke:#92aaa6" />
        <g style="fill:#fdffef;stroke:#fdffef">
            <path d="m0 322v1l11-18 11-18 9.5-10 9.5-10 13-6 13-6 15-4 15-4 15-3 15-3 11.5-4.5 11.5-4.5 16-1 16-1 17.5 2.5 17.5 2.5 16 3 16 3 12-1 12-1 16.5-3.5 16.5-3.5 14.5-3.5 14.5-3.5 16-4 16-4 14-3 14-3 13.5-2.5 13.5-2.5 14.5-1.5 14.5-1.5 13-4 13-4 15.5-3 15.5-3 14.5-3.5 14.5-3.5 14.5-3.5 14.5-3.5 15-3 15-3 13-5 13-5 14-5 14-5 12-7 12-7 10-7.5 10-7.5 9-6 9-6v-20-20-20-20-14-14h-6-6-20-20-20-20-11.5-11.5l-16.5 3.5-16.5 3.5-16.5 3-16.5 3-16.5 3.5-16.5 3.5-16.5 3.5-16.5 3.5-16.5 3.5-16.5 3.5-16.5 3.5-16.5 3.5-16.5 3.5-16.5 3.5-16.5 3-16.5 3-16.5 3.5-16.5 3.5-31.5 5.5-31.5 5.5 16.5-3.5 16.5-3.5 16.5-3.5 16.5-3.5 16.5-3.5 16.5-3.5 17-3 17-3 16.5-3.5 16.5-3.5 16-3.5 16-3.5 17-3 17-3 16.5-3.5 16.5-3.5 16.5-3.5 16.5-3.5 25-5.5 25-5.5h-3-3-2-2-2.5-2.5-1-1l-17 3.5-17 3.5-16.5 3.5-16.5 3.5-16.5 3.5-16.5 3.5-17 3-17 3-16.5 3.5-16.5 3.5-16.5 3.5-16.5 3.5-16.5 3.5-16.5 3.5-16.5 3.5-16.5 3.5-32.5 6-32.5 6 15.5-4 15.5-4 16.5-3.5 16.5-3.5 17-3 17-3 16.5-3.5 16.5-3.5 16.5-3.5 16.5-3.5 16.5-3.5 16.5-3.5 16.5-3.5 16.5-3.5 16.5-3.5 16.5-3.5 27.5-5.5 27.5-5.5h-20.5-20.5-19.5-19.5-20-20-20-20-20-20-20-20-20-20-20-20-20-20-20-20-20-20-20-20-20-20-10-10l4.5 7 4.5 7-12 6-12 6v21.5 21.5 19.5 19.5 4 4l16.5-1 16.5-1-12.5 15-12.5 15-1-.5-1-.5-1 .5-1 .5-.5-.5-.5-.5v-1-1-1-1l-.5-.5-.5-.5-1-1-1-1v20.5 20.5 20 20 20 20 20 20 12.5 12.5" />
            <path d="m322 310l34-12 16.5-2.5 16.5-2.5 18 2 18 2 17 3 17 3-1-8-1-8-2-13-2-13 12 8 12 8 24 14.5 24 14.5h.5.5l-1-8.5-1-8.5-8.5-11.5-8.5-11.5-5.5-13.5-5.5-13.5 12 6 12 6 9 11 9 11 19.5 11.5 19.5 11.5 3-.5 3-.5 1.5-.5 1.5-.5h1.5 1.5l14-6 14-6 11-5 11-5-7-9-7-9 12.5 8 12.5 8 16.5-4.5 16.5-4.5 14.5-1 14.5-1v-2-2-2-2-2-2l-7.5-18.5-7.5-18.5-8-12.5-8-12.5-1-.5-1-.5-2-.5-2-.5-1.5-.5-1.5-.5h-1-1l-1-.5-1-.5-1-1-1-1h-1-1-1-1l-1 1-1 1h-14.5-14.5l-14-2-14-2-14.5 2-14.5 2-16.5 3.5-16.5 3.5-16.5 3.5-16.5 3.5-16 3-16 3-16 4-16 4-16 3-16 3-17 3-17 3-16 4-16 4-16.5 3.5-16.5 3.5-16.5 3.5-16.5 3.5-9 4-9 4 12.5 7.5 12.5 7.5 8 11.5 8 11.5 9.5 10.5 9.5 10.5" />
        </g>
        <g style="fill:#fad4aa;stroke:#fad4aa">
            <path d="m526 306l-14-36 2-4 2-4 10 9 10 9 12 8.5 12 8.5h2.5 2.5l.5.5.5.5h1 1l.5-.5.5-.5h1.5 1.5 1 1l1.5-.5 1.5-.5-19.5-11.5-19.5-11.5-9-11-9-11-12-6-12-6 5.5 13.5 5.5 13.5 8.5 11.5 8.5 11.5 1 8.5 1 8.5" />
            <path d="m521 305l4 1-24-14.5-24-14.5-12-8-12-8 2 13 2 13v-1-1l6.5-2.5 6.5-2.5 12.5 7.5 12.5 7.5 13 5 13 5" />
            <path d="m613 300l37-30-12.5-8-12.5-8 7 9 7 9-11 5-11 5-14 6-14 6 .5 1.5.5 1.5v1 1h1 1l1.5-.5 1.5-.5 1-.5 1-.5h1 1l.5-.5.5-.5h1 1 1.5 1.5l.5.5.5.5-.5.5-.5.5.5.5.5.5 1-.5 1-.5.5.5.5.5h1 1l1 .5 1 .5" />
        </g>
        <g style="fill:#92aaa6;stroke:#92aaa6">
            <path d="m676 283h2l.5-.5.5-.5v-1-1-1.5-1.5l.5-.5.5-.5h-1-1v-1-1l.5-.5.5-.5v-.5-.5-1-1-1-1l-.5-.5-.5-.5.5-1 .5-1h-1-1l-.5.5-.5.5-1.5.5-1.5.5 2.5.5 2.5.5v2 2l-1 1-1 1-.5 2-.5 2-.5 1.5-.5 1.5.5 1 .5 1h.5.5" />
            <path d="m711 233l1 1v-3-3-1.5-1.5l-1 .5-1 .5-5-15.5-5-15.5-3-12-3-12-2-9.5-2-9.5 4.5 3.5 4.5 3.5 6.5 8.5 6.5 8.5v-21-21-8-8l-11 10-11 10-4.5 11.5-4.5 11.5 5 14 5 14 5.5 11.5 5.5 11.5 4.5 10.5 4.5 10.5" />
        </g>
        <path d="m710 226l2-1v-21.5-21.5-3-3l-6.5-8.5-6.5-8.5-4.5-3.5-4.5-3.5 2 9.5 2 9.5 3 12 3 12 5 15.5 5 15.5" style="fill:#777b68;stroke:#777b68" />
        <g style="fill:#fad4aa;stroke:#fad4aa">
            <path d="m679 184l2 1-10.5-2-10.5-2 1-1 1-1h1 1 1 1l1 1 1 1 1 .5 1 .5h1 1l1.5.5 1.5.5 2 .5 2 .5" />
            <path d="m8 144l25-30-16.5 1-16.5 1v2 2 2 2 2.5 2.5 2 2 1.5 1.5l1 1 1 1 .5.5.5.5v1 1 1 1l.5.5.5.5 1-.5 1-.5 1 .5 1 .5" />
        </g>
        <g style="fill:#cdcea9;stroke:#cdcea9">
            <path d="m239 78l36-6 16.5-3.5 16.5-3.5 16.5-3.5 16.5-3.5 16.5-3.5 16.5-3.5 4-1 4-1-18 3.5-18 3.5-16.5 3.5-16.5 3.5-17 3-17 3-16.5 3.5-16.5 3.5-3.5 1-3.5 1" />
            <path d="m237 72l63-11 16.5-3.5 16.5-3.5 16.5-3 16.5-3 16.5-3.5 16.5-3.5 16.5-3.5 16.5-3.5 16.5-3.5 16.5-3.5 16.5-3.5 16.5-3.5 16.5-3.5 16.5-3.5 16.5-3 16.5-3 16.5-3.5 16.5-3.5h-2.5-2.5-2-2-1.5-1.5l-25 5.5-25 5.5-16.5 3.5-16.5 3.5-16.5 3.5-16.5 3.5-17 3-17 3-16 3.5-16 3.5-16.5 3.5-16.5 3.5-17 3-17 3-16.5 3.5-16.5 3.5-16.5 3.5-16.5 3.5-16.5 3.5-16.5 3.5" />
            <path d="m237 67l65-12 16.5-3.5 16.5-3.5 16.5-3.5 16.5-3.5 16.5-3.5 16.5-3.5 16.5-3.5 16.5-3.5 17-3 17-3 16.5-3.5 16.5-3.5 16.5-3.5 16.5-3.5 17-3.5 17-3.5h-1.5-1.5-2.5-2.5-2-2-.5-.5l-27.5 5.5-27.5 5.5-16.5 3.5-16.5 3.5-16.5 3.5-16.5 3.5-16.5 3.5-16.5 3.5-16.5 3.5-16.5 3.5-16.5 3.5-16.5 3.5-17 3-17 3-16.5 3.5-16.5 3.5-15.5 4-15.5 4" />
            <path d="m382 48v1l18.5-3 18.5-3 16.5-3.5 16.5-3.5 16.5-3.5 16.5-3.5 16.5-3.5 16.5-3.5 16.5-3.5 16.5-3.5 11-2.5 11-2.5h-2.5-2.5l-18 3.5-18 3.5-16.5 3.5-16.5 3.5-16.5 3.5-16.5 3.5-16.5 3.5-16.5 3.5-16.5 3.5-16.5 3.5-9 1.5-9 1.5" />
        </g>
        <g style="fill:#fad4aa;stroke:#fad4aa">
            <path d="m0 25v1l12-6 12-6-4.5-7-4.5-7h-2-2-2-2-2-2-1.5-1.5v1 1 2 2 2.5 2.5 2 2 2.5 2.5 2 2 .5.5" />
            <path d="m568 9v1h2.5 2.5l13.5-3.5 13.5-3.5-16 3-16 3" />
        </g>
    </g>
</svg>
