<svg xmlns="http://www.w3.org/2000/svg" viewBox="0 0 712 960"><path d="m0 0h712v960h-712z" style="fill:#bdc4be"/><g style="stroke-linejoin:round;stroke-width:.7"><path d="m0 959v1h1.5 1.5 2 2 2.5 2.5 2 2 2 2v-.5-.5l-.5-1-.5-1h-2-2l-.5-.5-.5-.5-.5-1-.5-1-1.5-.5-1.5-.5-1.5-.5-1.5-.5-.5-.5-.5-.5-1-.5-1-.5-.5-1.5-.5-1.5.5-.5.5-.5.5-.5.5-.5-.5-.5-.5-.5-1-.5-1-.5-1-.5-1-.5v1.5 1.5 2.5 2.5 2 2 2 2 .5.5" style="fill:#383b32;stroke:#383b32"/><path d="m20 959v1h1.5 1.5 2 2 2.5 2.5 2 2 2.5 2.5 2 2 2.5 2.5v-.5-.5h17 17 15.5 15.5 26.5 26.5v-.5-.5h-16-16-15.5-15.5l-27-.5-27-.5h-1-1l-1 .5-1 .5v-.5-.5l-1 .5-1 .5-1.5-.5-1.5-.5-1.5-1-1.5-1-1 1-1 1h-1-1l-.5.5-.5.5h-1.5-1.5l-2-.5-2-.5-1.5-.5-1.5-.5-1 .5-1 .5-1.5-.5-1.5-.5-1-.5-1-.5-2-.5-2-.5.5 1 .5 1 .5.5.5.5h2 2l.5 1 .5 1" style="fill:#a07566;stroke:#a07566"/><path d="m50 959v1h17 17 15.5 15.5 15.5 15.5 11 11v-.5-.5h-26.5-26.5-15.5-15.5-17-17" style="fill:#939b96;stroke:#939b96"/><path d="m168 959v1h1.5 1.5.5.5v-.5-.5l-3.5-13-3.5-13-3-13-3-13-3.5-12-3.5-12 .5-14 .5-14 1.5-13 1.5-13 3-12.5 3-12.5 3-12.5 3-12.5 3-12.5 3-12.5 4-4.5 4-4.5 3.5-6 3.5-6-1-6.5-1-6.5-7-8.5-7-8.5-3.5-12-3.5-12-4-11.5-4-11.5-3.5-12.5-3.5-12.5-4.5-12.5-4.5-12.5 4 12.5 4 12.5 3.5 12 3.5 12 3.5 12 3.5 12 3.5 12 3.5 12 2 13.5 2 13.5-1.5 13-1.5 13-3 13-3 13-3 12.5-3 12.5-2.5 13-2.5 13-1.5 13-1.5 13-.5 14-.5 14 3 12.5 3 12.5 5.5 23 5.5 23v.5.5" style="fill:#78786a;stroke:#78786a"/><path d="m172 959v1h1.5 1.5v-.5-.5l1.5-9.5 1.5-9.5 7 3 7 3-4.5-10-4.5-10-9.5-6-9.5-6-3.5-11-3.5-11-1-13.5-1-13.5 3.5-7 3.5-7 3 9.5 3 9.5-1 2.5-1 2.5 8.5 1 8.5 1 6.5-9 6.5-9 2-6.5 2-6.5-5.5-5-5.5-5-2-3.5-2-3.5-5-9-5-9-5.5-6-5.5-6 6-2.5 6-2.5-1.5-12-1.5-12 4.5-10 4.5-10 4.5-8 4.5-8 5.5-10 5.5-10 1-9.5 1-9.5 11.5-2 11.5-2 7-7.5 7-7.5-3-12.5-3-12.5-4.5 8-4.5 8-6.5-9.5-6.5-9.5 10.5-4 10.5-4 7 2.5 7 2.5-4-8.5-4-8.5-5.5 2-5.5 2-8.5-3-8.5-3 5-8.5 5-8.5 9.5-1 9.5-1-9-6.5-9-6.5 5-6.5 5-6.5-2-8.5-2-8.5h-9.5-9.5l-10.5-2-10.5-2-3-2-3-2-7.5-8-7.5-8-5.5-2-5.5-2-2.5-2-2.5-2-3.5-5-3.5-5-3 5.5-3 5.5-6-3.5-6-3.5 6.5-5 6.5-5 10.5-2 10.5-2 1.5-3 1.5-3-1-6.5-1-6.5-.5-13-.5-13-5.5-2-5.5-2-1.5-.5-1.5-.5-.5 1-.5 1v-1-1l-.5-.5-.5-.5-.5-1-.5-1-1 1-1 1-.5.5-.5.5v.5.5l-.5 1.5-.5 1.5h-1-1-2-2v2 2l.5 1.5.5 1.5 1 1.5 1 1.5 1-1 1-1 1-1 1-1v-1-1h1.5 1.5v2 2 2.5 2.5l7.5-6 7.5-6 .5 13 .5 13-6.5 9-6.5 9-8 7.5-8 7.5-.5 5-.5 5-1 9.5-1 9.5 3 12 3 12 4 13.5 4 13.5 4.5 12.5 4.5 12.5 3.5 12.5 3.5 12.5 4 11.5 4 11.5 3.5 12 3.5 12 7 8.5 7 8.5 1 6.5 1 6.5-3.5 6-3.5 6-4 4.5-4 4.5-3 12.5-3 12.5-3 12.5-3 12.5-3 12.5-3 12.5-1.5 13-1.5 13-.5 14-.5 14 3.5 12 3.5 12 3 13 3 13 3.5 13 3.5 13" style="fill:#595b4b;stroke:#595b4b"/><path d="m175 959v1h1.5 1.5 2 2 .5.5v-.5-.5l.5-1 .5-1 .5-.5.5-.5.5-.5.5-.5.5-.5.5-.5 1-.5 1-.5h2 2 1 1l1 .5 1 .5v2 2l.5.5.5.5-1 .5-1 .5h2 2 2 2 1 1v-.5-.5l-5.5-11-5.5-11 2-2.5 2-2.5 7 6.5 7 6.5 3.5-9 3.5-9 5.5-9 5.5-9-4.5-7-4.5-7-8-1.5-8-1.5-9-5.5-9-5.5 3.5-9 3.5-9 6-7 6-7-3-7.5-3-7.5 2.5-5 2.5-5-2-8.5-2-8.5-1-7.5-1-7.5 9 3.5 9 3.5 4 7.5 4 7.5-5.5 9-5.5 9-.5 10-.5 10 8.5 7 8.5 7 6 8.5 6 8.5 10-2.5 10-2.5 6.5 7.5 6.5 7.5-8.5 2-8.5 2-2 6.5-2 6.5 12.5 2.5 12.5 2.5-.5-13-.5-13-4-11.5-4-11.5-5-9.5-5-9.5-6-9.5-6-9.5-3.5-13-3.5-13v2 2l.5.5.5.5.5 1 .5 1v1 1l.5.5.5.5h-1-1l-8.5-8.5-8.5-8.5 1-6.5 1-6.5 6.5 9.5 6.5 9.5-1-13-1-13 5.5-3.5 5.5-3.5 10.5-5.5 10.5-5.5-1-2.5-1-2.5-12-4-12-4-11 2.5-11 2.5-8-4.5-8-4.5 3.5-9 3.5-9 .5-9 .5-9 7 2.5 7 2.5 2.5 9 2.5 9 2-9.5 2-9.5 6.5 9 6.5 9 9.5 3.5 9.5 3.5 7 6.5 7 6.5 3 4.5 3 4.5 3 3.5 3 3.5 4.5 4 4.5 4 4.5 8 4.5 8 3.5 4 3.5 4h10.5 10.5l2.5 7 2.5 7 1.5 9 1.5 9 3-5.5 3-5.5-4 9.5-4 9.5-9-5-9-5 1 8.5 1 8.5-5 5.5-5 5.5-5.5 6-5.5 6 3 10.5 3 10.5 2.5 12.5 2.5 12.5 2.5 9.5 2.5 9.5-2-13-2-13 1-5.5 1-5.5 2.5-7 2.5-7-3-8.5-3-8.5 5.5 2 5.5 2 4 10.5 4 10.5 8 7.5 8 7.5 8.5 1.5 8.5 1.5 3.5-8 3.5-8-5-8.5-5-8.5-1.5-10-1.5-10 7.5 8 7.5 8 4.5 8 4.5 8 4.5 11 4.5 11 2 13 2 13-5-9-5-9-6.5-1-6.5-1-5 9.5-5 9.5-.5 1-.5 1h2 2l2-.5 2-.5 1.5.5 1.5.5 1.5.5 1.5.5h2.5 2.5 2 2l1.5.5 1.5.5 6.5-7.5 6.5-7.5-4.5-11-4.5-11-5-10.5-5-10.5-6.5-9-6.5-9 2.5-10 2.5-10-8.5-4.5-8.5-4.5-3.5-11-3.5-11 6-7.5 6-7.5-2.5-10-2.5-10-6 1-6 1-6-11-6-11-4 7.5-4 7.5-4-5.5-4-5.5-6 2.5-6 2.5 1-9.5 1-9.5 7-7.5 7-7.5 6 7.5 6 7.5 9 6.5 9 6.5 6 8.5 6 8.5 5.5 10 5.5 10 7.5 8 7.5 8 8 7.5 8 7.5 13 12 13 12-5.5-11.5-5.5-11.5-7.5-8-7.5-8-8-7.5-8-7.5-6.5-9-6.5-9-2.5-11-2.5-11 10.5-14 10.5-14-1-1.5-1-1.5-.5-1.5-.5-1.5-.5-1.5-.5-1.5-.5-2-.5-2-1-1-1-1 .5 2 .5 2 .5 1.5.5 1.5.5 2 .5 2 1 1 1 1h-1-1l-4-6-4-6-2.5-8-2.5-8-2-9.5-2-9.5-9.5-6-9.5-6 5-7.5 5-7.5-3.5-10-3.5-10-6-8.5-6-8.5.5-7 .5-7 2-2.5 2-2.5-2-17-2-17-.5-.5-.5-.5-.5-2-.5-2-11 .5-11 .5h-1.5-1.5-1-1l-.5-.5-.5-.5-.5-.5-.5-.5-1-.5-1-.5-1-1-1-1-.5-.5-.5-.5v-1.5-1.5l1-1 1-1 .5-.5.5-.5 1-.5 1-.5h2 2l.5.5.5.5.5-.5.5-.5.5-.5.5-.5-.5-2-.5-2-.5-.5-.5-.5v-9.5-9.5l-1-8.5-1-8.5-10.5 1-10.5 1-2 2-2 2 .5 8 .5 8-11.5 4-11.5 4-5 7.5-5 7.5-11.5-2.5-11.5-2.5-7 7.5-7 7.5-10.5-5.5-10.5-5.5.5-8 .5-8-9 2.5-9 2.5-6.5-8.5-6.5-8.5v1.5 1.5l.5 2 .5 2 1.5.5 1.5.5-2 .5-2 .5-.5.5-.5.5v1.5 1.5l-1 1-1 1h-1-1l-1-1.5-1-1.5v-2-2l1.5-1 1.5-1v-1-1-1.5-1.5l2-.5 2-.5 1.5-8 1.5-8 10.5 3 10.5 3 2 9.5 2 9.5 11.5 3 11.5 3 4-7.5 4-7.5-2-1.5-2-1.5h-1.5-1.5l-1 .5-1 .5v1.5 1.5l1 1 1 1 .5.5.5.5v1 1l-.5.5-.5.5-1 .5-1 .5h-1-1-1-1-1-1l-1.5-.5-1.5-.5h-1.5-1.5l-1-1.5-1-1.5-.5-1.5-.5-1.5 1.5-1 1.5-1 1-1 1-1 1-1 1-1 2-.5 2-.5 1.5.5 1.5.5.5-1.5.5-1.5-.5-2-.5-2v-1-1l.5-1 .5-1-1-1-1-1-.5-.5-.5-.5-.5-1-.5-1-1-1-1-1-1.5-.5-1.5-.5-.5-.5-.5-.5-.5-1-.5-1v2 2l-.5.5-.5.5-.5 1-.5 1-.5 1-.5 1-.5 1.5-.5 1.5-1.5-.5-1.5-.5-5-10.5-5-10.5-13-8.5-13-8.5v1 1l1.5 10.5 1.5 10.5 8-4.5 8-4.5 4.5 12 4.5 12-9.5-1.5-9.5-1.5-10-3.5-10-3.5-1.5-7-1.5-7 6-5.5 6-5.5-1 .5-1 .5-1-.5-1-.5-1.5-.5-1.5-.5-.5-.5-.5-.5-.5-1-.5-1h-1-1l-.5.5-.5.5h-1-1-1.5-1.5-2-2-1-1l-1.5.5-1.5.5 5.5 2 5.5 2 .5 13 .5 13 1 6.5 1 6.5-1.5 3-1.5 3-10.5 2-10.5 2-6.5 5-6.5 5 6 3.5 6 3.5 3-5.5 3-5.5 3.5 5 3.5 5 2.5 2 2.5 2 5.5 2 5.5 2 7.5 8 7.5 8 3 2 3 2 10.5 2 10.5 2h9.5 9.5l2 8.5 2 8.5-5 6.5-5 6.5 9 6.5 9 6.5-9.5 1-9.5 1-5 8.5-5 8.5 8.5 3 8.5 3 5.5-2 5.5-2 4 8.5 4 8.5-7-2.5-7-2.5-10.5 4-10.5 4 6.5 9.5 6.5 9.5 4.5-8 4.5-8 3 12.5 3 12.5-7 7.5-7 7.5-11.5 2-11.5 2-1 9.5-1 9.5-5.5 10-5.5 10-4.5 8-4.5 8-4.5 10-4.5 10 1.5 12 1.5 12-6 2.5-6 2.5 5.5 6 5.5 6 5 9 5 9 2 3.5 2 3.5 5.5 5 5.5 5-2 6.5-2 6.5-6.5 9-6.5 9-8.5-1-8.5-1 1-2.5 1-2.5-3-9.5-3-9.5-3.5 7-3.5 7 1 13.5 1 13.5 3.5 11 3.5 11 9.5 6 9.5 6 4.5 10 4.5 10-7-3-7-3-1.5 9.5-1.5 9.5" style="fill:#383b32;stroke:#383b32"/><g style="fill:#20251e;stroke:#20251e"><path d="m183 959v1h1.5 1.5 2 2 2.5 2.5.5.5l1-.5 1-.5-.5-.5-.5-.5v-2-2l-1-.5-1-.5h-1-1-2-2l-1 .5-1 .5-.5.5-.5.5-.5.5-.5.5-.5.5-.5.5-.5 1-.5 1"/><path d="m206 959v1h17 17 12.5 12.5v-.5-.5l-9.5-.5-9.5-.5 12.5-2 12.5-2-6.5-8-6.5-8-8.5-7-8.5-7 4.5-4 4.5-4 14.5 2.5 14.5 2.5.5-1.5.5-1.5v-1.5-1.5l-12.5-2.5-12.5-2.5 2-6.5 2-6.5 8.5-2 8.5-2-6.5-7.5-6.5-7.5-10 2.5-10 2.5-6-8.5-6-8.5-8.5-7-8.5-7 .5-10 .5-10 5.5-9 5.5-9-4-7.5-4-7.5-9-3.5-9-3.5 1 7.5 1 7.5 2 8.5 2 8.5-2.5 5-2.5 5 3 7.5 3 7.5-6 7-6 7-3.5 9-3.5 9 9 5.5 9 5.5 8 1.5 8 1.5 4.5 7 4.5 7-5.5 9-5.5 9-3.5 9-3.5 9-7-6.5-7-6.5-2 2.5-2 2.5 5.5 11 5.5 11"/></g><path d="m265 959v1h1.5 1.5 1.5 1.5v-.5-.5l.5-1 .5-1v-1-1l.5-1 .5-1v-2-2-1-1l-.5-1-.5-1 .5-1.5.5-1.5-.5-.5-.5-.5h-1.5-1.5l-1.5-.5-1.5-.5v-.5-.5l-10-7-10-7 5.5-3 5.5-3 4 6.5 4 6.5h.5.5l.5.5.5.5 1 .5 1 .5.5-.5.5-.5.5-.5.5-.5-.5-.5-.5-.5-.5-1-.5-1h-1-1l.5-.5.5-.5h1 1l1-.5 1-.5.5-.5.5-.5.5-.5.5-.5h1 1 1 1l.5-2 .5-2-14.5-2.5-14.5-2.5-4.5 4-4.5 4 8.5 7 8.5 7 6.5 8 6.5 8-12.5 2-12.5 2 9.5.5 9.5.5" style="fill:#383b32;stroke:#383b32"/><path d="m271 959v1h1 1v-.5-.5l2.5-13.5 2.5-13.5 3.5-12.5 3.5-12.5-1.5-12-1.5-12-4.5-11-4.5-11-5-10.5-5-10.5-5-10.5-5-10.5-5-10.5-5-10.5 2-12.5 2-12.5.5-1 .5-1 1-1.5 1-1.5-5.5 3.5-5.5 3.5 1 13 1 13 .5.5.5.5 3.5 13 3.5 13 6 9.5 6 9.5 5 9.5 5 9.5 4 11.5 4 11.5.5 13 .5 13v1.5 1.5l-.5 1.5-.5 1.5-.5 2-.5 2h-1-1-1-1l-.5.5-.5.5-.5.5-.5.5-1 .5-1 .5h-1-1l-.5.5-.5.5h1 1l.5 1 .5 1 .5.5.5.5-.5.5-.5.5-.5.5-.5.5-1-.5-1-.5-.5-.5-.5-.5h-.5-.5l.5 2 .5 2 2 .5 2 .5-.5 1.5-.5 1.5h-1.5-1.5l1.5.5 1.5.5h1.5 1.5l.5.5.5.5-.5 1.5-.5 1.5.5 1 .5 1v1 1 2 2l-.5 1-.5 1v1 1l-.5 1-.5 1" style="fill:#5a402b;stroke:#5a402b"/><path d="m273 959v1h1.5 1.5 2 2 2.5 2.5 2 2 2.5 2.5 2 2 2.5 2.5 1.5 1.5v-.5-.5l-9-6.5-9-6.5 5-8.5 5-8.5 5.5-9 5.5-9 2.5-14 2.5-14-.5-1.5-.5-1.5-1-1-1-1-.5-2-.5-2-.5-1.5-.5-1.5-.5-2-.5-2v-2-2-2.5-2.5l-1-1-1-1-.5-2-.5-2 .5-2.5.5-2.5v-1.5-1.5l-.5-1.5-.5-1.5.5-1 .5-1-1-1-1-1v1 1l-.5-1-.5-1-.5-1.5-.5-1.5v-1-1l-.5-1-.5-1-.5-1.5-.5-1.5.5 2.5.5 2.5.5 1.5.5 1.5v2.5 2.5 2 2l.5 1.5.5 1.5 2.5 12.5 2.5 12.5 3 11.5 3 11.5-7.5 8-7.5 8-5.5 11-5.5 11-.5-13-.5-13 1.5-12 1.5-12-5.5-9-5.5-9-4.5-10-4.5-10-4.5-11-4.5-11-3.5-9-3.5-9-3-6.5-3-6.5 7.5-12 7.5-12h1.5 1.5l.5-1 .5-1h-1.5-1.5l-1 .5-1 .5-1.5 1-1.5 1-1.5.5-1.5.5-2 .5-2 .5-1.5.5-1.5.5-1 .5-1 .5-2 12.5-2 12.5 5 10.5 5 10.5 5 10.5 5 10.5 5 10.5 5 10.5 4.5 11 4.5 11 1.5 12 1.5 12-3.5 12.5-3.5 12.5-2.5 13.5-2.5 13.5" style="fill:#78563c;stroke:#78563c"/><path d="m306 959v1h1.5 1.5.5.5v-.5-.5l-9-5.5-9-5.5 5.5-7.5 5.5-7.5 5-6.5 5-6.5-.5 6-.5 6 7 1.5 7 1.5 12.5 1 12.5 1 1 11.5 1 11.5h1.5 1.5v-.5-.5l-.5-2-.5-2v-2-2l.5-.5.5-.5v-1-1l.5-.5.5-.5 1-1 1-1 1-.5 1-.5h1 1l1-.5 1-.5h1 1l.5-.5.5-.5h1 1l1-.5 1-.5h1 1l.5-.5.5-.5h1 1l1-.5 1-.5h1 1l.5-.5.5-.5h1 1l.5-.5.5-.5 1 .5 1 .5 1-1 1-1h1 1 1 1l1-.5 1-.5h1 1l1-.5 1-.5-1.5-.5-1.5-.5h-2-2-2.5-2.5l-1.5-.5-1.5-.5-1.5-.5-1.5-.5-2 .5-2 .5h-2-2l.5-1 .5-1h-1.5-1.5l-1 .5-1 .5-1 .5-1 .5h-1-1-1.5-1.5l-1.5-.5-1.5-.5h-2.5-2.5-2-2-2.5-2.5l-1.5.5-1.5.5-1.5-.5-1.5-.5h-2-2-1-1l-1-.5-1-.5h-1-1l-1-.5-1-.5-2.5-9.5-2.5-9.5-2.5-12.5-2.5-12.5-.5-.5-.5-.5-1-.5-1-.5-2.5 14-2.5 14-5.5 9-5.5 9-5 8.5-5 8.5 9 6.5 9 6.5" style="fill:#5a402b;stroke:#5a402b"/><path d="m310 959v1h1.5 1.5 2 2 2.5 2.5 2 2 2.5 2.5 2 2 2.5 2.5 2 2 2 2 2.5 2.5l-1-11.5-1-11.5-12.5-1-12.5-1-7-1.5-7-1.5.5-6 .5-6-5 6.5-5 6.5-5.5 7.5-5.5 7.5 9 5.5 9 5.5" style="fill:#581c13;stroke:#581c13"/><path d="m356 959v1h1.5 1.5 1 1v-.5-.5l-1-1.5-1-1.5v-2-2l1-1.5 1-1.5h-1.5-1.5l.5-1.5.5-1.5v-.5-.5l-1 1-1 1-.5.5-.5.5v1 1l-.5.5-.5.5v2 2l.5 2 .5 2" style="fill:#a07566;stroke:#a07566"/><path d="m361 959v1h1.5 1.5.5.5v-.5-.5l9.5.5 9.5.5h17.5 17.5 15.5 15.5 15.5 15.5 15.5 15.5 15.5 15.5 15.5 15.5 15.5 15.5 8.5 8.5v-.5-.5l-17-.5-17-.5h21 21l-.5-1.5-.5-1.5-9-2-9-2-11-.5-11-.5-12.5-1-12.5-1-9 .5-9 .5-10-.5-10-.5-14 .5-14 .5 4.5-2 4.5-2 13-2.5 13-2.5 13-2.5 13-2.5 12-3.5 12-3.5 7 1.5 7 1.5 11.5-3 11.5-3-9.5-3.5-9.5-3.5 6-7.5 6-7.5 10-2.5 10-2.5-.5-6-.5-6-8-7.5-8-7.5-8-7.5-8-7.5h5.5 5.5l6-6.5 6-6.5 9.5 1 9.5 1-9 5.5-9 5.5 7 3.5 7 3.5 8 1.5 8 1.5 9 3 9 3 5.5-6 5.5-6-.5-4-.5-4 .5-9 .5-9v-7.5-7.5l2.5-8 2.5-8 7-5.5 7-5.5 1-8.5 1-8.5v-5.5-5.5h-10.5-10.5l-9-.5-9-.5-7 1.5-7 1.5 3-3.5 3-3.5 10.5-1.5 10.5-1.5 17-5.5 17-5.5v-2-2l-14 1-14 1-13.5 2-13.5 2-14 1.5-14 1.5-9.5 2-9.5 2-4 4.5-4 4.5-10-.5-10-.5-11.5 3-11.5 3-13.5 1-13.5 1-11 .5-11 .5-10.5 1-10.5 1-13 1-13 1-15 1.5-15 1.5-5.5-7-5.5-7-4.5-11-4.5-11-5-10.5-5-10.5-5-10.5-5-10.5-3-11.5-3-11.5-4-12-4-12-4-11.5-4-11.5-2.5-13-2.5-13-3-12.5-3-12.5-1.5-14-1.5-14v-13.5-13.5l-2.5-12-2.5-12-1.5-13-1.5-13-.5-9-.5-9-.5-11-.5-11 1-13.5 1-13.5-.5-.5-.5-.5.5-13.5.5-13.5 4.5-18.5 4.5-18.5 5.5-9 5.5-9h7 7l8 1.5 8 1.5 4.5 6 4.5 6 2 8.5 2 8.5 5.5 1 5.5 1 1 2.5 1 2.5.5 2 .5 2 7-7.5 7-7.5-3 7.5-3 7.5 3 6.5 3 6.5 5.5-4.5 5.5-4.5 3.5 2 3.5 2 2 4.5 2 4.5h2.5 2.5l3-.5 3-.5 2.5 1.5 2.5 1.5 5-8.5 5-8.5.5 2 .5 2 1.5 7 1.5 7 5-3.5 5-3.5h1.5 1.5l8.5 1 8.5 1 4.5-5.5 4.5-5.5 5 1.5 5 1.5 3-1.5 3-1.5 6.5 1 6.5 1 8-2.5 8-2.5 9 .5 9 .5-2-7.5-2-7.5 6.5-6 6.5-6 3 .5 3 .5 6-.5 6-.5 6 3.5 6 3.5 3.5-2.5 3.5-2.5 9.5 1 9.5 1 4-2.5 4-2.5h4.5 4.5l3.5-2 3.5-2 4-1.5 4-1.5 4.5-1 4.5-1 6-3.5 6-3.5v-17-17-15.5-15.5-15.5-15.5-15.5-15.5-15.5-15.5-15.5-15.5-15.5-15.5-14.5-14.5h-10.5-10.5l-5 .5-5 .5-11.5-3.5-11.5-3.5-11-1.5-11-1.5-6.5 3-6.5 3-4.5-3-4.5-3-11-.5-11-.5-6-2.5-6-2.5-7 3.5-7 3.5-9 1.5-9 1.5-2.5 4-2.5 4-1-4.5-1-4.5 6-3.5 6-3.5-9-1.5-9-1.5-8 1.5-8 1.5-7.5-.5-7.5-.5-6-2.5-6-2.5-4-.5-4-.5h-6.5-6.5l-10.5-4-10.5-4-6-.5-6-.5-11 .5-11 .5-6.5 7-6.5 7-1.5 9-1.5 9-11 3.5-11 3.5-12.5 1-12.5 1-5.5-8-5.5-8 3-8.5 3-8.5-7.5-7.5-7.5-7.5-.5 13-.5 13v14.5 14.5 15.5 15.5l.5 12 .5 12v14.5 14.5l.5 14 .5 14v14.5 14.5l6 9.5 6 9.5 6 12.5 6 12.5.5 1 .5 1-.5 1-.5 1v1 1l.5 1 .5 1 .5 1.5.5 1.5v2 2 1 1l.5 1 .5 1 .5 1.5.5 1.5-.5.5-.5.5v1.5 1.5l-.5 1.5-.5 1.5.5.5.5.5.5 1 .5 1 .5 2 .5 2-.5 1.5-.5 1.5-.5 1.5-.5 1.5-.5 1.5-.5 1.5v1 1l-.5 1-.5 1-.5 1.5-.5 1.5-.5.5-.5.5-1 .5-1 .5-.5 1.5-.5 1.5-1 1-1 1-2 24-2 24v2 2 1 1l-.5 1-.5 1v1 1l-.5.5-.5.5v1 1l-.5 1-.5 1-1 1-1 1-.5.5-.5.5-.5 1-.5 1-1 1-1 1-.5.5-.5.5v-1.5-1.5l-1 1-1 1v1 1l.5.5.5.5.5 1 .5 1v1 1l.5.5.5.5 1 .5 1 .5 2 5 2 5-1.5 12-1.5 12 .5 13 .5 13 4 10.5 4 10.5 2 14 2 14 .5 15.5.5 15.5v2 2 1 1 1 1 1.5 1.5 1 1l.5.5.5.5v1 1 1 1 1.5 1.5l.5.5.5.5v1 1 1 1l.5.5.5.5.5 2 .5 2 1 1 1 1v2.5 2.5l.5 1.5.5 1.5.5 2 .5 2v2 2l1 1 1 1v2.5 2.5l.5 1.5.5 1.5v1.5 1.5l3.5 13 3.5 13 6 22 6 22 .5 1 .5 1 .5 1 .5 1 .5 2 .5 2 .5 1.5.5 1.5 1 1.5 1 1.5 1 1 1 1 1 1.5 1 1.5 1 1 1 1 .5 2 .5 2 .5 1.5.5 1.5.5 1.5.5 1.5 1 1.5 1 1.5.5 1 .5 1 1 2 1 2 .5 1.5.5 1.5 1 1.5 1 1.5.5 1.5.5 1.5v2.5 2.5l.5 1.5.5 1.5v1 1l1 1 1 1 9 15 9 15 14-.5 14-.5 13-.5 13-.5 12-1.5 12-1.5-8 2.5-8 2.5 1 1.5 1 1.5 2.5 10.5 2.5 10.5 1.5 4 1.5 4-5 3.5-5 3.5.5 6 .5 6-1 5.5-1 5.5 5.5-8 5.5-8 12-2.5 12-2.5 12.5-2 12.5-2-1 5.5-1 5.5-12 2.5-12 2.5-3 8.5-3 8.5-2.5 8-2.5 8-5.5 8-5.5 8 3.5 8.5 3.5 8.5 8 6.5 8 6.5 8.5 7 8.5 7-7.5 4-7.5 4-13.5-1-13.5-1-7-8.5-7-8.5-6-8.5-6-8.5h-11.5-11.5l.5 15 .5 15-.5 10-.5 10-9.5-4-9.5-4-12 .5-12 .5-16 3.5-16 3.5-2-.5-2-.5h-2-2l-2 .5-2 .5-1-1-1-1-1.5.5-1.5.5-1 1.5-1 1.5v2 2l1 1.5 1 1.5" style="fill:#939b96;stroke:#939b96"/><path d="m365 959v1h1.5 1.5 2 2 2.5 2.5 2 2 1.5 1.5l-9.5-.5-9.5-.5" style="fill:#bdb08a;stroke:#bdb08a"/><path d="m622 959v1h1.5 1.5 2 2 2.5 2.5.5.5v-.5-.5l-2.5-.5-2.5-.5h-21-21l17 .5 17 .5" style="fill:#a07566;stroke:#a07566"/><path d="m635 959v1h1.5 1.5 2 2 2.5 2.5 2 2 2.5 2.5 2 2 2.5 2.5 1 1v-.5-.5l1-3 1-3 5 .5 5 .5 16.5-1 16.5-1v-3-3-2-2-1-1l-.5-.5-.5-.5-13.5-1.5-13.5-1.5h-14.5-14.5l-13-2.5-13-2.5.5-9 .5-9 7 .5 7 .5 4.5 1 4.5 1 5 .5 5 .5 4-4.5 4-4.5-13-.5-13-.5-2.5-6-2.5-6 12.5-2 12.5-2 8.5 4 8.5 4-.5 16-.5 16 .5 1 .5 1h1.5 1.5l.5-.5.5-.5.5-.5.5-.5h1 1 1 1l1 .5 1 .5h1 1 1 1l.5-.5.5-.5h1 1l-.5 1-.5 1h1 1 1 1l.5-.5.5-.5 1 .5 1 .5.5.5.5.5.5-.5.5-.5h1 1l1-.5 1-.5v-17.5-17.5-15.5-15.5-15.5-15.5-15.5-15.5-15.5-15.5-14-14l-17 5.5-17 5.5-10.5 1.5-10.5 1.5-3 3.5-3 3.5 7-1.5 7-1.5 9 .5 9 .5h10.5 10.5v5.5 5.5l-1 8.5-1 8.5-7 5.5-7 5.5-2.5 8-2.5 8v7.5 7.5l-.5 9-.5 9 .5 4 .5 4-5.5 6-5.5 6-9-3-9-3-8-1.5-8-1.5-7-3.5-7-3.5 9-5.5 9-5.5-9.5-1-9.5-1-6 6.5-6 6.5h-5.5-5.5l8 7.5 8 7.5 8 7.5 8 7.5.5 6 .5 6-10 2.5-10 2.5-6 7.5-6 7.5 9.5 3.5 9.5 3.5-11.5 3-11.5 3-7-1.5-7-1.5-12 3.5-12 3.5-13 2.5-13 2.5-13 2.5-13 2.5-4.5 2-4.5 2 14-.5 14-.5 10 .5 10 .5 9-.5 9-.5 12.5 1 12.5 1 11 .5 11 .5 9 2 9 2 .5 1.5.5 1.5 2.5.5 2.5.5" style="fill:#78786a;stroke:#78786a"/><path d="m667 959v1h1.5 1.5 2 2 2.5 2.5 2 2 2.5 2.5 1.5 1.5v-.5-.5l1-.5 1-.5h2 2l1.5-.5 1.5-.5.5-.5.5-.5h1.5 1.5 2 2l2-.5 2-.5v-1.5-1.5l-16.5 1-16.5 1-5-.5-5-.5-1 3-1 3" style="fill:#939b96;stroke:#939b96"/><path d="m691 959v1h1.5 1.5 2 2 2.5 2.5 2 2 2.5 2.5v-2-2-.5-.5l-2 .5-2 .5h-2-2-1.5-1.5l-.5.5-.5.5-1.5.5-1.5.5h-2-2l-1 .5-1 .5" style="fill:#bdb08a;stroke:#bdb08a"/><path d="m498 958l34 1h15.5 15.5l-3.5-1-3.5-1h-13.5-13.5l-12 .5-12 .5h-3.5-3.5" style="fill:#a07566;stroke:#a07566"/><path d="m22 957l2-1-12-10-12-10v2.5 2.5.5.5l1 .5 1 .5 1 .5 1 .5.5.5.5.5-.5.5-.5.5-.5.5-.5.5.5 1.5.5 1.5 1 .5 1 .5.5.5.5.5 1.5.5 1.5.5 1.5.5 1.5.5 2 .5 2 .5 1 .5 1 .5 1.5.5 1.5.5" style="fill:#595b4b;stroke:#595b4b"/><path d="m27 957l4 1h1.5 1.5l.5-.5.5-.5h1 1l1-1 1-1 1.5 1 1.5 1 1.5.5 1.5.5 1-.5 1-.5v.5.5l1-.5 1-.5-9-6.5-9-6.5-15.5-6-15.5-6v2 2l12 10 12 10 1.5.5 1.5.5" style="fill:#78786a;stroke:#78786a"/><path d="m51 957l54 1h15.5 15.5 16 16l-5.5-23-5.5-23-3-12.5-3-12.5.5-14 .5-14 1.5-13 1.5-13 2.5-13 2.5-13 3-12.5 3-12.5 3-13 3-13 1.5-13 1.5-13-2-13.5-2-13.5-3.5-12-3.5-12-3.5-12-3.5-12-3.5-12-3.5-12-4-12.5-4-12.5-.5-.5-.5-.5-4-12-4-12-3-12.5-3-12.5-2-13.5-2-13.5 5-3.5 5-3.5-4.5-9-4.5-9 1-11.5 1-11.5 3-7.5 3-7.5v-.5-.5l-1 2-1 2-1 1-1 1-1 1-1 1-1 1.5-1 1.5-.5 1-.5 1-1 13-1 13v14 14l2.5 13 2.5 13 3 12.5 3 12.5 3.5 12 3.5 12 4 11.5 4 11.5 3.5 12 3.5 12 3.5 12 3.5 12 3 11.5 3 11.5 2.5 13 2.5 13-1.5 13-1.5 13-3 11.5-3 11.5-2 12.5-2 12.5-3 12.5-3 12.5-2.5 13.5-2.5 13.5-3 7.5-3 7.5-2 4.5-2 4.5-5-3.5-5-3.5-5 1.5-5 1.5-7.5-1-7.5-1-9.5 1-9.5 1 1.5 6 1.5 6-3.5 5-3.5 5-.5 5-.5 5-7.5-1-7.5-1-9 6-9 6-6-8-6-8-17 4-17 4v2.5 2.5 2 2 2.5 2.5 2 2 2.5 2.5 1 1l15.5 6 15.5 6 9 6.5 9 6.5h1 1" style="fill:#939b96;stroke:#939b96"/><path d="m237 953l3-16-4 5.5-4 5.5 2.5 2.5 2.5 2.5" style="fill:#383b32;stroke:#383b32"/><path d="m378 950l32-7 12-.5 12-.5 9.5 4 9.5 4 .5-10 .5-10-.5-15-.5-15h11.5 11.5l6 8.5 6 8.5 7 8.5 7 8.5 13.5 1 13.5 1 7.5-4 7.5-4-8.5-7-8.5-7-8-6.5-8-6.5-3.5-8.5-3.5-8.5 5.5-8 5.5-8 2.5-8 2.5-8 3-8.5 3-8.5 12-2.5 12-2.5 1-5.5 1-5.5-12.5 2-12.5 2-12 2.5-12 2.5-5.5 8-5.5 8 1-5.5 1-5.5-.5-6-.5-6 5-3.5 5-3.5-1.5-4-1.5-4-2.5-10.5-2.5-10.5-1-1.5-1-1.5 8-2.5 8-2.5-12 1.5-12 1.5-13 .5-13 .5-14 .5-14 .5-1 1.5-1 1.5.5 1 .5 1 1 1.5 1 1.5 1.5 1 1.5 1 6.5 7.5 6.5 7.5 7 12 7 12 11.5 8.5 11.5 8.5 1 .5 1 .5.5-1 .5-1h1 1 1 1l.5.5.5.5-1 .5-1 .5 1 1 1 1 7-9.5 7-9.5 6.5 4 6.5 4-4.5 10-4.5 10-5.5 10.5-5.5 10.5v8.5 8.5l9 6.5 9 6.5 8.5 7 8.5 7-5 4.5-5 4.5-11.5-3-11.5-3-7.5-7-7.5-7 1-6.5 1-6.5-6.5-2-6.5-2-8.5-6-8.5-6-5.5-10-5.5-10-6-9.5-6-9.5-8-7.5-8-7.5-8-7.5-8-7.5-8-8-8-8-8.5-2-8.5-2-3.5 10-3.5 10 9 6.5 9 6.5 4 10.5 4 10.5 2 10.5 2 10.5 4.5 9 4.5 9 4.5 10 4.5 10 1.5 11 1.5 11-14 4.5-14 4.5-1.5.5-1.5.5-.5.5-.5.5-.5.5-.5.5h-1.5-1.5l-1 1-1 1h-1-1-1.5-1.5l-1.5-.5-1.5-.5h-1-1l-1 .5-1 .5-1.5.5-1.5.5h-1.5-1.5l-.5 1.5-.5 1.5h1.5 1.5l1.5-.5 1.5-.5 1 1 1 1 2-.5 2-.5h2 2l2 .5 2 .5" style="fill:#78786a;stroke:#78786a"/><path d="m234 947h2l.5-1.5.5-1.5 2-.5 2-.5-1-1-1-1-1.5-1-1.5-1-1-1-1-1-1.5 1-1.5 1 .5 1.5.5 1.5.5 1.5.5 1.5.5 1 .5 1" style="fill:#595b4b;stroke:#595b4b"/><path d="m359 945v1h1.5 1.5l1.5-.5 1.5-.5 1-.5 1-.5h1 1l1.5.5 1.5.5h1.5 1.5 1 1l1-1 1-1h1.5 1.5l.5-.5.5-.5.5-.5.5-.5 1.5-.5 1.5-.5v-.5-.5-.5-.5l-1-.5-1-.5-.5.5-.5.5h-1-1l-.5.5-.5.5h-1-1l-1 .5-1 .5h-1-1l-.5.5-.5.5h-1-1l-1 .5-1 .5h-1-1l-.5.5-.5.5h-1-1l-1 .5-1 .5h-1-1l-1 .5-1 .5" style="fill:#78563c;stroke:#78563c"/><path d="m489 945l3 1h2 2l1.5-.5 1.5-.5h-2.5-2.5l-2-.5-2-.5-1-1-1-1-1-1-1-1-.5-2-.5-2-.5-1.5-.5-1.5-.5-2-.5-2-1 1-1 1-1 1.5-1 1.5 1 1 1 1 1.5 1 1.5 1v2 2l1.5 1 1.5 1 1 .5 1 .5" style="fill:#bdb08a;stroke:#bdb08a"/><path d="m446 944l3-24-4-5.5-4-5.5-4.5 8-4.5 8 6 9.5 6 9.5h1 1" style="fill:#595b4b;stroke:#595b4b"/><path d="m490 944l4 1h2.5 2.5l8-3 8-3-11.5-4-11.5-4-4.5-1-4.5-1 .5 2 .5 2 .5 1.5.5 1.5.5 2 .5 2 1 1 1 1 1 1 1 1" style="fill:#bdc4be;stroke:#bdc4be"/><path d="m183 943l-2-17-3.5 2-3.5 2 4.5 6.5 4.5 6.5" style="fill:#78786a;stroke:#78786a"/><g style="fill:#595b4b;stroke:#595b4b"><path d="m529 943l32 1 11.5-2 11.5-2-3.5-3-3.5-3-12 2.5-12 2.5-12 2-12 2"/><path d="m266 939v1h1.5 1.5l.5-1.5.5-1.5-2-.5-2-.5-.5-2-.5-2-4-6.5-4-6.5-5.5 3-5.5 3 10 7 10 7"/><path d="m387 939v1l14-4.5 14-4.5-1.5-11-1.5-11-4.5-10-4.5-10-4.5-9-4.5-9-2-10.5-2-10.5-4-10.5-4-10.5-9-6.5-9-6.5 3.5-10 3.5-10 8.5 2 8.5 2 8 8 8 8 8 7.5 8 7.5 8 7.5 8 7.5 6 9.5 6 9.5 5.5 10 5.5 10 8.5 6 8.5 6 6.5 2 6.5 2-1 6.5-1 6.5 7.5 7 7.5 7 11.5 3 11.5 3 5-4.5 5-4.5-8.5-7-8.5-7-9-6.5-9-6.5v-8.5-8.5l5.5-10.5 5.5-10.5 4.5-10 4.5-10-6.5-4-6.5-4-7 9.5-7 9.5-.5 1.5-.5 1.5v1.5 1.5 2 2l-1 1.5-1 1.5-.5 1.5-.5 1.5-1 1.5-1 1.5-1.5 1-1.5 1 .5 1 .5 1-1 1.5-1 1.5.5 1.5.5 1.5v2 2l1 1.5 1 1.5-1.5.5-1.5.5-1 1.5-1 1.5-.5 1.5-.5 1.5-2 .5-2 .5-1.5.5-1.5.5-1.5-.5-1.5-.5-7-9-7-9-7-15-7-15-13-12-13-12-8-7.5-8-7.5-7.5-8-7.5-8-5.5-10-5.5-10-6-8.5-6-8.5-9-6.5-9-6.5-6-7.5-6-7.5-7 7.5-7 7.5-1 9.5-1 9.5 6-2.5 6-2.5 4 5.5 4 5.5 4-7.5 4-7.5 6 11 6 11-5-11.5-5-11.5 7 13 7 13-1-1-1-1-1-.5-1-.5 6-1 6-1 2.5 10 2.5 10-6 7.5-6 7.5 3.5 11 3.5 11 8.5 4.5 8.5 4.5-2.5 10-2.5 10 6.5 9 6.5 9 5 10.5 5 10.5 4.5 11 4.5 11-6.5 7.5-6.5 7.5-1 .5-1 .5h-1-1l-1 .5-1 .5h-1-1-1-1l-1 1-1 1v.5.5"/><path d="m711 939l1 1v-3-3-1-1l-1 .5-1 .5h-1-1l-.5.5-.5.5-.5-.5-.5-.5-1-.5-1-.5-.5.5-.5.5h-1-1-1-1l.5-1 .5-1h-1-1l-.5.5-.5.5h-1-1-1-1l-1-.5-1-.5h-1-1-1-1l-.5.5-.5.5-.5.5-.5.5h-1.5-1.5l-1 .5-1 .5h-1-1l-14.5-.5-14.5-.5-9.5-5-9.5-5h12.5 12.5l13 4 13 4 .5-16 .5-16-8.5-4-8.5-4-12.5 2-12.5 2 2.5 6 2.5 6 13 .5 13 .5-4 4.5-4 4.5-5-.5-5-.5-4.5-1-4.5-1-7-.5-7-.5-.5 9-.5 9 13 2.5 13 2.5h14.5 14.5l13.5 1.5 13.5 1.5"/></g><path d="m678 934h2l1-.5 1-.5-.5-1-.5-1-13-4-13-4h-12.5-12.5l9.5 5 9.5 5 14.5.5 14.5.5" style="fill:#383b32;stroke:#383b32"/><path d="m288 933l11-22 7.5-8 7.5-8-3-11.5-3-11.5-2.5-12.5-2.5-12.5-.5 2-.5 2-.5.5-.5.5-1 .5-1 .5 1 1 1 1 1.5 1 1.5 1-1 1-1 1-1.5-.5-1.5-.5-8.5-4.5-8.5-4.5-2-9.5-2-9.5-2.5-6-2.5-6-2.5-10-2.5-10-2.5-15-2.5-15-7.5 12-7.5 12 3 6.5 3 6.5 3.5 9 3.5 9 4.5 11 4.5 11 4.5 10 4.5 10 5.5 9 5.5 9-1.5 12-1.5 12 .5 13 .5 13" style="fill:#966845;stroke:#966845"/><path d="m339 931l3 1 1.5-.5 1.5-.5h2.5 2.5 2 2 2.5 2.5l1.5.5 1.5.5h1.5 1.5 1 1l1-.5 1-.5 1-.5 1-.5-22-.5-22-.5 1 .5 1 .5h1 1l1 .5 1 .5h1 1 2 2" style="fill:#383b32;stroke:#383b32"/><path d="m407 931l-4-26-4.5-11-4.5-11-4.5-8-4.5-8-7.5-8-7.5-8 1.5 10 1.5 10 5 8.5 5 8.5-3.5 8-3.5 8-8.5-1.5-8.5-1.5-8-7.5-8-7.5-4-10.5-4-10.5-5.5-2-5.5-2 3 8.5 3 8.5-2.5 7-2.5 7-1 5.5-1 5.5 2 13 2 13 22 .5 22 .5h1.5 1.5l5-9.5 5-9.5 6.5 1 6.5 1 5 9 5 9" style="fill:#20251e;stroke:#20251e"/><path d="m213 926l16-17-4.5 3-4.5 3-3.5 5.5-3.5 5.5" style="fill:#595b4b;stroke:#595b4b"/><path d="m565 925l20-7 9-4.5 9-4.5v-.5-.5l-1 .5-1 .5-1.5 1-1.5 1-1.5.5-1.5.5-1.5.5-1.5.5-2 .5-2 .5-1.5.5-1.5.5-1 1.5-1 1.5-1.5-.5-1.5-.5-1.5 1-1.5 1-1 1-1 1-1.5-.5-1.5-.5-2-.5-2-.5v-1.5-1.5l.5-1.5.5-1.5 1-1.5 1-1.5-.5-.5-.5-.5-.5-1-.5-1-.5 2.5-.5 2.5-1 1.5-1 1.5v2 2l-1 1-1 1v1.5 1.5l.5.5.5.5" style="fill:#bdb08a;stroke:#bdb08a"/><path d="m185 923h2l-.5-1.5-.5-1.5v-1.5-1.5l-1-1-1-1h-2.5-2.5l-1 1-1 1 1.5 1 1.5 1 1 1 1 1 1 1 1 1h.5.5" style="fill:#20251e;stroke:#20251e"/><path d="m518 920l-12-15h-11.5-11.5l11 4.5 11 4.5 6.5 3 6.5 3" style="fill:#383b32;stroke:#383b32"/><path d="m572 920l3 1 1-1 1-1 1.5-1 1.5-1 1.5.5 1.5.5 1-1.5 1-1.5 1.5-.5 1.5-.5 2-.5 2-.5 1.5-.5 1.5-.5 1.5-.5 1.5-.5 1.5-1 1.5-1 1-.5 1-.5 4.5-10.5 4.5-10.5-3.5-10.5-3.5-10.5-6-.5-6-.5-5-2-5-2-2.5 2-2.5 2-3 9.5-3 9.5.5 1.5.5 1.5-.5 1.5-.5 1.5v2.5 2.5l-.5 1.5-.5 1.5v2.5 2.5l-.5 1.5-.5 1.5-.5.5-.5.5.5 1 .5 1 .5.5.5.5-1 1.5-1 1.5-.5 1.5-.5 1.5v1.5 1.5l2 .5 2 .5" style="fill:#bdc4be;stroke:#bdc4be"/><path d="m46 915l18-12 7.5 1 7.5 1 .5-5 .5-5 3.5-5 3.5-5-1.5-6-1.5-6 9.5-1 9.5-1 7.5 1 7.5 1 5-1.5 5-1.5 5 3.5 5 3.5 2-4.5 2-4.5 3-7.5 3-7.5 2.5-13.5 2.5-13.5-3 13.5-3 13.5-8.5 4-8.5 4-5.5 1-5.5 1-7.5 1-7.5 1-5-4.5-5-4.5-4.5 3-4.5 3-7 5.5-7 5.5-6.5 4-6.5 4-9-2.5-9-2.5 2-3.5 2-3.5-5.5.5-5.5.5-6 1.5-6 1.5v4.5 4.5l-10.5 3.5-10.5 3.5v3.5 3.5 2 2 2.5 2.5 1 1l17-4 17-4 6 8 6 8" style="fill:#bdb08a;stroke:#bdb08a"/><path d="m176 913l25-4v-10.5-10.5l-9.5 3-9.5 3-8 5.5-8 5.5 5 4 5 4" style="fill:#595b4b;stroke:#595b4b"/><path d="m173 909l3 1v-1-1l.5-2 .5-2-.5-1.5-.5-1.5-1.5-1-1.5-1-1.5.5-1.5.5-1 1.5-1 1.5.5 1.5.5 1.5 1 1 1 1 1 .5 1 .5" style="fill:#78786a;stroke:#78786a"/><path d="m334 908l3 1 1-1 1-1 .5-2 .5-2v-1-1l-.5-2-.5-2-1.5-.5-1.5-.5-1 1.5-1 1.5-1 1-1 1 .5 1.5.5 1.5.5 2 .5 2" style="fill:#383b32;stroke:#383b32"/><path d="m189 906l8-17-6.5 7-6.5 7 2.5 1.5 2.5 1.5" style="fill:#78786a;stroke:#78786a"/><path d="m668 904l-10-7-3.5 3-3.5 3 8.5.5 8.5.5" style="fill:#383b32;stroke:#383b32"/><path d="m367 901l3 1 1.5-.5 1.5-.5 1-1.5 1-1.5-.5-1.5-.5-1.5-1-1.5-1-1.5-1-1-1-1-1.5 1-1.5 1-1 1-1 1 .5 1.5.5 1.5.5 2 .5 2" style="fill:#595b4b;stroke:#595b4b"/><path d="m164 897l16-13-10.5-2-10.5-2 2.5 8.5 2.5 8.5" style="fill:#20251e;stroke:#20251e"/><path d="m470 895l3 1 1.5-.5 1.5-.5 2-.5 2-.5.5-1.5.5-1.5 1-1.5 1-1.5 1.5-.5 1.5-.5-1-1.5-1-1.5v-2-2l-.5-1.5-.5-1.5 1-1.5 1-1.5-.5-1-.5-1-1-.5-1-.5-9.5-6.5-9.5-6.5-7-7.5-7-7.5-5.5-10-5.5-10-5.5-9-5.5-9-6.5-7-6.5-7-13.5-15.5-13.5-15.5-1-.5-1-.5-.5-1.5-.5-1.5-.5.5-.5.5-.5-.5-.5-.5-.5-.5-.5-.5.5-1 .5-1 2.5 11 2.5 11 6.5 9 6.5 9 8 7.5 8 7.5 7.5 8 7.5 8 5.5 11.5 5.5 11.5 7 15 7 15 7 9 7 9" style="fill:#5a402b;stroke:#5a402b"/><path d="m0 888v1l10.5-3.5 10.5-3.5v-4.5-4.5l6-1.5 6-1.5 5.5-.5 5.5-.5-2 3.5-2 3.5 9 2.5 9 2.5 6.5-4 6.5-4 7-5.5 7-5.5 4.5-3 4.5-3 5 4.5 5 4.5 7.5-1 7.5-1 5.5-1 5.5-1 8.5-4 8.5-4 3-13.5 3-13.5 3-12.5 3-12.5 2-12.5 2-12.5 3-11.5 3-11.5 1.5-13 1.5-13-2.5-13-2.5-13-3-11.5-3-11.5-3.5-12-3.5-12-3.5-12-3.5-12-4-11.5-4-11.5-3.5-12-3.5-12-3-12.5-3-12.5-2.5-13-2.5-13v-14-14l1-13 1-13v-.5-.5l5-11 5-11 3-10.5 3-10.5 7-8.5 7-8.5 1.5-12 1.5-12 3.5-10 3.5-10 5.5-8 5.5-8 2.5-12 2.5-12 1.5-11 1.5-11-3-6.5-3-6.5.5-10 .5-10-4-5.5-4-5.5-2.5-7-2.5-7-1-6.5-1-6.5-5-4-5-4 1.5-3 1.5-3 4-11 4-11-7-7.5-7-7.5-3-10.5-3-10.5 1-3.5 1-3.5-1.5-8-1.5-8-2.5-9-2.5-9 1.5-5 1.5-5-4-6.5-4-6.5v-7.5-7.5l-6-.5-6-.5-9.5-3-9.5-3 1-6.5 1-6.5-2 1.5-2 1.5-7 1-7 1-4-7.5-4-7.5v-4.5-4.5l-4.5-6-4.5-6-3.5-2-3.5-2-6 3.5-6 3.5-3-.5-3-.5.5-8 .5-8-7 1.5-7 1.5 3-4.5 3-4.5-7.5-2-7.5-2-4-1.5-4-1.5-6.5-2.5-6.5-2.5v16 16 15.5 15.5 15.5 15.5 15.5 15.5 15.5 15.5 15.5 15.5 16 16 15.5 15.5 15.5 15.5 15.5 15.5 15.5 15.5 15.5 15.5 15.5 15.5 15.5 15.5 15.5 15.5 15.5 15.5 15.5 15.5 15.5 15.5 16 16 15.5 15.5 15.5 15.5 15.5 15.5 15.5 15.5 15.5 15.5 15.5 15.5 8 8l6-4.5 6-4.5 5 4.5 5 4.5-1-6.5-1-6.5 4 5.5 4 5.5 8 3.5 8 3.5-4.5 3-4.5 3-5.5 1.5-5.5 1.5-6.5 5-6.5 5-.5 8.5-.5 8.5.5-1 .5-1 1-1 1-1-1.5-1-1.5-1-.5-1.5-.5-1.5h-1.5-1.5l-1 1-1 1-1 1.5-1 1.5-1 .5-1 .5v16 16 9 9" style="fill:#bdc4be;stroke:#bdc4be"/><g style="fill:#383b32;stroke:#383b32"><path d="m230 887l-2-17 .5 8 .5 8 .5.5.5.5"/><path d="m203 884l1-20-2.5 9-2.5 9 2 1 2 1"/></g><g style="fill:#595b4b;stroke:#595b4b"><path d="m316 884l1 1-3-10.5-3-10.5 5.5-6 5.5-6 5-5.5 5-5.5-1-8.5-1-8.5 9 5 9 5 4-9.5 4-9.5-3 5.5-3 5.5-1.5-9-1.5-9-2.5-7-2.5-7h-10.5-10.5l-3.5-4-3.5-4-4.5-8-4.5-8-4.5-4-4.5-4-3-3.5-3-3.5-3-4.5-3-4.5-7-6.5-7-6.5-9.5-3.5-9.5-3.5-6.5-9-6.5-9-2 9.5-2 9.5-2.5-9-2.5-9-7-2.5-7-2.5-.5 9-.5 9-3.5 9-3.5 9 8 4.5 8 4.5 11-2.5 11-2.5-11 1-11 1-6-5.5-6-5.5 4.5-9 4.5-9 7.5 8 7.5 8 1-7 1-7 5.5 1 5.5 1 7 7.5 7 7.5 11 11.5 11 11.5-19.5-7.5-19.5-7.5 12 4 12 4 1 2.5 1 2.5-10.5 5.5-10.5 5.5-1 1.5-1 1.5-.5 1-.5 1 1-.5 1-.5 1.5-.5 1.5-.5 2-.5 2-.5 1.5-.5 1.5-.5 1.5-1 1.5-1 1-.5 1-.5h1.5 1.5l10-.5 10-.5 4 2.5 4 2.5h4.5 4.5l4 9.5 4 9.5 4.5 11.5 4.5 11.5-13.5-7.5-13.5-7.5v.5.5l.5 1 .5 1 .5.5.5.5v-1-1l.5-1.5.5-1.5 9 7 9 7 8.5-2 8.5-2-5.5 10.5-5.5 10.5-11-6.5-11-6.5-1 .5-1 .5v1.5 1.5l.5 1 .5 1v1 1 1 1 1 1l1 .5 1 .5.5 1.5.5 1.5.5 1 .5 1v1 1l.5 1.5.5 1.5.5 1 .5 1v-1-1l1 1 1 1 1 .5 1 .5 1 1 1 1 .5.5.5.5 1 .5 1 .5v2 2l-.5.5-.5.5v1.5 1.5l-1 1-1 1h-1-1l-.5-1.5-.5-1.5-.5-2-.5-2-.5 2.5-.5 2.5.5 2 .5 2 1 1 1 1v2.5 2.5 2 2l.5 2 .5 2 .5 1.5.5 1.5.5 2 .5 2 1 1 1 1 .5 1.5.5 1.5 1 .5 1 .5"/><path d="m345 884l1-16-1.5 6-1.5 6 1 2 1 2"/></g><path d="m571 883l1 1 3-9.5 3-9.5 2.5-2 2.5-2-5.5-2.5-5.5-2.5-5 3.5-5 3.5 4 4.5 4 4.5.5 5.5.5 5.5" style="fill:#bdb08a;stroke:#bdb08a"/><g style="fill:#595b4b;stroke:#595b4b"><path d="m247 881l15-14-10-2.5-10-2.5-2.5 2-2.5 2 3 5.5 3 5.5 2 2 2 2"/><path d="m200 878l3 1 .5-1.5.5-1.5 1.5-1 1.5-1-.5-1.5-.5-1.5-.5-2-.5-2-1 1-1 1-1 1.5-1 1.5-.5 1.5-.5 1.5v1.5 1.5"/></g><path d="m174 875l4-13-2.5 1-2.5 1 .5 5.5.5 5.5" style="fill:#78786a;stroke:#78786a"/><path d="m482 871l2 1 1.5-1 1.5-1 1-1.5 1-1.5.5-1.5.5-1.5 1-1.5 1-1.5v-2-2-1.5-1.5l.5-1.5.5-1.5-1-1-1-1 1-.5 1-.5-.5-.5-.5-.5h-1-1-1-1l-.5 1-.5 1-1-.5-1-.5h-1.5-1.5v1 1l-1.5-.5-1.5-.5-8-7-8-7-6-.5-6-.5-4-14-4-14-1.5-1-1.5-1v-2.5-2.5l-1-1-1-1-1-1-1-1-.5-1.5-.5-1.5-1.5-1-1.5-1-1-1.5-1-1.5-.5-1-.5-1-.5-.5-.5-.5-.5-.5-.5-.5-1.5-.5-1.5-.5-8.5-16-8.5-16-.5-1.5-.5-1.5-2.5.5-2.5.5-2-.5-2-.5-.5 1.5-.5 1.5-1.5 1-1.5 1-1.5.5-1.5.5-1 1-1 1-.5 2.5-.5 2.5 13.5 15.5 13.5 15.5 6.5 7 6.5 7 5.5 9 5.5 9 5.5 10 5.5 10 7 7.5 7 7.5 9.5 6.5 9.5 6.5" style="fill:#78563c;stroke:#78563c"/><path d="m260 862h2l1-1 1-1 .5-2 .5-2-.5-1.5-.5-1.5h-1.5-1.5l-.5 1.5-.5 1.5-1 1.5-1 1.5.5 1.5.5 1.5h.5.5" style="fill:#20251e;stroke:#20251e"/><g style="fill:#595b4b;stroke:#595b4b"><path d="m354 861l6-13-9.5 2-9.5 2 2.5 1 2.5 1 3.5 3 3.5 3 .5.5.5.5"/><path d="m224 859l7-18-7-1.5-7-1.5 1.5 9 1.5 9 2 1.5 2 1.5"/><path d="m246 859h2l1-1 1-1-1-1.5-1-1.5h-1-1l-2-.5-2-.5h-1-1l-1.5 1-1.5 1 1 1 1 1h2 2l1.5 1 1.5 1"/></g><path d="m299 858l3 1 1-1 1-1-1.5-1-1.5-1-1-1-1-1 1-.5 1-.5.5-.5.5-.5.5-2 .5-2-.5-1.5-.5-1.5v-2-2-2.5-2.5l-.5-1.5-.5-1.5-.5-2.5-.5-2.5-1-.5-1-.5v-1-1-1-1-1-1l-.5-1-.5-1v-1.5-1.5l-.5-.5-.5-.5v-1.5-1.5l-.5-2-.5-2-.5-1.5-.5-1.5v-3-3-.5-.5l-.5-2-.5-2 1-1 1-1-.5-.5-.5-.5v-.5-.5l-13.5-11.5-13.5-11.5-.5 1-.5 1h-1.5-1.5l2.5 15 2.5 15 2.5 10 2.5 10 2.5 6 2.5 6 2 9.5 2 9.5 8.5 4.5 8.5 4.5" style="fill:#a07566;stroke:#a07566"/><path d="m555 858l16-17-3-2.5-3-2.5-3.5 3-3.5 3-9-2.5-9-2.5 3 7.5 3 7.5 4.5 3 4.5 3" style="fill:#bdb08a;stroke:#bdb08a"/><path d="m173 854l-9-12 3.5 4 3.5 4 1 2 1 2" style="fill:#78786a;stroke:#78786a"/><path d="m308 854h2l1-1 1-1v-1.5-1.5l.5-.5.5-.5v-2-2l-1-.5-1-.5-.5-.5-.5-.5-1-1-1-1-1-.5-1-.5-.5 1-.5 1 .5 1.5.5 1.5v1.5 1.5l.5 2 .5 2 .5 1.5.5 1.5" style="fill:#383b32;stroke:#383b32"/><path d="m325 852l-3-18-7-8.5-7-8.5 2 11.5 2 11.5 6.5 6 6.5 6" style="fill:#78786a;stroke:#78786a"/><path d="m336 852l6-19-6.5 1-6.5 1 3.5 8.5 3.5 8.5" style="fill:#20251e;stroke:#20251e"/><path d="m479 849l3 1v-1-1h1.5 1.5l-11.5-8.5-11.5-8.5v-.5-.5l-7.5-6.5-7.5-6.5-2-5.5-2-5.5 4 14 4 14 6 .5 6 .5 8 7 8 7" style="fill:#966845;stroke:#966845"/><path d="m362 846l1-20-4 3.5-4 3.5 3.5 6.5 3.5 6.5" style="fill:#20251e;stroke:#20251e"/><path d="m369 846l3 1 1-1 1-1 2-.5 2-.5.5-1.5.5-1.5-1-1.5-1-1.5-1.5-.5-1.5-.5-1.5 1-1.5 1-.5 1.5-.5 1.5-1 1-1 1 .5 1 .5 1" style="fill:#595b4b;stroke:#595b4b"/><path d="m10 841l1-17 6.5-5 6.5-5 5.5-1.5 5.5-1.5 4.5-3 4.5-3-8-3.5-8-3.5-4-5.5-4-5.5 1 6.5 1 6.5-5-4.5-5-4.5-6 4.5-6 4.5v2.5 2.5 2 2 2.5 2.5 2 2 2.5 2.5 2 2 2.5 2.5 2 2 1 1l1-.5 1-.5 1-1.5 1-1.5 1-1 1-1h1.5 1.5l.5 1.5.5 1.5 1.5 1 1.5 1-1 1-1 1-.5 1-.5 1" style="fill:#bdb08a;stroke:#bdb08a"/><path d="m159 840l12-13 2-.5 2-.5-5.5-1-5.5-1-2.5 8-2.5 8" style="fill:#383b32;stroke:#383b32"/><path d="m241 835l3 1 1-1 1-1-.5-2-.5-2-1-1-1-1-2 .5-2 .5.5 1.5.5 1.5.5 1.5.5 1.5" style="fill:#20251e;stroke:#20251e"/><path d="m462 830v1l-7-12-7-12-6.5-7.5-6.5-7.5.5 1.5.5 1.5 1 1 1 1 1 1 1 1v2.5 2.5l1.5 1 1.5 1 2 5.5 2 5.5 7.5 6.5 7.5 6.5" style="fill:#a07566;stroke:#a07566"/><path d="m222 829l15-16-9.5 5-9.5 5 2 3 2 3" style="fill:#595b4b;stroke:#595b4b"/><path d="m321 827l11-21-8.5 2-8.5 2-9-7-9-7v1.5 1.5 1.5 1.5 1 1l.5.5.5.5v1 1 1.5 1.5l.5.5.5.5v1.5 1.5l11 6.5 11 6.5" style="fill:#383b32;stroke:#383b32"/><path d="m197 822l4-13-6.5 2-6.5 2 4.5 4.5 4.5 4.5" style="fill:#595b4b;stroke:#595b4b"/><path d="m195 820l3-12-2.5 6-2.5 6h1 1" style="fill:#78786a;stroke:#78786a"/><path d="m315 819l-10-19-.5 8-.5 8 5.5 1.5 5.5 1.5" style="fill:#20251e;stroke:#20251e"/><g style="fill:#939b96;stroke:#939b96"><path d="m371 819l3 1v-1-1-1.5-1.5l-.5-1.5-.5-1.5-1.5-1-1.5-1h-1-1l-1 1.5-1 1.5 1 1 1 1 1 1 1 1 .5 1 .5 1"/><path d="m474 818l16-9h-8.5-8.5l.5 4.5.5 4.5"/></g><path d="m296 814l1 1 1-.5 1-.5v-1.5-1.5l-.5-.5-.5-.5v-1.5-1.5-1-1l-.5-.5-.5-.5v-1-1-1.5-1.5-1.5-1.5l-.5 1.5-.5 1.5v1 1l-.5-.5-.5-.5-.5-1-.5-1v3 3l.5 1.5.5 1.5.5 2 .5 2v1.5 1.5" style="fill:#78563c;stroke:#78563c"/><g style="fill:#20251e;stroke:#20251e"><path d="m182 813l4-21-1-5.5-1-5.5-2.5 8-2.5 8 1.5 8 1.5 8"/><path d="m243 812h2l-.5-.5-.5-.5v-1-1l-.5-1-.5-1-.5-.5-.5-.5v-2-2l-.5-.5-.5-.5-6.5-9.5-6.5-9.5-1 6.5-1 6.5 8.5 8.5 8.5 8.5"/></g><path d="m321 812l-9-23-4-9.5-4-9.5h-4.5-4.5l-4-2.5-4-2.5-10 .5-10 .5 13.5 11.5 13.5 11.5 2.5-12 2.5-12-2 13-2 13-1 1-1 1 .5 2 .5 2 13.5 7.5 13.5 7.5" style="fill:#78786a;stroke:#78786a"/><path d="m214 796v-11l-1.5-12-1.5-12-11 2.5-11 2.5-4 3.5-4 3.5 8 .5 8 .5-3.5 9-3.5 9 7.5-.5 7.5-.5 4.5 2.5 4.5 2.5" style="fill:#595b4b;stroke:#595b4b"/><path d="m330 795l7-18-7-6.5-7-6.5-5-6.5-5-6.5-9-6.5-9-6.5 5.5 9 5.5 9 .5 13 .5 13 8.5 3.5 8.5 3.5 3 3 3 3" style="fill:#20251e;stroke:#20251e"/><path d="m294 790l1 1 2-13 2-13-2.5 12-2.5 12v.5.5" style="fill:#939b96;stroke:#939b96"/><path d="m344 789l6-7-5.5-4-5.5-4 2.5 7.5 2.5 7.5" style="fill:#595b4b;stroke:#595b4b"/><path d="m428 784l1 1 1-1.5 1-1.5-9-15-9-15-1 1-1 1 8 14.5 8 14.5.5.5.5.5" style="fill:#a07566;stroke:#a07566"/><path d="m342 783h2l1-1 1-1 1-1.5 1-1.5v-2-2l-1.5-1-1.5-1-1-1-1-1-1 1.5-1 1.5v2 2 2 2l.5 1 .5 1" style="fill:#78786a;stroke:#78786a"/><path d="m424 782l3 1-8-14.5-8-14.5v-.5-.5l-1-.5-1-.5-1-1-1-1 8.5 16 8.5 16" style="fill:#966845;stroke:#966845"/><path d="m51 780l3 1 1.5-.5 1.5-.5v-1.5-1.5l1-1 1-1-1-1.5-1-1.5-1-1-1-1-.5 2-.5 2-1 1-1 1-1.5.5-1.5.5 1 1.5 1 1.5" style="fill:#bdb08a;stroke:#bdb08a"/><path d="m433 778l30-3 13-1 13-1 10.5-1 10.5-1 11-.5 11-.5 13.5-1 13.5-1 11.5-3 11.5-3 10 .5 10 .5 4-4.5 4-4.5 9.5-2 9.5-2 14-1.5 14-1.5 13.5-2 13.5-2 14-1 14-1v-16.5-16.5-15.5-15.5-15.5-15.5-15.5-15.5-15.5-15.5-15.5-15.5-16-16-15.5-15.5-15.5-15.5-15.5-15.5-15.5-15.5-15.5-15.5-10.5-10.5l-1-1-1-1-.5.5-.5.5-1.5 1-1.5 1-1 1-1 1-1.5-.5-1.5-.5-2-.5-2-.5v-1-1l2 .5 2 .5h1 1l1.5-1 1.5-1 .5-1.5.5-1.5h1 1 1.5 1.5v-3-3-2.5-2.5-2-2l-6 3.5-6 3.5-4.5 1-4.5 1-4 1.5-4 1.5-3.5 2-3.5 2h-4.5-4.5l-4 2.5-4 2.5-9.5-1-9.5-1-3.5 2.5-3.5 2.5-6-3.5-6-3.5-6 .5-6 .5-3-.5-3-.5-6.5 6-6.5 6 2 7.5 2 7.5-9-.5-9-.5-8 2.5-8 2.5-6.5-1-6.5-1-3 1.5-3 1.5-5-1.5-5-1.5-4.5 5.5-4.5 5.5 1-.5 1-.5 1-.5 1-.5 1.5-1 1.5-1 .5-1.5.5-1.5 1 1.5 1 1.5v1 1l-1 1.5-1 1.5-1 1-1 1h-1-1l-2-1.5-2-1.5-8.5-1-8.5-1h-1.5-1.5l-5 3.5-5 3.5-1.5-7-1.5-7-.5-2-.5-2-5 8.5-5 8.5-2.5-1.5-2.5-1.5-3 .5-3 .5h-2.5-2.5l-2-4.5-2-4.5-3.5-2-3.5-2-5.5 4.5-5.5 4.5-7 8.5-7 8.5-10-3-10-3-9.5 1-9.5 1 5-4.5 5-4.5 10-3.5 10-3.5 11.5 1.5 11.5 1.5-3-6.5-3-6.5 3-7.5 3-7.5-7 7.5-7 7.5-.5-2-.5-2-1-2.5-1-2.5-5.5-1-5.5-1-2-8.5-2-8.5-4.5-6-4.5-6-8-1.5-8-1.5h-7-7l-5.5 9-5.5 9-2.5 11-2.5 11-2 21.5-2 21.5-1 13.5-1 13.5.5 11 .5 11 .5 9 .5 9 1.5 13 1.5 13 2.5 12 2.5 12v13.5 13.5l1.5 14 1.5 14 3 12.5 3 12.5 2.5 13 2.5 13 4 11.5 4 11.5 4 12 4 12 3 11.5 3 11.5 5 10.5 5 10.5 5 10.5 5 10.5 4.5 11 4.5 11 5.5 7 5.5 7" style="fill:#bdc4be;stroke:#bdc4be"/><path d="m360 777l-14-26 5 11.5 5 11.5 1 .5 1 .5 1 1 1 1" style="fill:#78786a;stroke:#78786a"/><path d="m360 774l-8-21-.5 4-.5 4 4.5 6.5 4.5 6.5" style="fill:#939b96;stroke:#939b96"/><g style="fill:#20251e;stroke:#20251e"><path d="m227 772l-8-13-6.5-9-6.5-9-4-7.5-4-7.5-1.5 10-1.5 10-7 7.5-7 7.5 11-.5 11-.5 9.5 4.5 9.5 4.5 2.5 1.5 2.5 1.5"/><path d="m350 771l1-1-1-1-1-1-1-1.5-1-1.5-.5-1.5-.5-1.5-1-1.5-1-1.5-1 1-1 1v1.5 1.5l1 1 1 1 1 1 1 1 1.5 1 1.5 1 .5.5.5.5"/></g><path d="m633 767l3 1 1.5-.5 1.5-.5.5-2 .5-2-1.5-.5-1.5-.5-2 .5-2 .5h-1-1l-2 .5-2 .5v1 1l1.5.5 1.5.5h1.5 1.5" style="fill:#78786a;stroke:#78786a"/><g style="fill:#20251e;stroke:#20251e"><path d="m251 764l13-12-11-1.5-11-1.5 4.5 7.5 4.5 7.5"/><path d="m236 761l3 1 .5-.5.5-.5-1-1.5-1-1.5-1-1-1-1h-2.5-2.5l-1.5-.5-1.5-.5v1.5 1.5l1.5.5 1.5.5 1.5.5 1.5.5 1 .5 1 .5"/></g><path d="m284 759l-22-23-7-7.5-7-7.5-5.5-1-5.5-1-1 7-1 7-7.5-8-7.5-8-4.5 9-4.5 9 6 5.5 6 5.5 11-1 11-1 19.5 7.5 19.5 7.5" style="fill:#78786a;stroke:#78786a"/><path d="m385 759l2 1 .5-2.5.5-2.5 1-1 1-1 1.5-.5 1.5-.5 1.5-1 1.5-1 .5-1.5.5-1.5 2 .5 2 .5 2.5-.5 2.5-.5 1-.5 1-.5.5-1.5.5-1.5-.5-1.5-.5-1.5-.5-2-.5-2-1-1-1-1-.5-2-.5-2v-1.5-1.5l-.5-1-.5-1-10.5 14-10.5 14-.5 1-.5 1 .5.5.5.5.5.5.5.5.5-.5.5-.5.5 1.5.5 1.5" style="fill:#595b4b;stroke:#595b4b"/><path d="m411 753v1l1-1 1-1-1-1-1-1v-1-1l-.5-1.5-.5-1.5v-2.5-2.5l-.5-1.5-.5-1.5-1-1.5-1-1.5-.5-1.5-.5-1.5-1-2-1-2v1.5 1.5l.5 2 .5 2 1 1 1 1 .5 2 .5 2 .5 1.5.5 1.5-.5 1.5-.5 1.5-1 .5-1 .5.5 1.5.5 1.5 1 1 1 1 1 .5 1 .5" style="fill:#78786a;stroke:#78786a"/><path d="m369 752l21-10-2.5-8-2.5-8-10.5-2-10.5-2 4.5 7 4.5 7-3 5.5-3 5.5 1 2.5 1 2.5" style="fill:#20251e;stroke:#20251e"/><path d="m235 746l-6-19-5.5 2-5.5 2 5 5.5 5 5.5-.5-5-.5-5 4 7 4 7" style="fill:#939b96;stroke:#939b96"/><path d="m286 743l-10-19-8.5-4-8.5-4-6.5-9-6.5-9-5 1.5-5 1.5 7.5 8 7.5 8 6.5 7 6.5 7 8.5 4.5 8.5 4.5 2.5 1.5 2.5 1.5" style="fill:#20251e;stroke:#20251e"/><path d="m356 743l21-2-9-6.5-9-6.5-5 2.5-5 2.5 3.5 5 3.5 5" style="fill:#595b4b;stroke:#595b4b"/><path d="m243 741l5-14-4.5-2-4.5-2 2 9 2 9" style="fill:#939b96;stroke:#939b96"/><path d="m356 741h2v-1-1l-.5-2-.5-2 .5-1.5.5-1.5-1.5-1-1.5-1-1.5.5-1.5.5-.5 2-.5 2v1 1l1 1 1 1 1.5 1 1.5 1" style="fill:#78786a;stroke:#78786a"/><path d="m289 735l16-11-2-12.5-2-12.5-6 4.5-6 4.5-4.5-11-4.5-11 11 .5 11 .5 5 2.5 5 2.5 1.5-6.5 1.5-6.5-9.5-1-9.5-1-4-4.5-4-4.5 6-6.5 6-6.5 5-3.5 5-3.5 4.5-9 4.5-9 5-3.5 5-3.5-3-10.5-3-10.5-11-.5-11-.5-5.5-5-5.5-5-1.5-13-1.5-13-5 8-5 8-.5-10-.5-10-7-3.5-7-3.5-1 8.5-1 8.5-7.5 6-7.5 6v6.5 6.5l4.5 4 4.5 4 8.5 1 8.5 1h10.5 10.5l7.5 8 7.5 8 5-.5 5-.5-8 5-8 5-7-2.5-7-2.5 3 10.5 3 10.5-5 9.5-5 9.5-3.5 12-3.5 12-5-2.5-5-2.5-2 6.5-2 6.5-3.5 7-3.5 7 7 1.5 7 1.5 6.5 9 6.5 9 3.5 1 3.5 1" style="fill:#595b4b;stroke:#595b4b"/><path d="m345 735l1-18-7.5-7-7.5-7-1.5 4-1.5 4-6.5-4-6.5-4 5.5-6 5.5-6h-9.5-9.5l-12-2-12-2 4 5.5 4 5.5 6 3.5 6 3.5 5.5 9 5.5 9 10 1.5 10 1.5 5.5 4.5 5.5 4.5" style="fill:#20251e;stroke:#20251e"/><g style="fill:#78786a;stroke:#78786a"><path d="m283 731l5-18-7.5-7-7.5-7 2 9.5 2 9.5 3 6.5 3 6.5"/><path d="m296 729l2-21-3 1.5-3 1.5 2 9 2 9"/></g><path d="m399 723h2l-1-1-1-1-.5-2-.5-2-.5-1.5-.5-1.5-.5-2-.5-2-1-1.5-1-1.5-1-1-1-1-1-1.5-1-1.5-.5-1.5-.5-1.5-.5-2-.5-2-.5-1-.5-1-.5-1-.5-1-.5-.5-.5-.5-6.5-9-6.5-9 .5-8 .5-8-3-17.5-3-17.5-.5-.5-.5-.5-.5-1-.5-1-.5-.5-.5-.5-.5-.5-.5-.5v-1-1l.5-1 .5-1-.5-.5-.5-.5v-1-1-1-1l-.5-1-.5-1-.5-1.5-.5-1.5v-1-1l-.5-1-.5-1v-2-2-2-2l-.5-2-.5-2-.5-.5-.5-.5v-1-1-1-1l-.5-.5-.5-.5v-1.5-1.5-1-1-1-1l-.5-.5-.5-.5v-1-1-1.5-1.5-1-1-1-1-2-2h-.5-.5l2 17 2 17-2 2.5-2 2.5-.5 7-.5 7 6 8.5 6 8.5 3.5 10 3.5 10-5 7.5-5 7.5 9.5 6 9.5 6 2 9.5 2 9.5 2.5 8 2.5 8 4 6 4 6" style="fill:#595b4b;stroke:#595b4b"/><path d="m384 719h2l.5-1.5.5-1.5-1-1.5-1-1.5-1-1-1-1-2 .5-2 .5-1 1-1 1 1 1.5 1 1.5 1.5.5 1.5.5 1 .5 1 .5" style="fill:#20251e;stroke:#20251e"/><path d="m184 717l8-13 2.5-9 2.5-9 3.5-7 3.5-7 3-11.5 3-11.5-2.5-11-2.5-11 1-11.5 1-11.5h-.5-.5l.5 1.5.5 1.5-.5 1.5-.5 1.5v2.5 2.5l-.5 1.5-.5 1.5-.5 2-.5 2-1 1-1 1-2-.5-2-.5-.5-1.5-.5-1.5v-1-1l-.5-.5-.5-.5v-1.5-1.5l.5-.5.5-.5v-1-1l.5-.5.5-.5.5-1 .5-1 .5-.5.5-.5v-1-1-1-1l.5 1 .5 1 .5.5.5.5.5-.5.5-.5 1.5-.5 1.5-.5-1-.5-1-.5-1-1-1-1-1.5-.5-1.5-.5-1.5-1-1.5-1-1-1-1-1-1-1-1-1-.5 1.5-.5 1.5-1.5-.5-1.5-.5-9-6-9-6 1.5-7 1.5-7 9 2.5 9 2.5.5 9.5.5 9.5 2.5-5.5 2.5-5.5 11 1.5 11 1.5-1-8.5-1-8.5-8.5 3-8.5 3-7.5-2.5-7.5-2.5h-11.5-11.5l-9 2.5-9 2.5.5 6 .5 6-2 6.5-2 6.5 5 9.5 5 9.5 3 12 3 12 3.5-6 3.5-6 4.5 4 4.5 4 1 6.5 1 6.5-3 2.5-3 2.5-3.5 1-3.5 1 3.5 12 3.5 12 7 6.5 7 6.5-3.5 6-3.5 6 4 4.5 4 4.5" style="fill:#383b32;stroke:#383b32"/><g style="fill:#595b4b;stroke:#595b4b"><path d="m362 715l-3-18 1.5 8 1.5 8v1 1"/><path d="m318 710h2l1-1 1-1 1.5-1 1.5-1-.5-1.5-.5-1.5-.5-2-.5-2-1.5-.5-1.5-.5-1.5 1-1.5 1v2 2 2 2l.5 1 .5 1"/></g><path d="m179 707l3 1 .5-1.5.5-1.5v-2.5-2.5l-.5-1.5-.5-1.5-2 .5-2 .5-.5 1.5-.5 1.5.5 2 .5 2 .5 1 .5 1" style="fill:#78786a;stroke:#78786a"/><path d="m208 707l3 1 .5-1.5.5-1.5v-1.5-1.5l.5-1.5.5-1.5-2-.5-2-.5-1.5-.5-1.5-.5-.5 2-.5 2 1 1 1 1v2 2h.5.5" style="fill:#20251e;stroke:#20251e"/><path d="m345 707l-4-21-6-9.5-6-9.5-1 9.5-1 9.5 7.5 8 7.5 8 1.5 2.5 1.5 2.5" style="fill:#595b4b;stroke:#595b4b"/><g style="fill:#20251e;stroke:#20251e"><path d="m187 697l-6-19-2.5 7-2.5 7 5.5 2.5 5.5 2.5"/><path d="m349 696l3-16 7.5-2 7.5-2 3 .5 3 .5-6.5-9-6.5-9 3-5.5 3-5.5-3-9.5-3-9.5-8.5-3.5-8.5-3.5 2.5 10 2.5 10 4 2.5 4 2.5-4.5 9-4.5 9-1.5 8-1.5 8 2.5 7.5 2.5 7.5"/><path d="m272 693l1-22-9.5-3-9.5-3 4-3.5 4-3.5 2.5-6 2.5-6-4.5-10-4.5-10-4.5-8-4.5-8-6-10-6-10-3 2.5-3 2.5 6.5 9 6.5 9 2.5 9 2.5 9-1 8.5-1 8.5-10-2.5-10-2.5-5 6.5-5 6.5 6.5-4 6.5-4 4.5 9 4.5 9 9 6.5 9 6.5 7.5 7 7.5 7"/></g><g style="fill:#78786a;stroke:#78786a"><path d="m204 692h13l4-8.5 4-8.5-6-9.5-6-9.5-3 7.5-3 7.5-3.5 8-3.5 8 2 2.5 2 2.5"/><path d="m385 690l1 1-6-22-6-22-3.5-13-3.5-13 3 17.5 3 17.5-.5 8-.5 8 6.5 9 6.5 9"/><path d="m233 685l2-23-4-.5-4-.5 2.5 12 2.5 12h.5.5"/></g><path d="m321 680l-1-24-7.5 3-7.5 3 4.5 7 4.5 7 3.5 2 3.5 2" style="fill:#20251e;stroke:#20251e"/><path d="m180 672l18-13-5-8.5-5-8.5-2 11.5-2 11.5-2 3.5-2 3.5" style="fill:#595b4b;stroke:#595b4b"/><path d="m280 666l8-19-6.5 5-6.5 5 2.5 4.5 2.5 4.5" style="fill:#20251e;stroke:#20251e"/><path d="m339 664l14-15-7 4.5-7 4.5v3 3" style="fill:#595b4b;stroke:#595b4b"/><path d="m201 657l3-24-9-3.5-9-3.5-4.5-8-4.5-8-6.5-6-6.5-6 2 10.5 2 10.5 8 7.5 8 7.5 2.5 2.5 2.5 2.5 6 9 6 9" style="fill:#20251e;stroke:#20251e"/><path d="m307 655l-4-19-3 .5-3 .5 4.5 9 4.5 9h.5.5" style="fill:#78786a;stroke:#78786a"/><path d="m316 652v-19l-.5 9-.5 9 .5.5.5.5" style="fill:#20251e;stroke:#20251e"/><path d="m275 649v-17l-3.5 6-3.5 6 3.5 2.5 3.5 2.5" style="fill:#595b4b;stroke:#595b4b"/><path d="m281 636l13-18 7 5.5 7 5.5-1.5-2-1.5-2-7-7.5-7-7.5-9-.5-9-.5 2.5 11 2.5 11 1.5 2.5 1.5 2.5" style="fill:#20251e;stroke:#20251e"/><g style="fill:#595b4b;stroke:#595b4b"><path d="m160 626l3 1 1-1 1-1-.5-2-.5-2-.5-1.5-.5-1.5-2 .5-2 .5-.5 1.5-.5 1.5.5 2 .5 2h.5.5"/><path d="m222 625l19-6-9.5-1-9.5-1v4 4"/></g><path d="m198 623l4 1 1-1 1-1 .5-2 .5-2 .5-1.5.5-1.5v-2.5-2.5l.5-1.5.5-1.5-.5-1.5-.5-1.5-1.5.5-1.5.5-.5.5-.5.5-.5-.5-.5-.5-.5-1-.5-1v1 1 1 1l-.5.5-.5.5-.5 1-.5 1-.5.5-.5.5v1 1l-.5.5-.5.5v1.5 1.5l.5.5.5.5v1 1l.5 1.5.5 1.5" style="fill:#20251e;stroke:#20251e"/><path d="m366 620l1 1v-1.5-1.5l-.5-1.5-.5-1.5v-2.5-2.5l-1-1-1-1v-2-2l-.5-2-.5-2-.5-1.5-.5-1.5v-2.5-2.5l-1-1-1-1v2 2 2 2l.5 1 .5 1v1 1l.5 1.5.5 1.5.5 1 .5 1v1 1 1 1l.5.5.5.5-.5 1-.5 1v1 1l.5.5.5.5.5.5.5.5.5 1 .5 1" style="fill:#78786a;stroke:#78786a"/><path d="m263 618h2v-1-1-2.5-2.5l-.5-.5-.5-.5-1 1.5-1 1.5-1.5-.5-1.5-.5h-2.5-2.5v1 1l1.5.5 1.5.5 1.5 1 1.5 1 1.5.5 1.5.5" style="fill:#20251e;stroke:#20251e"/><path d="m305 617l-5-14-6-5.5-6-5.5-1-12.5-1-12.5-2 10.5-2 10.5-4.5-5-4.5-5-6.5-1-6.5-1-5.5 4.5-5.5 4.5 5.5 6 5.5 6 10.5 1 10.5 1 8.5 7 8.5 7 3.5 2 3.5 2" style="fill:#78786a;stroke:#78786a"/><path d="m354 616h2l-1-1-1-1-2-.5-2-.5-1-1-1-1-1.5-1-1.5-1-.5 1.5-.5 1.5.5 2 .5 2 1.5-.5 1.5-.5 1.5.5 1.5.5h1.5 1.5" style="fill:#20251e;stroke:#20251e"/><path d="m323 612h2l.5-1.5.5-1.5-.5-2-.5-2h-2-2l-2 .5-2 .5-1 1-1 1 1 1.5 1 1.5 1.5.5 1.5.5h1 1 .5.5" style="fill:#78786a;stroke:#78786a"/><path d="m190 611l-5-14-5 3.5-5 3.5 7.5 3.5 7.5 3.5" style="fill:#595b4b;stroke:#595b4b"/><g style="fill:#78786a;stroke:#78786a"><path d="m236 610l-11-14-8.5-4-8.5-4-8-.5-8-.5 8 7.5 8 7.5 11 3.5 11 3.5 3 .5 3 .5"/><path d="m141 605l1 1-4-13.5-4-13.5-3-12-3-12 1-9.5 1-9.5.5-5 .5-5 8-7.5 8-7.5 6.5-9 6.5-9-.5-13-.5-13-7.5 6-7.5 6 .5 1 .5 1v1 1l.5.5.5.5v1 1 1 1l.5.5.5.5v1.5 1.5l.5.5.5.5v1 1 1 1l.5 1 .5 1v1 1 1 1 1 1l-.5 1-.5 1-.5.5-.5.5-.5.5-.5.5h-1-1-1-1l-.5-.5-.5-.5 1.5-14.5 1.5-14.5v-2.5-2.5-2-2h-1.5-1.5v1 1l-1 1-1 1-1 1-1 1-1-1.5-1-1.5-.5-1.5-.5-1.5v-2-2h-1-1l-3 7.5-3 7.5-1 11.5-1 11.5 4.5 9 4.5 9-5 3.5-5 3.5 2 13.5 2 13.5 3 12.5 3 12.5 4 12 4 12"/></g><g style="fill:#20251e;stroke:#20251e"><path d="m340 604h2l.5-1.5.5-1.5.5-2 .5-2-1-1-1-1-1.5 1-1.5 1-1 1-1 1 .5 2 .5 2 1 .5 1 .5"/><path d="m310 600l5-24-9-1.5-9-1.5-5.5-9-5.5-9 1.5 5 1.5 5 2 12.5 2 12.5 5 4.5 5 4.5 3.5.5 3.5.5"/></g><path d="m273 599l-4-25 1 5.5 1 5.5 1 7 1 7" style="fill:#939b96;stroke:#939b96"/><path d="m188 596l3 1 .5-1.5.5-1.5-.5-9.5-.5-9.5-9-2.5-9-2.5-1.5 7-1.5 7 9 6 9 6" style="fill:#20251e;stroke:#20251e"/><g style="fill:#595b4b;stroke:#595b4b"><path d="m157 593l3 1 1.5-.5 1.5-.5 1.5-1 1.5-1-1.5-.5-1.5-.5-1.5-1-1.5-1-1-1-1-1h-2.5-2.5l.5 1.5.5 1.5.5 1.5.5 1.5 1 .5 1 .5"/><path d="m340 591l7-22-10.5-5-10.5-5-1 6.5-1 6.5 7.5 8 7.5 8 .5 1.5.5 1.5"/></g><g style="fill:#78786a;stroke:#78786a"><path d="m320 588h2l1-1 1-1v-1.5-1.5l-.5-1.5-.5-1.5-2-.5-2-.5v1 1 2.5 2.5l.5 1 .5 1"/><path d="m341 588l-1-20-10-2.5-10-2.5 6.5 9 6.5 9 4 3.5 4 3.5"/></g><path d="m285 586h2l.5-1.5.5-1.5-.5-2-.5-2v-2-2l-1-1.5-1-1.5-1 1-1 1v2.5 2.5 2 2l1 1 1 1v.5.5" style="fill:#939b96;stroke:#939b96"/><path d="m214 585h2l1-1 1-1 .5-2 .5-2 .5-1.5.5-1.5h-1.5-1.5l-1 1-1 1-1.5 1-1.5 1-1.5.5-1.5.5-1 1-1 1 1.5 1 1.5 1h2 2" style="fill:#20251e;stroke:#20251e"/><path d="m339 584l-4-17 1 4.5 1 4.5 1 4 1 4" style="fill:#939b96;stroke:#939b96"/><path d="m239 581l9-2-1-9.5-1-9.5-4.5 3-4.5 3 1 7.5 1 7.5" style="fill:#20251e;stroke:#20251e"/><path d="m207 576l1-12-11-.5-11-.5-6-1.5-6-1.5-4.5-11-4.5-11-3 4.5-3 4.5-2 1.5-2 1.5-6-2-6-2-1 8.5-1 8.5 9.5 4 9.5 4 10.5-3 10.5-3 2 2.5 2 2.5h2 2l2 .5 2 .5 1.5.5 1.5.5 1.5.5 1.5.5 2 .5 2 .5 1.5.5 1.5.5.5.5.5.5" style="fill:#78786a;stroke:#78786a"/><path d="m309 575l7-20-8-7.5-8-7.5-2.5 9-2.5 9 5.5 7 5.5 7 1.5 1.5 1.5 1.5" style="fill:#595b4b;stroke:#595b4b"/><path d="m157 568l-7-20-1 2.5-1 2.5 4.5 7.5 4.5 7.5" style="fill:#939b96;stroke:#939b96"/><path d="m137 566l2-19-3.5 6-3.5 6 2.5 3.5 2.5 3.5" style="fill:#383b32;stroke:#383b32"/><g style="fill:#20251e;stroke:#20251e"><path d="m209 559l2-13-9-5.5-9-5.5-10-2.5-10-2.5-7-8.5-7-8.5 1 6.5 1 6.5 5 9.5 5 9.5 9 2 9 2 8 4.5 8 4.5 2 .5 2 .5"/><path d="m251 558l8-9-4.5 3-4.5 3 .5 1.5.5 1.5"/></g><path d="m354 558l1 1h.5.5l-.5-15.5-.5-15.5-2-14-2-14-4-10.5-4-10.5-.5-13-.5-13 1.5-12 1.5-12-2-5-2-5h1 1 2 2v1 1l-.5.5-.5.5-.5 1-.5 1v1 1l-.5.5-.5.5h-1-1l-.5.5-.5.5-1 .5-1 .5v1 1 1 1 1 1l-.5.5-.5.5.5 1 .5 1v1.5 1.5l.5 1 .5 1v2.5 2.5 2 2 2.5 2.5l-.5 1.5-.5 1.5v2.5 2.5l.5 1.5.5 1.5v1.5 1.5l1.5 10 1.5 10 3.5 11 3.5 11 1.5 20.5 1.5 20.5.5 2 .5 2" style="fill:#78786a;stroke:#78786a"/><path d="m165 555h2v-2-2l-1-1.5-1-1.5-.5-1.5-.5-1.5.5-2 .5-2-1-1-1-1-1 1.5-1 1.5v2 2l.5 1.5.5 1.5.5 2 .5 2 1 1 1 1" style="fill:#939b96;stroke:#939b96"/><g style="fill:#595b4b;stroke:#595b4b"><path d="m233 555l14-15 11.5 2.5 11.5 2.5 5-7.5 5-7.5 11.5-4 11.5-4-.5-8-.5-8 2-2 2-2-.5-1-.5-1-.5-1-.5-1v-1-1l.5-1 .5-1-1-1-1-1-1.5-.5-1.5-.5-1.5-1.5-1.5-1.5-.5-1.5-.5-1.5-1.5-1-1.5-1h-2-2l-1.5-1-1.5-1 .5-1.5.5-1.5-1-1-1-1-1 1.5-1 1.5-1.5-1-1.5-1-1.5-1-1.5-1-.5 1.5-.5 1.5v2 2l1 .5 1 .5 9.5 14.5 9.5 14.5-5.5 7-5.5 7-12 8-12 8-6-3-6-3 3.5-11.5 3.5-11.5v-.5-.5l-.5-.5-.5-.5h-1-1l-.5.5-.5.5-.5 1-.5 1v2 2h-1.5-1.5l-1-.5-1-.5-3-.5-3-.5-4 7.5-4 7.5-11.5-3-11.5-3-2-9.5-2-9.5-10.5-3-10.5-3-1.5 8-1.5 8 6.5 8.5 6.5 8.5 9-2.5 9-2.5-.5 8-.5 8 10.5 5.5 10.5 5.5"/><path d="m331 555l22-1-1.5-20.5-1.5-20.5-3.5-11-3.5-11-1.5-10-1.5-10-.5-.5-.5-.5h-1-1l3 13 3 13-4.5 10-4.5 10-2 10.5-2 10.5.5 2 .5 2-.5.5-.5.5-.5.5-.5.5-.5-.5-.5-.5h-2-2l-1 .5-1 .5-.5.5-.5.5-1 1-1 1v1.5 1.5l.5.5.5.5 1 1 1 1 1 .5 1 .5.5.5.5.5.5.5.5.5h1 1 1.5 1.5"/></g><g style="fill:#78786a;stroke:#78786a"><path d="m232 552l9-16h-10.5-10.5l4.5 7 4.5 7 1.5 1 1.5 1"/><path d="m328 552l3 1v-1-1l-1-1.5-1-1.5-.5-1.5-.5-1.5-2-.5-2-.5-1 1-1 1-.5 1-.5 1 1 1 1 1 1 1 1 1h1.5 1.5"/></g><path d="m314 548l6-13-10-4.5-10-4.5-4.5 5-4.5 5 9.5 2 9.5 2 2 4 2 4" style="fill:#20251e;stroke:#20251e"/><g style="fill:#78786a;stroke:#78786a"><path d="m337 547l3 1-.5-1.5-.5-1.5-.5-2-.5-2-.5-1.5-.5-1.5-1.5-1-1.5-1-.5 1.5-.5 1.5v2.5 2.5l1 1 1 1 1 .5 1 .5"/><path d="m262 542l24-16 5.5-7 5.5-7-16 10-16 10-2.5-.5-2.5-.5-1-1.5-1-1.5-.5-1.5-.5-1.5-.5-2-.5-2v-2-2l1-1 1-1 2-.5 2-.5h2 2v-.5-.5l.5-1 .5-1-1 .5-1 .5-1.5-.5-1.5-.5-1.5.5-1.5.5-1 .5-1 .5-3.5 11.5-3.5 11.5 6 3 6 3"/></g><path d="m329 536l1 1 2-10.5 2-10.5 4.5-10 4.5-10-3-13-3-13v-12-12-2.5-2.5-1-1l-.5-1-.5-1v-2-2h-1-1l-.5-1-.5-1 1-1 1-1 1.5-1 1.5-1 1-1 1-1 1-.5 1-.5v-1.5-1.5h-1.5-1.5l-1-.5-1-.5-.5.5-.5.5-.5.5-.5.5-1.5-.5-1.5-.5.5-1 .5-1v-1-1l-1.5-1-1.5-1 .5-1.5.5-1.5 1-1 1-1 .5-2 .5-2 1-1 1-1 1.5.5 1.5.5 1-1 1-1 1-1 1-1v-1-1l.5-.5.5-.5.5-1 .5-1-15 8-15 8-11.5-3.5-11.5-3.5-8.5-7-8.5-7-7.5-8-7.5-8-3.5-12-3.5-12 1.5-12.5 1.5-12.5 5-10.5 5-10.5-1-13.5-1-13.5-4.5 12-4.5 12-2.5 12-2.5 12-6.5 7-6.5 7-8 7.5-8 7.5v10.5 10.5l.5 10 .5 10 1.5 5 1.5 5-3 9.5-3 9.5 1 11.5 1 11.5 5 8.5 5 8.5 5.5-2 5.5-2 5.5 5 5.5 5 2.5-5 2.5-5-7-5.5-7-5.5-5.5-9-5.5-9 3-10 3-10 7.5-2 7.5-2 9.5 5 9.5 5 10-2.5 10-2.5-5.5 10-5.5 10-2.5 21-2.5 21 1.5 1 1.5 1-1-14.5-1-14.5 7-14.5 7-14.5 2-1 2-1 1-1 1-1 1.5-.5 1.5-.5 10 5 10 5 1.5 10.5 1.5 10.5-1 9.5-1 9.5-9.5 14-9.5 14 1 1 1 1-.5 1-.5 1v1 1l.5 1 .5 1 .5 1 .5 1 10.5-1 10.5-1 1 8.5 1 8.5v9.5 9.5" style="fill:#5a402b;stroke:#5a402b"/><path d="m265 532l32-20-.5-.5-.5-.5-9-10-9-10-.5 1-.5 1-.5 1.5-.5 1.5-.5 2-.5 2 .5 1.5.5 1.5-1 1.5-1 1.5-1 1-1 1-1 1.5-1 1.5-1 1-1 1-1 .5-1 .5h-2-2l-2 .5-2 .5-1 1-1 1v2 2l.5 2 .5 2 .5 1.5.5 1.5 1 1.5 1 1.5 2.5.5 2.5.5" style="fill:#939b96;stroke:#939b96"/><path d="m177 531h2l1-1 1-1v-1.5-1.5l.5-.5.5-.5 2-.5 2-.5-1.5-.5-1.5-.5-.5-2-.5-2v-1.5-1.5l-2 .5-2 .5v1.5 1.5 1 1l-1.5 1-1.5 1v2 2l1 1.5 1 1.5" style="fill:#595b4b;stroke:#595b4b"/><path d="m240 531l-16-5 6.5 2 6.5 2 1.5.5 1.5.5" style="fill:#20251e;stroke:#20251e"/><path d="m262 528l27-6 1-8.5 1-8.5-5.5-5-5.5-5-2.5 8-2.5 8 .5 2 .5 2 .5.5.5.5.5.5.5.5.5.5.5.5-.5 1-.5 1h-2-2l-.5.5-.5.5h-1-1l-.5.5-.5.5-1 .5-1 .5-.5-.5-.5-.5h-1-1l-.5-.5-.5-.5-.5-1-.5-1h-1-1l-.5.5-.5.5v1 1l-.5 1-.5 1 1 1 1 1 .5 1 .5 1" style="fill:#bdc4be;stroke:#bdc4be"/><path d="m201 523l3 1 .5-1.5.5-1.5 1.5-1 1.5-1 .5-1.5.5-1.5h-1.5-1.5l-1.5.5-1.5.5-2 .5-2 .5v1 1l.5 1.5.5 1.5h.5.5" style="fill:#78786a;stroke:#78786a"/><path d="m223 523l3 1h1 1 1 1 1 1l1-.5 1-.5.5-.5.5-.5v-1-1l-.5-.5-.5-.5-1-1-1-1v-1.5-1.5l1-.5 1-.5 1-1.5 1-1.5.5-1 .5-1-1-1-1-1-1.5 1-1.5 1-.5 1.5-.5 1.5-1.5-.5-1.5-.5-2 .5-2 .5-1 1-1 1-1 1-1 1-1.5 1-1.5 1 .5 1.5.5 1.5 1 1.5 1 1.5h1.5 1.5" style="fill:#595b4b;stroke:#595b4b"/><path d="m259 523v1l.5-1 .5-1v-1-1l.5-.5.5-.5h1 1l.5 1 .5 1 .5.5.5.5h1 1l.5.5.5.5 1-.5 1-.5.5-.5.5-.5h1 1l.5-.5.5-.5h2 2l.5-1 .5-1-.5-.5-.5-.5-.5-.5-.5-.5-.5-.5-.5-.5-.5-2-.5-2-1.5 2-1.5 2-1.5.5-1.5.5h-1.5-1.5l-1.5.5-1.5.5-2 .5-2 .5-.5 1.5-.5 1.5.5 1 .5 1" style="fill:#bdb08a;stroke:#bdb08a"/><path d="m225 522h2l1.5-.5 1.5-.5-.5-2-.5-2 .5-1.5.5-1.5-1.5-1-1.5-1-1.5.5-1.5.5-1 1.5-1 1.5-1.5.5-1.5.5.5 1.5.5 1.5 1.5 1 1.5 1h1 1" style="fill:#78786a;stroke:#78786a"/><path d="m249 518h3v-2-2l.5-1 .5-1 .5-.5.5-.5h1 1l-8.5-8-8.5-8-14-12.5-14-12.5v1.5 1.5 1.5 1.5l.5.5.5.5.5.5.5.5.5.5.5.5.5.5.5.5.5 1 .5 1 .5.5.5.5.5.5.5.5v1 1l.5 1 .5 1v1 1 1 1l-.5.5-.5.5v1 1 1.5 1.5l.5-1 .5-1 .5-1 .5-1 .5-.5.5-.5v-2-2l.5 1 .5 1 .5.5.5.5 1.5.5 1.5.5 1 1 1 1 .5 1 .5 1 .5.5.5.5 1 1 1 1-.5 1-.5 1v1 1l.5 2 .5 2 1.5-1 1.5-1 1 1 1 1-.5 1-.5 1-1 1.5-1 1.5h1.5 1.5l2 1.5 2 1.5 3 .5 3 .5 1 .5 1 .5" style="fill:#5a402b;stroke:#5a402b"/><path d="m266 513v1l1-.5 1-.5 1-1 1-1 1-1.5 1-1.5 1-1 1-1 1-1.5 1-1.5-.5-1.5-.5-1.5.5-2 .5-2 .5-1.5.5-1.5.5-1 .5-1-1.5 1-1.5 1-1 1.5-1 1.5v1 1l-.5 1-.5 1-.5 1.5-.5 1.5-.5.5-.5.5-.5 1-.5 1-.5 1.5-.5 1.5-.5 1-.5 1-.5 1-.5 1" style="fill:#a07566;stroke:#a07566"/><path d="m212 512l16-13-8 4.5-8 4.5v2 2" style="fill:#20251e;stroke:#20251e"/><path d="m257 512v1l1-.5 1-.5 1.5-.5 1.5-.5 1.5-1 1.5-1 .5-1.5.5-1.5.5-2 .5-2 1-1 1-1 .5-2 .5-2-1-1-1-1-.5-1.5-.5-1.5h2.5 2.5l1.5-1.5 1.5-1.5.5-1 .5-1 .5-.5.5-.5-.5-.5-.5-.5 1-.5 1-.5-1-.5-1-.5v-2-2l.5-1.5.5-1.5 2.5-21 2.5-21 5.5-10 5.5-10-10 2.5-10 2.5-9.5-5-9.5-5-7.5 2-7.5 2-3 10-3 10 5.5 9 5.5 9 7 5.5 7 5.5-2.5 5-2.5 5-5.5-5-5.5-5-5.5 2-5.5 2-5-8.5-5-8.5-1-11.5-1-11.5 3-9.5 3-9.5-1.5-5-1.5-5-.5-10-.5-10v-10.5-10.5l8-7.5 8-7.5 6.5-7 6.5-7 2.5-12 2.5-12 4.5-12 4.5-12-5 12-5 12-4.5 11-4.5 11-7 8.5-7 8.5-8.5 7-8.5 7-4-2.5-4-2.5-.5 11-.5 11 3 6.5 3 6.5 5.5 8 5.5 8-7.5 5-7.5 5 4 9.5 4 9.5-5 3-5 3-7 1.5-7 1.5-11-2-11-2 1-.5 1-.5h1.5 1.5l1.5.5 1.5.5h1 1l.5-.5.5-.5h1 1 1.5 1.5l1 1 1 1 .5.5.5.5.5 1 .5 1 1 1.5 1 1.5-.5 1-.5 1 4.5 8.5 4.5 8.5 1.5.5 1.5.5 1.5 1 1.5 1 1 1 1 1 1.5 1 1.5 1 .5 1 .5 1 14 12.5 14 12.5 8.5 8 8.5 8 .5.5.5.5" style="fill:#78563c;stroke:#78563c"/><path d="m262 511l3 1 1-.5 1-.5.5-1 .5-1 .5-1.5.5-1.5.5-1 .5-1 .5-.5.5-.5.5-1.5.5-1.5.5-1 .5-1v-1-1l1-1.5 1-1.5v-2.5-2.5l-1.5 1.5-1.5 1.5h-2.5-2.5l.5 1.5.5 1.5 1 1 1 1-.5 2-.5 2-1 1-1 1-.5 2-.5 2-.5 1.5-.5 1.5-1.5 1-1.5 1" style="fill:#966845;stroke:#966845"/><path d="m296 511l1 1-9.5-14.5-9.5-14.5-1 .5-1 .5.5.5.5.5-.5.5-.5.5-.5 1-.5 1v2.5 2.5l1.5-1 1.5-1 9 10 9 10" style="fill:#78786a;stroke:#78786a"/><path d="m142 509h2 1 1l.5-.5.5-.5.5-.5.5-.5.5-1 .5-1v-1-1-1-1-1-1l-.5-1-.5-1v-1-1-1-1l-.5-.5-.5-.5v-1.5-1.5l-.5-.5-.5-.5v-1-1-1-1l-.5-.5-.5-.5v-1-1l-.5-1-.5-1-1.5 14.5-1.5 14.5v-.5-.5l-.5-10-.5-10 .5 10.5.5 10.5.5.5.5.5" style="fill:#939b96;stroke:#939b96"/><path d="m141 507v1l-.5-10.5-.5-10.5.5 10 .5 10" style="fill:#bdb08a;stroke:#bdb08a"/><path d="m130 504l3-18-4 8.5-4 8.5 2.5.5 2.5.5" style="fill:#595b4b;stroke:#595b4b"/><path d="m206 500l-9-24-8 4.5-8 4.5-1.5-10.5-1.5-10.5-1 .5-1 .5-6 5.5-6 5.5 1.5 7 1.5 7 10 3.5 10 3.5 9.5 1.5 9.5 1.5" style="fill:#20251e;stroke:#20251e"/><path d="m214 500l3 1 .5-1.5.5-1.5v-1.5-1.5-1-1l.5-.5.5-.5v-1-1-1-1l-.5-1-.5-1v-1-1l-.5-.5-.5-.5-.5-.5-.5-.5-.5-1-.5-1-.5-.5-.5-.5-.5-.5-.5-.5-.5-.5-.5-.5-.5-.5-.5-.5v-1.5-1.5-1.5-1.5l-.5-1-.5-1-1.5-1-1.5-1-1-1-1-1-1.5-1-1.5-1-1.5-.5-1.5-.5h-10.5-10.5v.5.5l13 8.5 13 8.5 5 10.5 5 10.5" style="fill:#595b4b;stroke:#595b4b"/><path d="m154 498l3-26-2.5 8-2.5 8 1 5 1 5" style="fill:#939b96;stroke:#939b96"/><path d="m300 491l3 1 9.5-14 9.5-14 1-9.5 1-9.5-1.5-10.5-1.5-10.5-10-5-10-5 4.5 8.5 4.5 8.5 4.5 9 4.5 9h-3.5-3.5l-5 4.5-5 4.5-1.5 11.5-1.5 11.5-6-9-6-9-2-5.5-2-5.5 4.5-16.5 4.5-16.5-7 14.5-7 14.5 1 14.5 1 14.5 1.5 1 1.5 1 1-1.5 1-1.5 1 1 1 1-.5 1.5-.5 1.5 1.5 1 1.5 1h2 2l1.5 1 1.5 1 .5 1.5.5 1.5 1.5 1.5 1.5 1.5" style="fill:#383b32;stroke:#383b32"/><path d="m232 486h2l1.5-.5 1.5-.5-.5-2-.5-2-1-1-1-1-1.5-1-1.5-1-1.5-.5-1.5-.5-1 1.5-1 1.5.5 1.5.5 1.5 1 1 1 1 1.5 1 1.5 1" style="fill:#966845;stroke:#966845"/><path d="m299 481l3-23 5-4.5 5-4.5h3.5 3.5l-4.5-9-4.5-9-4.5-8.5-4.5-8.5-1.5.5-1.5.5-1 1-1 1-2 1-2 1-4.5 16.5-4.5 16.5 2 5.5 2 5.5 6 9 6 9" style="fill:#20251e;stroke:#20251e"/><path d="m182 479h2l1.5-.5 1.5-.5 1-1.5 1-1.5-.5-1.5-.5-1.5-1-1.5-1-1.5-1.5.5-1.5.5-.5 2-.5 2-.5 1.5-.5 1.5.5 1 .5 1" style="fill:#78786a;stroke:#78786a"/><path d="m123 477v1l.5-1 .5-1 1-1.5 1-1.5 1-1 1-1 1-1 1-1 1-2 1-2 1-.5 1-.5 1-1.5 1-1.5 1-1 1-1 1-1.5 1-1.5v-.5-.5-1.5-1.5l1-1 1-1 .5-.5.5-.5v-1.5-1.5l1-1 1-1 .5-.5.5-.5.5-1 .5-1v-1-1l-1.5-1-1.5-1 .5-1.5.5-1.5.5-1.5.5-1.5 1-1 1-1 6.5-9.5 6.5-9.5 1.5-11 1.5-11 4.5-10 4.5-10 8-15.5 8-15.5.5-1.5.5-1.5 1-1 1-1v-1.5-1.5l.5-1.5.5-1.5.5-1.5.5-1.5v-.5-.5l5.5-11 5.5-11 7.5-13 7.5-13-1 .5-1 .5-1 .5-1 .5-.5.5-.5.5h-1-1l-.5.5-.5.5-1 .5-1 .5-.5.5-.5.5h-1-1l-.5.5-.5.5v1.5 1.5l.5.5.5.5-.5.5-.5.5-.5-.5-.5-.5-1-.5-1-.5-.5.5-.5.5h-1-1l-.5.5-.5.5-1.5-.5-1.5-.5-.5-6.5-.5-6.5-1-6.5-1-6.5-5.5-1-5.5-1v-8.5-8.5l.5-6 .5-6-4-5.5-4-5.5-6-6.5-6-6.5-4 11-4 11-1.5 3-1.5 3 5 4 5 4 1 6.5 1 6.5 2.5 7 2.5 7 4 5.5 4 5.5-.5 10-.5 10 3 6.5 3 6.5-1.5 11-1.5 11-2.5 12-2.5 12-5.5 8-5.5 8-3.5 10-3.5 10-1.5 12-1.5 12-7 8.5-7 8.5-3 10.5-3 10.5-5 11-5 11" style="fill:#bdb08a;stroke:#bdb08a"/><path d="m339 470l1 1v-1.5-1.5l-.5-1.5-.5-1.5v-2.5-2.5l.5-1.5.5-1.5v-2.5-2.5-2-2-2.5-2.5l-.5-1-.5-1v2 2 1 1 1.5 1.5l-1 .5-1 .5.5-1.5.5-1.5-.5-1-.5-1v12 12h1 1" style="fill:#78563c;stroke:#78563c"/><path d="m138 466h2l.5-1.5.5-1.5v-.5-.5l.5-.5.5-.5 1-1 1-1 .5 1 .5 1 .5.5.5.5v1 1l.5-1 .5-1 15.5-.5 15.5-.5h10.5 10.5l-4.5-8.5-4.5-8.5-19 5-19 5-.5-.5-.5-.5v-.5-.5h-1.5-1.5v.5.5l-.5 1.5-.5 1.5-1.5.5-1.5.5-1.5 1-1.5 1-1 1-1 1-1.5 1-1.5 1-1 1.5-1 1.5h2 2" style="fill:#78786a;stroke:#78786a"/><path d="m132 465v1h1 1l1-1.5 1-1.5 1.5-1 1.5-1 1-1 1-1 1.5-1 1.5-1 1.5-.5 1.5-.5.5-1.5.5-1.5-.5-.5-.5-.5v-1.5-1.5l-.5 1.5-.5 1.5-.5 1-.5 1-.5-.5-.5-.5h-1-1l-.5.5-.5.5-.5 1-.5 1-1 1.5-1 1.5-1 1-1 1-1 1.5-1 1.5-1 .5-1 .5" style="fill:#a07566;stroke:#a07566"/><path d="m172 465l2 1 1-.5 1-.5 1-.5 1-.5v-1-1-.5-.5l-15.5.5-15.5.5 1.5.5 1.5.5 1.5-.5 1.5-.5h1 1 2 2 1.5 1.5 1 1l.5-.5.5-.5h1 1l.5 1 .5 1 .5.5.5.5 1.5.5 1.5.5" style="fill:#939b96;stroke:#939b96"/><path d="m140 455v1l.5-1 .5-1 .5-.5.5-.5h1 1l.5.5.5.5.5-1 .5-1 .5-1.5.5-1.5.5-1.5.5-1.5 1.5-1 1.5-1 1.5-.5 1.5-.5 1-1.5 1-1.5 1.5-.5 1.5-.5h1 1l1-1.5 1-1.5 1-1 1-1 1.5-1 1.5-1-2-.5-2-.5-1 1-1 1h-1-1-2-2l-.5-1.5-.5-1.5-2-.5-2-.5h-1.5-1.5l-1 1-1 1-.5 1.5-.5 1.5-.5 1.5-.5 1.5 1.5 1 1.5 1v1 1l-.5 1-.5 1-.5.5-.5.5-1 1-1 1v1.5 1.5l-.5.5-.5.5-1 1-1 1v1.5 1.5" style="fill:#b78851;stroke:#b78851"/><path d="m152 454l38-10 .5-1 .5-1-1.5-.5-1.5-.5h-2-2-1-1l-1 .5-1 .5h-1-1-1.5-1.5-1-1l-1 .5-1 .5-2 .5-2 .5h-2-2v-.5-.5l-1.5 1-1.5 1-.5.5-.5.5.5 1 .5 1-.5 1.5-.5 1.5h-1-1l-1-.5-1-.5-1 1-1 1-1 .5-1 .5.5.5.5.5" style="fill:#595b4b;stroke:#595b4b"/><path d="m147 452l1 1v-.5-.5l1-1 1-1 1.5.5 1.5.5.5-.5.5-.5.5-.5.5-.5h1 1l.5-1 .5-1-.5-.5-.5-.5v-1-1l.5-.5.5-.5 1-.5 1-.5.5-.5.5-.5.5-.5.5-.5.5-.5.5-.5 1-.5 1-.5 1-1 1-1 1-.5 1-.5 11 2 11 2 7-1.5 7-1.5 5-3 5-3-4-9.5-4-9.5 7.5-5 7.5-5-5.5-8-5.5-8-3-6.5-3-6.5.5-11 .5-11 4 2.5 4 2.5 8.5-7 8.5-7 7-8.5 7-8.5 4.5-11 4.5-11 5-12 5-12 9.5-4.5 9.5-4.5.5 4 .5 4-4.5 8-4.5 8-5.5 10-5.5 10-2.5 12-2.5 12-1 11.5-1 11.5 5.5 10 5.5 10 8 5.5 8 5.5 7.5 5 7.5 5 11 2.5 11 2.5 11-12.5 11-12.5v-1-1-9-9l3-9.5 3-9.5-1-1-1-1h-1.5-1.5l-4-9-4-9-7.5 8-7.5 8-7.5-4-7.5-4-6-7.5-6-7.5 10-5.5 10-5.5 10.5 2 10.5 2 12 3.5 12 3.5v-1-1l-7.5-5-7.5-5-2-3.5-2-3.5 7.5-6 7.5-6v-.5-.5l.5-1 .5-1-.5-1-.5-1-1-1.5-1-1.5 1-1 1-1-1-1-1-1-.5-2-.5-2-1-1-1-1-1 1.5-1 1.5.5.5.5.5.5.5.5.5.5.5.5.5h-1-1l-10.5-6-10.5-6-12 2.5-12 2.5-3.5-3-3.5-3-4.5-8-4.5-8 1-7 1-7-11.5 2.5-11.5 2.5 1 .5 1 .5 1-.5 1-.5h1 1l.5-1 .5-1 1.5.5 1.5.5h1 1l.5.5.5.5h-1-1l-1 1-1 1-2.5 7.5-2.5 7.5 7 3.5 7 3.5-8 3.5-8 3.5-5.5 9.5-5.5 9.5-5 .5-5 .5-4 10.5-4 10.5-5 10.5-5 10.5-8.5 7-8.5 7-1.5-3-1.5-3 7-8.5 7-8.5 4.5-11 4.5-11-8 4.5-8 4.5-3 7.5-3 7.5-7.5 8-7.5 8v10.5 10.5l2 8.5 2 8.5-2 10.5-2 10.5-7 7.5-7 7.5.5 6 .5 6 9-1 9-1-16 6-16 6h-.5-.5l-1.5 1-1.5 1-1 1-1 1-1 1.5-1 1.5h-1-1l-1.5.5-1.5.5-1 1.5-1 1.5-1.5.5-1.5.5-1.5 1-1.5 1-.5 1.5-.5 1.5v1.5 1.5" style="fill:#966845;stroke:#966845"/><path d="m151 452v1l1-.5 1-.5 1-1 1-1 1 .5 1 .5h1 1l.5-1.5.5-1.5-.5-1-.5-1 .5-.5.5-.5 1.5-1 1.5-1 .5-1 .5-1 1-1.5 1-1.5 1.5-1.5 1.5-1.5-1 .5-1 .5-1 1-1 1-1 .5-1 .5-.5.5-.5.5-.5.5-.5.5-.5.5-.5.5-1 .5-1 .5-.5.5-.5.5v1 1l.5.5.5.5-.5 1-.5 1h-1-1l-.5.5-.5.5-.5.5-.5.5-1.5-.5-1.5-.5-1 1-1 1h1.5 1.5" style="fill:#78563c;stroke:#78563c"/><path d="m337 451l2-1v-1.5-1.5-1-1-2-2-1.5-1.5l-.5-1-.5-1 .5-.5.5-.5v-1-1-1-1-1-1l1-.5 1-.5.5-.5.5-.5h1 1l.5-.5.5-.5v-1-1l.5-1 .5-1 .5-.5.5-.5v-1-1h-2-2l-.5 1-.5 1v1.5 1.5l-1 .5-1 .5-1 1-1 1-1.5 1-1.5 1-1 1-1 1 .5 1 .5 1h1 1v2 2l.5 1 .5 1v1 1 2.5 2.5l.5 1 .5 1-.5 1.5-.5 1.5" style="fill:#595b4b;stroke:#595b4b"/><path d="m163 444h4l-1-.5-1-.5.5-1.5.5-1.5 1-1 1-1 1.5-1 1.5-1 1.5-.5 1.5-.5 1.5 1 1.5 1 1.5.5 1.5.5-1 2-1 2h1 1l1-.5 1-.5h1 1 2 2l1.5.5 1.5.5-1-1.5-1-1.5-.5-1-.5-1-.5-.5-.5-.5-1-1-1-1h-1.5-1.5-1-1l-.5.5-.5.5h-1-1l-1.5-.5-1.5-.5h-1.5-1.5l-1 .5-1 .5-1.5 1.5-1.5 1.5-1 1.5-1 1.5-.5 1-.5 1v.5.5" style="fill:#5a402b;stroke:#5a402b"/><path d="m165 443l2 1 2-.5 2-.5 1-.5 1-.5h1 1 1.5 1.5l1-2 1-2-1.5-.5-1.5-.5-1.5-1-1.5-1-1.5.5-1.5.5-1.5 1-1.5 1-1 1-1 1-.5 1.5-.5 1.5" style="fill:#383b32;stroke:#383b32"/><path d="m251 437l8-13-4 1.5-4 1.5v5 5" style="fill:#5a402b;stroke:#5a402b"/><path d="m160 433h2l1-1 1-1 2 .5 2 .5h.5.5v-.5-.5l-1-5.5-1-5.5 1-9.5 1-9.5 7-8.5 7-8.5.5-10 .5-10 2.5-13.5 2.5-13.5-8 15.5-8 15.5-4.5 10-4.5 10-1.5 11-1.5 11-6.5 9.5-6.5 9.5h1.5 1.5l2 .5 2 .5.5 1.5.5 1.5h2 2" style="fill:#d3b16b;stroke:#d3b16b"/><path d="m169 431v1l16-6 16-6-9 1-9 1-.5-6-.5-6 7-7.5 7-7.5 2-10.5 2-10.5-2-8.5-2-8.5v-10.5-10.5l7.5-8 7.5-8 3-7.5 3-7.5 8-4.5 8-4.5-4.5 11-4.5 11-7 8.5-7 8.5 1.5 3 1.5 3 8.5-7 8.5-7 5-10.5 5-10.5 4-10.5 4-10.5 5-.5 5-.5 5.5-9.5 5.5-9.5 8-3.5 8-3.5-7-3.5-7-3.5 2.5-7.5 2.5-7.5-2 .5-2 .5h-2-2l-1 .5-1 .5-1.5.5-1.5.5-2 .5-2 .5-1 1-1 1-1.5.5-1.5.5-1 1-1 1-4.5 15-4.5 15 5.5-7.5 5.5-7.5-7-3.5-7-3.5-1 .5-1 .5-1 1-1 1-1 1-1 1-1 1.5-1 1.5-1 1-1 1-1 1.5-1 1.5-2 1-2 1-1 9-1 9-6 8.5-6 8.5-8 10-8 10-.5 1.5-.5 1.5-.5 1.5-.5 1.5v1.5 1.5l-1 1-1 1-.5 1.5-.5 1.5-2.5 13.5-2.5 13.5-.5 10-.5 10-7 8.5-7 8.5-1 9.5-1 9.5 1 5.5 1 5.5" style="fill:#b78851;stroke:#b78851"/><path d="m645 429l-1-6-9.5 2-9.5 2 8-.5 8-.5 2 1.5 2 1.5" style="fill:#939b96;stroke:#939b96"/><g style="fill:#78563c;stroke:#78563c"><path d="m332 421l3 1 .5-.5.5-.5.5-.5.5-.5 1 .5 1 .5h1.5 1.5l.5-1 .5-1h-1-1l-1-.5-1-.5-.5-.5-.5-.5v-1-1l-.5-1-.5-1-.5-.5-.5-.5v-1-1l1-1 1-1 .5-1.5.5-1.5-1.5-.5-1.5-.5-1 1-1 1-.5 2-.5 2-1 1-1 1-.5 1.5-.5 1.5 1.5 1 1.5 1v1 1l-.5 1-.5 1"/><path d="m193 413h2l1.5-.5 1.5-.5 1.5-1 1.5-1 .5-1.5.5-1.5v-1.5-1.5l-1.5-.5-1.5-.5-1.5 1-1.5 1-1 1-1 1-.5 1.5-.5 1.5v1.5 1.5"/><path d="m315 412l30-16v-3-3l-.5-2-.5-2-.5-2.5-.5-2.5-11 12.5-11 12.5-11-2.5-11-2.5-7.5-5-7.5-5-8-5.5-8-5.5-5.5-10-5.5-10 1-11.5 1-11.5 2.5-12 2.5-12 5.5-10 5.5-10 4.5-8 4.5-8-.5-4-.5-4-9.5 4.5-9.5 4.5 1 13.5 1 13.5-5 10.5-5 10.5-1.5 12.5-1.5 12.5 3.5 12 3.5 12 7.5 8 7.5 8 8.5 7 8.5 7 11.5 3.5 11.5 3.5"/></g><path d="m338 411l1-1 1-1 1-1 .5-1 .5-1 .5-.5.5-.5 1-1 1-1 .5-1 .5-1v-1-1l.5-.5.5-.5v-1-1l.5-1 .5-1v-1-1-2-2l-.5-.5-.5-.5-.5-1.5-.5-1.5-.5-1-.5-1v-1-1l-1-.5-1-.5v1 1l.5 2.5.5 2.5.5 2 .5 2v3 3l-.5 1-.5 1-.5.5-.5.5v1 1l-1 1-1 1-1 1-1 1-.5 1.5-.5 1.5v1.5 1.5" style="fill:#78786a;stroke:#78786a"/><path d="m348 406l1 1 2-21.5 2-21.5 2.5-11 2.5-11-4.5 18.5-4.5 18.5-.5 13.5-.5 13.5" style="fill:#bdb08a;stroke:#bdb08a"/><path d="m256 397l4-15-5-10.5-5-10.5.5-3 .5-3h-1.5-1.5v1.5 1.5l.5 1.5.5 1.5-1 1.5-1 1.5-.5 1.5-.5 1.5.5 2 .5 2-.5 1.5-.5 1.5-1.5-.5-1.5-.5-1-1-1-1v-2.5-2.5l.5-1.5.5-1.5.5-2 .5-2-.5-1.5-.5-1.5.5-1 .5-1 1.5-1 1.5-1 .5-1 .5-1-.5-.5-.5-.5-1 .5-1 .5h-1-1l-1.5-1-1.5-1-1-1-1-1-1-.5-1-.5-1 12-1 12-3.5 1-3.5 1v11.5 11.5l8.5-3 8.5-3 6.5 4.5 6.5 4.5" style="fill:#383b32;stroke:#383b32"/><path d="m426 397l14-17-11.5-1.5-11.5-1.5-10 3.5-10 3.5-5 4.5-5 4.5 9.5-1 9.5-1 10 3 10 3" style="fill:#939b96;stroke:#939b96"/><path d="m309 396l23-10-6-7.5-6-7.5-1-3.5-1-3.5 10 1.5 10 1.5-7-4.5-7-4.5-7-2.5-7-2.5-6 8.5-6 8.5 1 8.5 1 8.5 4.5 4.5 4.5 4.5" style="fill:#78563c;stroke:#78563c"/><g style="fill:#939b96;stroke:#939b96"><path d="m546 390h2l-1-1-1-1v-2.5-2.5l-1.5-.5-1.5-.5-.5 2-.5 2-1.5-.5-1.5-.5-.5 1-.5 1 1 1 1 1h2 2l1 .5 1 .5"/><path d="m678 388l11-6 5-4.5 5-4.5-9-.5-9-.5-4.5 3-4.5 3-6.5-4-6.5-4-9.5 1-9.5 1-11-3.5-11-3.5-3.5 4-3.5 4 8 1 8 1-2 6.5-2 6.5 6.5-1 6.5-1 10-1.5 10-1.5 10 1.5 10 1.5 1 1 1 1"/></g><path d="m347 387l1 1 2-24 2-24-1 .5-1 .5-.5.5-.5.5-3 9.5-3 9.5v9 9l1 .5 1 .5v1 1l.5 1 .5 1 .5 1.5.5 1.5" style="fill:#a07566;stroke:#a07566"/><path d="m305 386h2l1-1 1-1 1-1.5 1-1.5-1.5-.5-1.5-.5h-1.5-1.5l-1-1-1-1-1 1.5-1 1.5.5 1.5.5 1.5 1 1 1 1h.5.5" style="fill:#966845;stroke:#966845"/><path d="m526 385h2l1-1 1-1 1-1.5 1-1.5v-1-1l-1-1.5-1-1.5-.5 1.5-.5 1.5-1.5 1-1.5 1-1 .5-1 .5-1 .5-1 .5 2 1.5 2 1.5" style="fill:#939b96;stroke:#939b96"/><path d="m317 380l-3-6-3 1.5-3 1.5 4.5 1.5 4.5 1.5" style="fill:#5a402b;stroke:#5a402b"/><path d="m243 373l3 1 .5-1.5.5-1.5-.5-2-.5-2 .5-1.5.5-1.5 1-1.5 1-1.5-.5-1.5-.5-1.5v-1.5-1.5-.5-.5l-1-1-1-1-1.5 1-1.5 1-.5 1-.5 1 .5 1.5.5 1.5-.5 2-.5 2-.5 1.5-.5 1.5v2.5 2.5l1 1 1 1" style="fill:#20251e;stroke:#20251e"/><path d="m267 371l14-15 .5-7 .5-7 6-5 6-5v-1.5-1.5l-1-1-1-1-.5-.5-.5-.5v-1.5-1.5l-1-.5-1-.5 4.5-6.5 4.5-6.5 5-3.5 5-3.5v-.5-.5l1.5-.5 1.5-.5-1-1-1-1v-1.5-1.5l1.5.5 1.5.5 1-1 1-1h2 2v-2-2l1-1 1-1 1.5-1 1.5-1 .5-1.5.5-1.5 1.5-1 1.5-1v-2-2h1.5 1.5l1-.5 1-.5-1-.5-1-.5v-1-1l-.5-1-.5-1 .5-.5.5-.5.5-.5.5-.5-.5-.5-.5-.5-1-.5-1-.5-.5-.5-.5-.5-.5-.5-.5-.5-1.5-.5-1.5-.5-12 3-12 3-4.5 3-4.5 3 10-1.5 10-1.5-7.5 7-7.5 7-1-.5-1-.5-1-1-1-1v-2-2l-1.5-.5-1.5-.5 1-1.5 1-1.5-4 9-4 9-5.5 7-5.5 7-2.5 10-2.5 10-2 9.5-2 9.5 1.5 11 1.5 11 1 1 1 1" style="fill:#b78851;stroke:#b78851"/><path d="m447 370l3 1 .5-1.5.5-1.5 1-1.5 1-1.5 1-1 1-1 1.5-1 1.5-1-1-1-1-1-1 .5-1 .5-1.5.5-1.5.5-.5 1.5-.5 1.5-1 1.5-1 1.5-.5 1.5-.5 1.5" style="fill:#bdc4be;stroke:#bdc4be"/><g style="fill:#939b96;stroke:#939b96"><path d="m387 359l4-19-7-.5-7-.5-4 5.5-4 5.5 8.5 3 8.5 3 .5 1.5.5 1.5"/><path d="m589 359l3 1h1 1l2-.5 2-.5h2 2l-.5-2-.5-2-1.5.5-1.5.5-1.5-1-1.5-1h-1-1l-1 1-1 1-1 1.5-1 1.5"/><path d="m613 359l1-8-3.5 1-3.5 1 3 3 3 3"/><path d="m695 358l3 1 .5-1.5.5-1.5v-1.5-1.5l-1-1-1-1-1.5-1-1.5-1-1.5.5-1.5.5-1.5 1-1.5 1 1 1 1 1 1.5-.5 1.5-.5 1.5 1 1.5 1-.5 1.5-.5 1.5"/></g><path d="m330 356l3 1 .5-.5.5-.5v-.5-.5-2-2-1-1l-.5-1-.5-1h-1-1v1 1l-.5 1-.5 1-1 1-1 1v1 1h-1.5-1.5-1.5-1.5l2 .5 2 .5h2 2" style="fill:#b78851;stroke:#b78851"/><path d="m334 355v1l.5-9.5.5-9.5-6.5 7-6.5 7v2 2h1.5 1.5 1.5 1.5v-1-1l1-1 1-1 .5-1 .5-1v-1-1h1 1l.5 1 .5 1v1 1 2 2" style="fill:#a07566;stroke:#a07566"/><path d="m248 354v1h1.5 1.5l-.5-1.5-.5-1.5-1-1.5-1-1.5-1-1-1-1-2-.5-2-.5-1-1-1-1h-2.5-2.5v.5.5l1 .5 1 .5 1 1 1 1 1.5 1 1.5 1h1 1l1-.5 1-.5.5.5.5.5-.5 1-.5 1 1 1 1 1" style="fill:#581c13;stroke:#581c13"/><path d="m701 347l3 1 1-1 1-1 1.5-1 1.5-1 .5-.5.5-.5 1 1 1 1v-1.5-1.5-1-1h-1.5-1.5-1-1l-.5 1.5-.5 1.5-1.5 1-1.5 1h-1-1l-2-.5-2-.5v1 1l2 .5 2 .5" style="fill:#939b96;stroke:#939b96"/><path d="m349 342l1-1 1-.5 1-.5 1-1 1-1 .5-1.5.5-1.5 1-.5 1-.5.5-.5.5-.5.5-1.5.5-1.5.5-1 .5-1v-1-1l.5-1.5.5-1.5.5-1.5.5-1.5.5-1.5.5-1.5-1-.5-1-.5-1-1.5-1-1.5v1 1l.5 1.5.5 1.5-.5 2-.5 2-.5 2.5-.5 2.5-.5 1-.5 1-.5 1.5-.5 1.5-1 1-1 1-.5.5-.5.5-1 1-1 1-1 .5-1 .5-1 1-1 1 1 1 1 1" style="fill:#78786a;stroke:#78786a"/><path d="m344 340h3l1-1 1-1 1-.5 1-.5-1.5-.5-1.5-.5-2.5-1-2.5-1v-.5-.5-3.5-3.5l.5-1.5.5-1.5 1-1 1-1 1.5-1 1.5-1 1-1 1-1 2-.5 2-.5-.5 1.5-.5 1.5 1 1.5 1 1.5v1.5 1.5l1 1 1 1 .5-2.5.5-2.5.5-2 .5-2-.5-1.5-.5-1.5-12-3.5-12-3.5-10.5-2-10.5-2-10 5.5-10 5.5 6 7.5 6 7.5 7.5 4 7.5 4 7.5-8 7.5-8 4 9 4 9" style="fill:#78563c;stroke:#78563c"/><path d="m348 336l3 1 1-1 1-1 .5-.5.5-.5 1-1 1-1 .5-1.5.5-1.5.5-1 .5-1-1-1-1-1-.5 2.5-.5 2.5-1 1-1 1-1.5.5-1.5.5-2 .5-2 .5h-1.5-1.5l2.5 1 2.5 1" style="fill:#595b4b;stroke:#595b4b"/><path d="m298 334h2l-.5-1.5-.5-1.5.5-2 .5-2-1-1-1-1-1.5 1-1.5 1-.5-1.5-.5-1.5-1.5-1-1.5-1h-1-1l1 .5 1 .5v1.5 1.5l.5.5.5.5 1 1 1 1v1.5 1.5h1.5 1.5l.5 1 .5 1" style="fill:#a07566;stroke:#a07566"/><path d="m343 333v1h1.5 1.5l2-.5 2-.5 1.5-.5 1.5-.5 1-1 1-1 .5-2.5.5-2.5v-1.5-1.5l-1-1.5-1-1.5.5-1.5.5-1.5-2 .5-2 .5-1 1-1 1-1.5 1-1.5 1-1 1-1 1-.5 1.5-.5 1.5v3.5 3.5" style="fill:#5a402b;stroke:#5a402b"/><g style="fill:#bdc4be;stroke:#bdc4be"><path d="m675 331l2-13-1.5 6-1.5 6 .5.5.5.5"/><path d="m651 330l3 1h2 2l.5-1 .5-1-1-1-1-1-1.5 1-1.5 1-1.5-.5-1.5-.5-.5-2-.5-2h-1-1l-1 1-1 1 1 1.5 1 1.5 1.5.5 1.5.5"/></g><path d="m325 328l2-21-9.5 3-9.5 3-.5 6-.5 6 9 1.5 9 1.5" style="fill:#5a402b;stroke:#5a402b"/><path d="m194 322v1l8-10 8-10 6-8.5 6-8.5 1-9 1-9-1 .5-1 .5v1.5 1.5l-1 1-1 1-7.5 13-7.5 13-5.5 11-5.5 11" style="fill:#d3b16b;stroke:#d3b16b"/><g style="fill:#a07566;stroke:#a07566"><path d="m361 316l2 1-.5-2-.5-2-.5-1-.5-1-.5-.5-.5-.5.5-1.5.5-1.5v-1.5-1.5l.5-.5.5-.5-.5-1.5-.5-1.5-.5-1-.5-1v-1-1-2-2l-.5-1.5-.5-1.5-.5-1-.5-1v-1-1l.5-1 .5-1-.5-1-.5-1-.5 1-.5 1-1 .5-1 .5-7.5 6-7.5 6 2 3.5 2 3.5 7.5 5 7.5 5 1 1.5 1 1.5"/><path d="m308 301v1h1.5 1.5l1.5-.5 1.5-.5 1.5-1 1.5-1h2 2l-1-1.5-1-1.5-.5-1-.5-1h-2-2l-1 1-1 1-1.5-.5-1.5-.5v1.5 1.5l1 1 1 1-1.5.5-1.5.5"/></g><path d="m295 287l15-14-10 1.5-10 1.5-1 1.5-1 1.5 1.5.5 1.5.5v2 2l1 1 1 1 1 .5 1 .5" style="fill:#d3b16b;stroke:#d3b16b"/><path d="m196 285l3 1 .5-.5.5-.5h1 1l.5-.5.5-.5 1 .5 1 .5.5.5.5.5.5-.5.5-.5-.5-.5-.5-.5v-1.5-1.5l.5-.5.5-.5h1 1l.5-.5.5-.5 1-.5 1-.5.5-.5.5-.5h1 1l.5-.5.5-.5 1-.5 1-.5v-.5-.5l-1-.5-1-.5-1-1-1-1 .5-1 .5-1-1-12.5-1-12.5-1-12.5-1-12.5 1-9.5 1-9.5-1.5-12-1.5-12-2-6.5-2-6.5-1-6.5-1-6.5.5-7 .5-7-1.5-7-1.5-7v-6.5-6.5l-1-5.5-1-5.5-5.5-10-5.5-10-2-10-2-10v-9.5-9.5l-4-2.5-4-2.5.5-11 .5-11-4-6-4-6h-17.5-17.5-15.5-15.5-15.5-15.5-15.5-15.5-15.5-15.5-5.5-5.5v3 3l6.5 2.5 6.5 2.5 4 1.5 4 1.5 7.5 2 7.5 2-3 4.5-3 4.5 7-1.5 7-1.5-.5 8-.5 8 3 .5 3 .5 6-3.5 6-3.5 3.5 2 3.5 2 4.5 6 4.5 6v4.5 4.5l4 7.5 4 7.5 7-1 7-1 2-1.5 2-1.5-1 6.5-1 6.5 9.5 3 9.5 3 6 .5 6 .5v7.5 7.5l4 6.5 4 6.5-1.5 5-1.5 5 2.5 9 2.5 9 1.5 8 1.5 8-1 3.5-1 3.5 3 10.5 3 10.5 7 7.5 7 7.5 6 6.5 6 6.5 4 5.5 4 5.5-.5 6-.5 6v8.5 8.5l5.5 1 5.5 1 1 6.5 1 6.5.5 6.5.5 6.5" style="fill:#939b96;stroke:#939b96"/><path d="m355 283v1l1-.5 1-.5.5-1 .5-1-6-12.5-6-12.5-6-9.5-6-9.5v-14.5-14.5l-.5-14-.5-14v-14.5-14.5l-.5-12-.5-12v-15.5-15.5-14.5-14.5l.5-13 .5-13 7.5 7.5 7.5 7.5-3 8.5-3 8.5 5.5 8 5.5 8 12.5-1 12.5-1 11-3.5 11-3.5 1.5-9 1.5-9 6.5-7 6.5-7 11-.5 11-.5 6 .5 6 .5 10.5 4 10.5 4h6.5 6.5l4 .5 4 .5 6 2.5 6 2.5 7.5.5 7.5.5 8-1.5 8-1.5 9 1.5 9 1.5-6 3.5-6 3.5 1 4.5 1 4.5 2.5-4 2.5-4 9-1.5 9-1.5 7-3.5 7-3.5 6 2.5 6 2.5 11 .5 11 .5 4.5 3 4.5 3 6.5-3 6.5-3 11 1.5 11 1.5 11.5 3.5 11.5 3.5 5-.5 5-.5h10.5 10.5v-3-3-2.5-2.5-2-2-2-2-1.5-1.5l-12 1-12 1-10.5-1-10.5-1-12.5-2-12.5-2-7-1.5-7-1.5h-10.5-10.5l-10-2.5-10-2.5-11.5.5-11.5.5-12-1.5-12-1.5-12.5-1-12.5-1-12-1.5-12-1.5h-11.5-11.5l-10-1.5-10-1.5-11.5-2-11.5-2-13-.5-13-.5-13.5-2-13.5-2-9.5-1-9.5-1-6.5 6-6.5 6-5.5 10-5.5 10v14.5 14.5l.5 13 .5 13 .5 13 .5 13-.5 14-.5 14v13 13l.5 15 .5 15 1 10.5 1 10.5 8 13 8 13 .5.5.5.5 1 1 1 1 .5 2 .5 2 1 1 1 1-1 1-1 1 1 1.5 1 1.5.5 1 .5 1-.5 1-.5 1" style="fill:#78786a;stroke:#78786a"/><path d="m333 276h2l1-1 1-1 2-.5 2-.5-1-1-1-1-1.5-1-1.5-1-1.5-.5-1.5-.5-1.5-1-1.5-1-1.5-.5-1.5-.5-1.5-.5-1.5-.5h-.5-.5l1.5.5 1.5.5.5.5.5.5.5.5.5.5 1 .5 1 .5.5.5.5.5-.5.5-.5.5-.5.5-.5.5.5 1 .5 1v1 1l1 .5 1 .5h.5.5" style="fill:#a07566;stroke:#a07566"/><path d="m243 275l9-30-.5 1-.5 1h-1-1l-1 .5-1 .5h-1-1l-.5.5-.5.5-.5.5-.5.5-.5.5-.5.5-1 1-1 1 7 3.5 7 3.5-5.5 7.5-5.5 7.5" style="fill:#d3b16b;stroke:#d3b16b"/><path d="m218 274v1l1-.5 1-.5 1-1 1-1v-1.5-1.5l1-.5 1-.5 2-1 2-1 1-1.5 1-1.5 1-1 1-1 1-1.5 1-1.5 1-1 1-1 1-1 1-1 1-.5 1-.5 1-1 1-1 .5-.5.5-.5.5-.5.5-.5.5-.5.5-.5h1 1l1-.5 1-.5h1 1l.5-1 .5-1 1-1 1-1 1.5-.5 1.5-.5 1-1 1-1 2-.5 2-.5 1.5-.5 1.5-.5 1-.5 1-.5h2 2l2-.5 2-.5 1-1 1-1h1 1l-.5-.5-.5-.5h-1-1l-1.5-.5-1.5-.5-.5 1-.5 1h-1-1l-1 .5-1 .5-1-.5-1-.5-9 4-9 4-8.5 7-8.5 7-8 7.5-8 7.5-.5-1-.5-1-.5 1-.5 1 1 1 1 1 1 .5 1 .5" style="fill:#a07566;stroke:#a07566"/><path d="m349 272h2l-.5-.5-.5-.5-.5-.5-.5-.5-.5-.5-.5-.5 1-1.5 1-1.5-.5-.5-.5-.5h-1-1l-1-1-1-1-1.5-1-1.5-1-1.5-.5-1.5-.5-3-.5-3-.5h-1.5-1.5l-1-.5-1-.5-1.5-.5-1.5-.5-.5-.5-.5-.5h-1.5-1.5l-1 1-1 1h-1-1l-1-.5-1-.5-1 1-1 1h-1-1l-5.5-8.5-5.5-8.5 12.5-2.5 12.5-2.5v-2.5-2.5-2-2l.5-2 .5-2-.5-1.5-.5-1.5-.5-1.5-.5-1.5-.5-1.5-.5-1.5-.5 2-.5 2 1 1.5 1 1.5-.5 1.5-.5 1.5.5 2 .5 2-1 1-1 1-2-.5-2-.5-1.5.5-1.5.5h-1.5-1.5l-1-.5-1-.5-2-.5-2-.5-1.5.5-1.5.5.5-2 .5-2 .5-1.5.5-1.5v-1.5-1.5l-1-1-1-1-.5-1.5-.5-1.5-.5-1.5-.5-1.5-5 6-5 6-.5-11-.5-11-1.5-9.5-1.5-9.5 1.5 23 1.5 23-1 7-1 7 4.5 8 4.5 8 3.5 3 3.5 3 12-2.5 12-2.5 10.5 6 10.5 6" style="fill:#78563c;stroke:#78563c"/><path d="m216 271l16-15 8.5-7 8.5-7 9-4 9-4 11.5-2.5 11.5-2.5-1.5-23-1.5-23 .5-9.5.5-9.5-2.5-17-2.5-17-1 .5-1 .5-2 1-2 1-1.5.5-1.5.5.5 1 .5 1 1.5.5 1.5.5-.5 2-.5 2-1.5 1.5-1.5 1.5-1 2.5-1 2.5.5 1.5.5 1.5-2 .5-2 .5.5.5.5.5.5 2 .5 2-.5 2-.5 2 1 1 1 1-.5.5-.5.5-.5.5-.5.5v-1-1h-1-1-1-1-1.5-1.5l-.5-.5-.5-.5-.5.5-.5.5v1 1l-1 .5-1 .5-.5.5-.5.5-.5.5-.5.5v1 1l-.5 1-.5 1h-1-1l-.5 1.5-.5 1.5 1 .5 1 .5 1.5.5 1.5.5 1 1 1 1-1.5 1-1.5 1-6-.5-6-.5-9.5 3-9.5 3 3 7 3 7-.5 4-.5 4-5.5 7-5.5 7v-1.5-1.5l1.5-.5 1.5-.5 1-1 1-1 1-1.5 1-1.5h-1-1l-1.5 1-1.5 1h-1-1l-.5-2-.5-2-1-1-1-1 .5-3 .5-3v-.5-.5l-1-.5-1-.5v-1-1l.5-.5.5-.5.5-1 .5-1 .5-.5.5-.5-.5-.5-.5-.5-.5-.5-.5-.5v-1.5-1.5l.5-.5.5-.5v-1-1h1 1l.5-1 .5-1v-.5-.5l-2.5-11.5-2.5-11.5-1-12.5-1-12.5v-10.5-10.5l-.5-9-.5-9-1-11.5-1-11.5-1-10.5-1-10.5-.5-13-.5-13-2-14-2-14h-3-3-2.5-2.5-2-2-2.5-2.5-2-2-2.5-2.5-2-2-.5-.5l4 6 4 6-.5 11-.5 11 4 2.5 4 2.5v9.5 9.5l2 10 2 10 5.5 10 5.5 10 1 5.5 1 5.5v6.5 6.5l1.5 7 1.5 7-.5 7-.5 7 1 6.5 1 6.5 2 6.5 2 6.5 1.5 12 1.5 12-1 9.5-1 9.5 1 12.5 1 12.5 1 12.5 1 12.5.5 1 .5 1" style="fill:#78786a;stroke:#78786a"/><path d="m347 265h2l-8-13-8-13-1-10.5-1-10.5-.5-15-.5-15v-13-13l.5-14 .5-14-.5-13-.5-13-.5-13-.5-13v-14.5-14.5l5.5-10 5.5-10 6.5-6 6.5-6 9.5 1 9.5 1 13.5 2 13.5 2 13 .5 13 .5 11.5 2 11.5 2 10 1.5 10 1.5h11.5 11.5l12 1.5 12 1.5 12.5 1 12.5 1 12 1.5 12 1.5 11.5-.5 11.5-.5 10 2.5 10 2.5h10.5 10.5l7 1.5 7 1.5 12.5 2 12.5 2 10.5 1 10.5 1 12-1 12-1v-17-17-10-10h-5.5-5.5-16-16-15.5-15.5-15.5-15.5-15.5-15.5-15.5-15.5-15.5-15.5-15.5-15.5-15.5-15.5-15.5-15.5-15.5-15.5-15.5-15.5-15.5-15.5-15.5-15.5-15.5-15.5-15.5-15.5-15.5-15.5l2 14 2 14 .5 13 .5 13 1 10.5 1 10.5 1 11.5 1 11.5.5 9 .5 9v10.5 10.5l1 12.5 1 12.5 2.5 11.5 2.5 11.5 7.5-4.5 7.5-4.5-5 5.5-5 5.5 9.5-3 9.5-3 6 .5 6 .5-1.5-.5-1.5-.5h-1.5-1.5l-1-1-1-1-.5-.5-.5-.5h-1-1l-.5.5-.5.5-1 .5-1 .5-.5.5-.5.5-.5-.5-.5-.5-.5-.5-.5-.5v-1.5-1.5l-.5-.5-.5-.5-.5-.5-.5-.5-.5-.5-.5-.5-.5-1-.5-1-.5-.5-.5-.5.5-1 .5-1-1-1-1-1 1.5.5 1.5.5h1 1 1 1l.5-.5.5-.5.5 1 .5 1 .5.5.5.5.5.5.5.5h1 1l1 .5 1 .5v-4-4l-7 .5-7 .5-2.5 5-2.5 5-4.5-5-4.5-5 3-7.5 3-7.5 3-7 3-7h5.5 5.5l6.5 3 6.5 3 2-.5 2-.5 6.5 2 6.5 2 1.5-1.5 1.5-1.5.5-2 .5-2-1.5-.5-1.5-.5-.5-1-.5-1 1.5-.5 1.5-.5 2-1 2-1-.5-.5-.5-.5-1-6-1-6 4.5-3 4.5-3-2 9-2 9 2.5 17 2.5 17-.5 9.5-.5 9.5 1.5 9.5 1.5 9.5.5 11 .5 11 5-6 5-6v-9-9l-1.5-8-1.5-8 2.5-9 2.5-9 1.5-5 1.5-5-2-6.5-2-6.5 5.5-3 5.5-3 2.5-1 2.5-1 1.5 8 1.5 8v8.5 8.5l-4 7-4 7 5 5.5 5 5.5v14 14l.5 1.5.5 1.5.5 1.5.5 1.5.5 1.5.5 1.5-.5 2-.5 2v2 2 2.5 2.5l2.5.5 2.5.5.5 1.5.5 1.5 1.5 1.5 1.5 1.5.5 1.5.5 1.5 1 1 1 1 1 1.5 1 1.5-.5 1-.5 1 .5 2 .5 2-1.5.5-1.5.5h-1.5-1.5l3 .5 3 .5 1.5.5 1.5.5 1.5 1 1.5 1 1 1 1 1" style="fill:#595b4b;stroke:#595b4b"/><path d="m311 259h2l1-1 1-1 1 .5 1 .5h1 1l1-1 1-1h1.5 1.5l.5.5.5.5 1.5.5 1.5.5 1 .5 1 .5h1.5 1.5 1.5 1.5l1.5-.5 1.5-.5-.5-2-.5-2-1 .5-1 .5-1-1-1-1-.5.5-.5.5h-1-1l-1-.5-1-.5-.5-.5-.5-.5v-1-1-1-1-1-1l1-.5 1-.5.5-.5.5-.5.5-.5.5-.5 1 .5 1 .5-1.5-1.5-1.5-1.5-.5-1.5-.5-1.5-2.5-.5-2.5-.5-12.5 2.5-12.5 2.5 5.5 8.5 5.5 8.5" style="fill:#5a402b;stroke:#5a402b"/><path d="m336 255l2-1 .5-1 .5-1-1-1.5-1-1.5-1-1-1-1-.5-1.5-.5-1.5-1-.5-1-.5-.5.5-.5.5-.5.5-.5.5-1 .5-1 .5v1 1 1 1 1 1l.5.5.5.5 1 .5 1 .5h1 1l.5-.5.5-.5 1 1 1 1" style="fill:#383b32;stroke:#383b32"/><path d="m340 237l2-21v-10.5-10.5l-2-10.5-2-10.5-.5 14-.5 14v13.5 13.5l1.5 4 1.5 4" style="fill:#bdc4be;stroke:#bdc4be"/><path d="m312 231h3l1.5-.5 1.5-.5 2 .5 2 .5 1-1 1-1-.5-2-.5-2 .5-1.5.5-1.5-1-1.5-1-1.5.5-2 .5-2v-14-14l-5-5.5-5-5.5 4-7 4-7v-8.5-8.5l-1.5-8-1.5-8-2.5 1-2.5 1-5.5 3-5.5 3 2 6.5 2 6.5-1.5 5-1.5 5-2.5 9-2.5 9 1.5 8 1.5 8v9 9l.5 1.5.5 1.5.5 1.5.5 1.5 1 1 1 1v1.5 1.5l-.5 1.5-.5 1.5-.5 2-.5 2 1.5-.5 1.5-.5 2 .5 2 .5 1 .5 1 .5" style="fill:#78786a;stroke:#78786a"/><path d="m220 223l11-14 .5-4 .5-4-3-7-3-7 5-5.5 5-5.5-7.5 4.5-7.5 4.5v.5.5l.5 1.5.5 1.5-.5 1.5-.5 1.5v1.5 1.5l.5 1.5.5 1.5h-1.5-1.5v2 2l-.5 1-.5 1-.5 3-.5 3 1 1 1 1 .5 2 .5 2h1 1l1.5-1 1.5-1h1 1l-1 1.5-1 1.5-1 1-1 1-1.5.5-1.5.5v1.5 1.5" style="fill:#78563c;stroke:#78563c"/><path d="m218 203v1l.5-1 .5-1v-2-2h1.5 1.5l-.5-1.5-.5-1.5v-1.5-1.5l.5-1.5.5-1.5-.5-1.5-.5-1.5-.5 1-.5 1h-1-1v1 1l-.5.5-.5.5v1.5 1.5l.5.5.5.5.5.5.5.5-.5.5-.5.5-.5 1-.5 1-.5.5-.5.5v1 1l1 .5 1 .5" style="fill:#595b4b;stroke:#595b4b"/><path d="m251 181h3l1.5.5 1.5.5 1.5-1 1.5-1-1-1-1-1-1.5-.5-1.5-.5-1-.5-1-.5h-1-1l.5-1.5.5-1.5 1-1 1-1 1-1.5 1-1.5 1-1 1-1 .5-2 .5-2v-1-1l2-.5 2-.5h1 1l1 1.5 1 1.5h1.5 1.5l.5-2 .5-2-.5-2-.5-2-.5-.5-.5-.5 2-.5 2-.5-.5-1.5-.5-1.5 1-2.5 1-2.5-6.5-2-6.5-2-2 .5-2 .5-6.5-3-6.5-3h-5.5-5.5l-3 7-3 7-3 7.5-3 7.5 4.5 5 4.5 5 2.5-5 2.5-5 7-.5 7-.5v4 4l-.5 1-.5 1-1 .5-1 .5-1.5-.5-1.5-.5-1-1-1-1-1-.5-1-.5-.5-.5-.5-.5-1-.5-1-.5-.5 1-.5 1 .5.5.5.5.5 1 .5 1 .5.5.5.5.5.5.5.5.5.5.5.5v1.5 1.5l.5.5.5.5.5.5.5.5.5-.5.5-.5 1-.5 1-.5.5-.5.5-.5h1 1l.5.5.5.5 1 1 1 1" style="fill:#78563c;stroke:#78563c"/><path d="m251 176h2l.5-1.5.5-1.5h1 1l.5-1 .5-1v-1-1l.5-.5.5-.5.5-.5.5-.5 1-.5 1-.5v-1-1l.5-.5.5-.5.5.5.5.5h1.5 1.5 1 1 1 1v1 1l.5-.5.5-.5.5-.5.5-.5-1-1-1-1h-1.5-1.5l-1-1.5-1-1.5h-1-1l-2 .5-2 .5v1 1l-.5 2-.5 2-1 1-1 1-1 1.5-1 1.5-1 1-1 1-.5 1.5-.5 1.5" style="fill:#595b4b;stroke:#595b4b"/><path d="m243 173l3 1 1-.5 1-.5.5-1 .5-1-1-.5-1-.5h-1-1l-.5-.5-.5-.5-.5-.5-.5-.5-.5-1-.5-1-.5.5-.5.5h-1-1-1-1l-1.5-.5-1.5-.5 1 1 1 1 1 .5 1 .5.5.5.5.5 1 .5 1 .5 1 1 1 1" style="fill:#78786a;stroke:#78786a"/><g style="fill:#78563c;stroke:#78563c"><path d="m280 130l1 1 1-.5 1-.5 2-9 2-9-4.5 3-4.5 3 1 6 1 6"/><path d="m273 117l12-17-4.5-3-4.5-3-7 7.5-7 7.5 4.5 2 4.5 2 1 2 1 2"/></g><path d="m490 103l-7-12 3 5.5 3 5.5.5.5.5.5" style="fill:#78786a;stroke:#78786a"/><path d="m355 84l18-1 10.5-4 10.5-4 3-11.5 3-11.5-5.5-3-5.5-3-8.5 7-8.5 7 1.5 6 1.5 6-6.5 1-6.5 1-3.5 5-3.5 5" style="fill:#595b4b;stroke:#595b4b"/><path d="m363 38l20-1 10-1.5 10-1.5-11.5-2-11.5-2-12.5-1-12.5-1-.5 4-.5 4 4.5 1 4.5 1" style="fill:#939b96;stroke:#939b96"/><path d="m324 32h2l1-1 1-1 1-1.5 1-1.5 1-1 1-1-1-.5-1-.5-1.5.5-1.5.5-1 1.5-1 1.5-1.5.5-1.5.5.5 1.5.5 1.5h.5.5" style="fill:#383b32;stroke:#383b32"/></g></svg>