<svg xmlns="http://www.w3.org/2000/svg" viewBox="0 0 960 712">
    <path d="m0 0h960v712h-960z" style="fill:#333329" />
    <g style="stroke-linejoin:round;stroke-width:.7">
        <path d="m959 712h1v-26-26-5.5-5.5h-.5-.5l-.5 6.5-.5 6.5-1-23.5-1-23.5 1-10.5 1-10.5-6.5-7.5-6.5-7.5 1-8.5 1-8.5 3.5-12 3.5-12-10-8.5-10-8.5-2 10-2 10 6 6.5 6 6.5-3 7.5-3 7.5-4 18.5-4 18.5h2 2l-.5.5-.5.5v1 1l1 .5 1 .5v1 1l.5-.5.5-.5.5-.5.5-.5v-1.5-1.5l.5.5.5.5v1 1 1 1 1 1l-1.5 11.5-1.5 11.5-16.5-3.5-16.5-3.5-3 4-3 4-5.5 5.5-5.5 5.5-3.5-7.5-3.5-7.5-9 5.5-9 5.5-14.5-1-14.5-1-12.5-5-12.5-5h-.5-.5l-12 4.5-12 4.5h-9-9l-11.5-.5-11.5-.5-11-.5-11-.5-16.5-2-16.5-2-8.5-4-8.5-4-5.5-8.5-5.5-8.5-2 1-2 1-1-1-1-1-1.5 1-1.5 1h-2-2l-2 .5-2 .5.5 1.5.5 1.5-.5.5-.5.5-1-1.5-1-1.5-1-.5-1-.5-1.5-.5-1.5-.5h-2-2l-.5.5-.5.5v1.5 1.5l-1 1-1 1-1.5 1-1.5 1h-2-2l-1 .5-1 .5-.5.5-.5.5.5.5.5.5v1 1l-.5 1-.5 1 .5.5.5.5v-1-1l.5-.5.5-.5 1 .5 1 .5h1 1l.5-.5.5-.5h1 1l-.5 1.5-.5 1.5-1 .5-1 .5h-1-1-1-1l-1.5 1.5-1.5 1.5.5 39.5.5 39.5h27.5 27.5 26.5 26.5 26.5 26.5 26.5 26.5 27 27 26.5 26.5 12 12" style="fill:#3b240e;stroke:#3b240e" />
        <path d="m959 649h1v-26-26-26.5-26.5-18-18h-.5-.5l-25 3.5-25 3.5 2 .5 2 .5 2-.5 2-.5 1.5-.5 1.5-.5-.5 1.5-.5 1.5h-.5-.5l-.5 1-.5 1h-2-2-2.5-2.5l-1-1-1-1-1.5.5-1.5.5-.5.5-.5.5h-1.5-1.5l-1-1-1-1v1 1h-1.5-1.5l.5-1.5.5-1.5h-1.5-1.5l-.5.5-.5.5-15.5 1.5-15.5 1.5-12.5-.5-12.5-.5-18.5 2-18.5 2 1 .5 1 .5.5 1 .5 1 .5.5.5.5h.5.5 1 1v1 1l-7.5 4.5-7.5 4.5-14-3-14-3 4-.5 4-.5-16.5-2.5-16.5-2.5-23.5-1-23.5-1 10 3 10 3 11 2.5 11 2.5-.5 1-.5 1 2.5 12.5 2.5 12.5v18.5 18.5l3 16.5 3 16.5 10 4.5 10 4.5-.5.5-.5.5h9 9l6.5-16 6.5-16 .5-16 .5-16 2-5.5 2-5.5 3.5 33 3.5 33 12.5 5 12.5 5 14.5 1 14.5 1 9-5.5 9-5.5 3.5 7.5 3.5 7.5 5.5-5.5 5.5-5.5 3-4 3-4-8-6.5-8-6.5 11 5.5 11 5.5 11-11 11-11 4-18.5 4-18.5 3-7.5 3-7.5-6-6.5-6-6.5 2-10 2-10 10 8.5 10 8.5-3.5 12-3.5 12-1 8.5-1 8.5 6.5 7.5 6.5 7.5-1 10.5-1 10.5 1 23.5 1 23.5.5-6.5.5-6.5" style="fill:#333329;stroke:#333329" />
        <path d="m959 508h1v-1.5-1.5-1.5-1.5h-.5-.5l-18.5 2-18.5 2-20.5 3-20.5 3-21.5 2-21.5 2-22 .5-22 .5-22.5.5-22.5.5-22.5-1-22.5-1-23.5-2-23.5-2-18.5-2.5-18.5-2.5-19.5-1-19.5-1-28-4.5-28-4.5-.5-2.5-.5-2.5 10.5 9.5 10.5 9.5 11 .5 11 .5 13 5.5 13 5.5 9-1.5 9-1.5 16.5 2 16.5 2 13.5-2 13.5-2 9 1.5 9 1.5-1 1-1 1-.5.5-.5.5 1.5.5 1.5.5.5-1 .5-1 23.5 1 23.5 1 16.5 2.5 16.5 2.5.5-2 .5-2 1.5-1.5 1.5-1.5 1-1 1-1 2 .5 2 .5 1 1 1 1 .5-1 .5-1 1-1 1-1h1.5 1.5 1 1l1-.5 1-.5.5 1 .5 1 .5 1 .5 1h1 1l.5-.5.5-.5h.5.5l18.5-2 18.5-2 12.5.5 12.5.5 1-1 1-1 1-.5 1-.5h1 1 1 1 1 1l.5-.5.5-.5h1.5 1.5l.5.5.5.5h1 1v-1-1h1 1l.5 1 .5 1h1 1l.5-.5.5-.5h1 1 1.5 1.5l.5-.5.5-.5 1.5.5 1.5.5h1.5 1.5l2-1 2-1h1 1l2-.5 2-.5h1 1l1 1 1 1 25-3.5 25-3.5" style="fill:#56432c;stroke:#56432c" />
        <path d="m959 502h1v-26-26-26.5-26.5-11-11h-.5-.5l-11.5-.5-11.5-.5-13.5 6-13.5 6h-.5-.5l-.5 1-.5 1-.5 1.5-.5 1.5.5 1.5.5 1.5-1 1-1 1-.5 2-.5 2 .5 1.5.5 1.5-1.5 1-1.5 1-1.5 1.5-1.5 1.5-.5.5-.5.5-10.5 23.5-10.5 23.5 7.5 21 7.5 21-1.5.5-1.5.5-1.5.5-1.5.5-1.5-.5-1.5-.5h-3.5-3.5-.5-.5l-1.5 1.5-1.5 1.5h-1-1l1 1.5 1 1.5 1 1 1 1h1.5 1.5v1 1l-13-1.5-13-1.5h-2.5-2.5l-1-1-1-1-16.5-.5-16.5-.5-19 2-19 2-27.5 2-27.5 2 1.5.5 1.5.5h1 1 1 1 1.5 1.5 2 2 1 1 1.5 1.5 2 2 1 1l1 .5 1 .5 1.5-.5 1.5-.5 1 .5 1 .5h3 3l1.5-.5 1.5-.5h1.5 1.5l1.5.5 1.5.5v1 1l-23.5-2-23.5-2-2-.5-2-.5h-2.5-2.5l-1.5-.5-1.5-.5-2-.5-2-.5-1.5.5-1.5.5h-2-2l-1-.5-1-.5h-2-2l-1-.5-1-.5h-.5-.5-.5-.5l-22-2-22-2h-.5-.5l-.5.5-.5.5-34.5-3.5-34.5-3.5h-.5-.5l-2 .5-2 .5-1.5-.5-1.5-.5h-1-1-1-1l-.5-.5-.5-.5-1 .5-1 .5-1.5-.5-1.5-.5h-1-1l-1-.5-1-.5-1.5.5-1.5.5-.5-.5-.5-.5-1-.5-1-.5-.5-2-.5-2-1.5.5-1.5.5.5 1.5.5 1.5-.5.5-.5.5-1.5.5-1.5.5-1.5-.5-1.5-.5-1.5.5-1.5.5h-2-2l28 4.5 28 4.5 19.5 1 19.5 1 18.5 2.5 18.5 2.5 23.5 2 23.5 2 22.5 1 22.5 1 22.5-.5 22.5-.5 22-.5 22-.5 21.5-2 21.5-2 20.5-3 20.5-3 18.5-2 18.5-2" style="fill:#6f542f;stroke:#6f542f" />
        <path d="m959 375h1v-.5-.5h-.5-.5l-.5-1-.5-1h-1-1l-.5-.5-.5-.5-1 .5-1 .5h-1-1l-.5-.5-.5-.5h-1-1-1.5-1.5-1-1-1-1-1.5-1.5-1-1-1-1-1-1l-.5-.5-.5-.5-1 .5-1 .5-.5-.5-.5-.5-.5.5-.5.5-1-.5-1-.5h-.5-.5l-1 .5-1 .5-.5-.5-.5-.5h-1-1l-1 .5-1 .5-.5.5-.5.5v1 1l-.5.5-.5.5-.5 1-.5 1v1 1l-.5.5-.5.5-.5.5-.5.5-.5.5-.5.5h-1-1l-1 1-1 1h.5.5l.5 1 .5 1 13.5-6 13.5-6 11.5.5 11.5.5" style="fill:#72654b;stroke:#72654b" />
        <path d="m959 374h1v-1.5-1.5-2-2-1.5-1.5h-.5-.5l-19.5 2-19.5 2 1.5.5 1.5.5 1 .5 1 .5 1 .5 1 .5.5-.5.5-.5.5.5.5.5 1-.5 1-.5.5.5.5.5h1 1 1 1 1 1 1.5 1.5 1 1 1 1 1.5 1.5 1 1l.5.5.5.5h1 1l1-.5 1-.5.5.5.5.5h1 1l.5 1 .5 1" style="fill:#927758;stroke:#927758" />
        <path d="m959 364h1v-26-26-.5-.5h-.5-.5l-4.5.5-4.5.5-12 2.5-12 2.5-9-10.5-9-10.5 1 2 1 2 .5 2 .5 2-.5 1.5-.5 1.5v1.5 1.5 1 1l-.5.5-.5.5-.5.5-.5.5-.5 1-.5 1-1 1-1 1-.5.5-.5.5-.5 1-.5 1v1.5 1.5l.5 1 .5 1v1 1l.5.5.5.5v1.5 1.5 1 1 1 1 1 1l-.5 1-.5 1v2 2l.5 1.5.5 1.5-2-.5-2-.5-1-1-1-1-1.5 1-1.5 1-.5-1.5-.5-1.5-2-.5-2-.5 1.5.5 1.5.5.5 2 .5 2 .5 1.5.5 1.5.5 1.5.5 1.5.5.5.5.5v1.5 1.5l.5 1.5.5 1.5v1 1 1.5 1.5l-.5 2-.5 2-.5 1.5-.5 1.5-1.5-.5-1.5-.5-.5-.5-.5-.5v-1-1-1-1l.5-2 .5-2-1-2-1-2-1-.5-1-.5-.5-.5-.5-.5-.5-.5-.5-.5.5-1 .5-1v-1-1-1-1-1-1l-.5-2-.5-2 1 13 1 13 7.5-5 7.5-5 7.5 4.5 7.5 4.5 19.5-2 19.5-2" style="fill:#929d89;stroke:#929d89" />
        <path d="m959 311h1v-26-26-26.5-26.5-9.5-9.5h-.5-.5l-9 1.5-9 1.5-3.5-.5-3.5-.5-5 6.5-5 6.5-7 3.5-7 3.5-2.5-4-2.5-4-6 2-6 2-8.5-1-8.5-1 2.5-6 2.5-6-9.5.5-9.5.5-6.5-2-6.5-2-11-5.5-11-5.5-6.5-6-6.5-6-5.5 14.5-5.5 14.5-3.5-4-3.5-4-3.5-4-3.5-4-7.5 1.5-7.5 1.5-6-7.5-6-7.5h-4.5-4.5l-3.5 1-3.5 1-2.5-5.5-2.5-5.5-5 6.5-5 6.5-8.5-4-8.5-4-21.5-20-21.5-20 .5 13 .5 13-7 13-7 13 1 .5 1 .5 2 .5 2 .5 1.5-.5 1.5-.5 3-.5 3-.5 1.5-19 1.5-19 15.5-6 15.5-6 2.5 24.5 2.5 24.5 19.5 24 19.5 24 14 10 14 10 4.5 23 4.5 23 12.5 2.5 12.5 2.5h10 10l15.5-2 15.5-2h18 18l1.5 1 1.5 1 1 1 1 1 1.5 2 1.5 2 9 10.5 9 10.5 12-2.5 12-2.5 4.5-.5 4.5-.5" style="fill:#a4b49f;stroke:#a4b49f" />
        <path d="m959 187h1v-26-26-26.5-26.5-26.5-26.5-14.5-14.5h-12.5-12.5-26.5-26.5-26.5-26.5-26.5-26.5-27-27-26.5-26.5-26.5-26.5-27-27-26.5-26.5-26.5-26.5-26.5-26.5-5-5l.5 15.5.5 15.5 2.5 15 2.5 15v11.5 11.5l1.5 11.5 1.5 11.5 4 8.5 4 8.5 7.5 4 7.5 4 2 5 2 5 9.5 2 9.5 2v5.5 5.5l1.5 7.5 1.5 7.5 12-.5 12-.5 2 .5 2 .5 7 7.5 7 7.5 9.5 1.5 9.5 1.5 7.5-5 7.5-5h4.5 4.5l9.5 1.5 9.5 1.5 2.5 2 2.5 2 3 2.5 3 2.5 4-8.5 4-8.5 5-5 5-5 11 3.5 11 3.5 5 .5 5 .5 11-6 11-6v-1-1-1-1l.5-1 .5-1-.5-1.5-.5-1.5v-1.5-1.5l.5-1.5.5-1.5v-1-1-1-1-.5-.5l-.5-1.5-.5-1.5v-1-1l.5-1 .5-1v-1-1-1.5-1.5l.5-1.5.5-1.5 1-1.5 1-1.5 1-.5 1-.5h2 2 1.5 1.5l1-1 1-1 1.5.5 1.5.5h1 1l1-.5 1-.5 1.5.5 1.5.5.5-.5.5-.5 1 .5 1 .5 2.5.5 2.5.5 21.5 20 21.5 20 8.5 4 8.5 4 5-6.5 5-6.5 2.5 5.5 2.5 5.5 3.5-1 3.5-1h4.5 4.5l6 7.5 6 7.5 7.5-1.5 7.5-1.5 3.5 4 3.5 4 3.5 4 3.5 4 5.5-14.5 5.5-14.5 6.5 6 6.5 6 11 5.5 11 5.5 6.5 2 6.5 2 9.5-.5 9.5-.5-2.5 6-2.5 6 8.5 1 8.5 1 6-2 6-2 2.5 4 2.5 4 7-3.5 7-3.5 5-6.5 5-6.5 3.5.5 3.5.5 9-1.5 9-1.5" style="fill:#c1d0ba;stroke:#c1d0ba" />
        <path d="m936 614v-2-1-1-1-1l-.5-.5-.5-.5v1.5 1.5l-.5.5-.5.5-.5.5-.5.5v-1-1l-1-.5-1-.5v-1-1l.5-.5.5-.5h-2-2l-11 11-11 11-11-5.5-11-5.5 8 6.5 8 6.5 16.5 3.5 16.5 3.5 1.5-11.5 1.5-11.5" style="fill:#1c1a12;stroke:#1c1a12" />
        <path d="m925 579l-1-50-11 1.5-11 1.5h1.5 1.5 1.5 1.5l1.5-.5 1.5-.5h2.5 2.5l1.5-.5 1.5-.5h1.5 1.5l1 1 1 1v1.5 1.5.5.5l.5 1 .5 1v1 1 1.5 1.5l-.5.5-.5.5v1 1l.5.5.5.5v1 1 1.5 1.5l-.5.5-.5.5v1 1l.5.5.5.5-.5 1-.5 1v1 1l.5.5.5.5v1 1l-.5.5-.5.5v1.5 1.5l.5.5.5.5v1 1l-.5 1.5-.5 1.5-22.5 1.5-22.5 1.5h-.5-.5l8 12 8 12 11.5-1 11.5-1 4-9.5 4-9.5" style="fill:#56432c;stroke:#56432c" />
        <path d="m924 643l-21 8 7.5-2 7.5-2 3-2 3-2" style="fill:#333329;stroke:#333329" />
        <path d="m924 573l1-3v-1-1l-.5-.5-.5-.5v-1.5-1.5l.5-.5.5-.5v-1-1l-.5-.5-.5-.5v-1-1l.5-1 .5-1-.5-.5-.5-.5v-1-1l.5-.5.5-.5v-1.5-1.5-1-1l-.5-.5-.5-.5v-1-1l.5-.5.5-.5v-1.5-1.5-1-1l-.5-1-.5-1v1.5 1.5l-.5 1-.5 1v2 2 1 1l-.5 1-.5 1 .5 1 .5 1-6.5 2.5-6.5 2.5-8 8.5-8 8.5-.5-3.5-.5-3.5-7 5-7 5 22.5-1.5 22.5-1.5" style="fill:#575649;stroke:#575649" />
        <path d="m924 370h1l-1-.5-1-.5-1.5-.5-1.5-.5h-.5-.5l-12.5 10-12.5 10-11 4-11 4 .5 1.5.5 1.5.5.5.5.5 1 .5 1 .5v1.5 1.5 2.5 2.5 1.5 1.5.5.5l1 1 1 1 .5.5.5.5.5 1 .5 1 .5 1.5.5 1.5.5.5.5.5v1.5 1.5 1.5 1.5l2.5.5 2.5.5-1-1-1-1 1-1 1-1v-1-1-1.5-1.5l1-1 1-1 1-1.5 1-1.5 2-1 2-1 1-.5 1-.5-.5-2.5-.5-2.5h-1.5-1.5l-.5.5-.5.5-.5.5-.5.5h-1-1-1-1l-.5.5-.5.5-1-.5-1-.5.5-.5.5-.5h1 1l.5-.5.5-.5 1-.5 1-.5.5-.5.5-.5.5-.5.5-.5v-1-1l1-.5 1-.5.5-.5.5-.5 1.5.5 1.5.5 1-2 1-2 1-1.5 1-1.5v-2-2l-1-1.5-1-1.5 1-1 1-1 2.5-.5 2.5-.5 1-1 1-1h1 1l.5-.5.5-.5.5-.5.5-.5.5-.5.5-.5v-1-1l.5-1 .5-1 .5-.5.5-.5v-1-1l.5-.5.5-.5 1-.5 1-.5h1 1l.5.5.5.5 1-.5 1-.5" style="fill:#6b7368;stroke:#6b7368" />
        <path d="m923 551l-1-2 .5-1 .5-1v-1-1-2-2l.5-1 .5-1v-1.5-1.5-.5-.5h-.5-.5l-14 1.5-14 1.5-8 19-8 19 7-5 7-5 .5 3.5.5 3.5 8-8.5 8-8.5 6.5-2.5 6.5-2.5" style="fill:#72654b;stroke:#72654b" />
        <path d="m923 535h1v-1.5-1.5l-1-1-1-1h-1.5-1.5l-1.5.5-1.5.5h-2.5-2.5l-1.5.5-1.5.5h-1.5-1.5-1.5-1.5l-1 .5-1 .5h-2.5-2.5l-1.5.5-1.5.5-2 .5-2 .5-1.5.5-1.5.5-.5 2-.5 2-1 1-1 1-2 .5-2 .5h-.5-.5l-.5 1-.5 1v2 2l.5 2 .5 2 .5 1.5.5 1.5v2.5 2.5 2 2 2.5 2.5 1 1 2 2h.5.5l8-19 8-19 14-1.5 14-1.5" style="fill:#575649;stroke:#575649" />
        <path d="m919 517l1-3-1.5.5-1.5.5-2 .5-2 .5-2-.5-2-.5-1-1-1-1h-1-1l-2 .5-2 .5h-1-1l-2 1-2 1-.5 1.5-.5 1.5h1.5 1.5v-1-1l1 1 1 1h1.5 1.5l.5-.5.5-.5 1.5-.5 1.5-.5 1 1 1 1h2.5 2.5 2 2l.5-1 .5-1h.5.5" style="fill:#3b240e;stroke:#3b240e" />
        <g style="fill:#7d8984;stroke:#7d8984">
            <path d="m919 368h1l-7.5-4.5-7.5-4.5-7.5 5-7.5 5-1-13-1-13v-2-2l-8.5 28-8.5 28 .5.5.5.5 11-4 11-4 12.5-10 12.5-10" />
            <path d="m910 307l1-3-.5-2-.5-2-1-2-1-2-1.5-2-1.5-2-1-1-1-1-1.5-1-1.5-1h-.5-.5l-17.5 1.5-17.5 1.5-19.5 2-19.5 2-18.5-4-18.5-4-4.5-23-4.5-23h-.5-.5l-13.5-10-13.5-10-19.5-24-19.5-24-2.5-24.5-2.5-24.5h-.5-.5l-14 5.5-14 5.5-2.5 19.5-2.5 19.5-3 .5-3 .5-1.5.5-1.5.5-2-.5-2-.5-1-.5-1-.5h-.5-.5l-4 18.5-4 18.5-.5 1-.5 1-.5 3-.5 3 1-1 1-1 1.5-1 1.5-1 .5-1.5.5-1.5 1-.5 1-.5 1-1 1-1-.5-9-.5-9 12-8.5 12-8.5 17 3 17 3 13.5 22.5 13.5 22.5-7 15-7 15 1 1 1 1 1.5-.5 1.5-.5h1.5 1.5l13.5-7.5 13.5-7.5 6.5 9.5 6.5 9.5 7 19.5 7 19.5-11-4-11-4v1.5 1.5l.5 1 .5 1 .5 1.5.5 1.5.5 2 .5 2 .5 1.5.5 1.5 1 1.5 1 1.5v2 2l1 1.5 1 1.5.5 1.5.5 1.5-.5 1.5-.5 1.5-1-1.5-1-1.5-2 .5-2 .5 21.5 14.5 21.5 14.5 1.5 1.5 1.5 1.5 22 5.5 22 5.5-8 2.5-8 2.5-9-8.5-9-8.5-8.5-9-8.5-9h33 33l-16.5-1.5-16.5-1.5-14-2.5-14-2.5 1.5-14 1.5-14 19.5-1 19.5-1 26.5 8 26.5 8-1.5 1.5-1.5 1.5-.5 1.5-.5 1.5-1 1-1 1v1 1l.5 1.5.5 1.5v-1.5-1.5l.5-1 .5-1 .5-.5.5-.5 1-1 1-1 .5-1 .5-1 .5-.5.5-.5.5-.5.5-.5v-1-1-1.5-1.5" />
        </g>
        <path d="m908 386h1l-.5-1-.5-1h-.5-.5l-2.5.5-2.5.5-1 1-1 1 1 1.5 1 1.5v2 2l-1 1.5-1 1.5-1 2-1 2v1 1l-.5 1-.5 1-.5 1-.5 1 1.5.5 1.5.5 1.5-1.5 1.5-1.5 1.5-1 1.5-1-.5-1.5-.5-1.5.5-2 .5-2 1-1 1-1-.5-1.5-.5-1.5.5-1.5.5-1.5.5-1 .5-1" style="fill:#575649;stroke:#575649" />
        <path d="m908 311l-53-16-19.5 1-19.5 1-1.5 14-1.5 14 14 2.5 14 2.5 16.5 1.5 16.5 1.5h-.5-.5l-.5 1-.5 1-.5.5-.5.5v1.5 1.5 1 1l-.5.5-.5.5v1 1l-.5 1-.5 1-.5.5-.5.5v1 1l-.5.5-.5.5-.5 1-.5 1-1 1-1 1v1 1l-.5 1-.5 1-1 1-1 1-.5.5-.5.5-.5 1-.5 1-22-5.5-22-5.5.5 1 .5 1 1.5 1 1.5 1 .5 1 .5 1 13 13 13 13-.5 2-.5 2-.5 1-.5 1-16-20.5-16-20.5-21.5-14.5-21.5-14.5-.5-.5-.5-.5h-.5-.5-2-2v1 1l12.5 14 12.5 14 6 22 6 22-1 1-1 1 .5 2 .5 2 .5 1.5.5 1.5v1.5 1.5l1 2 1 2v2 2l.5 1 .5 1 .5 1.5.5 1.5.5 2 .5 2 .5 1.5.5 1.5.5 1 .5 1 .5 1.5.5 1.5v1 1l-.5 1-.5 1-1 1-1 1-.5 1-.5 1 3.5-13.5 3.5-13.5 8-2 8-2 12-1 12-1-10 8-10 8-14.5 9-14.5 9h-1.5-1.5l-1 1.5-1 1.5-1.5-1.5-1.5-1.5h-.5-.5l16 10 16 10 10-19 10-19 1-.5 1-.5v-2-2l.5-.5.5-.5 1-.5 1-.5.5-1.5.5-1.5v-1.5-1.5l.5-1 .5-1 1-1 1-1v-1.5-1.5l-1.5-.5-1.5-.5.5-2 .5-2 1-1 1-1 8.5-17 8.5-17 5-15.5 5-15.5-21.5-.5-21.5-.5-9.5-7-9.5-7 12.5-4 12.5-4 15-1.5 15-1.5 16 3.5 16 3.5-11 15-11 15-10 25.5-10 25.5 1.5 1 1.5 1 2 1 2 1 8.5-28 8.5-28v-1.5-1.5l.5-1.5.5-1.5.5-2 .5-2 1-1 1-1 1.5-1 1.5-1 1.5.5 1.5.5 1.5.5 1.5.5 1-1.5 1-1.5-.5-1.5-.5-1.5v-1-1l1-1 1-1 .5-1.5.5-1.5 1.5-1.5 1.5-1.5" style="fill:#6b7368;stroke:#6b7368" />
        <path d="m906 310l-32-7-15 1.5-15 1.5-12.5 4-12.5 4 9.5 7 9.5 7 21.5.5 21.5.5-5 15.5-5 15.5-8.5 17-8.5 17 1 1.5 1 1.5 1-1 1-1 1.5.5 1.5.5 1 1.5 1 1.5h1 1l1.5 1.5 1.5 1.5 1 .5 1 .5 1 .5 1 .5-.5-1-.5-1-.5-1-.5-1-1.5-1-1.5-1-1-1-1-1-1-1-1-1-.5-.5-.5-.5-1-.5-1-.5.5-1.5.5-1.5 1.5 1 1.5 1 10-25.5 10-25.5 11-15 11-15" style="fill:#575649;stroke:#575649" />
        <path d="m905 338v-2-1-1-1-1-1.5-1.5l-.5-.5-.5-.5v-1-1l-.5-1-.5-1-1 1.5-1 1.5-1.5-.5-1.5-.5-1.5-.5-1.5-.5-1.5 1-1.5 1-1 1-1 1-.5 2-.5 2-.5 1.5-.5 1.5v1.5 1.5h1.5 1.5l.5.5.5.5-.5 1-.5 1 2 .5 2 .5.5 1.5.5 1.5 1.5-1 1.5-1 1 1 1 1 2 .5 2 .5-.5-1.5-.5-1.5v-2-2l.5-1 .5-1" style="fill:#7d8984;stroke:#7d8984" />
        <g style="fill:#929d89;stroke:#929d89">
            <path d="m899 333l1-3-1-1-1-1-2-.5-2-.5-1 1-1 1-.5 2-.5 2-.5 1.5-.5 1.5 2 .5 2 .5 1.5-.5 1.5-.5 1-1 1-1v-.5-.5" />
            <path d="m899 288h1-18-18l-15.5 2-15.5 2h-10-10l-12.5-2.5-12.5-2.5 18.5 4 18.5 4 19.5-2 19.5-2 17.5-1.5 17.5-1.5" />
        </g>
        <path d="m898 409l1-1-1.5-.5-1.5-.5.5 2.5.5 2.5-1 .5-1 .5-.5 1-.5 1-.5 1-.5 1-.5 2-.5 2-1 1-1 1-.5 2-.5 2-1 1-1 1-2.5-.5-2.5-.5-.5 1-.5 1-1 .5-1 .5 1 1 1 1v1 1l-.5 1-.5 1-1.5.5-1.5.5-.5.5-.5.5-.5-1-.5-1-1-1-1-1v1 1l.5 1 .5 1v1 1 1 1l.5.5.5.5 1 .5 1 .5.5-.5.5-.5h1 1l-.5 1.5-.5 1.5-1 .5-1 .5-.5 1-.5 1-.5 2-.5 2h-2-2l-1.5 1-1.5 1h2 2 2.5 2.5l10.5-23.5 10.5-23.5" style="fill:#72654b;stroke:#72654b" />
        <path d="m898 403v-2l-1.5-.5-1.5-.5-.5.5-.5.5-1 .5-1 .5v1 1l-.5.5-.5.5-.5.5-.5.5-1 .5-1 .5-.5.5-.5.5h-1-1l-.5.5-.5.5 1 .5 1 .5.5-.5.5-.5h1 1 1 1l.5-.5.5-.5.5-.5.5-.5h1.5 1.5l.5-1 .5-1 .5-1 .5-1" style="fill:#406167;stroke:#406167" />
        <path d="m898 369l1-4v-1.5-1.5-1-1l-.5-1.5-.5-1.5v-1.5-1.5l-.5-.5-.5-.5-.5-1.5-.5-1.5-.5-1.5-.5-1.5-.5-2-.5-2-1.5-.5-1.5-.5.5-1 .5-1-.5-.5-.5-.5h-1.5-1.5v2 2l.5 2 .5 2v1 1 1 1 1 1l-.5 1-.5 1 .5.5.5.5.5.5.5.5 1 .5 1 .5-.5-2.5-.5-2.5v-1-1l-.5-2-.5-2 .5-1.5.5-1.5 1.5 1 1.5 1v2 2l1 1.5 1 1.5.5 1.5.5 1.5v2 2l-.5 2-.5 2-1-1-1-1-.5 2-.5 2v1 1 1 1l.5.5.5.5 1.5.5 1.5.5.5-1.5.5-1.5" style="fill:#a4b49f;stroke:#a4b49f" />
        <path d="m896 364l1-4v-2-2l-.5-1.5-.5-1.5-1-1.5-1-1.5v-2-2l-1.5-1-1.5-1-.5 1.5-.5 1.5.5 2 .5 2v1 1l.5 2.5.5 2.5 1 2 1 2 1 1 1 1" style="fill:#c1d0ba;stroke:#c1d0ba" />
        <path d="m894 415l1-2-2 1-2 1-1 1.5-1 1.5-1 1-1 1v1.5 1.5 1 1l-1 1-1 1 1 1 1 1 1-1 1-1 .5-2 .5-2 1-1 1-1 .5-2 .5-2 .5-1 .5-1" style="fill:#927758;stroke:#927758" />
        <path d="m892 498l-15-42h-2.5-2.5v.5.5l1 .5 1 .5-.5 1.5-.5 1.5-.5-2-.5-2h-.5-.5l-11 9-11 9-18.5 3-18.5 3 1 .5 1 .5v1 1l-1 .5-1 .5 1 1 1 1 1 .5 1 .5-.5-1-.5-1 .5-1 .5-1 .5-2 .5-2 1.5-.5 1.5-.5h2 2l.5-.5.5-.5 1 .5 1 .5v1.5 1.5l-9.5 8-9.5 8-12.5 2-12.5 2-29 1-29 1-19 1.5-19 1.5 1 .5 1 .5h2 2l1 .5 1 .5h2 2l1.5-.5 1.5-.5 2 .5 2 .5 1.5.5 1.5.5h2.5 2.5l2 .5 2 .5 27.5-2 27.5-2 19-2 19-2 16.5.5 16.5.5 1-1.5 1-1.5.5-.5.5-.5h1.5 1.5l1.5.5 1.5.5 1.5-1 1.5-1h2 2l-.5-2-.5-2v-.5-.5l14.5 1 14.5 1-2 .5-2 .5-1.5.5-1.5.5-2-.5-2-.5-2-.5-2-.5 1 .5 1 .5.5 1 .5 1h3.5 3.5l1.5.5 1.5.5 1.5-.5 1.5-.5 1.5-.5 1.5-.5" style="fill:#56432c;stroke:#56432c" />
        <path d="m891 517l1-1-1.5-.5-1.5-.5-.5.5-.5.5h-1.5-1.5-1-1l-.5.5-.5.5h-1-1l-.5-1-.5-1h-1-1v1 1h-1-1l-.5-.5-.5-.5h-1.5-1.5l-.5.5-.5.5h-1-1-1-1-1-1l-1 .5-1 .5-1 1-1 1 15.5-1.5 15.5-1.5" style="fill:#3b240e;stroke:#3b240e" />
        <path d="m888 496l-29-2 1-.5 1-.5h1.5 1.5l.5.5.5.5h1 1 1 1l1 .5 1 .5 1 .5 1 .5 2 .5 2 .5 2 .5 2 .5 1.5-.5 1.5-.5 2-.5 2-.5" style="fill:#333329;stroke:#333329" />
        <path d="m881 430l1-2v-1.5-1.5-1.5-1.5l-.5-.5-.5-.5-.5-1.5-.5-1.5-.5-1-.5-1-.5-.5-.5-.5-1-1-1-1v-.5-.5-1.5-1.5l-1-.5-1-.5-1-2-1-2-.5 1-.5 1v1 1 1 1l-1 .5-1 .5v1 1l-1 1.5-1 1.5 1 1 1 1v1.5 1.5l-1 1-1 1-.5 1.5-.5 1.5-1-.5-1-.5-.5 1.5-.5 1.5v1 1l.5 1 .5 1-.5.5-.5.5.5.5.5.5v1 1h-.5-.5l-.5.5-.5.5h-.5-.5l1 .5 1 .5h1 1l.5.5.5.5h1.5 1.5l2-2 2-2 1 1 1 1 .5 1 .5 1 .5-.5.5-.5 1.5-.5 1.5-.5.5-1 .5-1v-1-1l-1-1-1-1 1-.5 1-.5" style="fill:#575649;stroke:#575649" />
        <path d="m879 447l1-3h-1-1l-.5.5-.5.5-1-.5-1-.5-.5-.5-.5-.5v-1-1-1-1l-.5-1-.5-1v-1-1l-2 2-2 2-.5 1-.5 1v1 1l-1 .5-1 .5-1.5.5-1.5.5 1.5 1 1.5 1 1.5-.5 1.5-.5 1 .5 1 .5v1 1l-2-.5-2-.5-1.5.5-1.5.5-.5 1.5-.5 1.5v1 1l.5 1 .5 1h1.5 1.5.5.5l1.5-1 1.5-1h2 2l.5-2 .5-2 .5-1 .5-1 1-.5 1-.5" style="fill:#6b7368;stroke:#6b7368" />
        <path d="m878 572v-2-2.5-2.5-2-2-2.5-2.5l-.5-1.5-.5-1.5-.5-2-.5-2v-2-2l.5-1 .5-1-2 .5-2 .5-1.5-1-1.5-1 .5 1.5.5 1.5.5.5.5.5v1.5 1.5l.5 1.5.5 1.5.5 2 .5 2v2 2 2.5 2.5 2 2l.5 1.5.5 1.5-.5.5-.5.5v1.5 1.5 1.5 1.5l-17.5.5-17.5.5h-18-18l14 9.5 14 9.5 12.5-1 12.5-1 10-8 10-8 1-2.5 1-2.5v-2-2" style="fill:#56432c;stroke:#56432c" />
        <path d="m877 509v-2h-1.5-1.5l-1-1-1-1-1-1.5-1-1.5h1 1l1.5-1.5 1.5-1.5-1-.5-1-.5-1-.5-1-.5-1 1-1 1-1.5 1-1.5 1-1.5-.5-1.5-.5-1-.5-1-.5.5 1 .5 1v1 1 1.5 1.5l-1.5-.5-1.5-.5-.5-.5-.5-.5-.5 1-.5 1-1.5.5-1.5.5-1.5-.5-1.5-.5 13 1.5 13 1.5" style="fill:#72654b;stroke:#72654b" />
        <path d="m876 404v-3l-1-.5-1-.5-.5-.5-.5-.5-.5-1.5-.5-1.5-.5-.5-.5-.5-2-1-2-1-1.5-1-1.5-1-1.5-1-1.5-1-.5 1.5-.5 1.5 1 .5 1 .5.5.5.5.5 1 1 1 1 1 1 1 1 1.5 1 1.5 1 .5 1 .5 1 .5 1 .5 1 1 2 1 2 1 .5 1 .5v-2.5-2.5" style="fill:#3d4441;stroke:#3d4441" />
        <path d="m875 499h1l-.5-1-.5-1-1-.5-1-.5-1-.5-1-.5-1-.5-1-.5h-1-1-1-1l-.5-.5-.5-.5h-1.5-1.5l-1 .5-1 .5v.5.5l1 2 1 2 1 .5 1 .5 1.5.5 1.5.5 1.5-1 1.5-1 1-1 1-1 1 .5 1 .5 1 .5 1 .5" style="fill:#927758;stroke:#927758" />
        <path d="m874 579v-3-1.5-1.5l.5-.5.5-.5-.5-1.5-.5-1.5v-2-2-2.5-2.5-2-2l-.5-2-.5-2-.5-1.5-.5-1.5v-1.5-1.5l-.5-.5-.5-.5-.5-1.5-.5-1.5-1-.5-1-.5h-.5-.5v2 2 1 1h1 1l1 .5 1 .5v1 1 1 1 1 1l-6 11-6 11-9.5-4-9.5-4-6 .5-6 .5-11.5 4-11.5 4v-15.5-15.5l16-3.5 16-3.5h-.5-.5l-16.5 20.5-16.5 20.5h18 18l17.5-.5 17.5-.5" style="fill:#575649;stroke:#575649" />
        <path d="m873 461l1-3-1-.5-1-.5.5 2 .5 2" style="fill:#333329;stroke:#333329" />
        <path d="m873 333h1-33-33l8.5 9 8.5 9 9 8.5 9 8.5 8-2.5 8-2.5.5-1 .5-1 .5-.5.5-.5 1-1 1-1 .5-1 .5-1v-1-1l1-1 1-1 .5-1 .5-1 .5-.5.5-.5v-1-1l.5-.5.5-.5.5-1 .5-1v-1-1l.5-.5.5-.5v-1-1-1.5-1.5l.5-.5.5-.5.5-1 .5-1" style="fill:#929d89;stroke:#929d89" />
        <path d="m871 554v-2-1-1-1-1l-1-.5-1-.5h-1-1v-1-1-2-2h-.5-.5l-1-1-1-1-.5.5-.5.5-1-.5-1-.5h-1-1-1-1l-.5.5-.5.5-.5.5-.5.5-.5.5-.5.5-.5-1-.5-1-.5-.5-.5-.5h-1-1l-.5.5-.5.5-1 .5-1 .5h-1-1l-.5.5-.5.5-.5-.5-.5-.5-1-.5-1-.5-.5.5-.5.5-.5-.5-.5-.5-1-.5-1-.5-16 3.5-16 3.5v15.5 15.5l11.5-4 11.5-4 6-.5 6-.5 9.5 4 9.5 4 6-11 6-11" style="fill:#72654b;stroke:#72654b" />
        <path d="m871 457h1v-.5-.5h-2-2-.5-.5l-14-4-14-4-7 5.5-7 5.5-16-10-16-10h-3-3l-1 .5-1 .5-1-1-1-1-.5-2-.5-2-1-1-1-1-1-1.5-1-1.5v2 2l1 1 1 1v2.5 2.5l1.5.5 1.5.5h1.5 1.5l1.5.5 1.5.5 1.5 1 1.5 1 .5 1.5.5 1.5v1 1l-1-.5-1-.5h-1-1l-1 .5-1 .5-.5-.5-.5-.5h-1-1l-.5-.5-.5-.5-.5.5-.5.5-1 .5-1 .5-.5-.5-.5-.5h-1-1l-.5-.5-.5-.5-.5-.5-.5-.5-1.5-1-1.5-1h-.5-.5l.5 1 .5 1 .5 2 .5 2 .5.5.5.5v1 1 1 1l.5 1 .5 1v1 1 1 1l.5.5.5.5-.5.5-.5.5v1.5 1.5l.5.5.5.5v1 1l-.5 1.5-.5 1.5v1.5 1.5l-.5.5-.5.5h-1-1l-.5-.5-.5-.5h-1.5-1.5-1-1l-.5-.5-.5-.5h-1-1l-1-.5-1-.5-1.5-.5-1.5-.5h-1-1l-.5-.5-.5-.5h-1-1l-1-.5-1-.5-.5-.5-.5-.5h-1-1-1-1l-1-.5-1-.5-2-1-2-1h-.5-.5-.5-.5l-1.5.5-1.5.5 18 7 18 7-17.5 3-17.5 3-29 .5-29 .5 32 .5 32 .5 1.5-.5 1.5-.5 1-.5 1-.5h1 1 1 1 2 2l28.5-3 28.5-3 18.5-3 18.5-3 11-9 11-9" style="fill:#575649;stroke:#575649" />
        <path d="m871 449v-2l-1-.5-1-.5-1.5.5-1.5.5-1.5-1-1.5-1 1.5-.5 1.5-.5 1-.5 1-.5v-1-1l.5-1 .5-1h-1.5-1.5l-.5-.5-.5-.5h-1-1l-1-.5-1-.5-6.5-3-6.5-3-2 .5-2 .5-1 1.5-1 1.5-.5-1.5-.5-1.5.5-2 .5-2 1-1 1-1 .5-2.5.5-2.5-10 19-10 19 7-5.5 7-5.5 14 4 14 4h-1.5-1.5l-.5-1-.5-1v-1-1l.5-1.5.5-1.5 1.5-.5 1.5-.5 2 .5 2 .5" style="fill:#72654b;stroke:#72654b" />
        <path d="m871 410v-2-1-1l.5-1 .5-1-1-.5-1-.5-1-.5-1-.5-.5 1-.5 1-1 1-1 1-1.5-.5-1.5-.5-1 1.5-1 1.5-1.5.5-1.5.5-1-1-1-1-.5 2-.5 2v1 1l-.5 1-.5 1-1 1-1 1 .5.5.5.5-.5 1-.5 1-1.5.5-1.5.5.5 1.5.5 1.5 1-1 1-1v1.5 1.5h1.5 1.5 1 1l.5-.5.5-.5-.5-.5-.5-.5-1-.5-1-.5-.5-.5-.5-.5v-1-1l.5.5.5.5h1.5 1.5l.5-.5.5-.5.5.5.5.5v1 1 1 1l.5.5.5.5.5-1 .5-1v-1-1h1 1 1 1l-.5 2-.5 2 1 .5 1 .5.5-1.5.5-1.5 1-1 1-1v-1.5-1.5l-1-1-1-1 1-1.5 1-1.5v-1-1l1-.5 1-.5" style="fill:#6f542f;stroke:#6f542f" />
        <path d="m867 404l1-2-1.5-1.5-1.5-1.5h-1-1l-1-1.5-1-1.5-1.5-.5-1.5-.5-1 1-1 1-1-1.5-1-1.5-1 1-1 1-.5 2-.5 2 1.5.5 1.5.5v1.5 1.5l-1 1-1 1-.5 1-.5 1 1.5 1.5 1.5 1.5.5-2 .5-2 1 1 1 1 1.5-.5 1.5-.5 1-1.5 1-1.5 1.5.5 1.5.5 1-1 1-1" style="fill:#72654b;stroke:#72654b" />
        <g style="fill:#575649;stroke:#575649">
            <path d="m866 541h1l-.5-1-.5-1-1-1-1-1-2 .5-2 .5h-2-2-2.5-2.5l-1.5.5-1.5.5-2-.5-2-.5-1.5.5-1.5.5-1.5-.5-1.5-.5h-.5-.5v.5.5l1 .5 1 .5.5.5.5.5.5-.5.5-.5 1 .5 1 .5.5.5.5.5.5-.5.5-.5h1 1l1-.5 1-.5.5-.5.5-.5h1 1l.5.5.5.5.5 1 .5 1 .5-.5.5-.5.5-.5.5-.5.5-.5.5-.5h1 1 1 1l1 .5 1 .5.5-.5.5-.5 1 1 1 1" />
            <path d="m864 480l-34 3 15 .5 15 .5 2-2 2-2" />
        </g>
        <path d="m864 436v-2l-.5-.5-.5-.5.5-.5.5-.5-.5-1-.5-1v-1-1l.5-1.5.5-1.5.5-2 .5-2h-1-1-1-1v1 1l-.5 1-.5 1-.5-.5-.5-.5v-1-1-1-1l-.5-.5-.5-.5-.5.5-.5.5h-1.5-1.5l-.5-.5-.5-.5v1 1l.5.5.5.5 1 .5 1 .5.5.5.5.5-.5.5-.5.5h-1-1-1.5-1.5l-.5 1.5-.5 1.5v1.5 1.5l1 1 1 1 .5-.5.5-.5-.5-.5-.5-.5 1-.5 1-.5.5 1.5.5 1.5.5.5.5.5 1 .5 1 .5.5-1.5.5-1.5h1 1v1.5 1.5l1 .5 1 .5h.5.5" style="fill:#56432c;stroke:#56432c" />
        <path d="m862 506v-3-1-1l-.5-1-.5-1-1-2-1-2 .5 2 .5 2h-2-2l-1.5 1-1.5 1-1.5-.5-1.5-.5h-1.5-1.5l-.5.5-.5.5-1 1.5-1 1.5 1 1 1 1h2.5 2.5l1.5.5 1.5.5 1.5-.5 1.5-.5.5-1 .5-1 .5.5.5.5 1.5.5 1.5.5" style="fill:#575649;stroke:#575649" />
        <path d="m862 437l1-1-1-.5-1-.5v-1.5-1.5h-1-1l-.5 1.5-.5 1.5-1-.5-1-.5-.5-.5-.5-.5-.5-1.5-.5-1.5-1 .5-1 .5.5.5.5.5-.5.5-.5.5-1-1-1-1v-1.5-1.5l.5-1.5.5-1.5v-1.5-1.5l-1 1-1 1v1.5 1.5l-.5 2-.5 2 6.5 3 6.5 3h.5.5" style="fill:#6b7368;stroke:#6b7368" />
        <path d="m854 413v-2l-1.5-1.5-1.5-1.5v1.5 1.5l-.5 1.5-.5 1.5-1 .5-1 .5-.5.5-.5.5v2 2l-1 .5-1 .5-.5 2.5-.5 2.5-1 1-1 1-.5 2-.5 2 .5 1.5.5 1.5 1-1.5 1-1.5 2-.5 2-.5.5-2 .5-2v-1.5-1.5l-.5-1.5-.5-1.5 1.5-.5 1.5-.5.5-1 .5-1-.5-.5-.5-.5 1-1 1-1 .5-1 .5-1" style="fill:#575649;stroke:#575649" />
        <path d="m851 405l-24 2-8 2-8 2-3.5 13.5-3.5 13.5-1 .5-1 .5 14.5-9 14.5-9 10-8 10-8" style="fill:#7d8984;stroke:#7d8984" />
        <path d="m846 384l-26-26 5 14.5 5 14.5 1-1 1-1 1-1 1-1 2-.5 2-.5 1.5.5 1.5.5.5 1 .5 1h1 1v1.5 1.5h.5.5l.5-2 .5-2" style="fill:#3d4441;stroke:#3d4441" />
        <path d="m844 390l1-2h-.5-.5-.5-.5l-1 .5-1 .5-.5-.5-.5-.5-1-.5-1-.5-.5.5-.5.5v1 1h-1-1l-.5 1-.5 1-.5.5-.5.5-.5-.5-.5-.5-.5-.5-.5-.5-.5-2-.5-2-5-14.5-5-14.5-.5-1-.5-1-1.5-1-1.5-1-.5-1-.5-1-1.5-1.5-1.5-1.5 16 20.5 16 20.5" style="fill:#575649;stroke:#575649" />
        <path d="m843 388h1v-1.5-1.5h-1-1l-.5-1-.5-1-1.5-.5-1.5-.5-2 .5-2 .5-1 1-1 1-1 1-1 1 .5 2 .5 2 .5.5.5.5.5.5.5.5.5-.5.5-.5.5-1 .5-1h1 1v-1-1l.5-.5.5-.5 1 .5 1 .5.5.5.5.5 1-.5 1-.5" style="fill:#333329;stroke:#333329" />
        <path d="m836 539h1v-.5-.5l-17.5 8-17.5 8 .5 13 .5 13 16.5-20.5 16.5-20.5" style="fill:#3d4441;stroke:#3d4441" />
        <g style="fill:#333329;stroke:#333329">
            <path d="m827 482v-3l-1-.5-1-.5-.5.5-.5.5h-2-2l-1.5.5-1.5.5-.5 2-.5 2-.5 1-.5 1 .5 1 .5 1-.5.5-.5.5-30-1-30-1h-2-2-1-1-1-1l-1 .5-1 .5-1.5.5-1.5.5-.5 1-.5 1-1.5.5-1.5.5-.5.5-.5.5.5.5.5.5.5-.5.5-.5.5 1 .5 1-.5.5-.5.5-.5.5-.5.5h-1-1l-.5-.5-.5-.5-.5-.5-.5-.5-1-.5-1-.5-.5.5-.5.5v1 1h-1-1l-1 .5-1 .5-.5.5-.5.5v1 1h-1-1l.5 1.5.5 1.5 29-1 29-1 12.5-2 12.5-2 9.5-8 9.5-8" />
            <path d="m826 373v-2l-.5-1.5-.5-1.5-2 .5-2 .5-.5 1.5-.5 1.5v1.5 1.5l.5 1.5.5 1.5 2 .5 2 .5.5-1.5.5-1.5v-1-1-.5-.5" />
        </g>
        <path d="m825 472l1-3-1-1-1-1-2 .5-2 .5-1.5.5-1.5.5-2-.5-2-.5-1.5-.5-1.5-.5-1 .5-1 .5 1 .5 1 .5.5 1 .5 1v1.5 1.5l-.5 1-.5 1 1-.5 1-.5h2.5 2.5l1.5-.5 1.5-.5 1.5-1 1.5-1h1 1" style="fill:#72654b;stroke:#72654b" />
        <path d="m815 489l1-1-1-.5-1-.5-1-1-1-1 1-.5 1-.5v-1-1l-1-.5-1-.5-28.5 3-28.5 3 30 1 30 1" style="fill:#3d4441;stroke:#3d4441" />
        <path d="m811 474v-3l-.5-1-.5-1-1-.5-1-.5-16 3.5-16 3.5 17 .5 17 .5.5-1 .5-1" style="fill:#6b7368;stroke:#6b7368" />
        <path d="m808 432v-2l-.5-1.5-.5-1.5h-.5-.5v.5.5l-.5.5-.5.5-1.5.5-1.5.5-.5 1.5-.5 1.5v1 1l-.5 1-.5 1-1 1-1 1h-2-2l1.5 1.5 1.5 1.5 1-1.5 1-1.5h1.5 1.5l1-.5 1-.5.5-1 .5-1 1-1 1-1 .5-1 .5-1" style="fill:#575649;stroke:#575649" />
        <path d="m806 427h1l-.5-1-.5-1-.5-1.5-.5-1.5-.5-2-.5-2-.5-1.5-.5-1.5-.5-1-.5-1v-2-2l-1-2-1-2v1.5 1.5 1.5 1.5l-7 11.5-7 11.5h1.5 1.5l1-1.5 1-1.5 1-1 1-1 2-.5 2-.5 1-1 1-1h1.5 1.5l2 1 2 1v-.5-.5" style="fill:#72654b;stroke:#72654b" />
        <path d="m805 529v-2h-1-1-.5-.5l-.5-.5-.5-.5-.5-1-.5-1-1-.5-1-.5h-.5-.5l-.5.5-.5.5h-1-1l-.5-1-.5-1h-.5-.5l-1 1.5-1 1.5-.5.5-.5.5-1.5.5-1.5.5-1.5 1-1.5 1-1.5.5-1.5.5-.5-2-.5-2-1.5-.5-1.5-.5-2.5 1-2.5 1-.5 2-.5 2-4 .5-4 .5 14 3 14 3 7.5-4.5 7.5-4.5" style="fill:#3b240e;stroke:#3b240e" />
        <path d="m805 429l1-1-2-1-2-1h-1.5-1.5l-1 1-1 1-2 .5-2 .5-1 1-1 1-1 1.5-1 1.5h-1.5-1.5l.5 1 .5 1 .5.5.5.5-.5 1-.5 1h3 3 .5.5 2 2l1-1 1-1 .5-1 .5-1v-1-1l.5-1.5.5-1.5 1.5-.5 1.5-.5" style="fill:#6f542f;stroke:#6f542f" />
        <path d="m803 633h1l-3.5-33-3.5-33-2 5.5-2 5.5-.5 16-.5 16-6.5 16-6.5 16 12-4.5 12-4.5" style="fill:#1c1a12;stroke:#1c1a12" />
        <path d="m800 411v-3-1.5-1.5-1.5-1.5l-.5-1.5-.5-1.5v2 2l-1 .5-1 .5-2.5-.5-2.5-.5h-1.5-1.5l-2-.5-2-.5-.5-1.5-.5-1.5.5-.5.5-.5v-1.5-1.5h-1-1l-.5.5-.5.5-1 .5-1 .5-1 1-1 1h1 1l1-.5 1-.5.5 1.5.5 1.5.5.5.5.5v1.5 1.5l-1-.5-1-.5-1.5 1.5-1.5 1.5h-2-2l-1 1.5-1 1.5-1.5 1-1.5 1-2 .5-2 .5h-1.5-1.5-23-23l-20-4.5-20-4.5 2.5 24 2.5 24 1 .5 1 .5 2 .5 2 .5 1-.5 1-.5 1 .5 1 .5h1 1l.5.5.5.5.5-.5.5-.5 1-.5 1-.5.5.5.5.5h1 1l.5 1 .5 1 1-.5 1-.5.5-1 .5-1 1 .5 1 .5h2 2 1 1 1 1v1 1l1 .5 1 .5h1 1l-.5-.5-.5-.5.5-1 .5-1-1-1-1-1 1-1 1-1v-1-1-.5-.5l-.5-1.5-.5-1.5.5-.5.5-.5.5-1 .5-1 .5-1.5.5-1.5.5-.5.5-.5.5.5.5.5h1 1l.5-1 .5-1 1.5-.5 1.5-.5h1.5 1.5l7 1.5 7 1.5-16 3-16 3-19.5-9.5-19.5-9.5.5-1 .5-1v-1-1l.5-.5.5-.5-.5-1-.5-1v-2-2-1.5-1.5l.5-1.5.5-1.5 2-.5 2-.5 1.5.5 1.5.5 2 .5 2 .5 1.5.5 1.5.5 20.5 2.5 20.5 2.5 20.5 2 20.5 2 .5 1 .5 1 .5 1 .5 1 .5 1.5.5 1.5 1 1.5 1 1.5 1 1.5 1 1.5 1 1 1 1 .5 2 .5 2 1 1 1 1 1-.5 1-.5.5-1 .5-1-.5-.5-.5-.5-.5-1-.5-1 7-11.5 7-11.5" style="fill:#56432c;stroke:#56432c" />
        <path d="m800 393l-12-44-12.5-14-12.5-14h-.5-.5l-6-13-6-13-5 1.5-5 1.5-11 8-11 8-6-.5-6-.5-16-6.5-16-6.5-6.5-18.5-6.5-18.5-8.5 8.5-8.5 8.5-5 12.5-5 12.5-15 6.5-15 6.5-12.5 11-12.5 11-8 29.5-8 29.5 7.5-4.5 7.5-4.5 6-9.5 6-9.5 4-4.5 4-4.5 7-8.5 7-8.5 5-1.5 5-1.5 10-5.5 10-5.5 8-2.5 8-2.5 10 8.5 10 8.5 11 6 11 6 11 6.5 11 6.5 8 2.5 8 2.5v-10.5-10.5l-1.5-8-1.5-8-1-8.5-1-8.5 6 7.5 6 7.5 4.5 12 4.5 12 3-1.5 3-1.5 11 12.5 11 12.5 7.5 6 7.5 6-1 .5-1 .5-1 1-1 1-1 1.5-1 1.5 1 1 1 1-.5 1.5-.5 1.5 2.5.5 2.5.5 1-.5 1-.5v-2-2l-.5-2-.5-2 1-1 1-1" style="fill:#3d4441;stroke:#3d4441" />
        <path d="m797 392l-15-12-11-12.5-11-12.5-3 1.5-3 1.5-4.5-12-4.5-12-6-7.5-6-7.5 1 8.5 1 8.5 1.5 8 1.5 8v10.5 10.5l-8-2.5-8-2.5-11-6.5-11-6.5-11-6-11-6-10-8.5-10-8.5-8 2.5-8 2.5-10 5.5-10 5.5-5 1.5-5 1.5-7 8.5-7 8.5-4 4.5-4 4.5-6 9.5-6 9.5-7.5 4.5-7.5 4.5-1.5 13.5-1.5 13.5 5.5 14 5.5 14 18 3 18 3 38 6.5 38 6.5 1-1 1-1h1 1l1-.5 1-.5v-2-2l.5-.5.5-.5v-1.5-1.5l-1.5-.5-1.5-.5-.5-.5-.5-.5h-1.5-1.5-2.5-2.5l2-4 2-4-2.5-24-2.5-24 20 4.5 20 4.5h23 23l.5-1 .5-1h1.5 1.5v-2.5-2.5l-1-1-1-1-.5-2-.5-2 .5-1.5.5-1.5 1 1.5 1 1.5 1.5.5 1.5.5.5 1 .5 1v2 2l-1 1-1 1 .5 1.5.5 1.5 1.5-1 1.5-1 1-1.5 1-1.5h2 2l1.5-1.5 1.5-1.5 3.5-4.5 3.5-4.5-.5 1.5-.5 1.5-.5 1-.5 1 1 1.5 1 1.5h1.5 1.5l.5-1.5.5-1.5-1-1-1-1 1-1.5 1-1.5 1-1 1-1 1-.5 1-.5" style="fill:#333329;stroke:#333329" />
        <path d="m793 449v-2l-.5-1.5-.5-1.5-1.5-1-1.5-1-1.5-.5-1.5-.5h-1.5-1.5l-1.5-.5-1.5-.5v-2.5-2.5l-1-1-1-1v-2-2l-1-1.5-1-1.5h-.5-.5l-.5 1-.5 1-.5.5-.5.5-.5 1-.5 1h-1-1l-.5.5-.5.5-.5-.5-.5-.5h-1.5-1.5l-.5-.5-.5-.5-.5-.5-.5-.5-.5-.5-.5-.5-.5-1-.5-1 .5-1.5.5-1.5h1 1l.5-.5.5-.5.5-.5.5-.5h1.5 1.5l.5-.5.5-.5h1 1l.5-.5.5-.5-.5 11.5-.5 11.5v1 1l1.5 1 1.5 1 .5.5.5.5.5.5.5.5h1 1l.5.5.5.5 1-.5 1-.5.5-.5.5-.5.5.5.5.5h1 1l.5.5.5.5 1-.5 1-.5h1 1l1 .5 1 .5" style="fill:#72654b;stroke:#72654b" />
        <path d="m792 522h1l-.5-1-.5-1-1 .5-1 .5h-1-1-1.5-1.5l-1 1-1 1-.5 1-.5 1-1-1-1-1-2-.5-2-.5-1 1-1 1-1.5 1.5-1.5 1.5 2.5-1 2.5-1 1.5.5 1.5.5.5 2 .5 2 1.5-.5 1.5-.5 1.5-1 1.5-1 1.5-.5 1.5-.5.5-.5.5-.5 1-1.5 1-1.5" style="fill:#333329;stroke:#333329" />
        <path d="m789 395l-7 9 1 .5 1 .5v-1.5-1.5l-.5-.5-.5-.5-.5-1.5-.5-1.5-1 .5-1 .5h-1-1l1-1 1-1 1-.5 1-.5.5-.5.5-.5h1 1v1.5 1.5l-.5.5-.5.5.5 1.5.5 1.5 2 .5 2 .5-1-1.5-1-1.5.5-1 .5-1 .5-1.5.5-1.5" style="fill:#3d4441;stroke:#3d4441" />
        <path d="m789 371l-11-30v7.5 7.5l5.5 7.5 5.5 7.5" style="fill:#333329;stroke:#333329" />
        <path d="m789 299l-14-39-6.5-9.5-6.5-9.5-13.5 7.5-13.5 7.5-.5 1-.5 1 1.5 1 1.5 1 7.5 10 7.5 10 5 19 5 19-4-21-4-21 6.5 7.5 6.5 7.5 11 4 11 4" style="fill:#6b7368;stroke:#6b7368" />
        <path d="m778 241h1l-14-10-14-10 13.5 10 13.5 10" style="fill:#929d89;stroke:#929d89" />
        <path d="m775 472l1-3v-1-1l-.5-.5-.5-.5v-1.5-1.5l.5-.5.5-.5-.5-.5-.5-.5v-1-1-1-1l-.5-1-.5-1v-1-1-1-1l-.5-.5-.5-.5-.5-2-.5-2-.5 1-.5 1-9.5-1.5-9.5-1.5-1.5-1-1.5-1v-1-1l-1.5-1.5-1.5-1.5-7-1.5-7-1.5 4 15.5 4 15.5 2 1 2 1 1 .5 1 .5h1 1 1 1l.5.5.5.5 1 .5 1 .5h1 1l.5.5.5.5h1 1l1.5.5 1.5.5 6.5-1 6.5-1-.5 1.5-.5 1.5-1.5-.5-1.5-.5-.5.5-.5.5-1-.5-1-.5h-3-3l1 .5 1 .5h1 1l.5.5.5.5h1 1 1.5 1.5l.5.5.5.5h1 1l.5-.5.5-.5v-1.5-1.5" style="fill:#3d4441;stroke:#3d4441" />
        <path d="m775 426h1l-.5-1.5-.5-1.5-.5-1-.5-1-.5-1-.5-1-.5.5-.5.5h-1-1l-.5.5-.5.5h-1.5-1.5l-.5.5-.5.5-.5.5-.5.5h-1-1l-.5 1.5-.5 1.5.5 1 .5 1 .5.5.5.5.5.5.5.5.5.5.5.5h1.5 1.5l.5.5.5.5.5-.5.5-.5h1 1l.5-1 .5-1 .5-.5.5-.5.5-1 .5-1" style="fill:#927758;stroke:#927758" />
        <path d="m775 322l1-3-.5-1.5-.5-1.5-1-1.5-1-1.5v-2-2l-1-1.5-1-1.5-.5-1.5-.5-1.5-.5-2-.5-2-.5-1.5-.5-1.5-.5-1-.5-1v-1.5-1.5l-5.5-6.5-5.5-6.5 6 20.5 6 20.5.5.5.5.5 2-.5 2-.5 1 1.5 1 1.5" style="fill:#929d89;stroke:#929d89" />
        <path d="m774 471l-13 2h3 3l1 .5 1 .5.5-.5.5-.5 1.5.5 1.5.5.5-1.5.5-1.5" style="fill:#333329;stroke:#333329" />
        <path d="m772 442l1-23-20.5-2-20.5-2-20.5-2.5-20.5-2.5 14 5 14 5 16 4.5 16 4.5-14.5-2-14.5-2h-23.5-23.5l19.5 9.5 19.5 9.5 16-3 16-3 1.5 1.5 1.5 1.5v1 1l1.5 1 1.5 1 .5-1.5.5-1.5.5-.5.5-.5.5-1 .5-1-.5-1.5-.5-1.5.5-.5.5-.5.5-.5.5-.5v-1-1l.5 1 .5 1 .5 1.5.5 1.5.5.5.5.5 1 .5 1 .5 1.5.5 1.5.5.5-.5.5-.5.5 1 .5 1h2 2l.5 1.5.5 1.5h.5.5v-1-1" style="fill:#6f542f;stroke:#6f542f" />
        <path d="m771 481l-36-14v.5.5l1.5.5 1.5.5h1 1l1 .5 1 .5 1.5.5 1.5.5.5.5.5.5 1 .5 1 .5 1.5.5 1.5.5.5.5.5.5h1 1 1 1l1 .5 1 .5.5.5.5.5h1 1l.5.5.5.5.5.5.5.5h-1.5-1.5l-1.5.5-1.5.5-1.5.5-1.5.5h-2.5-2.5l-1.5.5-1.5.5h-2.5-2.5l-1.5.5-1.5.5-2 .5-2 .5h-2-2l-1.5.5-1.5.5-2.5.5-2.5.5-.5.5-.5.5-33.5-2.5-33.5-2.5h-.5-.5l-22-1-22-1-20.5-2-20.5-2-20-4-20-4-.5 1-.5 1 19.5 4 19.5 4 20.5 2 20.5 2 35.5 3 35.5 3 29-.5 29-.5 17.5-3 17.5-3" style="fill:#6b7368;stroke:#6b7368" />
        <path d="m771 448l1-2-.5-1-.5-1-.5-1.5-.5-1.5h-2-2l-.5-1-.5-1-.5.5-.5.5-1.5-.5-1.5-.5-1-.5-1-.5-.5-.5-.5-.5-.5-1.5-.5-1.5-.5-1-.5-1v1 1l-.5.5-.5.5-.5.5-.5.5.5 1.5.5 1.5-.5 1-.5 1-.5.5-.5.5-.5 1.5-.5 1.5 9.5 1.5 9.5 1.5" style="fill:#56432c;stroke:#56432c" />
        <path d="m771 403l-1-2-1.5-.5-1.5-.5-1-1.5-1-1.5-.5 1.5-.5 1.5.5 2 .5 2 1 1 1 1v2.5 2.5h-1.5-1.5l-.5 1-.5 1h1.5 1.5l2-.5 2-.5-.5-1.5-.5-1.5 1-1 1-1v-2-2" style="fill:#3d4441;stroke:#3d4441" />
        <path d="m767 319h1l-6-20.5-6-20.5 5.5 6.5 5.5 6.5-6.5-7.5-6.5-7.5 4 21 4 21 .5.5.5.5h2 2" style="fill:#7d8984;stroke:#7d8984" />
        <path d="m765 515v-2l-1.5-.5-1.5-.5h-1.5-1.5l-1.5.5-1.5.5h-3-3l1 .5 1 .5v.5.5l-1-1-1-1-1-.5-1-.5-1.5.5-1.5.5-1-.5-1-.5h-1-1-2-2-1.5-1.5-1-1-2-2-1.5-1.5-1-1-1-1l-1.5-.5-1.5-.5 23.5 2 23.5 2" style="fill:#72654b;stroke:#72654b" />
        <path d="m763 479l-1-1-.5-.5-.5-.5h-1-1l-.5-.5-.5-.5-1-.5-1-.5h-1-1-1-1l-.5-.5-.5-.5-1.5-.5-1.5-.5-1-.5-1-.5-.5-.5-.5-.5-1.5-.5-1.5-.5-1-.5-1-.5h-1-1l-1.5-.5-1.5-.5-1-.5-1-.5h-2-2-1-1l-1-.5-1-.5-1.5-.5-1.5-.5-.5.5-.5.5.5 1 .5 1v1 1l-1 1.5-1 1.5-.5 1.5-.5 1.5h-2-2-1-1-1.5-1.5l-1-1-1-1-1.5-.5-1.5-.5h-2.5-2.5l-1.5-.5-1.5-.5-2 .5-2 .5-2 1-2 1h-23.5-23.5l22.5 1.5 22.5 1.5 18 3 18 3-22.5-1-22.5-1-21.5-1.5-21.5-1.5 2.5.5 2.5.5 1.5.5 1.5.5h2.5 2.5 2 2l1 .5 1 .5 34 2 34 2 2.5-.5 2.5-.5 1.5-.5 1.5-.5h2 2l2-.5 2-.5 1.5-.5 1.5-.5h2.5 2.5l1.5-.5 1.5-.5h2.5 2.5l1.5-.5 1.5-.5 1.5-.5 1.5-.5h1.5 1.5" style="fill:#929d89;stroke:#929d89" />
        <path d="m762 641l-20-9-3-16.5-3-16.5v-18.5-18.5l-2.5-12.5-2.5-12.5-22-1-22-1-16-1.5-16-1.5h-1.5-1.5-1-1-1.5-1.5-2-2l-2-.5-2-.5-16-1-16-1-15.5-2.5-15.5-2.5-7-.5-7-.5-13.5 2-13.5 2-19 .5-19 .5-15.5-1.5-15.5-1.5-16-.5-16-.5-12 12-12 12-12.5 14-12.5 14-4.5 16.5-4.5 16.5-9 20-9 20-4-13-4-13-1-.5-1-.5-4.5-19-4.5-19-4.5-19-4.5-19-6.5-17-6.5-17-7-.5-7-.5 5-6.5 5-6.5-11.5-8-11.5-8-10.5-2.5-10.5-2.5-17 4.5-17 4.5-13 3.5-13 3.5-15 3.5-15 3.5-7 13.5-7 13.5-1.5 13-1.5 13-2.5 13-2.5 13-1.5 18-1.5 18-1.5 17.5-1.5 17.5-2 31-2 31h26.5 26.5 27 27 26.5 26.5 26.5 26.5 1.5 1.5l1.5-19.5 1.5-19.5 7-10.5 7-10.5 7-13.5 7-13.5 4.5-13.5 4.5-13.5 3.5-12 3.5-12 10-4.5 10-4.5-4.5 18-4.5 18 1.5 12 1.5 12v16.5 16.5l-1 27-1 27h26.5 26.5 27 27 17 17l-.5-13.5-.5-13.5 1-10.5 1-10.5-2-13.5-2-13.5-7-15.5-7-15.5 5-13 5-13 10.5 14 10.5 14 3.5 13 3.5 13 4 11.5 4 11.5-6.5 7-6.5 7 3 3.5 3 3.5-3 7.5-3 7.5 2.5 9.5 2.5 9.5h3 3 2 2 2.5 2.5 2 2 2.5 2.5 2 2 1 1l-.5-39.5-.5-39.5-.5-1-.5-1-.5-.5-.5-.5-1-.5-1-.5v-2-2l-.5-.5-.5-.5.5-1 .5-1 .5-1.5.5-1.5h1.5 1.5l1 1 1 1h1 1 2 2l1.5-1 1.5-1 1-1 1-1v-1.5-1.5l.5-.5.5-.5h2 2l1.5.5 1.5.5.5-1 .5-1h1.5 1.5 1 1v-1-1h1 1 1.5 1.5l.5-.5.5-.5h1 1l.5-.5.5-.5h1.5 1.5 1 1 1 1v1 1l-.5.5-.5.5 5.5 8.5 5.5 8.5 8.5 4 8.5 4 16.5 2 16.5 2 11 .5 11 .5 11.5.5 11.5.5.5-.5.5-.5" style="fill:#1c1a12;stroke:#1c1a12" />
        <path d="m762 321h1v-1-1l-.5-.5-.5-.5-5-19-5-19-7.5-10-7.5-10-.5 1-.5 1-9 1.5-9 1.5-8 7-8 7 .5 5 .5 5-8.5-2-8.5-2-2.5-22.5-2.5-22.5.5-1 .5-1 .5-1.5.5-1.5.5-.5.5-.5v-1.5-1.5l1.5-.5 1.5-.5.5-.5.5-.5v-1-1l.5-.5.5-.5 1-.5 1-.5.5-.5.5-.5v-1-1l.5-.5.5-.5v-1.5-1.5-2-2l.5-.5.5-.5v-1.5-1.5-2-2l-16.5 21-16.5 21 1 .5 1 .5-.5 1-.5 1 .5 1.5.5 1.5.5-.5.5-.5 1-.5 1-.5.5 1.5.5 1.5-.5.5-.5.5.5 1 .5 1 .5 1.5.5 1.5v1 1h-1.5-1.5l-.5-1-.5-1v-1-1-.5-.5l-.5.5-.5.5-1 1-1 1v1 1l6.5 18.5 6.5 18.5 16 6.5 16 6.5 6 .5 6 .5 11-8 11-8 5-1.5 5-1.5 6 13 6 13" style="fill:#575649;stroke:#575649" />
        <path d="m752 515v-1l-1-.5-1-.5 1 1 1 1" style="fill:#927758;stroke:#927758" />
        <path d="m751 429l-32-9-14-5-14-5-1.5-.5-1.5-.5-2-.5-2-.5-1.5-.5-1.5-.5-2 .5-2 .5-.5 1.5-.5 1.5v1.5 1.5 2 2l.5 1 .5 1-.5.5-.5.5v1 1l-.5 1-.5 1h23.5 23.5l14.5 2 14.5 2" style="fill:#72654b;stroke:#72654b" />
        <path d="m741 491l1-2-32-.5-32-.5h-.5-.5l-18.5 1.5-18.5 1.5-17-2.5-17-2.5-17-1.5-17-1.5-23-6.5-23-6.5v-1.5-1.5-1.5-1.5l-1-.5-1-.5-1 .5-1 .5-1.5.5-1.5.5-1 1.5-1 1.5 3.5 11.5 3.5 11.5 1-.5 1-.5 1-1 1-1 .5-.5.5-.5h1.5 1.5l1.5-.5 1.5-.5h1 1l1-.5 1-.5 1.5 1 1.5 1h.5.5 16 16l18 2.5 18 2.5 14 4.5 14 4.5v.5.5l.5.5.5.5h.5.5l22.5 2 22.5 2h.5.5l19-1.5 19-1.5-.5-1.5-.5-1.5h1 1v-1-1l.5-.5.5-.5 1-.5 1-.5h1 1v-1-1l.5-.5.5-.5 1 .5 1 .5.5.5.5.5.5.5.5.5h1 1l.5-.5.5-.5.5-.5.5-.5-.5-1-.5-1-.5.5-.5.5-.5-.5-.5-.5.5-.5.5-.5 1.5-.5 1.5-.5" style="fill:#3d4441;stroke:#3d4441" />
        <path d="m741 225l-27-45-17-3-17-3-12 8.5-12 8.5.5 9 .5 9 12-7.5 12-7.5 11 2 11 2-1 1.5-1 1.5-2-.5-2-.5-1 1-1 1 1 1 1 1-1.5 1-1.5 1v2 2 1.5 1.5l-.5.5-.5.5v2 2 1.5 1.5l-.5.5-.5.5v1 1l-.5.5-.5.5-1 .5-1 .5-.5.5-.5.5v1 1l-.5.5-.5.5-1.5.5-1.5.5v1.5 1.5l-.5.5-.5.5-.5 1.5-.5 1.5-.5 1-.5 1 .5 1.5.5 1.5-.5.5-.5.5.5 2 .5 2 7.5-17 7.5-17 14.5 6 14.5 6h-2-2l-1.5 1-1.5 1 1 1 1 1 1 .5 1 .5 1.5.5 1.5.5.5 2 .5 2 .5 1.5.5 1.5h-.5-.5l-.5 1.5-.5 1.5-.5 1.5-.5 1.5-1 .5-1 .5-.5 1.5-.5 1.5-.5.5-.5.5h-.5-.5v1 1l2 .5 2 .5 1.5 1 1.5 1 7-15 7-15" style="fill:#6b7368;stroke:#6b7368" />
        <path d="m740 466l-8-31h-1.5-1.5l-1.5.5-1.5.5-.5 1-.5 1h-1-1l-.5-.5-.5-.5-.5.5-.5.5-.5 1.5-.5 1.5-.5 1-.5 1-.5.5-.5.5.5 1.5.5 1.5v.5.5 1 1l-1 1-1 1 1 1 1 1 2.5 4 2.5 4h1.5 1.5l1.5.5 1.5.5 2 .5 2 .5 1.5.5 1.5.5 1 .5 1 .5h.5.5" style="fill:#333329;stroke:#333329" />
        <path d="m738 466h1l-1-.5-1-.5-1.5-.5-1.5-.5-2-.5-2-.5-1.5-.5-1.5-.5h-1.5-1.5-.5-.5-2.5-2.5v3.5 3.5 1.5 1.5l-1 .5-1 .5-1 .5-1 .5h-3-3l1 1 1 1h1.5 1.5 1 1 2 2l.5-1.5.5-1.5 1-1.5 1-1.5v-1-1l-.5-1-.5-1 .5-.5.5-.5 1.5.5 1.5.5 1 .5 1 .5h1 1 2 2l1 .5 1 .5v-.5-.5l1.5-.5 1.5-.5" style="fill:#7d8984;stroke:#7d8984" />
        <path d="m736 262l1-2-1.5-1-1.5-1 .5-1 .5-1h-1.5-1.5l-1.5.5-1.5.5-1-1-1-1-1.5-1-1.5-1-2-.5-2-.5v-1-1h.5.5l.5-.5.5-.5.5-1.5.5-1.5 1-.5 1-.5 1.5-3 1.5-3-.5-1.5-.5-1.5-.5-2-.5-2-1.5-.5-1.5-.5-1-.5-1-.5-1-1-1-1-11.5 9-11.5 9 7 7 7 7-14-6-14-6-.5-2-.5-2 .5-.5.5-.5-.5-1.5-.5-1.5 2.5 22.5 2.5 22.5 8.5 2 8.5 2-.5-5-.5-5 8-7 8-7 9-1.5 9-1.5" style="fill:#72654b;stroke:#72654b" />
        <path d="m735 376l1-3-1-1-1-1-1-1.5-1-1.5v-2-2l-1-1.5-1-1.5-.5-1.5-.5-1.5h-.5-.5-.5-.5l-1-.5-1-.5v1 1l-1 1-1 1-1-.5-1-.5 1 1 1 1 1 1.5 1 1.5 1 1 1 1 1.5 1 1.5 1 .5 1.5.5 1.5 1 1.5 1 1.5 1 .5 1 .5" style="fill:#575649;stroke:#575649" />
        <path d="m732 535l-22-5-10-3-10-3-.5 1-.5 1v1.5 1.5l-.5.5-.5.5v1 1h-1-1l-1 .5-1 .5.5.5.5.5 1 .5 1 .5 22 1 22 1 .5-1 .5-1" style="fill:#3b240e;stroke:#3b240e" />
        <path d="m727 358h1l-.5-1-.5-1v-2-2l-1-1.5-1-1.5v-1-1l-.5-.5-.5-.5-1-.5-1-.5h-1-1l.5.5.5.5-.5.5-.5.5h-1.5-1.5l-.5.5-.5.5-.5.5-.5.5.5.5.5.5-.5.5-.5.5-.5-1-.5-1-.5-.5-.5-.5-.5.5-.5.5-.5-.5-.5-.5-.5 1-.5 1 .5.5.5.5h1 1l-.5 1.5-.5 1.5.5 1 .5 1h1.5 1.5l1 1 1 1 .5-1.5.5-1.5v1.5 1.5l1 1 1 1 1 .5 1 .5 1-1 1-1v-1-1l1 .5 1 .5" style="fill:#6f542f;stroke:#6f542f" />
        <path d="m727 239h1l-1.5 3-1.5 3 .5-1.5.5-1.5.5-1.5.5-1.5" style="fill:#575649;stroke:#575649" />
        <path d="m726 226l-29-12-7.5 17-7.5 17 14 6 14 6-7-7-7-7 11.5-9 11.5-9 1.5-1 1.5-1h2 2" style="fill:#927758;stroke:#927758" />
        <path d="m724 345l-1-1 .5-.5.5-.5-.5-1-.5-1-.5-1.5-.5-1.5-1.5 1-1.5 1-1.5-.5-1.5-.5h-1.5-1.5l-.5-1.5-.5-1.5h-2-2-1.5-1.5l-.5-1.5-.5-1.5-1.5-2-1.5-2-6 4-6 4 11.5 8.5 11.5 8.5.5-1.5.5-1.5h-1-1l-.5-.5-.5-.5.5-1 .5-1 .5.5.5.5.5-.5.5-.5.5.5.5.5.5 1 .5 1 .5-.5.5-.5-.5-.5-.5-.5.5-.5.5-.5.5-.5.5-.5h1.5 1.5l.5-.5.5-.5-.5-.5-.5-.5h1 1l1 .5 1 .5v-.5-.5" style="fill:#575649;stroke:#575649" />
        <path d="m723 484l-36-6-22.5-1.5-22.5-1.5-22-6-22-6h-.5-.5l-1.5-1-1.5-1h-2-2-2-2l-2 .5-2 .5h-2-2l-2 .5-2 .5h-2-2l-2-.5-2-.5-1.5-.5-1.5-.5-1-.5-1-.5-1-.5-1-.5h-.5-.5l-3 6.5-3 6.5h2 2 1 1 1.5 1.5l1 .5 1 .5 21.5 2 21.5 2h1.5 1.5l1.5-.5 1.5-.5h1.5 1.5l1.5.5 1.5.5 2 .5 2 .5 1.5-.5 1.5-.5 1.5.5 1.5.5h2.5 2.5l1 .5 1 .5 21.5 1.5 21.5 1.5 22.5 1 22.5 1" style="fill:#a4b49f;stroke:#a4b49f" />
        <path d="m723 462h1l-2.5-4-2.5-4-.5 1-.5 1 .5.5.5.5h-1-1l-1-.5-1-.5v-1-1h-1-1-1-1-2-2v1.5 1.5l-.5.5-.5.5 1 .5 1 .5.5 1.5.5 1.5-.5.5-.5.5.5 1 .5 1 .5 1.5.5 1.5-.5 1.5-.5 1.5-1.5-.5-1.5-.5-1-1.5-1-1.5.5 2 .5 2h1 1l1 .5 1 .5h2 2l1-1.5 1-1.5h1.5 1.5v-3.5-3.5h2.5 2.5" style="fill:#3d4441;stroke:#3d4441" />
        <path d="m722 338l1-3-1.5-.5-1.5-.5-2-.5-2-.5v-1-1h-1.5-1.5-2-2-1.5-1.5l-.5-.5-.5-.5h-1-1l-1-.5-1-.5 1.5 2 1.5 2 .5 1.5.5 1.5h1.5 1.5 2 2l.5 1.5.5 1.5h1.5 1.5l1.5.5 1.5.5 1.5-1 1.5-1" style="fill:#56432c;stroke:#56432c" />
        <path d="m721 487l1-1-34-2-34-2 33.5 2.5 33.5 2.5" style="fill:#7d8984;stroke:#7d8984" />
        <path d="m718 472v-3h-1.5-1.5l-1 1.5-1 1.5h-2-2l-1-.5-1-.5h-1-1l-.5-2-.5-2-1-1-1-1-1.5-.5-1.5-.5h-2-2l-2 1-2 1 .5 1 .5 1 .5.5.5.5 1 .5 1 .5 1 .5 1 .5h-2-2l-1.5.5-1.5.5-1.5 1-1.5 1h-2-2l1.5.5 1.5.5h1.5 1.5l2-1 2-1 2-.5 2-.5 1.5.5 1.5.5h2.5 2.5l1.5.5 1.5.5h3 3l1-.5 1-.5 1-.5 1-.5" style="fill:#6b7368;stroke:#6b7368" />
        <path d="m709 471l1-3-.5-1.5-.5-1.5-.5-1-.5-1 .5-.5.5-.5-.5-1.5-.5-1.5-1-.5-1-.5.5-.5.5-.5v-1.5-1.5l-1-.5-1-.5-.5 1-.5 1-1 .5-1 .5-.5 1-.5 1-.5 1-.5 1-1 1-1 1 .5 1 .5 1 1.5.5 1.5.5 1 1 1 1 1 1.5 1 1.5 1.5.5 1.5.5" style="fill:#333329;stroke:#333329" />
        <path d="m706 124h1l-15.5 6-15.5 6-1.5 19-1.5 19 2.5-19.5 2.5-19.5 14-5.5 14-5.5" style="fill:#929d89;stroke:#929d89" />
        <path d="m703 198l-22-4-12 7.5-12 7.5-1 1-1 1v1.5 1.5.5.5l-11 32.5-11 32.5.5 1 .5 1 1 1 1 1h1.5 1.5l1.5-.5 1.5-.5 1-1.5 1-1.5 8.5-8.5 8.5-8.5v-1-1l-1-.5-1-.5.5-1.5.5-1.5-.5-1.5-.5-1.5.5-1 .5-1-.5-1.5-.5-1.5 1-.5 1-.5 16.5-21 16.5-21 1.5-1 1.5-1-1-1-1-1 1-1 1-1 2 .5 2 .5 1-1.5 1-1.5" style="fill:#406167;stroke:#406167" />
        <path d="m701 458l1-2-.5-1-.5-1h-1-1l-.5-.5-.5-.5-1 .5-1 .5-.5.5-.5.5-.5-.5-.5-.5h-1-1l-1-.5-1-.5-1 .5-1 .5-.5.5-.5.5-1 1-1 1-1 1.5-1 1.5h1.5 1.5l.5.5.5.5 1.5.5 1.5.5v1.5 1.5l-.5.5-.5.5v2 2l-1 .5-1 .5h-1-1l-1 1-1 1h1.5 1.5l1-.5 1-.5.5-.5.5-.5.5-1 .5-1 .5-1.5.5-1.5 2-1 2-1h2 2l-.5-1-.5-1 1-1 1-1 .5-1 .5-1" style="fill:#3d4441;stroke:#3d4441" />
        <path d="m697 471l-2-1-1-.5-1-.5-.5-.5-.5-.5-.5-1-.5-1-.5 1.5-.5 1.5-.5 1-.5 1-.5.5-.5.5-1 .5-1 .5h-1.5-1.5l-38-6.5-38-6.5-18-3-18-3-5.5-14-5.5-14 1.5-13.5 1.5-13.5 8-29.5 8-29.5 12.5-11 12.5-11 15-6.5 15-6.5 5-12.5 5-12.5-1 1.5-1 1.5-1.5.5-1.5.5h-1.5-1.5l-1-1-1-1-.5-1-.5-1-10.5 16-10.5 16-21.5 23-21.5 23-6.5 30-6.5 30v1.5 1.5l.5 1 .5 1-.5 1.5-.5 1.5 1 1.5 1 1.5v1 1l.5 1.5.5 1.5v1 1 1.5 1.5 1.5 1.5 1.5 1.5l-1 1-1 1 .5 1.5.5 1.5 19.5 5.5 19.5 5.5.5 1 .5 1 22 6 22 6h23.5 23.5-1.5-1.5l-1.5-.5-1.5-.5h2 2l1.5-1 1.5-1 1.5-.5 1.5-.5h2 2" style="fill:#575649;stroke:#575649" />
        <path d="m689 522l-18-3-13.5 2-13.5 2 1 1 1 1 .5.5.5.5.5-.5.5-.5 1-.5 1-.5 1.5-.5 1.5-.5.5.5.5.5.5.5.5.5.5.5.5.5 1 .5 1 .5h1 1l.5-.5.5-.5h1 1v1 1l-1 .5-1 .5-1-.5-1-.5-.5.5-.5.5-1 .5-1 .5-.5 1-.5 1 16 1.5 16 1.5-1-.5-1-.5-.5-.5-.5-.5 1-.5 1-.5h1 1v-1-1l.5-.5.5-.5v-1.5-1.5l-1.5-.5-1.5-.5.5-.5.5-.5 1-1 1-1" style="fill:#333329;stroke:#333329" />
        <path d="m687 455l1-1-2-.5-2-.5h-.5-.5l-2.5 3.5-2.5 3.5h2.5 2.5l1-1.5 1-1.5 1-1 1-1" style="fill:#575649;stroke:#575649" />
        <path d="m685 507h1l-22.5-2-22.5-2 22 2 22 2" style="fill:#56432c;stroke:#56432c" />
        <path d="m683 453h1l-1-.5-1-.5-2 4-2 4 2.5-3.5 2.5-3.5" style="fill:#3d4441;stroke:#3d4441" />
        <path d="m682 215v-2l-1.5-.5-1.5-.5-1.5-1-1.5-1h-2-2l-1.5 1-1.5 1 1 1 1 1 1 .5 1 .5 1.5.5 1.5.5h2 2l1-.5 1-.5" style="fill:#6b7368;stroke:#6b7368" />
        <path d="m677 488h1l-35.5-3-35.5-3-20.5-2-20.5-2-19.5-4-19.5-4h-.5-.5l23 6.5 23 6.5 17 1.5 17 1.5 17 2.5 17 2.5 18.5-1.5 18.5-1.5" style="fill:#575649;stroke:#575649" />
        <path d="m672 148l-1-26-2.5-.5-2.5-.5-1-.5-1-.5-.5.5-.5.5-1.5-.5-1.5-.5-1 .5-1 .5h-1-1l-1.5-.5-1.5-.5-1 1-1 1h-1.5-1.5-2-2l-1 .5-1 .5v1 1h1 1l.5 1 .5 1h1 1 1 1v1 1l-.5 1-.5 1-1.5-.5-1.5-.5-1 1-1 1h-1-1l-1 1-1 1-.5 1-.5 1v1 1l.5 1.5.5 1.5v.5.5 1 1 1 1l-.5 1.5-.5 1.5v1.5 1.5l.5 1.5.5 1.5-.5 1-.5 1v1 1 1 1l10 6.5 10 6.5 7-13 7-13" style="fill:#96a7c4;stroke:#96a7c4" />
        <path d="m668 263v-2l-.5-1.5-.5-1.5-.5-1-.5-1 .5-.5.5-.5-.5-1.5-.5-1.5-1 .5-1 .5-.5.5-.5.5-.5-1.5-.5-1.5.5-1 .5-1-1-.5-1-.5-1 .5-1 .5.5 1.5.5 1.5-.5 1-.5 1 .5 1.5.5 1.5-.5 1.5-.5 1.5 1 .5 1 .5 1-1 1-1 .5-.5.5-.5v.5.5 1 1l.5 1 .5 1h1.5 1.5" style="fill:#3d4441;stroke:#3d4441" />
        <path d="m663 528v-2h-1-1l-.5.5-.5.5h-1-1l-1-.5-1-.5-.5-.5-.5-.5-.5-.5-.5-.5-.5-.5-.5-.5-1.5.5-1.5.5-1 .5-1 .5-.5.5-.5.5-.5-.5-.5-.5-1-1-1-1-.5.5-.5.5-1 .5-1 .5-.5 1-.5 1 .5.5.5.5-.5.5-.5.5h-1.5-1.5l1 1 1 1 2 .5 2 .5h2 2 1.5 1.5 1 1 1.5 1.5l.5-1 .5-1 1-.5 1-.5.5-.5.5-.5 1 .5 1 .5 1-.5 1-.5" style="fill:#3b240e;stroke:#3b240e" />
        <path d="m657 174h1l-10-6.5-10-6.5-11 6-11 6-5-.5-5-.5-11-3.5-11-3.5-5 5-5 5-4 8.5-4 8.5-3-2.5-3-2.5-2.5-2-2.5-2-9.5-1.5-9.5-1.5h-4.5-4.5l-7.5 5-7.5 5-9.5-1.5-9.5-1.5-7-7.5-7-7.5-2-.5-2-.5-12 .5-12 .5-1.5-7.5-1.5-7.5v-5.5-5.5l-9.5-2-9.5-2-2-5-2-5-7.5-4-7.5-4-4-8.5-4-8.5-1.5-11.5-1.5-11.5v-11.5-11.5l-2.5-15-2.5-15-.5-15.5-.5-15.5h-27.5-27.5-26.5-26.5-26.5-26.5-27-27-26.5-26.5-10.5-10.5l17 1.5 17 1.5-9 16.5-9 16.5-2.5 9-2.5 9-2 8.5-2 8.5 3 10 3 10-4.5 4-4.5 4-4.5 2.5-4.5 2.5 9 2.5 9 2.5 8 6.5 8 6.5-1.5-10-1.5-10 8 8.5 8 8.5 1-3.5 1-3.5 11.5 3 11.5 3h5 5 1.5 1.5l10.5-2 10.5-2-1-4.5-1-4.5 10 .5 10 .5 5 4.5 5 4.5 6-1.5 6-1.5 13 2.5 13 2.5v2.5 2.5l7 1 7 1 13 5 13 5 12 1 12 1 4 5.5 4 5.5 6.5-2 6.5-2 7.5-3.5 7.5-3.5 3 3.5 3 3.5 6.5 4 6.5 4 1 17.5 1 17.5 2.5 12 2.5 12 2.5 15 2.5 15 1.5 12 1.5 12 1 12.5 1 12.5 5.5 7.5 5.5 7.5 5 2.5 5 2.5 3.5-2 3.5-2 8 2.5 8 2.5-.5 9-.5 9 8 6.5 8 6.5 10.5-1 10.5-1 5.5 5 5.5 5 6-.5 6-.5 2-1.5 2-1.5 6 1.5 6 1.5 10-1 10-1h-.5-.5.5.5l5.5-9.5 5.5-9.5 8-4.5 8-4.5 7.5-9.5 7.5-9.5v5.5 5.5l6-2.5 6-2.5 6.5-4 6.5-4 6.5-13.5 6.5-13.5 11.5-29.5 11.5-29.5 4-18.5 4-18.5" style="fill:#a4b49f;stroke:#a4b49f" />
        <path d="m656 610v-2h-1-1-1-1-1.5-1.5l-.5.5-.5.5h-1-1l-.5.5-.5.5h-1.5-1.5-1-1v1 1h-1-1-1.5-1.5l-.5 1-.5 1 1 .5 1 .5 1 1.5 1 1.5.5-.5.5-.5-.5-1.5-.5-1.5 2-.5 2-.5h2 2l1.5-1 1.5-1 1 1 1 1 2-1 2-1 .5-.5.5-.5" style="fill:#333329;stroke:#333329" />
        <path d="m655 215v-1-1.5-1.5l-1 .5-1 .5-.5 1.5-.5 1.5-1.5 1-1.5 1-1 1-1 1-5.5 19-5.5 19-7 17.5-7 17.5-14 12.5-14 12.5-12.5 20.5-12.5 20.5 21.5-23 21.5-23 10.5-16 10.5-16 11-32.5 11-32.5" style="fill:#6b7368;stroke:#6b7368" />
        <path d="m653 482h1l-1-.5-1-.5h-2-2-2.5-2.5l-1.5-.5-1.5-.5-2.5-.5-2.5-.5-1-.5-1-.5h-2.5-2.5l-1.5-.5-1.5-.5-1.5.5-1.5.5-2-.5-2-.5-1.5-.5-1.5-.5h-1.5-1.5l-1.5.5-1.5.5h-1.5-1.5-.5-.5l-21-2-21-2-1-.5-1-.5h-1.5-1.5-1-1-2-2-1.5-1.5-1-1-1.5-1.5-1-1-1-1l-1-.5-1-.5-1.5-.5-1.5-.5-2-.5-2-.5-1.5-.5-1.5-.5 20 4 20 4 20.5 2 20.5 2 22 1 22 1" style="fill:#7d8984;stroke:#7d8984" />
        <path d="m649 129v-2h-1-1-1-1l-.5-1-.5-1h-1-1v-1-1l-1 1.5-1 1.5-.5 1.5-.5 1.5v1.5 1.5 1 1l1-1 1-1h1 1l1-1 1-1 1.5.5 1.5.5.5-1 .5-1" style="fill:#a4b49f;stroke:#a4b49f" />
        <path d="m648 213l1-2-11.5 29.5-11.5 29.5-6.5 13.5-6.5 13.5-6.5 4-6.5 4-6 2.5-6 2.5v-5.5-5.5l-7.5 9.5-7.5 9.5-8 4.5-8 4.5-5.5 9.5-5.5 9.5-10 1-10 1-6-1.5-6-1.5-2 1.5-2 1.5-6 .5-6 .5-5.5-5-5.5-5-10.5 1-10.5 1-8-6.5-8-6.5.5-9 .5-9-8-2.5-8-2.5-3.5 2-3.5 2-5-2.5-5-2.5-5.5-7.5-5.5-7.5-1-12.5-1-12.5-1.5-12-1.5-12-2.5-15-2.5-15-2.5-12-2.5-12-1-17.5-1-17.5-6.5-4-6.5-4-3-3.5-3-3.5-7.5 3.5-7.5 3.5-6.5 2-6.5 2-4-5.5-4-5.5-12-1-12-1v1.5 1.5l-.5 1-.5 1 .5-2.5.5-2.5-13-5-13-5-7-1-7-1v-2.5-2.5l-13-2.5-13-2.5-6 1.5-6 1.5-5-4.5-5-4.5-10-.5-10-.5 1 4.5 1 4.5-10.5 2-10.5 2h-1.5-1.5-5-5l-11.5-3-11.5-3-1 3.5-1 3.5-8-8.5-8-8.5 1.5 10 1.5 10-8-6.5-8-6.5-9-2.5-9-2.5.5 1 .5 1 .5.5.5.5h1 1v.5.5l-1 1-1 1v1 1 1.5 1.5l1.5.5 1.5.5v1 1l-2-.5-2-.5-1 1-1 1v-1-1l.5-1 .5-1-1-1-1-1 .5-1 .5-1-.5-1-.5-1-7.5 7-7.5 7-6 4.5-6 4.5-6.5 6-6.5 6-9 9-9 9 5.5-2 5.5-2 3.5-.5 3.5-.5 5-2.5 5-2.5 6-5.5 6-5.5 3 7 3 7-1.5 3-1.5 3 13 2.5 13 2.5 10.5-.5 10.5-.5v3.5 3.5l10-3.5 10-3.5 2 3.5 2 3.5 3.5-7.5 3.5-7.5 10.5-6 10.5-6 13.5-7 13.5-7 17 3.5 17 3.5 17 9 17 9 5 17.5 5 17.5 5 13.5 5 13.5 12 14 12 14v-2-2l-.5-1.5-.5-1.5 2-.5 2-.5v-1-1l-1-1.5-1-1.5h2 2l1 .5 1 .5-.5 1.5-.5 1.5-.5 1-.5 1-1 1-1 1 .5.5.5.5.5 2 .5 2-1 1-1 1-1.5-1-1.5-1 .5 8.5.5 8.5 6.5 2.5 6.5 2.5 1 4.5 1 4.5 4-6.5 4-6.5 6.5 2 6.5 2-1-9-1-9 1.5-17 1.5-17 7 3.5 7 3.5h3.5 3.5l5.5 2.5 5.5 2.5 1 18.5 1 18.5 1.5 18 1.5 18 2.5 12 2.5 12-.5 12.5-.5 12.5 3 16.5 3 16.5 9 8.5 9 8.5 26.5 3.5 26.5 3.5h1.5 1.5l1 1 1 1 1.5.5 1.5.5 1.5-1 1.5-1 1 1 1 1 1.5 1 1.5 1 1.5.5 1.5.5 1 1.5 1 1.5.5 1 .5 1 10.5 2 10.5 2 7 6.5 7 6.5 11.5-8.5 11.5-8.5 6.5-30 6.5-30 12.5-20.5 12.5-20.5 14-12.5 14-12.5 7-17.5 7-17.5 5.5-19 5.5-19 .5-3 .5-3" style="fill:#929d89;stroke:#929d89" />
        <path d="m643 524l1-1-16.5-2-16.5-2-9 1.5-9 1.5-13-5.5-13-5.5-11-.5-11-.5-10.5-9.5-10.5-9.5-3.5-11.5-3.5-11.5v1.5 1.5h-1-1l-1-.5-1-.5h-1.5-1.5l-.5.5-.5.5-9.5-4-9.5-4 1-.5 1-.5-2-19-2-19-11.5-5.5-11.5-5.5-6.5 17.5-6.5 17.5-6 21-6 21-.5 1-.5 1-.5 2-.5 2v1 1l1 1 1 1 2 .5 2 .5 1-1 1-1-1-1.5-1-1.5 1-1 1-1 1 1.5 1 1.5h1 1l.5 1 .5 1-8.5 12.5-8.5 12.5 16 .5 16 .5 15.5 1.5 15.5 1.5 19-.5 19-.5 13.5-2 13.5-2 7 .5 7 .5 15.5 2.5 15.5 2.5 16 1 16 1-1-1-1-1h1.5 1.5l.5-.5.5-.5-.5-.5-.5-.5.5-1 .5-1 1-.5 1-.5" style="fill:#333329;stroke:#333329" />
        <path d="m639 504l1-1-.5-.5-.5-.5-34.5-2.5-34.5-2.5 34.5 3.5 34.5 3.5" style="fill:#56432c;stroke:#56432c" />
        <g style="fill:#333329;stroke:#333329">
            <path d="m639 501l-28-9-18-2.5-18-2.5h-16-16v1.5 1.5l.5 1 .5 1 1.5.5 1.5.5h1 1l1 .5 1 .5h2 2l.5.5.5.5h1 1 1 1 1.5 1.5 1 1l.5.5.5.5h1 1l1 .5 1 .5 34.5 2.5 34.5 2.5v-.5-.5" />
            <path d="m622 629l1-3h-1-1l-.5.5-.5.5h-1-1l-1-.5-1-.5-.5.5-.5.5v1 1l-.5-.5-.5-.5.5-1 .5-1v-1-1l-.5-.5-.5-.5.5-.5.5-.5 1-.5 1-.5h-1-1l-1-1-1-1h-1.5-1.5l-.5 1.5-.5 1.5-.5 1-.5 1 .5.5.5.5v2 2l1 .5 1 .5.5.5.5.5.5 1 .5 1 1.5-1.5 1.5-1.5h1 1 1 1l1-.5 1-.5" />
        </g>
        <g style="fill:#929d89;stroke:#929d89">
            <path d="m605 477h1l-21.5-2-21.5-2 21 2 21 2" />
            <path d="m597 463h1l-.5-1-.5-1-1-.5-1-.5h-.5-.5l-2-.5-2-.5-1.5.5-1.5.5h-1-1-1.5-1.5l-1.5.5-1.5.5h-2.5-2.5l-1.5.5-1.5.5-1.5-.5-1.5-.5-.5-.5-.5-.5h-1.5-1.5l-2.5-.5-2.5-.5 1 .5 1 .5 1 .5 1 .5 1.5.5 1.5.5 2 .5 2 .5h2 2l2-.5 2-.5h2 2l2-.5 2-.5h2 2 2 2l1.5 1 1.5 1" />
        </g>
        <path d="m597 461l-39-11-1 .5-1 .5-.5-1-.5-1-1.5.5-1.5.5h-1-1l-.5 1-.5 1h-.5-.5l-.5 1-.5 1-1.5-.5-1.5-.5-1.5-.5-1.5-.5-2-.5-2-.5-1.5.5-1.5.5-3 .5-3 .5-12.5-13-12.5-13v1.5 1.5 1 1 1 1l.5.5.5.5.5.5.5.5v1.5 1.5l.5.5.5.5v1 1l.5 1 .5 1 1.5 12.5 1.5 12.5 14.5-4.5 14.5-4.5.5-1 .5-1 .5-1 .5-1 .5.5.5.5 1 .5 1 .5 1 1 1 1h1 1l1-.5 1-.5h2 2l.5-.5.5-.5.5-.5.5-.5 1.5.5 1.5.5h1.5 1.5 1 1 1.5 1.5l.5.5.5.5h1 1l.5-.5.5-.5.5.5.5.5 1 .5 1 .5h1 1l.5-.5.5-.5h1 1 1 1l1-.5 1-.5.5.5.5.5h1 1l.5-.5.5-.5h1.5 1.5 1 1 1 1l.5 1 .5 1 1 .5 1 .5" style="fill:#6b7368;stroke:#6b7368" />
        <path d="m594 460h1l-.5-1-.5-1h-1-1-1-1-1.5-1.5l-.5.5-.5.5h-1-1l-.5-.5-.5-.5-1 .5-1 .5h-1-1-1-1l-.5.5-.5.5h-1-1l-1-.5-1-.5-.5-.5-.5-.5-.5.5-.5.5h-1-1l-.5-.5-.5-.5h-1.5-1.5-1-1-1.5-1.5v.5.5l2.5.5 2.5.5h1.5 1.5l.5.5.5.5 1.5.5 1.5.5 1.5-.5 1.5-.5h2.5 2.5l1.5-.5 1.5-.5h1.5 1.5 1 1l1.5-.5 1.5-.5 2 .5 2 .5" style="fill:#7d8984;stroke:#7d8984" />
        <path d="m592 657l-8-23-3.5-13-3.5-13-10.5-14-10.5-14-5 13-5 13 7 15.5 7 15.5 2 13.5 2 13.5-1 10.5-1 10.5.5 13.5.5 13.5h2 2 2.5 2.5 2 2 2 2 2 2l-2.5-9.5-2.5-9.5 3-7.5 3-7.5-3-3.5-3-3.5 6.5-7 6.5-7" style="fill:#333329;stroke:#333329" />
        <path d="m569 497h1l-1-.5-1-.5h-1-1l-.5-.5-.5-.5h-1-1-1.5-1.5-1-1-1-1l-.5-.5-.5-.5h-2-2l-1-.5-1-.5h-1-1l-1.5-.5-1.5-.5-.5-1-.5-1v-1.5-1.5h-.5-.5l-.5 1-.5 1v.5.5l.5 2 .5 2 1 .5 1 .5.5.5.5.5 1.5-.5 1.5-.5 1 .5 1 .5h1 1l1.5.5 1.5.5 1-.5 1-.5.5.5.5.5h1 1 1 1l1.5.5 1.5.5 2-.5 2-.5" style="fill:#56432c;stroke:#56432c" />
        <path d="m559 442v-3-1.5-1.5-1-1l-.5-1.5-.5-1.5v-1-1l-1-1.5-1-1.5.5-1.5.5-1.5-.5-1-.5-1v-1.5-1.5l-11.5 8.5-11.5 8.5-7-6.5-7-6.5-10.5-2-10.5-2 1 1.5 1 1.5 1 1.5 1 1.5.5 1.5.5 1.5 12.5 13 12.5 13 10.5-.5 10.5-.5.5-1 .5-1h1 1l1.5-.5 1.5-.5.5 1 .5 1 1-.5 1-.5-.5-1.5-.5-1.5 1-1 1-1v-1.5-1.5" style="fill:#7d8984;stroke:#7d8984" />
        <g style="fill:#929d89;stroke:#929d89">
            <path d="m558 459h1v-.5-.5l-1.5-.5-1.5-.5-.5.5-.5.5-.5.5-.5.5h-2-2l-1 .5-1 .5h-1-1l-1-1-1-1-1-.5-1-.5-.5-.5-.5-.5-.5 1-.5 1-.5 1-.5 1h-.5-.5-2-2l-.5.5-.5.5-1-.5-1-.5-.5.5-.5.5h-1-1l-.5.5-.5.5-.5 1-.5 1v1.5 1.5 1.5 1.5h.5.5l.5-1 .5-1 1.5.5 1.5.5 2 .5 2 .5 1.5.5 1.5.5 1 .5 1 .5h1 1 1 1 1.5 1.5 1 1 1.5 1.5l3-6.5 3-6.5" />
            <path d="m548 452h1l-10.5.5-10.5.5 3-.5 3-.5 1.5-.5 1.5-.5 2 .5 2 .5 1.5.5 1.5.5 1.5.5 1.5.5.5-1 .5-1" />
        </g>
        <path d="m541 489l1-2-1.5-1-1.5-1-1 .5-1 .5h-1-1l-1.5.5-1.5.5h-1.5-1.5l-.5.5-.5.5-1 1-1 1-1 .5-1 .5.5 2.5.5 2.5h2 2l-1-.5-1-.5-.5-.5-.5-.5-.5-.5-.5-.5.5-1 .5-1 .5-.5.5-.5.5-.5.5-.5h1 1l1-.5 1-.5.5.5.5.5.5.5.5.5.5.5.5.5.5 1 .5 1 .5-.5.5-.5 1 1 1 1-.5-1.5-.5-1.5 1.5-.5 1.5-.5v-.5-.5" style="fill:#575649;stroke:#575649" />
        <path d="m538 495l1-1-1-1-1-1-.5.5-.5.5-.5-1-.5-1-.5-.5-.5-.5-.5-.5-.5-.5-.5-.5-.5-.5-1 .5-1 .5h-1-1l-.5.5-.5.5-.5.5-.5.5-.5 1-.5 1 .5.5.5.5.5.5.5.5 1 .5 1 .5 1.5-.5 1.5-.5 1.5.5 1.5.5 1.5-.5 1.5-.5" style="fill:#72654b;stroke:#72654b" />
        <g style="fill:#575649;stroke:#575649">
            <path d="m538 460h1l-14.5 4.5-14.5 4.5-1.5-12.5-1.5-12.5.5 2 .5 2 1 1.5 1 1.5.5 1.5.5 1.5.5 2 .5 2-.5 1.5-.5 1.5-2-.5-2-.5-1.5.5-1.5.5-1 1-1 1 .5 1.5.5 1.5 1.5 1 1.5 1 2 1 2 1h1.5 1.5l1 .5 1 .5h1 1v-1.5-1.5l1-1.5 1-1.5 1.5-.5 1.5-.5 1-.5 1-.5 1 .5 1 .5.5-1 .5-1 .5-.5.5-.5h1 1l.5-.5.5-.5 1 .5 1 .5.5-.5.5-.5h2 2" />
            <path d="m529 520l-18-7-.5.5-.5.5.5 1.5.5 1.5v1 1 1 1 1 1l-1 .5-1 .5-2-.5-2-.5-1 1-1 1-.5-1.5-.5-1.5-.5-2-.5-2-.5-1-.5-1-.5 1-.5 1v1.5 1.5l.5 2 .5 2 1 1 1 1h2 2l1.5-.5 1.5-.5 2 .5 2 .5 1-1 1-1 2-.5 2-.5 1.5-.5 1.5-.5 2 .5 2 .5 1.5-.5 1.5-.5v-1.5-1.5" />
        </g>
        <path d="m519 493v-2h-2-2-1.5-1.5l-1.5-.5-1.5-.5-2-.5-2-.5-1.5-.5-1.5-.5h-1.5-1.5l2.5.5 2.5.5 1.5.5 1.5.5 1.5 1 1.5 1 1.5.5 1.5.5 1 1.5 1 1.5v1 1l-1 1.5-1 1.5v1.5 1.5l1.5-1.5 1.5-1.5 1-1 1-1-.5-1.5-.5-1.5 1-1.5 1-1.5" style="fill:#3d4441;stroke:#3d4441" />
        <path d="m515 498v-2l-1-1.5-1-1.5-1.5-.5-1.5-.5-1.5-1-1.5-1-1.5-.5-1.5-.5-2.5-.5-2.5-.5h-1.5-1.5l-1.5-.5-1.5-.5-1.5-.5-1.5-.5h-2.5-2.5l-1 1-1 1-2-.5-2-.5-1.5-.5-1.5-.5v-.5-.5h-.5-.5-1.5-1.5-1-1-2-2-2.5-2.5l-1 1-1 1-.5 1.5-.5 1.5.5 2 .5 2 1.5.5 1.5.5 1.5 1 1.5 1h2 2 2 2l.5-1 .5-1v-.5-.5l19.5 5 19.5 5v-1.5-1.5l1-1.5 1-1.5" style="fill:#575649;stroke:#575649" />
        <path d="m513 181v-2l-1.5.5-1.5.5h-2.5-2.5-1-1v1.5 1.5l1 1 1 1h1.5 1.5l1 1 1 1 .5-.5.5-.5 1-1.5 1-1.5v-1-1" style="fill:#a4b49f;stroke:#a4b49f" />
        <path d="m512 507l1-3-19.5-5-19.5-5 .5 12.5.5 12.5 5.5-6 5.5-6-1 .5-1 .5h-1-1v-1-1l-.5-1-.5-1v-1-1l-.5-.5-.5-.5.5-.5.5-.5.5-1 .5-1 .5-.5.5-.5.5-.5.5-.5.5.5.5.5.5 1 .5 1 1 1 1 1v1 1 1.5 1.5l1 1 1 1 1 1 1 1 1.5 1 1.5 1 1 1 1 1v2.5 2.5l.5 1.5.5 1.5.5 1.5.5 1.5h.5.5l-.5-2-.5-2v-1.5-1.5l.5-1 .5-1 5-1 5-1 .5-.5.5-.5-1.5-1-1.5-1 1.5-1 1.5-1 .5-1 .5-1" style="fill:#3d4441;stroke:#3d4441" />
        <path d="m511 523v-2-1-1-1-1l-.5-1.5-.5-1.5-5 1-5 1 .5 1 .5 1 .5 2 .5 2 .5 1.5.5 1.5 1-1 1-1 2 .5 2 .5 1-.5 1-.5" style="fill:#6b7368;stroke:#6b7368" />
        <path d="m511 461l1-3-.5-2-.5-2-.5-1.5-.5-1.5-1-1.5-1-1.5-.5-2-.5-2h-.5-.5l-23.5-13.5-23.5-13.5-.5 1-.5 1-1 1-1 1v2 2 2.5 2.5l-.5 1.5-.5 1.5-.5 1.5-.5 1.5v2.5 2.5l-.5 1.5-.5 1.5-.5 2-.5 2 6.5-17.5 6.5-17.5 11.5 5.5 11.5 5.5 2 19 2 19h1.5 1.5l1 1 1 1 2.5-.5 2.5-.5 1-1 1-1 1.5-.5 1.5-.5 2 .5 2 .5" style="fill:#56432c;stroke:#56432c" />
        <path d="m509 471l1-1-2-1-2-1-1.5-1-1.5-1-.5-1.5-.5-1.5-2.5.5-2.5.5v1.5 1.5l-.5.5-.5.5-1 .5-1 .5-.5.5-.5.5-.5.5-.5.5.5.5.5.5.5.5.5.5 1-.5 1-.5h1 1l.5.5.5.5v1 1l-4.5-6-4.5-6 9.5 4 9.5 4" style="fill:#3d4441;stroke:#3d4441" />
        <path d="m506 444h1l-.5-1-.5-1v-1-1l-.5-.5-.5-.5v-1.5-1.5l-.5-.5-.5-.5-.5-.5-.5-.5v-1-1-1-1-1.5-1.5l-.5-1.5-.5-1.5-1-1.5-1-1.5-1-1.5-1-1.5-.5-1-.5-1-1-1.5-1-1.5-1.5-.5-1.5-.5-1.5-1-1.5-1-1-1-1-1-1.5 1-1.5 1-1.5-.5-1.5-.5-1-1-1-1h-1.5-1.5-.5-.5l-1.5-.5-1.5-.5-1.5-1-1.5-1-1.5-.5-1.5-.5-2.5 1-2.5 1-.5.5-.5.5-2.5.5-2.5.5h1.5 1.5l.5.5.5.5-28 11.5-28 11.5-12 13-12 13 1 1 1 1 .5-.5.5-.5.5-.5.5-.5v-1-1-1.5-1.5l.5-.5.5-.5v-1-1h1 1 .5.5v1 1l-.5.5-.5.5-.5.5-.5.5-.5 1-.5 1 2 .5 2 .5.5-1 .5-1 11-13 11-13 24-6.5 24-6.5v1 1l23.5 13.5 23.5 13.5" style="fill:#72654b;stroke:#72654b" />
        <g style="fill:#575649;stroke:#575649">
            <path d="m499 475v-2l-.5-.5-.5-.5h-1-1l-1 .5-1 .5-.5-.5-.5-.5-.5-.5-.5-.5.5-.5.5-.5.5-.5.5-.5 1-.5 1-.5.5-.5.5-.5v-1.5-1.5l-1-1-1-1h-1.5-1.5l-1 .5-1 .5 4.5 6 4.5 6" />
            <path d="m488 503v-2l-1-1-1-1-.5-1-.5-1-.5-.5-.5-.5-.5.5-.5.5-.5.5-.5.5-.5 1-.5 1-.5.5-.5.5.5.5.5.5v1 1l.5 1 .5 1v1 1h1 1l1-.5 1-.5 1-.5 1-.5v-1.5-1.5" />
        </g>
        <path d="m475 485h1l-9.5 9.5-9.5 9.5 8-3.5 8-3.5h-2-2-2-2l-1.5-1-1.5-1-1.5-.5-1.5-.5-.5-2-.5-2 .5-1.5.5-1.5 1-1 1-1h2.5 2.5 2 2 1 1 1.5 1.5" style="fill:#3d4441;stroke:#3d4441" />
        <path d="m475 407h1l-26.5-3.5-26.5-3.5-9-8.5-9-8.5-3-16.5-3-16.5.5-12.5.5-12.5-2.5-12-2.5-12-1.5-18-1.5-18-1-18.5-1-18.5-5.5-2.5-5.5-2.5h-3.5-3.5l-7-3.5-7-3.5-1.5 17-1.5 17 1 9 1 9-6.5-2-6.5-2-4 6.5-4 6.5-1-4.5-1-4.5-6.5-2.5-6.5-2.5-.5-8.5-.5-8.5-12-14-12-14-5-13.5-5-13.5-5-17.5-5-17.5-17-9-17-9-17-3.5-17-3.5-13.5 7-13.5 7-10.5 6-10.5 6-3.5 7.5-3.5 7.5-2-3.5-2-3.5-10 3.5-10 3.5v-3.5-3.5l-10.5.5-10.5.5-13-2.5-13-2.5 1.5-3 1.5-3-3-7-3-7-6 5.5-6 5.5-5 2.5-5 2.5-3.5.5-3.5.5-5.5 2-5.5 2-9.5 7-9.5 7-4.5 8-4.5 8-5.5.5-5.5.5v26 26 26.5 26.5 9 9l14.5-1.5 14.5-1.5 5.5-7 5.5-7 .5-3 .5-3 7.5-9 7.5-9 6 .5 6 .5 4.5-4 4.5-4 2-5.5 2-5.5 11.5-1 11.5-1 10-.5 10-.5 7.5-13 7.5-13 8-16.5 8-16.5 13-22 13-22 18-8 18-8 30 14 30 14 1 1.5 1 1.5 1 1.5 1 1.5.5 1.5.5 1.5 1.5 1 1.5 1v2 2l-.5 1.5-.5 1.5-.5.5-.5.5 1.5 21.5 1.5 21.5-7.5 16-7.5 16 5.5 15 5.5 15 9 16.5 9 16.5 3.5 2 3.5 2 7 5 7 5 5.5 4 5.5 4 9.5-5 9.5-5 1 6.5 1 6.5 3.5-7.5 3.5-7.5 9-5.5 9-5.5 6 1.5 6 1.5 3 14.5 3 14.5 2.5 14.5 2.5 14.5 2 18 2 18h1.5 1.5l1-1 1-1 .5 2 .5 2 1.5.5 1.5.5 1.5-.5 1.5-.5v-1.5-1.5l.5-1 .5-1 21.5-4 21.5-4 2.5-1 2.5-1 1.5.5 1.5.5 1.5 1 1.5 1 1.5.5 1.5.5" style="fill:#7d8984;stroke:#7d8984" />
        <path d="m460 406l1-1-21.5 4-21.5 4 18.5-3 18.5-3 2.5-.5 2.5-.5" style="fill:#929d89;stroke:#929d89" />
        <path d="m459 415l-48 13-11 13-11 13v1.5 1.5l-.5 1.5-.5 1.5v2.5 2.5l-.5.5-.5.5-.5 1-.5 1 .5 1.5.5 1.5-.5.5-.5.5v1 1l-.5 1.5-.5 1.5.5 1.5.5 1.5-.5 1.5-.5 1.5.5.5.5.5-1 .5-1 .5.5 1.5.5 1.5v1 1l1 .5 1 .5 1-1 1-1 11.5-15 11.5-15-4 19.5-4 19.5h-.5-.5l-.5 1.5-.5 1.5v1.5 1.5l-.5 1-.5 1 11-14.5 11-14.5-.5-1.5-.5-1.5v-2-2-1.5-1.5l1-1 1-1 1.5-1 1.5-1h1 1 2 2l1 1.5 1 1.5v1 1 1.5 1.5 1 1l.5 1.5.5 1.5v1 1l-.5 1-.5 1 .5 1.5.5 1.5.5.5.5.5.5 1 .5 1 1 2 1 2 6-21 6-21 .5-2 .5-2 .5-1.5.5-1.5v-2.5-2.5l.5-1.5.5-1.5.5-1.5.5-1.5v-2.5-2.5-2-2l1-1 1-1 .5-1 .5-1v-1-1" style="fill:#762f23;stroke:#762f23" />
        <path d="m459 408l-1-1h-1.5-1.5l-18.5 3-18.5 3-.5 1-.5 1v1.5 1.5l-1.5.5-1.5.5-1.5-.5-1.5-.5-.5-2-.5-2-1 1-1 1h-1.5-1.5l-1 1-1 1-.5 1.5-.5 1.5v.5.5l.5 1.5.5 1.5 1.5 1 1.5 1-.5 1.5-.5 1.5-1 .5-1 .5 28-11.5 28-11.5" style="fill:#927758;stroke:#927758" />
        <path d="m451 499l-1-2h-1-1l-1-1.5-1-1.5-1 1-1 1 1 1.5 1 1.5-1 1-1 1-2-.5-2-.5-1-1-1-1v-1-1l.5-2 .5-2 .5-1 .5-1-1-2-1-2-.5-1-.5-1-.5-.5-.5-.5-.5-1.5-.5-1.5.5-1 .5-1v-1-1l-.5-1.5-.5-1.5v-1-1-1.5-1.5-1-1l-1-1.5-1-1.5-.5 1.5-.5 1.5.5 1.5.5 1.5-.5 2-.5 2 .5 1.5.5 1.5v1 1l-1.5 1-1.5 1-1-1-1-1 1.5-1 1.5-1h-2-2l-1-.5-1-.5-1 1-1 1-11 14.5-11 14.5-2-.5-2-.5-.5-.5-.5-.5-.5-1-.5-1v-2-2l.5-.5.5-.5.5-1 .5-1 1-1 1-1 .5-.5.5-.5 1 .5 1 .5.5 1.5.5 1.5.5 1 .5 1 4-19.5 4-19.5-11.5 15-11.5 15v1 1l-5.5 17-5.5 17-2.5 30.5-2.5 30.5.5 1.5.5 1.5-.5.5-.5.5v1 1 1 1l-7.5 27.5-7.5 27.5 9-20 9-20 4.5-16.5 4.5-16.5 12.5-14 12.5-14 12-12 12-12 8.5-12.5 8.5-12.5" style="fill:#3b240e;stroke:#3b240e" />
        <path d="m433 478v-2l-.5-1.5-.5-1.5.5-2 .5-2-.5-1.5-.5-1.5.5-1.5.5-1.5h-2-2-1-1l-1.5 1-1.5 1-1 1-1 1v1.5 1.5 2 2l.5 1.5.5 1.5 1-1 1-1 1 .5 1 .5h2 2l-1.5 1-1.5 1 1 1 1 1 1.5-1 1.5-1" style="fill:#333329;stroke:#333329" />
        <path d="m430 565l-20 9-3.5 12-3.5 12-4.5 13.5-4.5 13.5-7 13.5-7 13.5-7 10.5-7 10.5-1.5 19.5-1.5 19.5h26.5 26.5 3 3l1-27 1-27v-16.5-16.5l-1.5-12-1.5-12 4.5-18 4.5-18" style="fill:#3b240e;stroke:#3b240e" />
        <path d="m405 430l1-3-1.5-1-1.5-1-.5-1.5-.5-1.5v-.5-.5l.5-1.5.5-1.5 1-1 1-1-2-18-2-18-2.5-14.5-2.5-14.5-3-14.5-3-14.5-6-1.5-6-1.5-9 5.5-9 5.5-3.5 7.5-3.5 7.5-1-6.5-1-6.5-9.5 5-9.5 5-5.5-4-5.5-4-7-5-7-5-3.5-2-3.5-2-9-16.5-9-16.5-5.5-15-5.5-15 7.5-16 7.5-16-1.5-21.5-1.5-21.5h-.5-.5l2 27 2 27-12.5 19-12.5 19 1 2 1 2 1.5 1.5 1.5 1.5 11 11 11 11 6 18.5 6 18.5 7 20.5 7 20.5v.5.5l1 .5 1 .5 1.5 1 1.5 1 1.5.5 1.5.5 1-.5 1-.5 1.5 1 1.5 1 1.5.5 1.5.5v1.5 1.5l.5.5.5.5 1.5.5 1.5.5h1 1v1 1 .5.5l5 8 5 8 2 6.5 2 6.5 11 16.5 11 16.5-1 .5-1 .5-.5-.5-.5-.5-.5.5-.5.5-1-.5-1-.5-.5.5-.5.5h-1-1l-.5.5-.5.5-.5 1-.5 1-.5 1.5-.5 1.5.5 1.5.5 1.5.5-1.5.5-1.5 1.5.5 1.5.5 1-1.5 1-1.5 1.5-.5 1.5-.5 1.5-1 1.5-1 1.5-.5 1.5-.5 1.5-1 1.5-1 12-13 12-13 1-.5 1-.5" style="fill:#6b7368;stroke:#6b7368" />
        <g style="fill:#56432c;stroke:#56432c">
            <path d="m403 498h1l-.5-1-.5-1-.5-1.5-.5-1.5-1-.5-1-.5-.5.5-.5.5-1 1-1 1-.5 1-.5 1-.5.5-.5.5v2 2l.5 1 .5 1 .5.5.5.5 2 .5 2 .5.5-1 .5-1v-1.5-1.5l.5-1.5.5-1.5" />
            <path d="m389 491v-2l-1 1-1 1-1-.5-1-.5v-1-1l-.5-1.5-.5-1.5 1-.5 1-.5-.5-.5-.5-.5.5-1.5.5-1.5-.5-1.5-.5-1.5-13 3-13 3-5 6.5-5 6.5-12.5 5.5-12.5 5.5-.5.5-.5.5v2 2l6 20.5 6 20.5 4.5 2 4.5 2 3-6.5 3-6.5 6.5 6.5 6.5 6.5 5 14.5 5 14.5 2.5-30.5 2.5-30.5 5.5-17 5.5-17" />
        </g>
        <path d="m388 460l1-3v-1.5-1.5l-.5 1-.5 1-.5 1-.5 1v2 2l-.5 1-.5 1-13 .5-13 .5-7-3.5-7-3.5-5.5-6-5.5-6-5-18.5-5-18.5-.5.5-.5.5 6.5 12.5 6.5 12.5-10 14.5-10 14.5-.5 1-.5 1-.5.5-.5.5h-1.5-1.5l-1 1-1 1v1 1l.5 1 .5 1 6.5 17 6.5 17 12.5-5.5 12.5-5.5 5-6.5 5-6.5 13-3 13-3 .5-1.5.5-1.5v-1-1l.5-.5.5-.5-.5-1.5-.5-1.5.5-1 .5-1 .5-.5.5-.5v-2.5-2.5" style="fill:#575649;stroke:#575649" />
        <path d="m387 458l1-2-2-.5-2-.5.5-1 .5-1 .5-.5.5-.5.5-.5.5-.5v-1-1h-.5-.5-1-1v1 1l-.5.5-.5.5v1.5 1.5 1 1l-.5.5-.5.5-.5.5-.5.5-1-1-1-1-1.5 1-1.5 1-1.5.5-1.5.5-1.5 1-1.5 1-1.5.5-1.5.5-1 1.5-1 1.5-1.5-.5-1.5-.5-.5 1.5-.5 1.5 1.5 1 1.5 1 1-1 1-1h1.5 1.5l1.5-.5 1.5-.5 2 .5 2 .5.5-.5.5-.5 2-.5 2-.5 1-1 1-1 2-1 2-1v-2-2" style="fill:#927758;stroke:#927758" />
        <path d="m386 464l1-2-2 1-2 1-1 1-1 1-2 .5-2 .5-.5.5-.5.5-2-.5-2-.5-1.5.5-1.5.5h-1.5-1.5l-1 1-1 1-1.5-1-1.5-1-.5-1.5-.5-1.5 13-.5 13-.5" style="fill:#72654b;stroke:#72654b" />
        <path d="m373 594v-2-1-1l.5-.5.5-.5-.5-1.5-.5-1.5-5-14.5-5-14.5-6.5-6.5-6.5-6.5-3 6.5-3 6.5-4.5-2-4.5-2-6-20.5-6-20.5-6-19.5-6-19.5-.5-1-.5-1v-1-1l1-1 1-1h1.5 1.5l.5-.5.5-.5.5-1 .5-1 4-9 4-9-1.5-6-1.5-6-2-5.5-2-5.5-12.5-15.5-12.5-15.5-5.5-5.5-5.5-5.5-7-3-7-3-5-6.5-5-6.5-14.5-5-14.5-5-5-1.5-5-1.5-5.5 17.5-5.5 17.5-5-4.5-5-4.5-7 17.5-7 17.5-6 15.5-6 15.5-3 6-3 6 19.5-2 19.5-2 20.5-3 20.5-3 20-7 20-7 11.5 8 11.5 8h-.5-.5l-1 1-1 1-1.5.5-1.5.5-1.5 1-1.5 1-1.5-.5-1.5-.5-2-.5-2-.5h-1.5-1.5l-7 3-7 3-15.5 3.5-15.5 3.5-18 5.5-18 5.5-16 2.5-16 2.5-15 1.5-15 1.5-11 5-11 5 2.5 8 2.5 8 18.5-2 18.5-2-5 18.5-5 18.5-3.5 19.5-3.5 19.5-1 10.5-1 10.5-8.5 4-8.5 4-4.5 12-4.5 12-6-3-6-3 6 5.5 6 5.5-9.5 11-9.5 11 1 1 1 1v1 1l.5.5.5.5.5.5.5.5h1.5 1.5v1 1l-.5.5-.5.5-.5.5-.5.5-1 .5-1 .5v1 1h1 1l.5.5.5.5-12 1.5-12 1.5 8.5 6.5 8.5 6.5-9.5 2-9.5 2 .5 10 .5 10h26.5 26.5 5 5l2-31 2-31 1.5-17.5 1.5-17.5 1.5-18 1.5-18 2.5-13 2.5-13 1.5-13 1.5-13 7-13.5 7-13.5 15-3.5 15-3.5 13-3.5 13-3.5 17-4.5 17-4.5 10.5 2.5 10.5 2.5 11.5 8 11.5 8-5 6.5-5 6.5 7 .5 7 .5 6.5 17 6.5 17 4.5 19 4.5 19 4.5 19 4.5 19 .5-1.5.5-1.5v-1.5-1.5l1-1 1-1h1 1v1.5 1.5 1 1h1 1l.5 1 .5 1 .5 1 .5 1-1 1-1 1v1 1l-.5.5-.5.5-.5-1-.5-1-1.5-1.5-1.5-1.5 4 13 4 13 7.5-27.5 7.5-27.5" style="fill:#333329;stroke:#333329" />
        <path d="m372 458l-22-33-2-6.5-2-6.5-5-8-5-8-.5 1.5-.5 1.5.5 1 .5 1-1 1-1 1 .5.5.5.5-.5 1-.5 1-1 1-1 1h-1-1l-.5-.5-.5-.5v-1-1l.5-1 .5-1v-1-1l.5-.5.5-.5v-1-1-.5-.5-2.5-2.5l-.5-.5-.5-.5h-.5-.5l-1 1.5-1 1.5v1 1 1 1 1 1l-1 .5-1 .5-.5.5-.5.5v1 1l-.5.5-.5.5h-.5-.5l-.5-1.5-.5-1.5v-1-1-1-1-1-1-1.5-1.5-1-1l-.5-.5-.5-.5v-1-1l1-1 1-1-1.5-.5-1.5-.5-.5 1-.5 1-.5 1-.5 1-.5.5-.5.5.5.5.5.5.5.5.5.5v1 1l-9-4-9-4h-1-1l-.5 1-.5 1-1 1.5-1 1.5v.5.5l1 .5 1 .5v1.5 1.5l.5 1.5.5 1.5.5.5.5.5v1.5 1.5l.5 1.5.5 1.5v1 1 .5.5l.5 1.5.5 1.5v1 1l-2 .5-2 .5v2.5 2.5l1.5-.5 1.5-.5 1.5 1 1.5 1 .5 2.5.5 2.5 10.5-8.5 10.5-8.5 5 18.5 5 18.5 5.5 6 5.5 6 7 3.5 7 3.5.5-1.5.5-1.5.5-1 .5-1 .5-.5.5-.5h1 1l.5-.5.5-.5 1 .5 1 .5.5-.5.5-.5.5.5.5.5 1-.5 1-.5" style="fill:#72654b;stroke:#72654b" />
        <path d="m365 156l-15-6-1.5 7-1.5 7 9-4 9-4" style="fill:#a4b49f;stroke:#a4b49f" />
        <path d="m357 623l-1-2-.5-1-.5-1h-1-1v-1-1-1.5-1.5h-1-1l-1 1-1 1v1.5 1.5l-.5 1.5-.5 1.5 1 .5 1 .5 1.5 1.5 1.5 1.5.5 1 .5 1 .5-.5.5-.5v-1-1l1-1 1-1" style="fill:#3b240e;stroke:#3b240e" />
        <path d="m337 435l-13-25-10 8-10 8-.5-2.5-.5-2.5-1.5-1-1.5-1-1.5.5-1.5.5h-1.5-1.5v-1-1-1.5-1.5-1-1-1-1l1-.5 1-.5 1.5-.5 1.5-.5v-1-1l-.5-1-.5-1v-2-2l-1-1.5-1-1.5-.5-1.5-.5-1.5v-1.5-1.5-.5-.5l-1 .5-1 .5 12.5 15.5 12.5 15.5 2 5.5 2 5.5 1.5 6 1.5 6-4 9-4 9 10-14.5 10-14.5" style="fill:#56432c;stroke:#56432c" />
        <g style="fill:#927758;stroke:#927758">
            <path d="m336 395v-2h-1-1l-1.5-.5-1.5-.5v2.5 2.5.5.5 1 1l-.5.5-.5.5v1 1l-.5 1-.5 1v1 1l.5.5.5.5h1 1l1-1 1-1 .5-1 .5-1-.5-.5-.5-.5 1-1 1-1-.5-1-.5-1 .5-1.5.5-1.5v-.5-.5" />
            <path d="m329 391h1v-1.5-1.5l-1.5-.5-1.5-.5-1.5-1-1.5-1-1 .5-1 .5-1 1-1 1v1 1l.5.5.5.5v1 1 1.5 1.5 1 1 1 1 1 1l.5 1.5.5 1.5h.5.5l.5-.5.5-.5v-1-1l.5-.5.5-.5 1-.5 1-.5v-1-1-1-1-1-1l1-1.5 1-1.5" />
        </g>
        <path d="m327 234l-2-1h-2-2l1 1.5 1 1.5v1 1l-2 .5-2 .5.5 1.5.5 1.5v2 2l1.5 1 1.5 1 1-1 1-1-.5-2-.5-2-.5-.5-.5-.5 1-1 1-1 .5-1 .5-1 .5-1.5.5-1.5" style="fill:#7d8984;stroke:#7d8984" />
        <path d="m324 410l1-1-10.5 8.5-10.5 8.5 10-8 10-8" style="fill:#6f542f;stroke:#6f542f" />
        <path d="m323 508l1-1-6.5-17-6.5-17 6 19.5 6 19.5v-2-2" style="fill:#3d4441;stroke:#3d4441" />
        <path d="m318 394v-2l-.5-.5-.5-.5-.5-.5-.5-.5.5-.5.5-.5.5-1 .5-1 .5-1 .5-1-1.5-1-1.5-1-1-.5-1-.5-1 .5-1 .5-1.5.5-1.5.5-1.5.5-1.5.5-1.5-.5-1.5-.5-1.5 1-1.5 1 9 4 9 4" style="fill:#927758;stroke:#927758" />
        <path d="m314 381l-14-41-6-18.5-6-18.5-11-11-11-11 8 17 8 17 12 29 12 29-1 1-1 1-.5.5-.5.5.5.5.5.5h1 1v1 1l-.5 1-.5 1-.5.5-.5.5-.5.5-.5.5h-1-1l-1 .5-1 .5-.5 1-.5 1h1 1l1.5-1 1.5-1 1.5.5 1.5.5 1.5-.5 1.5-.5 1.5-.5 1.5-.5 1-.5 1-.5v-.5-.5" style="fill:#575649;stroke:#575649" />
        <path d="m310 139l1-2v-1.5-1.5l-.5 2.5-.5 2.5" style="fill:#a4b49f;stroke:#a4b49f" />
        <path d="m309 445l-23-16v.5.5l2-.5 2-.5 1.5.5 1.5.5.5 2 .5 2 .5 1.5.5 1.5.5.5.5.5-.5 2-.5 2 .5.5.5.5-1 .5-1 .5-2 .5-2 .5v1.5 1.5h1.5 1.5l2 .5 2 .5 1.5.5 1.5.5 1.5-1 1.5-1 1.5-.5 1.5-.5 1-1 1-1h.5.5" style="fill:#56432c;stroke:#56432c" />
        <path d="m306 373l-24-58-8-17-8-17-1.5-1.5-1.5-1.5-1-2-1-2 2-10 2-10-9-2-9-2-7.5-11-7.5-11 8-13.5 8-13.5 13.5-10 13.5-10-10.5-2.5-10.5-2.5-13.5-4-13.5-4-10-.5-10-.5-8.5 1-8.5 1-7 5-7 5 2 3.5 2 3.5-11.5 7-11.5 7-7 18.5-7 18.5-5.5 19.5-5.5 19.5 9 11.5 9 11.5 18.5 1 18.5 1 9 13.5 9 13.5 4.5 12.5 4.5 12.5-7-4.5-7-4.5-9-7.5-9-7.5-5.5 8-5.5 8-6.5 6.5-6.5 6.5-2.5 12-2.5 12-4 12.5-4 12.5 3 9.5 3 9.5-4.5 10.5-4.5 10.5-13 9.5-13 9.5-6 2.5-6 2.5-8.5 4-8.5 4-7.5 6.5-7.5 6.5-4.5 7-4.5 7-1 9.5-1 9.5-1.5 12-1.5 12-4.5 9.5-4.5 9.5 4 6.5 4 6.5 1.5 6 1.5 6-7-2.5-7-2.5 6.5 14.5 6.5 14.5 1.5-1 1.5-1-.5-1.5-.5-1.5v-1-1l.5.5.5.5v1 1l1-.5 1-.5.5-1.5.5-1.5.5-.5.5-.5.5-1 .5-1v1 1 1 1l1 .5 1 .5 1-1 1-1v1 1l-1 1-1 1-1 .5-1 .5.5 1.5.5 1.5-.5.5-.5.5h-1-1-1-1l-1 .5-1 .5v1 1h1 1 1 1l1 .5 1 .5v1 1l-.5-.5-.5-.5-.5-.5-.5-.5h-1.5-1.5l-2.5.5-2.5.5-3 8-3 8v1 1 1 1l1.5 1 1.5 1 1-1 1-1v1 1l-1.5 1-1.5 1 .5 1.5.5 1.5-1 1-1 1-1.5 2-1.5 2 7.5 1.5 7.5 1.5 10.5-1.5 10.5-1.5 3-13 3-13-5.5 5-5.5 5 7 6 7 6 1.5.5 1.5.5 1-2 1-2-1.5-.5-1.5-.5-.5-1.5-.5-1.5 1.5-1 1.5-1-1-1-1-1 1-1.5 1-1.5 1-1 1-1 1.5 1 1.5 1 1 1 1 1-.5 1.5-.5 1.5-1 .5-1 .5 1 1.5 1 1.5-1 1-1 1-.5 1-.5 1 1.5.5 1.5.5v1 1l-.5 2-.5 2 9.5-11 9.5-11-6-5.5-6-5.5 6 3 6 3 4.5-12 4.5-12 8.5-4 8.5-4 1-10.5 1-10.5 3.5-19.5 3.5-19.5 5-18.5 5-18.5-18.5 2-18.5 2-2.5-8-2.5-8 11-5 11-5 15-1.5 15-1.5 16-2.5 16-2.5 18-5.5 18-5.5 15.5-3.5 15.5-3.5 7-3 7-3v-1.5-1.5l-16 3-16 3-19.5 6-19.5 6-15 1.5-15 1.5-11 1.5-11 1.5 1.5-7 1.5-7 19.5-2 19.5-2 38.5-10.5 38.5-10.5v-.5-.5l-20 7-20 7-20.5 3-20.5 3-19.5 2-19.5 2 3-6 3-6 6-15.5 6-15.5 7-17.5 7-17.5 5 4.5 5 4.5 5.5-17.5 5.5-17.5 5 1.5 5 1.5 14.5 5 14.5 5 5 6.5 5 6.5 7 3 7 3 5.5 5.5 5.5 5.5 1-.5 1-.5 1-1.5 1-1.5.5-1 .5-1 .5-1 .5-1 1-.5 1-.5h1 1l.5-.5.5-.5.5-.5.5-.5.5-1 .5-1v-1-1h-1-1l-.5-.5-.5-.5.5-.5.5-.5 1-1 1-1" style="fill:#3d4441;stroke:#3d4441" />
        <path d="m301 414v-2l-.5-1.5-.5-1.5v-.5-.5-1-1l-.5-1.5-.5-1.5v-1.5-1.5l-.5-.5-.5-.5-.5-1.5-.5-1.5v-1.5-1.5l-1-.5-1-.5v1.5 1.5l.5 1.5.5 1.5 1 1.5 1 1.5v2 2l.5 1 .5 1v1 1l-1.5.5-1.5.5-1 .5-1 .5v1 1 1 1 1.5 1.5 1 1h1.5 1.5v-2.5-2.5l2-.5 2-.5" style="fill:#6f542f;stroke:#6f542f" />
        <g style="fill:#575649;stroke:#575649">
            <path d="m296 438l-1-1-.5-1.5-.5-1.5-.5-2-.5-2-1.5-.5-1.5-.5-2 .5-2 .5-38.5 10.5-38.5 10.5-19.5 2-19.5 2-1.5 7-1.5 7 11-1.5 11-1.5 15-1.5 15-1.5 19.5-6 19.5-6 16-3 16-3 2-.5 2-.5 1-.5 1-.5-.5-.5-.5-.5.5-2 .5-2" />
            <path d="m286 236l-4-54 .5-1 .5-1-.5-1.5-.5-1.5h-.5-.5l-.5-.5-.5-.5-.5-2-.5-2v-1-1l-.5-1-.5-1v-1-1l-1-1-1-1v-.5-.5l-29-12.5-29-12.5 1.5 1 1.5 1-.5 1.5-.5 1.5-.5.5-.5.5-.5-1-.5-1-1.5.5-1.5.5v1 1l.5.5.5.5.5.5.5.5.5-1 .5-1 .5.5.5.5h1 1l.5-.5.5-.5.5.5.5.5-7.5 2.5-7.5 2.5 2-6.5 2-6.5-1 .5-1 .5-1-1-1-1-1 1.5-1 1.5-1.5.5-1.5.5-1.5.5-1.5.5-2 .5-2 .5-1 1-1 1-1.5 1-1.5 1-1.5.5-1.5.5-1.5 1-1.5 1-2 .5-2 .5-7 10.5-7 10.5-6.5 13-6.5 13-7 17.5-7 17.5-5 20.5-5 20.5 8 13.5 8 13.5 23 9 23 9-17 4-17 4-3.5 6-3.5 6-6.5 7-6.5 7-4 13-4 13-3.5-4-3.5-4 .5-5 .5-5-5.5 5-5.5 5-14.5 4.5-14.5 4.5-4.5 4-4.5 4-6.5 2-6.5 2-2 8.5-2 8.5-12.5 14-12.5 14v2.5 2.5l1.5-.5 1.5-.5 1.5.5 1.5.5v1.5 1.5l-1.5.5-1.5.5 1 1.5 1 1.5-1 1-1 1 .5 1 .5 1h1 1v1 1l-3.5 6.5-3.5 6.5-1 8.5-1 8.5-7 1.5-7 1.5-8 5-8 5v2 2l1.5 1 1.5 1h1 1v-1-1l1-.5 1-.5 1 1 1 1-.5 1.5-.5 1.5v1 1l-.5 2-.5 2 .5 1.5.5 1.5 1.5.5 1.5.5-.5.5-.5.5v1.5 1.5 1.5 1.5h-1-1l-1 1-1 1-1.5-1-1.5-1v-1-1l.5-1 .5-1-.5-1.5-.5-1.5-.5-1-.5-1h-1-1v2 2 2 2 2.5 2.5 1.5 1.5h1.5 1.5 1.5 1.5l1.5-.5 1.5-.5h1 1 1 1l.5.5.5.5-.5 1.5-.5 1.5-1 .5-1 .5h-1-1l-1-.5-1-.5-.5.5-.5.5v1 1l.5.5.5.5.5 1 .5 1-.5.5-.5.5-.5-.5-.5-.5-.5-.5-.5-.5-.5-1-.5-1v-2-2l-.5-.5-.5-.5-1.5.5-1.5.5v26 26 26.5 26.5 26.5 26.5 11 11h15.5 15.5 5 5l-5-11.5-5-11.5v-9.5-9.5l6-7.5 6-7.5 3 .5 3 .5 1.5-2 1.5-2-1-.5-1-.5-.5-.5-.5-.5-.5-.5-.5-.5h-1.5-1.5v-1-1l.5-.5.5-.5v-1-1-1-1l.5-1 .5-1h1 1l.5.5.5.5.5-1 .5-1 3-8 3-8-1-1-1-1-1-1-1-1 1-1 1-1 1 .5 1 .5 1-.5 1-.5-6.5-14.5-6.5-14.5 7 2.5 7 2.5-1.5-6-1.5-6-4-6.5-4-6.5 4.5-9.5 4.5-9.5 1.5-12 1.5-12 1-9.5 1-9.5 4.5-7 4.5-7 7.5-6.5 7.5-6.5 8.5-4 8.5-4 6-2.5 6-2.5 13-9.5 13-9.5 4.5-10.5 4.5-10.5-3-9.5-3-9.5 4-12.5 4-12.5 2.5-12 2.5-12 6.5-6.5 6.5-6.5 5.5-8 5.5-8 9 7.5 9 7.5 7 4.5 7 4.5-4.5-12.5-4.5-12.5-9-13.5-9-13.5-18.5-1-18.5-1-9-11.5-9-11.5 5.5-19.5 5.5-19.5 7-18.5 7-18.5 11.5-7 11.5-7-2-3.5-2-3.5 7-5 7-5 8.5-1 8.5-1 10 .5 10 .5 13.5 4 13.5 4 10.5 2.5 10.5 2.5-13.5 10-13.5 10-8 13.5-8 13.5 7.5 11 7.5 11 9 2 9 2-2 10-2 10 12.5-19 12.5-19" />
        </g>
        <path d="m284 181l1-3v-2-2l-1.5-1-1.5-1-.5-1.5-.5-1.5-1-1.5-1-1.5-1-1.5-1-1.5h-.5-.5v.5.5l1 1 1 1v1 1l.5 1 .5 1v1 1l.5 2 .5 2 .5.5.5.5h.5.5l.5 1.5.5 1.5-.5 1-.5 1h.5.5l.5-.5.5-.5" style="fill:#406167;stroke:#406167" />
        <path d="m278 323l-14-19-8-12.5-8-12.5-10.5 2-10.5 2 3 4 3 4 5.5 7 5.5 7-7.5-1-7.5-1-5.5-8-5.5-8-5-6-5-6-4.5 10-4.5 10 3 9.5 3 9.5 7.5 10 7.5 10 16.5-2.5 16.5-2.5h11.5 11.5l1-3 1-3" style="fill:#333329;stroke:#333329" />
        <g style="fill:#6b7368;stroke:#6b7368">
            <path d="m276 163h1l-30-14-30-14-18 8-18 8 2-.5 2-.5 1.5-1 1.5-1 1.5-.5 1.5-.5 1.5-1 1.5-1 1-1 1-1 2-.5 2-.5 1.5-.5 1.5-.5 1.5-.5 1.5-.5 1-1.5 1-1.5 1 1 1 1 1-.5 1-.5 1-.5 1-.5v.5.5h1.5 1.5.5.5l29 12.5 29 12.5" />
            <path d="m260 355l-19-28-4 13-4 13 6.5 2 6.5 2-1.5.5-1.5.5-1.5-.5-1.5-.5-1-.5-1-.5v1 1l-1.5-.5-1.5-.5-1-2-1-2 .5 1 .5 1 .5 2 .5 2 .5 1.5.5 1.5 2-.5 2-.5 1.5-.5 1.5-.5h2.5 2.5l1.5-.5 1.5-.5 1.5-.5 1.5-.5 2-.5 2-.5 1-1 1-1" />
        </g>
        <g style="fill:#7d8984;stroke:#7d8984">
            <path d="m255 351l1-3-1.5-.5-1.5-.5-.5-2-.5-2-1.5-.5-1.5-.5v2.5 2.5l-1 1-1 1 .5 2 .5 2 1 1 1 1h2 2l.5-2 .5-2" />
            <path d="m246 357l-13-4 1 2 1 2 1.5.5 1.5.5v-1-1l1 .5 1 .5 1.5.5 1.5.5 1.5-.5 1.5-.5" />
        </g>
        <path d="m223 146l-1-1-.5.5-.5.5h-1-1l-.5-.5-.5-.5-.5 1-.5 1-.5-.5-.5-.5-.5-.5-.5-.5v-1-1l1.5-.5 1.5-.5.5 1 .5 1 .5-.5.5-.5.5-1.5.5-1.5-1.5-1-1.5-1h-.5-.5-1.5-1.5v-.5-.5l-1 .5-1 .5-2 6.5-2 6.5 7.5-2.5 7.5-2.5" style="fill:#406167;stroke:#406167" />
        <path d="m198 437l-12-11-3 10.5-3 10.5 9-5 9-5" style="fill:#1c1a12;stroke:#1c1a12" />
        <path d="m197 100l-13-4 6 4.5 6 4.5.5-2.5.5-2.5" style="fill:#929d89;stroke:#929d89" />
        <path d="m192 319l-46-18-8-13.5-8-13.5 5-20.5 5-20.5 7-17.5 7-17.5 6.5-13 6.5-13 7-10.5 7-10.5-13 22-13 22-8 16.5-8 16.5-7.5 13-7.5 13-10 .5-10 .5-11.5 1-11.5 1-2 5.5-2 5.5-4.5 4-4.5 4-6-.5-6-.5-7.5 9-7.5 9-.5 3-.5 3-5.5 7-5.5 7-14.5 1.5-14.5 1.5v2.5 2.5l1-1 1-1v-1-1h1.5 1.5 1 1l1.5 1 1.5 1 1 1 1 1v1 1l-6 3.5-6 3.5v27 27 26.5 26.5 23.5 23.5l6.5-10 6.5-10 10-13.5 10-13.5 12.5-14 12.5-14 2-8.5 2-8.5 6.5-2 6.5-2 4.5-4 4.5-4 14.5-4.5 14.5-4.5 5.5-5 5.5-5-.5 5-.5 5 3.5 4 3.5 4 4-13 4-13 6.5-7 6.5-7 3.5-6 3.5-6 17-4 17-4" style="fill:#6b7368;stroke:#6b7368" />
        <path d="m165 308h-29l1.5 6 1.5 6 13-6 13-6" style="fill:#7d8984;stroke:#7d8984" />
        <path d="m138 3l-34-3h-26-26-26-26v.5.5 26.5 26.5 27 27 26.5 26.5 16 16l5.5-.5 5.5-.5 4.5-8 4.5-8 9.5-7 9.5-7 9-9 9-9 6.5-6 6.5-6 6-4.5 6-4.5 7.5-7 7.5-7 1-.5 1-.5-1.5-1-1.5-1-1-1-1-1 1-.5 1-.5v1 1l1.5-.5 1.5-.5 4.5-2.5 4.5-2.5 4.5-4 4.5-4-3-10-3-10 2-8.5 2-8.5 2.5-9 2.5-9h-.5-.5l-4.5 6.5-4.5 6.5-.5-9.5-.5-9.5 2.5-1 2.5-1h-1-1l-.5.5-.5.5-1 .5-1 .5 5.5 3 5.5 3 9-16.5 9-16.5" style="fill:#96a7c4;stroke:#96a7c4" />
        <g style="fill:#a4b49f;stroke:#a4b49f">
            <path d="m119 36h1l-5.5-3-5.5-3 .5 9.5.5 9.5 4.5-6.5 4.5-6.5" />
            <path d="m114 28l-5 2 1-.5 1-.5.5-.5.5-.5h1 1" />
        </g>
        <g style="fill:#56432c;stroke:#56432c">
            <path d="m109 672l-1-1h-1-1v-1-1l1-.5 1-.5.5-.5.5-.5.5-.5.5-.5v-1-1h-1.5-1.5l-.5-.5-.5-.5-.5-.5-.5-.5v-1-1l-1-1-1-1-1 1.5-1 1.5.5 1.5.5 1.5-2 .5-2 .5.5-1.5.5-1.5-1-1.5-1-1.5v-1-1l-1-.5-1-.5-1-1-1-1 .5-1 .5-1-7-6-7-6 5.5-5 5.5-5-3 13-3 13-10.5 1.5-10.5 1.5-7.5-1.5-7.5-1.5-3-.5-3-.5-6 7.5-6 7.5v9.5 9.5l5 11.5 5 11.5h2 2 2 2 2.5 2.5 2 2 2.5 2.5 2 2 2.5 2.5 2 2 2 2 2 2l-.5-10-.5-10 9.5-2 9.5-2-8.5-6.5-8.5-6.5 12-1.5 12-1.5" />
            <path d="m105 613h-17l2.5 7 2.5 7 4.5 3 4.5 3 1.5-10 1.5-10" />
        </g>
        <path d="m104 654v-2l-1.5-.5-1.5-.5-.5 2-.5 2h-1-1l-.5-1-.5-1-1.5-.5-1.5-.5-.5 1-.5 1 1 1 1 1 1 .5 1 .5v1 1l1 1.5 1 1.5-.5 1.5-.5 1.5 2-.5 2-.5-.5-1.5-.5-1.5 1-1.5 1-1.5.5-2 .5-2" style="fill:#333329;stroke:#333329" />
        <path d="m104 643l1-3-1-1-1-1-1.5-1-1.5-1-1 1-1 1-1 1.5-1 1.5 1 1 1 1-1.5 1-1.5 1 .5 1.5.5 1.5 1.5.5 1.5.5-1 2-1 2 .5 1 .5 1h1 1l.5-2 .5-2 .5-1 .5-1 1-1 1-1-1-1.5-1-1.5 1-.5 1-.5" style="fill:#56432c;stroke:#56432c" />
        <path d="m104 118v-2l-1.5-.5-1.5-.5v-1.5-1.5-1-1l1-1 1-1v-.5-.5h-1-1l-.5-.5-.5-.5-.5-1-.5-1-1.5.5-1.5.5v-1-1l-1 .5-1 .5 1 1 1 1 1.5 1 1.5 1-1 .5-1 .5.5 1 .5 1-.5 1-.5 1 1 1 1 1-.5 1-.5 1v1 1l1-1 1-1 2 .5 2 .5" style="fill:#a4b49f;stroke:#a4b49f" />
        <g style="fill:#56432c;stroke:#56432c">
            <path d="m71 611v-2l-1 1-1 1-1-.5-1-.5v-1-1-1-1l-.5 1-.5 1-.5.5-.5.5-.5 1.5-.5 1.5-1 .5-1 .5v-1-1l-.5-.5-.5-.5v1 1l.5 1.5.5 1.5-1.5 1-1.5 1-1 .5-1 .5-1-.5-1-.5-1 1-1 1 1 1 1 1 1 1 1 1 2.5-.5 2.5-.5h1.5 1.5l.5.5.5.5.5.5.5.5v-1-1l-1-.5-1-.5h-1-1-1-1v-1-1l1-.5 1-.5h1 1 1 1l.5-.5.5-.5-.5-1.5-.5-1.5 1-.5 1-.5 1-1 1-1" />
            <path d="m56 645v-2l-1 1-1 1-1.5-1-1.5-1v-1-1-1-1l-.5 1-.5 1-.5-.5-.5-.5h-1-1l-.5 1-.5 1v1 1 1 1l-.5.5-.5.5v1 1h1.5 1.5l.5.5.5.5.5.5.5.5 1 .5 1 .5 1-1 1-1-.5-1.5-.5-1.5 1.5-1 1.5-1" />
        </g>
        <g style="fill:#72654b;stroke:#72654b">
            <path d="m39 455v-2h-1-1l-.5-1-.5-1 1-1 1-1-1-1.5-1-1.5 1.5-.5 1.5-.5v-1.5-1.5l-1.5-.5-1.5-.5-1.5.5-1.5.5v-2.5-2.5l-10 13.5-10 13.5-6.5 10-6.5 10v3 3 2.5 2.5 1.5 1.5l8-5 8-5 7-1.5 7-1.5 1-8.5 1-8.5 3.5-6.5 3.5-6.5" />
            <path d="m13 533l1-3-.5-.5-.5-.5h-1-1-1-1l-1.5.5-1.5.5h-1.5-1.5-1.5-1.5v1 1l1.5-.5 1.5-.5.5.5.5.5v2 2l.5 1 .5 1 .5.5.5.5.5.5.5.5.5-.5.5-.5-.5-1-.5-1-.5-.5-.5-.5v-1-1l.5-.5.5-.5 1 .5 1 .5h1 1l1-.5 1-.5" />
        </g>
        <path d="m12 323v-2l-1-1-1-1-1.5-1-1.5-1h-1-1-1.5-1.5v1 1l-1 1-1 1v2.5 2.5 2 2l6-3.5 6-3.5" style="fill:#7d8984;stroke:#7d8984" />
        <path d="m10 523v-3-1.5-1.5l.5-.5.5-.5-1.5-.5-1.5-.5-.5-1.5-.5-1.5.5-2 .5-2-1 .5-1 .5-.5 1-.5 1 .5.5.5.5-.5 1-.5 1h-1.5-1.5l.5 1 .5 1 .5 1.5.5 1.5-.5 1-.5 1v1 1l1.5 1 1.5 1 1-1 1-1h1 1" style="fill:#72654b;stroke:#72654b" />
        <path d="m8 506l1-3-1-1-1-1-1 .5-1 .5v1 1h-1-1l-1.5-1-1.5-1v2 2 2.5 2.5 1.5 1.5h1 1 1.5 1.5l.5-1 .5-1-.5-.5-.5-.5.5-1 .5-1 1-.5 1-.5v-1-1" style="fill:#6b7368;stroke:#6b7368" />
    </g>
</svg>
