<svg xmlns="http://www.w3.org/2000/svg" viewBox="0 0 712 960"><path d="m0 0h712v960h-712z" style="fill:#989875"/><g style="stroke-linejoin:round;stroke-width:.7"><path d="m0 959v1h19 19 18 18 18 18 19.5 19.5 18 18 18 18 19.5 19.5 4.5 4.5v-.5-.5l-.5-18-.5-18-2-14-2-14-5-8-5-8-6-2-6-2 12-2.5 12-2.5-1-.5-1-.5-2 .5-2 .5h-2-2-2.5-2.5l-1.5.5-1.5.5-2-.5-2-.5-1.5.5-1.5.5-1.5.5-1.5.5h-1.5-1.5l-1.5-1.5-1.5-1.5-9 1-9 1-14 2-14 2-21 1-21 1h-13-13l-19 1.5-19 1.5-.5-.5-.5-.5-11.5 1-11.5 1h-6.5-6.5l-21.5.5-21.5.5v18.5 18.5 18 18 2 2" style="fill:#553507;stroke:#553507"/><path d="m269 959v1h1.5 1.5v-.5-.5l-.5-17-.5-17-.5-17-.5-17 1.5-13.5 1.5-13.5-15-3-15-3-14 1.5-14 1.5-9.5.5-9.5.5-14.5.5-14.5.5-8 3.5-8 3.5-5.5-5.5-5.5-5.5-2.5-12.5-2.5-12.5-.5-16-.5-16v-10-10l8-1 8-1 11 3.5 11 3.5 12-2 12-2 13.5.5 13.5.5-6 2.5-6 2.5v6 6l13-1 13-1-3-8.5-3-8.5-12-6-12-6-8-2-8-2 16-.5 16-.5 13-1 13-1 14.5-3.5 14.5-3.5 5.5-10 5.5-10 3-13 3-13h-16-16l-5.5-3-5.5-3 12-3 12-3 9-3 9-3-4-14.5-4-14.5 1 1 1 1v2.5 2.5 3 3l-10 9-10 9-17.5 3.5-17.5 3.5.5 1.5.5 1.5 1.5.5 1.5.5.5.5.5.5.5 1 .5 1 18 1 18 1 7.5 6.5 7.5 6.5-14.5 13-14.5 13-11 3.5-11 3.5-9.5-.5-9.5-.5-10.5-1-10.5-1-9 2-9 2h-8-8l-10.5 2-10.5 2-8.5 2.5-8.5 2.5 4.5-3.5 4.5-3.5-10-.5-10-.5-10 5-10 5-12 1-12 1-7.5-3-7.5-3-5 9-5 9-9 7-9 7-11 1.5-11 1.5-1.5-1-1.5-1-.5-.5-.5-.5h-1.5-1.5v2 2l8.5 2 8.5 2 9-1 9-1 6.5-8.5 6.5-8.5 7 1.5 7 1.5 6.5-7.5 6.5-7.5h12 12l7 4.5 7 4.5-9 5-9 5-8 6-8 6-2 16.5-2 16.5-4 19-4 19-10.5-1-10.5-1-11.5-3.5-11.5-3.5-11.5-4.5-11.5-4.5v2.5 2.5 2 2 2.5 2.5 2 2 2.5 2.5 1 1l21.5-.5 21.5-.5h6.5 6.5l11.5-1 11.5-1 1-5 1-5 8-2 8-2 1-5 1-5 5-5.5 5-5.5 7 2 7 2-.5-2.5-.5-2.5v-5.5-5.5l5-1 5-1 .5 14.5.5 14.5 5.5 9 5.5 9 21-1 21-1 14-2 14-2 9-1 9-1 17 .5 17 .5-12 2.5-12 2.5 6 2 6 2 5 8 5 8 2 14 2 14 .5 18 .5 18" style="fill:#362e17;stroke:#362e17"/><path d="m272 959v1h19 19 18 18 20 20 20 20 12.5 12.5v-.5-.5l.5-1 .5-1 .5-.5.5-.5 1-.5 1-.5 1.5-.5 1.5-.5h1 1l1 .5 1 .5 1.5-.5 1.5-.5h1 1 1.5 1.5l1.5.5 1.5.5.5.5.5.5.5 2 .5 2h19.5 19.5 18 18 19.5 19.5 18 18 7 7v-.5-.5l-11-4.5-11-4.5-16.5.5-16.5.5h-15-15l-14 1-14 1-17 .5-17 .5 8-6 8-6 7.5-7.5 7.5-7.5 12.5-6 12.5-6-1-17-1-17 1-15 1-15-1.5-16-1.5-16 4.5-13.5 4.5-13.5 5-13 5-13 5-13.5 5-13.5-16-2-16-2-2.5-15.5-2.5-15.5-1-18.5-1-18.5-1-16-1-16-1-17-1-17-.5-18-.5-18-1-17-1-17-1-17-1-17-3-14.5-3-14.5-17.5-.5-17.5-.5-7.5 4.5-7.5 4.5 15 .5 15 .5 11 2 11 2-9 5-9 5 1.5 4 1.5 4 2.5 3.5 2.5 3.5-12.5-.5-12.5-.5-6.5 3-6.5 3 15 2 15 2 .5 15.5.5 15.5 1 15.5 1 15.5.5 12.5.5 12.5-1.5 12.5-1.5 12.5.5 13 .5 13 .5 9.5.5 9.5-1.5 7.5-1.5 7.5-.5 7-.5 7 1.5 11.5 1.5 11.5-7 4-7 4-3-8.5-3-8.5-2-8-2-8 .5-7.5.5-7.5-2-10.5-2-10.5-1-12-1-12-2-12-2-12-1.5 13-1.5 13-1 13-1 13-2-12-2-12 .5 17 .5 17 .5 13.5.5 13.5 1.5 14.5 1.5 14.5-11-5.5-11-5.5.5 2 .5 2 1 1.5 1 1.5-1.5.5-1.5.5h-1-1l-5-15.5-5-15.5-.5-1-.5-1-.5-1.5-.5-1.5-.5-2-.5-2-1-1-1-1v-1.5-1.5-2-2-2.5-2.5l.5-1.5.5-1.5 1-1.5 1-1.5.5-1 .5-1 1-1 1-1 .5-2 .5-2v-2-2l-.5-2-.5-2-.5-1.5-.5-1.5-1-.5-1-.5-.5-1-.5-1-.5.5-.5.5v1 1l.5.5.5.5v1.5 1.5 1 1h-1-1l-.5.5-.5.5-1.5-.5-1.5-.5-1.5-1-1.5-1-12.5 13-12.5 13-11-6.5-11-6.5-8.5-10-8.5-10-8.5-10.5-8.5-10.5-11.5-10.5-11.5-10.5-9 9-9 9-14.5 4.5-14.5 4.5.5-1.5.5-1.5-.5-.5-.5-.5h1 1v-1-1l-.5-1-.5-1-.5-.5-.5-.5v-1-1l-1 1-1 1v1.5 1.5l-.5.5-.5.5-.5 1-.5 1 .5 1.5.5 1.5v1 1 1 1l-.5.5-.5.5.5 1 .5 1v1 1l.5.5.5.5v1 1l.5 1 .5 1 .5 1.5.5 1.5.5.5.5.5.5 1 .5 1 1 1.5 1 1.5 1.5.5 1.5.5 1 1 1 1 .5.5.5.5h1 1l.5.5.5.5.5 1 .5 1 4 14.5 4 14.5-9 3-9 3-12 3-12 3 5.5 3 5.5 3h16 16l-3 13-3 13-5.5 10-5.5 10-14.5 3.5-14.5 3.5-13 1-13 1-16 .5-16 .5 8 2 8 2 12 6 12 6 3 8.5 3 8.5-13 1-13 1v-6-6l6-2.5 6-2.5-13.5-.5-13.5-.5-12 2-12 2-11-3.5-11-3.5-8 1-8 1v10 10l.5 16 .5 16 2.5 12.5 2.5 12.5 5.5 5.5 5.5 5.5 8-3.5 8-3.5 14.5-.5 14.5-.5 9.5-.5 9.5-.5 14-1.5 14-1.5 15 3 15 3-1.5 13.5-1.5 13.5.5 17 .5 17 .5 17 .5 17" style="fill:#121a0e;stroke:#121a0e"/><path d="m451 959v1h1.5 1.5.5.5v-.5-.5l.5-.5.5-.5.5-1 .5-1h1 1 1 1 1 1l1-.5 1-.5h2 2 1 1l.5 1 .5 1 .5 1.5.5 1.5h1 1l-.5-2-.5-2-.5-.5-.5-.5-1.5-.5-1.5-.5h-1.5-1.5-1-1l-1.5.5-1.5.5-1-.5-1-.5h-1-1l-1.5.5-1.5.5-1 .5-1 .5-.5.5-.5.5-.5 1-.5 1" style="fill:#362e17;stroke:#362e17"/><path d="m455 959v1h1.5 1.5 2 2 2.5 2.5 2 2 1 1l-.5-1.5-.5-1.5-.5-1-.5-1h-1-1-2-2l-1 .5-1 .5h-1-1-1-1-1-1l-.5 1-.5 1-.5.5-.5.5" style="fill:#534a2c;stroke:#534a2c"/><path d="m639 959v1h1 1v-.5-.5l-.5-15.5-.5-15.5-1-13-1-13 .5-16 .5-16-1.5-27-1.5-27v-1.5-1.5l1-1.5 1-1.5 1.5.5 1.5.5 1.5.5 1.5.5 2 .5 2 .5 2.5.5 2.5.5 1.5.5 1.5.5.5.5.5.5 1 1 1 1 2.5 14.5 2.5 14.5 1.5 19 1.5 19v1.5 1.5 1 1l.5.5.5.5.5 1 .5 1v1 1l.5.5.5.5v1 1l1 .5 1 .5.5.5.5.5.5.5.5.5v1 1l.5 1 .5 1-1 1-1 1-1.5-.5-1.5-.5-1-1-1-1-1 .5-1 .5v1 1l-.5.5-.5.5v1.5 1.5 1 1 1 1 1 1 1.5 1.5l.5 1.5.5 1.5 1-1 1-1 3 10 3 10-1.5-.5-1.5-.5-1 .5-1 .5.5 1.5.5 1.5-1 1.5-1 1.5v2 2l1 1.5 1 1.5.5 1.5.5 1.5 1.5 1 1.5 1-2.5.5-2.5.5h1.5 1.5 2 2 2 2 2.5 2.5 2 2 1.5 1.5v-.5-.5-5.5-5.5l-.5-8.5-.5-8.5-5-7.5-5-7.5 8-1 8-1-.5-12.5-.5-12.5-1-15.5-1-15.5-2.5-13.5-2.5-13.5-6-24.5-6-24.5-10.5 6-10.5 6-10 2-10 2-3.5 10.5-3.5 10.5-1 15-1 15 3 15.5 3 15.5-4.5 20-4.5 20-3-12.5-3-12.5-2-13-2-13-1-11-1-11-1.5-13-1.5-13 .5-10.5.5-10.5-6-9-6-9-11 1.5-11 1.5-3 10-3 10-5 9-5 9-3.5-10-3.5-10 4.5-13.5 4.5-13.5 7-18.5 7-18.5-.5-.5-.5-.5-17.5-2.5-17.5-2.5-1-17.5-1-17.5-1-16-1-16-1-17-1-17-1-17-1-17-1-27.5-1-27.5-.5-.5-.5-.5-1-27-1-27-.5-1-.5-1v-2-2-1-1-1.5-1.5-2-2-1-1-1-1l-.5-.5-.5-.5-.5-1.5-.5-1.5-31 2-31 2-4 12.5-4 12.5.5 17.5.5 17.5 1 17 1 17 1 16 1 16 1 18.5 1 18.5 1 17 1 17 .5 16.5.5 16.5-3 17-3 17-1-1-1-1-1-1-1-1-1-1.5-1-1.5-.5-1.5-.5-1.5-1-1.5-1-1.5-.5-1.5-.5-1.5-1.5-1-1.5-1 .5 1.5.5 1.5-.5 1-.5 1 1 1 1 1 11 5.5 11 5.5-1.5-14.5-1.5-14.5-.5-13.5-.5-13.5-.5-17-.5-17 2 12 2 12 1-13 1-13 1.5-13 1.5-13 2 12 2 12 1 12 1 12 2 10.5 2 10.5-.5 7.5-.5 7.5 2 8 2 8 3 8.5 3 8.5 7-4 7-4-1.5-11.5-1.5-11.5.5-7 .5-7 1.5-7.5 1.5-7.5-.5-9.5-.5-9.5-.5-13-.5-13 1.5-12.5 1.5-12.5-.5-12.5-.5-12.5-1-15.5-1-15.5-.5-15.5-.5-15.5-15-2-15-2 6.5-3 6.5-3 12.5.5 12.5.5-2.5-3.5-2.5-3.5-1.5-4-1.5-4 9-5 9-5-11-2-11-2-15-.5-15-.5 7.5-4.5 7.5-4.5 17.5.5 17.5.5 3 14.5 3 14.5 1 17 1 17 1 17 1 17 .5 18 .5 18 1 17 1 17 1 16 1 16 1 18.5 1 18.5 2.5 15.5 2.5 15.5 16 2 16 2-5 13.5-5 13.5-5 13-5 13-4.5 13.5-4.5 13.5 1.5 16 1.5 16-1 15-1 15 1 17 1 17-12.5 6-12.5 6-7.5 7.5-7.5 7.5-8 6-8 6 17-.5 17-.5 14-1 14-1h15 15l16.5-.5 16.5-.5 11 4.5 11 4.5" style="fill:#362e17;stroke:#362e17"/><path d="m641 959v1h1.5 1.5 2 2 2.5 2.5 2 2 2.5 2.5 2 2 1.5 1.5l2.5-.5 2.5-.5-1.5-1-1.5-1-.5-1.5-.5-1.5-1-1.5-1-1.5v-2-2l1-1.5 1-1.5-.5-1.5-.5-1.5 1-.5 1-.5-1-2-1-2v-2-2l-.5-1.5-.5-1.5.5-2 .5-2-.5-2-.5-2-1 1-1 1-.5-1.5-.5-1.5v-1.5-1.5-1-1-1-1-1-1-1.5-1.5l.5-.5.5-.5v-1-1l1-.5 1-.5-1-.5-1-.5v-1-1l-.5-1-.5-1v-1-1-1-1-1.5-1.5l.5-1.5.5-1.5v-1-1l.5-1 .5-1-1.5-19-1.5-19-2.5-14.5-2.5-14.5h-1-1-2-2-1.5-1.5l-1.5-.5-1.5-.5-2.5.5-2.5.5h-1.5-1.5l-1.5-1-1.5-1 1.5 27 1.5 27-.5 16-.5 16 1 13 1 13 .5 15.5.5 15.5" style="fill:#553507;stroke:#553507"/><path d="m692 959v1h10 10v-9-9-18-18-1.5-1.5l-.5-.5-.5-.5-2.5-10-2.5-10-3.5-6.5-3.5-6.5-2.5-11.5-2.5-11.5-2-16.5-2-16.5-6.5-15.5-6.5-15.5 6 24.5 6 24.5 2.5 13.5 2.5 13.5 1 15.5 1 15.5.5 12.5.5 12.5-8 1-8 1 5 7.5 5 7.5.5 8.5.5 8.5v5.5 5.5" style="fill:#534a2c;stroke:#534a2c"/><path d="m696 957v-27l-1.5.5-1.5.5 1.5 13 1.5 13" style="fill:#615e42;stroke:#615e42"/><g style="fill:#534a2c;stroke:#534a2c"><path d="m674 941l-6-20 .5 2 .5 2-.5 2-.5 2 .5 1.5.5 1.5v2 2l1 2 1 2 1.5.5 1.5.5"/><path d="m624 920l9-40-3-15.5-3-15.5 1-15 1-15 3.5-10.5 3.5-10.5 10-2 10-2 10.5-6 10.5-6-12.5-2-12.5-2-9.5 9-9.5 9-3.5 11.5-3.5 11.5h-4-4l-.5-9-.5-9-1-13-1-13-5-10-5-10-11-.5-11-.5-3.5-7.5-3.5-7.5-7 18.5-7 18.5-4.5 13.5-4.5 13.5 3.5 10 3.5 10 5-9 5-9 3-10 3-10 11-1.5 11-1.5 6 9 6 9-.5 10.5-.5 10.5 1.5 13 1.5 13 1 11 1 11 2 13 2 13 3 12.5 3 12.5"/><path d="m670 906l3 1 1-1 1-1-.5-1-.5-1v-1-1l-.5-.5-.5-.5-.5-.5-.5-.5-1-.5-1-.5v-1-1l-.5-.5-.5-.5v-1-1l-.5-1-.5-1-.5-.5-.5-.5v-1-1-1.5-1.5l-.5 1-.5 1v1 1l-.5 1.5-.5 1.5v1.5 1.5 1 1 1 1l.5 1 .5 1v1 1l1 .5 1 .5 1 1 1 1"/></g><path d="m711 902l1 1v-18.5-18.5-18-18-18-18-19.5-19.5-16.5-16.5l-6-9-6-9-1 10-1 10-8 10-8 10-11-1.5-11-1.5-7.5-5.5-7.5-5.5-5.5-6-5.5-6-3.5-6.5-3.5-6.5-6-9-6-9v-10.5-10.5l-5-9-5-9-6.5 3.5-6.5 3.5-7.5-2-7.5-2-4-6-4-6v-3-3l-1.5 3-1.5 3-1.5 8.5-1.5 8.5-3.5 6.5-3.5 6.5 2 7.5 2 7.5.5 9.5.5 9.5-5.5-1.5-5.5-1.5-1.5-14-1.5-14-.5-13.5-.5-13.5-1.5-14.5-1.5-14.5v-15.5-15.5l-2-9-2-9-1-8-1-8 1-4.5 1-4.5-3-10-3-10-2-13-2-13-2-16.5-2-16.5-16.5-.5-16.5-.5h-16-16l-4.5 12-4.5 12 .5 16.5.5 16.5v15 15l-1.5 23-1.5 23 1 .5 1 .5 1.5-.5 1.5-.5 1 1.5 1 1.5v2 2 1 1 1.5 1.5h-1-1l-.5-1.5-.5-1.5-.5-1-.5-1-.5-1.5-.5-1.5-1-2-1-2h-5.5-5.5l4-7 4-7-5-6.5-5-6.5-5-13-5-13-8.5-9.5-8.5-9.5-13-6.5-13-6.5-4-12-4-12-5-13-5-13-5-14.5-5-14.5-8.5-11-8.5-11 1 .5 1 .5.5 1 .5 1 .5.5.5.5.5.5.5.5.5 1 .5 1 1 1.5 1 1.5 1 1 1 1v1 1l1 .5 1 .5.5 1.5.5 1.5.5 2 .5 2 1 2 1 2 5.5 14 5.5 14 7.5 24 7.5 24 13 6.5 13 6.5 8.5 9.5 8.5 9.5 4.5 10.5 4.5 10.5 1 16.5 1 16.5.5 22 .5 22 1 13.5 1 13.5.5 14 .5 14 4 8 4 8 6 10 6 10 2-14.5 2-14.5-.5-16.5-.5-16.5-.5-16.5-.5-16.5-1-17.5-1-17.5-1-17-1-17-1-18-1-18-.5-18-.5-18 4.5-13.5 4.5-13.5-.5-.5-.5-.5 31.5-1.5 31.5-1.5.5 1.5.5 1.5.5.5.5.5v1 1 1 1 2 2 1.5 1.5 1 1 2 2l.5 1 .5 1 1.5 27.5 1.5 27.5 1.5 17 1.5 17 1 17 1 17 1 15 1 15v16.5 16.5l1.5 13.5 1.5 13.5 1.5 9.5 1.5 9.5 16.5 9.5 16.5 9.5 3.5 7.5 3.5 7.5 11 .5 11 .5 5 10 5 10 1 13 1 13 .5 9 .5 9h4 4l3.5-11.5 3.5-11.5 9.5-9 9.5-9 12.5 2 12.5 2 6.5 15.5 6.5 15.5 2 16.5 2 16.5 2.5 11.5 2.5 11.5 3.5 6.5 3.5 6.5 2.5 10 2.5 10" style="fill:#615e42;stroke:#615e42"/><path d="m176 886l24-1-6-2-6-2-6 2.5-6 2.5" style="fill:#362e17;stroke:#362e17"/><path d="m80 880l38-3h13 13l-5.5-9-5.5-9-.5-14.5-.5-14.5-5 1-5 1v5.5 5.5l.5 2.5.5 2.5-7-2-7-2-5 5.5-5 5.5-1 5-1 5-8 2-8 2-1 5-1 5 .5.5.5.5" style="fill:#534a2c;stroke:#534a2c"/><path d="m67 875l8-38 2-16.5 2-16.5 8-6 8-6 9-5 9-5-7-4.5-7-4.5h-12-12l-6.5 7.5-6.5 7.5-7-1.5-7-1.5-6.5 8.5-6.5 8.5-9 1-9 1-8.5-2-8.5-2v2.5 2.5 2 2 2.5 2.5 2 2 2.5 2.5 2 2 2.5 2.5 2 2 1.5 1.5l2-1 2-1 1.5-.5 1.5-.5 2-.5 2-.5v1 1l-1 1.5-1 1.5-1.5.5-1.5.5-.5 2-.5 2-1.5-.5-1.5-.5h-1-1v3.5 3.5 2 2 1 1l11.5 4.5 11.5 4.5 11.5 3.5 11.5 3.5 10.5 1 10.5 1" style="fill:#121a0e;stroke:#121a0e"/><path d="m235 872h3l1.5-.5 1.5-.5 1.5-.5 1.5-.5 2 .5 2 .5 1.5-.5 1.5-.5h2.5 2.5 2 2l2-.5 2-.5 1 .5 1 .5-17-.5-17-.5 1.5 1.5 1.5 1.5" style="fill:#534a2c;stroke:#534a2c"/><path d="m674 869l12-19-1-13-1-13-2.5-16.5-2.5-16.5-7.5 10.5-7.5 10.5 2.5 12.5 2.5 12.5 2 16 2 16h.5.5" style="fill:#121a0e;stroke:#121a0e"/><g style="fill:#362e17;stroke:#362e17"><path d="m2 844l3 1 .5-2 .5-2 1.5-.5 1.5-.5 1-1.5 1-1.5v-1-1l-2 .5-2 .5-1.5.5-1.5.5-2 1-2 1v2.5 2.5h1 1"/><path d="m239 828l3 1 1-1 1-1-.5-2-.5-2-1-.5-1-.5.5 2 .5 2-1.5-.5-1.5-.5h-2.5-2.5l-.5-1.5-.5-1.5-.5-2-.5-2 1-1 1-1 1.5 1 1.5 1 1 1 1 1 1 1 1 1-5.5 1-5.5 1 4.5 2 4.5 2"/></g><g style="fill:#534a2c;stroke:#534a2c"><path d="m239 825l3 1-.5-2-.5-2-1-1-1-1-1-1-1-1-1.5-1-1.5-1-1 1-1 1 .5 2 .5 2 .5 1.5.5 1.5h2.5 2.5"/><path d="m639 818h3v-1.5-1.5h2 2 2.5 2.5l1-.5 1-.5-2.5-.5-2.5-.5-2-.5-2-.5-1.5-.5-1.5-.5-1.5-.5-1.5-.5-1 1.5-1 1.5v1.5 1.5l1.5 1 1.5 1"/></g><path d="m657 818h2l-1-1-1-1-.5-.5-.5-.5-1.5-.5-1.5-.5-1 .5-1 .5h-2.5-2.5-2-2v1.5 1.5l2.5-.5 2.5-.5 1.5.5 1.5.5h1.5 1.5 2 2" style="fill:#7d4827;stroke:#7d4827"/><path d="m9 817l26-3-7.5-1.5-7.5-1.5-5.5 3-5.5 3" style="fill:#362e17;stroke:#362e17"/><path d="m7 799l22-3 9-7 9-7 5-9 5-9 7.5 3 7.5 3 12-1 12-1 10-5 10-5 10 .5 10 .5-4.5 3.5-4.5 3.5 8.5-2.5 8.5-2.5 10.5-2 10.5-2h8 8l9-2 9-2 10.5 1 10.5 1 9.5.5 9.5.5 11-3.5 11-3.5-7-1-7-1h-10-10l-14 1.5-14 1.5-15 1-15 1-22 1.5-22 1.5-14.5 1-14.5 1-14.5-.5-14.5-.5-15.5 1-15.5 1h-2.5-2.5l-1.5.5-1.5.5h-1-1-1.5-1.5l-1.5.5-1.5.5h-2.5-2.5-2-2-2.5-2.5-2-2l-1 .5-1 .5v1.5 1.5 2 2 2 2 2.5 2.5 2 2 2.5 2.5 2 2 2.5 2.5.5.5h1.5 1.5l.5.5.5.5 1.5 1 1.5 1" style="fill:#553507;stroke:#553507"/><path d="m0 760v1l1-.5 1-.5h2 2 2.5 2.5 2 2 2.5 2.5l1.5-.5 1.5-.5h1.5 1.5 1 1l1.5-.5 1.5-.5h2.5 2.5l1-2 1-2-19 1.5-19 1.5v1.5 1.5" style="fill:#7d4827;stroke:#7d4827"/><path d="m36 758l31-2 14.5.5 14.5.5 14.5-1 14.5-1h-1.5-1.5l-.5-.5-.5-.5h-1-1-1.5-1.5-1-1-1-1l-.5.5-.5.5-1-.5-1-.5-.5-.5-.5-.5h-1-1l-.5.5-.5.5h-1.5-1.5-1-1-1-1-1-1l-1.5-1.5-1.5-1.5h2 2l1.5.5 1.5.5h1 1l1-.5 1-.5h2 2 1 1 1.5 1.5l1.5-.5 1.5-.5.5.5.5.5 1-.5 1-.5h2.5 2.5l17-1.5 17-1.5v2 2l-1.5.5-1.5.5h-1.5-1.5-2-2-1-1-1.5-1.5l-1.5.5-1.5.5h-1-1-1.5-1.5-2-2l-2 .5-2 .5-1 .5-1 .5 22-1.5 22-1.5 15-1 15-1 14-1.5 14-1.5h10 10l7 1 7 1 14.5-13 14.5-13-7.5-6.5-7.5-6.5-18-1-18-1 .5 1.5.5 1.5-.5.5-.5.5v1 1l.5.5.5.5-.5.5-.5.5-1 .5-1 .5h-1-1-1-1-1.5-1.5-3-3l-1 1.5-1 1.5 1 1 1 1h2 2l2-.5 2-.5 1.5.5 1.5.5h2.5 2.5l.5-1.5.5-1.5.5-1 .5-1 1.5.5 1.5.5 1.5-.5 1.5-.5 1.5 1 1.5 1h2 2l1.5.5 1.5.5 5.5-4 5.5-4 10.5 4 10.5 4-14 10.5-14 10.5-1.5 1-1.5 1h-2-2l-2 .5-2 .5-1.5-.5-1.5-.5-1.5.5-1.5.5h-2.5-2.5l-1.5.5-1.5.5h-2.5-2.5-2-2-2.5-2.5-1.5-1.5l-1-.5-1-.5-13-9-13-9-25 1.5-25 1.5-18 1-18 1-21 1.5-21 1.5 18-.5 18-.5 17-1 17-1 16-1 16-1 16.5-.5 16.5-.5 3.5 6.5 3.5 6.5-17 2-17 2-17 1-17 1-17.5 1-17.5 1-18 1-18 1-33.5 2-33.5 2v1 1l19-1.5 19-1.5-1 2-1 2" style="fill:#534a2c;stroke:#534a2c"/><path d="m0 754v1l33.5-2 33.5-2 18-1 18-1 17.5-1 17.5-1 17-1 17-1 17-2 17-2-3.5-6.5-3.5-6.5-16.5.5-16.5.5-16 1-16 1-17 1-17 1-18 .5-18 .5-16-.5-16-.5-15.5 2.5-15.5 2.5h-.5-.5v2 2 2 2 2.5 2.5 1.5 1.5" style="fill:#362e17;stroke:#362e17"/><path d="m96 754h2 1 1 1 1 1.5 1.5l.5-.5.5-.5h1 1l.5.5.5.5 1 .5 1 .5.5-.5.5-.5h1 1 1 1 1.5 1.5 1 1l.5.5.5.5h1.5 1.5l1-.5 1-.5 2-.5 2-.5h2 2 1.5 1.5 1 1l1.5-.5 1.5-.5h1.5 1.5 1 1 2 2 1.5 1.5l1.5-.5 1.5-.5h-2.5-2.5-2-2-1-1-1.5-1.5-2-2l-.5.5-.5.5h-1.5-1.5l-1.5-.5-1.5-.5-.5.5-.5.5h-1.5-1.5l-1.5-.5-1.5-.5h-1-1v-.5-.5h-2.5-2.5l-1 .5-1 .5-.5-.5-.5-.5-1.5.5-1.5.5h-1.5-1.5-1-1-2-2l-1 .5-1 .5h-1-1l-1.5-.5-1.5-.5h-2-2l1.5 1.5 1.5 1.5" style="fill:#7d4827;stroke:#7d4827"/><path d="m124 751h2l1.5.5 1.5.5h1.5 1.5l.5-.5.5-.5 1.5.5 1.5.5h1.5 1.5l.5-.5.5-.5h2 2 1.5 1.5 1 1 2 2 2.5 2.5v-2-2l-17 1.5-17 1.5v.5.5" style="fill:#615e42;stroke:#615e42"/><path d="m57 748l34-1 15-1 15-1 18-1 18-1 18-2 18-2-11-2-11-2h-15-15l-15.5 1.5-15.5 1.5-15.5.5-15.5.5-11 2-11 2v2.5 2.5" style="fill:#121a0e;stroke:#121a0e"/><path d="m218 744l2 1v-.5-.5-.5-.5l10-9.5 10-9.5v-1-1h-2.5-2.5l-1.5-.5-1.5-.5-2 .5-2 .5h-2-2l-1-1-1-1 1-1.5 1-1.5-1-.5-1-.5h-1-1v1 1l-.5 1.5-.5 1.5h-1-1l-1 .5-1 .5h-2-2-1.5-1.5-1-1l-.5.5-.5.5h-1-1l-1 .5-1 .5-2.5.5-2.5.5-2 .5-2 .5 13 9 13 9" style="fill:#615e42;stroke:#615e42"/><path d="m220 744v1h1.5 1.5 2.5 2.5 2 2 2.5 2.5l1.5-.5 1.5-.5h2.5 2.5l1.5-.5 1.5-.5 1.5.5 1.5.5 2-.5 2-.5h2 2l1.5-1 1.5-1-.5-.5-.5-.5-2 1-2 1h-2.5-2.5-2-2-2.5-2.5l-1.5.5-1.5.5h-2-2l-2 .5-2 .5h-2-2-2.5-2.5-1.5-1.5" style="fill:#7d4827;stroke:#7d4827"/><g style="fill:#7a7756;stroke:#7a7756"><path d="m682 744l16-20 1-10 1-10 6 9 6 9v-19-19-19.5-19.5-18-18-18-18-3.5-3.5l-1-.5-1-.5h-.5-.5-1-1-1-1l.5 1 .5 1 .5 1.5.5 1.5.5.5.5.5.5 1 .5 1 .5 1.5.5 1.5-.5.5-.5.5-.5-.5-.5-.5h-1-1l-.5.5-.5.5-3-9-3-9-6 7-6 7-4.5-3.5-4.5-3.5-.5-10-.5-10-4.5 3.5-4.5 3.5-7.5-4.5-7.5-4.5-4-1.5-4-1.5 2.5-5.5 2.5-5.5-3-4-3-4-5-1.5-5-1.5 7 1 7 1 3-5 3-5-3.5-9-3.5-9-3.5 3.5-3.5 3.5.5 6.5.5 6.5-8.5-6-8.5-6-3.5-10.5-3.5-10.5 1.5-3.5 1.5-3.5-10-5.5-10-5.5v-5-5l-2.5-5.5-2.5-5.5-4.5-6.5-4.5-6.5-2.5-5-2.5-5-1-13-1-13-1-14-1-14-.5-14.5-.5-14.5-9.5-2-9.5-2-.5 7.5-.5 7.5-2.5 8.5-2.5 8.5v11 11l-1.5 11.5-1.5 11.5 1 9.5 1 9.5-1 9-1 9-2 10-2 10-1.5-3.5-1.5-3.5-2.5-13-2.5-13-14.5-.5-14.5-.5-16.5.5-16.5.5-15 .5-15 .5-1 6-1 6-5 2-5 2-1 4.5-1 4.5-4.5 6.5-4.5 6.5-3.5 10.5-3.5 10.5-2-12.5-2-12.5-5-2-5-2-7 4-7 4-3.5-14-3.5-14-1-14-1-14-1 5-1 5v15.5 15.5l-2.5-10.5-2.5-10.5-1.5-4.5-1.5-4.5-1.5 12-1.5 12-1-14-1-14-2-5-2-5-2 6.5-2 6.5-3-7-3-7-3-9-3-9-5.5 3-5.5 3-12 1-12 1-3-11-3-11 2-14.5 2-14.5-11.5 5.5-11.5 5.5-11.5 5.5-11.5 5.5-17 .5-17 .5-17 1-17 1-15 1-15 1-10-7.5-10-7.5v3 3 2.5 2.5l.5 1.5.5 1.5 1.5 1.5 1.5 1.5h15.5 15.5l17-1 17-1 15-.5 15-.5 20.5-1.5 20.5-1.5v-.5-.5l.5-1.5.5-1.5v-1.5-1.5l.5-1.5.5-1.5.5-.5.5-.5.5-1 .5-1-.5-1.5-.5-1.5 1.5-1 1.5-1 1.5-.5 1.5-.5 1-1 1-1h1 1l1-.5 1-.5h2 2l1 .5 1 .5h.5.5l-1.5 13.5-1.5 13.5-8.5 3.5-8.5 3.5h-15-15l-15 .5-15 .5-16 1-16 1-23.5.5-23.5.5-.5 18-.5 18 .5 16.5.5 16.5.5 17.5.5 17.5.5 18 .5 18 .5 33 .5 33-.5 1-.5 1 1 .5 1 .5 1-13.5 1-13.5-.5-12.5-.5-12.5-1-16.5-1-16.5 1-14 1-14v-4-4l-1.5-16-1.5-16-.5-16.5-.5-16.5 8.5-8.5 8.5-8.5 11-.5 11-.5h12 12l10.5-.5 10.5-.5 11 .5 11 .5 11-2 11-2 5.5 11.5 5.5 11.5-7.5 11-7.5 11-3.5 14.5-3.5 14.5-.5 11.5-.5 11.5 5.5 13 5.5 13 2 11 2 11 1.5 6.5 1.5 6.5-.5 12-.5 12-3.5 2.5-3.5 2.5-6.5 2.5-6.5 2.5-8 1.5-8 1.5-8.5.5-8.5.5-5 6-5 6 12.5-3 12.5-3 8 2 8 2 5.5 5.5 5.5 5.5-3.5 8-3.5 8-2.5 2.5-2.5 2.5-6.5 3.5-6.5 3.5-11.5 2-11.5 2-13.5 1.5-13.5 1.5-9 2-9 2 9.5 11.5 9.5 11.5 8.5-4.5 8.5-4.5-13-1-13-1 14.5-2 14.5-2 15.5-.5 15.5-.5 12.5-1.5 12.5-1.5-2-15.5-2-15.5 5-13 5-13 3-15 3-15 6-14 6-14-2-1-2-1-7.5-10-7.5-10-.5-1.5-.5-1.5-.5-.5-.5-.5v-1.5-1.5l-.5-.5-.5-.5v-1-1l-.5-.5-.5-.5-.5-.5-.5-.5-.5-1-.5-1-.5-.5-.5-.5v-1-1l-.5-.5-.5-.5v-1-1l-.5-1-.5-1-.5-.5-.5-.5-.5-2.5-.5-2.5-.5-1.5-.5-1.5.5-2 .5-2v-2-2-2-2l.5-2 .5-2v-2-2l.5-2 .5-2 .5-1.5.5-1.5.5-2 .5-2 .5-1 .5-1 .5-.5.5-.5.5-1 .5-1 .5-1.5.5-1.5v-1-1l.5-.5.5-.5v-1-1l.5-1.5.5-1.5v-.5-.5l7-12 7-12 17-2.5 17-2.5 2.5.5 2.5.5h2 2 2 2l2 1 2 1 8.5 11 8.5 11 5 14.5 5 14.5 5 13 5 13 4 12 4 12 13 6.5 13 6.5 8.5 9.5 8.5 9.5 5 13 5 13 5 6.5 5 6.5-4 7-4 7h5.5 5.5l1.5-23 1.5-23v-15-15l-.5-16.5-.5-16.5 4.5-12 4.5-12h16 16l16.5.5 16.5.5 2 16.5 2 16.5 2 13 2 13 3 10 3 10-1 4.5-1 4.5 1 8 1 8 2 9 2 9v15.5 15.5l1.5 14.5 1.5 14.5.5 13.5.5 13.5 1.5 14 1.5 14 5.5 1.5 5.5 1.5-.5-9.5-.5-9.5-2-7.5-2-7.5 3.5-6.5 3.5-6.5 1.5-8.5 1.5-8.5 1.5-3 1.5-3v3 3l4 6 4 6 7.5 2 7.5 2 6.5-3.5 6.5-3.5 5 9 5 9v10.5 10.5l6 9 6 9 3.5 6.5 3.5 6.5 5.5 6 5.5 6 7.5 5.5 7.5 5.5 11 1.5 11 1.5"/><path d="m220 743v1h1.5 1.5 2.5 2.5 2 2l2-.5 2-.5h2 2l1.5-.5 1.5-.5h2.5 2.5 2 2 2.5 2.5l2-1 2-1 2-7 2-7-1-.5-1-.5h-1.5-1.5l-1.5-.5-1.5-.5h-1-1l-1-.5-1-.5h-1-1l-1.5.5-1.5.5-.5.5-.5.5-.5-1-.5-1v-1-1l-.5.5-.5.5-.5 1-.5 1h-2-2l-10 9.5-10 9.5"/></g><path d="m261 740l1 1 14-10.5 14-10.5-10.5-4-10.5-4-5.5 4-5.5 4 1.5 1 1.5 1 2 .5 2 .5v1.5 1.5l-2 7-2 7" style="fill:#615e42;stroke:#615e42"/><path d="m195 739l3 1h2 2l1-1.5 1-1.5 1.5-.5 1.5-.5v-1.5-1.5l-1.5.5-1.5.5h-1.5-1.5l-1.5-.5-1.5-.5-1 1-1 1 1 1.5 1 1.5-1.5.5-1.5.5" style="fill:#121a0e;stroke:#121a0e"/><path d="m1 738l31-5 16 .5 16 .5 21-1.5 21-1.5 18-1 18-1v-.5-.5l25-1 25-1 2-.5 2-.5 2.5-.5 2.5-.5-18 1-18 1-17 1-17 1-17 1-17 1-16 1-16 1-16-1-16-1-16.5 2.5-16.5 2.5v1.5 1.5h.5.5" style="fill:#7a7756;stroke:#7a7756"/><path d="m575 738l1 1-16.5-9.5-16.5-9.5-1.5-9.5-1.5-9.5-1.5-13.5-1.5-13.5v-16.5-16.5l-1-15-1-15-1-17-1-17-1.5-17-1.5-17 1 27.5 1 27.5 1 17 1 17 1 17 1 17 1 16 1 16 1 17.5 1 17.5 17.5 2.5 17.5 2.5" style="fill:#534a2c;stroke:#534a2c"/><path d="m0 734v1l16.5-2.5 16.5-2.5 16 1 16 1 16-1 16-1 17-1 17-1 17-1 17-1 18-1 18-1 1-.5 1-.5h1 1l.5-.5.5-.5h1 1 1.5 1.5v-.5-.5l-13.5-2.5-13.5-2.5 1.5.5 1.5.5h2.5 2.5 2 2 2.5 2.5 2 2 2 2l2 .5 2 .5-1 1-1 1-2 .5-2 .5h-2.5-2.5-2-2l-1.5.5-1.5.5h-2-2l-1 .5-1 .5h-1-1l-.5-.5-.5-.5-.5.5-.5.5h-1-1-1.5-1.5-1-1-1-1-1-1-1.5-1.5l-.5.5-.5.5h-1-1-1-1-1.5-1.5-1-1-1-1-1-1-1.5-1.5-1.5-1.5-2.5-2.5l-1.5.5-1.5.5-2-.5-2-.5-1.5.5-1.5.5h-2.5-2.5l-1.5.5-1.5.5h-1.5-1.5-1.5-1.5-1.5-1.5-1-1l-1 .5-1 .5-2-.5-2-.5h-1-1l-1 .5-1 .5h-1.5-1.5-1.5-1.5l-1.5.5-1.5.5-1.5-1-1.5-1-1.5.5-1.5.5-1.5.5-1.5.5h-1-1-1.5-1.5-1.5-1.5-1.5-1.5l-17.5 1.5-17.5 1.5-21.5 1.5-21.5 1.5" style="fill:#989875;stroke:#989875"/><path d="m0 733v1l21.5-1.5 21.5-1.5 17.5-1.5 17.5-1.5-1-1.5-1-1.5 1-.5 1-.5h2 2l1-1 1-1h1 1l1 .5 1 .5h2 2l2 .5 2 .5 1.5.5 1.5.5 1-1 1-1-16 .5-16 .5-13.5.5-13.5.5-17.5.5-17.5.5-1-1-1-1-.5-2-.5-2-.5-1.5-.5-1.5-1.5-1.5-1.5-1.5v1.5 1.5 2 2 2.5 2.5 2 2 1.5 1.5" style="fill:#95b0a7;stroke:#95b0a7"/><path d="m458 733l6-34-.5-16.5-.5-16.5-1-17-1-17-1-18.5-1-18.5-1-16-1-16-1-17-1-17-.5-17.5-.5-17.5 4-12.5 4-12.5-4.5 13.5-4.5 13.5.5 18 .5 18 1 18 1 18 1 17 1 17 1 17.5 1 17.5.5 16.5.5 16.5.5 16.5.5 16.5-2 14.5-2 14.5-6-10-6-10-4-8-4-8-.5-14-.5-14-1-13.5-1-13.5v2 2 1 1 2 2l.5 1.5.5 1.5.5 2 .5 2v2 2l-.5 2-.5 2-1 1-1 1-.5 1-.5 1v2 2l-.5.5-.5.5v1 1 1.5 1.5 1 1 1 1 1 1l.5.5.5.5v1.5 1.5l.5.5.5.5v1 1l.5.5.5.5.5 1 .5 1v1 1l.5 1.5.5 1.5 1 1.5 1 1.5 1 1 1 1 .5 1.5.5 1.5 1 1.5 1 1.5.5 1.5.5 1.5 1.5 1 1.5 1 .5 1.5.5 1.5 1 1.5 1 1.5.5 1.5.5 1.5 1 1.5 1 1.5 1 1 1 1 1 1 1 1" style="fill:#534a2c;stroke:#534a2c"/><path d="m445 730h2l1.5-.5 1.5-.5-1-1.5-1-1.5-.5-2-.5-2-1-1-1-1 .5-1 .5-1-.5-1.5-.5-1.5-.5-1.5-.5-1.5-1-1.5-1-1.5-.5-1.5-.5-1.5-1-1-1-1-1-1.5-1-1.5-.5-.5-.5-.5-.5-.5-.5-.5 5 15.5 5 15.5" style="fill:#0e3c42;stroke:#0e3c42"/><path d="m81 728h3 1.5 1.5 1 1l1.5-.5 1.5-.5 1.5-.5 1.5-.5 1.5 1 1.5 1 1.5-.5 1.5-.5h1.5 1.5 1.5 1.5l1-.5 1-.5-2-1-2-1-2-.5-2-.5-1 1-1 1-1.5-.5-1.5-.5-2-.5-2-.5h-2-2l-1-.5-1-.5h-1-1l-1 1-1 1h-2-2l-1 .5-1 .5 1 1.5 1 1.5h1.5 1.5" style="fill:#bdbf9e;stroke:#bdbf9e"/><path d="m142 728v1l25-1.5 25-1.5-25 1-25 1" style="fill:#615e42;stroke:#615e42"/><path d="m7 726l35-1 13.5-.5 13.5-.5 16-.5 16-.5 15.5-1.5 15.5-1.5 25.5-2 25.5-2 12.5-2 12.5-2-10.5-3-10.5-3 6-12.5 6-12.5.5-1 .5-1-.5-.5-.5-.5v-1-1l-.5-1-.5-1-.5-.5-.5-.5-.5-.5-.5-.5-.5-.5-.5-.5-1-.5-1-.5-9.5-11.5-9.5-11.5 9-2 9-2 13.5-1.5 13.5-1.5 11.5-2 11.5-2 6.5-3.5 6.5-3.5 2.5-2.5 2.5-2.5 3.5-8 3.5-8-5.5-5.5-5.5-5.5-8-2-8-2-12.5 3-12.5 3 5-6 5-6 8.5-.5 8.5-.5 8-1.5 8-1.5 6.5-2.5 6.5-2.5 3.5-2.5 3.5-2.5.5-12 .5-12-1.5-6.5-1.5-6.5-2-11-2-11-5.5-13-5.5-13 .5-11.5.5-11.5 3.5-14.5 3.5-14.5 7.5-11 7.5-11-5.5-11.5-5.5-11.5-11 2-11 2-11-.5-11-.5-10.5.5-10.5.5h-12-12l-11 .5-11 .5-8.5 8.5-8.5 8.5.5 16.5.5 16.5 1.5 16 1.5 16v4 4l-1 14-1 14 1 16.5 1 16.5.5 12.5.5 12.5-1 13.5-1 13.5-7.5 8.5-7.5 8.5-1-1-1-1 .5-1.5.5-1.5.5-.5.5-.5 1-.5 1-.5 1.5-.5 1.5-.5-.5-.5-.5-.5-.5-.5-.5-.5-.5-.5-.5-.5-1-.5-1-.5-.5.5-.5.5v1 1l-.5.5-.5.5h-1-1l-.5-.5-.5-.5.5-1.5.5-1.5v-1-1l.5-.5.5-.5v-1-1l1-.5 1-.5 1.5-.5 1.5-.5.5-.5.5-.5h2 2 .5.5l-10.5 7.5-10.5 7.5-11 7.5-11 7.5-11 8-11 8-10.5 7.5-10.5 7.5-14.5 9-14.5 9 13-6.5 13-6.5 10.5-8 10.5-8 11-7 11-7 11-8 11-8-3.5 7-3.5 7-10.5 6.5-10.5 6.5-9.5 5.5-9.5 5.5-11 7.5-11 7.5-6.5 9.5-6.5 9.5-1-.5-1-.5-.5-.5-.5-.5-.5-1-.5-1-.5-1.5-.5-1.5-.5-.5-.5-.5-1-.5-1-.5-.5-2-.5-2h-1-1l-.5 1-.5 1-1 .5-1 .5-1 1-1 1-1.5 1-1.5 1-1.5.5-1.5.5-1.5 1-1.5 1-1.5.5-1.5.5-1 1.5-1 1.5-1 1-1 1-1.5.5-1.5.5v2.5 2.5 2 2 2.5 2.5 2 2 2 2l1.5 1.5 1.5 1.5.5 1.5.5 1.5.5 2 .5 2 1 1 1 1" style="fill:#989875;stroke:#989875"/><path d="m111 726l4 1 1-.5 1-.5h1 1 1.5 1.5 1.5 1.5v-.5-.5l14.5-.5 14.5-.5h1.5 1.5 1 1 1 1 1 1 1.5 1.5 1 1 1 1l.5-.5.5-.5h1.5 1.5 1 1 1 1 1 1 1.5 1.5 1 1l.5-.5.5-.5.5.5.5.5h1 1l1-.5 1-.5-2-1-2-1-1.5.5-1.5.5h-1.5-1.5l-1.5.5-1.5.5-1.5-.5-1.5-.5.5-1 .5-1 1.5-.5 1.5-.5h2.5 2.5 2 2l2 .5 2 .5h2 2 2.5 2.5 2 2v.5.5l-1.5.5-1.5.5h2.5 2.5l2-.5 2-.5 1-1 1-1-2-.5-2-.5h-2-2-2-2-2.5-2.5-2-2-2.5-2.5l-1.5-.5-1.5-.5h-.5-.5l-25.5 2-25.5 2-15.5 1.5-15.5 1.5 2 .5 2 .5 2 1 2 1h1 1" style="fill:#95b0a7;stroke:#95b0a7"/><path d="m125 725v1h1.5 1.5l1.5-.5 1.5-.5h2.5 2.5l1.5-.5 1.5-.5 2 .5 2 .5 1.5-.5 1.5-.5h2.5 2.5 1.5 1.5l-14.5.5-14.5.5" style="fill:#bdbf9e;stroke:#bdbf9e"/><path d="m263 725l2 1v-1.5-1.5l-2-.5-2-.5-1.5-1-1.5-1-1.5-.5-1.5-.5h-2-2l-1.5-1-1.5-1-1.5.5-1.5.5-1.5-.5-1.5-.5-.5 1-.5 1-.5 1.5-.5 1.5v1 1h2 2l.5-1 .5-1 .5-.5.5-.5v1 1l.5 1 .5 1 .5-.5.5-.5 1.5-.5 1.5-.5h1 1l1 .5 1 .5h1 1l1.5.5 1.5.5h1.5 1.5" style="fill:#7d4827;stroke:#7d4827"/><path d="m46 721l34-3h-16-16l-1 1.5-1 1.5" style="fill:#7a7756;stroke:#7a7756"/><path d="m175 721l3 1 1.5-.5 1.5-.5h1.5 1.5l1.5-.5 1.5-.5 2 1 2 1h2 2l1.5-.5 1.5-.5h2 2l1.5-.5 1.5-.5v-.5-.5h-2-2-2.5-2.5-2-2l-2-.5-2-.5h-2-2-2.5-2.5l-1.5.5-1.5.5-.5 1-.5 1" style="fill:#bdbf9e;stroke:#bdbf9e"/><g style="fill:#7a7756;stroke:#7a7756"><path d="m211 721v1h2 2l1-.5 1-.5h1 1l.5-1.5.5-1.5v-1-1h1 1l1 .5 1 .5h3 3v-.5-.5h1.5 1.5 2 2v-2-2l.5-1.5.5-1.5-1.5-1-1.5-1-1-1-1-1-1.5-1-1.5-1-1.5-1.5-1.5-1.5h-2-2-1-1-1-1-1-1-1-1-1.5-1.5-1-1-1-1-1-1l-1 .5-1 .5-.5-.5-.5-.5h-1-1-1-1-1-1l-1 .5-1 .5-.5.5-.5.5h-1.5-1.5-1-1l-.5.5-.5.5-1.5-.5-1.5-.5.5-1.5.5-1.5.5-1 .5-1 .5-.5.5-.5.5-.5.5-.5.5-.5.5-.5 1-.5 1-.5 1.5-.5 1.5-.5 1.5-1 1.5-1-.5-.5-.5-.5-.5-1.5-.5-1.5.5-1 .5-1 1-1.5 1-1.5-6 12.5-6 12.5 10.5 3 10.5 3-12.5 2-12.5 2h.5.5l13.5 2.5 13.5 2.5"/><path d="m92 718l34-1-12.5-1.5-12.5-1.5-4.5 2-4.5 2"/><path d="m18 717l30-5 13-3 13-3h1.5 1.5l-12 2.5-12 2.5-19.5 1-19.5 1 1-2 1-2 1.5-.5 1.5-.5 1-1 1-1 1.5-1 1.5-1 1-1 1-1 1.5-.5 1.5-.5 1.5-1 1.5-1 1-1 1-1 1.5-1 1.5-1 1-1 1-1v-2-2l-10 8.5-10 8.5-.5 5.5-.5 5.5"/></g><path d="m230 716v1h1.5 1.5 1 1 1 1l1-.5 1-.5.5-.5.5-.5-.5-.5-.5-.5v-1-1l.5-.5.5-.5-.5-1.5-.5-1.5-.5-1-.5-1-.5-.5-.5-.5-1.5-.5-1.5-.5-.5-1.5-.5-1.5-.5-.5-.5-.5-1.5-.5-1.5-.5-1-1-1-1v1.5 1.5l1.5 1.5 1.5 1.5 1.5 1 1.5 1 1 1 1 1 1.5 1 1.5 1-.5 1.5-.5 1.5v2 2h-2-2-1.5-1.5" style="fill:#615e42;stroke:#615e42"/><path d="m166 714l3 1 1-1 1-1-1-1-1-1-4.5-13.5-4.5-13.5-1 .5-1 .5-.5.5-.5.5.5.5.5.5 1 .5 1 .5-1.5.5-1.5.5-1.5-1-1.5-1-1 1-1 1-1 .5-1 .5-.5 1.5-.5 1.5-.5.5-.5.5-.5-2.5-.5-2.5.5-1 .5-1-1.5.5-1.5.5-1-1-1-1-1.5-1-1.5-1-.5-1.5-.5-1.5-1.5-1-1.5-1h-.5-.5l.5 1 .5 1 1 .5 1 .5.5.5.5.5v1 1l.5.5.5.5 1 .5 1 .5.5.5.5.5.5 1.5.5 1.5.5 2 .5 2 .5 1.5.5 1.5 1 1 1 1 .5.5.5.5 1 .5 1 .5 1 1 1 1h1 1l1-.5 1-.5 1.5.5 1.5.5.5.5.5.5.5.5.5.5-.5 1-.5 1-2.5.5-2.5.5 1 1.5 1 1.5 1.5.5 1.5.5 1-1.5 1-1.5.5 1.5.5 1.5 1 .5 1 .5" style="fill:#7a7756;stroke:#7a7756"/><path d="m14 713l39-2 12-2.5 12-2.5 1.5.5 1.5.5 1.5.5 1.5.5h1.5 1.5 1.5 1.5 1.5 1.5 2.5 2.5l1.5-.5 1.5-.5h2.5 2.5 2 2l1.5-.5 1.5-.5h2.5 2.5l2 .5 2 .5-.5-1-.5-1h-2-2-2-2-1.5-1.5-1.5-1.5-1.5-1.5l-.5-.5-.5-.5h-1-1l-.5.5-.5.5-1 .5-1 .5h-2-2-1-1-1.5-1.5l-2.5-.5-2.5-.5-13 1.5-13 1.5-17 1.5-17 1.5h-2-2v-1-1-.5-.5l-1.5.5-1.5.5-1 2-1 2" style="fill:#615e42;stroke:#615e42"/><path d="m19 711h4l-.5-.5-.5-.5 10-8.5 10-8.5 9-2 9-2 9.5-8.5 9.5-8.5 1.5 9.5 1.5 9.5.5 7 .5 7 2.5.5 2.5.5h1.5 1.5 1 1 2 2l1-.5 1-.5.5-.5.5-.5h1 1l.5.5.5.5h1.5 1.5 1.5 1.5l17-7 17-7v-.5-.5l-9-11-9-11-9.5-6.5-9.5-6.5-10 9.5-10 9.5 8-5 8-5 12 3 12 3 2.5 13 2.5 13-14.5-2.5-14.5-2.5-8-8.5-8-8.5-15 4-15 4-18.5 13.5-18.5 13.5v1 1" style="fill:#362e17;stroke:#362e17"/><path d="m171 711l11-4 2.5-8.5 2.5-8.5 2.5-9.5 2.5-9.5-10-10-10-10-7-.5-7-.5-.5 11.5-.5 11.5-7.5.5-7.5.5 5.5 3.5 5.5 3.5 3.5 1.5 3.5 1.5 4.5 13.5 4.5 13.5h1 1" style="fill:#95b0a7;stroke:#95b0a7"/><path d="m22 710l1 1 17-1.5 17-1.5 13-1.5 13-1.5-.5-7-.5-7-1.5-9.5-1.5-9.5-9.5 8.5-9.5 8.5-9 2-9 2-10 8.5-10 8.5" style="fill:#121a0e;stroke:#121a0e"/><path d="m19 708v1l18.5-13.5 18.5-13.5-2.5.5-2.5.5-1 1-1 1-1.5.5-1.5.5-1.5 1-1.5 1-2 .5-2 .5v2 2l-1 1-1 1-1.5 1-1.5 1-1 1-1 1-1.5 1-1.5 1-1.5.5-1.5.5-1 1-1 1-1.5 1-1.5 1-1 1-1 1" style="fill:#534a2c;stroke:#534a2c"/><path d="m86 708l3 1h2 2 2.5 2.5 2 2l2-.5 2-.5h2 2 2.5 2.5l1.5.5 1.5.5h1 1 1 1v-.5-.5l-.5-.5-.5-.5-2-.5-2-.5h-2.5-2.5l-1.5.5-1.5.5h-2-2-2.5-2.5l-1.5.5-1.5.5h-2.5-2.5-1.5-1.5-1.5-1.5" style="fill:#7a7756;stroke:#7a7756"/><path d="m122 708v1h1.5 1.5 2 2 2.5 2.5 2 2 2.5 2.5l1.5-.5 1.5-.5h2.5 2.5l1.5-.5 1.5-.5h2 2l1.5.5 1.5.5.5-1 .5-1-.5-.5-.5-.5-.5-.5-.5-.5-1.5-.5-1.5-.5-1 .5-1 .5h-1-1l-1-1-1-1-1-.5-1-.5-.5-.5-.5-.5-1-1-1-1-.5-1.5-.5-1.5-11 6-11 6h-1-1l.5.5.5.5" style="fill:#615e42;stroke:#615e42"/><path d="m123 707l22-12-.5-2-.5-2h-.5-.5l-17 7-17 7h1.5 1.5 2 2 2 2l.5 1 .5 1h1 1" style="fill:#534a2c;stroke:#534a2c"/><path d="m185 702l3 1 .5-.5.5-.5h1 1 1.5 1.5l.5-.5.5-.5 1-.5 1-.5h-1-1-1-1-1-1-1-1l-.5-1-.5-1 .5-.5.5-.5h1 1l.5-.5.5-.5h.5.5l1-1 1-1v-1-1l-1.5.5-1.5.5-1 .5-1 .5-.5.5-.5.5-.5.5-.5.5-.5.5-.5.5-.5 1-.5 1-.5 1.5-.5 1.5" style="fill:#615e42;stroke:#615e42"/><path d="m199 700h2 1 1l.5.5.5.5 1-.5 1-.5h1 1 1 1 1 1 1.5 1.5 1 1 1 1 1 1 1 1 2 2v-1.5-1.5l14-3 14-3 13-6 13-6v-.5-.5l.5-1.5.5-1.5 1-1 1-1 .5-3 .5-3h-1.5-1.5l-1.5-.5-1.5-.5-1 1-1 1-2 .5-2 .5-1 1-1 1-1 1-1 1h-1.5-1.5-2.5-2.5l-15 6-15 6 .5-1 .5-1 .5-1.5.5-1.5h-1-1l-1 .5-1 .5h-1-1-1-1-1-1l-1 .5-1 .5-.5.5-.5.5h-1-1-1-1l-1 .5-1 .5h-1-1-1-1l-.5.5-.5.5-1 .5-1 .5-.5.5-.5.5h-1-1l-.5.5-.5.5h-1.5-1.5l-1 1-1 1-1.5 1-1.5 1v1 1l-1 1-1 1h-.5-.5l-.5.5-.5.5h-1-1l-.5.5-.5.5.5 1 .5 1h1 1 1 1 1 1 1 1 1 1" style="fill:#7d4827;stroke:#7d4827"/><path d="m232 700l1 1 17.5-3.5 17.5-3.5 10-9 10-9-1 .5-1 .5-1.5.5-1.5.5-1 .5-1 .5-13 6-13 6-14 3-14 3 1 1 1 1 1.5.5 1.5.5" style="fill:#553507;stroke:#553507"/><path d="m436 700l1 1-.5-1.5-.5-1.5v-1-1l-.5-1-.5-1-.5-.5-.5-.5v-1-1l-.5-.5-.5-.5v-1.5-1.5l-.5-.5-.5-.5v-1-1-1-1-1-1-1.5-1.5-1-1l.5-.5.5-.5v-2-2l-1 1.5-1 1.5-.5 1.5-.5 1.5v2.5 2.5 2 2 1.5 1.5l1 1 1 1 .5 2 .5 2 .5 1.5.5 1.5.5 1 .5 1 .5.5.5.5" style="fill:#362e17;stroke:#362e17"/><path d="m131 696l-5-26-12-3-12-3-8 5-8 5 8 8.5 8 8.5 14.5 2.5 14.5 2.5" style="fill:#121a0e;stroke:#121a0e"/><path d="m148 694l1-1 .5-1.5.5-1.5 1-.5 1-.5 1-1 1-1 1.5 1 1.5 1 1.5-.5 1.5-.5-1-.5-1-.5-.5-.5-.5-.5.5-.5.5-.5 1-.5 1-.5-2.5-.5-2.5-.5-1.5.5-1.5.5-1.5 1-1.5 1-.5.5-.5.5-.5 1-.5 1 .5 2.5.5 2.5" style="fill:#615e42;stroke:#615e42"/><path d="m0 691v1l1.5-.5 1.5-.5 1-1 1-1 1-1.5 1-1.5 1.5-.5 1.5-.5 1.5-1 1.5-1 1.5-.5 1.5-.5 1.5-1 1.5-1 1-1 1-1 1-.5 1-.5.5-1 .5-1-1.5.5-1.5.5-.5.5-.5.5h-1-1l-.5 1-.5 1-.5.5-.5.5h-1-1l-.5.5-.5.5-1 .5-1 .5-.5.5-.5.5-.5.5-.5.5-.5.5-.5.5-1 .5-1 .5-.5.5-.5.5-.5.5-.5.5-.5.5-.5.5h-1.5-1.5v1 1" style="fill:#7a7756;stroke:#7a7756"/><g style="fill:#615e42;stroke:#615e42"><path d="m143 690v1h.5.5l-.5-1.5-.5-1.5-.5-.5-.5-.5-1-.5-1-.5-.5-.5-.5-.5v-1-1l-.5-.5-.5-.5-1-.5-1-.5-.5-1-.5-1-.5-1-.5-1-1-1.5-1-1.5.5-1.5.5-1.5 1-1 1-1 2.5-13 2.5-13-5-9-5-9-1 15.5-1 15.5-.5 1.5-.5 1.5v1.5 1.5 1 1l-.5.5-.5.5h-1-1l-1.5-1-1.5-1-10-5-10-5-11.5 7-11.5 7-17.5 10.5-17.5 10.5 1.5-1 1.5-1 1.5-.5 1.5-.5 1-1 1-1 2.5-.5 2.5-.5 15-4 15-4 10-9.5 10-9.5 9.5 6.5 9.5 6.5 9 11 9 11"/><path d="m197 689l1 1 1-1 1-1v-.5-.5l12.5-6.5 12.5-6.5 1 .5 1 .5 1.5 1 1.5 1 .5 1.5.5 1.5h1 1l-7-8-7-8 9.5-1.5 9.5-1.5 14-.5 14-.5 3.5 1.5 3.5 1.5-3.5 1.5-3.5 1.5-12 3-12 3 9.5.5 9.5.5h2.5 2.5 1.5 1.5l1-1 1-1 1-1 1-1 2-.5 2-.5 1-1 1-1 1.5.5 1.5.5h1.5 1.5l.5-1 .5-1-1-.5-1-.5-.5-.5-.5-.5-.5-1-.5-1-1.5-.5-1.5-.5-.5-.5-.5-.5-.5-.5-.5-.5-.5-1-.5-1-1-.5-1-.5-1-.5-1-.5-.5-1-.5-1v-1-1l-.5-.5-.5-.5v-1-1l-.5-1-.5-1-.5-.5-.5-.5-.5-1.5-.5-1.5-.5-.5-.5-.5 3-15 3-15 4-13 4-13 2.5-14.5 2.5-14.5 9-10.5 9-10.5-9-1-9-1-5.5-9-5.5-9 7.5 10 7.5 10 2 1 2 1-6 14-6 14-3 15-3 15-5 13-5 13 2 15.5 2 15.5-12.5 1.5-12.5 1.5-15.5.5-15.5.5-14.5 2-14.5 2 13 1 13 1-8.5 4.5-8.5 4.5 1 .5 1 .5.5.5.5.5.5.5.5.5.5.5.5.5.5 1 .5 1v1 1l.5.5.5.5-.5 1-.5 1-1 1.5-1 1.5-.5 1-.5 1 .5 1.5.5 1.5"/><path d="m0 688v1h1.5 1.5l.5-.5.5-.5.5-.5.5-.5.5-.5.5-.5 1-.5 1-.5.5-.5.5-.5.5-.5.5-.5.5-.5.5-.5 1-.5 1-.5.5-.5.5-.5h1 1l.5-.5.5-.5.5-1 .5-1h1 1l.5-.5.5-.5 1.5-.5 1.5-.5h1 1l14.5-9 14.5-9 10.5-7.5 10.5-7.5 11-8 11-8 11-7.5 11-7.5 10.5-7.5 10.5-7.5 1 .5 1 .5 1.5.5 1.5.5.5-1 .5-1-.5-.5-.5-.5-.5-1.5-.5-1.5h-3-3-1-1-2.5-2.5l-1 .5-1 .5-1 .5-1 .5-1 1.5-1 1.5-1 1-1 1-1.5-.5-1.5-.5-1-1.5-1-1.5-.5-1.5-.5-1.5v-1-1l-1-1.5-1-1.5v1.5 1.5 2 2l.5 2 .5 2 1 1 1 1 .5 2 .5 2v1 1l-1 1.5-1 1.5-1 .5-1 .5-11 7.5-11 7.5-12 9-12 9-2 .5-2 .5-.5 1-.5 1-22.5 14-22.5 14-2 .5-2 .5-1 .5-1 .5-.5 1-.5 1-1 1-1 1-1.5.5-1.5.5-1.5 1-1.5 1-1.5.5-1.5.5-1 1-1 1v1 1"/></g><path d="m35 688l13-19 11-7.5 11-7.5 9.5-5.5 9.5-5.5 10.5-6.5 10.5-6.5 3.5-7 3.5-7-11 8-11 8-11 7-11 7-10.5 8-10.5 8-13 6.5-13 6.5.5 2 .5 2 1 .5 1 .5.5.5.5.5.5 1.5.5 1.5.5 1 .5 1 .5.5.5.5 1 .5 1 .5" style="fill:#95b0a7;stroke:#95b0a7"/><path d="m39 688v1l2-.5 2-.5 17.5-10.5 17.5-10.5 11.5-7 11.5-7 10 5 10 5 2-6 2-6 1.5 2.5 1.5 2.5 1-15.5 1-15.5 5 9 5 9-2.5 13-2.5 13 11.5-1 11.5-1-5.5-5.5-5.5-5.5-.5-9.5-.5-9.5-6.5-8.5-6.5-8.5-6 6-6 6-9 8-9 8-12.5 7.5-12.5 7.5-12.5 7.5-12.5 7.5-7 5-7 5" style="fill:#7a7756;stroke:#7a7756"/><path d="m200 687v1h1.5 1.5l.5-.5.5-.5h1 1l.5-.5.5-.5 1-.5 1-.5.5-.5.5-.5h1 1 1 1l1-.5 1-.5h1 1 1 1l.5-.5.5-.5 1-.5 1-.5h1 1 1 1 1 1l1-.5 1-.5-.5-1.5-.5-1.5-1.5-1-1.5-1 .5 1.5.5 1.5-1 .5-1 .5-2.5.5-2.5.5-1 .5-1 .5-2 .5-2 .5h-2-2l-2 .5-2 .5-1 1-1 1-1.5-.5-1.5-.5 6.5-6 6.5-6 5 1 5 1-12.5 6.5-12.5 6.5" style="fill:#534a2c;stroke:#534a2c"/><path d="m0 685v1l1-1 1-1 1.5-.5 1.5-.5 1.5-1 1.5-1 1.5-.5 1.5-.5 1-1 1-1 .5-1 .5-1-2-.5-2-.5-1.5-1-1.5-1-1.5.5-1.5.5-2-1-2-1v1.5 1.5 2.5 2.5 2 2 .5.5" style="fill:#121a0e;stroke:#121a0e"/><path d="m231 685l30-12-9.5-.5-9.5-.5 12-3 12-3 3.5-1.5 3.5-1.5-3.5-1.5-3.5-1.5-14 .5-14 .5-9.5 1.5-9.5 1.5 7 8 7 8-.5 1.5-.5 1.5-.5 1-.5 1" style="fill:#7a7756;stroke:#7a7756"/><g style="fill:#362e17;stroke:#362e17"><path d="m202 684l3 1 1-1 1-1 2-.5 2-.5h2 2l2-.5 2-.5 1-.5 1-.5h-2.5-2.5l-1.5.5-1.5.5-1.5-.5-1.5-.5 1-1 1-1 1-1 1-1 1.5-1 1.5-1 1.5.5 1.5.5 2 .5 2 .5 1.5.5 1.5.5-.5 1-.5 1 1-.5 1-.5-.5-1.5-.5-1.5-1-.5-1-.5-5-1-5-1-6.5 6-6.5 6"/><path d="m398 681l25-26-.5-.5-.5-.5-1.5.5-1.5.5-.5 1-.5 1-.5.5-.5.5-.5.5-.5.5h-1-1-1-1l-2-.5-2-.5h-1.5-1.5l-12-6.5-12-6.5-8.5-7.5-8.5-7.5-9.5-4.5-9.5-4.5 5-1 5-1 11 8 11 8-8.5-10-8.5-10-.5-9.5-.5-9.5-.5-2-.5-2-.5-1.5-.5-1.5v-1-1l.5-1 .5-1 .5-1.5.5-1.5.5-.5.5-.5.5-1 .5-1v-2-2-1-1-1-1l.5-.5.5-.5v-1.5-1.5l-.5-.5-.5-.5v-1.5-1.5l-1.5-.5-1.5-.5v2 2l.5 1.5.5 1.5.5 2 .5 2-.5 1.5-.5 1.5-.5.5-.5.5-.5-1-.5-1v-1-1-1-1l-.5-1-.5-1h-2-2l-.5.5-.5.5v-1.5-1.5l-.5-1.5-.5-1.5h-1-1l-.5-1-.5-1-.5-1.5-.5-1.5-1 1-1 1-2-.5-2-.5 1 15 1 15-10 5-10 5-1-1-1-1-4-10.5-4-10.5-6.5-3.5-6.5-3.5 5.5-13.5 5.5-13.5.5-1 .5-1-.5-1.5-.5-1.5-1-2.5-1-2.5-12.5 21-12.5 21 1-.5 1-.5v-2-2l.5-1.5.5-1.5-.5-.5-.5-.5 1-.5 1-.5.5-1.5.5-1.5-.5-2-.5-2 2-1 2-1 2 5 2 5 12 20 12 20 11.5 10.5 11.5 10.5 8.5 10.5 8.5 10.5 8.5 10 8.5 10 11 6.5 11 6.5"/></g><path d="m210 680l3 1 1.5-.5 1.5-.5h2.5 2.5l2.5-.5 2.5-.5.5-1 .5-1-1.5-.5-1.5-.5-2-.5-2-.5-1.5-.5-1.5-.5-1.5 1-1.5 1-1 1-1 1-1 1-1 1" style="fill:#121a0e;stroke:#121a0e"/><path d="m281 678v1l1-.5 1-.5 1.5-.5 1.5-.5 1-.5 1-.5v-3-3-2.5-2.5l-1-1-1-1-.5-1-.5-1-.5-.5-.5-.5h-1-1l-.5-.5-.5-.5-1-1-1-1-1.5-.5-1.5-.5.5 1 .5 1 .5.5.5.5.5.5.5.5 1.5.5 1.5.5.5 1 .5 1 .5.5.5.5 1 .5 1 .5-.5 1-.5 1-.5 3-.5 3-1 1-1 1-.5 1.5-.5 1.5" style="fill:#534a2c;stroke:#534a2c"/><path d="m10 675l4 1v-.5-.5l-.5-2-.5-2-.5-.5-.5-.5-.5-.5-.5-.5-.5-.5-.5-.5-.5-1-.5-1v-1-1l-.5-.5-.5-.5-1-.5-1-.5.5 1.5.5 1.5 1 1 1 1v1 1l.5.5.5.5.5.5.5.5h-1-1-1.5-1.5l-1-1-1-1-2-1.5-2-1.5v1.5 1.5 1.5 1.5l2 1 2 1 1.5-.5 1.5-.5 1.5 1 1.5 1" style="fill:#362e17;stroke:#362e17"/><path d="m14 675v1l1-.5 1-.5 2-.5 2-.5v-.5-.5l-2-12.5-2-12.5-8-19.5-8-19.5v2 2 2.5 2.5 2 2 2 2 2.5 2.5 2 2 2.5 2.5 2 2 2.5 2.5 2 2l1.5 1 1.5 1 .5.5.5.5v1 1l.5.5.5.5.5 1.5.5 1.5 1 .5 1 .5.5.5.5.5v1 1l.5 1 .5 1 .5.5.5.5.5.5.5.5.5.5.5.5.5 2 .5 2" style="fill:#121a0e;stroke:#121a0e"/><path d="m20 673v1l22.5-14 22.5-14v-.5-.5l-1-1-1-1-.5-1-.5-1v-1-1l-.5-.5-.5-.5v-1-1l-1-.5-1-.5-.5-.5-.5-.5-.5-.5-.5-.5v-1-1l-.5-1-.5-1-.5-.5-.5-.5-.5-.5-.5-.5v-1-1l-.5-.5-.5-.5-.5-1-.5-1-.5-.5-.5-.5-.5-.5-.5-.5-.5-1.5-.5-1.5-.5-.5-.5-.5-.5-1-.5-1-.5-1-.5-1v-2.5-2.5l1-1 1-1 2-.5 2-.5.5-1.5.5-1.5 1-.5 1-.5.5-1 .5-1 .5-.5.5-.5-1.5-.5-1.5-.5h-1.5-1.5-2-2l-1.5-1-1.5-1v-1-1l2-.5 2-.5 1.5-.5 1.5-.5 1-1 1-1h1.5 1.5 2 2l2 .5 2 .5.5 1.5.5 1.5-.5 1-.5 1 1.5 1.5 1.5 1.5 1 1 1 1 .5 1.5.5 1.5.5 2 .5 2-.5 1.5-.5 1.5-1.5 1-1.5 1-1.5-.5-1.5-.5-2 .5-2 .5-1 1-1 1-1.5-.5-1.5-.5-.5-1-.5-1h-1.5-1.5-1-1v1 1l.5.5.5.5.5.5.5.5-1-.5-1-.5-.5.5-.5.5.5 1.5.5 1.5 10.5 13 10.5 13 12-9 12-9 11-7.5 11-7.5h-1.5-1.5l-5-14.5-5-14.5-4.5-14-4.5-14-6-12-6-12-15 2-15 2-12.5 6-12.5 6-13.5 2-13.5 2v19.5 19.5 10.5 10.5l8 19.5 8 19.5 2 12.5 2 12.5" style="fill:#362e17;stroke:#362e17"/><path d="m9 671h2l-.5-.5-.5-.5-.5-.5-.5-.5v-1-1l-1-1-1-1-.5-1.5-.5-1.5-.5-1.5-.5-1.5-.5-.5-.5-.5v-1-1l-.5-.5-.5-.5-1.5-1-1.5-1v3 3 2.5 2.5 1 1l2 1.5 2 1.5 1 1 1 1h1.5 1.5" style="fill:#534a2c;stroke:#534a2c"/><path d="m130 667l5-10 1.5-7.5 1.5-7.5-1.5-3.5-1.5-3.5-.5-1-.5-1-.5 2-.5 2 .5 1.5.5 1.5-.5 2-.5 2-.5 1.5-.5 1.5v1.5 1.5l-.5 1-.5 1v2.5 2.5 2.5 2.5l-.5 1.5-.5 1.5v1 1" style="fill:#362e17;stroke:#362e17"/><path d="m124 665h2l.5-.5.5-.5v-1-1-1.5-1.5l.5-1.5.5-1.5-1.5-2.5-1.5-2.5-2 6-2 6 1.5 1 1.5 1" style="fill:#989875;stroke:#989875"/><path d="m412 659h2 1 1l.5-.5.5-.5.5-.5.5-.5.5-1 .5-1 1.5-.5 1.5-.5v-2.5-2.5l-.5-1-.5-1-1 2-1 2h-1-1l-12-6.5-12-6.5-8.5-8.5-8.5-8.5-9.5-9.5-9.5-9.5 5.5 2.5 5.5 2.5 16 11.5 16 11.5-1-1.5-1-1.5-19.5-15.5-19.5-15.5.5 9.5.5 9.5 8.5 10 8.5 10 15.5 11.5 15.5 11.5 2 .5 2 .5" style="fill:#534a2c;stroke:#534a2c"/><path d="m405 658h3l-15.5-11.5-15.5-11.5-11-8-11-8-5 1-5 1 9.5 4.5 9.5 4.5 8.5 7.5 8.5 7.5 12 6.5 12 6.5" style="fill:#553507;stroke:#553507"/><path d="m426 657l3 1 .5-.5.5-.5h1 1v-1-1-1.5-1.5l-.5-.5-.5-.5v-1-1l.5-.5.5-.5.5 1 .5 1 1 .5 1 .5v-2-2-1-1-2-2l-.5-22-.5-22-1-16.5-1-16.5-4.5-10.5-4.5-10.5-8.5-9.5-8.5-9.5-13-6.5-13-6.5-2-.5-2-.5-2 1-2 1-1 1-1 1-1 1-1 1-1 .5-1 .5-8.5 10-8.5 10-4.5 11.5-4.5 11.5 2 .5 2 .5 1-1 1-1 1 .5 1 .5 1 1 1 1 .5.5.5.5 1 .5 1 .5 1 1 1 1 1-1.5 1-1.5.5-.5.5-.5 1.5.5 1.5.5 5.5 5.5 5.5 5.5h8 8l.5 9.5.5 9.5 3.5 6.5 3.5 6.5 2 10.5 2 10.5h-1-1l1 1.5 1 1.5 1 1 1 1 1.5 1 1.5 1h2 2l1 1 1 1 1.5 1 1.5 1 1.5.5 1.5.5.5 2 .5 2 1 1 1 1 .5 1 .5 1 .5 1 .5 1v2.5 2.5l.5.5.5.5 1.5 1 1.5 1" style="fill:#0e3c42;stroke:#0e3c42"/><path d="m274 655l2 1-1-1.5-1-1.5-.5-1-.5-1-.5-.5-.5-.5-.5-1.5-.5-1.5-.5-1-.5-1v-1-1l-.5-.5-.5-.5v-1-1l-.5-1-.5-1 .5-.5.5-.5v-1-1-1-1l-.5-1.5-.5-1.5.5-1 .5-1 .5-.5.5-.5v-1.5-1.5l-.5-1-.5-1-.5 1-.5 1-.5 1.5-.5 1.5-.5 2-.5 2v2 2l.5 3 .5 3 .5 1.5.5 1.5.5.5.5.5.5 1 .5 1v1 1l.5.5.5.5v1 1l.5 1 .5 1 1 .5 1 .5" style="fill:#362e17;stroke:#362e17"/><path d="m582 654l2-13-3.5 2.5-3.5 2.5 2.5 4 2.5 4" style="fill:#615e42;stroke:#615e42"/><path d="m131 651v1l.5-1 .5-1v-1.5-1.5l.5-1.5.5-1.5.5-2 .5-2-.5-1.5-.5-1.5.5-2 .5-2 .5 1 .5 1v-1.5-1.5-2-2l-1.5-1-1.5-1-1 1-1 1 .5 2 .5 2 .5 1.5.5 1.5.5 2 .5 2-.5 1.5-.5 1.5-.5 2-.5 2v2 2 .5.5" style="fill:#534a2c;stroke:#534a2c"/><path d="m417 651h2l1-2 1-2-.5-1-.5-1-1-1-1-1-.5-2-.5-2-1.5-.5-1.5-.5-1.5-1-1.5-1-1-1-1-1h-2-2l-1.5-1-1.5-1-1-1-1-1-16-11.5-16-11.5-5.5-2.5-5.5-2.5 9.5 9.5 9.5 9.5 8.5 8.5 8.5 8.5 12 6.5 12 6.5" style="fill:#615e42;stroke:#615e42"/><g style="fill:#534a2c;stroke:#534a2c"><path d="m65 645v1l.5-1 .5-1 2-.5 2-.5-10.5-13-10.5-13 .5 1.5.5 1.5.5.5.5.5.5.5.5.5.5 1 .5 1 .5.5.5.5v1 1l.5.5.5.5.5.5.5.5.5 1 .5 1v1 1l.5.5.5.5.5.5.5.5 1 .5 1 .5v1 1l.5.5.5.5v1 1l.5 1 .5 1 1 1 1 1"/><path d="m266 640l1 1-.5-3-.5-3v-2-2l.5-2 .5-2 .5-1.5.5-1.5.5-1 .5-1 7-23.5 7-23.5 12.5-21 12.5-21 1.5 1 1.5 1 .5.5.5.5.5.5.5.5.5.5.5.5 1 .5 1 .5 1.5-.5 1.5-.5.5-.5.5-.5 1-.5 1-.5-.5 1.5-.5 1.5v1 1l-.5 1-.5 1 11.5-7 11.5-7-4.5 10.5-4.5 10.5v2 2 1 1l.5.5.5.5.5.5.5.5v1.5 1.5l.5.5.5.5v1 1h-1.5-1.5-1.5-1.5-1-1l-4.5-10.5-4.5-10.5-1 1-1 1h-1-1l-.5 1-.5 1h-1.5-1.5l-1-2-1-2-5.5 13.5-5.5 13.5 6.5 3.5 6.5 3.5 4 10.5 4 10.5.5-1 .5-1 1-1 1-1 1-1.5 1-1.5h2 2l1-1 1-1 2 .5 2 .5 1 1 1 1 2.5-1 2.5-1-1-15-1-15 4.5-11.5 4.5-11.5 8.5-10 8.5-10-.5-1-.5-1-.5-1-.5-1h-1.5-1.5l-1 1-1 1-1.5 1-1.5 1-.5 1.5-.5 1.5-1 1-1 1-.5.5-.5.5-1 .5-1 .5h-1.5-1.5l-2.5-8-2.5-8-1-29-1-29-1.5 28-1.5 28-.5-2.5-.5-2.5h-1-1l-1.5-1-1.5-1-1-1-1-1-.5-1.5-.5-1.5-1-1.5-1-1.5-1-2-1-2-7.5-4.5-7.5-4.5-6.5 5-6.5 5-2.5 4-2.5 4-2-2-2-2-1.5-.5-1.5-.5-.5-1-.5-1v-1-1l-1-.5-1-.5-.5-1.5-.5-1.5-.5-1.5-.5-1.5v-1-1-1.5-1.5l.5-1.5.5-1.5h1 1l1-.5 1-.5 1.5-.5 1.5-.5.5-.5.5-.5 1-.5 1-.5 1-1 1-1 .5-.5.5-.5.5-1 .5-1-1.5 1-1.5 1-6 10-6 10 10.5 14.5 10.5 14.5h7 7l5 9.5 5 9.5.5-1 .5-1 1-.5 1-.5-1-.5-1-.5-1.5.5-1.5.5-2-.5-2-.5-1.5-.5-1.5-.5.5-1.5.5-1.5-1.5-1-1.5-1-1-1-1-1-1.5-1-1.5-1h-2-2l.5.5.5.5.5 1 .5 1 .5 1.5.5 1.5-2 .5-2 .5h-2-2-2-2-1-1-1.5-1.5l-1.5.5-1.5.5-.5.5-.5.5-.5 1-.5 1h-1.5-1.5l-.5-1.5-.5-1.5-.5-1-.5-1v-2-2l-.5-.5-.5-.5-.5-1-.5-1-.5-1.5-.5-1.5-1-1.5-1-1.5v-2-2l-.5 1.5-.5 1.5v1.5 1.5l5.5 9 5.5 9 9 1 9 1-9 10.5-9 10.5-2.5 14.5-2.5 14.5-4 13-4 13-3 15-3 15"/></g><path d="m272 633l29-9 9-9 9-9-12-20-12-20-.5-.5-.5-.5-.5-1.5-.5-1.5-.5-1.5-.5-1.5-.5-1.5-.5-1.5-2 1-2 1 .5 2 .5 2-.5 1.5-.5 1.5-1 .5-1 .5.5.5.5.5-.5 1.5-.5 1.5v2 2l-1 .5-1 .5-7 23.5-7 23.5.5 1 .5 1 1-1 1-1v1 1l.5.5.5.5.5 1 .5 1v1 1h-1-1l.5.5.5.5-.5 1.5-.5 1.5" style="fill:#0e3c42;stroke:#0e3c42"/><path d="m400 627l-4-21-3.5-6.5-3.5-6.5-.5-9.5-.5-9.5h-8-8l-5.5-5.5-5.5-5.5v1.5 1.5l.5.5.5.5v1.5 1.5l-.5.5-.5.5v1 1 1 1 2 2l-.5 1-.5 1-.5.5-.5.5-.5 1.5-.5 1.5-.5 1-.5 1v1 1l.5 1.5.5 1.5.5 2 .5 2 19.5 15.5 19.5 15.5h1 1" style="fill:#121a0e;stroke:#121a0e"/><path d="m48 616l1 1-.5-1.5-.5-1.5.5-.5.5-.5 1 .5 1 .5-.5-.5-.5-.5-.5-.5-.5-.5v-1-1h1 1 1.5 1.5l1.5-.5 1.5-.5-.5-.5-.5-.5-.5-1-.5-1 .5-.5.5-.5v-1.5-1.5l-.5-1-.5-1-1 .5-1 .5-.5 1.5-.5 1.5-2 .5-2 .5-1 1-1 1v2.5 2.5l.5 1 .5 1 .5 1 .5 1" style="fill:#534a2c;stroke:#534a2c"/><path d="m133 616l15-17-1-.5-1-.5-1.5-.5-1.5-.5-1-.5-1-.5h-.5-.5l1 .5 1 .5 1.5 1 1.5 1 1 1 1 1v1 1h-1-1l-.5-1-.5-1-1.5-.5-1.5-.5h-1-1-1.5-1.5l-1.5.5-1.5.5-.5.5-.5.5-1 .5-1 .5-.5 2.5-.5 2.5h1 1l.5-.5.5-.5v-1-1l.5-.5.5-.5 1 .5 1 .5.5.5.5.5.5.5.5.5.5.5.5.5-1.5.5-1.5.5-1 .5-1 .5-.5.5-.5.5-.5 1.5-.5 1.5 1 1 1 1" style="fill:#95b0a7;stroke:#95b0a7"/><path d="m55 612l3 1 1-1 1-1 2-.5 2-.5 1.5.5 1.5.5 1.5-1 1.5-1 .5-1.5.5-1.5-.5-2-.5-2-.5-1.5-.5-1.5-1-1-1-1-1.5-1.5-1.5-1.5v-.5-.5l-1.5-.5-1.5-.5h-1-1l-1 .5-1 .5 1.5.5 1.5.5-2 .5-2 .5-1 .5-1 .5 1.5.5 1.5.5-.5.5-.5.5-.5 1-.5 1 .5 1 .5 1h1.5 1.5l.5.5.5.5.5 1 .5 1 .5.5.5.5h1 1 1 1l1-.5 1-.5v1 1h-1-1l-.5.5-.5.5-1 .5-1 .5h-1-1-1-1-1-1l-1.5.5-1.5.5.5 1 .5 1" style="fill:#0e3c42;stroke:#0e3c42"/><g style="fill:#121a0e;stroke:#121a0e"><path d="m113 610h3l1-.5 1-.5 1-1.5 1-1.5v-1-1l-.5-2-.5-2-1-1-1-1-.5-2-.5-2v-2-2-1.5-1.5l-1.5-1.5-1.5-1.5v-2-2l-1-1.5-1-1.5-.5-1.5-.5-1.5.5-1 .5-1-1-.5-1-.5-.5-1-.5-1v-1.5-1.5l-.5-.5-.5-.5-.5-1-.5-1v-2-2l-1-1.5-1-1.5-.5-1.5-.5-1.5v-1.5-1.5-1.5-1.5l-1-.5-1-.5-4-11.5-4-11.5-13-2-13-2-14.5-7-14.5-7-1.5 1-1.5 1 .5 1.5.5 1.5 4 7.5 4 7.5-10.5 2-10.5 2-1-1.5-1-1.5-2-.5-2-.5h-1-1l-2 .5-2 .5-1.5.5-1.5.5-2-.5-2-.5h-2-2v2 2 2.5 2.5 2 2 2.5 2.5 2 2 .5.5l13.5-2 13.5-2 12.5-6 12.5-6 15-2 15-2 6 12 6 12 4.5 14 4.5 14 5 14.5 5 14.5"/><path d="m468 610l2-21-2.5 1.5-2.5 1.5 1.5 9 1.5 9"/></g><path d="m56 608l1 1h1 1 1 1 1 1l1-.5 1-.5.5-.5.5-.5h1 1v-1-1l-1 .5-1 .5h-1-1-1-1l-.5-.5-.5-.5-.5-1-.5-1-.5-.5-.5-.5h-1.5-1.5v1.5 1.5l-.5.5-.5.5.5 1 .5 1" style="fill:#615e42;stroke:#615e42"/><path d="m128 607l1 1 .5-2.5.5-2.5 1-.5 1-.5.5-.5.5-.5 1.5-.5 1.5-.5h1.5 1.5 1 1l1.5.5 1.5.5.5 1 .5 1h1 1v-1-1l-1-1-1-1-1.5-1-1.5-1-1-.5-1-.5h-2-2l-.5.5-.5.5-1.5.5-1.5.5-1 .5-1 .5v1 1l-.5.5-.5.5v1 1l-.5 1.5-.5 1.5" style="fill:#bdbf9e;stroke:#bdbf9e"/><g style="fill:#7a7756;stroke:#7a7756"><path d="m454 607h2v-1.5-1.5-1-1-2-2l-1-1.5-1-1.5-1.5.5-1.5.5-1-.5-1-.5 1 2 1 2 .5 1.5.5 1.5.5 1 .5 1 .5 1.5.5 1.5"/><path d="m193 603l-2-15-4 5-4 5 5 2.5 5 2.5"/></g><g style="fill:#553507;stroke:#553507"><path d="m322 600l20-10-2.5 1-2.5 1-1-1-1-1-2-.5-2-.5-1 1-1 1h-2-2l-1 1.5-1 1.5-1 1-1 1-.5 1-.5 1 1 1 1 1"/><path d="m121 598l3 1 1-1 1-1 1-1.5 1-1.5 1-.5 1-.5h-2-2l-.5.5-.5.5v1 1l-1.5-.5-1.5-.5-5-14-5-14-4.5-13.5-4.5-13.5-12.5-14-12.5-14-1 .5-1 .5-1 1-1 1 14.5 16 14.5 16 1 1 1 1v2 2l.5.5.5.5v1.5 1.5l.5 1.5.5 1.5.5.5.5.5.5 1 .5 1 .5 1.5.5 1.5v1 1l.5 2 .5 2-.5 1-.5 1 .5 1.5.5 1.5 1 1.5 1 1.5v2 2l1.5 1.5 1.5 1.5 1 1.5 1 1.5v1 1l.5 1.5.5 1.5 1 1.5 1 1.5"/></g><path d="m51 596h3l1-.5 1-.5 2-.5 2-.5-1.5-.5-1.5-.5 1-.5 1-.5h1 1l1.5.5 1.5.5v.5.5l.5-1 .5-1-.5-1.5-.5-1.5-2-.5-2-.5h-2-2-1.5-1.5l-1 1-1 1-1.5.5-1.5.5-2 .5-2 .5v1 1l1.5 1 1.5 1h2 2" style="fill:#534a2c;stroke:#534a2c"/><path d="m122 595l3 1v-1-1l.5-.5.5-.5h2 2l1-.5 1-.5h2.5 2.5 1 1 3 3v-18.5-18.5l-.5-16.5-.5-16.5-.5-16.5-.5-16.5-.5-19-.5-19v-17-17l.5-17 .5-17v-.5-.5l-1.5-16-1.5-16-1-17-1-17-.5-18-.5-18-1.5-27-1.5-27-16 1-16 1-14 1-14 1-15.5 2.5-15.5 2.5-21.5 2-21.5 2v19 19 20 20 20 20 20 20 20 20 20 20 8.5 8.5l1.5 1 1.5 1 .5 1.5.5 1.5 1 1.5 1 1.5h1 1l.5 2 .5 2-.5 1.5-.5 1.5.5 1.5.5 1.5.5.5.5.5-.5 1-.5 1-1 .5-1 .5-1-1-1-1-1-1-1-1v-2.5-2.5h-1.5-1.5v3 3 2 2 1.5 1.5l2 .5 2 .5 1.5-.5 1.5-.5 1.5-.5 1.5-.5.5-.5.5-.5 1 .5 1 .5 1.5.5 1.5.5.5-.5.5-.5.5-1.5.5-1.5 3.5-9.5 3.5-9.5 2 8 2 8 1-.5 1-.5.5-.5.5-.5v1 1l-.5.5-.5.5 1 .5 1 .5 8.5-10.5 8.5-10.5 1-.5 1-.5 2 .5 2 .5.5-1.5.5-1.5.5-.5.5-.5.5.5.5.5v1.5 1.5l1 .5 1 .5 6.5 7 6.5 7 2 1.5 2 1.5 12.5 14 12.5 14 4.5 13.5 4.5 13.5 5 14 5 14" style="fill:#831f05;stroke:#831f05"/><path d="m146 595l1 1-.5-33-.5-33-.5-18-.5-18-.5-17.5-.5-17.5-.5-16.5-.5-16.5.5-18 .5-18v-.5-.5l.5-1 .5-1-.5-1-.5-1-.5-1-.5-1-.5 17-.5 17v17 17l.5 19 .5 19 .5 16.5.5 16.5.5 16.5.5 16.5v18.5 18.5l.5 1.5.5 1.5" style="fill:#7d4827;stroke:#7d4827"/><path d="m251 595l3 1 .5-1.5.5-1.5 1-1.5 1-1.5-1.5-.5-1.5-.5-1.5-1-1.5-1h-1-1l1 1.5 1 1.5-1.5.5-1.5.5-1 1-1 1 2 .5 2 .5.5.5.5.5" style="fill:#989875;stroke:#989875"/><g style="fill:#615e42;stroke:#615e42"><path d="m445 592h2l.5-1.5.5-1.5h1.5 1.5l.5-1.5.5-1.5v-1.5-1.5l-1.5.5-1.5.5-1.5 1-1.5 1h-2-2l-.5 1.5-.5 1.5 1 1.5 1 1.5h1 1"/><path d="m313 587h2l.5-1 .5-1v-.5-.5-2.5-2.5l1-1 1-1 .5 1 .5 1 .5 1.5.5 1.5 2 .5 2 .5v-2-2-1-1l-1.5-1-1.5-1-.5-1.5-.5-1.5-.5-.5-.5-.5-1 1.5-1 1.5-.5 2-.5 2-1.5.5-1.5.5-.5 2-.5 2 .5 1.5.5 1.5v.5.5"/></g><path d="m316 584v1l8.5-2.5 8.5-2.5-7-4.5-7-4.5.5.5.5.5.5 1.5.5 1.5 1.5 1 1.5 1v1 1 2 2l-2-.5-2-.5-.5-1.5-.5-1.5-.5-1-.5-1-1 1-1 1v2.5 2.5" style="fill:#7d4827;stroke:#7d4827"/><path d="m358 577l1-1 .5-1.5.5-1.5-.5-2-.5-2-.5-1.5-.5-1.5v-2-2l-.5.5-.5.5-1 1.5-1 1.5-1-1-1-1-1-.5-1-.5-.5-.5-.5-.5-1-1-1-1-1-.5-1-.5.5 1.5.5 1.5.5 1 .5 1h1 1l.5 1.5.5 1.5v1.5 1.5l.5-.5.5-.5h2 2l.5 1 .5 1v1 1 1 1l.5 1 .5 1" style="fill:#534a2c;stroke:#534a2c"/><path d="m705 577l1-1h1 1l.5.5.5.5.5-.5.5-.5-.5-1.5-.5-1.5-.5-1-.5-1-.5-.5-.5-.5-.5-1.5-.5-1.5-.5-1-.5-1h1 1 1 1 .5.5l1 .5 1 .5v-3-3-2-2-2.5-2.5-2-2-2.5-2.5-1.5-1.5l-.5-.5-.5-.5-15-2-15-2-7-11-7-11-1-17-1-17-1.5-16.5-1.5-16.5-.5-16-.5-16-1.5-15.5-1.5-15.5-.5-16.5-.5-16.5-1-16-1-16-1-16-1-16-1.5-14-1.5-14-1.5-14.5-1.5-14.5v-14-14l-2.5-12-2.5-12 1.5-8.5 1.5-8.5-4.5-9.5-4.5-9.5 3-12.5 3-12.5-1.5-12.5-1.5-12.5-.5-12.5-.5-12.5-3.5-7-3.5-7v-8-8l1-7 1-7-12-10.5-12-10.5h-18.5-18.5-19.5-19.5-18-18-2-2l-22 12.5-22 12.5-.5-1-.5-1-.5-1.5-.5-1.5-.5-2-.5-2v-2-2-1.5-1.5l.5-1.5.5-1.5-.5-3-.5-3h-3.5-3.5-2-2-2-2-2.5-2.5-2-2-2.5-2.5-1-1l-3.5 10.5-3.5 10.5-1 10-1 10 6.5 6 6.5 6 1.5 10.5 1.5 10.5 3.5 12 3.5 12-3 12-3 12-2.5 10.5-2.5 10.5-7.5 22.5-7.5 22.5-5.5-4.5-5.5-4.5-4-3-4-3-2.5-10.5-2.5-10.5-5-8-5-8-4-9.5-4-9.5-1-15-1-15 1-14 1-14 7.5-10 7.5-10-2.5-19.5-2.5-19.5h-20.5-20.5-20-20-20-20-20-20-20-20-20-20-6.5-6.5l1.5.5 1.5.5.5.5.5.5.5 1 .5 1 .5 1.5.5 1.5-.5 2-.5 2-.5 1.5-.5 1.5v1.5 1.5l.5 1.5.5 1.5-.5 1.5-.5 1.5v1 1l-.5 1-.5 1-1 .5-1 .5-1.5-14-1.5-14h-2.5-2.5-2-2-2.5-2.5-2-2-2.5-2.5-2-2-2.5-2.5-.5-.5l-1 .5-1 .5v1 1l.5 1 .5 1v2 2l.5.5.5.5-.5.5-.5.5-.5.5-.5.5.5 1 .5 1 .5.5.5.5.5.5.5.5v1 1l-.5 1-.5 1 .5.5.5.5.5.5.5.5-.5.5-.5.5-1.5-.5-1.5-.5h-1.5-1.5l-.5-.5-.5-.5v-1.5-1.5l-1-1-1-1-.5-1.5-.5-1.5.5-.5.5-.5.5-1 .5-1 .5-.5.5-.5-.5-.5-.5-.5-.5-1-.5-1 1.5-.5 1.5-.5v-1-1-1.5-1.5h-20-20-18.5-18.5v1.5 1.5 20 20 19.5 19.5 1.5 1.5l1.5 19.5 1.5 19.5v-1.5-1.5l-.5-1-.5-1v-1-1-1-1l-1-1-1-1v19 19 18 18 20 20 3 3l14.5-2.5 14.5-2.5 13-3 13-3h15 15l17-2.5 17-2.5 9.5 3.5 9.5 3.5 1 17 1 17 .5 18 .5 18v32 32 2 2l10 7.5 10 7.5 15-1 15-1 17-1 17-1 17-.5 17-.5 11.5-5.5 11.5-5.5 11.5-5.5 11.5-5.5-2 14.5-2 14.5 3 11 3 11 12-1 12-1 5.5-3 5.5-3 3 9 3 9 3 7 3 7 2-6.5 2-6.5 2 5 2 5 1 14 1 14 1.5-12 1.5-12 1.5 4.5 1.5 4.5 2.5 10.5 2.5 10.5v-15.5-15.5l1-5 1-5 1 14 1 14 3.5 14 3.5 14 7-4 7-4 5 2 5 2 2 12.5 2 12.5 3.5-10.5 3.5-10.5 4.5-6.5 4.5-6.5 1-4.5 1-4.5 5-2 5-2 1-6 1-6 15-.5 15-.5 16.5-.5 16.5-.5 14.5.5 14.5.5 2.5 13 2.5 13 1.5 3.5 1.5 3.5 2-10 2-10 1-9 1-9-1-9.5-1-9.5 1.5-11.5 1.5-11.5v-11-11l2.5-8.5 2.5-8.5.5-7.5.5-7.5 9.5 2 9.5 2 .5 14.5.5 14.5 1 14 1 14 1 13 1 13 2.5 5 2.5 5 4.5 6.5 4.5 6.5 2.5 5.5 2.5 5.5v5 5l10 5.5 10 5.5-1.5 3.5-1.5 3.5 3.5 10.5 3.5 10.5 8.5 6 8.5 6-.5-6.5-.5-6.5 3.5-3.5 3.5-3.5 3.5 9 3.5 9-3 5-3 5-7-1-7-1 5 1.5 5 1.5 3 4 3 4-2.5 5.5-2.5 5.5 4 1.5 4 1.5 7.5 4.5 7.5 4.5 4.5-3.5 4.5-3.5.5 10 .5 10 4.5 3.5 4.5 3.5 6-7 6-7 3 9 3 9" style="fill:#989875;stroke:#989875"/><path d="m193 574h2l-.5-1.5-.5-1.5 1.5-1 1.5-1-.5-1.5-.5-1.5v-1.5-1.5l-1.5-.5-1.5-.5-1 1.5-1 1.5-.5 1.5-.5 1.5v2 2l1.5 1 1.5 1" style="fill:#7a7756;stroke:#7a7756"/><path d="m109 571l2 1-.5-2-.5-2v-1-1l-.5-1.5-.5-1.5-.5-1-.5-1-.5-.5-.5-.5-.5-1.5-.5-1.5v-1.5-1.5l-.5-.5-.5-.5v-2-2l-1-1-1-1v1.5 1.5 1.5 1.5l.5 1.5.5 1.5 1 1.5 1 1.5v2 2l.5 1 .5 1 .5.5.5.5v1.5 1.5l.5 1 .5 1" style="fill:#362e17;stroke:#362e17"/><path d="m294 565l1 1-2-5-2-5 .5 1.5.5 1.5.5 1.5.5 1.5.5 1.5.5 1.5" style="fill:#121a0e;stroke:#121a0e"/><path d="m329 564h2 1.5 1.5v-.5-.5-6.5-6.5l4.5-10.5 4.5-10.5-11.5 7-11.5 7 4.5 10.5 4.5 10.5" style="fill:#7d4827;stroke:#7d4827"/><g style="fill:#7a7756;stroke:#7a7756"><path d="m334 563v1h1.5 1.5v-1-1l-.5-.5-.5-.5v-1.5-1.5l-.5-.5-.5-.5-.5-.5-.5-.5v-1-1-2-2 6.5 6.5"/><path d="m214 558h2l.5-1.5.5-1.5-1.5-1-1.5-1-1-1-1-1-2-.5-2-.5-1.5.5-1.5.5 1 1.5 1 1.5h1 1l.5 1.5.5 1.5 2 .5 2 .5"/></g><path d="m598 549l-19-4 4 2 4 2h5.5 5.5" style="fill:#615e42;stroke:#615e42"/><path d="m312 547h3l.5-1 .5-1h1 1l1-1 1-1 .5-1 .5-1v-1-1l.5-1.5.5-1.5-1 .5-1 .5-.5.5-.5.5-1.5.5-1.5.5-1-.5-1-.5-.5-.5-.5-.5-.5-.5-.5-.5-.5-.5-.5-.5-1.5-1-1.5-1 1 2.5 1 2.5.5 1.5.5 1.5-.5 1-.5 1 1 2 1 2" style="fill:#553507;stroke:#553507"/><path d="m101 546l2 1-14.5-16-14.5-16h-2-2-.5-.5l-1.5.5-1.5.5-.5.5-.5.5h-1-1l-1.5-.5-1.5-.5-.5-1-.5-1-1-1.5-1-1.5.5-1.5.5-1.5.5-1 .5-1 .5-1.5.5-1.5-.5-2-.5-2-1.5-.5-1.5-.5h-.5-.5l-.5 2.5-.5 2.5-1 1-1 1-2 .5-2 .5-1.5.5-1.5.5-1.5-1-1.5-1-1.5-.5-1.5-.5-.5.5-.5.5 14.5 7 14.5 7 13 2 13 2 4 11.5 4 11.5" style="fill:#362e17;stroke:#362e17"/><path d="m529 542l1 1-1.5-27.5-1.5-27.5 1 27 1 27" style="fill:#534a2c;stroke:#534a2c"/><path d="m711 538l1 1v-1.5-1.5l-.5-.5-.5-.5-15.5-2-15.5-2-5-14.5-5-14.5-1-16-1-16-1-16-1-16-1-17.5-1-17.5-1-16-1-16-1-17-1-17-1-16.5-1-16.5-1-17-1-17-1-17-1-17-1-17.5-1-17.5-1-17-1-17-1-17-1-17-1.5-18-1.5-18-1-17-1-17-2-31.5-2-31.5h-2-2-2.5-2.5-2-2-2-2-2.5-2.5-2-2-2-2l12 10.5 12 10.5-1 7-1 7v8 8l3.5 7 3.5 7 .5 12.5.5 12.5 1.5 12.5 1.5 12.5-3 12.5-3 12.5 4.5 9.5 4.5 9.5-1.5 8.5-1.5 8.5 2.5 12 2.5 12v14 14l1.5 14.5 1.5 14.5 1.5 14 1.5 14 1 16 1 16 1 16 1 16 .5 16.5.5 16.5 1.5 15.5 1.5 15.5.5 16 .5 16 1.5 16.5 1.5 16.5 1 17 1 17 7 11 7 11 15 2 15 2" style="fill:#95b0a7;stroke:#95b0a7"/><path d="m711 535l1 1v-18.5-18.5-18-18-20-20-20-20-20-20-20-20-20-20-20-20-20-20-19.5-19.5-18-18-20-20-20-20-14-14h-6-6-20-20-10.5-10.5l2 31.5 2 31.5 1 17 1 17 1.5 18 1.5 18 1 17 1 17 1 17 1 17 1 17.5 1 17.5 1 17 1 17 1 17 1 17 1 16.5 1 16.5 1 17 1 17 1 16 1 16 1 17.5 1 17.5 1 16 1 16 1 16 1 16 5 14.5 5 14.5 15.5 2 15.5 2" style="fill:#62e5f5;stroke:#62e5f5"/><path d="m324 533l-10-19h-7-7l.5 1 .5 1h1 1 1.5 1.5l.5.5.5.5.5 1 .5 1 1.5 1 1.5 1 1 1 1 1 1.5 1 1.5 1-.5 1.5-.5 1.5 1.5.5 1.5.5 2 .5 2 .5 1.5-.5 1.5-.5 1 .5 1 .5-1 .5-1 .5-.5 1-.5 1" style="fill:#553507;stroke:#553507"/><g style="fill:#362e17;stroke:#362e17"><path d="m282 530h3l.5-1 .5-1 .5-.5.5-.5 1.5-.5 1.5-.5h1.5 1.5 1 1 2 2 2 2l2-.5 2-.5-.5-1.5-.5-1.5-.5-1-.5-1-.5-.5-.5-.5h2 2l-.5-1-.5-1-.5-.5-.5-.5h-1.5-1.5-1-1l-.5-1-.5-1-10.5-14.5-10.5-14.5 6-10 6-10v-.5-.5l-.5-1-.5-1v-1-1l-1-1-1-1-.5-.5-.5-.5-.5-1-.5-1 1.5-12 1.5-12 13.5-6 13.5-6-4-3-4-3-7.5 2.5-7.5 2.5-9 9-9 9-5 28-5 28 .5 1 .5 1v1 1l.5.5.5.5v1 1l.5.5.5.5.5 1 .5 1 .5.5.5.5.5.5.5.5v1 1l.5.5.5.5v1.5 1.5l.5.5.5.5.5 1.5.5 1.5v-1.5-1.5l.5-1.5.5-1.5v2 2l1 1.5 1 1.5.5 1.5.5 1.5.5 1 .5 1 .5.5.5.5v2 2l.5 1 .5 1 .5 1.5.5 1.5"/><path d="m23 529l21-4-4-7.5-4-7.5.5 1 .5 1 .5.5.5.5h1.5 1.5l1 1 1 1 .5.5.5.5-1 .5-1 .5-1.5.5-1.5.5-1 1-1 1h-2.5-2.5-2-2l-1.5.5-1.5.5-2 .5-2 .5h-2-2l-2 .5-2 .5h-2-2l-2 .5-2 .5h-1-1-1.5-1.5v1 1h2 2l2 .5 2 .5 1.5-.5 1.5-.5 2-.5 2-.5h1 1l2 .5 2 .5 1 1.5 1 1.5"/></g><path d="m293 524l-5-16v6 6l2.5 2 2.5 2" style="fill:#121a0e;stroke:#121a0e"/><path d="m347 524h3l1-.5 1-.5.5-.5.5-.5 1-1 1-1 .5-1.5.5-1.5 1.5-1 1.5-1 1-1 1-1h1.5 1.5l.5 1 .5 1 .5 1 .5 1 1-.5 1-.5 1-1 1-1 1-1 1-1-.5-.5-.5-.5-1-11.5-1-11.5-4-8-4-8-3.5 1-3.5 1-4-13-4-13 4-6.5 4-6.5-1-2-1-2-.5-2-.5-2-.5-1.5-.5-1.5-1-.5-1-.5v-1-1l-1-1-1-1-1-1.5-1-1.5-4.5 1-4.5 1 2.5 16 2.5 16 1 29 1 29 2.5 8 2.5 8" style="fill:#362e17;stroke:#362e17"/><path d="m0 523v1h1.5 1.5 1 1l2-.5 2-.5h2 2l2-.5 2-.5h2 2l2-.5 2-.5 1.5-.5 1.5-.5h2 2 2.5 2.5l1-1 1-1v-.5-.5l-1.5-.5-1.5-.5-1.5-.5-1.5-.5-1-.5-1-.5.5-.5.5-.5v-1-1l-.5.5-.5.5-1 .5-1 .5v2.5 2.5h-2-2l-1.5-.5-1.5-.5-2-.5-2-.5-.5 1.5-.5 1.5-.5.5-.5.5-1.5-.5-1.5-.5-1-.5-1-.5-.5.5-.5.5-1.5.5-1.5.5-1.5.5-1.5.5-2-.5-2-.5v1.5 1.5" style="fill:#553507;stroke:#553507"/><path d="m22 517l3 1h2 2v-2.5-2.5l-2-8-2-8-3.5 9.5-3.5 9.5 2 .5 2 .5" style="fill:#7d4827;stroke:#7d4827"/><path d="m39 517v1l1.5-.5 1.5-.5 1-.5 1-.5-.5-.5-.5-.5-1-1-1-1h-1.5-1.5l-.5-.5-.5-.5-.5-1-.5-1-.5-1.5-.5-1.5 1.5-1 1.5-1 .5-.5.5-.5 1.5.5 1.5.5 1.5 1 1.5 1 1.5-.5 1.5-.5 2-.5 2-.5 1-1 1-1 .5-2.5.5-2.5-.5-1-.5-1-1-.5-1-.5-1-.5-1-.5-8.5 10.5-8.5 10.5 1.5.5 1.5.5 1.5.5 1.5.5" style="fill:#534a2c;stroke:#534a2c"/><path d="m7 516l2-1 .5-1 .5-1-.5-.5-.5-.5-.5-1.5-.5-1.5.5-1.5.5-1.5-.5-2-.5-2h-1-1l-1-1.5-1-1.5-.5-1.5-.5-1.5-1.5-1-1.5-1v1.5 1.5 2 2 2.5 2.5.5.5h1.5 1.5v2.5 2.5l1 1 1 1 1 1 1 1" style="fill:#7d4827;stroke:#7d4827"/><path d="m60 516l3 1h1 1l.5-.5.5-.5 1.5-.5 1.5-.5-1-1-1-1-1-1-1-1-.5-.5-.5-.5-.5-1-.5-1-.5-1.5-.5-1.5v-1-1-1-1l-.5-.5-.5-.5v-1.5-1.5-1-1l-1-.5-1-.5v-1.5-1.5l-.5-.5-.5-.5-.5.5-.5.5-.5 1.5-.5 1.5-2-.5-2-.5-1 .5-1 .5 1 .5 1 .5 1 .5 1 .5.5 1 .5 1h.5.5l1.5.5 1.5.5.5 2 .5 2-.5 1.5-.5 1.5-.5 1-.5 1-.5 1.5-.5 1.5 1 1.5 1 1.5.5 1 .5 1" style="fill:#553507;stroke:#553507"/><g style="fill:#7d4827;stroke:#7d4827"><path d="m70 515h4l1-1 1-1 1-.5 1-.5-2-1.5-2-1.5-6.5-7-6.5-7v1 1 1.5 1.5l.5.5.5.5v1 1 1 1l.5 1.5.5 1.5.5 1 .5 1 .5.5.5.5 1 1 1 1 1 1 1 1h.5.5"/><path d="m105 513l3 1h2 2l1-1.5 1-1.5-1.5-.5-1.5-.5-2-.5-2-.5-1-1-1-1-1-.5-1-.5-1 1-1 1 .5 1.5.5 1.5 1.5 1 1.5 1"/></g><path d="m371 511l1 1 2-1 2-1 2 .5 2 .5-7.5-24-7.5-24-5.5-14-5.5-14-4 6.5-4 6.5 4 13 4 13 3.5-1 3.5-1 4 8 4 8 1 11.5 1 11.5" style="fill:#534a2c;stroke:#534a2c"/><path d="m337 506l3-56-6.5-12-6.5-12-17 3.5-17 3.5h.5.5l1-1 1-1 .5-1 .5-1h14.5 14.5l5.5 11.5 5.5 11.5-7.5 14.5-7.5 14.5.5 2 .5 2 .5 1 .5 1 1 2 1 2 1 1.5 1 1.5.5 1.5.5 1.5 1 1 1 1 1.5 1 1.5 1h1 1l.5 2.5.5 2.5" style="fill:#615e42;stroke:#615e42"/><path d="m43 503l3 1 1.5-.5 1.5-.5 2-.5 2-.5-.5-1.5-.5-1.5-1-1.5-1-1.5-1.5.5-1.5.5-2 .5-2 .5-1 1-1 1 .5 1.5.5 1.5h.5.5" style="fill:#7a7756;stroke:#7a7756"/><g style="fill:#7d4827;stroke:#7d4827"><path d="m101 499l3 1 1-1 1-1h2.5 2.5l.5-1.5.5-1.5-1.5-1-1.5-1-1.5-.5-1.5-.5h-1.5-1.5l-.5 1.5-.5 1.5-.5 1.5-.5 1.5v.5.5"/><path d="m90 498l4-17-5.5-.5-5.5-.5 3.5 9 3.5 9"/></g><path d="m291 496l5-8-1.5.5-1.5.5-.5.5-.5.5h-1.5-1.5l-1 1-1 1 2 2 2 2" style="fill:#553507;stroke:#553507"/><path d="m264 491l1 1v-.5-.5l-.5-1.5-.5-1.5v-2-2-1-1-1.5-1.5-2-2-1-1-1-1-1-1l.5-1 .5-1v-1-1l.5-.5.5-.5v-1-1-.5-.5l.5-1.5.5-1.5v-1-1-2-2l-.5 2-.5 2-.5 1.5-.5 1.5-.5 2-.5 2v2 2l-.5 2-.5 2v2 2 2 2l-.5 2-.5 2 .5 1.5.5 1.5.5 2.5.5 2.5" style="fill:#615e42;stroke:#615e42"/><path d="m265 491v1l5-28 5-28 9-9 9-9 7.5-2.5 7.5-2.5 4 3 4 3-13.5 6-13.5 6-1.5 12-1.5 12 2-.5 2-.5-1-1-1-1-1-1-1-1 .5-2 .5-2v-2-2l.5-1.5.5-1.5 1-1.5 1-1.5 1.5-1.5 1.5-1.5 17-3.5 17-3.5 6.5 12 6.5 12-2.5-16-2.5-16 4.5-1 4.5-1-.5-1-.5-1-.5-.5-.5-.5-.5-.5-.5-.5-.5-1-.5-1-1-.5-1-.5-2-1-2-1h-2-2-2-2l-2.5-.5-2.5-.5-14.5 3-14.5 3-9.5 12-9.5 12-.5 1.5-.5 1.5v1 1l-.5.5-.5.5v1 1l-.5 1.5-.5 1.5-.5 1-.5 1-.5.5-.5.5-.5 1-.5 1v2 2 1 1l-.5 1.5-.5 1.5v.5.5 1 1l-.5.5-.5.5v1 1l-.5 1-.5 1v1 1 1 1 1 1 2 2 1.5 1.5 1 1 2 2l.5 1.5.5 1.5" style="fill:#534a2c;stroke:#534a2c"/><g style="fill:#7d4827;stroke:#7d4827"><path d="m284 491l3 1 1-1 1-1h1.5 1.5l.5-.5.5-.5 1.5-.5 1.5-.5 6.5-5 6.5-5 7.5 4.5 7.5 4.5-.5-1-.5-1-.5-2-.5-2v-.5-.5l-9.5-3-9.5-3v-8.5-8.5l.5-2 .5-2 1-1 1-1 1.5-1 1.5-1 1.5-.5 1.5-.5h2 2l-.5-.5-.5-.5-9-9-9-9-.5 1-.5 1-1 1-1 1h-.5-.5l-1.5 1.5-1.5 1.5-1 1.5-1 1.5-.5 1.5-.5 1.5v2 2l-.5 2-.5 2 1 1 1 1 1 1 1 1 1.5.5 1.5.5 1 1 1 1v1 1l-.5 2-.5 2-.5 1-.5 1-.5.5-.5.5-1 1-1 1-1 .5-1 .5-.5.5-.5.5-1.5.5-1.5.5-1 .5-1 .5h-1-1l-.5 1.5-.5 1.5v1.5 1.5 1 1l.5 1.5.5 1.5.5 1.5.5 1.5 1 .5 1 .5v1 1l.5 1 .5 1"/><path d="m46 486h2l1-1 1-1h2.5 2.5l1.5.5 1.5.5.5-1 .5-1-1-1-1-1-1.5-1-1.5-1-1.5.5-1.5.5-1.5.5-1.5.5-.5 2-.5 2-.5.5-.5.5"/><path d="m16 485l3 1h2 2l2-.5 2-.5.5-1.5.5-1.5-1.5-1-1.5-1h-2-2l-2 .5-2 .5-.5 1.5-.5 1.5v.5.5"/><path d="m101 482h2 2 2l2-.5 2-.5.5-.5.5-.5-1-1.5-1-1.5h-2-2-1.5-1.5l-.5 1.5-.5 1.5-.5 1-.5 1"/></g><path d="m322 480v1l7.5-14.5 7.5-14.5-5.5-11.5-5.5-11.5h-14.5-14.5l9 9 9 9 .5 9.5.5 9.5h-1.5-1.5l-1.5-.5-1.5-.5h-2.5-2.5l-1-1-1-1v-2.5-2.5-.5-.5 8.5 8.5l9.5 3 9.5 3" style="fill:#7a7756;stroke:#7a7756"/><path d="m461 468l1 1 31-2 31-2-31.5 1.5-31.5 1.5" style="fill:#534a2c;stroke:#534a2c"/><path d="m316 466l-1-19 .5.5.5.5 1.5.5 1.5.5 1 1 1 1 1.5 1 1.5 1 1 1 1 1 .5 1.5.5 1.5-1 1.5-1 1.5-1.5.5-1.5.5-1 1.5-1 1.5-1.5-.5-1.5-.5h-2.5-2.5l-1.5-.5-1.5-.5-1-1-1-1-2-1.5-2-1.5v2.5 2.5l1 1 1 1h2.5 2.5l1.5.5 1.5.5h1.5 1.5" style="fill:#615e42;stroke:#615e42"/><path d="m291 464v1l1.5-1 1.5-1 .5-2 .5-2v-1-1l-1-1-1-1-1.5-.5-1.5-.5-2 .5-2 .5.5 1 .5 1 .5.5.5.5 1 1 1 1v1 1l.5 1 .5 1" style="fill:#553507;stroke:#553507"/><path d="m317 464l3 1 1-1.5 1-1.5 1.5-.5 1.5-.5 1-1.5 1-1.5-.5-1.5-.5-1.5-1-1-1-1-1.5-1-1.5-1-1-1-1-1-1.5-.5-1.5-.5h-2-2l-1.5.5-1.5.5-1.5 1-1.5 1-1 1-1 1-.5 2-.5 2v.5.5l2 1.5 2 1.5 1 1 1 1 1.5.5 1.5.5h2.5 2.5" style="fill:#534a2c;stroke:#534a2c"/><path d="m312 461l3 1 1.5-.5 1.5-.5 1.5-1 1.5-1v-2-2h-1.5-1.5-1-1-.5-.5l-1 .5-1 .5-1 2-1 2 .5.5.5.5" style="fill:#362e17;stroke:#362e17"/><path d="m310 459l1 1 1-2 1-2 1-.5 1-.5v-2-2l-2-.5-2-.5-1 1-1 1-1 1.5-1 1.5.5 1.5.5 1.5 1 .5 1 .5" style="fill:#553507;stroke:#553507"/><path d="m402 455l3 1 1.5-.5 1.5-.5-1-1.5-1-1.5-1-1-1-1v-2.5-2.5l-1-1-1-1-.5 2-.5 2-1 1-1 1-.5 1.5-.5 1.5 2 .5 2 .5v1 1" style="fill:#7a7756;stroke:#7a7756"/><g style="fill:#615e42;stroke:#615e42"><path d="m273 435v1l9.5-12 9.5-12 14.5-3 14.5-3-17 2.5-17 2.5-7 12-7 12"/><path d="m557 397l11-20-2.5-12.5-2.5-12.5-3.5 8.5-3.5 8.5 1 7 1 7-.5 7-.5 7"/><path d="m144 389v1l23.5-.5 23.5-.5 16-1 16-1 15-.5 15-.5h15 15l8.5-3.5 8.5-3.5 1.5-13.5 1.5-13.5v.5.5l.5 1 .5 1v1 1l-.5.5-.5.5v1.5 1.5 2 2 1 1 1.5 1.5l-1 1.5-1 1.5-1 1-1 1-.5 2.5-.5 2.5-14 1-14 1-15 1-15 1h-16-16l-14.5 1-14.5 1-15.5.5-15.5.5h-1.5-1.5l-.5 1-.5 1"/></g><path d="m148 387l31-1 14.5-1 14.5-1h16 16l15-1 15-1 14-1 14-1-1.5-.5-1.5-.5h-1-1l-.5.5-.5.5h-1.5-1.5l-2-.5-2-.5 9-13 9-13v-.5-.5h-.5-.5-1.5-1.5-1-1l-1 .5-1 .5-1.5.5-1.5.5v1 1 1 1 1 1l-.5 1-.5 1v1 1l-.5.5-.5.5-.5.5-.5.5h-.5-.5l-1.5-.5-1.5-.5-.5.5-.5.5-.5 1-.5 1v2 2l-1 .5-1 .5-16 2.5-16 2.5-16 .5-16 .5-25.5 1.5-25.5 1.5-1-.5-1-.5h-2-2l-1.5.5-1.5.5-1.5-.5-1.5-.5-2 .5-2 .5-2.5-.5-2.5-.5-1 1-1 1 .5 1 .5 1 .5 1 .5 1h1.5 1.5" style="fill:#534a2c;stroke:#534a2c"/><g style="fill:#7d4827;stroke:#7d4827"><path d="m15 382l16-1-1-7-1-7-6.5 2.5-6.5 2.5-.5 5-.5 5"/><path d="m55 382l3-22-11.5.5-11.5.5 7.5 6.5 7.5 6.5 2.5 4 2.5 4"/><path d="m143 382v1l1-1 1-1v-1-1l-1.5-1.5-1.5-1.5-.5-1.5-.5-1.5v-2.5-2.5-3-3-2-2-.5-.5l-.5-18.5-.5-18.5-.5-15.5-.5-15.5-1.5-32.5-1.5-32.5h-.5-.5l-.5 1-.5 1 1.5 27 1.5 27 .5 18 .5 18 1 17 1 17 1.5 16 1.5 16"/></g><path d="m166 382l51-3 16-.5 16-.5 16-2.5 16-2.5-20.5 1.5-20.5 1.5-15 .5-15 .5-17 1-17 1h-15.5-15.5v1 1l2.5.5 2.5.5 2-.5 2-.5 1.5.5 1.5.5 1.5-.5 1.5-.5h2 2l1 .5 1 .5" style="fill:#615e42;stroke:#615e42"/><path d="m285 379l4 1h1.5 1.5l.5-.5.5-.5h1 1l1.5.5 1.5.5.5-2.5.5-2.5h-1.5-1.5l-1-.5-1-.5v-1.5-1.5l.5-1.5.5-1.5.5-.5.5-.5.5-1 .5-1 1.5.5 1.5.5.5.5.5.5.5 1 .5 1-.5 2-.5 2 1-1.5 1-1.5v-1.5-1.5-1-1-2-2-1.5-1.5l.5-.5.5-.5v-1-1l-.5-1-.5-1-9 13-9 13" style="fill:#362e17;stroke:#362e17"/><path d="m296 375h3l1-1 1-1 .5-2 .5-2-.5-1-.5-1-.5-.5-.5-.5-1.5-.5-1.5-.5-.5 1-.5 1-.5.5-.5.5-.5 1.5-.5 1.5v1.5 1.5l1 .5 1 .5" style="fill:#121a0e;stroke:#121a0e"/><path d="m146 372h33l15-1 15-1 17.5-.5 17.5-.5 16.5-.5 16.5-.5-5-9-5-9-14 2-14 2-12-1-12-1-16 1-16 1-16 1-16 1-2.5 8-2.5 8" style="fill:#bdbf9e;stroke:#bdbf9e"/><path d="m281 372v1l1-.5 1-.5v-2-2l.5-1 .5-1 .5-.5.5-.5 1.5.5 1.5.5h.5.5l.5-.5.5-.5.5-.5.5-.5v-1-1l.5-1 .5-1v-1-1-1-1-1-1l1.5-.5 1.5-.5 1-.5 1-.5h1 1 1.5 1.5l-1-.5-1-.5h-2-2l-1 .5-1 .5h-1-1l-1 1-1 1-1.5.5-1.5.5-1.5 1-1.5 1 .5 1.5.5 1.5-.5 1-.5 1-.5.5-.5.5-.5 1.5-.5 1.5v1.5 1.5l-.5 1.5-.5 1.5" style="fill:#615e42;stroke:#615e42"/><path d="m141 357v1-32-32l-.5-18-.5-18-1-17-1-17-9.5-3.5-9.5-3.5-17 2.5-17 2.5h-15-15l-13 3-13 3-14.5 2.5-14.5 2.5v1 1l21.5-3 21.5-3v-.5-.5l1-.5 1-.5.5-.5.5-.5-.5-.5-.5-.5.5-.5.5-.5.5-.5.5-.5 1-.5 1-.5.5.5.5.5h1 1 1 1l1 .5 1 .5.5.5.5.5.5.5.5.5h1 1 1 1 2 2l16.5-2 16.5-2 18.5 1 18.5 1 1.5 32.5 1.5 32.5.5 15.5.5 15.5.5 18.5.5 18.5" style="fill:#7a7756;stroke:#7a7756"/><path d="m39 353l11-26 3 6 3 6 8.5.5 8.5.5 4-16 4-16 3.5-16.5 3.5-16.5-2.5-12.5-2.5-12.5-5 15-5 15-4 12-4 12-5-14-5-14-6 13.5-6 13.5-8.5-2.5-8.5-2.5 2.5 17.5 2.5 17.5 4 10 4 10" style="fill:#7d4827;stroke:#7d4827"/><g style="fill:#7a7756;stroke:#7a7756"><path d="m38 350l10-25 4-2 4-2 5.5 13.5 5.5 13.5 4-15 4-15 4-16 4-16 3.5-16.5 3.5-16.5-7 12-7 12-4 16-4 16-3.5-6.5-3.5-6.5-6-4.5-6-4.5-3.5 14.5-3.5 14.5-5-9-5-9v16 16l3 10 3 10"/><path d="m586 349l3 1 1-1 1-1 .5-2 .5-2-.5-1.5-.5-1.5-1-1.5-1-1.5-1.5.5-1.5.5-.5 2-.5 2 .5 1.5.5 1.5-.5 1.5-.5 1.5h.5.5"/></g><g style="fill:#989875;stroke:#989875"><path d="m67 332l9-26-1-1-1-1-3.5 14-3.5 14"/><path d="m59 327v-29l-2.5-4.5-2.5-4.5-3.5 12.5-3.5 12.5 5 1 5 1 1 5.5 1 5.5"/></g><g style="fill:#7a7756;stroke:#7a7756"><path d="m445 322h27l12-2 12-2 15-2 15-2 7-8 7-8-1-17-1-17-3.5-1.5-3.5-1.5-.5-15-.5-15v2 2 2 2 1 1 1.5 1.5 2 2 1.5 1.5 2 2l-.5 2-.5 2v1.5 1.5 2 2l.5 1.5.5 1.5-11.5 15-11.5 15 13.5 1.5 13.5 1.5-16 3-16 3-16 2-16 2-13.5 3-13.5 3 1 2 1 2"/><path d="m579 322l11-24-.5-16.5-.5-16.5-3-16-3-16-9 10-9 10 1 18 1 18 2.5 16.5 2.5 16.5h3.5 3.5"/></g><path d="m573 320l17-20-1-17-1-17-1-12.5-1-12.5.5 17.5.5 17.5-7 21-7 21-2.5-25-2.5-25 .5 19 .5 19 2 7 2 7" style="fill:#615e42;stroke:#615e42"/><path d="m573 318l14-42-.5-17.5-.5-17.5v-.5-.5l-9 14-9 14 2.5 25 2.5 25" style="fill:#534a2c;stroke:#534a2c"/><path d="m448 306l34-3 12.5-2 12.5-2-30 2.5-30 2.5v-.5-.5-1-1-.5-.5-18.5-18.5l-.5-.5-.5-.5 4-10 4-10 16-3 16-3 22-2.5 22-2.5-15 1-15 1-16 3-16 3-12 6-12 6 .5 13.5.5 13.5 1.5 14 1.5 14" style="fill:#7a7756;stroke:#7a7756"/><path d="m447 304l60-5 11.5-15 11.5-15-.5 2-.5 2v1.5 1.5 2 2l.5 2.5.5 2.5v.5.5l-.5 1-.5 1 .5 1.5.5 1.5-16.5 3.5-16.5 3.5-23 3-23 3h-2-2" style="fill:#615e42;stroke:#615e42"/><path d="m447 303v1h2 2v-.5-.5l14.5-2.5 14.5-2.5 25-3.5 25-3.5-.5-1.5-.5-1.5.5-1 .5-1-16 3-16 3-24.5 2-24.5 2 16-3 16-3 24.5-2.5 24.5-2.5-.5-2.5-.5-2.5-16.5 2-16.5 2-22.5 3-22.5 3 13.5-3 13.5-3 25.5-4 25.5-4v-1.5-1.5l.5-2 .5-2-.5-1.5-.5-1.5v-2-2l-21.5 4-21.5 4 21.5-4 21.5-4v-1.5-1.5l.5-2 .5-2-.5-2.5-.5-2.5-16 3-16 3-24.5 2.5-24.5 2.5 17-2.5 17-2.5 23.5-4 23.5-4v-2.5-2.5l-.5-2-.5-2v-1.5-1.5l-15.5 3-15.5 3-25 3-25 3 .5 1 .5 1 .5 1 .5 1-1.5 1-1.5 1 1 1 1 1 .5 1 .5 1-1 1-1 1v1.5 1.5l.5 7 .5 7-.5 12-.5 12v1 1" style="fill:#534a2c;stroke:#534a2c"/><path d="m451 303v1l23-3 23-3 16.5-3.5 16.5-3.5-25 3.5-25 3.5-14.5 2.5-14.5 2.5" style="fill:#362e17;stroke:#362e17"/><path d="m447 300v1l.5-12 .5-12-.5-7-.5-7v18.5 18.5" style="fill:#615e42;stroke:#615e42"/><g style="fill:#362e17;stroke:#362e17"><path d="m449 296l49-4 16-3 16-3v-.5-.5l-24.5 2.5-24.5 2.5-16 3-16 3"/><path d="m451 290l45-6 16.5-2 16.5-2v-2-2l-25.5 4-25.5 4-13.5 3-13.5 3"/></g><path d="m79 288l7-26-2.5 5.5-2.5 5.5-1 7.5-1 7.5" style="fill:#989875;stroke:#989875"/><g style="fill:#362e17;stroke:#362e17"><path d="m449 282l34-3 15.5-2.5 15.5-2.5.5-1.5.5-1.5-16.5 2.5-16.5 2.5-16.5 2.5-16.5 2.5v.5.5"/><path d="m449 268l34-3 15.5-2.5 15.5-2.5-.5-1.5-.5-1.5-16.5 2.5-16.5 2.5-15 3-15 3h-.5-.5"/></g><g style="fill:#615e42;stroke:#615e42"><path d="m567 267l1 1 9-14 9-14-9.5 2.5-9.5 2.5v11 11"/><path d="m446 262l1 1v-1.5-1.5l1-1 1-1-.5-1-.5-1-1-1-1-1 1.5-1 1.5-1-.5-1-.5-1-.5-1-.5-1v-.5-.5l16-3.5 16-3.5 24.5-2 24.5-2v1.5 1.5l.5 2 .5 2v2.5 2.5 1 1l.5 2.5.5 2.5v-2-2-1.5-1.5-2-2-1.5-1.5-1-1-2-2-2-2l-22 2.5-22 2.5-16 3-16 3-4 10-4 10"/></g><g style="fill:#362e17;stroke:#362e17"><path d="m448 261l49-5 16-3 16-3v-1-1l-23.5 4-23.5 4-17 2.5-17 2.5"/><path d="m450 254l34-3 14.5-1.5 14.5-1.5 3-3 3-3-17 3-17 3-16.5 2.5-16.5 2.5-1 .5-1 .5"/><path d="m447 247v1l25-3 25-3 15.5-3 15.5-3-24.5 2-24.5 2-16 3.5-16 3.5"/></g><path d="m0 238v1l21.5-2 21.5-2 15.5-2.5 15.5-2.5 14-1 14-1 16-1 16-1 .5-1 .5-1-13-.5-13-.5-16 1.5-16 1.5-15.5 2.5-15.5 2.5-23 3-23 3v.5.5" style="fill:#553507;stroke:#553507"/><path d="m0 236v1l23-3 23-3 15.5-2.5 15.5-2.5 16-1.5 16-1.5 13 .5 13 .5h.5.5l-18.5-1-18.5-1-16.5 2-16.5 2-2 .5-2 .5h-1-1l-1 .5-1 .5h-2-2-1-1-1.5-1.5l-1.5.5-1.5.5h-1.5-1.5l-21.5 3-21.5 3v.5.5" style="fill:#534a2c;stroke:#534a2c"/><path d="m43 228v1h1.5 1.5l1.5-.5 1.5-.5h1.5 1.5 1 1 2 2l1-.5 1-.5h1 1l2-.5 2-.5h-2-2-1-1-1-1l-.5-.5-.5-.5-.5-.5-.5-.5-1-.5-1-.5h-1-1-1-1l-.5-.5-.5-.5-1 .5-1 .5-.5.5-.5.5-.5.5-.5.5.5.5.5.5-.5.5-.5.5-1 .5-1 .5" style="fill:#615e42;stroke:#615e42"/><path d="m128 213l3 1 .5-1.5.5-1.5 1-1.5 1-1.5-1-1-1-1-1.5-1-1.5-1v-.5-.5l-1 .5-1 .5h-.5-.5-.5-.5v2.5 2.5l1.5.5 1.5.5-1.5 1-1.5 1 1.5.5 1.5.5" style="fill:#95b0a7;stroke:#95b0a7"/><g style="fill:#bdbf9e;stroke:#bdbf9e"><path d="m82 204l5-12-2 1-2 1-.5 5-.5 5"/><path d="m126 204h1l1-.5 1-.5 1-2.5 1-2.5-.5-1.5-.5-1.5.5-2 .5-2v-1-1l-1-2-1-2-1.5.5-1.5.5-1 .5-1 .5-2 1-2 1 1.5 5 1.5 5 1 2.5 1 2.5h.5.5"/></g><path d="m119 188l1 1 2-1 2-1 1-.5 1-.5 1.5-.5 1.5-.5 1 2 1 2 .5-1 .5-1-1-1.5-1-1.5 1.5-.5 1.5-.5-1-1-1-1-1.5-1-1.5-1v-.5-.5h-.5-.5l-.5 2-.5 2-1 .5-1 .5-2 1-2 1-.5 1.5-.5 1.5" style="fill:#95b0a7;stroke:#95b0a7"/><path d="m403 188l15-45 2.5-10.5 2.5-10.5 3-12 3-12-3.5-12-3.5-12-1.5-10.5-1.5-10.5-6.5-6-6.5-6 1-10 1-10 3.5-10.5 3.5-10.5h-2-2-2.5-2.5-2-2-2.5-2.5-1.5-1.5l-.5 18.5-.5 18.5-3-12-3-12v-6.5-6.5h-3-3-2-2-2.5-2.5-.5-.5l2.5 19.5 2.5 19.5-7.5 10-7.5 10-1 14-1 14 1 15 1 15 4 9.5 4 9.5 5 8 5 8 2.5 10.5 2.5 10.5 4 3 4 3 5.5 4.5 5.5 4.5" style="fill:#7a7756;stroke:#7a7756"/><path d="m119 183h2l.5-.5.5-.5-.5-2.5-.5-2.5 1-1.5 1-1.5-.5-1.5-.5-1.5-1-.5-1-.5-1 1.5-1 1.5-.5 1.5-.5 1.5 1 1 1 1-1 1.5-1 1.5 1 1 1 1" style="fill:#95b0a7;stroke:#95b0a7"/><g style="fill:#bdbf9e;stroke:#bdbf9e"><path d="m124 182v1l1-.5 1-.5.5-2 .5-2h.5.5l-4-7.5-4-7.5v3.5 3.5l1 .5 1 .5.5 1.5.5 1.5-1 1.5-1 1.5.5 2.5.5 2.5h1 1"/><path d="m83 179l1-10v4 4l-.5 1-.5 1"/><path d="m83 162l5-24-1.5 6.5-1.5 6.5-1 5.5-1 5.5"/></g><path d="m399 153l12-23-1.5-13.5-1.5-13.5.5-19.5.5-19.5-5-5-5-5-1 13-1 13-8-2-8-2-10 10-10 10 7 13 7 13 6.5 12.5 6.5 12.5 5.5 3 5.5 3" style="fill:#615e42;stroke:#615e42"/><path d="m126 144l2-23-2.5-8.5-2.5-8.5-.5 7-.5 7-.5 1-.5 1-.5.5-.5.5v1 1 1 1l1 .5 1 .5 1.5.5 1.5.5.5.5.5.5-1 .5-1 .5-1 1-1 1-.5.5-.5.5v1.5 1.5l.5 1.5.5 1.5-.5 1-.5 1 1.5.5 1.5.5 1 1 1 1v.5.5" style="fill:#bdbf9e;stroke:#bdbf9e"/><path d="m399 140l12-21-2.5-13.5-2.5-13.5.5-17.5.5-17.5-2 13-2 13v16 16l-5-15-5-15-13.5.5-13.5.5 1 13 1 13h1 1v-8-8l8-1.5 8-1.5 5 8 5 8 1 8.5 1 8.5-1-.5-1-.5-.5-1-.5-1-.5-.5-.5-.5-.5-.5-.5-.5h-1-1-1.5-1.5l-1.5-.5-1.5-.5-.5-.5-.5-.5-1-.5-1-.5-1-1-1-1-.5-.5-.5-.5h-1.5-1.5l-1.5-.5-1.5-.5-.5-.5-.5-.5-1-.5-1-.5 9 9.5 9 9.5 5.5 4.5 5.5 4.5" style="fill:#534a2c;stroke:#534a2c"/><path d="m115 139l3 1h1.5 1.5l.5-1 .5-1-.5-1.5-.5-1.5v-1.5-1.5l.5-.5.5-.5 1-1 1-1 1-.5 1-.5-.5-.5-.5-.5-1.5-.5-1.5-.5-1-.5-1-.5v-1-1-1-1l.5-.5.5-.5.5-1 .5-1-4.5 1.5-4.5 1.5 1 9 1 9" style="fill:#95b0a7;stroke:#95b0a7"/><g style="fill:#7a7756;stroke:#7a7756"><path d="m345 139l1-1v-2-2l.5-2 .5-2v-2-2l-.5-2-.5-2v-2-2l-.5-1.5-.5-1.5-1 1.5-1 1.5.5 1.5.5 1.5v1.5 1.5l.5 1.5.5 1.5-.5 2-.5 2 .5 1.5.5 1.5-.5 2-.5 2 .5.5.5.5"/><path d="m353 132l3-30-1.5-12.5-1.5-12.5-2-1-2-1 1 19 1 19 1 9.5 1 9.5"/></g><path d="m398 126l-2-17-5-8-5-8-8 1.5-8 1.5v8 8l1 .5 1 .5.5.5.5.5 1.5.5 1.5.5h1.5 1.5l.5.5.5.5 1 1 1 1 1 .5 1 .5.5.5.5.5 1.5.5 1.5.5h1.5 1.5 1 1l.5.5.5.5.5.5.5.5.5 1 .5 1 1 .5 1 .5" style="fill:#362e17;stroke:#362e17"/><path d="m3 124l-3-39v2.5 2.5 2.5 2.5 2 2 2.5 2.5 2 2 2 2 .5.5l1 1 1 1v1 1 1 1l.5 1 .5 1v1.5 1.5" style="fill:#95b0a7;stroke:#95b0a7"/><g style="fill:#7a7756;stroke:#7a7756"><path d="m345 114v1-16-16l-1.5-1.5-1.5-1.5.5 15.5.5 15.5 1 1.5 1 1.5"/><path d="m335 107l1-28-1 8-1 8 .5 6 .5 6"/></g><g style="fill:#bdbf9e;stroke:#bdbf9e"><path d="m114 98l6-7 .5-4.5.5-4.5-3.5 8-3.5 8"/><path d="m118 77l6-13-2-2-2-2-1.5 7.5-1.5 7.5.5 1 .5 1"/><path d="m79 71l5-26-3.5-10.5-3.5-10.5 1.5 9.5 1.5 9.5-2 13-2 13 1.5 1 1.5 1"/></g><path d="m452 46l20-9 11-4 11-4-2.5-3.5-2.5-3.5-15.5 4.5-15.5 4.5-3 7.5-3 7.5" style="fill:#7a7756;stroke:#7a7756"/><path d="m111 37l3 1 1-1 1-1 2-.5 2-.5 1 1 1 1 .5-2 .5-2-1-1-1-1-2 .5-2 .5-1.5.5-1.5.5-1.5.5-1.5.5v1.5 1.5" style="fill:#bdbf9e;stroke:#bdbf9e"/><path d="m393 37l1-37h-1.5-1.5-2-2v6.5 6.5l3 12 3 12" style="fill:#615e42;stroke:#615e42"/><path d="m118 28l2-1 .5-1 .5-1v-1-1l.5-1.5.5-1.5-.5-1.5-.5-1.5v-1.5-1.5l.5-1.5.5-1.5.5-2 .5-2-.5-1.5-.5-1.5-.5-1-.5-1-.5-.5-.5-.5-1.5-.5-1.5-.5h-1-1l1.5 14 1.5 14" style="fill:#bdbf9e;stroke:#bdbf9e"/><path d="m449 25l44-25h-.5-.5l-20.5 9-20.5 9v-1.5-1.5-1-1l-.5-1.5-.5-1.5-.5-.5-.5-.5v-1.5-1.5l.5-1.5.5-1.5-.5-.5-.5-.5-.5-1-.5-1h-1-1l.5 3 .5 3-.5 1.5-.5 1.5v1.5 1.5 2 2l.5 2 .5 2 .5 1.5.5 1.5.5 1 .5 1" style="fill:#7a7756;stroke:#7a7756"/><path d="m80 22l3 1 .5-.5.5-.5-.5-.5-.5-.5-.5-.5-.5-.5.5-1 .5-1v-1-1l-.5-.5-.5-.5-.5-.5-.5-.5-.5-1-.5-1 .5-.5.5-.5.5-.5.5-.5-.5-.5-.5-.5v-2-2l-.5-1-.5-1v-1-1l1-.5 1-.5h-2-2-.5-.5v1.5 1.5 1 1l-1.5.5-1.5.5.5 1 .5 1 .5.5.5.5-.5.5-.5.5-.5 1-.5 1-.5.5-.5.5.5 1.5.5 1.5 1 1 1 1v1.5 1.5l.5.5.5.5h1.5 1.5" style="fill:#bdbf9e;stroke:#bdbf9e"/><path d="m451 18l41-18h-1.5-1.5-2.5-2.5-2-2-2-2-2.5-2.5-2-2-2.5-2.5-2-2-2.5-2.5-2-2-.5-.5l.5 1 .5 1 .5.5.5.5-.5 1.5-.5 1.5v1.5 1.5l.5.5.5.5.5 1.5.5 1.5v1 1 1.5 1.5" style="fill:#615e42;stroke:#615e42"/></g></svg>